<svg width="566" height="471" viewBox="0 0 566 471" fill="none" xmlns="http://www.w3.org/2000/svg">
<g filter="url(#filter0_d)">
<rect x="24" y="20" width="329.281" height="423" rx="6" fill="white"/>
</g>
<path opacity="0.7" d="M62.7868 227.534H64.2053C64.1521 229.573 63.9038 231.381 63.4783 232.959C63.0705 231.718 62.7336 230.318 62.4854 228.757C62.5918 228.367 62.6804 227.959 62.7868 227.534ZM62.8223 234.821C62.2017 236.222 61.3861 237.357 60.3577 238.225L61.2443 239.644C62.1663 238.811 62.9464 237.818 63.5847 236.647C64.1521 237.835 64.8081 238.811 65.5528 239.555L66.5102 238.119C65.6592 237.374 64.9322 236.364 64.3117 235.052C65.1095 232.977 65.5528 230.477 65.6237 227.534H66.2443V225.956H63.106C63.2478 225.176 63.3542 224.36 63.4606 223.509L61.989 223.261C61.6698 226.47 61.067 229.076 60.1982 231.08V229.874H54.5599V231.364H60.0741C60.0386 231.435 60.0209 231.488 59.9854 231.559L60.9074 232.729C61.2088 232.197 61.4925 231.594 61.7585 230.938C62.0421 232.357 62.3968 233.651 62.8223 234.821ZM58.4606 238.651C59.418 238.03 60.3577 237.232 61.2797 236.24L60.9428 234.839C60.4996 235.3 60.0563 235.708 59.6308 236.098V232.41H55.074V234.732C55.0563 236.364 54.613 237.623 53.7443 238.491L54.9854 239.573C56.0492 238.509 56.5989 236.896 56.6343 234.732V233.935H58.1592V236.718C58.106 236.967 57.9818 237.144 57.7691 237.268L58.4606 238.651ZM56.7939 223.296V227.215H55.9074V224.254H54.5244V228.633H60.4287V224.254H59.0634V227.215H58.1946V223.296H56.7939ZM52.6804 223.314C52.0776 224.91 51.1379 226.293 49.879 227.498L50.3932 229.13C52.1308 227.605 53.3719 225.885 54.1166 223.988L52.6804 223.314ZM52.7691 228.066C52.1662 229.75 51.2265 231.222 49.9499 232.498L50.4464 234.112C50.9251 233.669 51.3684 233.225 51.7762 232.764V239.697H53.3542V230.548C53.6733 229.963 53.957 229.36 54.1875 228.74L52.7691 228.066ZM69.5954 230.318V239.697H71.2443V227.676C71.8826 226.452 72.3968 225.176 72.8046 223.864L71.2266 223.119C70.4287 225.849 69.2053 228.261 67.5741 230.318L68.1237 232.126C68.6556 231.523 69.1344 230.92 69.5954 230.318ZM72.4854 225.442V227.02H84.1344V225.442H79.3471C79.1521 224.768 78.8684 224.041 78.4961 223.243L76.8826 223.686C77.184 224.254 77.45 224.839 77.6805 225.442H72.4854ZM74.0989 228.101V229.608H82.6273V228.101H74.0989ZM74.0989 230.601V232.126H82.6273V230.601H74.0989ZM82.9996 233.243H73.7088V239.662H75.34V238.74H81.3684V239.662H82.9996V233.243ZM75.34 237.162V234.803H81.3684V237.162H75.34ZM88.2656 223.828V228.935H99.0458V223.828H88.2656ZM97.3436 227.428H89.9677V225.335H97.3436V227.428ZM89.5067 231.718L88.6734 234.945H97.5741C97.4678 236.293 97.3259 237.162 97.1309 237.516C96.9181 237.871 96.3507 238.048 95.4642 238.048C94.7195 238.048 93.8862 237.995 92.9287 237.906L93.4961 239.431C94.1876 239.52 94.9678 239.573 95.8366 239.573C97.1132 239.573 97.9819 239.289 98.4252 238.74C98.8685 238.19 99.1522 236.417 99.294 233.42H90.677L91.1911 231.718H101.705V230.105H85.5883V231.718H89.5067Z" fill="#2C2C2C"/>
<path opacity="0.7" d="M57.3613 327.468V338.248H50.2691V339.88H66.1379V338.248H59.0634V327.468H65.0209V325.855H51.4215V327.468H57.3613ZM75.8188 328.621H76.4571V341.014H78.1592V337.007H83.1769V335.394H78.1592V332.787H83.1415V331.156H78.1592V328.621H83.8507V326.972H76.5457C76.8117 326.298 77.0776 325.589 77.3259 324.844L75.6237 324.472C74.5954 327.486 73.3365 329.862 71.8649 331.582L73.0705 333.036C74.0812 331.795 75.0032 330.323 75.8188 328.621ZM69.7727 331.546V341.014H71.4748V329.099C72.184 327.894 72.7691 326.617 73.2301 325.27L71.6344 324.525C70.7656 327.185 69.418 329.525 67.5918 331.529L68.1592 333.337C68.7266 332.752 69.2762 332.149 69.7727 331.546ZM88.3897 328.248L86.8649 328.798C87.2372 329.507 87.5564 330.27 87.8401 331.068H85.6415V332.681H94.56V331.068H92.6451C93.0174 330.358 93.3543 329.56 93.6734 328.674L92.1309 328.142C91.8117 329.17 91.4216 330.146 90.9961 331.068H89.4181C89.0989 329.968 88.7621 329.029 88.3897 328.248ZM95.2514 325.217V340.943H96.8827V326.777H99.5422C98.9749 328.621 98.4075 330.217 97.8224 331.546C99.2054 333.195 99.9146 334.525 99.9323 335.536C99.9146 336.156 99.8614 336.564 99.755 336.741C99.6486 336.954 99.3827 337.061 98.9926 337.078C98.5493 337.078 98.0174 337.043 97.3791 336.972L97.911 338.745C99.4004 338.745 100.411 338.497 100.907 338.036C101.368 337.575 101.617 336.741 101.617 335.536C101.599 334.507 100.925 333.178 99.6132 331.546C100.251 329.986 100.854 328.302 101.404 326.493V325.217H95.2514ZM85.9784 326.209V327.823H94.4004V326.209H90.8897C90.7479 325.589 90.5883 325.021 90.4287 324.507L88.7089 324.791C88.8862 325.217 89.0635 325.695 89.2408 326.209H85.9784ZM93.8507 333.975H86.5812V340.926H88.2301V340.004H92.1663V340.926H93.8507V333.975ZM88.2301 338.408V335.571H92.1663V338.408H88.2301ZM116.652 340.837C117.982 340.837 118.656 340.163 118.656 338.816V325.394H110.358V326.954H117.025V338.355C117.025 338.975 116.776 339.295 116.315 339.295L114.773 339.259L115.198 340.837H116.652ZM104.081 327.557V340.997H105.712V327.557H104.081ZM107.042 324.436L105.517 325.11C106.298 326.068 107.025 327.149 107.698 328.39L109.205 327.592C108.585 326.458 107.858 325.394 107.042 324.436Z" fill="#2C2C2C"/>
<path opacity="0.7" d="M52.184 121.873C52.0421 123.025 51.8825 124.142 51.7052 125.224H50.1627V126.837H51.4393C51.1201 128.592 50.7478 130.224 50.34 131.713C51.1911 132.475 51.9535 133.202 52.6627 133.876C51.9889 135.1 51.1201 136.146 50.074 137.032L51.2265 138.451C52.2726 137.493 53.1591 136.376 53.8684 135.1C54.4357 135.685 54.9499 136.234 55.3755 136.766L56.4925 135.454C55.996 134.869 55.3755 134.213 54.6308 133.486C55.4818 131.412 55.9606 128.965 56.067 126.163V125.224H53.3896C53.5315 124.231 53.6911 123.149 53.8329 122.014L52.184 121.873ZM53.3896 132.316C53.0173 131.961 52.6095 131.607 52.1485 131.217C52.4854 130.046 52.8045 128.575 53.1237 126.837H54.5067C54.3825 128.894 54.0102 130.72 53.3896 132.316ZM58.4606 126.961H60.6414V130.827H57.184V132.475H60.6414V136.252H56.5811V137.883H66.3329V136.252H62.3258V132.475H65.6237V130.827H62.3258V126.961H65.7478V125.348H62.3258V122.05H60.6414V125.348H58.6911C58.7265 124.745 58.762 124.089 58.7797 123.38H57.2726C57.2194 126.11 56.7584 128.114 55.9074 129.426L57.1308 130.525C57.7336 129.603 58.1769 128.415 58.4606 126.961ZM73.567 137.351H81.067V138.291H82.7691V130.578H75.9783C78.9748 129.089 81.0493 127.209 82.2018 124.958V123.468H75.5528C75.8542 123.043 76.1202 122.6 76.3684 122.139L74.5244 121.926C73.4606 123.752 71.4393 125.295 68.4429 126.571L69.5776 128.025C71.4216 127.139 72.9287 126.146 74.1344 125.046H80.2691C79.489 126.323 78.301 127.458 76.6876 128.433C75.9606 127.812 74.9854 127.121 73.7443 126.358L72.2904 127.263C73.4961 127.954 74.489 128.61 75.2337 129.213C73.2478 130.135 70.7833 130.862 67.8223 131.429L68.7088 133.061C69.8258 132.795 70.8897 132.511 71.8826 132.209V138.291H73.567V137.351ZM81.067 135.72H73.567V132.139H81.067V135.72Z" fill="#2C2C2C"/>
<path opacity="0.7" d="M56.5431 53.9281V55.7924H60.9808V60.7772H55.7934V62.6617H68.5189V60.7772H62.9464V55.7924H67.6273V53.9281H62.9464V50.3617H60.9808V53.9281H56.5431ZM53.0781 55.61V63.4114H54.9829V53.4621C56.0568 52.1247 56.9687 50.6657 57.7387 49.1257H68.5189V47.2412H58.5898C58.914 46.4104 59.1977 45.5593 59.4611 44.688L57.4753 44.4651C57.1916 45.4175 56.8674 46.3496 56.4621 47.2412H50.687V49.1257H55.5502C54.1723 51.5978 52.3081 53.8268 49.9575 55.7721L51.1733 57.3526C51.842 56.7853 52.4702 56.2179 53.0781 55.61ZM77.6374 59.0345C75.6516 59.764 73.301 60.3516 70.6263 60.7974L70.8694 62.6819C73.4024 62.2159 75.6516 61.608 77.6374 60.838V59.0345ZM73.7468 44.5259C73.0173 46.7548 72.1865 48.8015 71.2139 50.6252C70.9707 50.9696 70.7073 51.2128 70.4236 51.3344L70.8897 53.077C71.9231 52.9352 72.916 52.7934 73.8887 52.6718C72.9566 54.3131 72.1865 55.4681 71.5786 56.1368C71.3355 56.3597 71.0518 56.5421 70.7073 56.6839L71.2342 58.4266C73.1795 58.1834 75.2463 57.6769 77.4348 56.9474V55.225C76.0974 55.6708 74.8005 56.0355 73.5037 56.3192C74.6384 54.8602 76.0163 52.5502 77.6577 49.3891L75.9353 48.7407C75.5503 49.5107 75.1855 50.2604 74.8208 50.9494C74.0913 51.0507 73.3821 51.1318 72.6729 51.2128C73.6455 49.693 74.6182 47.7072 75.5908 45.2553L73.7468 44.5259ZM87.5057 48.072L82.6628 48.7407V44.6474H80.7377V49.0041L77.7995 49.4296L78.0832 51.2128L80.7783 50.8278C80.8188 51.6383 80.8593 52.4084 80.9404 53.1581L77.455 53.7052L77.7185 55.5289L81.1835 54.9818C81.2646 55.4276 81.3456 55.8734 81.447 56.2989C81.6901 57.3121 81.9738 58.2442 82.3385 59.0953C80.9201 60.149 79.299 60.9595 77.4753 61.5269L78.5898 63.0669C80.2109 62.5806 81.7509 61.8106 83.2099 60.7569C83.3112 60.919 83.4328 61.1014 83.5746 61.2838C84.4865 62.4996 85.4591 63.1277 86.4723 63.148C87.607 63.148 88.4581 61.8309 89.066 59.2371L87.4247 58.1429C87.1005 60.0679 86.7155 61.0406 86.2494 61.0406C85.7631 61.0406 85.216 60.5543 84.6081 59.6221C85.7833 58.5684 86.8573 57.2918 87.8705 55.8329L86.3507 54.7994C85.601 55.9342 84.7499 56.9474 83.8178 57.839C83.5544 57.0892 83.3315 56.2381 83.1693 55.2858L83.0883 54.6981L88.3365 53.8673L88.0528 52.0436L82.8654 52.8541C82.7843 52.1247 82.7438 51.3749 82.7033 50.5644L87.7692 49.8552L87.5057 48.072ZM84.9323 44.5664L83.4733 45.4985C84.4054 46.4104 85.1552 47.2412 85.7023 48.0112L87.2018 46.9575C86.6749 46.2888 85.9049 45.4985 84.9323 44.5664ZM97.759 52.5705C97.0498 52.9352 96.3203 53.2797 95.5909 53.6039V50.0578H97.6983V48.2138H95.5909V44.7082H93.7064V48.2138H90.9303V50.0578H93.7064V54.3334C92.6729 54.6981 91.6192 54.9818 90.5453 55.225L91.0316 57.1297C91.9232 56.8461 92.8148 56.5421 93.7064 56.2179V60.7974C93.7064 61.304 93.4429 61.5674 92.9566 61.5674C92.4298 61.5674 91.8826 61.5269 91.295 61.4459L91.7408 63.2898H93.6456C94.9424 63.2898 95.5909 62.6009 95.5909 61.2635V55.4681C96.3203 55.1642 97.0296 54.84 97.759 54.4752V52.5705ZM100.414 54.3536H101.305C101.629 56.2179 102.42 57.9403 103.717 59.5411C102.906 60.4327 101.913 61.1622 100.738 61.7295L101.67 63.4114C102.967 62.7832 104.102 61.9727 105.034 60.9798C105.905 61.8309 106.938 62.6211 108.154 63.3912L109.451 61.8917C108.154 61.2027 107.06 60.4327 106.128 59.5816C107.101 58.1227 107.749 56.3395 108.073 54.2523V52.5907H100.414V47.0993H106.087C106.047 48.1733 105.966 48.8622 105.824 49.1662C105.702 49.3688 105.52 49.5107 105.317 49.5715C105.074 49.612 104.709 49.6323 104.243 49.6323C103.757 49.6323 103.372 49.612 103.068 49.612L103.595 51.2736H105.115C106.472 51.2736 107.283 50.8886 107.546 50.1186C107.789 49.3283 107.931 47.7478 107.931 45.3567H98.5899V63.3506H100.414V54.3536ZM103.028 54.3536H106.27C105.945 55.7721 105.459 57.0487 104.79 58.1429C103.879 56.9879 103.291 55.7316 103.028 54.3536ZM117.556 62.2159H126.128V63.2898H128.073V54.4752H120.312C123.737 52.7731 126.108 50.6252 127.425 48.0517V46.3496H119.826C120.17 45.8632 120.474 45.3567 120.758 44.8298L118.651 44.5866C117.435 46.6738 115.125 48.4367 111.7 49.8957L112.997 51.5573C115.105 50.5441 116.827 49.4094 118.205 48.153H125.216C124.324 49.612 122.967 50.9089 121.123 52.0233C120.292 51.3141 119.178 50.5238 117.759 49.6525L116.097 50.686C117.475 51.4762 118.61 52.226 119.461 52.9149C117.192 53.9686 114.375 54.7994 110.991 55.4479L112.004 57.3121C113.281 57.0082 114.497 56.6839 115.631 56.3395V63.2898H117.556V62.2159ZM126.128 60.3516H117.556V56.2584H126.128V60.3516ZM132.41 46.2483V48.0314H139.542V49.5107H133.585V51.2939H139.542V52.7731H131.7V54.536H137.84C136.381 56.0963 134.152 57.3932 131.133 58.4266L132.146 60.1085C133.362 59.6019 134.456 59.0548 135.469 58.4671V60.7569C135.469 61.1824 135.186 61.5067 134.659 61.7295L135.307 63.3709C137.536 62.8238 139.745 62.1348 141.913 61.2838L141.548 59.5208C140.15 60.0679 138.752 60.5543 137.354 61.0001V57.1905C138.367 56.38 139.218 55.4884 139.907 54.536H140.414C142.136 58.8319 144.851 61.7498 148.539 63.2696L149.593 61.5674C147.85 60.919 146.331 59.9869 145.074 58.7508C146.25 58.1834 147.344 57.4337 148.316 56.461L146.979 55.1642C146.006 56.2179 145.013 56.9879 143.96 57.5147C143.271 56.6434 142.663 55.6505 142.177 54.536H149.33V52.7731H141.488V51.2939H147.445V49.5107H141.488V48.0314H148.62V46.2483H141.488V44.688H139.542V46.2483H132.41ZM153.565 47.687V56.38H159.826V57.9808H151.721V59.8045H159.826V63.4317H161.731V59.8045H169.836V57.9808H161.731V56.38H167.992V47.687H164.304C164.872 46.9169 165.378 46.0659 165.824 45.1338L163.96 44.4651C163.494 45.5998 162.947 46.6738 162.298 47.687H158.205L159.421 47.0791C158.813 46.1469 158.164 45.3161 157.476 44.5664L155.875 45.3364C156.503 46.0254 157.09 46.8156 157.658 47.687H153.565ZM166.128 54.6779H161.731V52.8136H166.128V54.6779ZM159.826 54.6779H155.429V52.8136H159.826V54.6779ZM155.429 51.1925V49.3688H159.826V51.1925H155.429ZM161.731 49.3688H166.128V51.1925H161.731V49.3688Z" fill="#2C2C2C"/>
<rect x="49.3293" y="254.296" width="278.623" height="43.0599" rx="5.06587" fill="#F7F9FC"/>
<rect x="49.3293" y="152.979" width="278.623" height="43.0599" rx="5.06587" fill="#F7F9FC"/>
<rect x="49.3293" y="355.614" width="278.623" height="43.0599" rx="5.06587" fill="#F7F9FC"/>
<line x1="49.3293" y1="89.6557" x2="327.952" y2="89.6557" stroke="#E6EAEF" stroke-width="2.53293" stroke-dasharray="5.07 5.07"/>
<g filter="url(#filter1_d)">
<rect x="239.299" y="218.835" width="302.686" height="188.704" rx="6" fill="white"/>
</g>
<rect x="259.562" y="239.099" width="262.159" height="63.3234" rx="6" fill="#7087B3"/>
<rect x="259.562" y="313.82" width="53.1916" height="53.1916" rx="6" fill="#36CBA1"/>
<g clip-path="url(#clip0)">
<path d="M288.058 329.018H277.61C277.358 329.018 277.116 329.118 276.938 329.296C276.76 329.474 276.66 329.716 276.66 329.968V350.865C276.66 351.116 276.76 351.358 276.938 351.536C277.116 351.714 277.358 351.814 277.61 351.814H294.707C294.959 351.814 295.2 351.714 295.378 351.536C295.557 351.358 295.657 351.116 295.657 350.865V336.617H289.008C288.756 336.617 288.514 336.517 288.336 336.339C288.158 336.16 288.058 335.919 288.058 335.667V329.018Z" fill="white"/>
<path d="M295.1 334.717H289.958V329.574L295.1 334.717Z" fill="white"/>
</g>
<path d="M333.749 263.16V264.702H337.366C337.26 265.34 337.1 265.961 336.888 266.546H332.934V268.16H336.09C336.054 268.231 336.001 268.301 335.948 268.39C335.115 269.578 333.891 270.606 332.278 271.458L333.342 272.787C335.132 271.688 336.48 270.447 337.402 269.064C337.561 268.78 337.721 268.479 337.881 268.16H339.405C340.398 269.968 342.047 271.458 344.352 272.592L345.079 271.103C343.342 270.358 342.029 269.383 341.143 268.16H344.547V266.546H338.554C338.732 265.961 338.909 265.34 339.051 264.702H343.767V263.16H333.749ZM334.636 272.592C334.033 274.33 333.342 275.801 332.526 277.043L333.909 278.053C334.724 276.706 335.434 275.11 336.037 273.266L334.636 272.592ZM330.168 262.734L329.015 263.851C330.203 264.684 331.125 265.465 331.781 266.192L332.934 265.039C332.189 264.259 331.267 263.497 330.168 262.734ZM329.742 266.972L328.59 268.089C329.795 269.046 330.735 269.915 331.409 270.731L332.579 269.578C331.799 268.709 330.859 267.84 329.742 266.972ZM331.019 271.936C330.345 274.046 329.565 276.103 328.661 278.124L330.221 278.816C331.037 276.848 331.799 274.755 332.49 272.521L331.019 271.936ZM337.189 278.94C338.217 278.94 338.732 278.337 338.732 277.131V270.571H337.118V276.741C337.118 277.22 336.941 277.468 336.604 277.468C336.161 277.468 335.682 277.415 335.185 277.344L335.54 278.94H337.189ZM342.898 272.167L341.444 272.645C342.171 274.17 342.845 275.908 343.448 277.894L344.937 277.22C344.37 275.429 343.678 273.745 342.898 272.167ZM340.576 272.787L339.157 273.266C339.813 274.773 340.416 276.511 340.948 278.497L342.437 277.805C341.905 276.032 341.285 274.365 340.576 272.787ZM361.959 265.057H355.912V278.656H357.526V277.539H360.327V278.656H361.959V265.057ZM357.526 275.926V266.67H360.327V275.926H357.526ZM349.317 262.61V266.05H346.622V267.681H349.317C349.246 272.362 348.217 275.784 346.249 277.911L347.508 279.028C349.725 276.617 350.877 272.84 350.983 267.681H352.898C352.863 272.397 352.81 275.163 352.703 275.997C352.579 276.812 352.136 277.238 351.391 277.238C350.966 277.238 350.451 277.202 349.849 277.149L350.274 278.692C350.912 278.745 351.373 278.78 351.657 278.78C353.217 278.78 354.104 278.106 354.281 276.759C354.459 275.394 354.547 271.83 354.547 266.05H350.983V262.61H349.317ZM378.377 264.543H371.781C372.1 263.975 372.366 263.39 372.544 262.752L370.824 262.504C370.647 263.213 370.363 263.887 370.008 264.543H366.178V278.904H367.881V277.911H376.675V278.904H378.377V264.543ZM367.881 276.316V273.833H376.675V276.316H367.881ZM367.881 272.273V269.95H376.675V272.273H367.881ZM367.881 268.39V266.156H376.675V268.39H367.881ZM384.76 267.681V269.277H389.264V276.44L389.104 276.404C387.863 276.014 386.817 275.11 385.983 273.727C386.285 272.84 386.551 271.865 386.764 270.837L385.132 270.553C384.565 273.461 383.43 275.801 381.764 277.539L382.863 278.887C383.856 277.894 384.689 276.688 385.363 275.27C386.072 276.298 386.994 277.078 388.129 277.61C389.725 278.284 392.402 278.621 396.125 278.621H397.792L398.111 276.954C397.189 277.025 396.267 277.078 395.381 277.078C393.608 277.06 392.136 276.972 390.93 276.794V273.532H396.037V271.936H390.93V269.277H395.292V267.681H384.76ZM397.437 264.223H390.966C390.735 263.55 390.487 262.947 390.239 262.397L388.43 262.681C388.714 263.142 388.998 263.656 389.246 264.223H382.579V268.337H384.228V265.784H395.788V268.248H397.437V264.223ZM406.622 262.539L405.044 263.248C406.09 264.489 407.047 265.89 407.898 267.468L409.441 266.688C408.625 265.181 407.686 263.798 406.622 262.539ZM412.296 263.408C411.569 267.131 410.079 270.181 407.81 272.557C405.647 270.518 403.98 267.982 402.792 264.95L401.249 265.837C402.562 268.958 404.335 271.582 406.551 273.745C404.707 275.305 402.437 276.528 399.76 277.38L400.718 278.922C403.537 278 405.93 276.67 407.916 274.968C409.884 276.599 412.171 277.894 414.778 278.851L415.824 277.291C413.306 276.422 411.09 275.234 409.193 273.745C411.586 271.174 413.182 267.858 413.962 263.78L412.296 263.408ZM418.377 263.957V265.518H424.618V266.812H419.406V268.372H424.618V269.667H417.757V271.209H423.129C421.852 272.575 419.902 273.709 417.26 274.614L418.147 276.085C419.21 275.642 420.168 275.163 421.054 274.649V276.653C421.054 277.025 420.806 277.309 420.345 277.504L420.913 278.94C422.863 278.461 424.796 277.858 426.693 277.114L426.374 275.571C425.15 276.05 423.927 276.475 422.703 276.865V273.532C423.59 272.823 424.335 272.043 424.937 271.209H425.381C426.888 274.968 429.264 277.521 432.491 278.851L433.413 277.362C431.888 276.794 430.558 275.979 429.459 274.897C430.487 274.401 431.445 273.745 432.296 272.894L431.125 271.759C430.274 272.681 429.406 273.355 428.484 273.816C427.881 273.053 427.349 272.184 426.923 271.209H433.182V269.667H426.32V268.372H431.533V266.812H426.32V265.518H432.562V263.957H426.32V262.592H424.618V263.957H418.377ZM436.888 265.216V272.823H442.367V274.223H435.274V275.819H442.367V278.993H444.033V275.819H451.125V274.223H444.033V272.823H449.512V265.216H446.285C446.781 264.543 447.225 263.798 447.615 262.982L445.984 262.397C445.576 263.39 445.097 264.33 444.53 265.216H440.948L442.012 264.684C441.48 263.869 440.913 263.142 440.31 262.486L438.909 263.16C439.459 263.762 439.973 264.454 440.469 265.216H436.888ZM447.881 271.333H444.033V269.702H447.881V271.333ZM442.367 271.333H438.519V269.702H442.367V271.333ZM438.519 268.284V266.688H442.367V268.284H438.519ZM444.033 266.688H447.881V268.284H444.033V266.688ZM454.955 265.784V273.78C454.246 273.975 453.519 274.17 452.774 274.348L453.271 276.014C455.292 275.465 457.083 274.862 458.643 274.223V272.539C458.005 272.787 457.349 273.036 456.657 273.266V265.784H458.572V264.153H452.987V265.784H454.955ZM459.14 263.177V264.809H463.289C463.218 265.323 463.111 265.819 462.969 266.316H459.813V274.897H461.427V267.876H466.728V274.897H468.36V266.316H464.636C464.743 265.837 464.849 265.34 464.938 264.809H469.069V263.177H459.14ZM465.718 274.791L464.601 275.872C466.09 277.007 467.243 278.053 468.058 279.028L469.264 277.823C468.306 276.83 467.136 275.819 465.718 274.791ZM463.182 268.762V271.865C463.111 273.319 462.704 274.507 461.994 275.429C461.25 276.28 459.831 276.989 457.774 277.557L458.696 278.993C460.824 278.39 462.349 277.575 463.289 276.511C464.246 275.341 464.778 273.78 464.867 271.865V268.762H463.182Z" fill="white"/>
<rect x="284.892" y="259.362" width="10.1317" height="10.1317" rx="2.53293" fill="white"/>
<rect x="297.556" y="259.362" width="10.1317" height="10.1317" rx="2.53293" fill="white"/>
<rect x="297.556" y="272.027" width="10.1317" height="10.1317" rx="2.53293" fill="white"/>
<rect x="284.892" y="272.027" width="10.1317" height="10.1317" rx="2.53293" fill="white"/>
<rect x="391.275" y="313.82" width="53.1916" height="53.1916" rx="6" fill="#EF5A87"/>
<g clip-path="url(#clip1)">
<path d="M427.369 329.968H408.372C408.12 329.968 407.879 330.068 407.701 330.246C407.522 330.424 407.422 330.666 407.422 330.918V349.915C407.422 350.167 407.522 350.408 407.701 350.586C407.879 350.764 408.12 350.864 408.372 350.864H427.369C427.621 350.864 427.863 350.764 428.041 350.586C428.219 350.408 428.319 350.167 428.319 349.915V330.918C428.319 330.666 428.219 330.424 428.041 330.246C427.863 330.068 427.621 329.968 427.369 329.968ZM415.496 334.717C415.778 334.717 416.053 334.801 416.288 334.957C416.522 335.114 416.705 335.336 416.812 335.597C416.92 335.857 416.948 336.143 416.893 336.42C416.839 336.696 416.703 336.95 416.504 337.149C416.304 337.349 416.05 337.484 415.774 337.539C415.498 337.594 415.211 337.566 414.951 337.458C414.691 337.35 414.468 337.168 414.311 336.933C414.155 336.699 414.071 336.424 414.071 336.142C414.071 335.764 414.221 335.402 414.489 335.134C414.756 334.867 415.118 334.717 415.496 334.717ZM411.222 345.165L414.071 340.416L416.921 343.266L420.72 337.567L424.52 345.165H411.222Z" fill="white"/>
</g>
<rect x="325.418" y="313.82" width="53.1916" height="53.1916" rx="6" fill="#4667DD"/>
<g clip-path="url(#clip2)">
<path d="M361.513 329.968H342.516C342.264 329.968 342.022 330.068 341.844 330.246C341.666 330.424 341.566 330.666 341.566 330.918V349.915C341.566 350.167 341.666 350.408 341.844 350.586C342.022 350.764 342.264 350.864 342.516 350.864H361.513C361.765 350.864 362.006 350.764 362.184 350.586C362.363 350.408 362.463 350.167 362.463 349.915V330.918C362.463 330.666 362.363 330.424 362.184 330.246C362.006 330.068 361.765 329.968 361.513 329.968ZM358.663 348.408L353.914 343.659V348.015H352.014V340.416H359.613V342.316H355.257L360.006 347.065L358.663 348.408Z" fill="white"/>
</g>
<circle cx="467.263" cy="340.416" r="5.06587" fill="#C0C0C0"/>
<circle cx="482.461" cy="340.416" r="5.06587" fill="#C0C0C0"/>
<circle cx="497.658" cy="340.416" r="5.06587" fill="#C0C0C0"/>
<path d="M271.857 376.796V378.225H274.182C274.836 380.474 276.006 382.45 277.678 384.121C276.067 385.504 274.046 386.507 271.584 387.146L272.359 388.422C274.866 387.693 276.979 386.568 278.696 385.048C280.307 386.416 282.343 387.556 284.79 388.468L285.596 387.252C283.255 386.401 281.28 385.322 279.699 384.03C281.128 382.465 282.207 380.535 282.936 378.225H285.261V376.796H279.502C279.03 375.793 278.514 374.927 277.967 374.197L276.523 374.729C277.1 375.383 277.587 376.067 277.982 376.796H271.857ZM275.565 378.225H281.447C280.839 380.14 279.912 381.781 278.681 383.134C277.237 381.735 276.204 380.094 275.565 378.225ZM287.207 377.024V378.407H291.888C290.793 380.93 289.046 383.012 286.644 384.623L287.48 385.976C290.064 384 291.918 381.477 293.012 378.407H293.027V384H290.018V385.383H293.027V388.377H294.486V385.383H297.617V384H294.486V378.407H294.502C295.52 381.127 297.298 383.59 299.836 385.778L300.824 384.532C298.362 382.738 296.629 380.687 295.626 378.407H300.292V377.024H294.486V374.395H293.027V377.024H287.207Z" fill="#4F525B"/>
<path d="M340.135 374.501L339.147 375.444C340.226 376.325 341.062 377.146 341.639 377.906L342.658 376.903C341.974 376.112 341.138 375.307 340.135 374.501ZM348.843 388.118H352.339L352.703 386.69C352.278 386.72 351.685 386.751 350.925 386.766C350.15 386.781 349.39 386.796 348.646 386.796C347.46 386.796 346.442 386.781 345.591 386.766C344.679 386.735 344.01 386.599 343.554 386.386C343.19 386.188 342.825 385.884 342.46 385.474C342.384 385.383 342.308 385.322 342.247 385.261V379.501H338.858V380.839H340.895V385.14C340.287 385.444 339.588 386.219 338.828 387.465L339.892 388.453C340.667 387.07 341.214 386.386 341.548 386.386C341.715 386.386 341.913 386.507 342.126 386.766C342.582 387.283 343.114 387.647 343.722 387.83C344.345 387.982 345.15 388.073 346.138 388.088C347.111 388.103 348.022 388.118 348.843 388.118ZM347.384 374.304V376.127H345.773C345.925 375.717 346.062 375.276 346.199 374.82L344.816 374.547C344.466 375.839 343.889 377.055 343.068 378.194L344.314 378.969C344.618 378.514 344.892 378.027 345.165 377.51H347.384V379.395H343.463V380.778H345.788C345.728 381.614 345.591 382.328 345.363 382.906C344.998 383.772 344.208 384.501 343.007 385.094L343.95 386.219C345.378 385.459 346.29 384.517 346.685 383.362C346.943 382.632 347.095 381.766 347.156 380.778H348.418V384.821C348.418 385.185 348.524 385.504 348.767 385.763C348.995 385.991 349.329 386.112 349.785 386.112H350.864C351.396 386.097 351.761 385.976 351.974 385.763C352.187 385.535 352.354 384.76 352.475 383.453L351.214 383.027C351.168 384.061 351.077 384.623 350.956 384.729C350.849 384.821 350.712 384.881 350.56 384.881H350.226C349.922 384.881 349.77 384.745 349.77 384.501V380.778H352.232V379.395H348.782V377.51H351.7V376.127H348.782V374.304H347.384ZM359.466 374.866V376.158H360.317C360.697 377.207 361.29 378.103 362.111 378.833C361.214 379.228 360.15 379.562 358.919 379.836L359.618 381.067C361.077 380.717 362.339 380.276 363.387 379.745C364.466 380.352 365.819 380.748 367.46 380.96L367.977 379.669C366.731 379.532 365.637 379.273 364.725 378.893C365.743 378.103 366.442 377.176 366.807 376.082V374.866H359.466ZM361.731 376.158H365.317C364.907 376.918 364.254 377.571 363.372 378.149C362.643 377.632 362.095 376.963 361.731 376.158ZM355.758 388.24C356.761 388.24 357.263 387.738 357.263 386.751V382.617C357.81 382.404 358.342 382.161 358.874 381.918V380.459C358.342 380.732 357.81 380.976 357.263 381.188V378.529H358.843V377.146H357.263V374.395H355.804V377.146H354.071V378.529H355.804V381.72C355.135 381.933 354.451 382.1 353.767 382.252L354.132 383.696C354.694 383.529 355.257 383.346 355.804 383.164V386.386C355.804 386.735 355.621 386.918 355.257 386.918C354.892 386.918 354.512 386.887 354.117 386.842L354.436 388.24H355.758ZM359.77 381.918V383.225H362.688V384.638H358.98V385.976H362.688V388.194H364.086V385.976H367.719V384.638H364.086V383.225H366.944V381.918H364.086V380.748H362.688V381.918H359.77Z" fill="#4F525B"/>
<path d="M408.646 376.386C408.175 377.465 407.278 378.392 405.941 379.152L406.731 380.2C407.248 379.866 407.719 379.517 408.129 379.152C408.494 379.517 408.92 379.866 409.406 380.2C408.403 380.626 407.157 380.945 405.698 381.188L406.321 382.343C407.993 381.963 409.406 381.492 410.561 380.915C411.594 381.462 412.81 381.918 414.224 382.298L414.968 381.219C413.768 380.945 412.704 380.611 411.762 380.185C412.552 379.608 413.144 378.954 413.524 378.21V377.237H409.619C409.725 377.024 409.831 376.796 409.923 376.553L408.646 376.386ZM410.591 379.608C409.938 379.243 409.36 378.817 408.874 378.362C408.874 378.331 408.904 378.316 408.935 378.286H412.081C411.716 378.772 411.214 379.213 410.591 379.608ZM407.643 383.696L407.096 384.775C409.117 385.17 411.062 385.702 412.947 386.386L413.418 385.231C411.564 384.562 409.649 384.061 407.643 383.696ZM409.193 381.644L408.54 382.586C409.679 382.921 410.789 383.377 411.868 383.969L412.537 382.936C411.534 382.434 410.409 382.009 409.193 381.644ZM416.625 374.912H403.92V388.377H405.333V387.845H415.211V388.377H416.625V374.912ZM405.333 386.568V376.188H415.211V386.568H405.333ZM422.749 379.593H431.488V378.21H428.281V374.349H426.868V378.21H422.749V374.79H421.306V380.398C421.275 383.605 420.5 385.945 418.98 387.404L420.09 388.377C421.336 387.161 422.141 385.444 422.521 383.225H428.251V388.407H429.695V381.842H422.689C422.719 381.386 422.749 380.915 422.749 380.398V379.593Z" fill="#4F525B"/>
<defs>
<filter id="filter0_d" x="0" y="0" width="377.281" height="471" filterUnits="userSpaceOnUse" color-interpolation-filters="sRGB">
<feFlood flood-opacity="0" result="BackgroundImageFix"/>
<feColorMatrix in="SourceAlpha" type="matrix" values="0 0 0 0 0 0 0 0 0 0 0 0 0 0 0 0 0 0 127 0"/>
<feOffset dy="4"/>
<feGaussianBlur stdDeviation="12"/>
<feColorMatrix type="matrix" values="0 0 0 0 0.135086 0 0 0 0 0.204976 0 0 0 0 0.340522 0 0 0 0.08 0"/>
<feBlend mode="normal" in2="BackgroundImageFix" result="effect1_dropShadow"/>
<feBlend mode="normal" in="SourceGraphic" in2="effect1_dropShadow" result="shape"/>
</filter>
<filter id="filter1_d" x="215.299" y="198.835" width="350.686" height="236.704" filterUnits="userSpaceOnUse" color-interpolation-filters="sRGB">
<feFlood flood-opacity="0" result="BackgroundImageFix"/>
<feColorMatrix in="SourceAlpha" type="matrix" values="0 0 0 0 0 0 0 0 0 0 0 0 0 0 0 0 0 0 127 0"/>
<feOffset dy="4"/>
<feGaussianBlur stdDeviation="12"/>
<feColorMatrix type="matrix" values="0 0 0 0 0.135086 0 0 0 0 0.204976 0 0 0 0 0.340522 0 0 0 0.08 0"/>
<feBlend mode="normal" in2="BackgroundImageFix" result="effect1_dropShadow"/>
<feBlend mode="normal" in="SourceGraphic" in2="effect1_dropShadow" result="shape"/>
</filter>
<clipPath id="clip0">
<rect width="22.7964" height="22.7964" fill="white" transform="translate(274.76 329.018)"/>
</clipPath>
<clipPath id="clip1">
<rect width="22.7964" height="22.7964" fill="white" transform="translate(406.473 329.018)"/>
</clipPath>
<clipPath id="clip2">
<rect width="22.7964" height="22.7964" fill="white" transform="translate(340.616 329.018)"/>
</clipPath>
</defs>
</svg>
