<svg width="479" height="494" viewBox="0 0 479 494" fill="none" xmlns="http://www.w3.org/2000/svg">
<g filter="url(#filter0_d)">
<rect x="24" y="20" width="323.903" height="445.367" rx="6" fill="#FCFDFE"/>
</g>
<path opacity="0.7" d="M145.798 49.7903V51.4542H150.863V53.8312H146.968V61.4743H148.705V60.5783H154.941V61.456H156.659V53.8312H152.637V51.4542H157.738V49.7903H152.637V47.1207C154.282 46.883 155.727 46.5356 156.988 46.0967L156.129 44.6339C153.423 45.5116 150.095 45.9504 146.127 45.9504L146.676 47.5047C148.157 47.5047 149.546 47.4315 150.863 47.3218V49.7903H145.798ZM148.705 58.951V55.4586H154.941V58.951H148.705ZM142.708 44.7802L141.519 45.8956C142.854 46.7733 143.896 47.5961 144.628 48.3458L145.816 47.1755C144.957 46.371 143.915 45.5665 142.708 44.7802ZM142.287 49.132L141.062 50.3205C142.415 51.2896 143.476 52.1856 144.226 53.0267L145.432 51.8199C144.591 50.9239 143.531 50.028 142.287 49.132ZM144.061 54.0506C143.311 56.2448 142.415 58.3841 141.373 60.4869L143.11 61.2549C144.024 59.207 144.884 57.0128 145.652 54.6723L144.061 54.0506ZM160.079 45.731V47.3949H166.881V45.731H160.079ZM159.402 50.6679V52.3501H161.742C160.901 55.422 160.243 57.3053 159.749 58.0184C159.676 58.0733 159.567 58.1282 159.384 58.1647L159.804 59.8104C162.035 59.4081 164.101 58.8778 166.021 58.2196L166.497 59.3898L167.996 58.6218C167.228 56.7751 166.423 55.0746 165.582 53.5387L164.12 54.2518C164.54 55.038 164.961 55.8791 165.381 56.7751C164.156 57.2322 162.931 57.5979 161.724 57.8539C162.2 56.6837 162.766 54.8552 163.425 52.3501H167.539V50.6679H159.402ZM170.026 44.6522V48.1995H167.703V49.8817H170.026V50.0463C169.989 54.8186 168.855 58.2744 166.643 60.432L167.941 61.584C170.428 59.1521 171.689 55.3123 171.744 50.0463V49.8817H174.012C173.975 54.7455 173.92 57.6162 173.81 58.4756C173.664 59.3532 173.207 59.7921 172.403 59.7921C171.927 59.7921 171.36 59.7555 170.702 59.7007L171.104 61.2366C171.836 61.2731 172.348 61.3097 172.64 61.3097C174.304 61.3097 175.237 60.6149 175.438 59.2252C175.602 57.8356 175.694 54.1603 175.694 48.1995H171.744V44.6522H170.026ZM180.32 51.0885H182.88V53.7581H180.32V51.0885ZM182.88 49.5343H180.32V46.8281H182.88V49.5343ZM180.283 55.3306H182.88V59.0058C182.88 59.6458 182.679 59.9749 182.295 59.9749C181.856 59.9749 181.399 59.9384 180.887 59.8835L181.307 61.4194H182.77C183.885 61.4194 184.452 60.7977 184.452 59.5544V45.2556H178.766V54.2335C178.747 56.7019 178.382 58.7316 177.65 60.3223L178.967 61.5109C179.716 59.8835 180.155 57.8173 180.283 55.3306ZM187.323 53.5204H187.561C187.963 55.2209 188.694 56.7568 189.755 58.1099C189.078 58.8778 188.274 59.5361 187.323 60.0481V53.5204ZM187.323 60.1029L188.219 61.456C189.243 60.9075 190.139 60.2126 190.889 59.3715C191.656 60.1212 192.571 60.816 193.613 61.4377L194.472 59.9749C193.485 59.3898 192.607 58.7498 191.858 58.0367C192.626 56.7751 193.174 55.2391 193.503 53.4472V51.9844H187.323V46.8281H191.711C191.675 48.0532 191.602 48.8212 191.492 49.132C191.382 49.388 191.236 49.5526 191.053 49.6074C190.87 49.6623 190.578 49.6988 190.194 49.6988C189.682 49.6988 189.279 49.6806 188.987 49.6806L189.444 51.1433H190.98C192.15 51.1433 192.845 50.7594 193.064 49.9914C193.284 49.2051 193.394 47.6327 193.394 45.2556H185.696V61.4926H187.323V60.1029ZM189.042 53.5204H191.967C191.675 54.7272 191.254 55.806 190.706 56.7568C189.956 55.7877 189.407 54.7089 189.042 53.5204ZM201.146 44.5242C200.397 46.2979 198.952 47.7972 196.813 49.0223L197.873 50.4119C198.623 49.9548 199.3 49.4611 199.921 48.9309C200.671 49.5526 201.475 50.1377 202.353 50.6497C200.452 51.3628 198.257 51.8747 195.807 52.1856L196.612 53.8129C199.501 53.3741 202.061 52.661 204.255 51.6736C206.522 52.7524 209.082 53.4472 211.916 53.7764L212.702 52.149C210.289 51.9296 208.113 51.4359 206.156 50.7045C207.711 49.7903 209.045 48.6932 210.142 47.4315V46.0236H202.317C202.536 45.6396 202.737 45.2191 202.92 44.7802L201.146 44.5242ZM204.236 49.8451C203.085 49.26 202.024 48.5652 201.073 47.7789C201.091 47.7424 201.128 47.7058 201.183 47.6509H207.601C206.614 48.492 205.498 49.2234 204.236 49.8451ZM202.92 52.789C202.92 53.4472 202.847 54.0689 202.737 54.654H197.069V56.2082H202.207C202.097 56.4459 201.951 56.6837 201.805 56.9214C200.89 58.183 198.934 59.2435 195.953 60.1212L197.105 61.5291C200.488 60.4503 202.627 59.0973 203.542 57.4516C203.761 57.0676 203.944 56.6471 204.108 56.2082H209.064C209.009 57.8173 208.863 58.823 208.625 59.207C208.387 59.5727 207.802 59.7738 206.869 59.7921C206.284 59.7555 205.516 59.7189 204.566 59.6824L205.004 61.2549C205.882 61.3097 206.65 61.3463 207.272 61.3463C208.552 61.3463 209.466 61.0172 209.978 60.3955C210.49 59.7738 210.764 57.8539 210.801 54.654H204.492C204.584 54.0689 204.639 53.4472 204.639 52.789H202.92ZM216.963 45.1459V50.4119H228.08V45.1459H216.963ZM226.325 48.8577H218.718V46.7001H226.325V48.8577ZM218.243 53.2827L217.383 56.6105H226.562C226.453 58.0002 226.306 58.8961 226.105 59.2618C225.886 59.6275 225.301 59.8104 224.386 59.8104C223.618 59.8104 222.759 59.7555 221.772 59.6641L222.357 61.2366C223.07 61.328 223.874 61.3829 224.77 61.3829C226.087 61.3829 226.983 61.0903 227.44 60.5235C227.897 59.9566 228.19 58.1282 228.336 55.038H219.449L219.98 53.2827H230.823V51.6187H214.202V53.2827H218.243Z" fill="#49506C"/>
<path fill-rule="evenodd" clip-rule="evenodd" d="M303.497 64.406V63.512C303.497 62.6172 304.148 61.5744 304.952 61.1818L312.345 57.5742C313.417 57.051 313.666 55.8922 312.892 54.9745L312.42 54.4148C311.459 53.2762 310.68 51.1489 310.68 49.6597V47.4267C310.68 44.5417 313.025 42.203 315.905 42.203C318.79 42.203 321.129 44.5447 321.129 47.4275V49.6609C321.129 51.1486 320.346 53.2821 319.389 54.4167L318.917 54.9764C318.147 55.8891 318.388 57.0508 319.464 57.576L326.857 61.1821C327.661 61.5741 328.312 62.6104 328.312 63.512V64.406C328.312 65.1273 327.727 65.7121 327.006 65.7121H304.803C304.082 65.7121 303.497 65.1273 303.497 64.406Z" fill="#B2B5C2"/>
<g filter="url(#filter1_d)">
<rect x="42.2849" y="94.4456" width="287.333" height="321.291" rx="6" fill="white"/>
</g>
<path d="M69.4928 114.387H62.0744V127.699H63.8506V116.205H67.7375V127.699H69.4928V120.573L70.4541 121.806C71.2482 120.803 71.9378 119.674 72.5229 118.441H78.0606C78.0188 124.71 77.9561 128.367 77.8307 129.454C77.7053 130.499 77.2665 131.021 76.5351 131.021C75.6156 131.021 74.5499 130.979 73.3379 130.917L73.7976 132.693C75.2395 132.735 76.2426 132.777 76.8277 132.777C78.5412 132.777 79.4816 131.899 79.6906 130.185C79.8995 128.472 80.004 123.916 80.004 116.519H73.2752C73.5468 115.683 73.7767 114.784 73.9439 113.865L72.0214 113.614C71.5616 116.038 70.7258 118.128 69.4928 119.883V114.387ZM75.741 122.913L74.2364 123.645C74.529 124.397 74.8007 125.212 75.0723 126.09C74.1946 126.299 73.2543 126.466 72.2721 126.57C73.0662 124.94 73.8812 122.955 74.6753 120.594L72.8781 119.988C71.687 124.146 70.7466 126.403 70.0779 126.737L70.3914 128.451C72.2512 128.263 73.9648 127.991 75.553 127.657C75.6783 128.117 75.8246 128.597 75.95 129.099L77.5591 128.284C76.9739 126.34 76.3679 124.543 75.741 122.913ZM64.9582 117.522V124.376C64.8955 126.173 64.6238 127.636 64.1641 128.764C63.6835 129.809 62.764 130.666 61.4266 131.356L62.4714 133.006C63.8924 132.296 64.9164 131.272 65.5433 129.976C66.1911 128.597 66.5464 126.716 66.5882 124.376V117.522H64.9582ZM67.4867 128.221L66.2329 129.454C67.4031 130.666 68.3226 131.794 68.9495 132.839L70.3914 131.439C69.5973 130.373 68.6152 129.308 67.4867 128.221ZM82.9923 114.345V116.059H89.136V117.396H84.4551V122.328H100.211V117.396H95.5305V116.059H101.674V114.345H82.9923ZM93.6497 117.396H91.0167V116.059H93.6497V117.396ZM98.3098 120.719H95.5305V119.026H98.3098V120.719ZM93.6497 120.719H91.0167V119.026H93.6497V120.719ZM89.136 120.719H86.3567V119.026H89.136V120.719ZM85.4163 123.54V125.17H99.3755V123.54H85.4163ZM83.3266 126.319V128.012H91.6018V130.436C91.6018 130.959 91.3302 131.23 90.7868 131.23C90.2644 131.23 89.7211 131.188 89.136 131.126L89.5121 132.881H91.4347C92.8139 132.881 93.5243 132.191 93.5243 130.854V128.012H101.34V126.319H83.3266ZM96.8052 128.43L95.4887 129.684C97.4948 130.77 99.062 131.774 100.17 132.714L101.549 131.335C100.253 130.373 98.6859 129.391 96.8052 128.43ZM88.2792 128.472C86.9209 129.496 85.2491 130.394 83.2848 131.168L84.476 132.714C86.4821 131.836 88.1956 130.812 89.5748 129.642L88.2792 128.472ZM118.977 113.53L117.723 114.742C118.601 115.411 119.311 116.08 119.875 116.707H116.657C116.616 115.746 116.574 114.722 116.574 113.635H114.568C114.568 114.701 114.568 115.725 114.609 116.707H106V123.665C105.937 127.072 105.248 129.726 103.952 131.627L105.457 132.965C107.045 130.624 107.901 127.531 107.985 123.665V123.54H111.14C111.099 125.713 111.036 127.093 110.911 127.636C110.785 128.096 110.555 128.326 110.179 128.346C109.594 128.346 108.905 128.305 108.069 128.263L108.675 130.06C109.322 130.123 109.908 130.164 110.409 130.164C111.496 130.144 112.206 129.705 112.541 128.827C112.875 127.824 113.063 125.442 113.105 121.659H107.985V118.608H114.714C114.86 121.158 115.153 123.268 115.612 124.961C115.842 125.839 116.093 126.654 116.386 127.406C115.006 129.12 113.314 130.415 111.308 131.314L112.436 132.986C114.275 132.171 115.905 130.979 117.305 129.412C117.577 129.914 117.869 130.373 118.204 130.791C119.207 132.024 120.168 132.651 121.087 132.651C122.091 132.651 122.864 131.188 123.386 128.305L121.589 127.343C121.317 129.391 121.046 130.415 120.774 130.415C120.44 130.415 119.938 129.935 119.311 129.015C119.081 128.66 118.851 128.242 118.622 127.74C119.917 125.86 120.962 123.561 121.798 120.886L119.98 120.113C119.395 122.098 118.663 123.854 117.786 125.4C117.681 125.066 117.577 124.71 117.493 124.355C117.138 122.997 116.887 121.074 116.741 118.608H122.968V116.707H120.461L121.422 115.746C120.753 114.993 119.938 114.262 118.977 113.53ZM128.38 117.752V127.281C127.357 127.511 126.333 127.72 125.288 127.887L125.789 129.893C128.506 129.308 131.055 128.576 133.458 127.72V125.734C132.435 126.11 131.411 126.445 130.366 126.758V117.752H133.208V115.85H125.539V117.752H128.38ZM136.76 113.739V117.793H133.605V119.716H136.76V119.779C136.718 125.254 135.214 129.224 132.246 131.69L133.876 133.132C137.053 130.29 138.683 125.839 138.766 119.779V119.716H142.068C142.026 125.275 141.964 128.534 141.838 129.517C141.65 130.457 140.96 130.938 139.748 130.938C139.163 130.938 138.453 130.896 137.617 130.833L138.098 132.693C139.038 132.756 139.707 132.797 140.083 132.797C142.214 132.797 143.426 132.003 143.698 130.436C143.907 128.827 144.011 124.606 144.011 117.793H138.766V113.739H136.76ZM148.651 113.886L147.292 115.181C148.818 116.393 149.988 117.522 150.824 118.567L152.224 117.187C151.263 116.101 150.072 114.993 148.651 113.886ZM160.666 132.609H165.431L165.911 130.645C165.347 130.687 164.532 130.729 163.487 130.75C162.443 130.77 161.398 130.791 160.374 130.791C158.744 130.791 157.344 130.77 156.153 130.75C154.92 130.708 154 130.52 153.373 130.227C152.851 129.955 152.349 129.538 151.869 128.973C151.764 128.848 151.66 128.743 151.555 128.66V120.761H146.895V122.6H149.695V128.514C148.86 128.932 147.919 129.997 146.874 131.69L148.337 133.048C149.403 131.168 150.155 130.227 150.594 130.227C150.845 130.227 151.096 130.394 151.388 130.75C152.015 131.46 152.746 131.962 153.582 132.212C154.46 132.421 155.567 132.547 156.926 132.568C158.263 132.588 159.517 132.609 160.666 132.609ZM157.051 115.955L155.881 117.083C156.738 117.543 157.511 118.023 158.2 118.483H153.394V129.767H155.275V126.299H158.221V129.726H160.039V126.299H163.049V127.364C163.049 127.824 162.798 128.054 162.338 128.054L160.854 127.97L161.272 129.621H162.881C164.24 129.621 164.929 128.994 164.929 127.761V118.483H160.729C160.687 118.441 160.645 118.42 160.604 118.379C161.983 117.626 163.278 116.749 164.49 115.704V114.304H153.018V115.955H157.051ZM159.392 117.438C158.702 116.937 157.95 116.456 157.156 115.955H161.837C161.084 116.498 160.269 116.999 159.392 117.438ZM155.275 123.227H158.221V124.689H155.275V123.227ZM160.039 123.227H163.049V124.689H160.039V123.227ZM163.049 121.597H160.039V120.134H163.049V121.597ZM158.221 121.597H155.275V120.134H158.221V121.597ZM186.432 115.725H178.93V132.045H180.853V130.833H184.51V132.024H186.432V115.725ZM180.853 128.973V117.584H184.51V128.973H180.853ZM171.428 118.211H173.016C172.975 119.507 172.912 120.719 172.787 121.827H168.377V123.728H172.494C172.41 124.146 172.306 124.564 172.222 124.961C171.533 127.302 170.112 129.266 167.938 130.875L169.234 132.463C171.366 130.959 172.849 129.099 173.727 126.905C174.605 127.949 175.691 129.391 176.987 131.23L178.199 129.391C176.861 127.803 175.566 126.361 174.291 125.066C174.375 124.648 174.479 124.188 174.563 123.728H178.094V121.827H174.834C174.96 120.719 175.023 119.507 175.064 118.211H177.906V116.31H172.201C172.452 115.599 172.703 114.868 172.912 114.074L170.948 113.656C170.383 115.913 169.422 118.023 168.085 119.988L169.819 121.095C170.404 120.217 170.948 119.256 171.428 118.211Z" fill="#2D74FC"/>
<path d="M69.6914 158.291C70.475 158.291 70.8825 157.852 70.8825 156.99V152.743H69.754V156.724C69.754 157.116 69.5973 157.32 69.3152 157.32C68.9704 157.32 68.5943 157.288 68.2024 157.241L68.4375 158.291H69.6914ZM63.2655 153.793V158.307H64.3626V152.32C64.8642 151.552 65.3187 150.706 65.7262 149.797L64.6291 149.562C63.72 151.552 62.5603 153.166 61.1497 154.389L61.855 155.251C62.3408 154.812 62.811 154.326 63.2655 153.793ZM68.1554 149.546C67.4188 151.192 66.4628 152.524 65.2873 153.558L65.9769 154.404C66.7292 153.715 67.4188 152.931 68.0144 152.022H73.7976C73.6252 152.649 73.4058 153.213 73.1394 153.73L74.1581 153.997C74.4715 153.245 74.7223 152.477 74.926 151.693V150.988H68.6413C68.8294 150.612 69.0331 150.204 69.2212 149.781L68.1554 149.546ZM62.9991 159.106C62.6856 160.391 62.2155 161.583 61.5572 162.648L62.5132 163.26C63.1872 162.147 63.7044 160.83 64.0805 159.326L62.9991 159.106ZM70.7101 163.714C71.2743 163.714 71.6975 163.589 71.9639 163.338C72.2774 163.04 72.4811 162.209 72.5908 160.83L71.5251 160.485C71.4624 161.52 71.3527 162.147 71.1646 162.366C71.0235 162.554 70.8041 162.648 70.4907 162.648H67.0427C66.6038 162.648 66.4001 162.413 66.4001 161.974V158.902H65.256V162.209C65.256 163.212 65.7262 163.714 66.6979 163.714H70.7101ZM73.3744 158.62L72.4498 159.185C73.4058 160.532 74.1738 161.771 74.738 162.899L75.6627 162.241C75.1298 161.206 74.3775 160 73.3744 158.62ZM67.7323 154.248C67.168 155.376 66.4941 156.364 65.7105 157.21L66.5725 157.805C67.3561 156.928 68.0457 155.878 68.6413 154.671L67.7323 154.248ZM72.9356 154.232L71.9796 154.64C72.7005 155.58 73.3744 156.646 73.97 157.868L74.926 157.382C74.3462 156.222 73.6879 155.172 72.9356 154.232ZM68.5159 158.479L67.6382 159.028C68.3905 159.906 68.9861 160.721 69.4249 161.441L70.3026 160.83C69.8951 160.156 69.2995 159.373 68.5159 158.479ZM82.6214 155.878C82.0258 156.191 81.4302 156.473 80.819 156.74V153.542H82.5743V152.461H80.819V149.624H79.7062V152.461H77.4337V153.542H79.7062V157.178C78.8912 157.461 78.0606 157.711 77.1986 157.915L77.4807 159.028C78.233 158.793 78.9853 158.542 79.7062 158.276V162.225C79.7062 162.664 79.4868 162.899 79.0636 162.899C78.6405 162.899 78.2016 162.868 77.7471 162.821L77.9979 163.902H79.4555C80.3645 163.902 80.819 163.432 80.819 162.492V157.821C81.4302 157.57 82.0258 157.288 82.6214 156.99V155.878ZM84.5491 156.865H85.4581C85.7089 158.37 86.3671 159.764 87.4486 161.05C86.759 161.833 85.9126 162.476 84.9096 162.977L85.4581 163.965C86.5239 163.432 87.4486 162.727 88.2008 161.865C88.9218 162.586 89.8151 163.26 90.8495 163.918L91.6018 163.056C90.5047 162.445 89.58 161.786 88.8278 161.065C89.6427 159.89 90.1913 158.464 90.5047 156.802V155.831H84.5491V151.254H89.2823C89.2509 152.226 89.1882 152.868 89.0785 153.166C88.9688 153.354 88.8278 153.464 88.6554 153.527C88.4673 153.558 88.1695 153.589 87.7934 153.589C87.4172 153.589 87.1194 153.574 86.8687 153.574L87.1821 154.561H88.3106C89.3136 154.561 89.9092 154.263 90.0972 153.699C90.2696 153.119 90.3637 151.959 90.3637 150.22H83.4834V163.949H84.5491V156.865ZM86.4768 156.865H89.4233C89.1412 158.15 88.6867 159.279 88.0598 160.235C87.2135 159.216 86.6963 158.088 86.4768 156.865ZM98.106 162.977H105.112V163.902H106.256V157.288H99.7203C102.667 155.925 104.689 154.169 105.817 152.022V151.019H99.7046C100.018 150.596 100.3 150.157 100.551 149.687L99.3128 149.546C98.3724 151.207 96.5701 152.618 93.89 153.762L94.6423 154.734C96.3036 153.95 97.6515 153.072 98.7172 152.085H104.516C103.78 153.37 102.62 154.483 101.021 155.439C100.347 154.859 99.4068 154.201 98.2157 153.464L97.244 154.075C98.4351 154.749 99.3755 155.376 100.065 155.956C98.2627 156.865 96.0059 157.586 93.2945 158.15L93.89 159.232C94.9871 158.965 96.0059 158.683 96.9776 158.37V163.902H98.106V162.977ZM105.112 161.88H98.106V158.338H105.112V161.88ZM114.86 152.289H112.337C112.65 151.505 112.885 150.643 113.073 149.718L111.945 149.562C111.804 150.502 111.585 151.411 111.271 152.289H109.814V163.432H110.911V162.084H113.763V162.977H114.86V152.289ZM110.911 161.034V157.602H113.763V161.034H110.911ZM110.911 156.583V153.354H113.763V156.583H110.911ZM117.587 155.925L116.678 156.489C117.76 157.774 118.622 158.934 119.264 159.968L120.158 159.341C119.562 158.37 118.716 157.226 117.587 155.925ZM122.963 152.304H117.963C118.245 151.489 118.465 150.612 118.653 149.687L117.54 149.546C117.133 151.771 116.396 153.652 115.299 155.188L115.973 156.081C116.584 155.282 117.101 154.389 117.54 153.401H121.85C121.819 157.915 121.756 160.626 121.662 161.504C121.537 162.303 121.114 162.711 120.377 162.711C119.891 162.711 119.327 162.695 118.669 162.664L118.935 163.698C119.687 163.73 120.22 163.761 120.534 163.761C121.85 163.761 122.571 163.15 122.728 161.959C122.885 160.736 122.963 157.508 122.963 152.304ZM129.342 154.138V155.219H133.824V157.649H130.392V163.965H131.505V163.103H137.382V163.933H138.495V157.649H134.968V155.219H139.482V154.138H134.968V151.536C136.394 151.333 137.648 151.035 138.745 150.643L138.197 149.671C135.94 150.439 133.088 150.831 129.671 150.831L130.016 151.85C131.364 151.85 132.633 151.787 133.824 151.677V154.138H129.342ZM131.505 162.037V158.714H137.382V162.037H131.505ZM126.505 149.797L125.737 150.533C126.865 151.286 127.759 151.975 128.401 152.633L129.169 151.865C128.448 151.176 127.555 150.486 126.505 149.797ZM126.145 153.542L125.361 154.31C126.505 155.125 127.398 155.909 128.057 156.646L128.84 155.862C128.119 155.078 127.21 154.31 126.145 153.542ZM127.994 157.711C127.336 159.608 126.536 161.457 125.627 163.275L126.756 163.761C127.571 162.006 128.323 160.109 129.013 158.103L127.994 157.711ZM141.911 150.674V151.756H147.585V150.674H141.911ZM141.3 154.906V156.003H143.479C142.695 158.855 142.068 160.595 141.598 161.238C141.535 161.269 141.457 161.3 141.347 161.332L141.613 162.398C143.557 162.053 145.375 161.583 147.036 160.987C147.193 161.347 147.35 161.724 147.506 162.131L148.478 161.63C147.82 160.047 147.115 158.589 146.362 157.241L145.406 157.711C145.814 158.432 146.206 159.2 146.613 160.047C145.391 160.501 144.152 160.862 142.914 161.112C143.385 160.078 143.933 158.385 144.56 156.003H148.18V154.906H141.3ZM150.531 149.624V152.79H148.415V153.887H150.531V154.075C150.5 158.291 149.497 161.347 147.538 163.244L148.384 163.98C150.516 161.896 151.613 158.589 151.66 154.075V153.887H153.979C153.948 158.103 153.885 160.626 153.791 161.457C153.666 162.35 153.211 162.805 152.443 162.805C152.02 162.805 151.519 162.774 150.954 162.742L151.205 163.745C151.863 163.777 152.318 163.792 152.584 163.792C153.932 163.792 154.7 163.15 154.857 161.88C154.998 160.721 155.076 157.696 155.076 152.79H151.66V149.624H150.531ZM170.248 150.204H163.289V158.871H164.402V151.286H169.103V158.871H170.248V150.204ZM169.903 163.698C170.404 163.698 170.78 163.573 171.031 163.338C171.298 163.056 171.486 162.256 171.58 160.971L170.53 160.642C170.467 161.614 170.373 162.209 170.248 162.413C170.138 162.57 169.95 162.664 169.699 162.664H168.602C168.273 162.664 168.116 162.492 168.116 162.162V158.808H166.988V162.398C166.988 163.26 167.411 163.698 168.273 163.698H169.903ZM166.157 152.398V156.222C166.126 157.978 165.781 159.404 165.154 160.501C164.48 161.536 163.289 162.382 161.596 163.04L162.207 163.996C163.963 163.338 165.217 162.413 165.969 161.253C166.753 160 167.176 158.323 167.238 156.222V152.398H166.157ZM157.474 155.376V156.473H159.277V160.376C158.587 160.564 157.897 160.721 157.192 160.846L157.459 161.927C159.23 161.504 160.891 160.987 162.443 160.36V159.279C161.784 159.545 161.126 159.796 160.436 160.031V156.473H162.192V155.376H160.436V151.709H162.411V150.627H157.271V151.709H159.277V155.376H157.474ZM185.56 156.677V150.408H173.962V151.505H184.416V155.596H175.717V153.276H174.589V161.504C174.589 162.789 175.216 163.448 176.485 163.448H184.98C185.638 163.416 186.155 163.244 186.5 162.915C186.876 162.507 187.143 161.347 187.299 159.404L186.202 159.059C186.108 160.783 185.905 161.786 185.591 162.068C185.356 162.256 185.043 162.35 184.666 162.35H176.799C176.078 162.35 175.717 161.99 175.717 161.3V156.677H185.56ZM200.543 155.031H196.876V149.562H195.716V155.031H192.048V150.753H190.92V156.128H195.716V161.88H191.296V157.602H190.152V163.839H191.296V162.962H201.295V163.839H202.439V157.602H201.295V161.88H196.876V156.128H201.671V150.753H200.543V155.031ZM205.323 150.188V151.176H210.056V152.43H206.467V155.909H218.112V152.43H214.523V151.176H219.241V150.188H205.323ZM213.457 152.43H211.122V151.176H213.457V152.43ZM217.031 154.984H214.523V153.37H217.031V154.984ZM213.457 154.984H211.122V153.37H213.457V154.984ZM210.056 154.984H207.549V153.37H210.056V154.984ZM207.126 157.069V158.009H217.517V157.069H207.126ZM205.574 159.153V160.141H211.906V162.335C211.906 162.742 211.671 162.946 211.232 162.946C210.824 162.946 210.401 162.915 209.962 162.883L210.182 163.886H211.592C212.533 163.886 213.003 163.448 213.003 162.586V160.141H218.99V159.153H205.574ZM215.495 160.674L214.742 161.379C216.278 162.225 217.47 163.009 218.332 163.761L219.115 162.977C218.143 162.209 216.937 161.441 215.495 160.674ZM209.382 160.705C208.348 161.52 207.078 162.241 205.574 162.868L206.248 163.745C207.784 163.071 209.069 162.288 210.119 161.379L209.382 160.705ZM223.347 160.517C223.033 160.517 222.798 160.595 222.61 160.783C222.422 160.956 222.328 161.191 222.328 161.488C222.328 161.755 222.422 161.99 222.61 162.178C222.798 162.366 223.018 162.46 223.284 162.46C223.441 162.46 223.566 162.429 223.629 162.398C223.629 162.774 223.519 163.118 223.284 163.448C223.033 163.761 222.704 163.996 222.297 164.137V164.905C222.955 164.733 223.503 164.388 223.911 163.886C224.318 163.354 224.522 162.742 224.522 162.053C224.522 161.598 224.413 161.238 224.209 160.956C223.989 160.658 223.692 160.517 223.347 160.517ZM246.229 153.574V155.846H243.032V156.912H246.229V159.279H242.232V160.36H246.229V163.933H247.357V160.36H251.417V159.279H247.357V156.912H250.586V155.846H247.357V153.574H251.056V152.508H248.674C249.175 151.724 249.614 150.847 250.006 149.875L248.925 149.499C248.533 150.565 248.078 151.568 247.561 152.508H242.577V153.574H246.229ZM244.427 149.562L243.471 150.016C244.035 150.737 244.552 151.568 245.038 152.477L245.963 152.006C245.477 151.129 244.959 150.314 244.427 149.562ZM238.988 149.797L238.205 150.533C239.286 151.38 240.132 152.163 240.744 152.916L241.496 152.132C240.822 151.348 239.991 150.58 238.988 149.797ZM237.076 154.373V155.454H239.286V161.677C239.286 161.943 239.161 162.178 238.925 162.398L239.349 163.385C240.242 162.633 241.104 161.802 241.919 160.877L241.621 159.733C241.182 160.235 240.775 160.689 240.383 161.097V154.373H237.076ZM257.999 160.783C256.62 161.379 254.99 161.849 253.141 162.194L253.282 163.275C255.053 162.915 256.62 162.445 257.999 161.849V160.783ZM255.523 149.546C254.959 151.442 254.3 153.119 253.532 154.577C253.407 154.765 253.25 154.906 253.078 154.984L253.36 155.956C254.159 155.831 254.959 155.69 255.758 155.533C255.006 157.037 254.363 158.103 253.846 158.73C253.705 158.855 253.548 158.95 253.36 159.028L253.642 160.015C255.021 159.827 256.479 159.498 257.983 159.012V158.009C256.965 158.354 255.946 158.62 254.912 158.824C255.758 157.68 256.792 155.768 258.046 153.104L257.059 152.743C256.777 153.386 256.495 153.981 256.244 154.545C255.617 154.671 254.99 154.781 254.379 154.875C255.115 153.652 255.836 152.006 256.557 149.953L255.523 149.546ZM262.246 151.881V156.254H259.707V151.881H262.246ZM262.246 157.273V161.818H259.707V157.273H262.246ZM263.281 161.818V157.273H265.804V161.818H263.281ZM263.281 156.254V151.881H265.804V156.254H263.281ZM265.804 162.852V163.871H266.87V150.831H258.673V163.871H259.707V162.852H265.804ZM282.48 150.988H277.073V163.26H278.17V162.303H281.383V163.26H282.48V150.988ZM278.17 161.206V152.085H281.383V161.206H278.17ZM271.838 149.53C271.681 150.518 271.493 151.489 271.305 152.43H269.237V153.527H271.07C270.694 155.141 270.271 156.63 269.785 158.009C270.757 158.699 271.65 159.373 272.465 160C271.65 161.144 270.616 162.131 269.331 162.962L270.083 163.886C271.384 162.993 272.465 161.927 273.327 160.689C274.173 161.363 274.894 161.99 275.49 162.57L276.258 161.661C275.647 161.097 274.863 160.454 273.923 159.733C274.973 157.868 275.568 155.658 275.725 153.088V152.43H272.465C272.638 151.568 272.81 150.627 272.982 149.624L271.838 149.53ZM273.045 159.075C272.434 158.636 271.76 158.166 271.039 157.68C271.446 156.583 271.854 155.188 272.23 153.527H274.659C274.487 155.611 273.954 157.461 273.045 159.075ZM285.238 150.408V151.521H291.225V163.98H292.369V155.078C293.78 155.831 295.535 156.896 297.62 158.276L298.294 157.273C296.288 155.987 294.313 154.859 292.369 153.887V151.521H299.171V150.408H285.238ZM304.281 152.837C303.999 152.837 303.779 152.931 303.591 153.135C303.403 153.307 303.325 153.527 303.325 153.809C303.325 154.075 303.403 154.295 303.591 154.483C303.779 154.671 303.999 154.765 304.281 154.765C304.547 154.765 304.782 154.671 304.97 154.483C305.158 154.295 305.252 154.075 305.252 153.809C305.252 153.527 305.158 153.307 304.97 153.135C304.782 152.931 304.547 152.837 304.281 152.837ZM304.281 158.573C303.999 158.573 303.779 158.667 303.591 158.871C303.403 159.044 303.325 159.263 303.325 159.545C303.325 159.812 303.403 160.031 303.591 160.219C303.779 160.407 303.999 160.501 304.281 160.501C304.547 160.501 304.782 160.407 304.97 160.219C305.158 160.031 305.252 159.812 305.252 159.545C305.252 159.263 305.158 159.044 304.97 158.871C304.782 158.667 304.547 158.573 304.281 158.573Z" fill="#3D7FFF"/>
<path d="M65.397 202.462V203.544H69.8794V205.973H66.4471V212.289H67.5599V211.427H73.4371V212.258H74.5499V205.973H71.0235V203.544H75.5373V202.462H71.0235V199.861C72.4498 199.657 73.7036 199.359 74.8007 198.967L74.2521 197.996C71.9952 198.764 69.1428 199.155 65.7262 199.155L66.071 200.174C67.4188 200.174 68.6883 200.112 69.8794 200.002V202.462H65.397ZM67.5599 210.361V207.039H73.4371V210.361H67.5599ZM62.5603 198.121L61.7923 198.858C62.9207 199.61 63.8141 200.3 64.4567 200.958L65.2246 200.19C64.5037 199.5 63.6103 198.811 62.5603 198.121ZM62.1998 201.867L61.4162 202.635C62.5603 203.45 63.4536 204.233 64.1119 204.97L64.8955 204.186C64.1746 203.403 63.2655 202.635 62.1998 201.867ZM64.0492 206.036C63.3909 207.932 62.5916 209.782 61.6826 211.6L62.811 212.085C63.626 210.33 64.3783 208.434 65.0679 206.428L64.0492 206.036ZM77.9666 198.999V200.08H83.6401V198.999H77.9666ZM77.3553 203.23V204.327H79.5338C78.7502 207.18 78.1233 208.92 77.6531 209.562C77.5904 209.594 77.512 209.625 77.4023 209.656L77.6688 210.722C79.6122 210.377 81.4302 209.907 83.0915 209.311C83.2483 209.672 83.405 210.048 83.5617 210.456L84.5334 209.954C83.8752 208.371 83.1699 206.913 82.4176 205.566L81.4616 206.036C81.8691 206.757 82.2609 207.525 82.6684 208.371C81.4459 208.826 80.2078 209.186 78.9696 209.437C79.4398 208.402 79.9883 206.71 80.6152 204.327H84.2356V203.23H77.3553ZM86.5866 197.949V201.115H84.4707V202.212H86.5866V202.4C86.5552 206.616 85.5522 209.672 83.5931 211.568L84.4394 212.305C86.5709 210.22 87.668 206.913 87.715 202.4V202.212H90.0346C90.0032 206.428 89.9405 208.951 89.8465 209.782C89.7211 210.675 89.2666 211.129 88.4986 211.129C88.0755 211.129 87.5739 211.098 87.0097 211.067L87.2605 212.07C87.9187 212.101 88.3732 212.117 88.6397 212.117C89.9875 212.117 90.7555 211.474 90.9122 210.205C91.0533 209.045 91.1316 206.02 91.1316 201.115H87.715V197.949H86.5866ZM98.106 211.302H105.112V212.227H106.256V205.613H99.7203C102.667 204.249 104.689 202.494 105.817 200.347V199.344H99.7046C100.018 198.92 100.3 198.482 100.551 198.011L99.3128 197.87C98.3724 199.532 96.5701 200.942 93.89 202.086L94.6423 203.058C96.3036 202.274 97.6515 201.397 98.7172 200.409H104.516C103.78 201.694 102.62 202.807 101.021 203.763C100.347 203.183 99.4068 202.525 98.2157 201.789L97.244 202.4C98.4351 203.074 99.3755 203.701 100.065 204.28C98.2627 205.189 96.0059 205.91 93.2945 206.475L93.89 207.556C94.9871 207.29 96.0059 207.008 96.9776 206.694V212.227H98.106V211.302ZM105.112 210.205H98.106V206.663H105.112V210.205ZM109.437 202.196V203.277H111.6C111.099 205.064 110.252 206.647 109.061 208.042L109.547 209.296C110.456 208.042 111.193 206.647 111.726 205.111V212.227H112.807V205.142C113.277 205.691 113.857 206.428 114.515 207.368L115.142 206.428C114.359 205.581 113.591 204.829 112.807 204.139V203.277H114.735V202.196H112.807V199.782C113.606 199.626 114.359 199.438 115.048 199.25L114.656 198.184C113.152 198.654 111.443 198.967 109.5 199.14L109.719 200.206C110.409 200.143 111.067 200.049 111.726 199.955V202.196H109.437ZM118.339 212.195C119.233 212.195 119.687 211.725 119.687 210.785V202.494H118.528V210.503C118.528 210.957 118.324 211.192 117.948 211.192C117.525 211.192 117.07 211.161 116.6 211.114L116.835 212.195H118.339ZM116.365 204.751C115.973 206.569 115.362 208.246 114.515 209.75L115.487 210.361C116.318 208.841 116.96 207.039 117.415 204.954L116.365 204.751ZM121.725 204.641L120.706 204.97C121.364 206.584 121.976 208.434 122.524 210.518L123.559 210.064C123.041 208.136 122.43 206.334 121.725 204.641ZM117.43 201.162H121.913C121.725 202.071 121.49 202.886 121.208 203.622L122.305 203.951C122.618 202.917 122.853 201.867 123.041 200.801V200.065H117.854C118.073 199.406 118.261 198.717 118.402 197.996L117.289 197.855C116.913 199.861 116.177 201.553 115.111 202.933L115.801 203.826C116.443 203.042 116.992 202.149 117.43 201.162ZM128.433 201.162C128.151 201.162 127.931 201.256 127.743 201.459C127.555 201.632 127.477 201.851 127.477 202.133C127.477 202.4 127.555 202.619 127.743 202.807C127.931 202.995 128.151 203.089 128.433 203.089C128.699 203.089 128.934 202.995 129.122 202.807C129.31 202.619 129.404 202.4 129.404 202.133C129.404 201.851 129.31 201.632 129.122 201.459C128.934 201.256 128.699 201.162 128.433 201.162ZM128.433 206.898C128.151 206.898 127.931 206.992 127.743 207.196C127.555 207.368 127.477 207.587 127.477 207.87C127.477 208.136 127.555 208.355 127.743 208.543C127.931 208.732 128.151 208.826 128.433 208.826C128.699 208.826 128.934 208.732 129.122 208.543C129.31 208.355 129.404 208.136 129.404 207.87C129.404 207.587 129.31 207.368 129.122 207.196C128.934 206.992 128.699 206.898 128.433 206.898Z" fill="#7F7F7F"/>
<path d="M65.397 240.338V241.42H69.8794V243.849H66.4471V250.165H67.5599V249.303H73.4371V250.134H74.5499V243.849H71.0235V241.42H75.5373V240.338H71.0235V237.737C72.4498 237.533 73.7036 237.235 74.8007 236.843L74.2521 235.871C71.9952 236.639 69.1428 237.031 65.7262 237.031L66.071 238.05C67.4188 238.05 68.6883 237.987 69.8794 237.878V240.338H65.397ZM67.5599 248.237V244.915H73.4371V248.237H67.5599ZM62.5603 235.997L61.7923 236.733C62.9207 237.486 63.8141 238.175 64.4567 238.834L65.2246 238.066C64.5037 237.376 63.6103 236.686 62.5603 235.997ZM62.1998 239.743L61.4162 240.511C62.5603 241.326 63.4536 242.109 64.1119 242.846L64.8955 242.062C64.1746 241.279 63.2655 240.511 62.1998 239.743ZM64.0492 243.912C63.3909 245.808 62.5916 247.657 61.6826 249.475L62.811 249.961C63.626 248.206 64.3783 246.309 65.0679 244.303L64.0492 243.912ZM77.9666 236.875V237.956H83.6401V236.875H77.9666ZM77.3553 241.106V242.203H79.5338C78.7502 245.056 78.1233 246.795 77.6531 247.438C77.5904 247.469 77.512 247.501 77.4023 247.532L77.6688 248.598C79.6122 248.253 81.4302 247.783 83.0915 247.187C83.2483 247.548 83.405 247.924 83.5617 248.331L84.5334 247.83C83.8752 246.247 83.1699 244.789 82.4176 243.441L81.4616 243.912C81.8691 244.633 82.2609 245.4 82.6684 246.247C81.4459 246.701 80.2078 247.062 78.9696 247.313C79.4398 246.278 79.9883 244.585 80.6152 242.203H84.2356V241.106H77.3553ZM86.5866 235.824V238.99H84.4707V240.087H86.5866V240.275C86.5552 244.491 85.5522 247.548 83.5931 249.444L84.4394 250.181C86.5709 248.096 87.668 244.789 87.715 240.275V240.087H90.0346C90.0032 244.303 89.9405 246.827 89.8465 247.657C89.7211 248.551 89.2666 249.005 88.4986 249.005C88.0755 249.005 87.5739 248.974 87.0097 248.943L87.2605 249.946C87.9187 249.977 88.3732 249.993 88.6397 249.993C89.9875 249.993 90.7555 249.35 90.9122 248.081C91.0533 246.921 91.1316 243.896 91.1316 238.99H87.715V235.824H86.5866ZM98.3411 236.953H93.8274V248.88H94.9244V247.454H97.244V248.504H98.3411V236.953ZM94.9244 246.404V242.626H97.244V246.404H94.9244ZM94.9244 241.576V237.987H97.244V241.576H94.9244ZM100.598 241.623L99.6733 242.203C100.614 243.645 101.35 244.962 101.899 246.137L102.839 245.479C102.322 244.382 101.57 243.097 100.598 241.623ZM104.171 249.993C105.143 249.993 105.629 249.491 105.629 248.504V239.743H107.557V238.661H105.629V235.903H104.485V238.661H99.062V239.743H104.485V248.222C104.485 248.707 104.25 248.958 103.795 248.958C102.965 248.958 102.103 248.927 101.194 248.895L101.429 249.993H104.171ZM113.324 240.025V247.328H119.28V240.025H113.324ZM118.23 246.325H114.39V244.178H118.23V246.325ZM114.39 243.175V241.028H118.23V243.175H114.39ZM121.035 250.024C122.085 250.024 122.618 249.46 122.618 248.363V236.561H115.44V237.611H121.521V248.049C121.521 248.676 121.27 249.005 120.8 249.005L119.437 248.974L119.719 250.024H121.035ZM110.08 238.379V250.165H111.177V238.379H110.08ZM112.353 235.636L111.318 236.091C112.023 236.937 112.666 237.909 113.262 239.006L114.265 238.473C113.716 237.439 113.073 236.498 112.353 235.636ZM128.433 239.037C128.151 239.037 127.931 239.131 127.743 239.335C127.555 239.508 127.477 239.727 127.477 240.009C127.477 240.275 127.555 240.495 127.743 240.683C127.931 240.871 128.151 240.965 128.433 240.965C128.699 240.965 128.934 240.871 129.122 240.683C129.31 240.495 129.404 240.275 129.404 240.009C129.404 239.727 129.31 239.508 129.122 239.335C128.934 239.131 128.699 239.037 128.433 239.037ZM128.433 244.774C128.151 244.774 127.931 244.868 127.743 245.071C127.555 245.244 127.477 245.463 127.477 245.745C127.477 246.012 127.555 246.231 127.743 246.419C127.931 246.607 128.151 246.701 128.433 246.701C128.699 246.701 128.934 246.607 129.122 246.419C129.31 246.231 129.404 246.012 129.404 245.745C129.404 245.463 129.31 245.244 129.122 245.071C128.934 244.868 128.699 244.774 128.433 244.774Z" fill="#7F7F7F"/>
<path d="M65.397 278.214V279.295H69.8794V281.725H66.4471V288.041H67.5599V287.179H73.4371V288.009H74.5499V281.725H71.0235V279.295H75.5373V278.214H71.0235V275.612C72.4498 275.408 73.7036 275.111 74.8007 274.719L74.2521 273.747C71.9952 274.515 69.1428 274.907 65.7262 274.907L66.071 275.926C67.4188 275.926 68.6883 275.863 69.8794 275.753V278.214H65.397ZM67.5599 286.113V282.79H73.4371V286.113H67.5599ZM62.5603 273.873L61.7923 274.609C62.9207 275.361 63.8141 276.051 64.4567 276.709L65.2246 275.941C64.5037 275.252 63.6103 274.562 62.5603 273.873ZM62.1998 277.618L61.4162 278.386C62.5603 279.201 63.4536 279.985 64.1119 280.722L64.8955 279.938C64.1746 279.154 63.2655 278.386 62.1998 277.618ZM64.0492 281.787C63.3909 283.684 62.5916 285.533 61.6826 287.351L62.811 287.837C63.626 286.082 64.3783 284.185 65.0679 282.179L64.0492 281.787ZM77.9666 274.75V275.832H83.6401V274.75H77.9666ZM77.3553 278.982V280.079H79.5338C78.7502 282.931 78.1233 284.671 77.6531 285.314C77.5904 285.345 77.512 285.376 77.4023 285.408L77.6688 286.473C79.6122 286.129 81.4302 285.658 83.0915 285.063C83.2483 285.423 83.405 285.8 83.5617 286.207L84.5334 285.705C83.8752 284.123 83.1699 282.665 82.4176 281.317L81.4616 281.787C81.8691 282.508 82.2609 283.276 82.6684 284.123C81.4459 284.577 80.2078 284.938 78.9696 285.188C79.4398 284.154 79.9883 282.461 80.6152 280.079H84.2356V278.982H77.3553ZM86.5866 273.7V276.866H84.4707V277.963H86.5866V278.151C86.5552 282.367 85.5522 285.423 83.5931 287.32L84.4394 288.056C86.5709 285.972 87.668 282.665 87.715 278.151V277.963H90.0346C90.0032 282.179 89.9405 284.702 89.8465 285.533C89.7211 286.426 89.2666 286.881 88.4986 286.881C88.0755 286.881 87.5739 286.85 87.0097 286.818L87.2605 287.821C87.9187 287.853 88.3732 287.868 88.6397 287.868C89.9875 287.868 90.7555 287.226 90.9122 285.956C91.0533 284.796 91.1316 281.772 91.1316 276.866H87.715V273.7H86.5866ZM107.008 276.678L103.638 277.712V273.653H102.541V278.057L100.253 278.762V275.252H99.1561V279.107L97.8396 279.515V280.612L99.1561 280.204V286.176C99.1561 287.21 99.6733 287.743 100.723 287.743H105.676C106.256 287.743 106.679 287.586 106.945 287.288C107.259 286.944 107.463 285.988 107.572 284.405L106.522 284.076C106.46 285.345 106.334 286.113 106.162 286.364C106.036 286.567 105.801 286.677 105.472 286.677H101.068C100.52 286.677 100.253 286.426 100.253 285.956V279.875L102.541 279.186V284.781H103.638V278.856L105.927 278.167C105.911 280.298 105.864 281.537 105.786 281.866C105.692 282.21 105.425 282.383 105.002 282.383C104.814 282.383 104.595 282.367 104.359 282.352L104.673 283.464H104.767C105.942 283.464 106.616 283.119 106.773 282.461C106.93 281.772 107.008 279.844 107.008 276.678ZM98.0433 283.339C97.4478 283.621 96.8208 283.887 96.1939 284.123V278.919H97.8239V277.822H96.1939V273.779H95.0812V277.822H93.2945V278.919H95.0812V284.499C94.4229 284.687 93.7647 284.859 93.1064 285L93.3885 286.129C95.0498 285.69 96.6014 285.126 98.0433 284.452V283.339ZM118.919 273.637V286.301H116.568V276.96H115.44V286.301H113.622V287.398H123.496V286.301H120.063V279.734H123.041V278.653H120.063V273.637H118.919ZM114.406 283.464C113.716 283.715 113.011 283.934 112.29 284.138V278.794H114.218V277.697H112.29V273.716H111.13V277.697H109.171V278.794H111.13V284.452C110.44 284.608 109.735 284.749 109.014 284.875L109.312 286.066C111.13 285.69 112.838 285.204 114.406 284.64V283.464ZM128.433 276.913C128.151 276.913 127.931 277.007 127.743 277.211C127.555 277.383 127.477 277.603 127.477 277.885C127.477 278.151 127.555 278.371 127.743 278.559C127.931 278.747 128.151 278.841 128.433 278.841C128.699 278.841 128.934 278.747 129.122 278.559C129.31 278.371 129.404 278.151 129.404 277.885C129.404 277.603 129.31 277.383 129.122 277.211C128.934 277.007 128.699 276.913 128.433 276.913ZM128.433 282.649C128.151 282.649 127.931 282.743 127.743 282.947C127.555 283.119 127.477 283.339 127.477 283.621C127.477 283.887 127.555 284.107 127.743 284.295C127.931 284.483 128.151 284.577 128.433 284.577C128.699 284.577 128.934 284.483 129.122 284.295C129.31 284.107 129.404 283.887 129.404 283.621C129.404 283.339 129.31 283.119 129.122 282.947C128.934 282.743 128.699 282.649 128.433 282.649Z" fill="#7F7F7F"/>
<path d="M69.1428 321.606C68.6726 321.732 68.2024 321.842 67.7166 321.951V313.206H68.9234V314.084H69.5503C69.7697 316.717 70.4593 319.146 71.6191 321.371C70.7728 322.782 69.7227 323.973 68.4532 324.976L69.2212 325.854C70.3966 324.929 71.3997 323.801 72.246 322.484C72.967 323.66 73.8446 324.788 74.8947 325.869L75.647 325.007C74.5342 323.926 73.5939 322.735 72.8416 321.45C73.923 319.397 74.6439 316.92 74.9887 314.021V312.986H68.9234V312.14H61.4632V313.206H62.7013V322.907C62.2311 322.97 61.761 323.048 61.2908 323.111L61.5572 324.208C63.3126 323.957 64.9895 323.66 66.6195 323.315V325.901H67.7166V323.064C68.1868 322.954 68.657 322.845 69.1428 322.719V321.606ZM70.5847 314.084H73.923C73.6409 316.419 73.061 318.472 72.2147 320.259C71.3213 318.394 70.7728 316.34 70.5847 314.084ZM66.6195 322.202C65.6948 322.39 64.7544 322.578 63.7984 322.735V320.071H66.6195V322.202ZM63.7984 319.052V316.67H66.6195V319.052H63.7984ZM63.7984 315.635V313.206H66.6195V315.635H63.7984ZM77.4337 312.14V313.127H82.1668V314.381H78.5778V317.861H90.2226V314.381H86.6336V313.127H91.3511V312.14H77.4337ZM85.5678 314.381H83.2326V313.127H85.5678V314.381ZM89.1412 316.936H86.6336V315.322H89.1412V316.936ZM85.5678 316.936H83.2326V315.322H85.5678V316.936ZM82.1668 316.936H79.6592V315.322H82.1668V316.936ZM79.236 319.02V319.961H89.6271V319.02H79.236ZM77.6844 321.105V322.092H84.0162V324.286C84.0162 324.694 83.7811 324.898 83.3423 324.898C82.9348 324.898 82.5116 324.866 82.0728 324.835L82.2922 325.838H83.7028C84.6431 325.838 85.1133 325.399 85.1133 324.537V322.092H91.1003V321.105H77.6844ZM87.6053 322.625L86.853 323.33C88.3889 324.177 89.58 324.96 90.442 325.713L91.2257 324.929C90.254 324.161 89.0472 323.393 87.6053 322.625ZM81.4929 322.657C80.4585 323.471 79.189 324.192 77.6844 324.819L78.3584 325.697C79.8943 325.023 81.1795 324.239 82.2295 323.33L81.4929 322.657ZM98.4665 317.03H95.5827C95.9902 315.933 96.288 314.757 96.5074 313.504H98.874V312.407H93.5296V313.504H95.4416C95.0655 315.839 94.2819 317.923 93.0907 319.741L93.655 320.65C94.0311 320.118 94.3759 319.569 94.6894 319.005V325.384H95.7394V324.192H97.4321V325.086H98.4665V317.03ZM95.7394 323.174V318.064H97.4321V323.174H95.7394ZM100.582 314.35L99.736 319.428H106.068C106.068 321.936 105.942 323.456 105.692 323.989C105.457 324.49 104.736 324.757 103.529 324.757C103.247 324.757 102.761 324.725 102.071 324.663L102.385 325.76C102.886 325.791 103.356 325.807 103.795 325.807C105.174 325.807 106.068 325.509 106.507 324.945C106.914 324.349 107.133 322.171 107.133 318.378H105.472L106.334 312.187H99.5949V313.253H105.112L104.328 318.378H101.005L101.695 314.428L100.582 314.35ZM99.2501 321.418V322.484H104.986V321.418H99.2501ZM112.447 314.789C112.164 314.789 111.945 314.883 111.757 315.087C111.569 315.259 111.491 315.478 111.491 315.761C111.491 316.027 111.569 316.246 111.757 316.434C111.945 316.623 112.164 316.717 112.447 316.717C112.713 316.717 112.948 316.623 113.136 316.434C113.324 316.246 113.418 316.027 113.418 315.761C113.418 315.478 113.324 315.259 113.136 315.087C112.948 314.883 112.713 314.789 112.447 314.789ZM112.447 320.525C112.164 320.525 111.945 320.619 111.757 320.823C111.569 320.995 111.491 321.215 111.491 321.497C111.491 321.763 111.569 321.983 111.757 322.171C111.945 322.359 112.164 322.453 112.447 322.453C112.713 322.453 112.948 322.359 113.136 322.171C113.324 321.983 113.418 321.763 113.418 321.497C113.418 321.215 113.324 320.995 113.136 320.823C112.948 320.619 112.713 320.525 112.447 320.525Z" fill="#7F7F7F"/>
<path d="M63.2211 396.536V401.343H71.0314V396.536H63.2211ZM70.1171 400.507H64.1354V399.357H70.1171V400.507ZM64.1354 398.561V397.372H70.1171V398.561H64.1354ZM61.7583 392.814V393.676H65.7941C64.7753 394.59 63.2211 395.361 61.1314 395.962L61.6277 396.798C63.9133 395.975 65.572 394.93 66.5908 393.676H66.6691V396.118H67.5834V393.676H67.6617C68.6282 394.956 70.2869 395.988 72.6378 396.784L73.0427 395.936C70.9791 395.387 69.4641 394.629 68.4846 393.676H72.4942V392.814H67.5834V391.612H66.6691V392.814H61.7583ZM61.4971 402.361V403.236H72.7162V402.361H61.4971ZM75.485 394.042V394.851H79.1943C79.0245 395.139 78.8286 395.439 78.6196 395.74H74.7798V396.575H77.9666C77.0392 397.673 75.8638 398.691 74.4402 399.658L74.9496 400.468C75.7593 399.919 76.4907 399.331 77.1568 398.73V403.628H78.058V403.067H83.9614V403.628H84.8626V397.477H78.3845C78.6326 397.189 78.8677 396.889 79.1028 396.575H86.1686V395.74H79.6775C79.8473 395.452 80.0171 395.165 80.1738 394.851H85.4111V394.042H80.5526C80.6832 393.715 80.8138 393.376 80.9313 393.023C82.5769 392.892 84.0136 392.696 85.2544 392.422L84.8234 391.678C82.381 392.174 79.3118 392.422 75.6026 392.422L75.8769 393.206C77.3658 393.206 78.7502 393.167 80.0301 393.088C79.8995 393.402 79.7689 393.728 79.6253 394.042H75.485ZM78.058 399.854H83.9614V400.677H78.058V399.854ZM83.9614 399.122H78.058V398.247H83.9614V399.122ZM78.058 401.408H83.9614V402.296H78.058V401.408ZM95.3894 394.969V396.863H92.725V397.751H95.3894V399.723H92.0589V400.624H95.3894V403.602H96.3298V400.624H99.7125V399.723H96.3298V397.751H99.0203V396.863H96.3298V394.969H99.4121V394.081H97.4269C97.8448 393.428 98.2105 392.696 98.537 391.887L97.6358 391.573C97.3093 392.461 96.9306 393.297 96.4996 394.081H92.3463V394.969H95.3894ZM93.8874 391.626L93.0907 392.004C93.5609 392.605 93.9919 393.297 94.3968 394.055L95.1674 393.663C94.7625 392.932 94.3315 392.252 93.8874 391.626ZM89.3554 391.821L88.7024 392.435C89.6036 393.141 90.3088 393.794 90.8182 394.42L91.4451 393.767C90.8835 393.114 90.1913 392.474 89.3554 391.821ZM87.762 395.635V396.536H89.6036V401.721C89.6036 401.943 89.4991 402.139 89.3032 402.322L89.6558 403.145C90.4003 402.518 91.1186 401.826 91.7977 401.055L91.5496 400.102C91.1839 400.52 90.8443 400.899 90.5178 401.238V395.635H87.762ZM107.066 399.854H111.206V400.768H107.066V399.854ZM111.206 399.122H107.066V398.156H111.206V399.122ZM107.066 401.486H111.206V402.257C111.206 402.57 111.049 402.74 110.749 402.74L109.769 402.688L110.004 403.524H111.023C111.741 403.524 112.107 403.158 112.107 402.453V397.372H106.177V403.589H107.066V401.486ZM108.711 391.639V392.474H105.642V393.245H108.711V394.146H106.086V394.904H108.711V395.779H105.25V395.87C105.041 395.126 104.793 394.46 104.532 393.872L103.853 394.081C104.179 394.838 104.453 395.635 104.662 396.458L105.25 396.314V396.562H113.06V395.779H109.652V394.904H112.251V394.146H109.652V393.245H112.682V392.474H109.652V391.639H108.711ZM101.45 394.159C101.423 395.413 101.28 396.615 101.019 397.751L101.737 397.947C101.998 396.771 102.155 395.531 102.181 394.212L101.45 394.159ZM102.782 391.678V403.563H103.696V391.678H102.782Z" fill="#7F899C"/>
<rect x="140.24" y="195.012" width="148.891" height="20.897" rx="7.83636" fill="#F0F3F6"/>
<rect x="140.24" y="232.888" width="58.7727" height="20.897" rx="7.83636" fill="#F0F3F6"/>
<rect x="140.24" y="270.764" width="161.952" height="20.897" rx="7.83636" fill="#F0F3F6"/>
<rect x="140.24" y="308.639" width="120.158" height="20.897" rx="7.83636" fill="#F0F3F6"/>
<line x1="42.2849" y1="381.126" x2="329.618" y2="381.126" stroke="#EEF2FC" stroke-width="1.30606"/>
<path d="M310.027 392.227L315.986 398.186L310.027 404.145" stroke="#A9C4F5" stroke-width="1.45284" stroke-miterlimit="10" stroke-linecap="round" stroke-linejoin="round"/>
<g filter="url(#filter2_d)">
<rect x="231.664" y="270.764" width="223.336" height="152.809" rx="6" fill="white"/>
</g>
<path d="M297.784 299.731H299.247C299.192 301.834 298.936 303.699 298.497 305.326C298.077 304.046 297.729 302.602 297.473 300.993C297.583 300.59 297.674 300.17 297.784 299.731ZM297.821 307.246C297.181 308.691 296.34 309.861 295.279 310.757L296.193 312.22C297.144 311.36 297.949 310.336 298.607 309.129C299.192 310.354 299.869 311.36 300.637 312.128L301.624 310.647C300.746 309.879 299.997 308.837 299.357 307.484C300.18 305.344 300.637 302.766 300.71 299.731H301.35V298.104H298.113C298.26 297.299 298.369 296.458 298.479 295.58L296.961 295.324C296.632 298.634 296.011 301.322 295.115 303.388V302.145H289.3V303.681H294.987C294.95 303.754 294.932 303.809 294.895 303.882L295.846 305.088C296.157 304.54 296.449 303.918 296.724 303.242C297.016 304.704 297.382 306.039 297.821 307.246ZM293.323 311.196C294.31 310.556 295.279 309.733 296.23 308.709L295.883 307.264C295.425 307.74 294.968 308.16 294.53 308.563V304.759H289.83V307.155C289.812 308.837 289.355 310.135 288.459 311.031L289.739 312.146C290.836 311.049 291.403 309.385 291.439 307.155V306.332H293.012V309.203C292.957 309.459 292.829 309.641 292.61 309.769L293.323 311.196ZM291.604 295.361V299.402H290.69V296.348H289.263V300.865H295.352V296.348H293.944V299.402H293.048V295.361H291.604ZM287.362 295.379C286.74 297.025 285.771 298.451 284.473 299.694L285.003 301.377C286.795 299.804 288.075 298.031 288.843 296.074L287.362 295.379ZM287.453 300.28C286.832 302.017 285.862 303.534 284.546 304.851L285.058 306.515C285.552 306.058 286.009 305.6 286.429 305.125V312.274H288.057V302.839C288.386 302.236 288.678 301.614 288.916 300.974L287.453 300.28ZM304.806 302.602V312.274H306.506V299.877C307.164 298.616 307.695 297.299 308.115 295.946L306.488 295.178C305.665 297.994 304.403 300.481 302.721 302.602L303.288 304.467C303.836 303.845 304.33 303.223 304.806 302.602ZM307.786 297.573V299.201H319.799V297.573H314.862C314.661 296.879 314.369 296.129 313.985 295.306L312.321 295.763C312.632 296.348 312.906 296.952 313.143 297.573H307.786ZM309.45 300.316V301.87H318.245V300.316H309.45ZM309.45 302.894V304.467H318.245V302.894H309.45ZM318.629 305.619H309.048V312.238H310.73V311.287H316.947V312.238H318.629V305.619ZM310.73 309.66V307.228H316.947V309.66H310.73ZM323.986 301.852H326.546V304.522H323.986V301.852ZM326.546 300.298H323.986V297.592H326.546V300.298ZM323.95 306.094H326.546V309.769C326.546 310.409 326.345 310.738 325.961 310.738C325.522 310.738 325.065 310.702 324.553 310.647L324.974 312.183H326.437C327.552 312.183 328.119 311.561 328.119 310.318V296.019H322.432V304.997C322.414 307.465 322.048 309.495 321.317 311.086L322.633 312.274C323.383 310.647 323.822 308.581 323.95 306.094ZM330.989 304.284H331.227C331.629 305.984 332.361 307.52 333.421 308.873C332.745 309.641 331.94 310.3 330.989 310.812V304.284ZM330.989 310.866L331.885 312.22C332.909 311.671 333.805 310.976 334.555 310.135C335.323 310.885 336.237 311.58 337.279 312.201L338.139 310.738C337.151 310.153 336.274 309.513 335.524 308.8C336.292 307.539 336.841 306.003 337.17 304.211V302.748H330.989V297.592H335.378C335.341 298.817 335.268 299.585 335.158 299.896C335.049 300.152 334.902 300.316 334.72 300.371C334.537 300.426 334.244 300.462 333.86 300.462C333.348 300.462 332.946 300.444 332.653 300.444L333.111 301.907H334.646C335.817 301.907 336.512 301.523 336.731 300.755C336.95 299.969 337.06 298.396 337.06 296.019H329.362V312.256H330.989V310.866ZM332.708 304.284H335.634C335.341 305.491 334.921 306.57 334.372 307.52C333.623 306.551 333.074 305.472 332.708 304.284ZM344.813 295.288C344.063 297.061 342.619 298.561 340.479 299.786L341.54 301.175C342.29 300.718 342.966 300.225 343.588 299.694C344.337 300.316 345.142 300.901 346.02 301.413C344.118 302.126 341.924 302.638 339.474 302.949L340.278 304.576C343.167 304.138 345.727 303.425 347.921 302.437C350.189 303.516 352.748 304.211 355.583 304.54L356.369 302.913C353.955 302.693 351.779 302.199 349.823 301.468C351.377 300.554 352.712 299.457 353.809 298.195V296.787H345.983C346.202 296.403 346.404 295.983 346.586 295.544L344.813 295.288ZM347.903 300.609C346.751 300.024 345.691 299.329 344.74 298.542C344.758 298.506 344.795 298.469 344.849 298.414H351.267C350.28 299.256 349.165 299.987 347.903 300.609ZM346.586 303.553C346.586 304.211 346.513 304.832 346.404 305.418H340.735V306.972H345.873C345.764 307.209 345.617 307.447 345.471 307.685C344.557 308.947 342.6 310.007 339.62 310.885L340.772 312.293C344.155 311.214 346.294 309.861 347.208 308.215C347.428 307.831 347.61 307.411 347.775 306.972H352.73C352.675 308.581 352.529 309.587 352.291 309.971C352.054 310.336 351.469 310.537 350.536 310.556C349.951 310.519 349.183 310.482 348.232 310.446L348.671 312.018C349.549 312.073 350.317 312.11 350.938 312.11C352.218 312.11 353.132 311.781 353.644 311.159C354.156 310.537 354.431 308.617 354.467 305.418H348.159C348.25 304.832 348.305 304.211 348.305 303.553H346.586ZM360.629 295.909V301.175H371.746V295.909H360.629ZM369.991 299.621H362.385V297.464H369.991V299.621ZM361.909 304.046L361.05 307.374H370.229C370.119 308.764 369.973 309.66 369.772 310.025C369.552 310.391 368.967 310.574 368.053 310.574C367.285 310.574 366.426 310.519 365.438 310.428L366.023 312C366.736 312.092 367.541 312.146 368.437 312.146C369.753 312.146 370.649 311.854 371.106 311.287C371.564 310.72 371.856 308.892 372.002 305.802H363.116L363.646 304.046H374.489V302.382H357.868V304.046H361.909ZM377.799 295.544L376.61 296.677C377.945 297.738 378.969 298.725 379.7 299.64L380.925 298.433C380.084 297.482 379.042 296.513 377.799 295.544ZM388.312 311.927H392.481L392.902 310.208C392.408 310.245 391.695 310.281 390.781 310.3C389.867 310.318 388.952 310.336 388.057 310.336C386.63 310.336 385.405 310.318 384.363 310.3C383.284 310.263 382.48 310.099 381.931 309.843C381.474 309.605 381.035 309.239 380.615 308.745C380.523 308.636 380.432 308.544 380.34 308.471V301.559H376.263V303.169H378.713V308.343C377.982 308.709 377.159 309.641 376.244 311.122L377.524 312.311C378.457 310.665 379.115 309.843 379.499 309.843C379.719 309.843 379.938 309.989 380.194 310.3C380.743 310.921 381.383 311.36 382.114 311.58C382.882 311.762 383.851 311.872 385.04 311.89C386.21 311.909 387.307 311.927 388.312 311.927ZM385.149 297.354L384.125 298.341C384.875 298.744 385.551 299.164 386.155 299.566H381.949V309.44H383.595V306.405H386.173V309.404H387.764V306.405H390.397V307.337C390.397 307.74 390.178 307.941 389.775 307.941L388.477 307.868L388.843 309.312H390.251C391.439 309.312 392.043 308.764 392.043 307.685V299.566H388.367C388.331 299.53 388.294 299.512 388.258 299.475C389.464 298.817 390.598 298.049 391.659 297.135V295.909H381.62V297.354H385.149ZM387.197 298.652C386.594 298.213 385.935 297.793 385.241 297.354H389.336C388.678 297.829 387.965 298.268 387.197 298.652ZM383.595 303.717H386.173V304.997H383.595V303.717ZM387.764 303.717H390.397V304.997H387.764V303.717ZM390.397 302.291H387.764V301.011H390.397V302.291ZM386.173 302.291H383.595V301.011H386.173V302.291ZM410.492 297.153H403.928V311.433H405.61V310.373H408.81V311.415H410.492V297.153ZM405.61 308.745V298.78H408.81V308.745H405.61ZM397.363 299.329H398.753C398.717 300.462 398.662 301.523 398.552 302.492H394.694V304.156H398.296C398.223 304.522 398.131 304.887 398.058 305.235C397.455 307.283 396.212 309.001 394.31 310.409L395.444 311.799C397.309 310.482 398.607 308.855 399.375 306.935C400.143 307.849 401.094 309.111 402.227 310.72L403.288 309.111C402.118 307.721 400.984 306.46 399.869 305.326C399.942 304.96 400.033 304.558 400.106 304.156H403.196V302.492H400.344C400.454 301.523 400.508 300.462 400.545 299.329H403.032V297.665H398.04C398.259 297.043 398.479 296.403 398.662 295.708L396.943 295.343C396.449 297.317 395.608 299.164 394.438 300.883L395.956 301.852C396.468 301.084 396.943 300.243 397.363 299.329Z" fill="#505772"/>
<path d="M292.5 341.068V347.065H300.454V341.068H292.5ZM298.772 345.456H294.182V342.695H298.772V345.456ZM298.479 347.504C298.058 349.15 297.583 350.558 297.053 351.728H291.11V353.428H301.441V351.728H298.808C299.357 350.613 299.832 349.369 300.234 347.979L298.479 347.504ZM294.42 347.577L292.902 348.071C293.341 349.15 293.707 350.265 293.999 351.435L295.572 351.033C295.224 349.735 294.84 348.583 294.42 347.577ZM287.289 341.36H288.276C288.258 342.494 288.203 343.536 288.112 344.487H284.839V346.078H287.91C287.856 346.407 287.801 346.718 287.728 347.047C287.252 349.022 286.246 350.704 284.747 352.057L285.844 353.41C287.289 352.167 288.331 350.686 288.953 348.93C289.501 349.552 290.178 350.393 291.001 351.472L292.024 349.936C291.129 349.003 290.251 348.162 289.373 347.394C289.446 346.992 289.538 346.553 289.611 346.078H291.75V344.487H289.794C289.885 343.536 289.94 342.494 289.958 341.36H291.714V339.77H287.874C288.075 339.13 288.258 338.435 288.441 337.667L286.777 337.228C286.374 339.221 285.716 340.94 284.802 342.366L286.045 343.536C286.484 342.933 286.905 342.201 287.289 341.36ZM291.86 337.996V339.642H301.185V337.996H291.86ZM304.806 344.396V354.068H306.506V341.671C307.164 340.41 307.695 339.093 308.115 337.74L306.488 336.972C305.665 339.788 304.403 342.275 302.721 344.396L303.288 346.261C303.836 345.639 304.33 345.017 304.806 344.396ZM307.786 339.367V340.995H319.799V339.367H314.862C314.661 338.673 314.369 337.923 313.985 337.1L312.321 337.557C312.632 338.142 312.906 338.746 313.143 339.367H307.786ZM309.45 342.11V343.664H318.245V342.11H309.45ZM309.45 344.688V346.261H318.245V344.688H309.45ZM318.629 347.413H309.048V354.032H310.73V353.081H316.947V354.032H318.629V347.413ZM310.73 351.454V349.022H316.947V351.454H310.73ZM322.944 337.338L321.756 338.471C323.09 339.532 324.114 340.519 324.846 341.434L326.071 340.227C325.23 339.276 324.188 338.307 322.944 337.338ZM333.458 353.721H337.627L338.047 352.002C337.554 352.039 336.841 352.075 335.926 352.094C335.012 352.112 334.098 352.13 333.202 352.13C331.776 352.13 330.551 352.112 329.508 352.094C328.43 352.057 327.625 351.892 327.077 351.636C326.619 351.399 326.181 351.033 325.76 350.539C325.669 350.43 325.577 350.338 325.486 350.265V343.353H321.408V344.962H323.858V350.137C323.127 350.503 322.304 351.435 321.39 352.916L322.67 354.105C323.602 352.459 324.261 351.636 324.645 351.636C324.864 351.636 325.083 351.783 325.339 352.094C325.888 352.715 326.528 353.154 327.259 353.374C328.027 353.556 328.996 353.666 330.185 353.684C331.355 353.703 332.452 353.721 333.458 353.721ZM330.295 339.148L329.271 340.135C330.02 340.538 330.697 340.958 331.3 341.36H327.095V351.234H328.74V348.199H331.319V351.198H332.909V348.199H335.542V349.131C335.542 349.534 335.323 349.735 334.921 349.735L333.623 349.662L333.988 351.106H335.396C336.585 351.106 337.188 350.558 337.188 349.479V341.36H333.513C333.476 341.324 333.44 341.306 333.403 341.269C334.61 340.611 335.744 339.843 336.804 338.928V337.703H326.766V339.148H330.295ZM332.343 340.446C331.739 340.007 331.081 339.587 330.386 339.148H334.482C333.824 339.623 333.111 340.062 332.343 340.446ZM328.74 345.511H331.319V346.791H328.74V345.511ZM332.909 345.511H335.542V346.791H332.909V345.511ZM335.542 344.085H332.909V342.805H335.542V344.085ZM331.319 344.085H328.74V342.805H331.319V344.085ZM355.637 338.947H349.073V353.227H350.755V352.167H353.955V353.209H355.637V338.947ZM350.755 350.539V340.574H353.955V350.539H350.755ZM342.509 341.123H343.899C343.862 342.256 343.807 343.317 343.697 344.286H339.839V345.95H343.441C343.368 346.316 343.277 346.681 343.204 347.029C342.6 349.077 341.357 350.795 339.455 352.203L340.589 353.593C342.454 352.276 343.752 350.649 344.52 348.729C345.288 349.643 346.239 350.905 347.373 352.514L348.433 350.905C347.263 349.515 346.129 348.254 345.014 347.12C345.087 346.754 345.179 346.352 345.252 345.95H348.342V344.286H345.489C345.599 343.317 345.654 342.256 345.691 341.123H348.177V339.459H343.185C343.405 338.837 343.624 338.197 343.807 337.502L342.088 337.137C341.595 339.111 340.754 340.958 339.583 342.677L341.101 343.646C341.613 342.878 342.088 342.037 342.509 341.123Z" fill="#505772"/>
<path d="M293.451 381.417H290.178V378.876H288.477V381.417H285.204V395.058H286.832V393.979H291.823V395.058H293.451V381.417ZM286.832 392.425V388.329H288.477V392.425H286.832ZM290.178 392.425V388.329H291.823V392.425H290.178ZM286.832 386.793V382.99H288.477V386.793H286.832ZM290.178 382.99H291.823V386.793H290.178V382.99ZM294.767 379.79V395.844H296.413V381.344H299.119C298.57 383.246 298.004 384.891 297.419 386.263C298.772 388.11 299.448 389.591 299.466 390.724C299.448 391.2 299.393 391.492 299.302 391.638C299.174 391.785 298.918 391.876 298.534 391.913C298.095 391.913 297.583 391.858 296.961 391.785L297.455 393.54C298.918 393.54 299.905 393.321 300.381 392.9C300.838 392.498 301.075 391.766 301.075 390.724C301.057 389.572 300.417 388.091 299.137 386.263C299.777 384.672 300.362 382.935 300.911 381.052V379.79H294.767ZM303.434 385.806V387.488H305.994C305.299 389.097 304.22 390.523 302.758 391.803L303.507 393.741C304.623 392.498 305.537 391.127 306.232 389.609V395.844H307.969V389.536C308.444 390.194 308.993 391.017 309.633 392.004L310.62 390.541C309.724 389.572 308.847 388.695 307.969 387.908V387.488H310.309V385.806H307.969V384.014H306.232V385.806H303.434ZM318.592 384.507H311.059V395.844H312.723V395.149H316.91V395.844H318.592V384.507ZM312.723 393.613V391.931H316.91V393.613H312.723ZM312.723 390.468V388.987H316.91V390.468H312.723ZM312.723 387.524V386.043H316.91V387.524H312.723ZM305.994 381.746H306.89C307.365 382.441 307.786 383.173 308.133 383.922L309.724 383.319C309.468 382.825 309.139 382.295 308.737 381.746H311.297V380.21H306.744C306.872 379.9 307 379.57 307.109 379.241L305.446 378.876C304.97 380.265 304.202 381.545 303.105 382.734L304.623 383.685C305.135 383.099 305.592 382.441 305.994 381.746ZM313.82 381.746H314.753C315.228 382.441 315.667 383.154 316.032 383.886L317.55 383.319C317.294 382.843 316.965 382.313 316.563 381.746H319.635V380.21H314.442C314.551 379.863 314.679 379.516 314.789 379.15L313.125 378.784C312.723 380.247 312.065 381.637 311.114 382.935L312.577 383.867C313.034 383.209 313.454 382.514 313.82 381.746ZM322.944 379.132L321.756 380.265C323.09 381.326 324.114 382.313 324.846 383.227L326.071 382.021C325.23 381.07 324.188 380.101 322.944 379.132ZM333.458 395.515H337.627L338.047 393.796C337.554 393.833 336.841 393.869 335.926 393.888C335.012 393.906 334.098 393.924 333.202 393.924C331.776 393.924 330.551 393.906 329.508 393.888C328.43 393.851 327.625 393.686 327.077 393.43C326.619 393.193 326.181 392.827 325.76 392.333C325.669 392.224 325.577 392.132 325.486 392.059V385.147H321.408V386.756H323.858V391.931C323.127 392.297 322.304 393.229 321.39 394.71L322.67 395.899C323.602 394.253 324.261 393.43 324.645 393.43C324.864 393.43 325.083 393.577 325.339 393.888C325.888 394.509 326.528 394.948 327.259 395.167C328.027 395.35 328.996 395.46 330.185 395.478C331.355 395.497 332.452 395.515 333.458 395.515ZM330.295 380.942L329.271 381.929C330.02 382.332 330.697 382.752 331.3 383.154H327.095V393.028H328.74V389.993H331.319V392.992H332.909V389.993H335.542V390.925C335.542 391.328 335.323 391.529 334.921 391.529L333.623 391.456L333.988 392.9H335.396C336.585 392.9 337.188 392.352 337.188 391.273V383.154H333.513C333.476 383.118 333.44 383.099 333.403 383.063C334.61 382.405 335.744 381.637 336.804 380.722V379.497H326.766V380.942H330.295ZM332.343 382.24C331.739 381.801 331.081 381.381 330.386 380.942H334.482C333.824 381.417 333.111 381.856 332.343 382.24ZM328.74 387.305H331.319V388.585H328.74V387.305ZM332.909 387.305H335.542V388.585H332.909V387.305ZM335.542 385.879H332.909V384.599H335.542V385.879ZM331.319 385.879H328.74V384.599H331.319V385.879ZM355.637 380.741H349.073V395.021H350.755V393.961H353.955V395.003H355.637V380.741ZM350.755 392.333V382.368H353.955V392.333H350.755ZM342.509 382.917H343.899C343.862 384.05 343.807 385.111 343.697 386.08H339.839V387.744H343.441C343.368 388.11 343.277 388.475 343.204 388.823C342.6 390.871 341.357 392.589 339.455 393.997L340.589 395.387C342.454 394.07 343.752 392.443 344.52 390.523C345.288 391.437 346.239 392.699 347.373 394.308L348.433 392.699C347.263 391.309 346.129 390.048 345.014 388.914C345.087 388.548 345.179 388.146 345.252 387.744H348.342V386.08H345.489C345.599 385.111 345.654 384.05 345.691 382.917H348.177V381.253H343.185C343.405 380.631 343.624 379.991 343.807 379.296L342.088 378.931C341.595 380.905 340.754 382.752 339.583 384.471L341.101 385.44C341.613 384.672 342.088 383.831 342.509 382.917Z" fill="#505772"/>
<path d="M266.349 300.407C266.584 300.407 266.772 300.407 267.007 300.454C266.396 297.774 263.528 295.8 260.285 295.8C256.618 295.8 253.609 298.291 253.609 301.441C253.609 303.274 254.596 304.731 256.289 305.907L255.631 307.881L257.934 306.706C258.78 306.847 259.438 307.035 260.285 307.035C260.473 307.035 260.708 307.035 260.896 306.988C260.755 306.518 260.708 306.048 260.708 305.578C260.661 302.757 263.199 300.407 266.349 300.407ZM262.776 298.62C263.293 298.62 263.622 298.949 263.622 299.466C263.622 299.983 263.293 300.313 262.776 300.313C262.259 300.313 261.789 299.983 261.789 299.466C261.742 298.949 262.259 298.62 262.776 298.62ZM258.122 300.266C257.605 300.266 257.135 299.936 257.135 299.419C257.088 298.949 257.605 298.62 258.122 298.62C258.639 298.62 258.968 298.949 258.968 299.466C258.921 299.936 258.592 300.266 258.122 300.266ZM272.413 305.578C272.413 302.945 269.734 300.783 266.772 300.783C263.622 300.783 261.131 302.945 261.131 305.578C261.131 308.21 263.622 310.373 266.772 310.373C267.43 310.373 268.088 310.185 268.746 310.044L270.58 311.031L270.063 309.385C271.426 308.398 272.413 307.082 272.413 305.578ZM264.939 304.731C264.609 304.731 264.28 304.402 264.28 304.073C264.28 303.744 264.609 303.415 264.939 303.415C265.456 303.415 265.785 303.744 265.785 304.073C265.738 304.402 265.409 304.731 264.939 304.731ZM268.605 304.731C268.276 304.731 267.947 304.402 267.947 304.073C267.947 303.744 268.276 303.415 268.605 303.415C269.122 303.415 269.452 303.744 269.452 304.073C269.404 304.402 269.075 304.731 268.605 304.731Z" fill="#65CB82"/>
<g clip-path="url(#clip0)">
<path d="M255.737 353.526C255.737 354.44 256.484 355.187 257.399 355.187H268.607C269.521 355.187 270.268 354.44 270.268 353.526V336.924C270.268 336.009 269.521 335.262 268.607 335.262H257.396C256.482 335.262 255.735 336.009 255.735 336.924V353.526H255.737ZM258.725 337.336H267.278C267.776 337.336 268.192 337.752 268.192 338.25V348.461C268.192 348.96 267.776 349.375 267.278 349.375H258.725C258.227 349.375 257.811 348.96 257.811 348.461V338.25C257.811 337.752 258.227 337.336 258.725 337.336ZM261.962 352.074C261.962 351.494 262.419 351.037 262.999 351.037C263.579 351.037 264.036 351.494 264.036 352.074C264.036 352.656 263.579 353.111 262.999 353.111C262.419 353.113 261.962 352.656 261.962 352.074Z" fill="#5D86D7"/>
</g>
<path d="M272.151 395.997H253.88V384.12L262.321 378.219C262.525 378.076 262.767 377.999 263.016 377.999C263.264 377.999 263.507 378.076 263.71 378.219L272.151 384.12V395.997Z" fill="#FABB5C"/>
<path d="M269.885 386.173L263.016 388.691L256.156 386.135V384.575H269.885V386.173Z" fill="white"/>
<defs>
<filter id="filter0_d" x="0" y="0" width="371.903" height="493.367" filterUnits="userSpaceOnUse" color-interpolation-filters="sRGB">
<feFlood flood-opacity="0" result="BackgroundImageFix"/>
<feColorMatrix in="SourceAlpha" type="matrix" values="0 0 0 0 0 0 0 0 0 0 0 0 0 0 0 0 0 0 127 0"/>
<feOffset dy="4"/>
<feGaussianBlur stdDeviation="12"/>
<feColorMatrix type="matrix" values="0 0 0 0 0.135086 0 0 0 0 0.204976 0 0 0 0 0.340522 0 0 0 0.08 0"/>
<feBlend mode="normal" in2="BackgroundImageFix" result="effect1_dropShadow"/>
<feBlend mode="normal" in="SourceGraphic" in2="effect1_dropShadow" result="shape"/>
</filter>
<filter id="filter1_d" x="38.2849" y="90.4456" width="295.333" height="329.291" filterUnits="userSpaceOnUse" color-interpolation-filters="sRGB">
<feFlood flood-opacity="0" result="BackgroundImageFix"/>
<feColorMatrix in="SourceAlpha" type="matrix" values="0 0 0 0 0 0 0 0 0 0 0 0 0 0 0 0 0 0 127 0"/>
<feOffset/>
<feGaussianBlur stdDeviation="2"/>
<feColorMatrix type="matrix" values="0 0 0 0 0.191667 0 0 0 0 0.191667 0 0 0 0 0.191667 0 0 0 0.08 0"/>
<feBlend mode="normal" in2="BackgroundImageFix" result="effect1_dropShadow"/>
<feBlend mode="normal" in="SourceGraphic" in2="effect1_dropShadow" result="shape"/>
</filter>
<filter id="filter2_d" x="207.664" y="250.764" width="271.336" height="200.809" filterUnits="userSpaceOnUse" color-interpolation-filters="sRGB">
<feFlood flood-opacity="0" result="BackgroundImageFix"/>
<feColorMatrix in="SourceAlpha" type="matrix" values="0 0 0 0 0 0 0 0 0 0 0 0 0 0 0 0 0 0 127 0"/>
<feOffset dy="4"/>
<feGaussianBlur stdDeviation="12"/>
<feColorMatrix type="matrix" values="0 0 0 0 0.135086 0 0 0 0 0.204976 0 0 0 0 0.340522 0 0 0 0.08 0"/>
<feBlend mode="normal" in2="BackgroundImageFix" result="effect1_dropShadow"/>
<feBlend mode="normal" in="SourceGraphic" in2="effect1_dropShadow" result="shape"/>
</filter>
<clipPath id="clip0">
<rect width="20.897" height="20.897" fill="white" transform="translate(252.561 334.76)"/>
</clipPath>
</defs>
</svg>
