<svg width="545" height="431" viewBox="0 0 545 431" fill="none" xmlns="http://www.w3.org/2000/svg">
<g filter="url(#filter0_d)">
<rect x="24" y="76.4227" width="415.367" height="301.321" rx="7.2029" fill="white"/>
</g>
<rect x="48.0099" y="149.652" width="106.843" height="16.8068" rx="4.80193" fill="#F7F9FC"/>
<rect x="212.476" y="149.652" width="51.6208" height="16.8068" rx="4.80193" fill="#F7F9FC"/>
<rect x="349.331" y="149.652" width="51.6208" height="16.8068" rx="4.80193" fill="#F3F4F6"/>
<rect x="349.331" y="192.87" width="51.6208" height="16.8068" rx="4.80193" fill="#F3F4F6"/>
<rect x="349.331" y="236.087" width="51.6208" height="16.8068" rx="4.80193" fill="#F7F9FC"/>
<rect x="349.331" y="279.304" width="51.6208" height="16.8068" rx="4.80193" fill="#F7F9FC"/>
<rect x="349.331" y="322.522" width="51.6208" height="16.8068" rx="4.80193" fill="#F7F9FC"/>
<rect x="48.0099" y="192.87" width="106.843" height="16.8068" rx="4.80193" fill="#F7F9FC"/>
<rect x="212.476" y="192.87" width="36.0145" height="16.8068" rx="4.80193" fill="#F7F9FC"/>
<rect x="48.0099" y="236.087" width="106.843" height="16.8068" rx="4.80193" fill="#F7F9FC"/>
<rect x="212.476" y="236.087" width="61.2246" height="16.8068" rx="4.80193" fill="#F7F9FC"/>
<rect x="48.0099" y="279.304" width="106.843" height="16.8068" rx="4.80193" fill="#F3F4F6"/>
<rect x="212.476" y="279.304" width="67.2271" height="16.8068" rx="4.80193" fill="#F3F4F6"/>
<rect x="48.0099" y="322.522" width="106.843" height="16.8068" rx="4.80193" fill="#F3F4F6"/>
<rect x="212.476" y="322.522" width="51.6208" height="16.8068" rx="4.80193" fill="#F3F4F6"/>
<path opacity="0.7" d="M54.4133 110.293V111.839H59.2368V122.747C59.2368 123.184 59.0183 123.419 58.5813 123.419C57.9427 123.419 57.2536 123.369 56.5477 123.302L56.9007 124.865H59.136C60.2788 124.865 60.8503 124.293 60.8503 123.15V111.839H64.2452V110.293H54.4133ZM50.9343 109.57L49.8082 110.663C51.0015 111.554 51.9259 112.394 52.5981 113.167L53.6906 112.058C52.9343 111.234 52.0099 110.411 50.9343 109.57ZM48.699 114.461V115.991H51.0519V122.176C51.0519 122.512 50.9007 122.797 50.6149 123.033L51.22 124.461C52.4973 123.688 53.7074 122.797 54.8334 121.789L54.4133 120.108C53.7746 120.697 53.1528 121.218 52.5813 121.688V114.461H48.699ZM67.2368 111.974V119.184H72.4301V120.512H65.7074V122.024H72.4301V125.033H74.0099V122.024H80.7327V120.512H74.0099V119.184H79.2032V111.974H76.1444C76.615 111.335 77.0352 110.629 77.4049 109.856L75.8587 109.302C75.4721 110.243 75.0184 111.134 74.4805 111.974H71.0856L72.094 111.47C71.5898 110.697 71.052 110.007 70.4805 109.386L69.1528 110.024C69.6738 110.596 70.1612 111.251 70.6318 111.974H67.2368ZM77.657 117.772H74.0099V116.226H77.657V117.772ZM72.4301 117.772H68.783V116.226H72.4301V117.772ZM68.783 114.881V113.369H72.4301V114.881H68.783ZM74.0099 113.369H77.657V114.881H74.0099V113.369ZM84.9175 109.957V114.797H95.136V109.957H84.9175ZM93.5226 113.369H86.531V111.386H93.5226V113.369ZM86.094 117.436L85.3041 120.495H93.7411C93.6402 121.772 93.5058 122.596 93.3209 122.932C93.1192 123.268 92.5814 123.436 91.7411 123.436C91.0352 123.436 90.2453 123.386 89.3377 123.302L89.8755 124.747C90.531 124.831 91.2705 124.881 92.094 124.881C93.3041 124.881 94.1276 124.613 94.5478 124.092C94.968 123.571 95.2369 121.89 95.3713 119.049H87.2033L87.6907 117.436H97.6571V115.907H82.3797V117.436H86.094Z" fill="#545B79"/>
<path opacity="0.7" d="M213.367 109.991V111.369H218.308V112.444H214.543V116.411H227.215V112.444H223.451V111.369H228.392V109.991H213.367ZM221.938 112.444H219.82V111.369H221.938V112.444ZM225.686 115.117H223.451V113.755H225.686V115.117ZM221.938 115.117H219.82V113.755H221.938V115.117ZM218.308 115.117H216.072V113.755H218.308V115.117ZM215.316 117.386V118.697H226.543V117.386H215.316ZM213.635 119.621V120.982H220.291V122.932C220.291 123.352 220.072 123.571 219.636 123.571C219.215 123.571 218.778 123.537 218.308 123.486L218.61 124.898H220.157C221.266 124.898 221.837 124.344 221.837 123.268V120.982H228.123V119.621H213.635ZM224.476 121.318L223.417 122.327C225.03 123.201 226.291 124.007 227.182 124.764L228.291 123.655C227.249 122.881 225.988 122.092 224.476 121.318ZM217.619 121.352C216.526 122.176 215.182 122.898 213.602 123.52L214.56 124.764C216.173 124.058 217.551 123.234 218.661 122.293L217.619 121.352ZM240.039 109.52V112.344H236.846V120.192H238.375V119.436H240.039V124.965H241.636V119.436H243.367V120.192H244.913V112.344H241.636V109.52H240.039ZM238.375 117.974V113.856H240.039V117.974H238.375ZM241.636 117.974V113.856H243.367V117.974H241.636ZM230.493 112.024C231.199 111.957 231.888 111.873 232.56 111.772V113.923H230.106V115.453H232.392C231.837 117.167 230.963 118.697 229.77 120.058L230.425 121.739C231.299 120.545 232.005 119.234 232.56 117.806V124.982H234.106V117.57C234.543 118.176 235.047 118.932 235.636 119.856L236.526 118.512C235.72 117.638 234.913 116.848 234.106 116.125V115.453H236.14V113.923H234.106V111.503C234.829 111.335 235.518 111.167 236.173 110.982L235.619 109.503C234.022 110.024 232.207 110.377 230.173 110.545L230.493 112.024ZM248.493 116.108V124.999H250.056V113.604C250.661 112.444 251.148 111.234 251.535 109.991L250.039 109.285C249.283 111.873 248.123 114.159 246.577 116.108L247.098 117.823C247.602 117.251 248.056 116.68 248.493 116.108ZM251.232 111.486V112.982H262.274V111.486H257.736C257.552 110.848 257.283 110.159 256.93 109.402L255.4 109.823C255.686 110.36 255.938 110.915 256.157 111.486H251.232ZM252.762 114.007V115.436H260.846V114.007H252.762ZM252.762 116.377V117.823H260.846V116.377H252.762ZM261.199 118.881H252.392V124.965H253.938V124.092H259.652V124.965H261.199V118.881ZM253.938 122.596V120.36H259.652V122.596H253.938ZM265.989 110.596V119.083H276.745V110.596H271.417C271.585 110.26 271.736 109.907 271.837 109.537L270.173 109.318C270.056 109.755 269.905 110.176 269.703 110.596H265.989ZM275.199 117.722H267.535V116.629H275.199V117.722ZM267.535 115.352V114.293H275.199V115.352H267.535ZM267.535 113.033V111.957H275.199V113.033H267.535ZM265.081 120.058C264.795 121.302 264.308 122.478 263.602 123.554L264.947 124.411C265.652 123.268 266.19 121.923 266.594 120.36L265.081 120.058ZM273.451 124.713C274.123 124.713 274.61 124.579 274.947 124.327C275.3 124.024 275.552 123.167 275.686 121.739L274.157 121.251C274.106 122.243 273.989 122.831 273.804 123.033C273.686 123.201 273.468 123.285 273.148 123.285H269.636C269.299 123.285 269.131 123.1 269.131 122.764V120.024H267.518V123.1C267.518 124.176 268.073 124.713 269.182 124.713H273.451ZM271.384 119.369L270.207 120.092C270.997 120.932 271.619 121.705 272.089 122.411L273.283 121.571C272.846 120.932 272.207 120.209 271.384 119.369ZM276.762 119.722L275.518 120.495C276.476 121.806 277.232 122.982 277.804 124.058L279.064 123.167C278.526 122.192 277.77 121.033 276.762 119.722Z" fill="#545B79"/>
<path opacity="0.7" d="M356.508 110.024H350.541V120.73H351.97V111.486H355.096V120.73H356.508V114.999L357.281 115.991C357.919 115.184 358.474 114.276 358.945 113.285H363.398C363.365 118.327 363.314 121.268 363.213 122.142C363.113 122.982 362.76 123.402 362.171 123.402C361.432 123.402 360.575 123.369 359.6 123.318L359.97 124.747C361.129 124.781 361.936 124.814 362.407 124.814C363.785 124.814 364.541 124.108 364.709 122.73C364.877 121.352 364.961 117.688 364.961 111.739H359.55C359.768 111.066 359.953 110.344 360.087 109.604L358.541 109.402C358.171 111.352 357.499 113.033 356.508 114.444V110.024ZM361.533 116.881L360.323 117.47C360.558 118.075 360.776 118.73 360.995 119.436C360.289 119.604 359.533 119.739 358.743 119.823C359.381 118.512 360.037 116.915 360.676 115.016L359.23 114.528C358.272 117.873 357.516 119.688 356.978 119.957L357.23 121.335C358.726 121.184 360.104 120.965 361.382 120.697C361.482 121.066 361.6 121.453 361.701 121.856L362.995 121.201C362.524 119.638 362.037 118.192 361.533 116.881ZM352.86 112.545V118.058C352.81 119.503 352.592 120.68 352.222 121.587C351.835 122.428 351.096 123.117 350.02 123.671L350.86 124.999C352.003 124.428 352.827 123.604 353.331 122.562C353.852 121.453 354.138 119.94 354.171 118.058V112.545H352.86ZM354.894 121.15L353.886 122.142C354.827 123.117 355.566 124.024 356.071 124.865L357.23 123.739C356.592 122.881 355.802 122.024 354.894 121.15ZM367.029 109.991V111.369H371.97V112.444H368.205V116.411H380.877V112.444H377.113V111.369H382.054V109.991H367.029ZM375.6 112.444H373.482V111.369H375.6V112.444ZM379.348 115.117H377.113V113.755H379.348V115.117ZM375.6 115.117H373.482V113.755H375.6V115.117ZM371.97 115.117H369.734V113.755H371.97V115.117ZM368.978 117.386V118.697H380.205V117.386H368.978ZM367.297 119.621V120.982H373.953V122.932C373.953 123.352 373.734 123.571 373.297 123.571C372.877 123.571 372.44 123.537 371.97 123.486L372.272 124.898H373.819C374.928 124.898 375.499 124.344 375.499 123.268V120.982H381.785V119.621H367.297ZM378.138 121.318L377.079 122.327C378.692 123.201 379.953 124.007 380.844 124.764L381.953 123.655C380.911 122.881 379.65 122.092 378.138 121.318ZM371.281 121.352C370.188 122.176 368.844 122.898 367.264 123.52L368.222 124.764C369.835 124.058 371.213 123.234 372.323 122.293L371.281 121.352ZM392.104 109.486H390.491C390.491 110.125 390.474 110.999 390.474 112.125C390.34 116.949 388.003 120.73 383.466 123.486L384.44 124.915C387.97 122.629 390.289 119.739 391.398 116.243C392.676 119.839 394.928 122.73 398.155 124.881L399.214 123.486C395.382 121.134 392.961 117.722 391.987 113.251C392.054 112.209 392.104 110.965 392.104 109.486Z" fill="#545B79"/>
<g filter="url(#filter1_d)">
<rect x="264.097" y="20" width="256.903" height="193.278" rx="7.2029" fill="white"/>
</g>
<g filter="url(#filter2_d)">
<rect x="45.6089" y="273.302" width="256.903" height="129.652" rx="7.2029" fill="white"/>
</g>
<rect x="283.304" y="146.051" width="218.488" height="40.8164" rx="4.80193" fill="#3D7FFF"/>
<path d="M367.96 167.059H369.725V168.908H367.943C367.943 168.824 367.96 168.74 367.96 168.656V167.059ZM367.842 170.269H369.725V173.883H371.187V170.269H373.036V172.219C373.036 172.488 372.901 172.639 372.632 172.639C372.296 172.639 371.926 172.605 371.557 172.555L371.926 173.984H373.086C374.044 173.984 374.531 173.563 374.531 172.74V162.555H371.926C372.363 162.101 372.817 161.563 373.254 160.941V159.815H369.321C369.456 159.547 369.607 159.278 369.742 158.992L368.212 158.639C367.305 160.42 366.246 161.799 365.002 162.807L365.994 164L366.498 163.547V168.757C366.464 170.505 366.061 171.967 365.288 173.11L366.447 174.135C367.187 173.093 367.641 171.815 367.842 170.269ZM370.212 162.555H367.456C367.826 162.118 368.195 161.647 368.531 161.143H371.405C371.002 161.681 370.616 162.152 370.212 162.555ZM373.036 168.908H371.187V167.059H373.036V168.908ZM373.036 165.681H371.187V163.95H373.036V165.681ZM369.725 163.95V165.681H367.96V163.95H369.725ZM360.01 159.479V161.026H361.725C361.355 163.294 360.599 165.345 359.456 167.16L360.397 168.639C360.615 168.303 360.834 167.967 361.052 167.597V173.631H362.565V172.488H365.372V164.471H362.447C362.817 163.395 363.086 162.236 363.288 161.026H365.725V159.479H360.01ZM362.565 171.026V165.95H363.926V171.026H362.565ZM386.095 158.79C386.078 162.017 385.842 164.656 385.372 166.689C384.767 169.11 383.523 171.143 381.607 172.79L382.683 174.101C384.935 172.219 386.363 169.849 386.968 166.958L387.103 166.303C388.011 169.328 389.288 171.916 390.952 174.068L392.095 172.723C389.943 170.269 388.431 166.975 387.557 162.841C387.658 161.597 387.708 160.236 387.708 158.79H386.095ZM378.649 158.807L377.54 159.899C378.733 160.773 379.658 161.614 380.33 162.404L381.422 161.294C380.666 160.454 379.742 159.631 378.649 158.807ZM376.431 163.681V165.21H378.784V171.227C378.784 171.58 378.632 171.866 378.347 172.101L378.952 173.53C380.179 172.723 381.321 171.832 382.397 170.841L381.994 169.194C381.389 169.765 380.834 170.269 380.313 170.706V163.681H376.431ZM393.254 167.849V169.395H403.389V172.252C403.389 172.589 403.153 172.773 402.716 172.773C402.111 172.773 401.456 172.74 400.784 172.673L401.153 174.236H403.271C404.414 174.236 405.002 173.698 405.002 172.639V169.395H408.632V167.849H405.002V166.992H403.389V167.849H393.254ZM406.162 159.227H394.952V164.975C394.952 166 395.523 166.521 396.666 166.521H406.582C407.338 166.488 407.826 166.219 408.044 165.681C408.162 165.345 408.279 164.807 408.38 164.034L406.868 163.547C406.8 164.219 406.716 164.622 406.632 164.757C406.532 164.925 406.347 165.026 406.078 165.042H397.288C396.8 165.042 396.565 164.807 396.565 164.353V163.496H406.162V159.227ZM396.565 162.051V160.673H404.565V162.051H396.565ZM397.456 169.597L396.313 170.706C397.473 171.647 398.38 172.538 399.019 173.362L400.229 172.168C399.473 171.311 398.548 170.454 397.456 169.597ZM422.095 164.387H418.582V158.656H416.935V164.387H413.422V159.933H411.809V165.933H416.935V171.731H412.582V167.278H410.985V174.068H412.582V173.261H422.935V174.068H424.532V167.278H422.935V171.731H418.582V165.933H423.708V159.933H422.095V164.387Z" fill="white"/>
<path d="M288.414 56.6027V58.1321H293.069V60.317H289.489V67.3422H291.086V66.5186H296.817V67.3254H298.397V60.317H294.699V58.1321H299.389V56.6027H294.699V54.1489C296.212 53.9304 297.54 53.6111 298.699 53.2077L297.91 51.8632C295.422 52.6699 292.363 53.0732 288.716 53.0732L289.22 54.5018C290.582 54.5018 291.859 54.4346 293.069 54.3337V56.6027H288.414ZM291.086 65.0228V61.8128H296.817V65.0228H291.086ZM285.573 51.9976L284.481 53.0228C285.708 53.8295 286.666 54.5858 287.338 55.2749L288.431 54.1993C287.641 53.4598 286.683 52.7203 285.573 51.9976ZM285.187 55.9976L284.061 57.0901C285.304 57.9808 286.279 58.8043 286.968 59.5775L288.078 58.4682C287.304 57.6447 286.33 56.8211 285.187 55.9976ZM286.817 60.5186C286.128 62.5354 285.304 64.5018 284.346 66.4346L285.943 67.1405C286.783 65.2581 287.573 63.2413 288.279 61.0901L286.817 60.5186ZM301.54 52.8716V54.401H307.792V52.8716H301.54ZM300.918 57.4094V58.9556H303.069C302.296 61.7791 301.691 63.5102 301.237 64.1657C301.17 64.2161 301.069 64.2665 300.901 64.3002L301.288 65.8128C303.338 65.443 305.237 64.9556 307.002 64.3506L307.439 65.4262L308.817 64.7203C308.111 63.0228 307.372 61.4598 306.599 60.048L305.254 60.7035C305.641 61.4262 306.027 62.1993 306.414 63.0228C305.288 63.443 304.162 63.7791 303.052 64.0144C303.489 62.9388 304.01 61.2581 304.615 58.9556H308.397V57.4094H300.918ZM310.683 51.88V55.1405H308.548V56.6867H310.683V56.838C310.649 61.2245 309.607 64.401 307.573 66.3842L308.767 67.443C311.052 65.2077 312.212 61.6783 312.262 56.838V56.6867H314.347C314.313 61.1573 314.262 63.796 314.162 64.5859C314.027 65.3926 313.607 65.796 312.868 65.796C312.431 65.796 311.91 65.7623 311.305 65.7119L311.674 67.1237C312.347 67.1573 312.817 67.1909 313.086 67.1909C314.615 67.1909 315.473 66.5523 315.657 65.2749C315.809 63.9976 315.893 60.6195 315.893 55.1405H312.262V51.88H310.683ZM317.893 56.7539V58.1993H322.061C320.935 59.0564 319.439 59.7455 317.557 60.2833L318.279 61.6951C320.817 60.7875 322.767 59.6111 324.111 58.1993H327.086C328.178 59.6111 329.943 60.7539 332.397 61.6447L333.086 60.1825C331.237 59.6951 329.826 59.0396 328.834 58.1993H332.7V56.7539H325.221C325.439 56.3842 325.624 55.9976 325.792 55.5943C327.002 55.527 328.195 55.4766 329.338 55.4094C329.708 55.7623 330.044 56.1153 330.347 56.4682L331.674 55.5438C330.8 54.6195 329.54 53.527 327.893 52.2833L326.666 53.0564C327.103 53.4094 327.54 53.7623 327.943 54.1321C326.178 54.2497 324.363 54.3337 322.498 54.401C323.372 53.7959 324.229 53.0564 325.086 52.2161L323.506 51.6783C321.758 53.359 320.397 54.2833 319.422 54.4178L319.657 55.7959C321.204 55.7623 322.716 55.7119 324.162 55.6615C323.994 56.0312 323.775 56.401 323.506 56.7539H317.893ZM325.221 58.5354C324.212 59.7287 322.649 60.6867 320.498 61.4094L321.204 62.6531C323.59 61.8128 325.338 60.6867 326.464 59.2749L325.221 58.5354ZM329.573 61.1573C328.195 63.5439 325.002 65.2749 319.96 66.317L320.868 67.5607C326.044 66.4682 329.422 64.5355 330.968 61.7791L329.573 61.1573ZM327.355 59.9472C325.674 61.964 323.271 63.2245 320.162 63.7287L321.069 64.9388C324.061 64.401 326.565 63.0228 328.599 60.7707L327.355 59.9472ZM337.389 51.7623L336.582 59.3758H346.061C346.061 62.3674 345.859 64.1657 345.489 64.8044C345.137 65.3926 344.061 65.6951 342.279 65.6951C341.943 65.6951 341.338 65.6447 340.481 65.5607L340.901 67.0229C341.489 67.0565 342.061 67.0901 342.599 67.0901C344.7 67.0901 346.061 66.7371 346.7 66.0313C347.338 65.2918 347.674 62.5691 347.674 57.88H338.363L338.599 55.5102H348.649V53.9808H338.75L338.968 51.8968L337.389 51.7623ZM334.531 61.7119V63.2413H344.01V61.7119H334.531ZM352.834 53.443V54.9388H357.405V56.569H351.439V58.0817H358.565C356.279 59.359 353.809 60.2833 351.187 60.8884L351.842 62.3674C352.75 62.0481 353.624 61.7287 354.464 61.4262V67.3758H356.078V66.7371H362.851V67.3758H364.447V59.6111H358.75C359.557 59.2245 360.263 58.838 360.884 58.4682C361.086 58.3338 361.288 58.2161 361.489 58.0817H366.515V56.569H363.489C364.464 55.7287 365.372 54.8043 366.229 53.7623L365.036 52.8716C363.926 54.2161 362.582 55.4598 361.002 56.569H359.019V54.9388H362.75V53.443H359.019V51.7959H357.405V53.443H352.834ZM356.078 63.8128H362.851V65.3254H356.078V63.8128ZM362.851 62.4346H356.078V60.9892H362.851V62.4346ZM380.985 67.1909C382.263 67.1909 382.918 66.5186 382.918 65.1741V51.9472H381.338V64.7876C381.338 65.4262 381.019 65.7623 380.414 65.7623C379.775 65.7623 379.103 65.7287 378.38 65.6615L378.75 67.1909H380.985ZM377.758 53.2245V63.7791H379.305V53.2245H377.758ZM368.498 52.4178V53.964H370.935C370.565 56.5186 369.624 58.5522 368.078 60.0312L368.851 61.527C369.254 61.1405 369.641 60.7203 370.011 60.2665C371.019 60.8044 371.926 61.3926 372.7 61.9976C371.658 63.6111 370.212 64.8716 368.38 65.7623L369.153 67.1909C372.985 65.3422 375.254 62.0481 375.994 57.3085V55.8968H372.111C372.263 55.2749 372.397 54.6363 372.498 53.964H376.75V52.4178H368.498ZM370.851 59.0396C371.137 58.5354 371.389 57.9976 371.624 57.4094H374.498C374.263 58.6027 373.91 59.6951 373.439 60.6867C372.683 60.1153 371.826 59.5606 370.851 59.0396ZM385.826 53.1573V54.6363H391.742V55.8632H386.8V57.3422H391.742V58.5691H385.237V60.0312H390.33C389.12 61.3254 387.271 62.401 384.767 63.2581L385.607 64.6531C386.616 64.2329 387.523 63.7791 388.364 63.2918V65.1909C388.364 65.5439 388.128 65.8128 387.691 65.9976L388.229 67.359C390.078 66.9052 391.91 66.3338 393.708 65.6279L393.406 64.1657C392.246 64.6195 391.086 65.0228 389.927 65.3926V62.2329C390.767 61.5607 391.473 60.8212 392.044 60.0312H392.464C393.893 63.5943 396.145 66.0144 399.204 67.275L400.078 65.8632C398.632 65.3254 397.372 64.5523 396.33 63.527C397.305 63.0565 398.212 62.4346 399.019 61.6279L397.91 60.5522C397.103 61.4262 396.279 62.0649 395.406 62.5018C394.834 61.7791 394.33 60.9556 393.927 60.0312H399.859V58.5691H393.355V57.3422H398.296V55.8632H393.355V54.6363H399.271V53.1573H393.355V51.8632H391.742V53.1573H385.826Z" fill="#4F4F4F"/>
<path d="M288.414 102.221V103.75H293.069V105.935H289.489V112.961H291.086V112.137H296.817V112.944H298.397V105.935H294.699V103.75H299.389V102.221H294.699V99.7673C296.212 99.5488 297.54 99.2295 298.699 98.8261L297.91 97.4816C295.422 98.2883 292.363 98.6916 288.716 98.6916L289.22 100.12C290.582 100.12 291.859 100.053 293.069 99.9522V102.221H288.414ZM291.086 110.641V107.431H296.817V110.641H291.086ZM285.573 97.616L284.481 98.6412C285.708 99.448 286.666 100.204 287.338 100.893L288.431 99.8177C287.641 99.0782 286.683 98.3387 285.573 97.616ZM285.187 101.616L284.061 102.708C285.304 103.599 286.279 104.423 286.968 105.196L288.078 104.087C287.304 103.263 286.33 102.44 285.187 101.616ZM286.817 106.137C286.128 108.154 285.304 110.12 284.346 112.053L285.943 112.759C286.783 110.877 287.573 108.86 288.279 106.708L286.817 106.137ZM301.54 98.49V100.019H307.792V98.49H301.54ZM300.918 103.028V104.574H303.069C302.296 107.398 301.691 109.129 301.237 109.784C301.17 109.835 301.069 109.885 300.901 109.919L301.288 111.431C303.338 111.061 305.237 110.574 307.002 109.969L307.439 111.045L308.817 110.339C308.111 108.641 307.372 107.078 306.599 105.666L305.254 106.322C305.641 107.045 306.027 107.818 306.414 108.641C305.288 109.061 304.162 109.398 303.052 109.633C303.489 108.557 304.01 106.877 304.615 104.574H308.397V103.028H300.918ZM310.683 97.4984V100.759H308.548V102.305H310.683V102.456C310.649 106.843 309.607 110.019 307.573 112.003L308.767 113.061C311.052 110.826 312.212 107.297 312.262 102.456V102.305H314.347C314.313 106.776 314.262 109.414 314.162 110.204C314.027 111.011 313.607 111.414 312.868 111.414C312.431 111.414 311.91 111.381 311.305 111.33L311.674 112.742C312.347 112.776 312.817 112.809 313.086 112.809C314.615 112.809 315.473 112.171 315.657 110.893C315.809 109.616 315.893 106.238 315.893 100.759H312.262V97.4984H310.683ZM323.321 98.2883V99.8345H328.145V110.742C328.145 111.179 327.926 111.414 327.489 111.414C326.851 111.414 326.162 111.364 325.456 111.297L325.809 112.86H328.044C329.187 112.86 329.758 112.288 329.758 111.145V99.8345H333.153V98.2883H323.321ZM319.842 97.5656L318.716 98.658C319.91 99.5488 320.834 100.389 321.506 101.162L322.599 100.053C321.842 99.2295 320.918 98.4059 319.842 97.5656ZM317.607 102.456V103.986H319.96V110.171C319.96 110.507 319.809 110.793 319.523 111.028L320.128 112.456C321.405 111.683 322.615 110.793 323.742 109.784L323.321 108.103C322.683 108.692 322.061 109.213 321.489 109.683V102.456H317.607ZM336.145 99.969V107.179H341.338V108.507H334.615V110.019H341.338V113.028H342.918V110.019H349.641V108.507H342.918V107.179H348.111V99.969H345.052C345.523 99.3303 345.943 98.6244 346.313 97.8513L344.767 97.2967C344.38 98.2379 343.926 99.1286 343.389 99.969H339.994L341.002 99.4648C340.498 98.6916 339.96 98.0026 339.389 97.3807L338.061 98.0194C338.582 98.5908 339.069 99.2463 339.54 99.969H336.145ZM346.565 105.767H342.918V104.221H346.565V105.767ZM341.338 105.767H337.691V104.221H341.338V105.767ZM337.691 102.877V101.364H341.338V102.877H337.691ZM342.918 101.364H346.565V102.877H342.918V101.364ZM364.179 112.809C365.456 112.809 366.111 112.137 366.111 110.793V97.5656H364.532V110.406C364.532 111.045 364.212 111.381 363.607 111.381C362.968 111.381 362.296 111.347 361.574 111.28L361.943 112.809H364.179ZM360.952 98.8429V109.398H362.498V98.8429H360.952ZM351.691 98.0362V99.5824H354.128C353.758 102.137 352.817 104.171 351.271 105.65L352.044 107.145C352.447 106.759 352.834 106.339 353.204 105.885C354.212 106.423 355.12 107.011 355.893 107.616C354.851 109.229 353.405 110.49 351.574 111.381L352.347 112.809C356.179 110.961 358.447 107.666 359.187 102.927V101.515H355.305C355.456 100.893 355.59 100.255 355.691 99.5824H359.943V98.0362H351.691ZM354.044 104.658C354.33 104.154 354.582 103.616 354.817 103.028H357.691C357.456 104.221 357.103 105.314 356.632 106.305C355.876 105.734 355.019 105.179 354.044 104.658ZM369.019 98.7757V100.255H374.935V101.482H369.994V102.961H374.935V104.187H368.431V105.65H373.523C372.313 106.944 370.464 108.019 367.96 108.877L368.8 110.272C369.809 109.851 370.716 109.398 371.557 108.91V110.809C371.557 111.162 371.321 111.431 370.884 111.616L371.422 112.977C373.271 112.524 375.103 111.952 376.901 111.246L376.599 109.784C375.439 110.238 374.279 110.641 373.12 111.011V107.851C373.96 107.179 374.666 106.44 375.237 105.65H375.658C377.086 109.213 379.338 111.633 382.397 112.893L383.271 111.482C381.826 110.944 380.565 110.171 379.523 109.145C380.498 108.675 381.406 108.053 382.212 107.246L381.103 106.171C380.296 107.045 379.473 107.683 378.599 108.12C378.027 107.398 377.523 106.574 377.12 105.65H383.053V104.187H376.548V102.961H381.49V101.482H376.548V100.255H382.464V98.7757H376.548V97.4816H374.935V98.7757H369.019Z" fill="#4F4F4F"/>
<path d="M146.036 330.342V343.703H140.137V345.249H155.196V343.703H147.683V336.947H153.902V335.4H147.683V330.342H146.036ZM158.675 336.947V345.888H160.255V334.661C160.927 333.501 161.482 332.291 161.902 331.031L160.389 330.325C159.566 332.879 158.289 335.098 156.574 337.014L157.095 338.711C157.667 338.14 158.188 337.552 158.675 336.947ZM161.885 332.358V333.905H164.726C164.591 334.442 164.44 334.963 164.289 335.484H161.146V337.014H163.801C163.415 338.14 163.011 339.232 162.574 340.274H169.633C168.944 341.098 168.003 341.905 166.826 342.711C165.885 342.274 164.91 341.854 163.902 341.485L163.045 342.745C165.196 343.535 167.314 344.611 169.364 345.989L170.272 344.611C169.616 344.19 168.927 343.787 168.221 343.417C169.633 342.325 170.658 341.249 171.331 340.174V338.795H164.641C164.877 338.241 165.095 337.653 165.331 337.014H172.238V335.484H165.835C165.986 334.98 166.137 334.459 166.305 333.905H171.549V332.358H166.709C166.843 331.753 166.994 331.132 167.129 330.476L165.566 330.325L165.112 332.358H161.885ZM179.263 331.182V332.728H184.087V343.636C184.087 344.073 183.868 344.308 183.431 344.308C182.793 344.308 182.104 344.258 181.398 344.19L181.751 345.753H183.986C185.129 345.753 185.7 345.182 185.7 344.039V332.728H189.095V331.182H179.263ZM175.784 330.459L174.658 331.552C175.852 332.442 176.776 333.283 177.448 334.056L178.541 332.947C177.784 332.123 176.86 331.3 175.784 330.459ZM173.549 335.35V336.879H175.902V343.064C175.902 343.4 175.751 343.686 175.465 343.921L176.07 345.35C177.347 344.577 178.557 343.686 179.684 342.678L179.263 340.997C178.625 341.585 178.003 342.106 177.431 342.577V335.35H173.549ZM192.087 332.863V340.073H197.28V341.4H190.557V342.913H197.28V345.921H198.86V342.913H205.583V341.4H198.86V340.073H204.053V332.863H200.994C201.465 332.224 201.885 331.518 202.255 330.745L200.709 330.19C200.322 331.132 199.868 332.022 199.331 332.863H195.936L196.944 332.358C196.44 331.585 195.902 330.896 195.331 330.274L194.003 330.913C194.524 331.484 195.011 332.14 195.482 332.863H192.087ZM202.507 338.661H198.86V337.115H202.507V338.661ZM197.28 338.661H193.633V337.115H197.28V338.661ZM193.633 335.77V334.258H197.28V335.77H193.633ZM198.86 334.258H202.507V335.77H198.86V334.258ZM207.465 333.048V334.627H210.037C210.759 337.115 212.053 339.3 213.902 341.148C212.121 342.678 209.885 343.787 207.163 344.493L208.02 345.905C210.793 345.098 213.129 343.854 215.028 342.174C216.81 343.686 219.062 344.947 221.768 345.955L222.658 344.611C220.07 343.669 217.885 342.476 216.137 341.048C217.717 339.316 218.911 337.182 219.717 334.627H222.289V333.048H215.919C215.398 331.938 214.826 330.98 214.221 330.174L212.625 330.762C213.263 331.484 213.801 332.241 214.238 333.048H207.465ZM211.566 334.627H218.07C217.398 336.745 216.373 338.56 215.011 340.056C213.415 338.51 212.272 336.695 211.566 334.627ZM227.499 330.207C226.692 332.795 225.448 335.064 223.768 337.014L224.289 338.711C224.81 338.157 225.314 337.585 225.784 336.98V345.854H227.348V334.661C228.02 333.484 228.574 332.224 228.995 330.896L227.499 330.207ZM230.322 331.417C229.986 333.569 229.314 335.4 228.339 336.896L229.364 338.224C229.969 337.35 230.474 336.392 230.894 335.333H233.432V338.947H228.658V340.493H233.432V345.787H235.028V340.493H239.364V338.947H235.028V335.333H238.742V333.77H235.028V330.409H233.432V333.77H231.415C231.6 333.098 231.751 332.375 231.885 331.619L230.322 331.417Z" fill="#595959"/>
<g clip-path="url(#clip0)">
<path d="M492.189 95.6305C490.289 95.6305 488.432 96.1937 486.853 97.249C485.274 98.3043 484.043 99.8042 483.316 101.559C482.589 103.314 482.399 105.245 482.769 107.108C483.14 108.971 484.055 110.682 485.398 112.025C486.741 113.368 488.452 114.283 490.315 114.654C492.178 115.024 494.109 114.834 495.864 114.107C497.619 113.38 499.119 112.149 500.174 110.57C501.229 108.991 501.792 107.134 501.792 105.234C501.785 102.69 500.771 100.251 498.971 98.4516C497.172 96.6521 494.733 95.6379 492.189 95.6305V95.6305ZM490.588 109.567L486.255 105.234L487.387 104.103L490.588 107.304L496.991 100.901L498.122 102.033L490.588 109.567Z" fill="#467DEA"/>
</g>
<g clip-path="url(#clip1)">
<path d="M492.189 50.0121C490.289 50.0121 488.432 50.5753 486.853 51.6306C485.274 52.6859 484.043 54.1858 483.316 55.9407C482.589 57.6956 482.399 59.6266 482.769 61.4896C483.14 63.3525 484.055 65.0638 485.398 66.4069C486.741 67.75 488.452 68.6647 490.315 69.0353C492.178 69.4058 494.109 69.2157 495.864 68.4888C497.619 67.7619 499.119 66.5309 500.174 64.9516C501.229 63.3722 501.792 61.5154 501.792 59.6159C501.785 57.0711 500.771 54.6326 498.971 52.8332C497.172 51.0337 494.733 50.0195 492.189 50.0121V50.0121ZM490.588 63.9489L486.255 59.6159L487.387 58.4843L490.588 61.6856L496.991 55.283L498.122 56.4147L490.588 63.9489Z" fill="#467DEA"/>
</g>
<rect x="72.0196" y="302.114" width="204.082" height="72.029" rx="3.60145" stroke="#F3F4F6" stroke-width="2.40097" stroke-dasharray="4.8 4.8"/>
<path d="M122.44 332.126V344.13" stroke="#595959" stroke-width="2.40097" stroke-miterlimit="10" stroke-linecap="square"/>
<path d="M128.442 338.128H116.438" stroke="#595959" stroke-width="2.40097" stroke-miterlimit="10" stroke-linecap="square"/>
<g filter="url(#filter3_d)">
<rect x="398.551" y="309.316" width="93.6377" height="93.6377" rx="7.2029" fill="white"/>
</g>
<g clip-path="url(#clip2)">
<path d="M449.171 333.326H428.263C427.759 333.326 427.275 333.526 426.919 333.883C426.562 334.239 426.362 334.723 426.362 335.227V377.044C426.362 377.548 426.562 378.031 426.919 378.388C427.275 378.744 427.759 378.944 428.263 378.944H462.477C462.981 378.944 463.464 378.744 463.821 378.388C464.177 378.031 464.377 377.548 464.377 377.044V348.532H451.072C450.568 348.532 450.085 348.332 449.728 347.975C449.372 347.619 449.171 347.136 449.171 346.631V333.326Z" fill="#2AB751"/>
<path d="M463.264 344.731H452.973V334.44L463.264 344.731Z" fill="#2AB751"/>
<path d="M431.261 352.623L434.645 357.508L431.035 362.732H433.059L435.664 358.824L438.269 362.732H440.294L436.655 357.508L440.067 352.623H438.043L435.664 356.191L433.286 352.623H431.261ZM441.356 352.623V362.732H448.463V361.316H442.999V352.623H441.356ZM453.302 352.425C452.212 352.425 451.32 352.666 450.612 353.161C449.848 353.671 449.48 354.379 449.48 355.271C449.48 356.163 449.862 356.842 450.641 357.31C450.938 357.479 451.717 357.763 452.963 358.159C454.081 358.499 454.732 358.725 454.931 358.824C455.553 359.136 455.879 359.561 455.879 360.099C455.879 360.523 455.653 360.849 455.228 361.104C454.803 361.344 454.208 361.472 453.472 361.472C452.637 361.472 452.028 361.316 451.632 361.033C451.193 360.707 450.924 360.155 450.811 359.391H449.168C449.239 360.679 449.706 361.613 450.556 362.208C451.25 362.689 452.226 362.93 453.472 362.93C454.761 362.93 455.766 362.661 456.474 362.151C457.182 361.628 457.535 360.906 457.535 359.999C457.535 359.065 457.097 358.343 456.219 357.819C455.822 357.593 454.945 357.253 453.571 356.828C452.637 356.531 452.057 356.319 451.844 356.205C451.363 355.95 451.136 355.596 451.136 355.172C451.136 354.69 451.335 354.336 451.759 354.124C452.099 353.94 452.58 353.855 453.217 353.855C453.954 353.855 454.52 353.983 454.888 354.266C455.256 354.535 455.525 354.988 455.667 355.611H457.309C457.21 354.506 456.799 353.685 456.091 353.161C455.426 352.666 454.492 352.425 453.302 352.425Z" fill="white"/>
</g>
<g filter="url(#filter4_d)">
<rect x="316.918" y="333.326" width="69.628" height="69.628" rx="7.2029" fill="white"/>
</g>
<g clip-path="url(#clip3)">
<path d="M354.533 351.333H339.127C338.755 351.333 338.399 351.481 338.136 351.743C337.874 352.006 337.726 352.362 337.726 352.734V383.546C337.726 383.918 337.874 384.274 338.136 384.537C338.399 384.799 338.755 384.947 339.127 384.947H364.337C364.708 384.947 365.064 384.799 365.327 384.537C365.59 384.274 365.737 383.918 365.737 383.546V362.538H355.933C355.562 362.538 355.206 362.39 354.943 362.128C354.68 361.865 354.533 361.509 354.533 361.137V351.333Z" fill="#487EF0"/>
<path d="M364.916 359.737H357.334V352.154L364.916 359.737Z" fill="#487EF0"/>
<path d="M344.892 366.744C343.702 366.744 342.795 367.13 342.169 367.923C341.616 368.611 341.345 369.519 341.345 370.625C341.345 371.751 341.606 372.648 342.138 373.316C342.743 374.088 343.671 374.484 344.912 374.484C345.716 374.484 346.404 374.255 346.978 373.796C347.593 373.306 347.979 372.627 348.146 371.751H346.957C346.811 372.314 346.561 372.742 346.206 373.024C345.872 373.274 345.434 373.41 344.902 373.41C344.088 373.41 343.483 373.149 343.097 372.648C342.743 372.179 342.565 371.501 342.565 370.625C342.565 369.769 342.743 369.102 343.108 368.622C343.504 368.079 344.088 367.818 344.871 367.818C345.392 367.818 345.82 367.923 346.154 368.152C346.498 368.382 346.728 368.736 346.853 369.227H348.042C347.927 368.476 347.604 367.871 347.061 367.432C346.498 366.973 345.768 366.744 344.892 366.744ZM351.927 366.744C351.124 366.744 350.467 366.921 349.945 367.286C349.382 367.662 349.11 368.184 349.11 368.841C349.11 369.498 349.392 369.999 349.966 370.343C350.185 370.468 350.759 370.677 351.677 370.969C352.501 371.219 352.981 371.386 353.127 371.459C353.586 371.689 353.826 372.002 353.826 372.398C353.826 372.711 353.659 372.951 353.346 373.139C353.033 373.316 352.595 373.41 352.052 373.41C351.437 373.41 350.988 373.295 350.696 373.086C350.373 372.847 350.174 372.44 350.091 371.876H348.881C348.933 372.826 349.277 373.514 349.903 373.952C350.414 374.307 351.134 374.484 352.052 374.484C353.001 374.484 353.742 374.286 354.264 373.911C354.785 373.525 355.046 372.993 355.046 372.325C355.046 371.636 354.723 371.104 354.076 370.718C353.784 370.552 353.137 370.301 352.125 369.988C351.437 369.769 351.009 369.613 350.853 369.529C350.498 369.341 350.331 369.081 350.331 368.768C350.331 368.413 350.477 368.152 350.79 367.996C351.04 367.86 351.395 367.798 351.864 367.798C352.407 367.798 352.824 367.891 353.095 368.1C353.367 368.298 353.565 368.632 353.669 369.091H354.879C354.806 368.277 354.504 367.672 353.982 367.286C353.492 366.921 352.803 366.744 351.927 366.744ZM355.415 366.89L358.065 374.338H359.536L362.185 366.89H360.86L358.816 372.961H358.785L356.74 366.89H355.415Z" fill="white"/>
</g>
<defs>
<filter id="filter0_d" x="0" y="56.4227" width="463.367" height="349.321" filterUnits="userSpaceOnUse" color-interpolation-filters="sRGB">
<feFlood flood-opacity="0" result="BackgroundImageFix"/>
<feColorMatrix in="SourceAlpha" type="matrix" values="0 0 0 0 0 0 0 0 0 0 0 0 0 0 0 0 0 0 127 0"/>
<feOffset dy="4"/>
<feGaussianBlur stdDeviation="12"/>
<feColorMatrix type="matrix" values="0 0 0 0 0.135086 0 0 0 0 0.204976 0 0 0 0 0.340522 0 0 0 0.08 0"/>
<feBlend mode="normal" in2="BackgroundImageFix" result="effect1_dropShadow"/>
<feBlend mode="normal" in="SourceGraphic" in2="effect1_dropShadow" result="shape"/>
</filter>
<filter id="filter1_d" x="240.097" y="0" width="304.903" height="241.278" filterUnits="userSpaceOnUse" color-interpolation-filters="sRGB">
<feFlood flood-opacity="0" result="BackgroundImageFix"/>
<feColorMatrix in="SourceAlpha" type="matrix" values="0 0 0 0 0 0 0 0 0 0 0 0 0 0 0 0 0 0 127 0"/>
<feOffset dy="4"/>
<feGaussianBlur stdDeviation="12"/>
<feColorMatrix type="matrix" values="0 0 0 0 0.135086 0 0 0 0 0.204976 0 0 0 0 0.340522 0 0 0 0.08 0"/>
<feBlend mode="normal" in2="BackgroundImageFix" result="effect1_dropShadow"/>
<feBlend mode="normal" in="SourceGraphic" in2="effect1_dropShadow" result="shape"/>
</filter>
<filter id="filter2_d" x="21.6089" y="253.302" width="304.903" height="177.652" filterUnits="userSpaceOnUse" color-interpolation-filters="sRGB">
<feFlood flood-opacity="0" result="BackgroundImageFix"/>
<feColorMatrix in="SourceAlpha" type="matrix" values="0 0 0 0 0 0 0 0 0 0 0 0 0 0 0 0 0 0 127 0"/>
<feOffset dy="4"/>
<feGaussianBlur stdDeviation="12"/>
<feColorMatrix type="matrix" values="0 0 0 0 0.135086 0 0 0 0 0.204976 0 0 0 0 0.340522 0 0 0 0.08 0"/>
<feBlend mode="normal" in2="BackgroundImageFix" result="effect1_dropShadow"/>
<feBlend mode="normal" in="SourceGraphic" in2="effect1_dropShadow" result="shape"/>
</filter>
<filter id="filter3_d" x="374.551" y="289.316" width="141.638" height="141.638" filterUnits="userSpaceOnUse" color-interpolation-filters="sRGB">
<feFlood flood-opacity="0" result="BackgroundImageFix"/>
<feColorMatrix in="SourceAlpha" type="matrix" values="0 0 0 0 0 0 0 0 0 0 0 0 0 0 0 0 0 0 127 0"/>
<feOffset dy="4"/>
<feGaussianBlur stdDeviation="12"/>
<feColorMatrix type="matrix" values="0 0 0 0 0.135086 0 0 0 0 0.204976 0 0 0 0 0.340522 0 0 0 0.08 0"/>
<feBlend mode="normal" in2="BackgroundImageFix" result="effect1_dropShadow"/>
<feBlend mode="normal" in="SourceGraphic" in2="effect1_dropShadow" result="shape"/>
</filter>
<filter id="filter4_d" x="292.918" y="313.326" width="117.628" height="117.628" filterUnits="userSpaceOnUse" color-interpolation-filters="sRGB">
<feFlood flood-opacity="0" result="BackgroundImageFix"/>
<feColorMatrix in="SourceAlpha" type="matrix" values="0 0 0 0 0 0 0 0 0 0 0 0 0 0 0 0 0 0 127 0"/>
<feOffset dy="4"/>
<feGaussianBlur stdDeviation="12"/>
<feColorMatrix type="matrix" values="0 0 0 0 0.135086 0 0 0 0 0.204976 0 0 0 0 0.340522 0 0 0 0.08 0"/>
<feBlend mode="normal" in2="BackgroundImageFix" result="effect1_dropShadow"/>
<feBlend mode="normal" in="SourceGraphic" in2="effect1_dropShadow" result="shape"/>
</filter>
<clipPath id="clip0">
<rect width="19.2077" height="19.2077" fill="white" transform="translate(482.585 95.6305)"/>
</clipPath>
<clipPath id="clip1">
<rect width="19.2077" height="19.2077" fill="white" transform="translate(482.585 50.0121)"/>
</clipPath>
<clipPath id="clip2">
<rect width="45.6184" height="45.6184" fill="white" transform="translate(422.56 333.326)"/>
</clipPath>
<clipPath id="clip3">
<rect width="33.6135" height="33.6135" fill="white" transform="translate(334.925 351.333)"/>
</clipPath>
</defs>
</svg>
