<svg width="471" height="387" viewBox="0 0 471 387" fill="none" xmlns="http://www.w3.org/2000/svg">
<g filter="url(#filter0_d)">
<rect x="24" y="20" width="423" height="338.191" rx="6" fill="white"/>
<path d="M60.4031 46.7229V50.1907C60.4031 51.6482 60.7046 52.1005 62.0951 52.1005H63.5358C64.6582 52.1005 65.0435 51.5644 65.211 49.4033C64.7755 49.3028 64.1389 49.0515 63.8373 48.7835C63.7871 50.4252 63.7201 50.6598 63.385 50.6598H62.3296C61.9778 50.6598 61.9276 50.6095 61.9276 50.1739V46.7229H65.0268V45.366H60.6711V43.1379H64.3399V41.8144H60.6711V39.6869H59.1131V41.8144H57.4546C57.6389 41.3789 57.7897 40.8931 57.907 40.4407L56.4327 40.1224C56.0642 41.5799 55.3606 43.0206 54.4559 43.9755C54.8078 44.1598 55.4611 44.5786 55.7459 44.8131C56.1312 44.3608 56.4998 43.7745 56.8516 43.1379H59.1131V45.366H54.5062V46.7229H57.3709C57.1196 48.6662 56.4998 50.1237 54.1041 50.9781C54.4392 51.2628 54.8748 51.8492 55.0423 52.2345C57.84 51.1121 58.6441 49.2358 58.9624 46.7229H60.4031ZM53.9366 42.8028C53.4005 42.0155 52.2781 40.8931 51.3065 40.1392L50.1003 40.9936C51.0552 41.8144 52.1776 42.9536 52.6467 43.7577L53.9366 42.8028ZM53.5178 45.9858H50.0668V47.4265H52.0268V52.134C51.34 52.4858 50.6029 53.0554 49.8993 53.7087L50.9212 55.0657C51.8426 54.027 52.7472 53.1224 53.3503 53.1224C53.7356 53.1224 54.2382 53.6082 54.8915 54.0102C55.9972 54.6301 57.3541 54.8311 59.2974 54.8311C60.9057 54.8311 63.5525 54.7306 64.8425 54.6468C64.8592 54.228 65.1105 53.4574 65.278 53.0386C63.6363 53.2396 61.1067 53.3737 59.3142 53.3737C57.5719 53.3737 56.1815 53.2731 55.1428 52.6533C54.3722 52.201 53.9534 51.8157 53.5178 51.7487V45.9858ZM78.9648 41.7977C78.4287 42.5013 77.7419 43.1714 76.9545 43.741C76.2342 43.1881 75.6143 42.5181 75.095 41.7977H78.9648ZM80.2045 40.357L79.9365 40.4072H72.5654V41.7977H73.604C74.1736 42.8196 74.9107 43.7242 75.7819 44.5116C74.5422 45.2487 73.1685 45.8015 71.778 46.1533C72.0628 46.4381 72.4146 47.0077 72.5821 47.3763C74.0731 46.9407 75.5808 46.2706 76.921 45.4162C78.1607 46.2874 79.6517 46.9742 81.2599 47.393C81.4442 46.991 81.8798 46.4214 82.198 46.1031C80.6903 45.7848 79.3166 45.2487 78.1272 44.5451C79.4004 43.5232 80.4558 42.3003 81.1426 40.8428L80.2045 40.357ZM72.0963 48.0631L71.8953 46.6392L70.2535 47.125V44.2938H72.1298V42.8531H70.2535V39.6366H68.7458V42.8531H66.6853V44.2938H68.7458V47.5605C67.9082 47.7951 67.1376 47.9961 66.501 48.1636L66.8695 49.6714C67.4559 49.5038 68.0757 49.3028 68.7458 49.1185V53.2061C68.7458 53.4239 68.662 53.4909 68.461 53.5077C68.2767 53.5077 67.6234 53.5244 66.9868 53.4909C67.1711 53.893 67.3721 54.5631 67.4224 54.9484C68.4945 54.9484 69.1814 54.9149 69.6504 54.6468C70.1028 54.4123 70.2535 53.9935 70.2535 53.2061V48.6327L72.0963 48.0631ZM77.6581 49.5038H80.7406V48.1301H77.6581V46.7397H76.1001V48.1301H72.8502V49.5038H76.1001V50.9948H72.0125V52.3853H76.1001V55.0154H77.6581V52.3853H81.863V50.9948H77.6581V49.5038ZM87.0898 52.134V47.8788H94.9802V52.134H87.0898ZM94.9802 42.25V46.3376H87.0898V42.25H94.9802ZM85.4983 40.6753V54.7976H87.0898V53.7087H94.9802V54.7306H96.6387V40.6753H85.4983ZM103.038 48.1636H105.652V49.6043H103.038V48.1636ZM105.652 43.0709V44.3273H103.038V43.0709H105.652ZM103.038 45.5502H105.652V46.9407H103.038V45.5502ZM108.231 49.6043H107.092V43.0709H108.298V41.7139H107.092V39.7874H105.652V41.7139H103.038V39.7874H101.631V41.7139H100.274V43.0709H101.631V49.6043H100.073V50.9613H108.231V49.6043ZM102.268 51.2293C101.782 52.2847 100.927 53.3569 100.023 54.0773C100.391 54.295 100.994 54.7306 101.262 54.9986C102.167 54.1778 103.139 52.8878 103.742 51.6314L102.268 51.2293ZM104.68 51.8324C105.316 52.6198 106.087 53.7087 106.422 54.3788L107.679 53.6249C107.327 52.9548 106.523 51.9329 105.869 51.1791L104.68 51.8324ZM110.426 47.9961C110.459 47.46 110.459 46.924 110.459 46.4381V45.5502H113.408V47.9961H110.426ZM113.408 41.8144V44.1765H110.459V41.8144H113.408ZM114.916 40.4072H108.985V46.4381C108.985 48.8337 108.868 51.9664 107.545 54.1443C107.88 54.3118 108.533 54.7641 108.784 55.0489C109.739 53.5244 110.141 51.3969 110.325 49.4033H113.408V53.1224C113.408 53.3904 113.307 53.4574 113.056 53.4742C112.838 53.4742 112.001 53.4909 111.213 53.4574C111.414 53.8427 111.615 54.5296 111.666 54.9316C112.905 54.9484 113.709 54.9149 114.212 54.6468C114.731 54.4123 114.916 53.96 114.916 53.1391V40.4072Z" fill="#333333"/>
<path d="M341.989 89.673C340.582 89.673 339.493 90.2593 338.723 91.4487C338.019 92.5376 337.667 94.0119 337.667 95.8881C337.667 97.7477 338.019 99.2219 338.723 100.328C339.493 101.5 340.582 102.103 341.989 102.103C343.397 102.103 344.486 101.5 345.256 100.328C345.96 99.2219 346.312 97.7309 346.312 95.8881C346.312 94.0286 345.96 92.5544 345.256 91.4487C344.486 90.2593 343.397 89.673 341.989 89.673ZM341.989 91.2142C342.961 91.2142 343.665 91.7503 344.067 92.8392C344.351 93.5763 344.502 94.5982 344.502 95.8881C344.502 97.1613 344.351 98.1832 344.067 98.9371C343.665 100.009 342.961 100.562 341.989 100.562C341.001 100.562 340.314 100.009 339.912 98.9371C339.611 98.1832 339.477 97.1613 339.477 95.8881C339.477 94.5982 339.611 93.5763 339.912 92.8392C340.314 91.7503 341.001 91.2142 341.989 91.2142ZM352.152 89.673C350.979 89.673 350.024 89.9913 349.287 90.6614C348.5 91.3315 348.064 92.2529 347.963 93.4423H349.756C349.823 92.7052 350.074 92.1523 350.476 91.7838C350.878 91.4152 351.448 91.231 352.168 91.231C352.872 91.231 353.425 91.3817 353.793 91.7168C354.128 92.0351 354.313 92.4874 354.313 93.0905C354.313 93.6936 354.112 94.1626 353.743 94.4809C353.375 94.7992 352.822 94.9668 352.085 94.9668H351.23V96.3405H352.101C352.889 96.3405 353.492 96.508 353.894 96.843C354.329 97.1781 354.547 97.6974 354.547 98.401C354.547 99.0041 354.329 99.4899 353.927 99.892C353.458 100.328 352.838 100.562 352.068 100.562C351.364 100.562 350.795 100.361 350.359 99.959C349.857 99.5234 349.605 98.9036 349.572 98.0995H347.729C347.829 99.4397 348.299 100.462 349.136 101.165C349.873 101.785 350.862 102.103 352.085 102.103C353.358 102.103 354.413 101.735 355.217 101.031C355.971 100.328 356.356 99.4229 356.356 98.3172C356.356 97.6136 356.155 97.0273 355.753 96.575C355.385 96.1394 354.849 95.8044 354.145 95.5866C355.452 95.151 356.122 94.2631 356.122 92.9565C356.122 91.9346 355.753 91.1304 355.05 90.5441C354.313 89.9578 353.358 89.673 352.152 89.673Z" fill="#797979"/>
<path d="M232.608 89.673C231.2 89.673 230.111 90.2593 229.341 91.4487C228.637 92.5376 228.285 94.0119 228.285 95.8881C228.285 97.7477 228.637 99.2219 229.341 100.328C230.111 101.5 231.2 102.103 232.608 102.103C234.015 102.103 235.104 101.5 235.874 100.328C236.578 99.2219 236.93 97.7309 236.93 95.8881C236.93 94.0286 236.578 92.5544 235.874 91.4487C235.104 90.2593 234.015 89.673 232.608 89.673ZM232.608 91.2142C233.579 91.2142 234.283 91.7503 234.685 92.8392C234.97 93.5763 235.12 94.5982 235.12 95.8881C235.12 97.1613 234.97 98.1832 234.685 98.9371C234.283 100.009 233.579 100.562 232.608 100.562C231.619 100.562 230.932 100.009 230.53 98.9371C230.229 98.1832 230.095 97.1613 230.095 95.8881C230.095 94.5982 230.229 93.5763 230.53 92.8392C230.932 91.7503 231.619 91.2142 232.608 91.2142ZM241.513 89.9075C241.111 90.3431 240.609 90.7284 240.006 91.0969C239.403 91.432 238.85 91.6665 238.314 91.8005V93.6098C239.419 93.2915 240.341 92.7889 241.061 92.1021V101.869H242.887V89.9075H241.513Z" fill="#555555"/>
<path d="M224.592 114.531C224.241 114.927 223.83 115.279 223.332 115.602C222.833 115.895 222.335 116.1 221.866 116.232V117.434C222.848 117.141 223.669 116.672 224.328 115.997V124.998H225.53V114.531H224.592ZM227.603 114.531V115.631H233.246L229.347 124.998H230.622L234.477 115.514V114.531H227.603ZM238.961 112.934C238.258 115.22 237.143 117.258 235.59 119.017L235.927 120.146C236.484 119.559 236.997 118.944 237.466 118.299V126.478H238.507V116.686C239.093 115.645 239.577 114.546 239.958 113.388L238.961 112.934ZM241.424 113.901C241.101 115.851 240.5 117.507 239.606 118.856L240.28 119.735C240.823 118.973 241.277 118.108 241.644 117.141H244.136V120.673H239.826V121.685H244.136V126.405H245.191V121.685H249.105V120.673H245.191V117.141H248.562V116.115H245.191V113.066H244.136V116.115H241.981C242.186 115.47 242.347 114.766 242.464 114.033L241.424 113.901Z" fill="#508FEE"/>
<path d="M224.729 171.071C224.378 171.467 223.967 171.819 223.469 172.141C222.97 172.434 222.472 172.639 222.003 172.771V173.973C222.985 173.68 223.806 173.211 224.465 172.537V181.537H225.667V171.071H224.729ZM232.87 171.071L227.593 178.019V179.162H232.855V181.537H233.999V179.162H235.699V178.18H233.999V171.071H232.87ZM232.812 172.639H232.855V178.18H228.605L232.812 172.639ZM239.871 169.473C239.168 171.76 238.054 173.797 236.5 175.556L236.837 176.685C237.394 176.099 237.907 175.483 238.376 174.838V183.018H239.417V173.226C240.003 172.185 240.487 171.086 240.868 169.928L239.871 169.473ZM242.334 170.441C242.011 172.39 241.41 174.047 240.516 175.395L241.19 176.275C241.733 175.512 242.187 174.648 242.554 173.68H245.046V177.213H240.736V178.224H245.046V182.944H246.101V178.224H250.015V177.213H246.101V173.68H249.472V172.654H246.101V169.605H245.046V172.654H242.891C243.096 172.009 243.257 171.306 243.375 170.573L242.334 170.441Z" fill="#508FEE"/>
<path d="M280.222 171.071C279.87 171.467 279.46 171.819 278.961 172.141C278.463 172.434 277.965 172.639 277.496 172.771V173.973C278.478 173.68 279.299 173.211 279.958 172.537V181.537H281.16V171.071H280.222ZM287.132 170.866C285.871 170.866 284.933 171.408 284.302 172.522C283.745 173.46 283.467 174.721 283.467 176.304C283.467 177.887 283.745 179.148 284.302 180.086C284.933 181.185 285.871 181.742 287.132 181.742C288.377 181.742 289.316 181.185 289.961 180.086C290.518 179.148 290.796 177.887 290.796 176.304C290.796 174.721 290.518 173.46 289.961 172.522C289.316 171.408 288.377 170.866 287.132 170.866ZM287.132 171.892C288.07 171.892 288.744 172.39 289.154 173.402C289.448 174.105 289.609 175.073 289.609 176.304C289.609 177.521 289.448 178.488 289.154 179.206C288.744 180.203 288.07 180.716 287.132 180.716C286.193 180.716 285.519 180.203 285.109 179.206C284.815 178.488 284.669 177.521 284.669 176.304C284.669 175.073 284.815 174.105 285.109 173.402C285.519 172.39 286.193 171.892 287.132 171.892ZM295.364 169.473C294.66 171.76 293.546 173.797 291.992 175.556L292.33 176.685C292.887 176.099 293.4 175.483 293.869 174.838V183.018H294.909V173.226C295.496 172.185 295.979 171.086 296.361 169.928L295.364 169.473ZM297.826 170.441C297.504 172.39 296.903 174.047 296.009 175.395L296.683 176.275C297.225 175.512 297.68 174.648 298.046 173.68H300.538V177.213H296.229V178.224H300.538V182.944H301.594V178.224H305.507V177.213H301.594V173.68H304.965V172.654H301.594V169.605H300.538V172.654H298.383C298.589 172.009 298.75 171.306 298.867 170.573L297.826 170.441Z" fill="#508FEE"/>
<path d="M335.39 170.866C334.394 170.866 333.587 171.144 332.972 171.716C332.327 172.288 331.946 173.079 331.858 174.091H333.045C333.118 173.387 333.353 172.845 333.763 172.464C334.159 172.082 334.701 171.907 335.405 171.907C336.079 171.907 336.622 172.068 337.003 172.42C337.355 172.742 337.545 173.196 337.545 173.783C337.545 174.369 337.355 174.824 336.988 175.146C336.622 175.454 336.094 175.615 335.39 175.615H334.584V176.553H335.434C336.167 176.553 336.724 176.714 337.135 177.066C337.545 177.418 337.75 177.902 337.75 178.532C337.75 179.148 337.53 179.661 337.12 180.071C336.666 180.496 336.065 180.716 335.317 180.716C334.657 180.716 334.115 180.526 333.675 180.174C333.162 179.749 332.884 179.118 332.854 178.298H331.638C331.726 179.47 332.136 180.364 332.884 180.98C333.514 181.478 334.32 181.742 335.317 181.742C336.402 181.742 337.281 181.435 337.956 180.819C338.615 180.218 338.952 179.441 338.952 178.488C338.952 177.873 338.776 177.359 338.425 176.949C338.102 176.539 337.633 176.245 337.017 176.055C338.161 175.674 338.732 174.882 338.732 173.71C338.732 172.83 338.425 172.141 337.824 171.628C337.208 171.115 336.387 170.866 335.39 170.866ZM344.077 170.866C342.816 170.866 341.878 171.408 341.248 172.522C340.691 173.46 340.412 174.721 340.412 176.304C340.412 177.887 340.691 179.148 341.248 180.086C341.878 181.185 342.816 181.742 344.077 181.742C345.323 181.742 346.261 181.185 346.906 180.086C347.463 179.148 347.742 177.887 347.742 176.304C347.742 174.721 347.463 173.46 346.906 172.522C346.261 171.408 345.323 170.866 344.077 170.866ZM344.077 171.892C345.015 171.892 345.689 172.39 346.1 173.402C346.393 174.105 346.554 175.073 346.554 176.304C346.554 177.521 346.393 178.488 346.1 179.206C345.689 180.203 345.015 180.716 344.077 180.716C343.139 180.716 342.465 180.203 342.054 179.206C341.761 178.488 341.614 177.521 341.614 176.304C341.614 175.073 341.761 174.105 342.054 173.402C342.465 172.39 343.139 171.892 344.077 171.892ZM352.309 169.473C351.606 171.76 350.492 173.797 348.938 175.556L349.275 176.685C349.832 176.099 350.345 175.483 350.814 174.838V183.018H351.855V173.226C352.441 172.185 352.925 171.086 353.306 169.928L352.309 169.473ZM354.772 170.441C354.449 172.39 353.848 174.047 352.954 175.395L353.629 176.275C354.171 175.512 354.625 174.648 354.992 173.68H357.484V177.213H353.174V178.224H357.484V182.944H358.539V178.224H362.453V177.213H358.539V173.68H361.911V172.654H358.539V169.605H357.484V172.654H355.329C355.534 172.009 355.695 171.306 355.813 170.573L354.772 170.441Z" fill="#508FEE"/>
<path d="M169.237 171.071C168.885 171.467 168.475 171.819 167.976 172.141C167.478 172.434 166.98 172.639 166.51 172.771V173.973C167.493 173.68 168.313 173.211 168.973 172.537V181.537H170.175V171.071H169.237ZM176.146 170.866C174.886 170.866 173.948 171.408 173.317 172.522C172.76 173.46 172.482 174.721 172.482 176.304C172.482 177.887 172.76 179.148 173.317 180.086C173.948 181.185 174.886 181.742 176.146 181.742C177.392 181.742 178.331 181.185 178.975 180.086C179.533 179.148 179.811 177.887 179.811 176.304C179.811 174.721 179.533 173.46 178.975 172.522C178.331 171.408 177.392 170.866 176.146 170.866ZM176.146 171.892C177.085 171.892 177.759 172.39 178.169 173.402C178.462 174.105 178.624 175.073 178.624 176.304C178.624 177.521 178.462 178.488 178.169 179.206C177.759 180.203 177.085 180.716 176.146 180.716C175.208 180.716 174.534 180.203 174.124 179.206C173.83 178.488 173.684 177.521 173.684 176.304C173.684 175.073 173.83 174.105 174.124 173.402C174.534 172.39 175.208 171.892 176.146 171.892ZM184.379 169.473C183.675 171.76 182.561 173.797 181.007 175.556L181.344 176.685C181.901 176.099 182.414 175.483 182.884 174.838V183.018H183.924V173.226C184.511 172.185 184.994 171.086 185.375 169.928L184.379 169.473ZM186.841 170.441C186.519 172.39 185.918 174.047 185.024 175.395L185.698 176.275C186.24 175.512 186.695 174.648 187.061 173.68H189.553V177.213H185.244V178.224H189.553V182.944H190.609V178.224H194.522V177.213H190.609V173.68H193.98V172.654H190.609V169.605H189.553V172.654H187.398C187.604 172.009 187.765 171.306 187.882 170.573L186.841 170.441Z" fill="#508FEE"/>
<path d="M113.464 170.866C112.408 170.866 111.544 171.218 110.899 171.921C110.254 172.61 109.917 173.548 109.917 174.721H111.119C111.133 173.797 111.353 173.094 111.763 172.625C112.145 172.126 112.702 171.892 113.42 171.892C114.094 171.892 114.637 172.068 115.018 172.42C115.399 172.771 115.589 173.255 115.589 173.9C115.589 174.574 115.311 175.205 114.783 175.776C114.505 176.07 113.962 176.495 113.141 177.081C112.027 177.843 111.28 178.474 110.869 178.943C110.166 179.719 109.829 180.584 109.829 181.537H116.806V180.467H111.309C111.5 179.763 112.262 178.957 113.596 178.063C114.681 177.33 115.399 176.758 115.765 176.377C116.44 175.644 116.791 174.824 116.791 173.915C116.791 173.006 116.469 172.258 115.853 171.701C115.223 171.144 114.431 170.866 113.464 170.866ZM122.107 170.866C120.846 170.866 119.908 171.408 119.278 172.522C118.721 173.46 118.442 174.721 118.442 176.304C118.442 177.887 118.721 179.148 119.278 180.086C119.908 181.185 120.846 181.742 122.107 181.742C123.353 181.742 124.291 181.185 124.936 180.086C125.493 179.148 125.771 177.887 125.771 176.304C125.771 174.721 125.493 173.46 124.936 172.522C124.291 171.408 123.353 170.866 122.107 170.866ZM122.107 171.892C123.045 171.892 123.719 172.39 124.129 173.402C124.423 174.105 124.584 175.073 124.584 176.304C124.584 177.521 124.423 178.488 124.129 179.206C123.719 180.203 123.045 180.716 122.107 180.716C121.168 180.716 120.494 180.203 120.084 179.206C119.791 178.488 119.644 177.521 119.644 176.304C119.644 175.073 119.791 174.105 120.084 173.402C120.494 172.39 121.168 171.892 122.107 171.892ZM130.339 169.473C129.635 171.76 128.521 173.797 126.967 175.556L127.305 176.685C127.862 176.099 128.375 175.483 128.844 174.838V183.018H129.884V173.226C130.471 172.185 130.955 171.086 131.336 169.928L130.339 169.473ZM132.802 170.441C132.479 172.39 131.878 174.047 130.984 175.395L131.658 176.275C132.201 175.512 132.655 174.648 133.021 173.68H135.513V177.213H131.204V178.224H135.513V182.944H136.569V178.224H140.483V177.213H136.569V173.68H139.94V172.654H136.569V169.605H135.513V172.654H133.359C133.564 172.009 133.725 171.306 133.842 170.573L132.802 170.441Z" fill="#508FEE"/>
<path d="M58.2516 171.071C57.8998 171.467 57.4893 171.819 56.9909 172.141C56.4926 172.434 55.9942 172.639 55.5251 172.771V173.973C56.5072 173.68 57.3281 173.211 57.9877 172.537V181.537H59.1897V171.071H58.2516ZM66.3924 171.071L61.1153 178.019V179.162H66.3777V181.537H67.5211V179.162H69.2214V178.18H67.5211V171.071H66.3924ZM66.3337 172.639H66.3777V178.18H62.1268L66.3337 172.639ZM73.3934 169.473C72.6898 171.76 71.5757 173.797 70.0219 175.556L70.3591 176.685C70.9161 176.099 71.4291 175.483 71.8982 174.838V183.018H72.939V173.226C73.5253 172.185 74.009 171.086 74.3901 169.928L73.3934 169.473ZM75.856 170.441C75.5335 172.39 74.9325 174.047 74.0383 175.395L74.7126 176.275C75.255 175.512 75.7094 174.648 76.0759 173.68H78.5678V177.213H74.2582V178.224H78.5678V182.944H79.6232V178.224H83.537V177.213H79.6232V173.68H82.9946V172.654H79.6232V169.605H78.5678V172.654H76.413C76.6182 172.009 76.7795 171.306 76.8967 170.573L75.856 170.441Z" fill="#508FEE"/>
<path d="M343.672 120.148H333.821V124.428H334.862V123.71H342.631V124.428H343.672V120.148ZM334.862 122.772V121.056H342.631V122.772H334.862ZM333.821 114.739V119.004H344.61V118.11H339.919V117.011H343.76V116.175H339.919V115.149H343.731V114.314H339.919V113.244H344.375V112.364H340.11C339.905 111.807 339.685 111.294 339.45 110.84L338.366 111.015C338.629 111.426 338.864 111.866 339.084 112.364H335.449C335.668 111.939 335.859 111.514 336.035 111.074L335.009 110.869C334.378 112.511 333.294 114.035 331.769 115.428L332.092 116.468C332.722 115.926 333.294 115.354 333.821 114.739ZM338.879 118.11H334.833V117.011H338.879V118.11ZM338.879 116.175H334.833V115.149H338.879V116.175ZM338.879 114.314H334.833V113.405C334.862 113.346 334.891 113.302 334.935 113.244H338.879V114.314ZM346.721 111.704V112.467H349.755V113.156H347.41V113.859H352.863V113.156H350.781V112.467H353.258V111.704H350.781V110.986H349.755V111.704H346.721ZM349.902 115.12V115.97H348.377C348.407 115.794 348.421 115.604 348.421 115.428V115.12H349.902ZM350.693 115.97V115.12H351.983V115.97H350.693ZM348.245 116.6H352.877V114.475H347.483V115.428C347.468 116.366 347.131 117.128 346.486 117.744L347.175 118.374C347.688 117.861 348.04 117.275 348.245 116.6ZM354.446 111.206C354.446 111.763 354.387 112.173 354.27 112.437C354.123 112.701 353.874 112.965 353.493 113.244L354.094 113.786C354.534 113.537 354.842 113.273 355.032 112.98C355.179 112.701 355.267 112.364 355.267 111.968H357.143V112.555C357.143 113.156 357.436 113.463 358.022 113.463H359.342V112.701H358.242C358.052 112.701 357.964 112.584 357.964 112.379V111.206H354.446ZM358.946 113.903H353.64V114.665H354.211C354.446 115.208 354.886 115.706 355.531 116.146C354.871 116.366 354.109 116.556 353.229 116.703L353.625 117.465C354.68 117.26 355.604 116.981 356.395 116.63C357.158 116.981 358.125 117.289 359.312 117.553L359.723 116.776C358.785 116.586 357.978 116.38 357.304 116.161C358.052 115.692 358.594 115.134 358.946 114.49V113.903ZM355.017 114.665H357.92C357.568 115.105 357.055 115.472 356.381 115.794C355.677 115.457 355.223 115.076 355.017 114.665ZM349.975 118.843H352.877V120.177H346.838V121.115H352.877V122.83H349.477V121.672H348.451V124.325H349.477V123.754H357.275V124.325H358.301V121.643H357.275V122.83H353.918V121.115H359.503V120.177H353.918V118.843H357.612V117.905H350.649C350.811 117.641 350.972 117.348 351.118 117.04L350.136 116.835C349.726 117.714 349.081 118.521 348.172 119.253L349.022 119.796C349.359 119.503 349.682 119.18 349.975 118.843Z" fill="#969696"/>
<path d="M399.165 120.148H389.314V124.428H390.355V123.71H398.124V124.428H399.165V120.148ZM390.355 122.772V121.056H398.124V122.772H390.355ZM389.314 114.739V119.004H400.103V118.11H395.412V117.011H399.252V116.175H395.412V115.149H399.223V114.314H395.412V113.244H399.868V112.364H395.603C395.397 111.807 395.177 111.294 394.943 110.84L393.858 111.015C394.122 111.426 394.357 111.866 394.576 112.364H390.941C391.161 111.939 391.352 111.514 391.528 111.074L390.501 110.869C389.871 112.511 388.786 114.035 387.262 115.428L387.584 116.468C388.215 115.926 388.786 115.354 389.314 114.739ZM394.371 118.11H390.326V117.011H394.371V118.11ZM394.371 116.175H390.326V115.149H394.371V116.175ZM394.371 114.314H390.326V113.405C390.355 113.346 390.384 113.302 390.428 113.244H394.371V114.314ZM402.213 111.704V112.467H405.248V113.156H402.902V113.859H408.355V113.156H406.274V112.467H408.751V111.704H406.274V110.986H405.248V111.704H402.213ZM405.394 115.12V115.97H403.87C403.899 115.794 403.914 115.604 403.914 115.428V115.12H405.394ZM406.186 115.97V115.12H407.476V115.97H406.186ZM403.738 116.6H408.37V114.475H402.976V115.428C402.961 116.366 402.624 117.128 401.979 117.744L402.668 118.374C403.181 117.861 403.533 117.275 403.738 116.6ZM409.938 111.206C409.938 111.763 409.88 112.173 409.763 112.437C409.616 112.701 409.367 112.965 408.986 113.244L409.587 113.786C410.026 113.537 410.334 113.273 410.525 112.98C410.671 112.701 410.759 112.364 410.759 111.968H412.636V112.555C412.636 113.156 412.929 113.463 413.515 113.463H414.834V112.701H413.735C413.544 112.701 413.457 112.584 413.457 112.379V111.206H409.938ZM414.439 113.903H409.132V114.665H409.704C409.938 115.208 410.378 115.706 411.023 116.146C410.364 116.366 409.601 116.556 408.722 116.703L409.118 117.465C410.173 117.26 411.097 116.981 411.888 116.63C412.65 116.981 413.618 117.289 414.805 117.553L415.216 116.776C414.277 116.586 413.471 116.38 412.797 116.161C413.544 115.692 414.087 115.134 414.439 114.49V113.903ZM410.51 114.665H413.413C413.061 115.105 412.548 115.472 411.873 115.794C411.17 115.457 410.715 115.076 410.51 114.665ZM405.468 118.843H408.37V120.177H402.331V121.115H408.37V122.83H404.969V121.672H403.943V124.325H404.969V123.754H412.768V124.325H413.794V121.643H412.768V122.83H409.411V121.115H414.996V120.177H409.411V118.843H413.105V117.905H406.142C406.303 117.641 406.464 117.348 406.611 117.04L405.629 116.835C405.218 117.714 404.574 118.521 403.665 119.253L404.515 119.796C404.852 119.503 405.174 119.18 405.468 118.843Z" fill="#969696"/>
<path d="M399.165 176.687H389.314V180.968H390.355V180.249H398.124V180.968H399.165V176.687ZM390.355 179.311V177.596H398.124V179.311H390.355ZM389.314 171.278V175.544H400.103V174.65H395.412V173.55H399.252V172.715H395.412V171.689H399.223V170.853H395.412V169.783H399.868V168.904H395.603C395.397 168.347 395.177 167.834 394.943 167.379L393.858 167.555C394.122 167.966 394.357 168.405 394.576 168.904H390.941C391.161 168.479 391.352 168.054 391.528 167.614L390.501 167.409C389.871 169.05 388.786 170.575 387.262 171.967L387.584 173.008C388.215 172.466 388.786 171.894 389.314 171.278ZM394.371 174.65H390.326V173.55H394.371V174.65ZM394.371 172.715H390.326V171.689H394.371V172.715ZM394.371 170.853H390.326V169.944C390.355 169.886 390.384 169.842 390.428 169.783H394.371V170.853ZM402.213 168.244V169.006H405.248V169.695H402.902V170.399H408.355V169.695H406.274V169.006H408.751V168.244H406.274V167.526H405.248V168.244H402.213ZM405.394 171.659V172.51H403.87C403.899 172.334 403.914 172.143 403.914 171.967V171.659H405.394ZM406.186 172.51V171.659H407.476V172.51H406.186ZM403.738 173.14H408.37V171.015H402.976V171.967C402.961 172.905 402.624 173.668 401.979 174.283L402.668 174.914C403.181 174.401 403.533 173.814 403.738 173.14ZM409.938 167.746C409.938 168.303 409.88 168.713 409.763 168.977C409.616 169.241 409.367 169.505 408.986 169.783L409.587 170.326C410.026 170.076 410.334 169.813 410.525 169.519C410.671 169.241 410.759 168.904 410.759 168.508H412.636V169.094C412.636 169.695 412.929 170.003 413.515 170.003H414.834V169.241H413.735C413.544 169.241 413.457 169.124 413.457 168.918V167.746H409.938ZM414.439 170.443H409.132V171.205H409.704C409.938 171.747 410.378 172.246 411.023 172.686C410.364 172.905 409.601 173.096 408.722 173.243L409.118 174.005C410.173 173.8 411.097 173.521 411.888 173.169C412.65 173.521 413.618 173.829 414.805 174.093L415.216 173.316C414.277 173.125 413.471 172.92 412.797 172.7C413.544 172.231 414.087 171.674 414.439 171.029V170.443ZM410.51 171.205H413.413C413.061 171.645 412.548 172.011 411.873 172.334C411.17 171.997 410.715 171.616 410.51 171.205ZM405.468 175.383H408.37V176.717H402.331V177.655H408.37V179.37H404.969V178.212H403.943V180.865H404.969V180.293H412.768V180.865H413.794V178.182H412.768V179.37H409.411V177.655H414.996V176.717H409.411V175.383H413.105V174.445H406.142C406.303 174.181 406.464 173.888 406.611 173.58L405.629 173.375C405.218 174.254 404.574 175.06 403.665 175.793L404.515 176.336C404.852 176.042 405.174 175.72 405.468 175.383Z" fill="#969696"/>
<path d="M397.482 89.673C396.075 89.673 394.986 90.2593 394.215 91.4487C393.512 92.5376 393.16 94.0119 393.16 95.8881C393.16 97.7477 393.512 99.2219 394.215 100.328C394.986 101.5 396.075 102.103 397.482 102.103C398.889 102.103 399.978 101.5 400.749 100.328C401.452 99.2219 401.804 97.7309 401.804 95.8881C401.804 94.0286 401.452 92.5544 400.749 91.4487C399.978 90.2593 398.889 89.673 397.482 89.673ZM397.482 91.2142C398.454 91.2142 399.157 91.7503 399.559 92.8392C399.844 93.5763 399.995 94.5982 399.995 95.8881C399.995 97.1613 399.844 98.1832 399.559 98.9371C399.157 100.009 398.454 100.562 397.482 100.562C396.494 100.562 395.807 100.009 395.405 98.9371C395.103 98.1832 394.969 97.1613 394.969 95.8881C394.969 94.5982 395.103 93.5763 395.405 92.8392C395.807 91.7503 396.494 91.2142 397.482 91.2142ZM408.733 89.9075L402.836 97.5466V99.2721H408.666V101.869H410.408V99.2721H412.218V97.8147H410.408V89.9075H408.733ZM408.616 92.2193H408.666V97.8147H404.327L408.616 92.2193Z" fill="#797979"/>
<path d="M342.453 146.447C342.051 146.883 341.549 147.268 340.946 147.637C340.343 147.972 339.79 148.206 339.254 148.34V150.149C340.359 149.831 341.281 149.329 342.001 148.642V158.408H343.827V146.447H342.453ZM350.431 146.213C349.024 146.213 347.935 146.799 347.164 147.988C346.461 149.077 346.109 150.552 346.109 152.428C346.109 154.287 346.461 155.762 347.164 156.867C347.935 158.04 349.024 158.643 350.431 158.643C351.838 158.643 352.927 158.04 353.698 156.867C354.401 155.762 354.753 154.271 354.753 152.428C354.753 150.568 354.401 149.094 353.698 147.988C352.927 146.799 351.838 146.213 350.431 146.213ZM350.431 147.754C351.403 147.754 352.106 148.29 352.508 149.379C352.793 150.116 352.944 151.138 352.944 152.428C352.944 153.701 352.793 154.723 352.508 155.477C352.106 156.549 351.403 157.102 350.431 157.102C349.443 157.102 348.756 156.549 348.354 155.477C348.052 154.723 347.918 153.701 347.918 152.428C347.918 151.138 348.052 150.116 348.354 149.379C348.756 148.29 349.443 147.754 350.431 147.754Z" fill="#555555"/>
<path d="M231.004 146.213C229.597 146.213 228.508 146.799 227.738 147.988C227.034 149.077 226.682 150.552 226.682 152.428C226.682 154.287 227.034 155.762 227.738 156.867C228.508 158.04 229.597 158.643 231.004 158.643C232.411 158.643 233.5 158.04 234.271 156.867C234.975 155.762 235.326 154.271 235.326 152.428C235.326 150.568 234.975 149.094 234.271 147.988C233.5 146.799 232.411 146.213 231.004 146.213ZM231.004 147.754C231.976 147.754 232.68 148.29 233.082 149.379C233.366 150.116 233.517 151.138 233.517 152.428C233.517 153.701 233.366 154.723 233.082 155.477C232.68 156.549 231.976 157.102 231.004 157.102C230.016 157.102 229.329 156.549 228.927 155.477C228.625 154.723 228.491 153.701 228.491 152.428C228.491 151.138 228.625 150.116 228.927 149.379C229.329 148.29 230.016 147.754 231.004 147.754ZM241.049 146.213C239.776 146.213 238.754 146.548 238.017 147.218C237.347 147.821 237.012 148.575 237.012 149.463C237.012 150.082 237.146 150.602 237.414 151.021C237.715 151.473 238.168 151.808 238.771 152.043V152.093C238.185 152.227 237.699 152.562 237.297 153.098C236.828 153.667 236.593 154.321 236.593 155.075C236.593 156.13 236.978 156.984 237.749 157.655C238.52 158.308 239.625 158.643 241.049 158.643C242.456 158.643 243.562 158.308 244.349 157.655C245.12 156.984 245.505 156.13 245.505 155.075C245.505 154.321 245.271 153.667 244.802 153.098C244.4 152.562 243.897 152.227 243.328 152.093V152.043C243.931 151.808 244.383 151.473 244.685 151.021C244.953 150.602 245.087 150.082 245.087 149.463C245.087 148.575 244.752 147.821 244.081 147.218C243.328 146.548 242.322 146.213 241.049 146.213ZM241.049 147.67C241.786 147.67 242.373 147.854 242.808 148.256C243.177 148.591 243.378 149.027 243.378 149.53C243.378 150.099 243.21 150.552 242.909 150.887C242.507 151.289 241.887 151.49 241.049 151.49C240.195 151.49 239.575 151.289 239.19 150.887C238.871 150.552 238.721 150.099 238.721 149.53C238.721 149.027 238.905 148.591 239.29 148.256C239.726 147.854 240.312 147.67 241.049 147.67ZM241.049 152.847C241.92 152.847 242.574 153.064 243.043 153.5C243.478 153.885 243.696 154.405 243.696 155.075C243.696 155.695 243.478 156.197 243.043 156.582C242.557 156.968 241.887 157.169 241.049 157.169C240.195 157.169 239.542 156.968 239.089 156.582C238.62 156.197 238.402 155.695 238.402 155.075C238.402 154.405 238.62 153.885 239.072 153.483C239.508 153.048 240.178 152.847 241.049 152.847Z" fill="#555555"/>
<path d="M120.019 146.213C118.612 146.213 117.523 146.799 116.752 147.988C116.049 149.077 115.697 150.552 115.697 152.428C115.697 154.287 116.049 155.762 116.752 156.867C117.523 158.04 118.612 158.643 120.019 158.643C121.426 158.643 122.515 158.04 123.286 156.867C123.99 155.762 124.341 154.271 124.341 152.428C124.341 150.568 123.99 149.094 123.286 147.988C122.515 146.799 121.426 146.213 120.019 146.213ZM120.019 147.754C120.991 147.754 121.694 148.29 122.096 149.379C122.381 150.116 122.532 151.138 122.532 152.428C122.532 153.701 122.381 154.723 122.096 155.477C121.694 156.549 120.991 157.102 120.019 157.102C119.031 157.102 118.344 156.549 117.942 155.477C117.64 154.723 117.506 153.701 117.506 152.428C117.506 151.138 117.64 150.116 117.942 149.379C118.344 148.29 119.031 147.754 120.019 147.754ZM130.232 146.213C128.858 146.213 127.752 146.816 126.948 148.039C126.144 149.245 125.759 150.82 125.759 152.763C125.759 154.589 126.127 156.013 126.864 157.035C127.635 158.107 128.741 158.643 130.215 158.643C131.388 158.643 132.393 158.241 133.197 157.47C133.984 156.7 134.386 155.711 134.386 154.522C134.386 153.349 134.034 152.378 133.348 151.624C132.644 150.887 131.706 150.518 130.533 150.518C129.897 150.518 129.344 150.635 128.875 150.887C128.355 151.138 127.937 151.523 127.602 152.059H127.534C127.518 151.959 127.518 151.892 127.518 151.841C127.518 150.669 127.752 149.714 128.238 148.943C128.724 148.122 129.377 147.72 130.215 147.72C131.421 147.72 132.141 148.29 132.393 149.463H134.168C133.867 147.285 132.543 146.213 130.232 146.213ZM130.165 151.992C130.902 151.992 131.505 152.227 131.94 152.696C132.376 153.131 132.594 153.751 132.594 154.522C132.594 155.276 132.359 155.896 131.907 156.398C131.471 156.884 130.885 157.135 130.148 157.135C129.428 157.135 128.841 156.901 128.406 156.432C127.953 155.963 127.736 155.343 127.736 154.572C127.736 153.785 127.953 153.165 128.389 152.696C128.824 152.227 129.411 151.992 130.165 151.992Z" fill="#555555"/>
<path d="M64.5265 146.213C63.1193 146.213 62.0304 146.799 61.2598 147.988C60.5562 149.077 60.2044 150.552 60.2044 152.428C60.2044 154.287 60.5562 155.762 61.2598 156.867C62.0304 158.04 63.1193 158.643 64.5265 158.643C65.9337 158.643 67.0226 158.04 67.7932 156.867C68.4968 155.762 68.8486 154.271 68.8486 152.428C68.8486 150.568 68.4968 149.094 67.7932 147.988C67.0226 146.799 65.9337 146.213 64.5265 146.213ZM64.5265 147.754C65.4981 147.754 66.2017 148.29 66.6038 149.379C66.8886 150.116 67.0394 151.138 67.0394 152.428C67.0394 153.701 66.8886 154.723 66.6038 155.477C66.2017 156.549 65.4981 157.102 64.5265 157.102C63.5381 157.102 62.8513 156.549 62.4492 155.477C62.1476 154.723 62.0136 153.701 62.0136 152.428C62.0136 151.138 62.1476 150.116 62.4492 149.379C62.8513 148.29 63.5381 147.754 64.5265 147.754ZM71.1372 146.447L70.4838 153.148H72.1926C72.4271 152.713 72.7454 152.394 73.181 152.193C73.583 151.992 74.0354 151.908 74.5714 151.908C75.3756 151.908 75.9787 152.143 76.4142 152.612C76.8498 153.081 77.0676 153.735 77.0676 154.572C77.0676 155.343 76.8163 155.946 76.3137 156.415C75.8111 156.867 75.1913 157.102 74.4542 157.102C73.7841 157.102 73.248 156.951 72.8459 156.649C72.3936 156.314 72.1256 155.795 72.0586 155.125H70.2661C70.3498 156.231 70.8189 157.119 71.6733 157.755C72.4439 158.341 73.3653 158.643 74.4374 158.643C75.6268 158.643 76.6488 158.291 77.5031 157.588C78.4078 156.8 78.8768 155.795 78.8768 154.555C78.8768 153.265 78.5083 152.26 77.8047 151.523C77.1011 150.786 76.1797 150.418 75.0573 150.418C74.5212 150.418 74.0186 150.501 73.583 150.686C73.0972 150.853 72.6784 151.121 72.3099 151.506H72.2596L72.6114 148.055H78.3408V146.447H71.1372Z" fill="#555555"/>
<path d="M399.549 146.447C399.147 146.883 398.645 147.268 398.042 147.637C397.439 147.972 396.886 148.206 396.35 148.34V150.149C397.455 149.831 398.377 149.329 399.097 148.642V158.408H400.923V146.447H399.549ZM406.388 146.447C405.986 146.883 405.483 147.268 404.88 147.637C404.277 147.972 403.724 148.206 403.188 148.34V150.149C404.294 149.831 405.215 149.329 405.936 148.642V158.408H407.762V146.447H406.388Z" fill="#797979"/>
<path d="M286.497 146.213C285.09 146.213 284.001 146.799 283.23 147.988C282.527 149.077 282.175 150.552 282.175 152.428C282.175 154.287 282.527 155.762 283.23 156.867C284.001 158.04 285.09 158.643 286.497 158.643C287.904 158.643 288.993 158.04 289.764 156.867C290.467 155.762 290.819 154.271 290.819 152.428C290.819 150.568 290.467 149.094 289.764 147.988C288.993 146.799 287.904 146.213 286.497 146.213ZM286.497 147.754C287.469 147.754 288.172 148.29 288.574 149.379C288.859 150.116 289.01 151.138 289.01 152.428C289.01 153.701 288.859 154.723 288.574 155.477C288.172 156.549 287.469 157.102 286.497 157.102C285.509 157.102 284.822 156.549 284.42 155.477C284.118 154.723 283.984 153.701 283.984 152.428C283.984 151.138 284.118 150.116 284.42 149.379C284.822 148.29 285.509 147.754 286.497 147.754ZM296.408 146.213C295.218 146.213 294.23 146.598 293.426 147.385C292.622 148.156 292.237 149.128 292.237 150.334C292.237 151.506 292.572 152.461 293.258 153.198C293.962 153.952 294.917 154.338 296.09 154.338C296.709 154.338 297.262 154.204 297.748 153.969C298.251 153.701 298.686 153.316 299.021 152.796H299.088C299.088 152.88 299.105 152.947 299.105 153.014C299.105 154.17 298.854 155.142 298.385 155.912C297.882 156.716 297.229 157.135 296.408 157.135C295.202 157.135 294.465 156.549 294.23 155.393H292.454C292.756 157.554 294.063 158.643 296.391 158.643C297.765 158.643 298.854 158.023 299.675 156.817C300.462 155.611 300.864 154.036 300.864 152.093C300.864 150.25 300.479 148.826 299.742 147.804C298.971 146.732 297.865 146.213 296.408 146.213ZM296.475 147.72C297.178 147.72 297.765 147.955 298.217 148.424C298.653 148.876 298.887 149.496 298.887 150.283C298.887 151.054 298.669 151.691 298.234 152.16C297.798 152.629 297.195 152.863 296.458 152.863C295.704 152.863 295.118 152.629 294.699 152.16C294.247 151.707 294.029 151.104 294.029 150.334C294.029 149.563 294.247 148.943 294.699 148.457C295.135 147.955 295.738 147.72 296.475 147.72Z" fill="#555555"/>
<path d="M175.921 146.213C174.514 146.213 173.425 146.799 172.654 147.988C171.951 149.077 171.599 150.552 171.599 152.428C171.599 154.287 171.951 155.762 172.654 156.867C173.425 158.04 174.514 158.643 175.921 158.643C177.328 158.643 178.417 158.04 179.188 156.867C179.891 155.762 180.243 154.271 180.243 152.428C180.243 150.568 179.891 149.094 179.188 147.988C178.417 146.799 177.328 146.213 175.921 146.213ZM175.921 147.754C176.892 147.754 177.596 148.29 177.998 149.379C178.283 150.116 178.434 151.138 178.434 152.428C178.434 153.701 178.283 154.723 177.998 155.477C177.596 156.549 176.892 157.102 175.921 157.102C174.932 157.102 174.246 156.549 173.844 155.477C173.542 154.723 173.408 153.701 173.408 152.428C173.408 151.138 173.542 150.116 173.844 149.379C174.246 148.29 174.932 147.754 175.921 147.754ZM181.459 146.447V148.106H187.658L183.319 158.408H185.262L189.501 147.921V146.447H181.459Z" fill="#555555"/>
<rect x="54.3638" y="207.418" width="363.319" height="23.0347" rx="4.18812" fill="#ECF3FA"/>
<rect x="54.3638" y="255.582" width="363.319" height="23.0347" rx="4.18812" fill="#ECF3FA"/>
<rect x="54.3638" y="303.745" width="141.349" height="23.0347" rx="4.18812" fill="#ECF3FA"/>
<rect x="267.958" y="74.4456" width="47.1163" height="58.6337" rx="4" fill="#3480F3"/>
<path d="M286.497 89.673C285.09 89.673 284.001 90.2426 283.23 91.4152C282.493 92.5209 282.125 94.0119 282.125 95.8881C282.125 97.7644 282.493 99.2554 283.23 100.361C284.001 101.517 285.09 102.103 286.497 102.103C287.887 102.103 288.976 101.517 289.764 100.361C290.501 99.2554 290.869 97.7644 290.869 95.8881C290.869 94.0119 290.501 92.5209 289.764 91.4152C288.976 90.2426 287.887 89.673 286.497 89.673ZM286.497 91.3315C287.435 91.3315 288.105 91.8508 288.507 92.923C288.775 93.6433 288.909 94.6317 288.909 95.8881C288.909 97.1278 288.775 98.1162 288.507 98.8533C288.105 99.9087 287.435 100.445 286.497 100.445C285.542 100.445 284.872 99.9087 284.487 98.8533C284.219 98.1162 284.085 97.1278 284.085 95.8881C284.085 94.6317 284.219 93.6433 284.487 92.923C284.872 91.8508 285.542 91.3315 286.497 91.3315ZM296.726 89.673C295.436 89.673 294.398 90.1085 293.61 90.9797C292.84 91.8005 292.454 92.8727 292.438 94.2129H294.398C294.431 93.2748 294.632 92.5544 295.001 92.0853C295.369 91.5828 295.922 91.3315 296.659 91.3315C297.346 91.3315 297.865 91.4822 298.217 91.8005C298.552 92.1188 298.736 92.6047 298.736 93.258C298.736 93.9281 298.468 94.5647 297.949 95.151C297.614 95.5028 297.078 95.9552 296.307 96.4912C294.917 97.4461 293.996 98.1832 293.56 98.6858C292.756 99.5904 292.371 100.646 292.371 101.869H300.713V100.143H294.816C295.084 99.5402 295.822 98.8366 297.044 98.0325C298.217 97.2451 299.055 96.6085 299.524 96.1059C300.294 95.2515 300.697 94.3134 300.697 93.2748C300.697 92.2026 300.328 91.3482 299.591 90.6781C298.837 90.008 297.882 89.673 296.726 89.673Z" fill="#FEFEFE"/>
<path d="M279.956 114.326C278.842 114.326 277.933 114.693 277.259 115.455C276.6 116.159 276.262 117.097 276.248 118.269H277.845C277.875 117.419 278.051 116.789 278.403 116.349C278.74 115.895 279.238 115.675 279.898 115.675C280.513 115.675 280.997 115.821 281.32 116.115C281.642 116.408 281.803 116.847 281.803 117.434C281.803 118.049 281.554 118.621 281.085 119.149C280.792 119.457 280.293 119.852 279.59 120.351C278.403 121.172 277.611 121.802 277.23 122.256C276.526 123.048 276.189 123.957 276.189 124.998H283.401V123.59H278.168C278.388 123.019 279.062 122.359 280.191 121.611C281.232 120.908 281.95 120.351 282.36 119.926C283.035 119.178 283.386 118.357 283.386 117.448C283.386 116.525 283.064 115.777 282.434 115.191C281.789 114.605 280.953 114.326 279.956 114.326ZM288.584 114.326C287.353 114.326 286.4 114.839 285.726 115.88C285.11 116.833 284.803 118.123 284.803 119.765C284.803 121.392 285.11 122.682 285.726 123.649C286.4 124.675 287.353 125.203 288.584 125.203C289.816 125.203 290.768 124.675 291.443 123.649C292.058 122.682 292.366 121.377 292.366 119.765C292.366 118.137 292.058 116.847 291.443 115.88C290.768 114.839 289.816 114.326 288.584 114.326ZM288.584 115.675C289.435 115.675 290.05 116.144 290.402 117.097C290.651 117.742 290.783 118.636 290.783 119.765C290.783 120.879 290.651 121.773 290.402 122.432C290.05 123.37 289.435 123.854 288.584 123.854C287.72 123.854 287.119 123.37 286.767 122.432C286.503 121.773 286.386 120.879 286.386 119.765C286.386 118.636 286.503 117.742 286.767 117.097C287.119 116.144 287.72 115.675 288.584 115.675ZM296.655 112.86C295.952 115.118 294.867 117.097 293.401 118.797L293.856 120.278C294.31 119.794 294.75 119.295 295.16 118.768V126.507H296.524V116.745C297.11 115.719 297.594 114.619 297.96 113.461L296.655 112.86ZM299.118 113.916C298.825 115.792 298.239 117.39 297.388 118.694L298.283 119.852C298.81 119.09 299.25 118.255 299.616 117.331H301.83V120.483H297.667V121.831H301.83V126.449H303.222V121.831H307.004V120.483H303.222V117.331H306.462V115.968H303.222V113.036H301.83V115.968H300.071C300.232 115.382 300.364 114.751 300.481 114.092L299.118 113.916Z" fill="white"/>
</g>
<defs>
<filter id="filter0_d" x="0" y="0" width="471" height="386.191" filterUnits="userSpaceOnUse" color-interpolation-filters="sRGB">
<feFlood flood-opacity="0" result="BackgroundImageFix"/>
<feColorMatrix in="SourceAlpha" type="matrix" values="0 0 0 0 0 0 0 0 0 0 0 0 0 0 0 0 0 0 127 0"/>
<feOffset dy="4"/>
<feGaussianBlur stdDeviation="12"/>
<feColorMatrix type="matrix" values="0 0 0 0 0.135086 0 0 0 0 0.204976 0 0 0 0 0.340522 0 0 0 0.08 0"/>
<feBlend mode="normal" in2="BackgroundImageFix" result="effect1_dropShadow"/>
<feBlend mode="normal" in="SourceGraphic" in2="effect1_dropShadow" result="shape"/>
</filter>
</defs>
</svg>
