<svg width="497" height="292" viewBox="0 0 497 292" fill="none" xmlns="http://www.w3.org/2000/svg">
<g filter="url(#filter0_d)">
<rect x="24" y="20" width="449" height="131" rx="6" fill="white"/>
<rect x="38.5" y="116.5" width="191" height="147" rx="3.5" fill="white" stroke="#F1F2F6"/>
<path d="M57.838 174.122H53.134V182.914H54.044V175.06H56.942V182.914H57.838V174.122ZM59.826 173.52C59.49 175.312 58.846 176.81 57.894 178.042L58.51 178.84C59.07 178.154 59.532 177.384 59.91 176.544H63.956C63.928 180.87 63.858 183.446 63.746 184.272C63.634 185 63.27 185.364 62.654 185.364C62.066 185.364 61.394 185.336 60.61 185.308L60.848 186.218C61.772 186.246 62.43 186.26 62.808 186.26C63.928 186.26 64.572 185.686 64.712 184.538C64.852 183.418 64.936 180.436 64.936 175.564H60.302C60.498 174.962 60.666 174.318 60.806 173.646L59.826 173.52ZM61.982 179.722L61.212 180.1C61.45 180.674 61.688 181.304 61.912 181.976C61.184 182.158 60.4 182.298 59.574 182.41C60.148 181.346 60.736 179.904 61.338 178.084L60.428 177.79C59.63 180.506 58.958 182.074 58.426 182.494L58.594 183.362C59.896 183.222 61.086 183.04 62.178 182.788C62.276 183.096 62.374 183.432 62.486 183.796L63.312 183.376C62.892 182.06 62.458 180.842 61.982 179.722ZM55.066 176.082V180.674C55.038 181.934 54.856 182.97 54.52 183.754C54.156 184.51 53.526 185.112 52.63 185.574L53.162 186.414C54.114 185.924 54.8 185.252 55.22 184.384C55.654 183.46 55.878 182.228 55.906 180.674V176.082H55.066ZM56.48 183.334L55.836 183.964C56.648 184.804 57.278 185.588 57.726 186.316L58.454 185.602C57.922 184.846 57.264 184.09 56.48 183.334ZM68.436 178.014L67.946 178.728C68.94 179.12 69.906 179.68 70.844 180.38L71.362 179.568C70.48 178.966 69.5 178.448 68.436 178.014ZM69.724 176.054L69.248 176.768C70.228 177.16 71.166 177.72 72.09 178.42L72.608 177.622C71.74 177.006 70.788 176.488 69.724 176.054ZM73.588 176.054V178.994C73.56 179.75 73.448 180.464 73.252 181.108H67.288V182.088H72.846C72.678 182.438 72.468 182.76 72.216 183.068C71.292 184.062 69.682 184.86 67.358 185.462L67.932 186.358C70.242 185.742 71.908 184.874 72.93 183.768C73 183.684 73.07 183.586 73.154 183.488C75.002 184.342 76.78 185.322 78.516 186.428L79.202 185.672C77.536 184.622 75.688 183.642 73.658 182.732C73.77 182.536 73.868 182.312 73.966 182.088H79.51V181.108H74.302C74.456 180.464 74.554 179.764 74.582 178.994V176.054H73.588ZM67.82 174.388V175.326H77.438C77.242 176.026 77.004 176.67 76.71 177.244L77.662 177.51C77.998 176.684 78.278 175.858 78.488 175.018V174.388H67.82ZM83.752 178.504H93.832V177.524H83.752V175.564C87.168 175.48 90.248 175.172 92.992 174.612L92.488 173.702C89.604 174.304 86.37 174.626 82.758 174.668V178.868C82.674 181.724 82.128 183.964 81.106 185.588L81.848 186.358C83.024 184.496 83.668 182.004 83.752 178.868V178.504ZM92.726 180.464H85.04V186.4H86.048V185.742H91.718V186.4H92.726V180.464ZM86.048 184.762V181.43H91.718V184.762H86.048ZM96.31 175.004L95.778 180.52H96.87C97.066 180.128 97.374 179.82 97.766 179.624C98.144 179.414 98.564 179.316 99.04 179.316C99.768 179.316 100.342 179.526 100.748 179.974C101.168 180.408 101.392 181.024 101.392 181.822C101.392 182.522 101.154 183.096 100.706 183.544C100.244 183.992 99.67 184.216 98.97 184.216C98.354 184.216 97.836 184.062 97.444 183.768C96.996 183.432 96.744 182.942 96.688 182.312H95.554C95.624 183.222 96.002 183.95 96.702 184.482C97.318 184.958 98.074 185.196 98.956 185.196C99.936 185.196 100.776 184.888 101.448 184.286C102.162 183.642 102.526 182.816 102.526 181.808C102.526 180.73 102.218 179.89 101.63 179.274C101.042 178.672 100.272 178.378 99.32 178.378C98.858 178.378 98.438 178.448 98.046 178.616C97.612 178.784 97.248 179.036 96.968 179.372H96.912L97.248 176.026H102.12V175.004H96.31ZM104.621 178.518V179.484H109.493C109.255 180.408 108.961 181.178 108.597 181.794C107.715 183.278 106.231 184.552 104.145 185.616L104.775 186.442C107.015 185.252 108.597 183.824 109.549 182.172C109.913 181.528 110.207 180.716 110.445 179.764C111.439 182.648 113.371 184.874 116.255 186.442L116.885 185.63C114.141 184.202 112.279 182.144 111.299 179.484H116.451V178.518H110.711C110.879 177.566 110.991 176.502 111.075 175.298H116.045V174.318H104.985V175.298H110.053C109.983 176.488 109.871 177.566 109.703 178.518H104.621ZM124.753 179.302C126.069 180.646 127.147 181.92 127.959 183.124L128.715 182.354C127.721 181.024 126.503 179.666 125.047 178.294C125.159 177.832 125.243 177.328 125.313 176.796H129.317V184.608C129.317 185.056 129.093 185.294 128.645 185.294L126.503 185.238L126.783 186.246H128.981C129.877 186.246 130.339 185.77 130.339 184.832V175.816H125.425C125.481 175.116 125.523 174.346 125.523 173.52H124.501C124.501 174.332 124.459 175.102 124.389 175.816H119.265V186.386H120.287V176.796H124.277C124.179 177.44 124.053 178.028 123.899 178.574C123.395 180.128 122.359 181.416 120.791 182.452L121.463 183.278C123.087 182.214 124.179 180.898 124.753 179.302Z" fill="#333333"/>
<path d="M57.838 214.122H53.134V222.914H54.044V215.06H56.942V222.914H57.838V214.122ZM59.826 213.52C59.49 215.312 58.846 216.81 57.894 218.042L58.51 218.84C59.07 218.154 59.532 217.384 59.91 216.544H63.956C63.928 220.87 63.858 223.446 63.746 224.272C63.634 225 63.27 225.364 62.654 225.364C62.066 225.364 61.394 225.336 60.61 225.308L60.848 226.218C61.772 226.246 62.43 226.26 62.808 226.26C63.928 226.26 64.572 225.686 64.712 224.538C64.852 223.418 64.936 220.436 64.936 215.564H60.302C60.498 214.962 60.666 214.318 60.806 213.646L59.826 213.52ZM61.982 219.722L61.212 220.1C61.45 220.674 61.688 221.304 61.912 221.976C61.184 222.158 60.4 222.298 59.574 222.41C60.148 221.346 60.736 219.904 61.338 218.084L60.428 217.79C59.63 220.506 58.958 222.074 58.426 222.494L58.594 223.362C59.896 223.222 61.086 223.04 62.178 222.788C62.276 223.096 62.374 223.432 62.486 223.796L63.312 223.376C62.892 222.06 62.458 220.842 61.982 219.722ZM55.066 216.082V220.674C55.038 221.934 54.856 222.97 54.52 223.754C54.156 224.51 53.526 225.112 52.63 225.574L53.162 226.414C54.114 225.924 54.8 225.252 55.22 224.384C55.654 223.46 55.878 222.228 55.906 220.674V216.082H55.066ZM56.48 223.334L55.836 223.964C56.648 224.804 57.278 225.588 57.726 226.316L58.454 225.602C57.922 224.846 57.264 224.09 56.48 223.334ZM68.436 218.014L67.946 218.728C68.94 219.12 69.906 219.68 70.844 220.38L71.362 219.568C70.48 218.966 69.5 218.448 68.436 218.014ZM69.724 216.054L69.248 216.768C70.228 217.16 71.166 217.72 72.09 218.42L72.608 217.622C71.74 217.006 70.788 216.488 69.724 216.054ZM73.588 216.054V218.994C73.56 219.75 73.448 220.464 73.252 221.108H67.288V222.088H72.846C72.678 222.438 72.468 222.76 72.216 223.068C71.292 224.062 69.682 224.86 67.358 225.462L67.932 226.358C70.242 225.742 71.908 224.874 72.93 223.768C73 223.684 73.07 223.586 73.154 223.488C75.002 224.342 76.78 225.322 78.516 226.428L79.202 225.672C77.536 224.622 75.688 223.642 73.658 222.732C73.77 222.536 73.868 222.312 73.966 222.088H79.51V221.108H74.302C74.456 220.464 74.554 219.764 74.582 218.994V216.054H73.588ZM67.82 214.388V215.326H77.438C77.242 216.026 77.004 216.67 76.71 217.244L77.662 217.51C77.998 216.684 78.278 215.858 78.488 215.018V214.388H67.82ZM83.752 218.504H93.832V217.524H83.752V215.564C87.168 215.48 90.248 215.172 92.992 214.612L92.488 213.702C89.604 214.304 86.37 214.626 82.758 214.668V218.868C82.674 221.724 82.128 223.964 81.106 225.588L81.848 226.358C83.024 224.496 83.668 222.004 83.752 218.868V218.504ZM92.726 220.464H85.04V226.4H86.048V225.742H91.718V226.4H92.726V220.464ZM86.048 224.762V221.43H91.718V224.762H86.048ZM95.316 215.004V216.054H100.706L96.982 225H98.2L101.882 215.942V215.004H95.316ZM103.882 218.518V219.484H108.754C108.516 220.408 108.222 221.178 107.858 221.794C106.976 223.278 105.492 224.552 103.406 225.616L104.036 226.442C106.276 225.252 107.858 223.824 108.81 222.172C109.174 221.528 109.468 220.716 109.706 219.764C110.7 222.648 112.632 224.874 115.516 226.442L116.146 225.63C113.402 224.202 111.54 222.144 110.56 219.484H115.712V218.518H109.972C110.14 217.566 110.252 216.502 110.336 215.298H115.306V214.318H104.246V215.298H109.314C109.244 216.488 109.132 217.566 108.964 218.518H103.882ZM124.014 219.302C125.33 220.646 126.408 221.92 127.22 223.124L127.976 222.354C126.982 221.024 125.764 219.666 124.308 218.294C124.42 217.832 124.504 217.328 124.574 216.796H128.578V224.608C128.578 225.056 128.354 225.294 127.906 225.294L125.764 225.238L126.044 226.246H128.242C129.138 226.246 129.6 225.77 129.6 224.832V215.816H124.686C124.742 215.116 124.784 214.346 124.784 213.52H123.762C123.762 214.332 123.72 215.102 123.65 215.816H118.526V226.386H119.548V216.796H123.538C123.44 217.44 123.314 218.028 123.16 218.574C122.656 220.128 121.62 221.416 120.052 222.452L120.724 223.278C122.348 222.214 123.44 220.898 124.014 219.302Z" fill="#333333"/>
<rect x="39" y="123" width="190" height="34" fill="#F1F2F6"/>
<path d="M57.978 133.996H53.008V142.914H54.198V135.214H56.802V142.914H57.978V138.14L58.622 138.966C59.154 138.294 59.616 137.538 60.008 136.712H63.718C63.69 140.912 63.648 143.362 63.564 144.09C63.48 144.79 63.186 145.14 62.696 145.14C62.08 145.14 61.366 145.112 60.554 145.07L60.862 146.26C61.828 146.288 62.5 146.316 62.892 146.316C64.04 146.316 64.67 145.728 64.81 144.58C64.95 143.432 65.02 140.38 65.02 135.424H60.512C60.694 134.864 60.848 134.262 60.96 133.646L59.672 133.478C59.364 135.102 58.804 136.502 57.978 137.678V133.996ZM62.164 139.708L61.156 140.198C61.352 140.702 61.534 141.248 61.716 141.836C61.128 141.976 60.498 142.088 59.84 142.158C60.372 141.066 60.918 139.736 61.45 138.154L60.246 137.748C59.448 140.534 58.818 142.046 58.37 142.27L58.58 143.418C59.826 143.292 60.974 143.11 62.038 142.886C62.122 143.194 62.22 143.516 62.304 143.852L63.382 143.306C62.99 142.004 62.584 140.8 62.164 139.708ZM54.94 136.096V140.688C54.898 141.892 54.716 142.872 54.408 143.628C54.086 144.328 53.47 144.902 52.574 145.364L53.274 146.47C54.226 145.994 54.912 145.308 55.332 144.44C55.766 143.516 56.004 142.256 56.032 140.688V136.096H54.94ZM56.634 143.264L55.794 144.09C56.578 144.902 57.194 145.658 57.614 146.358L58.58 145.42C58.048 144.706 57.39 143.992 56.634 143.264ZM68.52 137.888L67.89 138.826C68.87 139.218 69.808 139.764 70.732 140.464L71.418 139.414C70.55 138.826 69.584 138.308 68.52 137.888ZM69.78 135.984L69.15 136.908C70.158 137.3 71.124 137.832 72.062 138.504L72.748 137.454C71.852 136.88 70.872 136.39 69.78 135.984ZM73.434 136.124V139.092C73.392 139.764 73.28 140.38 73.112 140.954H67.246V142.242H72.552C72.412 142.48 72.244 142.718 72.062 142.942C71.222 143.866 69.626 144.622 67.302 145.224L68.058 146.4C70.354 145.798 72.02 144.944 73.042 143.838C73.07 143.81 73.098 143.768 73.126 143.726C74.918 144.538 76.654 145.462 78.362 146.526L79.272 145.504C77.62 144.524 75.8 143.6 73.798 142.76C73.882 142.592 73.98 142.424 74.064 142.242H79.552V140.954H74.498C74.624 140.394 74.708 139.764 74.736 139.092V136.124H73.434ZM67.736 134.248V135.48H77.2C77.004 136.11 76.78 136.684 76.514 137.188L77.76 137.538C78.082 136.726 78.348 135.9 78.558 135.074V134.248H67.736ZM83.906 138.686H93.846V137.398H83.906V135.718C87.294 135.634 90.36 135.326 93.09 134.808L92.432 133.604C89.548 134.178 86.258 134.486 82.59 134.514V138.868C82.52 141.64 82.002 143.81 81.05 145.378L82.03 146.414C83.192 144.538 83.822 142.032 83.906 138.868V138.686ZM92.796 140.338H84.97V146.442H86.3V145.882H91.466V146.442H92.796V140.338ZM86.3 144.58V141.612H91.466V144.58H86.3ZM99.138 134.808C98.158 134.808 97.36 135.074 96.744 135.634C96.086 136.194 95.722 136.964 95.638 137.958H97.136C97.192 137.342 97.402 136.88 97.738 136.572C98.074 136.264 98.55 136.11 99.152 136.11C99.74 136.11 100.202 136.236 100.51 136.516C100.79 136.782 100.944 137.16 100.944 137.664C100.944 138.168 100.776 138.56 100.468 138.826C100.16 139.092 99.698 139.232 99.082 139.232H98.368V140.38H99.096C99.754 140.38 100.258 140.52 100.594 140.8C100.958 141.08 101.14 141.514 101.14 142.102C101.14 142.606 100.958 143.012 100.622 143.348C100.23 143.712 99.712 143.908 99.068 143.908C98.48 143.908 98.004 143.74 97.64 143.404C97.22 143.04 97.01 142.522 96.982 141.85H95.442C95.526 142.97 95.918 143.824 96.618 144.412C97.234 144.93 98.06 145.196 99.082 145.196C100.146 145.196 101.028 144.888 101.7 144.3C102.33 143.712 102.652 142.956 102.652 142.032C102.652 141.444 102.484 140.954 102.148 140.576C101.84 140.212 101.392 139.932 100.804 139.75C101.896 139.386 102.456 138.644 102.456 137.552C102.456 136.698 102.148 136.026 101.56 135.536C100.944 135.046 100.146 134.808 99.138 134.808ZM104.579 138.364V139.638H109.269C109.045 140.45 108.779 141.122 108.457 141.668C107.589 143.124 106.133 144.37 104.089 145.434L104.929 146.526C107.169 145.308 108.765 143.866 109.703 142.2C110.011 141.668 110.263 141.01 110.487 140.226C111.523 142.928 113.399 145.028 116.129 146.512L116.955 145.434C114.309 144.076 112.503 142.144 111.523 139.638H116.493V138.364H110.893C111.033 137.496 111.145 136.53 111.215 135.466H116.087V134.192H104.943V135.466H109.871C109.815 136.516 109.703 137.482 109.549 138.364H104.579ZM124.795 139.638C126.013 140.898 126.993 142.074 127.721 143.18L128.743 142.158C127.777 140.884 126.601 139.61 125.201 138.322C125.299 137.902 125.383 137.44 125.467 136.95H129.107V144.398C129.107 144.804 128.911 145.014 128.547 145.014L126.433 144.944L126.797 146.274H128.995C129.961 146.274 130.451 145.742 130.451 144.692V135.662H125.607C125.663 134.976 125.691 134.248 125.691 133.478H124.333C124.333 134.248 124.291 134.976 124.235 135.662H119.139V146.428H120.483V136.95H124.081C123.997 137.482 123.885 137.972 123.759 138.42C123.283 139.932 122.289 141.206 120.777 142.242L121.673 143.32C123.171 142.312 124.207 141.094 124.795 139.638Z" fill="#333333"/>
<rect x="248.5" y="116.5" width="210" height="147" rx="3.5" fill="white" stroke="#F1F2F6"/>
<path d="M274.572 174.85H268.342V186.022H269.308V185.042H273.606V186.022H274.572V174.85ZM269.308 184.09V175.802H273.606V184.09H269.308ZM267.502 179.176C266.97 179.456 266.41 179.722 265.85 179.974V177.104H267.502V176.138H265.85V173.618H264.87V176.138H262.868V177.104H264.87V180.352C264.142 180.604 263.414 180.828 262.658 181.01L262.896 181.976C263.568 181.78 264.226 181.556 264.87 181.304V184.706C264.87 185.14 264.66 185.364 264.24 185.364C263.834 185.364 263.414 185.336 262.966 185.294L263.176 186.246H264.59C265.43 186.246 265.85 185.812 265.85 184.958V180.912C266.41 180.674 266.97 180.422 267.502 180.142V179.176ZM277.148 174.122V186.414H278.128V175.074H280.102C279.78 176.25 279.346 177.58 278.786 179.05C279.626 180.212 280.046 181.262 280.046 182.2C280.046 182.508 279.962 182.718 279.822 182.844C279.682 182.97 279.388 183.04 278.954 183.068C278.814 183.068 278.632 183.04 278.408 183.012L278.744 184.034C279.654 184.034 280.298 183.852 280.662 183.516C280.914 183.25 281.054 182.816 281.054 182.2C280.998 181.22 280.578 180.114 279.794 178.896C280.312 177.524 280.76 176.194 281.124 174.92V174.122H277.148ZM284.708 186.26C285.408 186.26 285.772 185.868 285.772 185.098V180.926H288.908V179.946H285.772V178.294H287.48V177.356H282.888V178.294H284.736V179.946H281.46V180.926H284.736V184.846C284.736 185.168 284.61 185.336 284.358 185.336C283.938 185.336 283.49 185.308 283.028 185.28L283.252 186.26H284.708ZM284.75 173.772C283.77 175.27 282.496 176.502 280.928 177.468L281.502 178.322C282.958 177.426 284.204 176.222 285.24 174.738C286.164 176.194 287.382 177.356 288.908 178.238L289.496 177.384C287.83 176.418 286.57 175.214 285.73 173.772H284.75ZM287.382 181.878L286.598 182.354C287.298 183.502 287.858 184.538 288.264 185.476L289.104 184.902C288.698 184.034 288.124 183.026 287.382 181.878ZM282.748 181.948C282.216 183.124 281.572 184.132 280.844 184.972L281.67 185.56C282.412 184.664 283.056 183.6 283.616 182.382L282.748 181.948ZM290.784 174.108V174.99H295.012V176.11H291.806V179.218H302.208V176.11H299.002V174.99H303.216V174.108H290.784ZM298.05 176.11H295.964V174.99H298.05V176.11ZM301.242 178.392H299.002V176.95H301.242V178.392ZM298.05 178.392H295.964V176.95H298.05V178.392ZM295.012 178.392H292.772V176.95H295.012V178.392ZM292.394 180.254V181.094H301.676V180.254H292.394ZM291.008 182.116V182.998H296.664V184.958C296.664 185.322 296.454 185.504 296.062 185.504C295.698 185.504 295.32 185.476 294.928 185.448L295.124 186.344H296.384C297.224 186.344 297.644 185.952 297.644 185.182V182.998H302.992V182.116H291.008ZM299.87 183.474L299.198 184.104C300.57 184.86 301.634 185.56 302.404 186.232L303.104 185.532C302.236 184.846 301.158 184.16 299.87 183.474ZM294.41 183.502C293.486 184.23 292.352 184.874 291.008 185.434L291.61 186.218C292.982 185.616 294.13 184.916 295.068 184.104L294.41 183.502ZM306.338 178.42V186.358H307.374V176.684C307.808 175.83 308.172 174.934 308.466 173.996L307.514 173.562C306.898 175.69 305.89 177.58 304.518 179.232L304.854 180.296C305.386 179.708 305.89 179.078 306.338 178.42ZM313.912 178.462V186.274H314.892V178.462H313.912ZM310.314 178.504V180.618C310.286 182.984 309.67 184.706 308.466 185.77L309.222 186.428C310.566 185.196 311.252 183.264 311.28 180.618V178.504H310.314ZM312.092 173.632C311.084 175.718 309.642 177.412 307.766 178.714L308.326 179.568C310.02 178.392 311.42 176.74 312.54 174.598C313.506 176.502 314.976 178.112 316.936 179.414L317.51 178.56C315.382 177.146 313.87 175.508 313.002 173.632H312.092ZM319.47 175.004L318.938 180.52H320.03C320.226 180.128 320.534 179.82 320.926 179.624C321.304 179.414 321.724 179.316 322.2 179.316C322.928 179.316 323.502 179.526 323.908 179.974C324.328 180.408 324.552 181.024 324.552 181.822C324.552 182.522 324.314 183.096 323.866 183.544C323.404 183.992 322.83 184.216 322.13 184.216C321.514 184.216 320.996 184.062 320.604 183.768C320.156 183.432 319.904 182.942 319.848 182.312H318.714C318.784 183.222 319.162 183.95 319.862 184.482C320.478 184.958 321.234 185.196 322.116 185.196C323.096 185.196 323.936 184.888 324.608 184.286C325.322 183.642 325.686 182.816 325.686 181.808C325.686 180.73 325.378 179.89 324.79 179.274C324.202 178.672 323.432 178.378 322.48 178.378C322.018 178.378 321.598 178.448 321.206 178.616C320.772 178.784 320.408 179.036 320.128 179.372H320.072L320.408 176.026H325.28V175.004H319.47ZM336.741 179.526C335.985 179.526 335.411 179.792 335.019 180.352C334.655 180.828 334.487 181.472 334.487 182.27C334.487 183.054 334.655 183.684 335.019 184.188C335.411 184.72 335.985 185 336.741 185C337.483 185 338.057 184.72 338.463 184.188C338.813 183.698 338.995 183.054 338.995 182.27C338.995 181.472 338.813 180.828 338.463 180.352C338.057 179.792 337.483 179.526 336.741 179.526ZM335.537 174.808L329.923 185.196H330.833L336.433 174.808H335.537ZM329.629 175.004C328.873 175.004 328.299 175.27 327.907 175.83C327.543 176.306 327.375 176.95 327.375 177.748C327.375 178.532 327.543 179.162 327.907 179.666C328.299 180.198 328.873 180.478 329.629 180.478C330.371 180.478 330.945 180.198 331.351 179.666C331.701 179.176 331.883 178.532 331.883 177.748C331.883 176.95 331.701 176.306 331.351 175.83C330.945 175.27 330.371 175.004 329.629 175.004ZM336.741 180.282C337.161 180.282 337.469 180.478 337.679 180.884C337.847 181.22 337.945 181.682 337.945 182.27C337.945 182.844 337.847 183.292 337.679 183.628C337.469 184.034 337.161 184.244 336.741 184.244C336.307 184.244 335.999 184.034 335.803 183.642C335.621 183.306 335.537 182.844 335.537 182.27C335.537 181.668 335.621 181.206 335.803 180.87C335.999 180.478 336.307 180.282 336.741 180.282ZM329.629 175.76C330.049 175.76 330.357 175.956 330.553 176.362C330.735 176.698 330.833 177.16 330.833 177.748C330.833 178.322 330.735 178.77 330.567 179.106C330.357 179.512 330.049 179.722 329.629 179.722C329.195 179.722 328.887 179.512 328.691 179.12C328.509 178.784 328.425 178.322 328.425 177.748C328.425 177.146 328.509 176.684 328.691 176.348C328.887 175.956 329.195 175.76 329.629 175.76ZM351.675 173.688C349.001 174.332 345.641 174.668 341.581 174.668L341.889 175.578C343.625 175.578 345.235 175.508 346.719 175.396V177.678H341.861V178.658H346.719V180.954H340.699V181.92H346.719V184.762C346.719 185.154 346.495 185.364 346.075 185.364C345.431 185.364 344.745 185.336 344.031 185.308L344.255 186.288H346.425C347.293 186.288 347.741 185.854 347.741 185.014V181.92H353.257V180.954H347.741V178.658H352.207V177.678H347.741V175.312C349.421 175.144 350.891 174.878 352.165 174.542L351.675 173.688ZM359.011 183.446C357.793 183.95 356.379 184.342 354.755 184.636L354.881 185.616C356.421 185.308 357.793 184.902 359.011 184.398V183.446ZM356.883 173.562C356.379 175.158 355.777 176.586 355.091 177.832C354.965 178.014 354.825 178.14 354.671 178.196L354.923 179.12C355.651 179.008 356.379 178.896 357.093 178.77C356.365 180.016 355.749 180.898 355.245 181.43C355.119 181.556 354.965 181.654 354.783 181.71L355.063 182.634C356.253 182.466 357.499 182.172 358.815 181.724V180.814C357.975 181.122 357.121 181.36 356.281 181.528C357.065 180.576 358.073 178.966 359.291 176.726L358.367 176.376C358.101 176.894 357.849 177.384 357.597 177.846C357.009 177.958 356.435 178.056 355.861 178.126C356.533 177.076 357.191 175.676 357.835 173.94L356.883 173.562ZM360.005 174.458V175.368H362.819V176.642H359.571V177.566H365.969C365.773 178.322 365.535 179.022 365.241 179.638L366.207 179.918C366.543 179.05 366.809 178.168 367.005 177.272V176.642H363.799V175.368H366.809V174.458H363.799V173.534H362.819V174.458H360.005ZM359.263 181.682V182.606H362.917C362.777 183.026 362.581 183.418 362.329 183.768C361.741 184.524 360.705 185.126 359.207 185.574L359.767 186.456C361.307 185.966 362.413 185.294 363.099 184.44C363.183 184.314 363.281 184.188 363.365 184.048C364.569 184.664 365.759 185.462 366.935 186.442L367.495 185.574C366.361 184.706 365.101 183.95 363.729 183.306C363.813 183.082 363.883 182.858 363.953 182.606H367.397V181.682H364.135C364.163 181.374 364.191 181.066 364.205 180.73V178.14H363.225V180.73C363.211 181.052 363.183 181.374 363.141 181.682H359.263ZM359.809 179.4L359.333 180.086C360.061 180.436 360.761 180.912 361.447 181.5L361.923 180.758C361.279 180.226 360.579 179.764 359.809 179.4ZM360.887 177.958L360.439 178.63C361.097 178.938 361.741 179.386 362.385 179.946L362.861 179.232C362.259 178.728 361.601 178.294 360.887 177.958ZM370.939 176.782H372.941C372.927 177.09 372.871 177.384 372.787 177.664H370.715L370.939 176.782ZM373.921 176.782H375.965V177.664H373.795C373.851 177.384 373.893 177.09 373.921 176.782ZM376.945 176.782H380.039V174.262H376.945V173.534H375.965V174.262H373.921V173.534H372.941V174.262H369.749V175.088H372.941V175.984H370.113L369.623 178.434H372.381C372.297 178.546 372.199 178.658 372.101 178.77C371.555 179.274 370.575 179.68 369.147 179.988L369.651 180.786C370.015 180.702 370.379 180.604 370.729 180.492V184.216H371.723V181.304H378.583V184.216H379.577V180.408H370.981C371.793 180.128 372.409 179.778 372.857 179.358C373.109 179.092 373.333 178.784 373.515 178.434H375.965V180.03H376.945V178.434H379.759C379.745 178.798 379.703 179.036 379.619 179.162C379.507 179.302 379.241 179.372 378.807 179.372C378.583 179.372 378.345 179.358 378.093 179.344L378.289 180.058C378.485 180.058 378.709 180.072 378.933 180.072C379.689 180.072 380.179 179.918 380.389 179.61C380.599 179.344 380.711 178.7 380.711 177.664H376.945V176.782ZM373.921 175.088H375.965V175.984H373.921V175.088ZM376.945 175.088H379.087V175.984H376.945V175.088ZM375.909 184.02L375.405 184.776C377.085 185.182 378.723 185.742 380.319 186.47L380.865 185.63C379.367 184.986 377.715 184.454 375.909 184.02ZM374.607 181.794C374.495 183.068 374.131 183.978 373.501 184.524C372.787 185.084 371.317 185.406 369.091 185.518L369.497 186.414C372.017 186.232 373.627 185.798 374.355 185.112C375.013 184.552 375.433 183.488 375.615 181.892L374.607 181.794Z" fill="#333333"/>
<path d="M274.572 214.85H268.342V226.022H269.308V225.042H273.606V226.022H274.572V214.85ZM269.308 224.09V215.802H273.606V224.09H269.308ZM267.502 219.176C266.97 219.456 266.41 219.722 265.85 219.974V217.104H267.502V216.138H265.85V213.618H264.87V216.138H262.868V217.104H264.87V220.352C264.142 220.604 263.414 220.828 262.658 221.01L262.896 221.976C263.568 221.78 264.226 221.556 264.87 221.304V224.706C264.87 225.14 264.66 225.364 264.24 225.364C263.834 225.364 263.414 225.336 262.966 225.294L263.176 226.246H264.59C265.43 226.246 265.85 225.812 265.85 224.958V220.912C266.41 220.674 266.97 220.422 267.502 220.142V219.176ZM277.148 214.122V226.414H278.128V215.074H280.102C279.78 216.25 279.346 217.58 278.786 219.05C279.626 220.212 280.046 221.262 280.046 222.2C280.046 222.508 279.962 222.718 279.822 222.844C279.682 222.97 279.388 223.04 278.954 223.068C278.814 223.068 278.632 223.04 278.408 223.012L278.744 224.034C279.654 224.034 280.298 223.852 280.662 223.516C280.914 223.25 281.054 222.816 281.054 222.2C280.998 221.22 280.578 220.114 279.794 218.896C280.312 217.524 280.76 216.194 281.124 214.92V214.122H277.148ZM284.708 226.26C285.408 226.26 285.772 225.868 285.772 225.098V220.926H288.908V219.946H285.772V218.294H287.48V217.356H282.888V218.294H284.736V219.946H281.46V220.926H284.736V224.846C284.736 225.168 284.61 225.336 284.358 225.336C283.938 225.336 283.49 225.308 283.028 225.28L283.252 226.26H284.708ZM284.75 213.772C283.77 215.27 282.496 216.502 280.928 217.468L281.502 218.322C282.958 217.426 284.204 216.222 285.24 214.738C286.164 216.194 287.382 217.356 288.908 218.238L289.496 217.384C287.83 216.418 286.57 215.214 285.73 213.772H284.75ZM287.382 221.878L286.598 222.354C287.298 223.502 287.858 224.538 288.264 225.476L289.104 224.902C288.698 224.034 288.124 223.026 287.382 221.878ZM282.748 221.948C282.216 223.124 281.572 224.132 280.844 224.972L281.67 225.56C282.412 224.664 283.056 223.6 283.616 222.382L282.748 221.948ZM290.784 214.108V214.99H295.012V216.11H291.806V219.218H302.208V216.11H299.002V214.99H303.216V214.108H290.784ZM298.05 216.11H295.964V214.99H298.05V216.11ZM301.242 218.392H299.002V216.95H301.242V218.392ZM298.05 218.392H295.964V216.95H298.05V218.392ZM295.012 218.392H292.772V216.95H295.012V218.392ZM292.394 220.254V221.094H301.676V220.254H292.394ZM291.008 222.116V222.998H296.664V224.958C296.664 225.322 296.454 225.504 296.062 225.504C295.698 225.504 295.32 225.476 294.928 225.448L295.124 226.344H296.384C297.224 226.344 297.644 225.952 297.644 225.182V222.998H302.992V222.116H291.008ZM299.87 223.474L299.198 224.104C300.57 224.86 301.634 225.56 302.404 226.232L303.104 225.532C302.236 224.846 301.158 224.16 299.87 223.474ZM294.41 223.502C293.486 224.23 292.352 224.874 291.008 225.434L291.61 226.218C292.982 225.616 294.13 224.916 295.068 224.104L294.41 223.502ZM306.338 218.42V226.358H307.374V216.684C307.808 215.83 308.172 214.934 308.466 213.996L307.514 213.562C306.898 215.69 305.89 217.58 304.518 219.232L304.854 220.296C305.386 219.708 305.89 219.078 306.338 218.42ZM313.912 218.462V226.274H314.892V218.462H313.912ZM310.314 218.504V220.618C310.286 222.984 309.67 224.706 308.466 225.77L309.222 226.428C310.566 225.196 311.252 223.264 311.28 220.618V218.504H310.314ZM312.092 213.632C311.084 215.718 309.642 217.412 307.766 218.714L308.326 219.568C310.02 218.392 311.42 216.74 312.54 214.598C313.506 216.502 314.976 218.112 316.936 219.414L317.51 218.56C315.382 217.146 313.87 215.508 313.002 213.632H312.092ZM321.22 215.004C320.884 215.382 320.492 215.718 320.016 216.026C319.54 216.306 319.064 216.502 318.616 216.628V217.776C319.554 217.496 320.338 217.048 320.968 216.404V225H322.116V215.004H321.22ZM327.819 214.808C326.615 214.808 325.719 215.326 325.117 216.39C324.585 217.286 324.319 218.49 324.319 220.002C324.319 221.514 324.585 222.718 325.117 223.614C325.719 224.664 326.615 225.196 327.819 225.196C329.009 225.196 329.905 224.664 330.521 223.614C331.053 222.718 331.319 221.514 331.319 220.002C331.319 218.49 331.053 217.286 330.521 216.39C329.905 215.326 329.009 214.808 327.819 214.808ZM327.819 215.788C328.715 215.788 329.359 216.264 329.751 217.23C330.031 217.902 330.185 218.826 330.185 220.002C330.185 221.164 330.031 222.088 329.751 222.774C329.359 223.726 328.715 224.216 327.819 224.216C326.923 224.216 326.279 223.726 325.887 222.774C325.607 222.088 325.467 221.164 325.467 220.002C325.467 218.826 325.607 217.902 325.887 217.23C326.279 216.264 326.923 215.788 327.819 215.788ZM342.36 219.526C341.604 219.526 341.03 219.792 340.638 220.352C340.274 220.828 340.106 221.472 340.106 222.27C340.106 223.054 340.274 223.684 340.638 224.188C341.03 224.72 341.604 225 342.36 225C343.102 225 343.676 224.72 344.082 224.188C344.432 223.698 344.614 223.054 344.614 222.27C344.614 221.472 344.432 220.828 344.082 220.352C343.676 219.792 343.102 219.526 342.36 219.526ZM341.156 214.808L335.542 225.196H336.452L342.052 214.808H341.156ZM335.248 215.004C334.492 215.004 333.918 215.27 333.526 215.83C333.162 216.306 332.994 216.95 332.994 217.748C332.994 218.532 333.162 219.162 333.526 219.666C333.918 220.198 334.492 220.478 335.248 220.478C335.99 220.478 336.564 220.198 336.97 219.666C337.32 219.176 337.502 218.532 337.502 217.748C337.502 216.95 337.32 216.306 336.97 215.83C336.564 215.27 335.99 215.004 335.248 215.004ZM342.36 220.282C342.78 220.282 343.088 220.478 343.298 220.884C343.466 221.22 343.564 221.682 343.564 222.27C343.564 222.844 343.466 223.292 343.298 223.628C343.088 224.034 342.78 224.244 342.36 224.244C341.926 224.244 341.618 224.034 341.422 223.642C341.24 223.306 341.156 222.844 341.156 222.27C341.156 221.668 341.24 221.206 341.422 220.87C341.618 220.478 341.926 220.282 342.36 220.282ZM335.248 215.76C335.668 215.76 335.976 215.956 336.172 216.362C336.354 216.698 336.452 217.16 336.452 217.748C336.452 218.322 336.354 218.77 336.186 219.106C335.976 219.512 335.668 219.722 335.248 219.722C334.814 219.722 334.506 219.512 334.31 219.12C334.128 218.784 334.044 218.322 334.044 217.748C334.044 217.146 334.128 216.684 334.31 216.348C334.506 215.956 334.814 215.76 335.248 215.76ZM357.294 213.688C354.62 214.332 351.26 214.668 347.2 214.668L347.508 215.578C349.244 215.578 350.854 215.508 352.338 215.396V217.678H347.48V218.658H352.338V220.954H346.318V221.92H352.338V224.762C352.338 225.154 352.114 225.364 351.694 225.364C351.05 225.364 350.364 225.336 349.65 225.308L349.874 226.288H352.044C352.912 226.288 353.36 225.854 353.36 225.014V221.92H358.876V220.954H353.36V218.658H357.826V217.678H353.36V215.312C355.04 215.144 356.51 214.878 357.784 214.542L357.294 213.688ZM364.63 223.446C363.412 223.95 361.998 224.342 360.374 224.636L360.5 225.616C362.04 225.308 363.412 224.902 364.63 224.398V223.446ZM362.502 213.562C361.998 215.158 361.396 216.586 360.71 217.832C360.584 218.014 360.444 218.14 360.29 218.196L360.542 219.12C361.27 219.008 361.998 218.896 362.712 218.77C361.984 220.016 361.368 220.898 360.864 221.43C360.738 221.556 360.584 221.654 360.402 221.71L360.682 222.634C361.872 222.466 363.118 222.172 364.434 221.724V220.814C363.594 221.122 362.74 221.36 361.9 221.528C362.684 220.576 363.692 218.966 364.91 216.726L363.986 216.376C363.72 216.894 363.468 217.384 363.216 217.846C362.628 217.958 362.054 218.056 361.48 218.126C362.152 217.076 362.81 215.676 363.454 213.94L362.502 213.562ZM365.624 214.458V215.368H368.438V216.642H365.19V217.566H371.588C371.392 218.322 371.154 219.022 370.86 219.638L371.826 219.918C372.162 219.05 372.428 218.168 372.624 217.272V216.642H369.418V215.368H372.428V214.458H369.418V213.534H368.438V214.458H365.624ZM364.882 221.682V222.606H368.536C368.396 223.026 368.2 223.418 367.948 223.768C367.36 224.524 366.324 225.126 364.826 225.574L365.386 226.456C366.926 225.966 368.032 225.294 368.718 224.44C368.802 224.314 368.9 224.188 368.984 224.048C370.188 224.664 371.378 225.462 372.554 226.442L373.114 225.574C371.98 224.706 370.72 223.95 369.348 223.306C369.432 223.082 369.502 222.858 369.572 222.606H373.016V221.682H369.754C369.782 221.374 369.81 221.066 369.824 220.73V218.14H368.844V220.73C368.83 221.052 368.802 221.374 368.76 221.682H364.882ZM365.428 219.4L364.952 220.086C365.68 220.436 366.38 220.912 367.066 221.5L367.542 220.758C366.898 220.226 366.198 219.764 365.428 219.4ZM366.506 217.958L366.058 218.63C366.716 218.938 367.36 219.386 368.004 219.946L368.48 219.232C367.878 218.728 367.22 218.294 366.506 217.958ZM376.558 216.782H378.56C378.546 217.09 378.49 217.384 378.406 217.664H376.334L376.558 216.782ZM379.54 216.782H381.584V217.664H379.414C379.47 217.384 379.512 217.09 379.54 216.782ZM382.564 216.782H385.658V214.262H382.564V213.534H381.584V214.262H379.54V213.534H378.56V214.262H375.368V215.088H378.56V215.984H375.732L375.242 218.434H378C377.916 218.546 377.818 218.658 377.72 218.77C377.174 219.274 376.194 219.68 374.766 219.988L375.27 220.786C375.634 220.702 375.998 220.604 376.348 220.492V224.216H377.342V221.304H384.202V224.216H385.196V220.408H376.6C377.412 220.128 378.028 219.778 378.476 219.358C378.728 219.092 378.952 218.784 379.134 218.434H381.584V220.03H382.564V218.434H385.378C385.364 218.798 385.322 219.036 385.238 219.162C385.126 219.302 384.86 219.372 384.426 219.372C384.202 219.372 383.964 219.358 383.712 219.344L383.908 220.058C384.104 220.058 384.328 220.072 384.552 220.072C385.308 220.072 385.798 219.918 386.008 219.61C386.218 219.344 386.33 218.7 386.33 217.664H382.564V216.782ZM379.54 215.088H381.584V215.984H379.54V215.088ZM382.564 215.088H384.706V215.984H382.564V215.088ZM381.528 224.02L381.024 224.776C382.704 225.182 384.342 225.742 385.938 226.47L386.484 225.63C384.986 224.986 383.334 224.454 381.528 224.02ZM380.226 221.794C380.114 223.068 379.75 223.978 379.12 224.524C378.406 225.084 376.936 225.406 374.71 225.518L375.116 226.414C377.636 226.232 379.246 225.798 379.974 225.112C380.632 224.552 381.052 223.488 381.234 221.892L380.226 221.794Z" fill="#333333"/>
<rect x="249" y="123" width="209" height="34" fill="#F1F2F6"/>
<path d="M264.296 138V141.766H267.628C267.572 141.878 267.502 142.004 267.446 142.144C266.69 143.446 265.122 144.552 262.714 145.448L263.554 146.484C266.298 145.42 268.02 144.076 268.748 142.48C268.86 142.256 268.958 142.018 269.042 141.766H269.532V144.594C269.532 145.686 270.008 146.232 270.974 146.232H273.76C274.264 146.232 274.628 146.106 274.866 145.854C275.118 145.574 275.286 144.748 275.398 143.348L274.138 142.942C274.11 143.908 274.04 144.482 273.928 144.678C273.844 144.846 273.704 144.944 273.508 144.944H271.38C271.03 144.944 270.862 144.734 270.862 144.314V141.766H274.026V137.272H270.82C271.31 136.824 271.8 136.278 272.304 135.648V134.64H267.628C267.838 134.346 268.048 134.052 268.244 133.744L266.9 133.45C265.724 135.186 264.324 136.53 262.672 137.51L263.512 138.532C263.778 138.364 264.044 138.182 264.296 138ZM269.154 137.272H265.206C265.71 136.838 266.186 136.362 266.662 135.844H270.582C270.106 136.376 269.63 136.852 269.154 137.272ZM272.752 140.52H269.406C269.532 139.904 269.616 139.232 269.644 138.504H272.752V140.52ZM268.034 140.52H265.584V138.504H268.314C268.272 139.232 268.174 139.904 268.034 140.52ZM279.178 136.894H280.774C280.746 137.132 280.704 137.356 280.648 137.58H278.982L279.178 136.894ZM282.062 136.894H283.882V137.58H281.978C282.02 137.356 282.048 137.132 282.062 136.894ZM285.17 136.894H288.138V134.108H285.17V133.492H283.882V134.108H282.076V133.492H280.788V134.108H277.68V135.186H280.788V135.872H278.1L277.554 138.588H280.102C280.074 138.616 280.032 138.672 279.976 138.728C279.472 139.204 278.52 139.596 277.106 139.904L277.778 140.94C278.086 140.87 278.38 140.786 278.66 140.702V144.202H279.962V141.486H286.402V144.202H287.718V140.31H279.724C280.242 140.058 280.662 139.792 280.984 139.484C281.236 139.232 281.446 138.924 281.628 138.588H283.882V140.044H285.17V138.588H287.606C287.606 138.812 287.564 138.966 287.494 139.078C287.41 139.176 287.186 139.232 286.822 139.232C286.584 139.232 286.332 139.218 286.08 139.19L286.318 140.1C286.528 140.114 286.752 140.128 286.976 140.128C287.788 140.114 288.306 139.96 288.53 139.652C288.754 139.358 288.866 138.672 288.866 137.58H285.17V136.894ZM282.076 135.186H283.882V135.872H282.076V135.186ZM285.17 135.186H286.906V135.872H285.17V135.186ZM284.036 143.922L283.364 144.93C285.044 145.322 286.668 145.854 288.25 146.554L288.978 145.448C287.494 144.846 285.842 144.342 284.036 143.922ZM282.482 141.836C282.37 143.04 282.02 143.894 281.404 144.398C280.704 144.902 279.248 145.196 277.05 145.294L277.582 146.484C280.186 146.288 281.838 145.84 282.538 145.168C283.196 144.636 283.616 143.572 283.798 141.962L282.482 141.836ZM291.904 133.66L290.98 134.542C291.988 135.354 292.758 136.11 293.304 136.81L294.27 135.858C293.626 135.13 292.828 134.402 291.904 133.66ZM299.856 146.204H303.132L303.468 144.888C303.076 144.916 302.516 144.944 301.802 144.958C301.074 144.972 300.374 144.986 299.674 144.986C298.582 144.986 297.658 144.972 296.874 144.958C296.062 144.93 295.446 144.804 295.026 144.608C294.69 144.426 294.354 144.146 294.032 143.768C293.962 143.684 293.892 143.628 293.836 143.572V138.266H290.714V139.498H292.59V143.46C292.03 143.74 291.4 144.454 290.7 145.588L291.68 146.498C292.394 145.238 292.898 144.608 293.192 144.608C293.346 144.608 293.514 144.72 293.71 144.958C294.13 145.434 294.606 145.77 295.166 145.938C295.74 146.078 296.482 146.162 297.378 146.176C298.274 146.19 299.1 146.204 299.856 146.204ZM298.498 139.75L297.756 140.66C299.66 141.752 301.214 142.928 302.446 144.188L303.258 143.208C302.726 142.69 302.138 142.186 301.494 141.71C301.886 141.346 302.278 140.94 302.67 140.478L301.718 139.75C301.382 140.17 300.976 140.59 300.528 141.01C299.898 140.576 299.226 140.156 298.498 139.75ZM296.748 137.258H301.046V138.252H296.748V137.258ZM301.046 136.166H296.748V135.172H301.046V136.166ZM296.748 139.428H302.348V133.996H295.46V142.578C295.46 142.802 295.306 142.984 294.998 143.096L295.278 144.216C296.986 143.936 298.386 143.642 299.506 143.348L299.212 142.158C298.4 142.396 297.574 142.592 296.748 142.746V139.428ZM304.644 134.71V135.858H307.5V136.81H305.134V137.93H310.902V136.81H308.76V135.858H311.224V134.71H308.76V133.52H307.5V134.71H304.644ZM305.596 138.784V139.932H310.468V138.784H305.596ZM304.742 140.73V141.892H307.486V144.846C307.486 145.14 307.304 145.294 306.968 145.294C306.646 145.294 306.31 145.266 305.974 145.21L306.24 146.414H307.388C308.284 146.414 308.746 145.994 308.746 145.154V141.892H311.378V140.73H304.742ZM305.68 142.396C305.442 143.236 305.036 144.034 304.462 144.762L305.456 145.392C306.016 144.608 306.436 143.684 306.744 142.606L305.68 142.396ZM310.342 142.27L309.292 142.606C309.614 143.222 309.908 143.95 310.174 144.762L311.21 144.3C310.958 143.572 310.664 142.9 310.342 142.27ZM312.428 133.576C312.19 135.83 311.658 137.594 310.846 138.854L311.854 139.582C312.358 138.882 312.764 137.958 313.086 136.81H315.704C315.536 137.874 315.312 138.798 315.06 139.596L316.292 139.946C316.572 138.77 316.81 137.594 316.992 136.418V135.62H313.366C313.478 135.06 313.562 134.444 313.646 133.772L312.428 133.576ZM313.394 137.79C313.394 139.582 313.226 141.038 312.918 142.158C312.512 143.502 311.658 144.622 310.356 145.546L311.168 146.512C312.68 145.448 313.646 144.118 314.08 142.508C314.682 144.034 315.536 145.35 316.628 146.442L317.51 145.434C316.082 144.174 315.06 142.48 314.472 140.352C314.556 139.568 314.598 138.714 314.598 137.79H313.394ZM318.756 140.1V141.234H324.062L323.698 142.018H319.918V146.484H321.178V143.138H322.942V146.288H324.202V143.138H325.938V146.288H327.212V143.138H329.116V144.832C329.116 145.168 328.962 145.35 328.668 145.35L327.744 145.294L328.038 146.428H329.032C329.928 146.428 330.39 145.98 330.39 145.112V142.018H325.028L325.406 141.234H331.244V140.1H318.756ZM319.61 133.926V135.004H324.356V135.648H319.008V138.672H320.282V136.67H324.356V139.638H325.644V136.67H329.718V138.672H330.992V135.648H325.644V135.004H330.404V133.926H319.61ZM320.842 137.272V138.112H323.782V137.272H320.842ZM320.842 138.644V139.498H323.782V138.644H320.842ZM326.204 137.272V138.112H329.13V137.272H326.204ZM326.218 138.644V139.498H329.172V138.644H326.218ZM335.57 141.192H338.384V142.494H335.57V141.192ZM338.384 143.712V146.484H339.7V143.712H342.556V144.426H343.858V137.482H339.7V136.264H338.384V137.482H334.268V144.468H335.57V143.712H338.384ZM339.7 142.494V141.192H342.556V142.494H339.7ZM342.556 140.03H339.7V138.714H342.556V140.03ZM338.384 138.714V140.03H335.57V138.714H338.384ZM344.936 134.472H339.616C339.504 134.08 339.378 133.716 339.266 133.394L337.852 133.618C337.992 133.884 338.118 134.164 338.244 134.472H333.008V137.188H334.296V135.69H343.648V137.118H344.936V134.472ZM349.808 139.666C350.144 140.212 350.55 140.898 351.012 141.71L351.754 140.576C351.096 139.694 350.452 138.896 349.808 138.182V137.426H351.348V136.152H349.808V133.534H348.534V136.152H346.714V137.426H348.464C348.044 139.106 347.386 140.618 346.462 141.934L347.008 143.306C347.624 142.298 348.128 141.178 348.534 139.974V146.442H349.808V139.666ZM351.614 134.948V136.166H354.078C353.28 137.524 352.636 138.364 352.132 138.686C352.076 138.728 351.992 138.77 351.88 138.798L352.146 139.876C353.14 139.834 354.092 139.792 354.988 139.736C353.91 140.856 352.594 141.696 351.04 142.242L351.768 143.348C354.47 142.34 356.514 140.45 357.914 137.664L356.836 137.09C356.556 137.622 356.248 138.126 355.912 138.616C355.156 138.686 354.4 138.742 353.644 138.77C354.162 138.224 354.764 137.356 355.45 136.166H359.286V134.948H356.234C356.066 134.416 355.884 133.926 355.688 133.506L354.33 133.73C354.554 134.094 354.75 134.5 354.932 134.948H351.614ZM356.15 143.754C357.116 144.692 357.886 145.588 358.46 146.428L359.44 145.448C358.754 144.608 357.928 143.782 356.976 142.942C357.844 142.018 358.6 140.94 359.244 139.736L358.138 139.162C356.514 142.186 354.092 144.216 350.844 145.28L351.572 146.414C353.308 145.798 354.834 144.916 356.15 143.754Z" fill="#454545"/>
<path d="M47.088 35.512H49.616V37.688C49.616 39.064 49.888 39.592 51.168 39.592H52.288C52.624 39.592 52.976 39.576 53.184 39.496C53.136 39.16 53.088 38.632 53.056 38.248C52.864 38.312 52.496 38.344 52.272 38.344H51.296C51.056 38.344 51.024 38.184 51.024 37.736V34.136H45.712V35.864C45.712 37 45.392 38.248 43.344 39.16C43.632 39.368 44.144 39.96 44.32 40.248C46.608 39.192 47.088 37.448 47.088 35.912V35.512ZM43.312 36.216C42.8 35.56 41.696 34.536 40.832 33.832L39.872 34.744C40.736 35.496 41.824 36.568 42.304 37.256L43.312 36.216ZM42.24 45.016V38.504H38.736V39.928H40.816V45.256C40.816 45.976 40.336 46.504 40.016 46.744C40.288 47.016 40.656 47.64 40.8 47.992C41.056 47.656 41.52 47.272 44.384 45.016C44.208 44.728 43.968 44.168 43.84 43.784L42.24 45.016ZM50.544 41.912C50 43.032 49.248 43.944 48.336 44.696C47.376 43.912 46.608 42.984 46.064 41.912H50.544ZM51.504 40.472L51.264 40.52H44.144V41.912H45.104L44.688 42.056C45.312 43.4 46.128 44.568 47.136 45.512C46 46.216 44.672 46.68 43.28 46.968C43.552 47.288 43.872 47.864 43.984 48.264C45.552 47.864 47.008 47.288 48.288 46.44C49.472 47.288 50.864 47.912 52.48 48.312C52.672 47.896 53.072 47.288 53.392 46.984C51.92 46.696 50.624 46.2 49.504 45.512C50.8 44.36 51.824 42.84 52.432 40.872L51.504 40.472ZM58.368 45.928H65.552V46.728H58.368V45.928ZM65.552 41.128V41.896H58.368V41.128H65.552ZM58.368 44.296H65.552V45.096H58.368V44.296ZM65.552 43.48H58.368V42.696H65.552V43.48ZM60.848 35.192H63.12V36.408H60.848V35.192ZM59.488 36.408H57.28V35.192H59.488V36.408ZM64.48 35.192H66.8V36.408H64.48V35.192ZM67.024 46.728V40.168H62.144C62.208 39.912 62.272 39.656 62.304 39.368H68.704V38.248H62.512C62.576 37.976 62.608 37.704 62.656 37.448H68.288V34.152H55.856V37.448H61.136C61.104 37.704 61.072 37.976 61.04 38.248H55.152V39.368H60.864C60.832 39.656 60.784 39.912 60.752 40.168H56.96V46.728H54.976V47.816H69.104V46.728H67.024ZM82.256 35.448V36.68H77.728V35.448H82.256ZM77.728 39.096V37.8H82.256V39.096H77.728ZM77.728 43.752V40.312H83.632C83.072 40.792 82.288 41.416 81.584 41.864C81.008 41.432 80.464 41 79.952 40.648L78.944 41.4C80.608 42.6 82.624 44.392 83.552 45.56L84.656 44.68C84.144 44.088 83.36 43.368 82.528 42.648C83.312 42.2 84.176 41.608 84.944 41.064L83.808 40.152L83.696 40.248V34.232H76.224V43.192C76.224 43.896 75.824 44.264 75.52 44.456C75.76 44.696 76.08 45.288 76.176 45.624C76.528 45.4 77.056 45.24 80.368 44.392C80.336 44.104 80.288 43.544 80.288 43.144L77.728 43.752ZM74.704 36.68C74.224 35.944 73.184 34.888 72.32 34.168L71.184 34.968C72.048 35.752 73.072 36.84 73.52 37.576L74.704 36.68ZM74.304 39.224H70.864V40.6H72.864V45.224C72.176 45.528 71.392 46.136 70.64 46.856L71.536 48.104C72.352 47.16 73.168 46.28 73.728 46.28C74.096 46.28 74.608 46.728 75.296 47.112C76.432 47.704 77.808 47.896 79.696 47.896C81.232 47.896 83.904 47.784 85.008 47.72C85.024 47.32 85.248 46.632 85.408 46.264C83.888 46.44 81.488 46.568 79.744 46.568C78.032 46.568 76.608 46.456 75.584 45.912C75.008 45.608 74.624 45.32 74.304 45.16V39.224ZM93.712 39.576H87.36V40.792H93.712V40.248C94.048 40.472 94.544 40.808 94.752 41.016C95.296 40.136 95.728 39.048 96.096 37.8H99.6C99.408 38.824 99.136 39.896 98.88 40.616L100.096 40.968C100.512 39.88 100.976 38.168 101.264 36.68L100.256 36.392L100.032 36.44H99.808V36.456H96.432C96.624 35.608 96.784 34.712 96.912 33.8L95.456 33.608C95.168 35.976 94.64 38.296 93.712 39.88V39.576ZM89.824 37.352H87.216V38.568H93.872V37.352H91.216V36.216H94.192V35H91.216V33.672H89.824V35H86.848V36.216H89.824V37.352ZM87.84 43.48C87.52 44.568 87.024 45.8 86.496 46.632C86.832 46.744 87.392 47 87.664 47.176C88.144 46.296 88.688 44.968 89.072 43.784L87.84 43.48ZM94.352 43.048V41.816H86.64V43.048H89.84V46.76C89.84 46.92 89.792 46.968 89.616 46.968C89.44 46.968 88.912 46.968 88.336 46.952C88.512 47.32 88.688 47.864 88.752 48.248C89.632 48.248 90.24 48.232 90.688 48.008C91.12 47.8 91.232 47.432 91.232 46.792V43.048H94.352ZM91.952 43.912C92.368 44.728 92.832 45.8 93.024 46.472L94.224 45.928C94 45.304 93.504 44.248 93.072 43.464L91.952 43.912ZM98.08 38.92H96.672V39.656C96.672 41.752 96.432 44.872 93.68 47.288C94.048 47.496 94.56 47.96 94.816 48.296C96.256 47 97.056 45.496 97.52 44.024C98.16 45.88 99.12 47.368 100.512 48.232C100.736 47.848 101.184 47.288 101.52 46.984C99.68 46.008 98.56 43.784 98.032 41.224C98.064 40.664 98.08 40.168 98.08 39.704V38.92ZM110 37.112H111.408V36.024H113.584V37.112H115.024V36.024H117.056V34.792H115.024V33.592H113.584V34.792H111.408V33.592H110V34.792H107.888V36.024H110V37.112ZM108.016 41.592C107.744 41.112 106.544 39.208 106.112 38.6V37.976H107.664V36.6H106.112V33.576H104.704V36.6H102.832V37.976H104.704V38.152C104.256 40.168 103.424 42.472 102.512 43.72C102.752 44.104 103.104 44.76 103.264 45.192C103.776 44.376 104.288 43.16 104.704 41.848V48.264H106.112V40.52C106.496 41.288 106.912 42.136 107.104 42.664L108.016 41.592ZM109.824 40.424H114.848V41.368H109.824V40.424ZM109.824 38.488H114.848V39.4H109.824V38.488ZM117.072 44.84V43.592H112.88C112.944 43.224 112.992 42.856 113.04 42.44H116.288V37.4H108.432V42.44H111.584C111.536 42.856 111.488 43.224 111.392 43.592H107.568V44.84H110.944C110.352 45.896 109.248 46.632 107.072 47.08C107.328 47.368 107.696 47.912 107.824 48.28C110.512 47.608 111.824 46.552 112.464 45.016C113.264 46.616 114.624 47.72 116.56 48.264C116.736 47.864 117.152 47.32 117.472 47.016C115.84 46.696 114.592 45.944 113.84 44.84H117.072ZM123.648 41.448H126.448V40.008H119.504V41.448H122.16V45.736C120.944 45.96 119.84 46.168 118.976 46.312L119.408 47.816C121.456 47.368 124.32 46.744 126.976 46.136L126.864 44.792C125.792 45.016 124.704 45.24 123.648 45.432V41.448ZM129.344 34.472C130.128 35.032 131.056 35.864 131.504 36.424L132.544 35.496C132.08 34.952 131.104 34.168 130.32 33.656L129.344 34.472ZM133.104 37.88V36.424H128.512C128.48 35.528 128.464 34.584 128.48 33.656H126.88C126.88 34.584 126.912 35.512 126.944 36.424H118.928V37.88H127.04C127.44 43.64 128.704 48.296 131.344 48.296C132.672 48.296 133.2 47.512 133.456 44.632C133.04 44.488 132.48 44.136 132.144 43.784C132.048 45.864 131.856 46.728 131.472 46.728C130.08 46.728 128.96 42.92 128.608 37.88H133.104Z" fill="#333333"/>
<rect x="38.5" y="72.5" width="191" height="37" rx="3.5" fill="white" stroke="#F1F2F6"/>
<path d="M57.838 85.122H53.134V93.914H54.044V86.06H56.942V93.914H57.838V85.122ZM59.826 84.52C59.49 86.312 58.846 87.81 57.894 89.042L58.51 89.84C59.07 89.154 59.532 88.384 59.91 87.544H63.956C63.928 91.87 63.858 94.446 63.746 95.272C63.634 96 63.27 96.364 62.654 96.364C62.066 96.364 61.394 96.336 60.61 96.308L60.848 97.218C61.772 97.246 62.43 97.26 62.808 97.26C63.928 97.26 64.572 96.686 64.712 95.538C64.852 94.418 64.936 91.436 64.936 86.564H60.302C60.498 85.962 60.666 85.318 60.806 84.646L59.826 84.52ZM61.982 90.722L61.212 91.1C61.45 91.674 61.688 92.304 61.912 92.976C61.184 93.158 60.4 93.298 59.574 93.41C60.148 92.346 60.736 90.904 61.338 89.084L60.428 88.79C59.63 91.506 58.958 93.074 58.426 93.494L58.594 94.362C59.896 94.222 61.086 94.04 62.178 93.788C62.276 94.096 62.374 94.432 62.486 94.796L63.312 94.376C62.892 93.06 62.458 91.842 61.982 90.722ZM55.066 87.082V91.674C55.038 92.934 54.856 93.97 54.52 94.754C54.156 95.51 53.526 96.112 52.63 96.574L53.162 97.414C54.114 96.924 54.8 96.252 55.22 95.384C55.654 94.46 55.878 93.228 55.906 91.674V87.082H55.066ZM56.48 94.334L55.836 94.964C56.648 95.804 57.278 96.588 57.726 97.316L58.454 96.602C57.922 95.846 57.264 95.09 56.48 94.334ZM68.436 89.014L67.946 89.728C68.94 90.12 69.906 90.68 70.844 91.38L71.362 90.568C70.48 89.966 69.5 89.448 68.436 89.014ZM69.724 87.054L69.248 87.768C70.228 88.16 71.166 88.72 72.09 89.42L72.608 88.622C71.74 88.006 70.788 87.488 69.724 87.054ZM73.588 87.054V89.994C73.56 90.75 73.448 91.464 73.252 92.108H67.288V93.088H72.846C72.678 93.438 72.468 93.76 72.216 94.068C71.292 95.062 69.682 95.86 67.358 96.462L67.932 97.358C70.242 96.742 71.908 95.874 72.93 94.768C73 94.684 73.07 94.586 73.154 94.488C75.002 95.342 76.78 96.322 78.516 97.428L79.202 96.672C77.536 95.622 75.688 94.642 73.658 93.732C73.77 93.536 73.868 93.312 73.966 93.088H79.51V92.108H74.302C74.456 91.464 74.554 90.764 74.582 89.994V87.054H73.588ZM67.82 85.388V86.326H77.438C77.242 87.026 77.004 87.67 76.71 88.244L77.662 88.51C77.998 87.684 78.278 86.858 78.488 86.018V85.388H67.82ZM83.752 89.504H93.832V88.524H83.752V86.564C87.168 86.48 90.248 86.172 92.992 85.612L92.488 84.702C89.604 85.304 86.37 85.626 82.758 85.668V89.868C82.674 92.724 82.128 94.964 81.106 96.588L81.848 97.358C83.024 95.496 83.668 93.004 83.752 89.868V89.504ZM92.726 91.464H85.04V97.4H86.048V96.742H91.718V97.4H92.726V91.464ZM86.048 95.762V92.43H91.718V95.762H86.048ZM99.138 85.808C98.186 85.808 97.416 86.074 96.828 86.62C96.212 87.166 95.848 87.922 95.764 88.888H96.898C96.968 88.216 97.192 87.698 97.584 87.334C97.962 86.97 98.48 86.802 99.152 86.802C99.796 86.802 100.314 86.956 100.678 87.292C101.014 87.6 101.196 88.034 101.196 88.594C101.196 89.154 101.014 89.588 100.664 89.896C100.314 90.19 99.81 90.344 99.138 90.344H98.368V91.24H99.18C99.88 91.24 100.412 91.394 100.804 91.73C101.196 92.066 101.392 92.528 101.392 93.13C101.392 93.718 101.182 94.208 100.79 94.6C100.356 95.006 99.782 95.216 99.068 95.216C98.438 95.216 97.92 95.034 97.5 94.698C97.01 94.292 96.744 93.69 96.716 92.906H95.554C95.638 94.026 96.03 94.88 96.744 95.468C97.346 95.944 98.116 96.196 99.068 96.196C100.104 96.196 100.944 95.902 101.588 95.314C102.218 94.74 102.54 93.998 102.54 93.088C102.54 92.5 102.372 92.01 102.036 91.618C101.728 91.226 101.28 90.946 100.692 90.764C101.784 90.4 102.33 89.644 102.33 88.524C102.33 87.684 102.036 87.026 101.462 86.536C100.874 86.046 100.09 85.808 99.138 85.808ZM104.621 89.518V90.484H109.493C109.255 91.408 108.961 92.178 108.597 92.794C107.715 94.278 106.231 95.552 104.145 96.616L104.775 97.442C107.015 96.252 108.597 94.824 109.549 93.172C109.913 92.528 110.207 91.716 110.445 90.764C111.439 93.648 113.371 95.874 116.255 97.442L116.885 96.63C114.141 95.202 112.279 93.144 111.299 90.484H116.451V89.518H110.711C110.879 88.566 110.991 87.502 111.075 86.298H116.045V85.318H104.985V86.298H110.053C109.983 87.488 109.871 88.566 109.703 89.518H104.621ZM124.753 90.302C126.069 91.646 127.147 92.92 127.959 94.124L128.715 93.354C127.721 92.024 126.503 90.666 125.047 89.294C125.159 88.832 125.243 88.328 125.313 87.796H129.317V95.608C129.317 96.056 129.093 96.294 128.645 96.294L126.503 96.238L126.783 97.246H128.981C129.877 97.246 130.339 96.77 130.339 95.832V86.816H125.425C125.481 86.116 125.523 85.346 125.523 84.52H124.501C124.501 85.332 124.459 86.102 124.389 86.816H119.265V97.386H120.287V87.796H124.277C124.179 88.44 124.053 89.028 123.899 89.574C123.395 91.128 122.359 92.416 120.791 93.452L121.463 94.278C123.087 93.214 124.179 91.898 124.753 90.302Z" fill="#454545"/>
<rect width="16" height="16" transform="translate(200 83)" fill="white"/>
<path d="M203 89L208 94L213 89" stroke="#C2C5CA" stroke-width="1.66667" stroke-linecap="round" stroke-linejoin="round"/>
<rect x="248.5" y="72.5" width="210" height="37" rx="3.5" fill="white" stroke="#F1F2F6"/>
<rect width="16" height="16" transform="translate(429 83)" fill="white"/>
<path d="M432 89L437 94L442 89" stroke="#C2C5CA" stroke-width="1.66667" stroke-linecap="round" stroke-linejoin="round"/>
<path d="M264.45 88.692V92.64H267.866C267.782 92.836 267.698 93.046 267.6 93.242C266.816 94.586 265.192 95.72 262.756 96.616L263.4 97.414C266.116 96.364 267.866 95.034 268.622 93.41C268.734 93.158 268.846 92.906 268.944 92.64H269.672V95.706C269.672 96.686 270.106 97.176 270.974 97.176H273.718C274.208 97.176 274.558 97.05 274.782 96.798C275.034 96.504 275.202 95.678 275.3 94.334L274.334 94.026C274.292 95.076 274.208 95.706 274.068 95.93C273.956 96.098 273.788 96.196 273.536 96.196H271.282C270.876 96.196 270.68 95.958 270.68 95.496V92.64H273.872V88.398H270.442C271.016 87.894 271.59 87.278 272.178 86.55V85.78H267.348C267.6 85.444 267.838 85.094 268.062 84.73L267.054 84.492C265.92 86.228 264.478 87.614 262.714 88.678L263.358 89.448C263.722 89.21 264.086 88.958 264.45 88.692ZM269.154 88.398H264.828C265.472 87.88 266.06 87.32 266.606 86.704H270.862C270.302 87.348 269.742 87.908 269.154 88.398ZM272.906 91.688H269.224C269.392 90.974 269.476 90.19 269.504 89.336H272.906V91.688ZM268.174 91.688H265.43V89.336H268.496C268.468 90.19 268.356 90.974 268.174 91.688ZM278.968 87.782H280.97C280.956 88.09 280.9 88.384 280.816 88.664H278.744L278.968 87.782ZM281.95 87.782H283.994V88.664H281.824C281.88 88.384 281.922 88.09 281.95 87.782ZM284.974 87.782H288.068V85.262H284.974V84.534H283.994V85.262H281.95V84.534H280.97V85.262H277.778V86.088H280.97V86.984H278.142L277.652 89.434H280.41C280.326 89.546 280.228 89.658 280.13 89.77C279.584 90.274 278.604 90.68 277.176 90.988L277.68 91.786C278.044 91.702 278.408 91.604 278.758 91.492V95.216H279.752V92.304H286.612V95.216H287.606V91.408H279.01C279.822 91.128 280.438 90.778 280.886 90.358C281.138 90.092 281.362 89.784 281.544 89.434H283.994V91.03H284.974V89.434H287.788C287.774 89.798 287.732 90.036 287.648 90.162C287.536 90.302 287.27 90.372 286.836 90.372C286.612 90.372 286.374 90.358 286.122 90.344L286.318 91.058C286.514 91.058 286.738 91.072 286.962 91.072C287.718 91.072 288.208 90.918 288.418 90.61C288.628 90.344 288.74 89.7 288.74 88.664H284.974V87.782ZM281.95 86.088H283.994V86.984H281.95V86.088ZM284.974 86.088H287.116V86.984H284.974V86.088ZM283.938 95.02L283.434 95.776C285.114 96.182 286.752 96.742 288.348 97.47L288.894 96.63C287.396 95.986 285.744 95.454 283.938 95.02ZM282.636 92.794C282.524 94.068 282.16 94.978 281.53 95.524C280.816 96.084 279.346 96.406 277.12 96.518L277.526 97.414C280.046 97.232 281.656 96.798 282.384 96.112C283.042 95.552 283.462 94.488 283.644 92.892L282.636 92.794ZM291.764 84.786L291.078 85.444C292.086 86.256 292.87 87.012 293.43 87.712L294.158 86.984C293.514 86.256 292.716 85.528 291.764 84.786ZM299.716 97.148H303.146L303.398 96.14C303.006 96.168 302.446 96.182 301.718 96.196C300.99 96.21 300.276 96.224 299.576 96.224C298.512 96.224 297.616 96.21 296.888 96.196C296.09 96.168 295.474 96.056 295.054 95.86C294.69 95.678 294.34 95.384 294.004 94.978C293.892 94.852 293.794 94.754 293.682 94.67V89.42H290.756V90.344H292.744V94.6C292.17 94.852 291.512 95.566 290.77 96.742L291.526 97.428C292.296 96.14 292.856 95.496 293.192 95.496C293.36 95.496 293.528 95.608 293.71 95.846C294.13 96.35 294.62 96.7 295.152 96.868C295.698 97.022 296.412 97.106 297.294 97.12C298.162 97.134 298.974 97.148 299.716 97.148ZM298.344 90.862L297.77 91.548C299.702 92.668 301.284 93.872 302.516 95.16L303.132 94.418C302.544 93.858 301.914 93.312 301.242 92.78C301.704 92.374 302.152 91.912 302.6 91.38L301.872 90.82C301.48 91.296 301.032 91.772 300.5 92.234C299.828 91.758 299.114 91.31 298.344 90.862ZM296.524 88.132H301.2V89.378H296.524V88.132ZM301.2 87.292H296.524V86.046H301.2V87.292ZM296.524 90.288H302.194V85.136H295.544V93.928C295.544 94.11 295.418 94.25 295.166 94.348L295.376 95.202C297.042 94.922 298.414 94.628 299.506 94.334L299.282 93.424C298.372 93.69 297.448 93.9 296.524 94.068V90.288ZM304.686 85.836V86.732H307.654V87.964H305.176V88.832H310.86V87.964H308.606V86.732H311.182V85.836H308.606V84.562H307.654V85.836H304.686ZM305.638 89.938V90.82H310.426V89.938H305.638ZM304.784 91.884V92.766H307.64V96.042C307.64 96.364 307.458 96.532 307.094 96.532C306.758 96.532 306.394 96.504 306.03 96.462L306.226 97.372H307.416C308.2 97.372 308.592 96.994 308.592 96.266V92.766H311.336V91.884H304.784ZM305.834 93.438C305.582 94.348 305.162 95.174 304.588 95.93L305.344 96.42C305.904 95.622 306.338 94.684 306.646 93.592L305.834 93.438ZM310.202 93.326L309.39 93.592C309.726 94.208 310.048 94.936 310.328 95.748L311.112 95.398C310.846 94.656 310.538 93.97 310.202 93.326ZM312.582 84.604C312.33 86.9 311.784 88.692 310.93 89.98L311.7 90.526C312.218 89.798 312.638 88.846 312.96 87.67H315.914C315.732 88.79 315.494 89.77 315.214 90.638L316.152 90.904C316.46 89.742 316.698 88.566 316.88 87.376V86.76H313.184C313.31 86.144 313.422 85.486 313.506 84.758L312.582 84.604ZM313.52 88.776C313.52 90.596 313.352 92.08 313.016 93.256C312.582 94.656 311.7 95.804 310.37 96.728L310.986 97.47C312.526 96.406 313.506 95.062 313.94 93.41C313.968 93.298 313.982 93.2 314.01 93.102C314.654 94.81 315.578 96.238 316.782 97.414L317.454 96.644C315.97 95.342 314.92 93.578 314.304 91.366C314.388 90.582 314.444 89.714 314.444 88.776H313.52ZM318.798 91.212V92.08H324.272L323.796 93.088H319.974V97.442H320.926V93.956H323.026V97.274H323.992V93.956H326.064V97.274H327.03V93.956H329.284V95.944C329.284 96.35 329.102 96.56 328.738 96.56L327.8 96.518L328.024 97.386H329.018C329.844 97.386 330.264 96.966 330.264 96.154V93.088H324.818L325.294 92.08H331.202V91.212H318.798ZM319.652 85.038V85.864H324.51V86.746H319.134V89.63H320.1V87.544H324.51V90.638H325.49V87.544H329.9V89.63H330.866V86.746H325.49V85.864H330.362V85.038H319.652ZM320.856 88.328V89H323.768V88.328H320.856ZM320.856 89.728V90.4H323.768V89.728H320.856ZM326.218 88.328V89H329.116V88.328H326.218ZM326.232 89.728V90.4H329.158V89.728H326.232ZM335.43 92.066H338.538V93.676H335.43V92.066ZM338.538 94.6V97.442H339.546V94.6H342.696V95.384H343.676V88.636H339.546V87.236H338.538V88.636H334.45V95.426H335.43V94.6H338.538ZM339.546 93.676V92.066H342.696V93.676H339.546ZM342.696 91.17H339.546V89.56H342.696V91.17ZM338.538 89.56V91.17H335.43V89.56H338.538ZM344.81 85.626H339.504C339.364 85.178 339.238 84.786 339.098 84.436L338.034 84.618C338.188 84.926 338.328 85.262 338.468 85.626H333.134V88.146H334.114V86.536H343.83V88.076H344.81V85.626ZM349.654 90.274C350.074 90.876 350.564 91.674 351.138 92.654L351.698 91.8C350.998 90.82 350.326 89.952 349.654 89.182V88.272H351.306V87.306H349.654V84.576H348.688V87.306H346.756V88.272H348.646C348.226 90.12 347.512 91.772 346.518 93.228L346.938 94.25C347.652 93.102 348.24 91.814 348.688 90.386V97.4H349.654V90.274ZM351.656 86.102V87.012H354.372C353.476 88.538 352.762 89.476 352.202 89.84C352.146 89.868 352.09 89.896 352.006 89.924L352.216 90.75C353.322 90.708 354.372 90.652 355.352 90.596C354.204 91.884 352.79 92.822 351.096 93.424L351.642 94.264C354.358 93.256 356.402 91.352 357.802 88.58L356.99 88.146C356.71 88.706 356.388 89.224 356.024 89.728C355.156 89.798 354.274 89.854 353.378 89.91C353.966 89.336 354.638 88.37 355.408 87.012H359.244V86.102H356.136C355.94 85.514 355.73 84.996 355.52 84.548L354.484 84.716C354.736 85.136 354.96 85.598 355.156 86.102H351.656ZM356.136 94.558C357.172 95.538 357.998 96.462 358.614 97.33L359.342 96.602C358.642 95.72 357.774 94.838 356.766 93.942C357.676 93.018 358.474 91.926 359.146 90.666L358.292 90.218C356.654 93.284 354.19 95.356 350.9 96.434L351.446 97.302C353.238 96.686 354.792 95.762 356.136 94.558Z" fill="#454545"/>
<circle cx="55" cy="247" r="3" fill="#E6E8EF"/>
<circle cx="265" cy="247" r="3" fill="#E6E8EF"/>
<circle cx="66" cy="247" r="3" fill="#E6E8EF"/>
<circle cx="276" cy="247" r="3" fill="#E6E8EF"/>
<circle cx="77" cy="247" r="3" fill="#E6E8EF"/>
<circle cx="287" cy="247" r="3" fill="#E6E8EF"/>
</g>
<defs>
<filter id="filter0_d" x="0" y="0" width="497" height="292" filterUnits="userSpaceOnUse" color-interpolation-filters="sRGB">
<feFlood flood-opacity="0" result="BackgroundImageFix"/>
<feColorMatrix in="SourceAlpha" type="matrix" values="0 0 0 0 0 0 0 0 0 0 0 0 0 0 0 0 0 0 127 0"/>
<feOffset dy="4"/>
<feGaussianBlur stdDeviation="12"/>
<feColorMatrix type="matrix" values="0 0 0 0 0.135086 0 0 0 0 0.204976 0 0 0 0 0.340522 0 0 0 0.08 0"/>
<feBlend mode="normal" in2="BackgroundImageFix" result="effect1_dropShadow"/>
<feBlend mode="normal" in="SourceGraphic" in2="effect1_dropShadow" result="shape"/>
</filter>
</defs>
</svg>
