<svg width="515" height="410" viewBox="0 0 515 410" fill="none" xmlns="http://www.w3.org/2000/svg">
<g filter="url(#filter0_d)">
<rect x="286" y="20" width="205" height="203" rx="8" fill="#FCFCFC"/>
</g>
<g filter="url(#filter1_d)">
<rect x="24" y="56" width="175" height="175" rx="8" fill="white"/>
</g>
<rect x="44" y="72" width="86" height="27" rx="8" fill="#EEEEEE"/>
<rect x="303" y="36" width="58" height="27" rx="6" fill="#90DD9D"/>
<rect x="369" y="42" width="47" height="21" rx="6" fill="#BFEECC"/>
<rect x="303" y="78" width="168" height="123" rx="8" fill="#D6F8E0"/>
<rect x="424" y="42" width="47" height="21" rx="6" fill="#BFEECC"/>
<rect x="44" y="116" width="133" height="92" rx="8" fill="#EEEEEE"/>
<g filter="url(#filter2_d)">
<rect x="97" y="149" width="333" height="233" rx="8" fill="white"/>
</g>
<path d="M319 204.5H209C207.541 204.5 206.142 205.079 205.111 206.111C204.079 207.142 203.5 208.541 203.5 210V320C203.5 321.459 204.079 322.858 205.111 323.889C206.142 324.921 207.541 325.5 209 325.5H319C320.459 325.5 321.858 324.921 322.889 323.889C323.921 322.858 324.5 321.459 324.5 320V210C324.5 208.541 323.921 207.142 322.889 206.111C321.858 205.079 320.459 204.5 319 204.5ZM250.25 232C251.882 232 253.477 232.484 254.833 233.39C256.19 234.297 257.248 235.585 257.872 237.093C258.496 238.6 258.66 240.259 258.341 241.859C258.023 243.46 257.237 244.93 256.084 246.084C254.93 247.237 253.46 248.023 251.859 248.341C250.259 248.66 248.6 248.496 247.093 247.872C245.585 247.248 244.297 246.19 243.39 244.833C242.484 243.477 242 241.882 242 240.25C242 238.062 242.869 235.964 244.416 234.416C245.964 232.869 248.062 232 250.25 232ZM225.5 292.5L242 265L258.5 281.5L280.5 248.5L302.5 292.5H225.5Z" fill="#F7DB78"/>
<path d="M393.167 257.333L400.127 264.293C400.517 264.683 400.517 265.317 400.127 265.707L393.167 272.667" stroke="#F7D457" stroke-width="3" stroke-miterlimit="10" stroke-linecap="round"/>
<path d="M133.833 272.667L126.873 265.707C126.483 265.317 126.483 264.683 126.873 264.293L133.833 257.333" stroke="#F7D457" stroke-width="3" stroke-miterlimit="10" stroke-linecap="round"/>
<circle cx="424" cy="158" r="23" fill="#6DD271"/>
<path d="M423.999 148.417V167.583" stroke="white" stroke-width="3.83333" stroke-miterlimit="10" stroke-linecap="round"/>
<path d="M433.583 158H414.416" stroke="white" stroke-width="3.83333" stroke-miterlimit="10" stroke-linecap="round"/>
<circle cx="192" cy="61" r="15" fill="#FC9292"/>
<path d="M186.671 66.329C186.671 66.8001 186.858 67.2519 187.191 67.585C187.524 67.9181 187.976 68.1053 188.447 68.1053H195.552C196.024 68.1053 196.475 67.9181 196.809 67.585C197.142 67.2519 197.329 66.8001 197.329 66.329V58.6316H186.671V66.329Z" fill="white"/>
<path d="M194.738 55.6711L194.216 54.2791C194.174 54.1662 194.098 54.069 193.999 54.0003C193.9 53.9316 193.782 53.8948 193.662 53.8948H190.338C190.217 53.8948 190.1 53.9316 190.001 54.0003C189.902 54.069 189.826 54.1662 189.784 54.2791L189.261 55.6711H184.895V57.4474H199.105V55.6711H194.738Z" fill="white"/>
<defs>
<filter id="filter0_d" x="262" y="0" width="253" height="251" filterUnits="userSpaceOnUse" color-interpolation-filters="sRGB">
<feFlood flood-opacity="0" result="BackgroundImageFix"/>
<feColorMatrix in="SourceAlpha" type="matrix" values="0 0 0 0 0 0 0 0 0 0 0 0 0 0 0 0 0 0 127 0"/>
<feOffset dy="4"/>
<feGaussianBlur stdDeviation="12"/>
<feColorMatrix type="matrix" values="0 0 0 0 0.135086 0 0 0 0 0.204976 0 0 0 0 0.340522 0 0 0 0.08 0"/>
<feBlend mode="normal" in2="BackgroundImageFix" result="effect1_dropShadow"/>
<feBlend mode="normal" in="SourceGraphic" in2="effect1_dropShadow" result="shape"/>
</filter>
<filter id="filter1_d" x="0" y="36" width="223" height="223" filterUnits="userSpaceOnUse" color-interpolation-filters="sRGB">
<feFlood flood-opacity="0" result="BackgroundImageFix"/>
<feColorMatrix in="SourceAlpha" type="matrix" values="0 0 0 0 0 0 0 0 0 0 0 0 0 0 0 0 0 0 127 0"/>
<feOffset dy="4"/>
<feGaussianBlur stdDeviation="12"/>
<feColorMatrix type="matrix" values="0 0 0 0 0.135086 0 0 0 0 0.204976 0 0 0 0 0.340522 0 0 0 0.08 0"/>
<feBlend mode="normal" in2="BackgroundImageFix" result="effect1_dropShadow"/>
<feBlend mode="normal" in="SourceGraphic" in2="effect1_dropShadow" result="shape"/>
</filter>
<filter id="filter2_d" x="73" y="129" width="381" height="281" filterUnits="userSpaceOnUse" color-interpolation-filters="sRGB">
<feFlood flood-opacity="0" result="BackgroundImageFix"/>
<feColorMatrix in="SourceAlpha" type="matrix" values="0 0 0 0 0 0 0 0 0 0 0 0 0 0 0 0 0 0 127 0"/>
<feOffset dy="4"/>
<feGaussianBlur stdDeviation="12"/>
<feColorMatrix type="matrix" values="0 0 0 0 0.135086 0 0 0 0 0.204976 0 0 0 0 0.340522 0 0 0 0.08 0"/>
<feBlend mode="normal" in2="BackgroundImageFix" result="effect1_dropShadow"/>
<feBlend mode="normal" in="SourceGraphic" in2="effect1_dropShadow" result="shape"/>
</filter>
</defs>
</svg>
