<svg width="498" height="398" viewBox="0 0 498 398" fill="none" xmlns="http://www.w3.org/2000/svg">
<g filter="url(#filter0_d)">
<rect x="24" y="20" width="278" height="219" rx="8" fill="white"/>
<rect x="24.25" y="20.25" width="277.5" height="218.5" rx="7.75" stroke="#EFEFEF" stroke-width="0.5"/>
</g>
<circle opacity="0.8" cx="267" cy="57" r="17" fill="#677CC7"/>
<circle opacity="0.8" cx="267" cy="122" r="17" fill="#677CC7"/>
<circle opacity="0.8" cx="131" cy="57" r="17" fill="#EFD54F"/>
<circle opacity="0.8" cx="131" cy="122" r="17" fill="#EF764F"/>
<circle opacity="0.8" cx="199" cy="57" r="17" fill="#F18A69"/>
<circle opacity="0.8" cx="199" cy="122" r="17" fill="#F47373"/>
<path d="M133.272 119.899C133.272 119.899 134.036 115.786 130.908 114C130.862 114.707 130.652 115.397 130.293 116.025C129.935 116.653 129.434 117.205 128.826 117.644C127.488 118.716 124.973 121.125 125 123.694C124.991 124.792 125.319 125.871 125.947 126.808C126.574 127.746 127.476 128.505 128.551 129C128.59 128.504 128.736 128.02 128.983 127.577C129.229 127.134 129.57 126.739 129.985 126.417C130.337 126.171 130.632 125.862 130.852 125.511C131.072 125.159 131.213 124.771 131.266 124.369C132.187 124.815 132.965 125.471 133.524 126.273C134.083 127.075 134.404 127.996 134.456 128.945V128.957C135.47 128.533 136.335 127.861 136.957 127.017C137.578 126.172 137.931 125.187 137.977 124.171C138.199 121.756 136.749 118.476 135.463 117.403C134.977 118.391 134.223 119.251 133.272 119.899Z" fill="white"/>
<circle opacity="0.8" cx="63" cy="57" r="17" fill="#67D894"/>
<circle opacity="0.8" cx="63" cy="122" r="17" fill="#659ACB"/>
<circle opacity="0.7" cx="63" cy="187" r="17" fill="#AAAAAA"/>
<rect x="48" y="81" width="30" height="8" rx="2" fill="#EFEFEF"/>
<rect x="48" y="146" width="30" height="8" rx="2" fill="#EFEFEF"/>
<rect x="48" y="211" width="30" height="8" rx="2" fill="#EFEFEF"/>
<rect x="116" y="81" width="30" height="8" rx="2" fill="#EFEFEF"/>
<rect x="116" y="146" width="30" height="8" rx="2" fill="#EFEFEF"/>
<rect x="184" y="81" width="30" height="8" rx="2" fill="#EFEFEF"/>
<rect x="184" y="146" width="30" height="8" rx="2" fill="#EFEFEF"/>
<rect x="252" y="81" width="30" height="8" rx="2" fill="#EFEFEF"/>
<rect x="252" y="146" width="30" height="8" rx="2" fill="#EFEFEF"/>
<path d="M259.934 121.2L261.652 122.501L267.652 119.835L263 123.501V128C263 128.137 263.042 128.27 263.121 128.382C263.199 128.494 263.31 128.579 263.439 128.626C263.567 128.672 263.707 128.679 263.839 128.643C263.971 128.608 264.089 128.533 264.177 128.429L266.264 125.949L270.6 129.2C270.69 129.268 270.796 129.311 270.907 129.327C271.019 129.343 271.132 129.33 271.237 129.29C271.343 129.251 271.436 129.185 271.509 129.099C271.582 129.013 271.632 128.91 271.654 128.8L274.321 115.467C274.344 115.349 274.336 115.227 274.296 115.114C274.256 115 274.186 114.9 274.094 114.823C274.001 114.746 273.89 114.696 273.771 114.677C273.653 114.658 273.531 114.672 273.42 114.717L260.086 120.05C259.977 120.094 259.881 120.166 259.809 120.26C259.737 120.353 259.69 120.464 259.675 120.581C259.659 120.697 259.675 120.816 259.72 120.925C259.766 121.034 259.839 121.129 259.934 121.2Z" fill="white"/>
<path d="M195 61C195 57 199 57 197.667 53.6667L194.334 54.3333L193.667 53L196.334 50.3333V49C197.724 49 199.086 49.3955 200.261 50.1403C201.435 50.8851 202.374 51.9485 202.967 53.2065C203.56 54.4644 203.783 55.8651 203.61 57.245C203.437 58.6249 202.875 59.9272 201.99 61H195Z" fill="white"/>
<path d="M193 62.9999V64.9999H205V62.9999C205 62.8231 204.93 62.6535 204.805 62.5285C204.68 62.4035 204.51 62.3333 204.333 62.3333H193.667C193.49 62.3333 193.32 62.4035 193.195 62.5285C193.07 62.6535 193 62.8231 193 62.9999Z" fill="white"/>
<path fill-rule="evenodd" clip-rule="evenodd" d="M62.9997 180C63.644 180 64.1664 180.522 64.1664 181.167V192.833C64.1664 193.478 63.644 194 62.9997 194C62.3553 194 61.833 193.478 61.833 192.833V181.167C61.833 180.522 62.3553 180 62.9997 180Z" fill="white"/>
<path fill-rule="evenodd" clip-rule="evenodd" d="M56 187C56 186.356 56.5223 185.833 57.1667 185.833H68.8333C69.4777 185.833 70 186.356 70 187C70 187.644 69.4777 188.167 68.8333 188.167H57.1667C56.5223 188.167 56 187.644 56 187Z" fill="white"/>
<path d="M65 50H57.5714C57.2554 50 57 50.2607 57 50.5833V63.4167C57 63.7392 57.2554 64 57.5714 64H65V50ZM61 54.0833L59.2857 55.25V51.1667H62.7143V55.25L61 54.0833Z" fill="white"/>
<path d="M67.5 50H67V64H67.5C68.327 64 69 63.2148 69 62.25V51.75C69 50.7852 68.327 50 67.5 50Z" fill="white"/>
<path d="M69 116H57C55.8973 116 55 116.85 55 117.895V126.105C55 127.15 55.8973 128 57 128H61.6667V126.737H57C56.632 126.737 56.3333 126.453 56.3333 126.105V122.947H71V117.895C71 116.85 70.1027 116 69 116ZM56.3333 119.158V117.895C56.3333 117.547 56.632 117.263 57 117.263H69C69.368 117.263 69.6667 117.547 69.6667 117.895V119.158H56.3333Z" fill="white"/>
<path d="M66.9997 124.827C66.4261 123.85 65.2082 123.718 64.4792 124.541C63.8403 125.263 63.8403 126.433 64.4792 127.154L66.9997 130L69.5208 127.154C70.1597 126.433 70.1597 125.263 69.5208 124.541C68.7906 123.717 67.5727 123.852 66.9997 124.827Z" fill="white"/>
<path d="M131 49C127.691 49 125 51.692 125 55C125 57.8147 126.951 60.1767 129.57 60.8207L128.057 62.3333H130.333V65H131.667V62.3333H133.943L132.43 60.8207C135.049 60.1767 137 57.8147 137 55C137 51.692 134.309 49 131 49ZM131 52.3333C129.529 52.3333 128.333 53.5293 128.333 55H127C127 52.794 128.794 51 131 51V52.3333Z" fill="white"/>
<path d="M205.827 122.673L199.327 116.173C199.216 116.063 199.066 116 198.909 116H193.591C193.265 116 193 116.265 193 116.591V121.909C193 122.066 193.062 122.216 193.173 122.327L199.673 128.827C199.788 128.943 199.94 129 200.091 129C200.242 129 200.393 128.942 200.509 128.827L205.827 123.509C206.058 123.278 206.058 122.904 205.827 122.673ZM196.545 120.727C195.892 120.727 195.364 120.198 195.364 119.545C195.364 118.892 195.892 118.364 196.545 118.364C197.198 118.364 197.727 118.892 197.727 119.545C197.727 120.198 197.198 120.727 196.545 120.727Z" fill="white"/>
<path d="M270.182 53.39H270.099C269.762 53.3823 269.435 53.2854 269.161 53.1116C268.886 52.9379 268.676 52.6952 268.558 52.4148C268.218 51.6987 267.647 51.0877 266.917 50.6587C266.187 50.2297 265.33 50.0017 264.455 50.0034V50C263.273 50 262.14 50.4167 261.305 51.1584C260.469 51.9001 260 52.9061 260 53.955V61.865C260 62.0148 260.067 62.1585 260.186 62.2645C260.306 62.3704 260.468 62.43 260.636 62.43H273.364C273.532 62.43 273.694 62.3704 273.814 62.2645C273.933 62.1585 274 62.0148 274 61.865V56.78C274 55.8809 273.598 55.0186 272.882 54.3829C272.166 53.7471 271.194 53.39 270.182 53.39ZM272.727 61.3H261.273V57.91H262.545V60.17H263.818V57.91H265.091V60.17H266.364V57.91H267.636V60.17H268.909V57.91H270.182V60.17H271.455V57.91H272.727V61.3Z" fill="white"/>
<g filter="url(#filter1_d)">
<rect x="130" y="135" width="344" height="235" rx="8" fill="white"/>
<rect x="130.25" y="135.25" width="343.5" height="234.5" rx="7.75" stroke="#EFEFEF" stroke-width="0.5"/>
</g>
<rect x="152" y="153" width="300" height="180" rx="8" fill="#B6E6D2"/>
<rect x="270" y="342" width="24" height="12" rx="6" fill="#D0ECE0"/>
<rect x="302" y="342" width="12" height="12" rx="6" fill="#E0E0E0"/>
<rect x="322" y="342" width="12" height="12" rx="6" fill="#E0E0E0"/>
<path d="M343.667 193.167H260.334C259.229 193.167 258.169 193.606 257.387 194.387C256.606 195.168 256.167 196.228 256.167 197.333V280.667C256.167 281.772 256.606 282.832 257.387 283.613C258.169 284.394 259.229 284.833 260.334 284.833H343.667C344.772 284.833 345.832 284.394 346.613 283.613C347.395 282.832 347.834 281.772 347.834 280.667V197.333C347.834 196.228 347.395 195.168 346.613 194.387C345.832 193.606 344.772 193.167 343.667 193.167ZM291.584 214C292.82 214 294.028 214.367 295.056 215.053C296.084 215.74 296.885 216.716 297.358 217.858C297.831 219 297.955 220.257 297.714 221.469C297.472 222.682 296.877 223.795 296.003 224.669C295.129 225.543 294.015 226.139 292.803 226.38C291.591 226.621 290.334 226.497 289.192 226.024C288.05 225.551 287.074 224.75 286.387 223.722C285.7 222.694 285.334 221.486 285.334 220.25C285.334 218.592 285.992 217.003 287.164 215.831C288.336 214.658 289.926 214 291.584 214ZM272.834 259.833L285.334 239L297.834 251.5L314.5 226.5L331.167 259.833H272.834Z" fill="white"/>
<defs>
<filter id="filter0_d" x="0" y="0" width="326" height="267" filterUnits="userSpaceOnUse" color-interpolation-filters="sRGB">
<feFlood flood-opacity="0" result="BackgroundImageFix"/>
<feColorMatrix in="SourceAlpha" type="matrix" values="0 0 0 0 0 0 0 0 0 0 0 0 0 0 0 0 0 0 127 0"/>
<feOffset dy="4"/>
<feGaussianBlur stdDeviation="12"/>
<feColorMatrix type="matrix" values="0 0 0 0 0.135086 0 0 0 0 0.204976 0 0 0 0 0.340522 0 0 0 0.08 0"/>
<feBlend mode="normal" in2="BackgroundImageFix" result="effect1_dropShadow"/>
<feBlend mode="normal" in="SourceGraphic" in2="effect1_dropShadow" result="shape"/>
</filter>
<filter id="filter1_d" x="106" y="115" width="392" height="283" filterUnits="userSpaceOnUse" color-interpolation-filters="sRGB">
<feFlood flood-opacity="0" result="BackgroundImageFix"/>
<feColorMatrix in="SourceAlpha" type="matrix" values="0 0 0 0 0 0 0 0 0 0 0 0 0 0 0 0 0 0 127 0"/>
<feOffset dy="4"/>
<feGaussianBlur stdDeviation="12"/>
<feColorMatrix type="matrix" values="0 0 0 0 0.135086 0 0 0 0 0.204976 0 0 0 0 0.340522 0 0 0 0.08 0"/>
<feBlend mode="normal" in2="BackgroundImageFix" result="effect1_dropShadow"/>
<feBlend mode="normal" in="SourceGraphic" in2="effect1_dropShadow" result="shape"/>
</filter>
</defs>
</svg>
