<svg width="269" height="172" viewBox="0 0 269 172" fill="none" xmlns="http://www.w3.org/2000/svg">
<rect width="128" height="80" rx="6" fill="url(#paint0_linear)"/>
<path d="M14.56 15.96V17.325H18.715V19.275H15.52V25.545H16.945V24.81H22.06V25.53H23.47V19.275H20.17V17.325H24.355V15.96H20.17V13.77C21.52 13.575 22.705 13.29 23.74 12.93L23.035 11.73C20.815 12.45 18.085 12.81 14.83 12.81L15.28 14.085C16.495 14.085 17.635 14.025 18.715 13.935V15.96H14.56ZM16.945 23.475V20.61H22.06V23.475H16.945ZM12.025 11.85L11.05 12.765C12.145 13.485 13 14.16 13.6 14.775L14.575 13.815C13.87 13.155 13.015 12.495 12.025 11.85ZM11.68 15.42L10.675 16.395C11.785 17.19 12.655 17.925 13.27 18.615L14.26 17.625C13.57 16.89 12.7 16.155 11.68 15.42ZM13.135 19.455C12.52 21.255 11.785 23.01 10.93 24.735L12.355 25.365C13.105 23.685 13.81 21.885 14.44 19.965L13.135 19.455ZM26.575 12.63V13.995H32.155V12.63H26.575ZM26.02 16.68V18.06H27.94C27.25 20.58 26.71 22.125 26.305 22.71C26.245 22.755 26.155 22.8 26.005 22.83L26.35 24.18C28.18 23.85 29.875 23.415 31.45 22.875L31.84 23.835L33.07 23.205C32.44 21.69 31.78 20.295 31.09 19.035L29.89 19.62C30.235 20.265 30.58 20.955 30.925 21.69C29.92 22.065 28.915 22.365 27.925 22.575C28.315 21.615 28.78 20.115 29.32 18.06H32.695V16.68H26.02ZM34.735 11.745V14.655H32.83V16.035H34.735V16.17C34.705 20.085 33.775 22.92 31.96 24.69L33.025 25.635C35.065 23.64 36.1 20.49 36.145 16.17V16.035H38.005C37.975 20.025 37.93 22.38 37.84 23.085C37.72 23.805 37.345 24.165 36.685 24.165C36.295 24.165 35.83 24.135 35.29 24.09L35.62 25.35C36.22 25.38 36.64 25.41 36.88 25.41C38.245 25.41 39.01 24.84 39.175 23.7C39.31 22.56 39.385 19.545 39.385 14.655H36.145V11.745H34.735ZM41.395 12.18V13.41H45.805V14.37H42.445V17.91H53.755V14.37H50.395V13.41H54.805V12.18H41.395ZM49.045 14.37H47.155V13.41H49.045V14.37ZM52.39 16.755H50.395V15.54H52.39V16.755ZM49.045 16.755H47.155V15.54H49.045V16.755ZM45.805 16.755H43.81V15.54H45.805V16.755ZM43.135 18.78V19.95H53.155V18.78H43.135ZM41.635 20.775V21.99H47.575V23.73C47.575 24.105 47.38 24.3 46.99 24.3C46.615 24.3 46.225 24.27 45.805 24.225L46.075 25.485H47.455C48.445 25.485 48.955 24.99 48.955 24.03V21.99H54.565V20.775H41.635ZM51.31 22.29L50.365 23.19C51.805 23.97 52.93 24.69 53.725 25.365L54.715 24.375C53.785 23.685 52.66 22.98 51.31 22.29ZM45.19 22.32C44.215 23.055 43.015 23.7 41.605 24.255L42.46 25.365C43.9 24.735 45.13 24 46.12 23.16L45.19 22.32ZM60.865 11.64C60.25 13.095 59.065 14.325 57.31 15.33L58.18 16.47C58.795 16.095 59.35 15.69 59.86 15.255C60.475 15.765 61.135 16.245 61.855 16.665C60.295 17.25 58.495 17.67 56.485 17.925L57.145 19.26C59.515 18.9 61.615 18.315 63.415 17.505C65.275 18.39 67.375 18.96 69.7 19.23L70.345 17.895C68.365 17.715 66.58 17.31 64.975 16.71C66.25 15.96 67.345 15.06 68.245 14.025V12.87H61.825C62.005 12.555 62.17 12.21 62.32 11.85L60.865 11.64ZM63.4 16.005C62.455 15.525 61.585 14.955 60.805 14.31C60.82 14.28 60.85 14.25 60.895 14.205H66.16C65.35 14.895 64.435 15.495 63.4 16.005ZM62.32 18.42C62.32 18.96 62.26 19.47 62.17 19.95H57.52V21.225H61.735C61.645 21.42 61.525 21.615 61.405 21.81C60.655 22.845 59.05 23.715 56.605 24.435L57.55 25.59C60.325 24.705 62.08 23.595 62.83 22.245C63.01 21.93 63.16 21.585 63.295 21.225H67.36C67.315 22.545 67.195 23.37 67 23.685C66.805 23.985 66.325 24.15 65.56 24.165C65.08 24.135 64.45 24.105 63.67 24.075L64.03 25.365C64.75 25.41 65.38 25.44 65.89 25.44C66.94 25.44 67.69 25.17 68.11 24.66C68.53 24.15 68.755 22.575 68.785 19.95H63.61C63.685 19.47 63.73 18.96 63.73 18.42H62.32Z" fill="white"/>
<path d="M113.317 58.4031L109.529 57.4564C109.393 57.4225 109.269 57.3505 109.172 57.2489C109.075 57.1472 109.009 57.0201 108.982 56.8824L108.698 55.4558C109.473 55.102 110.129 54.5333 110.59 53.8173C111.05 53.1012 111.295 52.2679 111.296 51.4166V49.3811C111.314 48.2025 110.876 47.0625 110.074 46.1994C109.271 45.3364 108.165 44.817 106.989 44.7501C106.217 44.7267 105.453 44.9048 104.772 45.2668C104.091 45.6289 103.516 46.1623 103.104 46.8145C104.08 47.939 104.621 49.3762 104.629 50.8655C104.541 52.1385 104.843 53.4083 105.495 54.5054C105.653 54.7603 105.759 55.0446 105.805 55.3413C105.851 55.6381 105.837 55.941 105.763 56.2321C105.689 56.5231 105.557 56.7962 105.375 57.035C105.193 57.2738 104.965 57.4733 104.703 57.6216L104.906 57.6794C105.679 57.9028 106.358 58.3707 106.843 59.0128C107.327 59.6548 107.59 60.4366 107.592 61.2408V64.0089C107.59 64.2618 107.544 64.5124 107.456 64.7496H114.259C114.455 64.7496 114.644 64.6716 114.783 64.5327C114.921 64.3937 115 64.2053 115 64.0089V60.5586C114.999 60.0631 114.834 59.5819 114.529 59.1913C114.224 58.8008 113.797 58.5233 113.317 58.4031Z" fill="white" fill-opacity="0.9"/>
<path d="M104.5 59.1038L101.304 58.1912C101.188 58.1579 101.081 58.0966 100.994 58.0127C100.907 57.9287 100.842 57.8247 100.804 57.7097L100.551 56.9372C101.716 57.0131 102.882 56.8099 103.953 56.3446C104.043 56.2966 104.123 56.2304 104.187 56.1503C104.251 56.0701 104.298 55.9777 104.325 55.8786C104.351 55.7796 104.357 55.6762 104.342 55.5748C104.327 55.4733 104.292 55.3761 104.237 55.289C103.44 53.9581 103.061 52.4187 103.148 50.8699C103.165 49.6981 102.731 48.5645 101.938 47.7024C101.144 46.8403 100.05 46.3152 98.8804 46.2352C98.2824 46.2114 97.6858 46.3087 97.1263 46.5212C96.5668 46.7337 96.056 47.0569 95.6245 47.4716C95.193 47.8863 94.8497 48.3839 94.6152 48.9345C94.3807 49.4851 94.2598 50.0774 94.2598 50.6758C94.3739 52.2891 93.9936 53.8989 93.1694 55.2905C93.1155 55.3775 93.0801 55.4747 93.0653 55.576C93.0506 55.6773 93.0568 55.7805 93.0836 55.8793C93.1104 55.9781 93.1573 56.0703 93.2212 56.1502C93.2852 56.2301 93.3648 56.296 93.4553 56.3438C94.5261 56.8092 95.6924 57.0123 96.8575 56.9364L96.6042 57.7127C96.5665 57.8277 96.5012 57.9317 96.4141 58.0156C96.3269 58.0996 96.2205 58.1609 96.1042 58.1942L92.9087 59.1038C92.4443 59.2364 92.0358 59.5168 91.7449 59.9024C91.4541 60.2879 91.2968 60.7578 91.2969 61.2408V64.0088C91.2969 64.2053 91.3749 64.3937 91.5138 64.5326C91.6527 64.6715 91.8411 64.7496 92.0376 64.7496H105.371C105.567 64.7496 105.755 64.6715 105.894 64.5326C106.033 64.3937 106.111 64.2053 106.111 64.0088V61.2408C106.111 60.7578 105.954 60.2879 105.663 59.9024C105.372 59.5168 104.964 59.2364 104.5 59.1038Z" fill="white" fill-opacity="0.9"/>
<rect x="141" width="128" height="80" rx="6" fill="url(#paint1_linear)"/>
<path d="M153.88 17.025H155.98V19.215H153.88V17.025ZM155.98 15.75H153.88V13.53H155.98V15.75ZM153.85 20.505H155.98V23.52C155.98 24.045 155.815 24.315 155.5 24.315C155.14 24.315 154.765 24.285 154.345 24.24L154.69 25.5H155.89C156.805 25.5 157.27 24.99 157.27 23.97V12.24H152.605V19.605C152.59 21.63 152.29 23.295 151.69 24.6L152.77 25.575C153.385 24.24 153.745 22.545 153.85 20.505ZM159.625 19.02H159.82C160.15 20.415 160.75 21.675 161.62 22.785C161.065 23.415 160.405 23.955 159.625 24.375V19.02ZM159.625 24.42L160.36 25.53C161.2 25.08 161.935 24.51 162.55 23.82C163.18 24.435 163.93 25.005 164.785 25.515L165.49 24.315C164.68 23.835 163.96 23.31 163.345 22.725C163.975 21.69 164.425 20.43 164.695 18.96V17.76H159.625V13.53H163.225C163.195 14.535 163.135 15.165 163.045 15.42C162.955 15.63 162.835 15.765 162.685 15.81C162.535 15.855 162.295 15.885 161.98 15.885C161.56 15.885 161.23 15.87 160.99 15.87L161.365 17.07H162.625C163.585 17.07 164.155 16.755 164.335 16.125C164.515 15.48 164.605 14.19 164.605 12.24H158.29V25.56H159.625V24.42ZM161.035 19.02H163.435C163.195 20.01 162.85 20.895 162.4 21.675C161.785 20.88 161.335 19.995 161.035 19.02ZM171.265 11.64C170.65 13.095 169.465 14.325 167.71 15.33L168.58 16.47C169.195 16.095 169.75 15.69 170.26 15.255C170.875 15.765 171.535 16.245 172.255 16.665C170.695 17.25 168.895 17.67 166.885 17.925L167.545 19.26C169.915 18.9 172.015 18.315 173.815 17.505C175.675 18.39 177.775 18.96 180.1 19.23L180.745 17.895C178.765 17.715 176.98 17.31 175.375 16.71C176.65 15.96 177.745 15.06 178.645 14.025V12.87H172.225C172.405 12.555 172.57 12.21 172.72 11.85L171.265 11.64ZM173.8 16.005C172.855 15.525 171.985 14.955 171.205 14.31C171.22 14.28 171.25 14.25 171.295 14.205H176.56C175.75 14.895 174.835 15.495 173.8 16.005ZM172.72 18.42C172.72 18.96 172.66 19.47 172.57 19.95H167.92V21.225H172.135C172.045 21.42 171.925 21.615 171.805 21.81C171.055 22.845 169.45 23.715 167.005 24.435L167.95 25.59C170.725 24.705 172.48 23.595 173.23 22.245C173.41 21.93 173.56 21.585 173.695 21.225H177.76C177.715 22.545 177.595 23.37 177.4 23.685C177.205 23.985 176.725 24.15 175.96 24.165C175.48 24.135 174.85 24.105 174.07 24.075L174.43 25.365C175.15 25.41 175.78 25.44 176.29 25.44C177.34 25.44 178.09 25.17 178.51 24.66C178.93 24.15 179.155 22.575 179.185 19.95H174.01C174.085 19.47 174.13 18.96 174.13 18.42H172.72ZM188.47 12.21V13.545H191.62C191.56 14.01 191.5 14.46 191.41 14.91H188.905V22.14H190.24V16.17H194.185V22.14H195.52V14.91H192.775C192.865 14.475 192.955 14.025 193.015 13.545H195.955V12.21H188.47ZM193.435 22.08L192.535 22.965C193.645 23.88 194.5 24.735 195.115 25.53L196.105 24.54C195.385 23.73 194.485 22.905 193.435 22.08ZM191.485 16.92V19.575C191.44 20.79 191.17 21.78 190.675 22.545C190.15 23.265 189.175 23.85 187.765 24.315L188.545 25.53C190.015 25.035 191.095 24.345 191.755 23.445C192.43 22.485 192.805 21.195 192.865 19.575V16.92H191.485ZM183.985 14.16L182.935 14.82C183.685 15.54 184.315 16.215 184.855 16.845H182.215V18.165H184.255V23.775C184.255 24.105 184.12 24.27 183.88 24.27C183.46 24.27 183.04 24.24 182.59 24.18L182.875 25.47H184.345C185.185 25.47 185.605 25.005 185.605 24.105V18.165H186.835C186.64 18.87 186.415 19.485 186.16 20.01L187.33 20.46C187.66 19.8 187.93 18.885 188.17 17.715V16.845H186.4C186.22 16.62 186.025 16.38 185.815 16.11C186.505 15.345 187.15 14.415 187.75 13.32V12.21H182.635V13.53H186.235C185.845 14.145 185.44 14.7 184.99 15.195C184.69 14.865 184.345 14.52 183.985 14.16ZM202.615 12.45V13.83H206.92V23.565C206.92 23.955 206.725 24.165 206.335 24.165C205.765 24.165 205.15 24.12 204.52 24.06L204.835 25.455H206.83C207.85 25.455 208.36 24.945 208.36 23.925V13.83H211.39V12.45H202.615ZM199.51 11.805L198.505 12.78C199.57 13.575 200.395 14.325 200.995 15.015L201.97 14.025C201.295 13.29 200.47 12.555 199.51 11.805ZM197.515 16.17V17.535H199.615V23.055C199.615 23.355 199.48 23.61 199.225 23.82L199.765 25.095C200.905 24.405 201.985 23.61 202.99 22.71L202.615 21.21C202.045 21.735 201.49 22.2 200.98 22.62V16.17H197.515Z" fill="white"/>
<path d="M250 51C247.1 51 244 53.2 244 57C244 60.4 248.8 65.3 249.3 65.8C249.5 66 249.8 66.1 250 66.1C250.2 66.1 250.5 66 250.7 65.8C251.2 65.3 256 60.4 256 57C256 53.2 252.9 51 250 51ZM250 59C248.9 59 248 58.1 248 57C248 55.9 248.9 55 250 55C251.1 55 252 55.9 252 57C252 58.1 251.1 59 250 59Z" fill="white" fill-opacity="0.9"/>
<path d="M238 53.9C238.6 54.6 239.5 55 240.5 55C241.2 55 241.8 54.8 242.4 54.4C243.5 51 246.8 49 250 49C251.2 49 252.4 49.3 253.5 49.8L249.9 43.5C249.7 43.2 249.4 43 249 43H237C236.6 43 236.3 43.2 236.1 43.5L232.1 50.5C232 50.7 232 50.8 232 51C232 53.4 233.4 55 235.5 55C236.5 55 237.4 54.6 238 53.9Z" fill="white" fill-opacity="0.9"/>
<path d="M242 56.9999C242 56.8999 242 56.8999 242 56.7999C241.5 56.8999 241 56.9999 240.5 56.9999C239.6 56.9999 238.8 56.7999 238 56.3999C237.2 56.7999 236.4 56.9999 235.5 56.9999C235.3 56.9999 235.2 56.9999 235 56.9999V63.9999C235 64.5999 235.4 64.9999 236 64.9999H245.9C244.1 62.8999 242 59.6999 242 56.9999Z" fill="white" fill-opacity="0.9"/>
<path d="M0 98C0 94.6863 2.72893 92 6.09524 92H121.905C125.271 92 128 94.6863 128 98V166C128 169.314 125.271 172 121.905 172H6.09524C2.72893 172 0 169.314 0 166V98Z" fill="url(#paint2_linear)"/>
<path d="M17.2653 103.667C15.9647 105.042 13.9914 105.969 11.3454 106.447L12.1826 107.748C13.7522 107.404 15.1126 106.896 16.2786 106.208H20.3C19.5077 107.27 18.4164 108.092 17.0411 108.675C16.5926 108.137 16.1142 107.628 15.6209 107.15L14.3951 107.733C14.8435 108.152 15.292 108.615 15.7106 109.123C14.7239 109.392 13.6027 109.557 12.347 109.632L12.945 110.917C17.3251 110.559 20.3149 108.929 21.9294 106.059V104.953H17.938C18.1323 104.758 18.3267 104.549 18.536 104.325L17.2653 103.667ZM17.0261 113.01L15.7704 113.608C16.2637 114.087 16.7421 114.64 17.2055 115.238C15.576 115.746 13.6326 116 11.3753 116L11.9434 117.36C17.7736 117.211 21.75 115.387 23.8878 111.889V110.783H20.0757C20.3747 110.544 20.6737 110.274 20.9428 109.99L19.7319 109.333C18.2071 110.947 15.8003 111.904 12.5414 112.218L13.3935 113.489C15.1425 113.145 16.6673 112.666 17.9679 112.068H22.064C21.1969 113.19 20.0159 114.072 18.5509 114.729C18.0725 114.116 17.5643 113.548 17.0261 113.01ZM32.1995 103.712C30.4654 105.67 28.2828 107.3 25.6667 108.615L26.4291 109.99C27.356 109.482 28.223 108.944 29.0303 108.376V109.557H36.46V108.436C37.2374 109.004 38.0596 109.512 38.9565 109.975L39.7339 108.6C37.2822 107.404 35.1295 105.775 33.2459 103.712H32.1995ZM29.2545 108.211C30.5999 107.24 31.751 106.163 32.7227 104.982C33.7243 106.178 34.8754 107.255 36.161 108.211H29.2545ZM26.6833 111.216V112.592H30.1814C29.6133 113.638 28.9256 114.625 28.1184 115.566C27.9689 115.731 27.7297 115.865 27.3859 115.955L27.7745 117.181C31.2726 116.972 34.1877 116.688 36.5048 116.329C36.7889 116.733 37.058 117.136 37.3121 117.525L38.4931 116.688C37.7456 115.596 36.6992 114.311 35.3388 112.831L34.2326 113.533C34.7707 114.131 35.2641 114.714 35.7125 115.297C33.7094 115.537 31.6464 115.716 29.4937 115.836C30.3757 114.909 31.1531 113.832 31.8258 112.592H38.7921V111.216H26.6833ZM47.1486 117.375C48.3446 117.375 48.9575 116.747 48.9575 115.492V103.966H47.4775V115.118C47.4775 115.701 47.1785 116 46.6105 116C45.9826 116 45.3248 115.955 44.6073 115.895L44.9511 117.375H47.1486ZM43.4562 107.434C42.9031 110.035 42.051 112.113 40.9148 113.668L42.1556 114.759C43.2768 113.205 44.1887 110.947 44.8764 108.002L43.4562 107.434ZM52.4556 107.06L51.155 107.868C52.2015 110.439 53.0386 112.756 53.6665 114.834L54.9521 113.952C54.3691 111.979 53.5319 109.691 52.4556 107.06ZM62.621 104.235V108.765H69.1837V104.235H62.621ZM67.8084 107.494H64.0113V105.491H67.8084V107.494ZM62.1576 109.916V111.201H65.1026V112.756H62.5014V114.027H65.1026V115.686H61.5895V117.031H70.0358V115.686H66.5377V114.027H69.2136V112.756H66.5377V111.201H69.677V109.916H62.1576ZM56.5666 107.718V109.079H58.4652C57.9868 110.588 57.2393 111.934 56.1929 113.13L56.8207 114.714C57.5533 113.668 58.1512 112.502 58.6296 111.246V117.48H59.99V111.052C60.3487 111.56 60.7524 112.203 61.2307 112.98L62.0231 111.784C61.3354 111.037 60.6627 110.334 59.99 109.706V109.079H61.7091V107.718H59.99V105.685C60.7075 105.551 61.3802 105.401 62.0231 105.222L61.5297 103.876C60.0797 104.325 58.4353 104.639 56.5816 104.788L56.8656 106.119C57.4636 106.059 58.0615 105.984 58.6296 105.909V107.718H56.5666ZM79.2295 103.652L77.7944 103.891C77.9887 104.19 78.1681 104.519 78.3326 104.863H72.7864V109.662C72.7565 112.621 72.338 114.924 71.5307 116.583L72.6071 117.54C73.6086 115.566 74.1319 112.935 74.1917 109.662V106.178H85.1045V104.863H79.7826C79.6033 104.414 79.4089 104.011 79.2295 103.652ZM77.7944 108.765L76.9573 109.587C77.9738 110.095 78.8558 110.588 79.5734 111.067H74.67V112.367H78.9455V115.731C78.9455 116.12 78.7512 116.329 78.3924 116.329C77.7346 116.329 77.0619 116.284 76.3443 116.224L76.6433 117.57H78.8707C79.8574 117.57 80.3507 117.061 80.3507 116.06V112.367H83.3405C82.8622 113.1 82.339 113.713 81.7709 114.221L82.8323 115.073C83.5797 114.296 84.2524 113.339 84.8803 112.173V111.067H81.0533L81.2477 110.872L80.7543 110.514C81.8008 109.856 82.7575 109.049 83.6545 108.122V107.105H75.5371V108.316H81.8755C81.2028 108.884 80.4853 109.378 79.7079 109.826C79.1249 109.467 78.4821 109.123 77.7944 108.765Z" fill="white"/>
<path d="M97.8334 148.234C97.0259 148.636 92.0559 150.711 95.4939 154.042C97.3604 155.906 100.488 154.728 101.243 152.931C101.344 151.672 101.342 142.523 101.342 141.264C101.342 140.004 105.087 133.276 111.919 137.097C111.919 137.097 119.605 141.58 110.698 148.814C110.698 148.814 107.654 149.06 108.359 146.491C108.259 145.735 112.07 143.984 111.566 141.566C110.758 138.695 106.066 137.857 104.851 141.465V152.88C104.899 154.483 101.725 159.744 95.1539 157.527C95.1539 157.527 90.7671 155.656 91.0097 150.943C91.2044 148.805 93.2256 146.189 95.4939 145.33C98.0167 144.625 98.9433 147.126 97.8334 148.234Z" fill="white" fill-opacity="0.9"/>
<rect x="141" y="92" width="128" height="80" rx="6" fill="url(#paint3_linear)"/>
<path d="M152.002 104.25V105.58H157.772V106.612H153.242V112.756H157.533C157.383 113.354 157.159 113.877 156.89 114.296C156.143 113.907 155.44 113.474 154.797 112.965L153.706 113.713C154.364 114.266 155.096 114.774 155.903 115.223C154.947 115.806 153.511 116.149 151.598 116.269L152.211 117.57C154.528 117.301 156.217 116.747 157.294 115.91C159.506 116.897 162.107 117.45 165.097 117.585L165.456 116.209C162.675 116.12 160.268 115.686 158.205 114.879C158.549 114.326 158.803 113.623 158.968 112.756H163.752V106.612H159.177V105.58H164.963V104.25H152.002ZM162.346 111.515H159.132C159.162 111.231 159.177 110.932 159.177 110.603V110.245H162.346V111.515ZM157.727 111.515H154.648V110.245H157.772V110.603C157.772 110.902 157.757 111.216 157.727 111.515ZM154.648 109.079V107.823H157.772V109.079H154.648ZM159.177 107.823H162.346V109.079H159.177V107.823ZM173.513 103.667C172.213 105.042 170.24 105.969 167.594 106.447L168.431 107.748C170 107.404 171.361 106.896 172.527 106.208H176.548C175.756 107.27 174.665 108.092 173.289 108.675C172.841 108.137 172.362 107.628 171.869 107.15L170.643 107.733C171.092 108.152 171.54 108.615 171.959 109.123C170.972 109.392 169.851 109.557 168.595 109.632L169.193 110.917C173.573 110.559 176.563 108.929 178.178 106.059V104.953H174.186C174.38 104.758 174.575 104.549 174.784 104.325L173.513 103.667ZM173.274 113.01L172.019 113.608C172.512 114.087 172.99 114.64 173.454 115.238C171.824 115.746 169.881 116 167.623 116L168.192 117.36C174.022 117.211 177.998 115.387 180.136 111.889V110.783H176.324C176.623 110.544 176.922 110.274 177.191 109.99L175.98 109.333C174.455 110.947 172.048 111.904 168.789 112.218L169.642 113.489C171.391 113.145 172.915 112.666 174.216 112.068H178.312C177.445 113.19 176.264 114.072 174.799 114.729C174.321 114.116 173.812 113.548 173.274 113.01ZM184.262 106.657V113.474C183.529 113.638 182.797 113.788 182.049 113.907L182.408 115.342C184.352 114.924 186.175 114.4 187.895 113.788V112.367C187.162 112.636 186.429 112.876 185.682 113.1V106.657H187.715V105.296H182.229V106.657H184.262ZM190.256 103.787V106.687H187.999V108.062H190.256V108.107C190.227 112.024 189.15 114.864 187.027 116.628L188.193 117.659C190.466 115.626 191.632 112.442 191.692 108.107V108.062H194.054C194.024 112.038 193.979 114.371 193.889 115.073C193.755 115.746 193.261 116.09 192.394 116.09C191.976 116.09 191.467 116.06 190.869 116.015L191.213 117.345C191.886 117.39 192.364 117.42 192.633 117.42C194.158 117.42 195.025 116.852 195.22 115.731C195.369 114.58 195.444 111.56 195.444 106.687H191.692V103.787H190.256ZM199.615 112.502H202.694V113.593H199.615V112.502ZM202.694 111.336H199.615V110.185H202.694V111.336ZM199.615 114.774H202.694V115.611C202.694 116 202.515 116.194 202.171 116.194L201.11 116.135L201.453 117.465H202.619C203.576 117.465 204.069 116.942 204.069 115.91V108.944H198.239V117.57H199.615V114.774ZM209.167 110.364C209.705 110.364 210.109 110.245 210.378 110.02C210.647 109.766 210.856 109.019 210.976 107.778L209.646 107.344C209.616 108.182 209.526 108.69 209.406 108.869C209.302 109.019 209.137 109.093 208.898 109.093H207.119C206.76 109.093 206.581 108.839 206.581 108.361V106.866C208.181 106.627 209.586 106.358 210.812 106.074L210.348 104.818C209.376 105.087 208.121 105.326 206.581 105.565V103.801H205.176V108.66C205.176 109.796 205.684 110.364 206.73 110.364H209.167ZM206.581 113.817C208.076 113.668 209.496 113.429 210.812 113.07L210.348 111.799C209.242 112.128 207.986 112.382 206.581 112.532V110.887H205.176V115.955C205.176 116.852 205.684 117.316 206.701 117.316H209.182C209.735 117.316 210.139 117.196 210.393 116.972C210.662 116.733 210.856 115.985 210.976 114.729L209.69 114.311C209.646 115.148 209.556 115.656 209.436 115.836C209.332 115.97 209.152 116.045 208.913 116.045H207.104C206.745 116.045 206.581 115.91 206.581 115.641V113.817ZM202.993 104.788L201.902 105.476C202.201 105.909 202.485 106.328 202.754 106.746C201.543 106.896 200.407 107.016 199.361 107.075C200.138 106.328 200.84 105.356 201.468 104.13L200.108 103.727C199.63 104.743 198.927 105.76 198.015 106.776C197.836 106.926 197.626 107.045 197.372 107.135L197.761 108.316C199.944 108.197 201.812 108.017 203.367 107.778C203.546 108.092 203.711 108.406 203.86 108.705L205.026 107.868C204.548 107.001 203.875 105.969 202.993 104.788Z" fill="white"/>
<circle cx="230" cy="152" r="3" fill="#FAFAFA"/>
<circle cx="240.846" cy="152" r="3" fill="#FAFAFA"/>
<circle cx="251.692" cy="152" r="3" fill="#FAFAFA"/>
<defs>
<linearGradient id="paint0_linear" x1="80.254" y1="88.5" x2="39.2202" y2="-13.4528" gradientUnits="userSpaceOnUse">
<stop stop-color="#4397F9"/>
<stop offset="1" stop-color="#77C4FD"/>
</linearGradient>
<linearGradient id="paint1_linear" x1="221.254" y1="88.5" x2="180.22" y2="-13.4528" gradientUnits="userSpaceOnUse">
<stop stop-color="#13BB88"/>
<stop offset="1" stop-color="#64D2B8"/>
</linearGradient>
<linearGradient id="paint2_linear" x1="80.254" y1="180.5" x2="39.2202" y2="78.5472" gradientUnits="userSpaceOnUse">
<stop stop-color="#5D5AD8"/>
<stop offset="1" stop-color="#858EE0"/>
</linearGradient>
<linearGradient id="paint3_linear" x1="221.254" y1="180.5" x2="180.22" y2="78.5472" gradientUnits="userSpaceOnUse">
<stop stop-color="#B5C8ED"/>
<stop offset="1" stop-color="#D1DBF0"/>
</linearGradient>
</defs>
</svg>
