<svg width="327" height="226" viewBox="0 0 327 226" fill="none" xmlns="http://www.w3.org/2000/svg">
<g filter="url(#filter0_d)">
<path d="M15 14C15 7.37258 20.3726 2 27 2H335C341.627 2 347 7.37258 347 14V208C347 214.627 341.627 220 335 220H27C20.3726 220 15 214.627 15 208V14Z" fill="#E4EDFA"/>
</g>
<rect y="23" width="128" height="80" rx="6" fill="url(#paint0_linear)"/>
<path d="M14.56 38.96V40.325H18.715V42.275H15.52V48.545H16.945V47.81H22.06V48.53H23.47V42.275H20.17V40.325H24.355V38.96H20.17V36.77C21.52 36.575 22.705 36.29 23.74 35.93L23.035 34.73C20.815 35.45 18.085 35.81 14.83 35.81L15.28 37.085C16.495 37.085 17.635 37.025 18.715 36.935V38.96H14.56ZM16.945 46.475V43.61H22.06V46.475H16.945ZM12.025 34.85L11.05 35.765C12.145 36.485 13 37.16 13.6 37.775L14.575 36.815C13.87 36.155 13.015 35.495 12.025 34.85ZM11.68 38.42L10.675 39.395C11.785 40.19 12.655 40.925 13.27 41.615L14.26 40.625C13.57 39.89 12.7 39.155 11.68 38.42ZM13.135 42.455C12.52 44.255 11.785 46.01 10.93 47.735L12.355 48.365C13.105 46.685 13.81 44.885 14.44 42.965L13.135 42.455ZM26.575 35.63V36.995H32.155V35.63H26.575ZM26.02 39.68V41.06H27.94C27.25 43.58 26.71 45.125 26.305 45.71C26.245 45.755 26.155 45.8 26.005 45.83L26.35 47.18C28.18 46.85 29.875 46.415 31.45 45.875L31.84 46.835L33.07 46.205C32.44 44.69 31.78 43.295 31.09 42.035L29.89 42.62C30.235 43.265 30.58 43.955 30.925 44.69C29.92 45.065 28.915 45.365 27.925 45.575C28.315 44.615 28.78 43.115 29.32 41.06H32.695V39.68H26.02ZM34.735 34.745V37.655H32.83V39.035H34.735V39.17C34.705 43.085 33.775 45.92 31.96 47.69L33.025 48.635C35.065 46.64 36.1 43.49 36.145 39.17V39.035H38.005C37.975 43.025 37.93 45.38 37.84 46.085C37.72 46.805 37.345 47.165 36.685 47.165C36.295 47.165 35.83 47.135 35.29 47.09L35.62 48.35C36.22 48.38 36.64 48.41 36.88 48.41C38.245 48.41 39.01 47.84 39.175 46.7C39.31 45.56 39.385 42.545 39.385 37.655H36.145V34.745H34.735ZM41.395 35.18V36.41H45.805V37.37H42.445V40.91H53.755V37.37H50.395V36.41H54.805V35.18H41.395ZM49.045 37.37H47.155V36.41H49.045V37.37ZM52.39 39.755H50.395V38.54H52.39V39.755ZM49.045 39.755H47.155V38.54H49.045V39.755ZM45.805 39.755H43.81V38.54H45.805V39.755ZM43.135 41.78V42.95H53.155V41.78H43.135ZM41.635 43.775V44.99H47.575V46.73C47.575 47.105 47.38 47.3 46.99 47.3C46.615 47.3 46.225 47.27 45.805 47.225L46.075 48.485H47.455C48.445 48.485 48.955 47.99 48.955 47.03V44.99H54.565V43.775H41.635ZM51.31 45.29L50.365 46.19C51.805 46.97 52.93 47.69 53.725 48.365L54.715 47.375C53.785 46.685 52.66 45.98 51.31 45.29ZM45.19 45.32C44.215 46.055 43.015 46.7 41.605 47.255L42.46 48.365C43.9 47.735 45.13 47 46.12 46.16L45.19 45.32ZM60.865 34.64C60.25 36.095 59.065 37.325 57.31 38.33L58.18 39.47C58.795 39.095 59.35 38.69 59.86 38.255C60.475 38.765 61.135 39.245 61.855 39.665C60.295 40.25 58.495 40.67 56.485 40.925L57.145 42.26C59.515 41.9 61.615 41.315 63.415 40.505C65.275 41.39 67.375 41.96 69.7 42.23L70.345 40.895C68.365 40.715 66.58 40.31 64.975 39.71C66.25 38.96 67.345 38.06 68.245 37.025V35.87H61.825C62.005 35.555 62.17 35.21 62.32 34.85L60.865 34.64ZM63.4 39.005C62.455 38.525 61.585 37.955 60.805 37.31C60.82 37.28 60.85 37.25 60.895 37.205H66.16C65.35 37.895 64.435 38.495 63.4 39.005ZM62.32 41.42C62.32 41.96 62.26 42.47 62.17 42.95H57.52V44.225H61.735C61.645 44.42 61.525 44.615 61.405 44.81C60.655 45.845 59.05 46.715 56.605 47.435L57.55 48.59C60.325 47.705 62.08 46.595 62.83 45.245C63.01 44.93 63.16 44.585 63.295 44.225H67.36C67.315 45.545 67.195 46.37 67 46.685C66.805 46.985 66.325 47.15 65.56 47.165C65.08 47.135 64.45 47.105 63.67 47.075L64.03 48.365C64.75 48.41 65.38 48.44 65.89 48.44C66.94 48.44 67.69 48.17 68.11 47.66C68.53 47.15 68.755 45.575 68.785 42.95H63.61C63.685 42.47 63.73 41.96 63.73 41.42H62.32Z" fill="white"/>
<path d="M113.317 81.4031L109.529 80.4564C109.393 80.4225 109.269 80.3505 109.172 80.2489C109.075 80.1472 109.009 80.0201 108.982 79.8824L108.698 78.4558C109.473 78.102 110.129 77.5333 110.59 76.8173C111.05 76.1012 111.295 75.2679 111.296 74.4166V72.3811C111.314 71.2025 110.876 70.0625 110.074 69.1994C109.271 68.3364 108.165 67.817 106.989 67.7501C106.217 67.7267 105.453 67.9048 104.772 68.2668C104.091 68.6289 103.516 69.1623 103.104 69.8145C104.08 70.939 104.621 72.3762 104.629 73.8655C104.541 75.1385 104.843 76.4083 105.495 77.5054C105.653 77.7603 105.759 78.0446 105.805 78.3413C105.851 78.6381 105.837 78.941 105.763 79.2321C105.689 79.5231 105.557 79.7962 105.375 80.035C105.193 80.2738 104.965 80.4733 104.703 80.6216L104.906 80.6794C105.679 80.9028 106.358 81.3707 106.843 82.0128C107.327 82.6548 107.59 83.4366 107.592 84.2408V87.0089C107.59 87.2618 107.544 87.5124 107.456 87.7496H114.259C114.455 87.7496 114.644 87.6716 114.783 87.5327C114.921 87.3937 115 87.2053 115 87.0089V83.5586C114.999 83.0631 114.834 82.5819 114.529 82.1913C114.224 81.8008 113.797 81.5233 113.317 81.4031Z" fill="white" fill-opacity="0.9"/>
<path d="M104.5 82.1038L101.304 81.1912C101.188 81.1579 101.081 81.0966 100.994 81.0127C100.907 80.9287 100.842 80.8247 100.804 80.7097L100.551 79.9372C101.716 80.0131 102.882 79.8099 103.953 79.3446C104.043 79.2966 104.123 79.2304 104.187 79.1503C104.251 79.0701 104.298 78.9777 104.325 78.8786C104.351 78.7796 104.357 78.6762 104.342 78.5748C104.327 78.4733 104.292 78.3761 104.237 78.289C103.44 76.9581 103.061 75.4187 103.148 73.8699C103.165 72.6981 102.731 71.5645 101.938 70.7024C101.144 69.8403 100.05 69.3152 98.8804 69.2352C98.2824 69.2114 97.6858 69.3087 97.1263 69.5212C96.5668 69.7337 96.056 70.0569 95.6245 70.4716C95.193 70.8863 94.8497 71.3839 94.6152 71.9345C94.3807 72.4851 94.2598 73.0774 94.2598 73.6758C94.3739 75.2891 93.9936 76.8989 93.1694 78.2905C93.1155 78.3775 93.0801 78.4747 93.0653 78.576C93.0506 78.6773 93.0568 78.7805 93.0836 78.8793C93.1104 78.9781 93.1573 79.0703 93.2212 79.1502C93.2852 79.2301 93.3648 79.296 93.4553 79.3438C94.5261 79.8092 95.6924 80.0123 96.8575 79.9364L96.6042 80.7127C96.5665 80.8277 96.5012 80.9317 96.4141 81.0156C96.3269 81.0996 96.2205 81.1609 96.1042 81.1942L92.9087 82.1038C92.4443 82.2364 92.0358 82.5168 91.7449 82.9024C91.4541 83.2879 91.2968 83.7578 91.2969 84.2408V87.0088C91.2969 87.2053 91.3749 87.3937 91.5138 87.5326C91.6527 87.6715 91.8411 87.7496 92.0376 87.7496H105.371C105.567 87.7496 105.755 87.6715 105.894 87.5326C106.033 87.3937 106.111 87.2053 106.111 87.0088V84.2408C106.111 83.7578 105.954 83.2879 105.663 82.9024C105.372 82.5168 104.964 82.2364 104.5 82.1038Z" fill="white" fill-opacity="0.9"/>
<rect x="141" y="23" width="128" height="80" rx="6" fill="url(#paint1_linear)"/>
<path d="M153.88 40.025H155.98V42.215H153.88V40.025ZM155.98 38.75H153.88V36.53H155.98V38.75ZM153.85 43.505H155.98V46.52C155.98 47.045 155.815 47.315 155.5 47.315C155.14 47.315 154.765 47.285 154.345 47.24L154.69 48.5H155.89C156.805 48.5 157.27 47.99 157.27 46.97V35.24H152.605V42.605C152.59 44.63 152.29 46.295 151.69 47.6L152.77 48.575C153.385 47.24 153.745 45.545 153.85 43.505ZM159.625 42.02H159.82C160.15 43.415 160.75 44.675 161.62 45.785C161.065 46.415 160.405 46.955 159.625 47.375V42.02ZM159.625 47.42L160.36 48.53C161.2 48.08 161.935 47.51 162.55 46.82C163.18 47.435 163.93 48.005 164.785 48.515L165.49 47.315C164.68 46.835 163.96 46.31 163.345 45.725C163.975 44.69 164.425 43.43 164.695 41.96V40.76H159.625V36.53H163.225C163.195 37.535 163.135 38.165 163.045 38.42C162.955 38.63 162.835 38.765 162.685 38.81C162.535 38.855 162.295 38.885 161.98 38.885C161.56 38.885 161.23 38.87 160.99 38.87L161.365 40.07H162.625C163.585 40.07 164.155 39.755 164.335 39.125C164.515 38.48 164.605 37.19 164.605 35.24H158.29V48.56H159.625V47.42ZM161.035 42.02H163.435C163.195 43.01 162.85 43.895 162.4 44.675C161.785 43.88 161.335 42.995 161.035 42.02ZM171.265 34.64C170.65 36.095 169.465 37.325 167.71 38.33L168.58 39.47C169.195 39.095 169.75 38.69 170.26 38.255C170.875 38.765 171.535 39.245 172.255 39.665C170.695 40.25 168.895 40.67 166.885 40.925L167.545 42.26C169.915 41.9 172.015 41.315 173.815 40.505C175.675 41.39 177.775 41.96 180.1 42.23L180.745 40.895C178.765 40.715 176.98 40.31 175.375 39.71C176.65 38.96 177.745 38.06 178.645 37.025V35.87H172.225C172.405 35.555 172.57 35.21 172.72 34.85L171.265 34.64ZM173.8 39.005C172.855 38.525 171.985 37.955 171.205 37.31C171.22 37.28 171.25 37.25 171.295 37.205H176.56C175.75 37.895 174.835 38.495 173.8 39.005ZM172.72 41.42C172.72 41.96 172.66 42.47 172.57 42.95H167.92V44.225H172.135C172.045 44.42 171.925 44.615 171.805 44.81C171.055 45.845 169.45 46.715 167.005 47.435L167.95 48.59C170.725 47.705 172.48 46.595 173.23 45.245C173.41 44.93 173.56 44.585 173.695 44.225H177.76C177.715 45.545 177.595 46.37 177.4 46.685C177.205 46.985 176.725 47.15 175.96 47.165C175.48 47.135 174.85 47.105 174.07 47.075L174.43 48.365C175.15 48.41 175.78 48.44 176.29 48.44C177.34 48.44 178.09 48.17 178.51 47.66C178.93 47.15 179.155 45.575 179.185 42.95H174.01C174.085 42.47 174.13 41.96 174.13 41.42H172.72ZM188.47 35.21V36.545H191.62C191.56 37.01 191.5 37.46 191.41 37.91H188.905V45.14H190.24V39.17H194.185V45.14H195.52V37.91H192.775C192.865 37.475 192.955 37.025 193.015 36.545H195.955V35.21H188.47ZM193.435 45.08L192.535 45.965C193.645 46.88 194.5 47.735 195.115 48.53L196.105 47.54C195.385 46.73 194.485 45.905 193.435 45.08ZM191.485 39.92V42.575C191.44 43.79 191.17 44.78 190.675 45.545C190.15 46.265 189.175 46.85 187.765 47.315L188.545 48.53C190.015 48.035 191.095 47.345 191.755 46.445C192.43 45.485 192.805 44.195 192.865 42.575V39.92H191.485ZM183.985 37.16L182.935 37.82C183.685 38.54 184.315 39.215 184.855 39.845H182.215V41.165H184.255V46.775C184.255 47.105 184.12 47.27 183.88 47.27C183.46 47.27 183.04 47.24 182.59 47.18L182.875 48.47H184.345C185.185 48.47 185.605 48.005 185.605 47.105V41.165H186.835C186.64 41.87 186.415 42.485 186.16 43.01L187.33 43.46C187.66 42.8 187.93 41.885 188.17 40.715V39.845H186.4C186.22 39.62 186.025 39.38 185.815 39.11C186.505 38.345 187.15 37.415 187.75 36.32V35.21H182.635V36.53H186.235C185.845 37.145 185.44 37.7 184.99 38.195C184.69 37.865 184.345 37.52 183.985 37.16ZM202.615 35.45V36.83H206.92V46.565C206.92 46.955 206.725 47.165 206.335 47.165C205.765 47.165 205.15 47.12 204.52 47.06L204.835 48.455H206.83C207.85 48.455 208.36 47.945 208.36 46.925V36.83H211.39V35.45H202.615ZM199.51 34.805L198.505 35.78C199.57 36.575 200.395 37.325 200.995 38.015L201.97 37.025C201.295 36.29 200.47 35.555 199.51 34.805ZM197.515 39.17V40.535H199.615V46.055C199.615 46.355 199.48 46.61 199.225 46.82L199.765 48.095C200.905 47.405 201.985 46.61 202.99 45.71L202.615 44.21C202.045 44.735 201.49 45.2 200.98 45.62V39.17H197.515Z" fill="white"/>
<path d="M250 74C247.1 74 244 76.2 244 80C244 83.4 248.8 88.3 249.3 88.8C249.5 89 249.8 89.1 250 89.1C250.2 89.1 250.5 89 250.7 88.8C251.2 88.3 256 83.4 256 80C256 76.2 252.9 74 250 74ZM250 82C248.9 82 248 81.1 248 80C248 78.9 248.9 78 250 78C251.1 78 252 78.9 252 80C252 81.1 251.1 82 250 82Z" fill="white" fill-opacity="0.9"/>
<path d="M238 76.9C238.6 77.6 239.5 78 240.5 78C241.2 78 241.8 77.8 242.4 77.4C243.5 74 246.8 72 250 72C251.2 72 252.4 72.3 253.5 72.8L249.9 66.5C249.7 66.2 249.4 66 249 66H237C236.6 66 236.3 66.2 236.1 66.5L232.1 73.5C232 73.7 232 73.8 232 74C232 76.4 233.4 78 235.5 78C236.5 78 237.4 77.6 238 76.9Z" fill="white" fill-opacity="0.9"/>
<path d="M242 79.9999C242 79.8999 242 79.8999 242 79.7999C241.5 79.8999 241 79.9999 240.5 79.9999C239.6 79.9999 238.8 79.7999 238 79.3999C237.2 79.7999 236.4 79.9999 235.5 79.9999C235.3 79.9999 235.2 79.9999 235 79.9999V86.9999C235 87.5999 235.4 87.9999 236 87.9999H245.9C244.1 85.8999 242 82.6999 242 79.9999Z" fill="white" fill-opacity="0.9"/>
<path d="M0 121C0 117.686 2.72893 115 6.09524 115H121.905C125.271 115 128 117.686 128 121V189C128 192.314 125.271 195 121.905 195H6.09524C2.72893 195 0 192.314 0 189V121Z" fill="url(#paint2_linear)"/>
<path d="M17.2653 126.667C15.9647 128.042 13.9914 128.969 11.3454 129.447L12.1826 130.748C13.7522 130.404 15.1126 129.896 16.2786 129.208H20.3C19.5077 130.27 18.4164 131.092 17.0411 131.675C16.5926 131.137 16.1142 130.628 15.6209 130.15L14.3951 130.733C14.8435 131.152 15.292 131.615 15.7106 132.123C14.7239 132.392 13.6027 132.557 12.347 132.632L12.945 133.917C17.3251 133.559 20.3149 131.929 21.9294 129.059V127.953H17.938C18.1323 127.758 18.3267 127.549 18.536 127.325L17.2653 126.667ZM17.0261 136.01L15.7704 136.608C16.2637 137.087 16.7421 137.64 17.2055 138.238C15.576 138.746 13.6326 139 11.3753 139L11.9434 140.36C17.7736 140.211 21.75 138.387 23.8878 134.889V133.783H20.0757C20.3747 133.544 20.6737 133.274 20.9428 132.99L19.7319 132.333C18.2071 133.947 15.8003 134.904 12.5414 135.218L13.3935 136.489C15.1425 136.145 16.6673 135.666 17.9679 135.068H22.064C21.1969 136.19 20.0159 137.072 18.5509 137.729C18.0725 137.116 17.5643 136.548 17.0261 136.01ZM32.1995 126.712C30.4654 128.67 28.2828 130.3 25.6667 131.615L26.4291 132.99C27.356 132.482 28.223 131.944 29.0303 131.376V132.557H36.46V131.436C37.2374 132.004 38.0596 132.512 38.9565 132.975L39.7339 131.6C37.2822 130.404 35.1295 128.775 33.2459 126.712H32.1995ZM29.2545 131.211C30.5999 130.24 31.751 129.163 32.7227 127.982C33.7243 129.178 34.8754 130.255 36.161 131.211H29.2545ZM26.6833 134.216V135.592H30.1814C29.6133 136.638 28.9256 137.625 28.1184 138.566C27.9689 138.731 27.7297 138.865 27.3859 138.955L27.7745 140.181C31.2726 139.972 34.1877 139.688 36.5048 139.329C36.7889 139.733 37.058 140.136 37.3121 140.525L38.4931 139.688C37.7456 138.596 36.6992 137.311 35.3388 135.831L34.2326 136.533C34.7707 137.131 35.2641 137.714 35.7125 138.297C33.7094 138.537 31.6464 138.716 29.4937 138.836C30.3757 137.909 31.1531 136.832 31.8258 135.592H38.7921V134.216H26.6833ZM47.1486 140.375C48.3446 140.375 48.9575 139.747 48.9575 138.492V126.966H47.4775V138.118C47.4775 138.701 47.1785 139 46.6105 139C45.9826 139 45.3248 138.955 44.6073 138.895L44.9511 140.375H47.1486ZM43.4562 130.434C42.9031 133.035 42.051 135.113 40.9148 136.668L42.1556 137.759C43.2768 136.205 44.1887 133.947 44.8764 131.002L43.4562 130.434ZM52.4556 130.06L51.155 130.868C52.2015 133.439 53.0386 135.756 53.6665 137.834L54.9521 136.952C54.3691 134.979 53.5319 132.691 52.4556 130.06ZM62.621 127.235V131.765H69.1837V127.235H62.621ZM67.8084 130.494H64.0113V128.491H67.8084V130.494ZM62.1576 132.916V134.201H65.1026V135.756H62.5014V137.027H65.1026V138.686H61.5895V140.031H70.0358V138.686H66.5377V137.027H69.2136V135.756H66.5377V134.201H69.677V132.916H62.1576ZM56.5666 130.718V132.079H58.4652C57.9868 133.588 57.2393 134.934 56.1929 136.13L56.8207 137.714C57.5533 136.668 58.1512 135.502 58.6296 134.246V140.48H59.99V134.052C60.3487 134.56 60.7524 135.203 61.2307 135.98L62.0231 134.784C61.3354 134.037 60.6627 133.334 59.99 132.706V132.079H61.7091V130.718H59.99V128.685C60.7075 128.551 61.3802 128.401 62.0231 128.222L61.5297 126.876C60.0797 127.325 58.4353 127.639 56.5816 127.788L56.8656 129.119C57.4636 129.059 58.0615 128.984 58.6296 128.909V130.718H56.5666ZM79.2295 126.652L77.7944 126.891C77.9887 127.19 78.1681 127.519 78.3326 127.863H72.7864V132.662C72.7565 135.621 72.338 137.924 71.5307 139.583L72.6071 140.54C73.6086 138.566 74.1319 135.935 74.1917 132.662V129.178H85.1045V127.863H79.7826C79.6033 127.414 79.4089 127.011 79.2295 126.652ZM77.7944 131.765L76.9573 132.587C77.9738 133.095 78.8558 133.588 79.5734 134.067H74.67V135.367H78.9455V138.731C78.9455 139.12 78.7512 139.329 78.3924 139.329C77.7346 139.329 77.0619 139.284 76.3443 139.224L76.6433 140.57H78.8707C79.8574 140.57 80.3507 140.061 80.3507 139.06V135.367H83.3405C82.8622 136.1 82.339 136.713 81.7709 137.221L82.8323 138.073C83.5797 137.296 84.2524 136.339 84.8803 135.173V134.067H81.0533L81.2477 133.872L80.7543 133.514C81.8008 132.856 82.7575 132.049 83.6545 131.122V130.105H75.5371V131.316H81.8755C81.2028 131.884 80.4853 132.378 79.7079 132.826C79.1249 132.467 78.4821 132.123 77.7944 131.765Z" fill="white"/>
<path d="M97.8334 171.234C97.0259 171.636 92.0559 173.711 95.4939 177.042C97.3604 178.906 100.488 177.728 101.243 175.931C101.344 174.672 101.342 165.523 101.342 164.264C101.342 163.004 105.087 156.276 111.919 160.097C111.919 160.097 119.605 164.58 110.698 171.814C110.698 171.814 107.654 172.06 108.359 169.491C108.259 168.735 112.07 166.984 111.566 164.566C110.758 161.695 106.066 160.857 104.851 164.465V175.88C104.899 177.483 101.725 182.744 95.1539 180.527C95.1539 180.527 90.7671 178.656 91.0097 173.943C91.2044 171.805 93.2256 169.189 95.4939 168.33C98.0167 167.625 98.9433 170.126 97.8334 171.234Z" fill="white" fill-opacity="0.9"/>
<rect x="141" y="115" width="128" height="80" rx="6" fill="url(#paint3_linear)"/>
<path d="M152.002 127.25V128.58H157.772V129.612H153.242V135.756H157.533C157.383 136.354 157.159 136.877 156.89 137.296C156.143 136.907 155.44 136.474 154.797 135.965L153.706 136.713C154.364 137.266 155.096 137.774 155.903 138.223C154.947 138.806 153.511 139.149 151.598 139.269L152.211 140.57C154.528 140.301 156.217 139.747 157.294 138.91C159.506 139.897 162.107 140.45 165.097 140.585L165.456 139.209C162.675 139.12 160.268 138.686 158.205 137.879C158.549 137.326 158.803 136.623 158.968 135.756H163.752V129.612H159.177V128.58H164.963V127.25H152.002ZM162.346 134.515H159.132C159.162 134.231 159.177 133.932 159.177 133.603V133.245H162.346V134.515ZM157.727 134.515H154.648V133.245H157.772V133.603C157.772 133.902 157.757 134.216 157.727 134.515ZM154.648 132.079V130.823H157.772V132.079H154.648ZM159.177 130.823H162.346V132.079H159.177V130.823ZM173.513 126.667C172.213 128.042 170.24 128.969 167.594 129.447L168.431 130.748C170 130.404 171.361 129.896 172.527 129.208H176.548C175.756 130.27 174.665 131.092 173.289 131.675C172.841 131.137 172.362 130.628 171.869 130.15L170.643 130.733C171.092 131.152 171.54 131.615 171.959 132.123C170.972 132.392 169.851 132.557 168.595 132.632L169.193 133.917C173.573 133.559 176.563 131.929 178.178 129.059V127.953H174.186C174.38 127.758 174.575 127.549 174.784 127.325L173.513 126.667ZM173.274 136.01L172.019 136.608C172.512 137.087 172.99 137.64 173.454 138.238C171.824 138.746 169.881 139 167.623 139L168.192 140.36C174.022 140.211 177.998 138.387 180.136 134.889V133.783H176.324C176.623 133.544 176.922 133.274 177.191 132.99L175.98 132.333C174.455 133.947 172.048 134.904 168.789 135.218L169.642 136.489C171.391 136.145 172.915 135.666 174.216 135.068H178.312C177.445 136.19 176.264 137.072 174.799 137.729C174.321 137.116 173.812 136.548 173.274 136.01ZM184.262 129.657V136.474C183.529 136.638 182.797 136.788 182.049 136.907L182.408 138.342C184.352 137.924 186.175 137.4 187.895 136.788V135.367C187.162 135.636 186.429 135.876 185.682 136.1V129.657H187.715V128.296H182.229V129.657H184.262ZM190.256 126.787V129.687H187.999V131.062H190.256V131.107C190.227 135.024 189.15 137.864 187.027 139.628L188.193 140.659C190.466 138.626 191.632 135.442 191.692 131.107V131.062H194.054C194.024 135.038 193.979 137.371 193.889 138.073C193.755 138.746 193.261 139.09 192.394 139.09C191.976 139.09 191.467 139.06 190.869 139.015L191.213 140.345C191.886 140.39 192.364 140.42 192.633 140.42C194.158 140.42 195.025 139.852 195.22 138.731C195.369 137.58 195.444 134.56 195.444 129.687H191.692V126.787H190.256ZM199.615 135.502H202.694V136.593H199.615V135.502ZM202.694 134.336H199.615V133.185H202.694V134.336ZM199.615 137.774H202.694V138.611C202.694 139 202.515 139.194 202.171 139.194L201.11 139.135L201.453 140.465H202.619C203.576 140.465 204.069 139.942 204.069 138.91V131.944H198.239V140.57H199.615V137.774ZM209.167 133.364C209.705 133.364 210.109 133.245 210.378 133.02C210.647 132.766 210.856 132.019 210.976 130.778L209.646 130.344C209.616 131.182 209.526 131.69 209.406 131.869C209.302 132.019 209.137 132.093 208.898 132.093H207.119C206.76 132.093 206.581 131.839 206.581 131.361V129.866C208.181 129.627 209.586 129.358 210.812 129.074L210.348 127.818C209.376 128.087 208.121 128.326 206.581 128.565V126.801H205.176V131.66C205.176 132.796 205.684 133.364 206.73 133.364H209.167ZM206.581 136.817C208.076 136.668 209.496 136.429 210.812 136.07L210.348 134.799C209.242 135.128 207.986 135.382 206.581 135.532V133.887H205.176V138.955C205.176 139.852 205.684 140.316 206.701 140.316H209.182C209.735 140.316 210.139 140.196 210.393 139.972C210.662 139.733 210.856 138.985 210.976 137.729L209.69 137.311C209.646 138.148 209.556 138.656 209.436 138.836C209.332 138.97 209.152 139.045 208.913 139.045H207.104C206.745 139.045 206.581 138.91 206.581 138.641V136.817ZM202.993 127.788L201.902 128.476C202.201 128.909 202.485 129.328 202.754 129.746C201.543 129.896 200.407 130.016 199.361 130.075C200.138 129.328 200.84 128.356 201.468 127.13L200.108 126.727C199.63 127.743 198.927 128.76 198.015 129.776C197.836 129.926 197.626 130.045 197.372 130.135L197.761 131.316C199.944 131.197 201.812 131.017 203.367 130.778C203.546 131.092 203.711 131.406 203.86 131.705L205.026 130.868C204.548 130.001 203.875 128.969 202.993 127.788Z" fill="white"/>
<circle cx="230" cy="175" r="3" fill="#FAFAFA"/>
<circle cx="240.846" cy="175" r="3" fill="#FAFAFA"/>
<circle cx="251.692" cy="175" r="3" fill="#FAFAFA"/>
<rect x="282" y="115" width="128" height="80" rx="6" fill="url(#paint4_linear)" fill-opacity="0.33"/>
<rect x="282" y="23" width="128" height="80" rx="6" fill="url(#paint5_linear)" fill-opacity="0.33"/>
<defs>
<filter id="filter0_d" x="11" y="0" width="340" height="226" filterUnits="userSpaceOnUse" color-interpolation-filters="sRGB">
<feFlood flood-opacity="0" result="BackgroundImageFix"/>
<feColorMatrix in="SourceAlpha" type="matrix" values="0 0 0 0 0 0 0 0 0 0 0 0 0 0 0 0 0 0 127 0"/>
<feOffset dy="2"/>
<feGaussianBlur stdDeviation="2"/>
<feColorMatrix type="matrix" values="0 0 0 0 0 0 0 0 0 0 0 0 0 0 0 0 0 0 0.04 0"/>
<feBlend mode="normal" in2="BackgroundImageFix" result="effect1_dropShadow"/>
<feBlend mode="normal" in="SourceGraphic" in2="effect1_dropShadow" result="shape"/>
</filter>
<linearGradient id="paint0_linear" x1="80.254" y1="111.5" x2="39.2202" y2="9.54724" gradientUnits="userSpaceOnUse">
<stop stop-color="#4397F9"/>
<stop offset="1" stop-color="#77C4FD"/>
</linearGradient>
<linearGradient id="paint1_linear" x1="221.254" y1="111.5" x2="180.22" y2="9.54724" gradientUnits="userSpaceOnUse">
<stop stop-color="#13BB88"/>
<stop offset="1" stop-color="#64D2B8"/>
</linearGradient>
<linearGradient id="paint2_linear" x1="80.254" y1="203.5" x2="39.2202" y2="101.547" gradientUnits="userSpaceOnUse">
<stop stop-color="#5D5AD8"/>
<stop offset="1" stop-color="#858EE0"/>
</linearGradient>
<linearGradient id="paint3_linear" x1="221.254" y1="203.5" x2="180.22" y2="101.547" gradientUnits="userSpaceOnUse">
<stop stop-color="#B5C8ED"/>
<stop offset="1" stop-color="#D1DBF0"/>
</linearGradient>
<linearGradient id="paint4_linear" x1="362.254" y1="203.5" x2="321.22" y2="101.547" gradientUnits="userSpaceOnUse">
<stop stop-color="#B5C8ED"/>
<stop offset="1" stop-color="#D1DBF0"/>
</linearGradient>
<linearGradient id="paint5_linear" x1="362.254" y1="111.5" x2="321.22" y2="9.54724" gradientUnits="userSpaceOnUse">
<stop stop-color="#B5C8ED"/>
<stop offset="1" stop-color="#D1DBF0"/>
</linearGradient>
</defs>
</svg>
