<svg width="548" height="400" viewBox="0 0 548 400" fill="none" xmlns="http://www.w3.org/2000/svg">
<rect y="28" width="315" height="433" rx="20" fill="#D7F8E0"/>
<rect x="24" y="145" width="275" height="136" rx="12" fill="#CCF4D7"/>
<rect x="24" y="89" width="275" height="40" rx="12" fill="#CCF4D7"/>
<rect x="24" y="363" width="275" height="136" rx="12" fill="#CCF4D7"/>
<rect x="24" y="295" width="54" height="54" rx="27" fill="#CCF4D7"/>
<rect x="88" y="295" width="54" height="54" rx="27" fill="#CCF4D7"/>
<rect x="157" width="315" height="433" rx="20" fill="#B2EEC3"/>
<rect x="370" y="16" width="82" height="30" rx="15" fill="#90DD9D"/>
<circle cx="432" cy="31" r="8" fill="#D7F4DF"/>
<rect x="391" y="27" width="8" height="8" rx="4" fill="#D7F4DF"/>
<rect x="382" y="28" width="6" height="6" rx="3" fill="#D7F4DF"/>
<rect x="402" y="28" width="6" height="6" rx="3" fill="#D7F4DF"/>
<rect x="125" y="66" width="275" height="136" rx="12" fill="#A1E2AC"/>
<rect x="177" y="264" width="275" height="176" rx="12" fill="#A1E2AC"/>
<rect x="177" y="222" width="136" height="28" rx="12" fill="#A1E2AC"/>
<rect x="412" y="66" width="136" height="136" rx="12" fill="#A1E2AC"/>
<rect x="457" y="129" width="46" height="10" rx="5" fill="#D7F4DF"/>
<rect x="485" y="111" width="46" height="10" rx="5" transform="rotate(90 485 111)" fill="#D7F4DF"/>
</svg>
