<svg width="464" height="407" viewBox="0 0 464 407" fill="none" xmlns="http://www.w3.org/2000/svg">
<g filter="url(#filter0_d)">
<rect x="242" y="78" width="210" height="311" rx="16" fill="#D6F8E0"/>
<rect x="242.5" y="78.5" width="209" height="310" rx="15.5" stroke="#C7EAD6"/>
</g>
<path d="M318.404 94.745V99.755H313.139V101.135H318.404V108.53H319.844V103.865C321.044 104.435 322.544 105.26 324.314 106.34L325.124 105.125C323.324 104.12 321.569 103.235 319.844 102.455V101.135H326.564V99.755H319.844V97.82H324.614V96.455H319.844V94.745H318.404ZM337.289 99.17H330.884C331.274 98.675 331.634 98.135 331.994 97.55H339.494C339.464 100.55 339.419 102.305 339.329 102.845C339.269 103.355 339.029 103.625 338.639 103.625C338.339 103.625 337.979 103.595 337.559 103.55L337.904 104.825C338.354 104.855 338.669 104.885 338.849 104.885C339.944 104.885 340.559 104.405 340.709 103.475C340.859 102.545 340.949 100.115 340.949 96.185H332.744C332.939 95.765 333.134 95.345 333.329 94.895L331.889 94.565C330.959 96.665 329.834 98.315 328.514 99.515L329.504 100.715C329.849 100.385 330.194 100.01 330.524 99.62V106.985C330.524 107.885 331.034 108.35 332.054 108.35H339.989C340.739 108.32 341.234 107.99 341.444 107.375C341.579 106.985 341.699 106.34 341.789 105.44L340.439 105.005C340.349 105.89 340.274 106.43 340.184 106.625C340.064 106.865 339.854 106.985 339.539 107.015H332.639C332.174 107.015 331.949 106.82 331.949 106.43V103.985H337.289V99.17ZM331.949 102.695V100.46H335.849V102.695H331.949ZM343.709 102.455V103.775H351.284V102.455H343.709ZM353.136 95.18V96.41H357.546V97.37H354.186V100.91H365.496V97.37H362.136V96.41H366.546V95.18H353.136ZM360.786 97.37H358.896V96.41H360.786V97.37ZM364.131 99.755H362.136V98.54H364.131V99.755ZM360.786 99.755H358.896V98.54H360.786V99.755ZM357.546 99.755H355.551V98.54H357.546V99.755ZM354.876 101.78V102.95H364.896V101.78H354.876ZM353.376 103.775V104.99H359.316V106.73C359.316 107.105 359.121 107.3 358.731 107.3C358.356 107.3 357.966 107.27 357.546 107.225L357.816 108.485H359.196C360.186 108.485 360.696 107.99 360.696 107.03V104.99H366.306V103.775H353.376ZM363.051 105.29L362.106 106.19C363.546 106.97 364.671 107.69 365.466 108.365L366.456 107.375C365.526 106.685 364.401 105.98 363.051 105.29ZM356.931 105.32C355.956 106.055 354.756 106.7 353.346 107.255L354.201 108.365C355.641 107.735 356.871 107 357.861 106.16L356.931 105.32ZM377.436 96.68V106.64H375.681V98.945H374.286V106.64H372.876V108.035H382.146V106.64H378.891V101.87H381.636V100.535H378.891V96.68H381.846V95.285H373.341V96.68H377.436ZM370.296 94.82L369.306 95.765C370.326 96.56 371.136 97.31 371.721 98.03L372.696 97.04C372.036 96.305 371.226 95.57 370.296 94.82ZM368.241 99.17V100.535H370.311V105.905C370.311 106.205 370.176 106.46 369.936 106.67L370.476 107.96C371.496 107.27 372.456 106.49 373.356 105.62L372.981 104.105C372.516 104.555 372.081 104.975 371.676 105.335V99.17H368.241Z" fill="#67B686"/>
<g filter="url(#filter1_d)">
<rect x="256" y="136" width="182" height="52" rx="6" fill="white"/>
</g>
<g filter="url(#filter2_d)">
<rect x="256" y="198" width="182" height="52" rx="6" fill="white"/>
</g>
<rect x="282" y="168" width="86" height="12" rx="4" fill="#D6F8E0"/>
<rect x="282" y="230" width="115" height="12" rx="4" fill="#D6F8E0"/>
<path d="M289.445 145.225V152.155H293.78V153.685H287.84V155.065H293.78V158.5H295.22V155.065H301.19V153.685H295.22V152.155H299.525V145.225H289.445ZM298.085 150.85H290.9V149.335H298.085V150.85ZM290.9 148.075V146.545H298.085V148.075H290.9ZM303.305 154.63V155.965H313.205V154.63H303.305ZM308.06 144.55C307.97 145.06 307.835 145.57 307.655 146.08H305.06V153.37H314.705C314.705 155.275 314.555 156.355 314.27 156.625C313.985 156.88 313.55 157.015 312.95 157.015C312.455 157.015 311.84 157 311.12 156.985L311.54 158.38H312.92C314.09 158.38 314.93 158.14 315.455 157.66C315.965 157.15 316.22 155.29 316.25 152.05H306.5V147.415H312.68C312.62 148.87 312.545 149.71 312.455 149.935C312.365 150.145 312.2 150.265 311.96 150.265C311.585 150.265 311.15 150.25 310.64 150.235L311.045 151.495H311.96C312.74 151.495 313.265 151.24 313.565 150.76C313.835 150.28 314.03 148.72 314.165 146.08H309.155C309.335 145.66 309.485 145.21 309.59 144.745L308.06 144.55ZM308.675 147.97L307.7 148.9C308.495 149.56 309.11 150.16 309.56 150.73L310.565 149.74C310.04 149.14 309.41 148.555 308.675 147.97ZM318.395 145.18V146.41H322.805V147.37H319.445V150.91H330.755V147.37H327.395V146.41H331.805V145.18H318.395ZM326.045 147.37H324.155V146.41H326.045V147.37ZM329.39 149.755H327.395V148.54H329.39V149.755ZM326.045 149.755H324.155V148.54H326.045V149.755ZM322.805 149.755H320.81V148.54H322.805V149.755ZM320.135 151.78V152.95H330.155V151.78H320.135ZM318.635 153.775V154.99H324.575V156.73C324.575 157.105 324.38 157.3 323.99 157.3C323.615 157.3 323.225 157.27 322.805 157.225L323.075 158.485H324.455C325.445 158.485 325.955 157.99 325.955 157.03V154.99H331.565V153.775H318.635ZM328.31 155.29L327.365 156.19C328.805 156.97 329.93 157.69 330.725 158.365L331.715 157.375C330.785 156.685 329.66 155.98 328.31 155.29ZM322.19 155.32C321.215 156.055 320.015 156.7 318.605 157.255L319.46 158.365C320.9 157.735 322.13 157 323.12 156.16L322.19 155.32Z" fill="#67B686"/>
<path d="M289.055 209.97L288.035 210.96C289.085 212.175 290.015 213.36 290.855 214.515C290.075 216.225 288.995 217.71 287.6 218.955L288.575 220.08C289.925 218.88 291.005 217.485 291.815 215.895C292.325 216.645 292.775 217.38 293.165 218.1L294.275 216.99C293.735 216.105 293.15 215.22 292.505 214.32C293.15 212.61 293.525 210.69 293.63 208.56V207.48H288.02V208.845H292.25C292.13 210.285 291.86 211.635 291.47 212.895C290.72 211.92 289.925 210.945 289.055 209.97ZM294.365 207.48V208.845H294.8C294.92 211.08 295.565 213.27 296.705 215.4C295.79 216.735 294.635 218.01 293.255 219.21L294.23 220.395C295.475 219.225 296.555 217.995 297.47 216.72C298.25 217.95 299.24 219.165 300.41 220.395L301.415 219.21C300.185 217.98 299.15 216.705 298.325 215.415C299.6 213.3 300.395 211.08 300.695 208.74V207.48H294.365ZM296.075 208.845H299.36C299.06 210.675 298.445 212.4 297.545 214.035C296.705 212.355 296.21 210.615 296.075 208.845ZM310.475 206.73H309.035C309.035 207.3 309.02 208.08 309.02 209.085C308.9 213.39 306.815 216.765 302.765 219.225L303.635 220.5C306.785 218.46 308.855 215.88 309.845 212.76C310.985 215.97 312.995 218.55 315.875 220.47L316.82 219.225C313.4 217.125 311.24 214.08 310.37 210.09C310.43 209.16 310.475 208.05 310.475 206.73ZM318.395 207.18V208.41H322.805V209.37H319.445V212.91H330.755V209.37H327.395V208.41H331.805V207.18H318.395ZM326.045 209.37H324.155V208.41H326.045V209.37ZM329.39 211.755H327.395V210.54H329.39V211.755ZM326.045 211.755H324.155V210.54H326.045V211.755ZM322.805 211.755H320.81V210.54H322.805V211.755ZM320.135 213.78V214.95H330.155V213.78H320.135ZM318.635 215.775V216.99H324.575V218.73C324.575 219.105 324.38 219.3 323.99 219.3C323.615 219.3 323.225 219.27 322.805 219.225L323.075 220.485H324.455C325.445 220.485 325.955 219.99 325.955 219.03V216.99H331.565V215.775H318.635ZM328.31 217.29L327.365 218.19C328.805 218.97 329.93 219.69 330.725 220.365L331.715 219.375C330.785 218.685 329.66 217.98 328.31 217.29ZM322.19 217.32C321.215 218.055 320.015 218.7 318.605 219.255L319.46 220.365C320.9 219.735 322.13 219 323.12 218.16L322.19 217.32Z" fill="#67B686"/>
<g filter="url(#filter3_d)">
<rect x="37" y="6" width="259" height="383" rx="16" fill="#C0EDCC"/>
<rect x="37.5" y="6.5" width="258" height="382" rx="15.5" stroke="#B5E0C7"/>
</g>
<path fill-rule="evenodd" clip-rule="evenodd" d="M84 375C79.5817 375 76 371.418 76 367C76 362.582 79.5817 359 84 359C88.4183 359 92 362.582 92 367C92 371.418 88.4183 375 84 375ZM84 374.04C87.8881 374.04 91.04 370.888 91.04 367C91.04 363.112 87.8881 359.96 84 359.96C80.1119 359.96 76.96 363.112 76.96 367C76.96 370.888 80.1119 374.04 84 374.04ZM85.84 367C85.84 368.463 85.2609 369.832 84.2467 370.847L84.9255 371.526C86.0837 370.367 86.8 368.767 86.8 367C86.8 365.233 86.0837 363.633 84.9255 362.475L84.2467 363.153C85.2609 364.168 85.84 365.537 85.84 367ZM82.6627 369.263C83.2596 368.666 83.6 367.861 83.6 367C83.6 366.139 83.2596 365.334 82.6627 364.737L83.3416 364.058C84.0944 364.811 84.56 365.851 84.56 367C84.56 368.149 84.0944 369.189 83.3416 369.942L82.6627 369.263ZM82.32 367C82.32 367.53 82.1051 368.01 81.7576 368.358L80.4 367L81.7576 365.642C82.1051 365.99 82.32 366.47 82.32 367Z" fill="#6EC87C"/>
<path fill-rule="evenodd" clip-rule="evenodd" d="M259 39V38.3155C259 37.6304 259.498 36.8319 260.114 36.5313L265.774 33.7691C266.595 33.3685 266.786 32.4813 266.193 31.7786L265.832 31.3501C265.096 30.4783 264.5 28.8495 264.5 27.7093V25.9996C264.5 23.7907 266.295 22 268.5 22C270.709 22 272.5 23.793 272.5 26.0002V27.7102C272.5 28.8493 271.901 30.4829 271.168 31.3516L270.807 31.7801C270.217 32.479 270.401 33.3684 271.226 33.7705L276.886 36.5316C277.501 36.8317 278 37.6252 278 38.3155V39C278 39.5523 277.552 40 277 40H260C259.448 40 259 39.5523 259 39Z" fill="#6EC87C"/>
<path d="M131.224 28.424V29.88H135.656V31.96H132.248V38.648H133.768V37.864H139.224V38.632H140.728V31.96H137.208V29.88H141.672V28.424H137.208V26.088C138.648 25.88 139.912 25.576 141.016 25.192L140.264 23.912C137.896 24.68 134.984 25.064 131.512 25.064L131.992 26.424C133.288 26.424 134.504 26.36 135.656 26.264V28.424H131.224ZM133.768 36.44V33.384H139.224V36.44H133.768ZM128.52 24.04L127.48 25.016C128.648 25.784 129.56 26.504 130.2 27.16L131.24 26.136C130.488 25.432 129.576 24.728 128.52 24.04ZM128.152 27.848L127.08 28.888C128.264 29.736 129.192 30.52 129.848 31.256L130.904 30.2C130.168 29.416 129.24 28.632 128.152 27.848ZM129.704 32.152C129.048 34.072 128.264 35.944 127.352 37.784L128.872 38.456C129.672 36.664 130.424 34.744 131.096 32.696L129.704 32.152ZM144.04 24.872V26.328H149.992V24.872H144.04ZM143.448 29.192V30.664H145.496C144.76 33.352 144.184 35 143.752 35.624C143.688 35.672 143.592 35.72 143.432 35.752L143.8 37.192C145.752 36.84 147.56 36.376 149.24 35.8L149.656 36.824L150.968 36.152C150.296 34.536 149.592 33.048 148.856 31.704L147.576 32.328C147.944 33.016 148.312 33.752 148.68 34.536C147.608 34.936 146.536 35.256 145.48 35.48C145.896 34.456 146.392 32.856 146.968 30.664H150.568V29.192H143.448ZM152.744 23.928V27.032H150.712V28.504H152.744V28.648C152.712 32.824 151.72 35.848 149.784 37.736L150.92 38.744C153.096 36.616 154.2 33.256 154.248 28.648V28.504H156.232C156.2 32.76 156.152 35.272 156.056 36.024C155.928 36.792 155.528 37.176 154.824 37.176C154.408 37.176 153.912 37.144 153.336 37.096L153.688 38.44C154.328 38.472 154.776 38.504 155.032 38.504C156.488 38.504 157.304 37.896 157.48 36.68C157.624 35.464 157.704 32.248 157.704 27.032H154.248V23.928H152.744ZM162.072 29.56H164.312V31.896H162.072V29.56ZM164.312 28.2H162.072V25.832H164.312V28.2ZM162.04 33.272H164.312V36.488C164.312 37.048 164.136 37.336 163.8 37.336C163.416 37.336 163.016 37.304 162.568 37.256L162.936 38.6H164.216C165.192 38.6 165.688 38.056 165.688 36.968V24.456H160.712V32.312C160.696 34.472 160.376 36.248 159.736 37.64L160.888 38.68C161.544 37.256 161.928 35.448 162.04 33.272ZM168.2 31.688H168.408C168.76 33.176 169.4 34.52 170.328 35.704C169.736 36.376 169.032 36.952 168.2 37.4V31.688ZM168.2 37.448L168.984 38.632C169.88 38.152 170.664 37.544 171.32 36.808C171.992 37.464 172.792 38.072 173.704 38.616L174.456 37.336C173.592 36.824 172.824 36.264 172.168 35.64C172.84 34.536 173.32 33.192 173.608 31.624V30.344H168.2V25.832H172.04C172.008 26.904 171.944 27.576 171.848 27.848C171.752 28.072 171.624 28.216 171.464 28.264C171.304 28.312 171.048 28.344 170.712 28.344C170.264 28.344 169.912 28.328 169.656 28.328L170.056 29.608H171.4C172.424 29.608 173.032 29.272 173.224 28.6C173.416 27.912 173.512 26.536 173.512 24.456H166.776V38.664H168.2V37.448ZM169.704 31.688H172.264C172.008 32.744 171.64 33.688 171.16 34.52C170.504 33.672 170.024 32.728 169.704 31.688ZM180.616 23.816C179.96 25.368 178.696 26.68 176.824 27.752L177.752 28.968C178.408 28.568 179 28.136 179.544 27.672C180.2 28.216 180.904 28.728 181.672 29.176C180.008 29.8 178.088 30.248 175.944 30.52L176.648 31.944C179.176 31.56 181.416 30.936 183.336 30.072C185.32 31.016 187.56 31.624 190.04 31.912L190.728 30.488C188.616 30.296 186.712 29.864 185 29.224C186.36 28.424 187.528 27.464 188.488 26.36V25.128H181.64C181.832 24.792 182.008 24.424 182.168 24.04L180.616 23.816ZM183.32 28.472C182.312 27.96 181.384 27.352 180.552 26.664C180.568 26.632 180.6 26.6 180.648 26.552H186.264C185.4 27.288 184.424 27.928 183.32 28.472ZM182.168 31.048C182.168 31.624 182.104 32.168 182.008 32.68H177.048V34.04H181.544C181.448 34.248 181.32 34.456 181.192 34.664C180.392 35.768 178.68 36.696 176.072 37.464L177.08 38.696C180.04 37.752 181.912 36.568 182.712 35.128C182.904 34.792 183.064 34.424 183.208 34.04H187.544C187.496 35.448 187.368 36.328 187.16 36.664C186.952 36.984 186.44 37.16 185.624 37.176C185.112 37.144 184.44 37.112 183.608 37.08L183.992 38.456C184.76 38.504 185.432 38.536 185.976 38.536C187.096 38.536 187.896 38.248 188.344 37.704C188.792 37.16 189.032 35.48 189.064 32.68H183.544C183.624 32.168 183.672 31.624 183.672 31.048H182.168ZM194.776 24.36V28.968H204.504V24.36H194.776ZM202.968 27.608H196.312V25.72H202.968V27.608ZM195.896 31.48L195.144 34.392H203.176C203.08 35.608 202.952 36.392 202.776 36.712C202.584 37.032 202.072 37.192 201.272 37.192C200.6 37.192 199.848 37.144 198.984 37.064L199.496 38.44C200.12 38.52 200.824 38.568 201.608 38.568C202.76 38.568 203.544 38.312 203.944 37.816C204.344 37.32 204.6 35.72 204.728 33.016H196.952L197.416 31.48H206.904V30.024H192.36V31.48H195.896Z" fill="#47A86D"/>
<line x1="37" y1="55.5" x2="296" y2="55.5" stroke="#B3E0C5"/>
<line x1="37" y1="346.5" x2="296" y2="346.5" stroke="#B3E0C5"/>
<g filter="url(#filter4_d)">
<rect x="12" y="69" width="266" height="246" rx="8" fill="white"/>
</g>
<path d="M259 297L263.563 301.563L259 306.125" stroke="#BED8C8" stroke-width="1.11238" stroke-miterlimit="10" stroke-linecap="round" stroke-linejoin="round"/>
<path d="M33.032 84.424H27.352V94.616H28.712V85.816H31.688V94.616H33.032V89.16L33.768 90.104C34.376 89.336 34.904 88.472 35.352 87.528H39.592C39.56 92.328 39.512 95.128 39.416 95.96C39.32 96.76 38.984 97.16 38.424 97.16C37.72 97.16 36.904 97.128 35.976 97.08L36.328 98.44C37.432 98.472 38.2 98.504 38.648 98.504C39.96 98.504 40.68 97.832 40.84 96.52C41 95.208 41.08 91.72 41.08 86.056H35.928C36.136 85.416 36.312 84.728 36.44 84.024L34.968 83.832C34.616 85.688 33.976 87.288 33.032 88.632V84.424ZM37.816 90.952L36.664 91.512C36.888 92.088 37.096 92.712 37.304 93.384C36.632 93.544 35.912 93.672 35.16 93.752C35.768 92.504 36.392 90.984 37 89.176L35.624 88.712C34.712 91.896 33.992 93.624 33.48 93.88L33.72 95.192C35.144 95.048 36.456 94.84 37.672 94.584C37.768 94.936 37.88 95.304 37.976 95.688L39.208 95.064C38.76 93.576 38.296 92.2 37.816 90.952ZM29.56 86.824V92.072C29.512 93.448 29.304 94.568 28.952 95.432C28.584 96.232 27.88 96.888 26.856 97.416L27.656 98.68C28.744 98.136 29.528 97.352 30.008 96.36C30.504 95.304 30.776 93.864 30.808 92.072V86.824H29.56ZM31.496 95.016L30.536 95.96C31.432 96.888 32.136 97.752 32.616 98.552L33.72 97.48C33.112 96.664 32.36 95.848 31.496 95.016ZM43.368 84.392V85.704H48.072V86.728H44.488V90.504H56.552V86.728H52.968V85.704H57.672V84.392H43.368ZM51.528 86.728H49.512V85.704H51.528V86.728ZM55.096 89.272H52.968V87.976H55.096V89.272ZM51.528 89.272H49.512V87.976H51.528V89.272ZM48.072 89.272H45.944V87.976H48.072V89.272ZM45.224 91.432V92.68H55.912V91.432H45.224ZM43.624 93.56V94.856H49.96V96.712C49.96 97.112 49.752 97.32 49.336 97.32C48.936 97.32 48.52 97.288 48.072 97.24L48.36 98.584H49.832C50.888 98.584 51.432 98.056 51.432 97.032V94.856H57.416V93.56H43.624ZM53.944 95.176L52.936 96.136C54.472 96.968 55.672 97.736 56.52 98.456L57.576 97.4C56.584 96.664 55.384 95.912 53.944 95.176ZM47.416 95.208C46.376 95.992 45.096 96.68 43.592 97.272L44.504 98.456C46.04 97.784 47.352 97 48.408 96.104L47.416 95.208ZM70.92 83.768L69.96 84.696C70.632 85.208 71.176 85.72 71.608 86.2H69.144C69.112 85.464 69.08 84.68 69.08 83.848H67.544C67.544 84.664 67.544 85.448 67.576 86.2H60.984V91.528C60.936 94.136 60.408 96.168 59.416 97.624L60.568 98.648C61.784 96.856 62.44 94.488 62.504 91.528V91.432H64.92C64.888 93.096 64.84 94.152 64.744 94.568C64.648 94.92 64.472 95.096 64.184 95.112C63.736 95.112 63.208 95.08 62.568 95.048L63.032 96.424C63.528 96.472 63.976 96.504 64.36 96.504C65.192 96.488 65.736 96.152 65.992 95.48C66.248 94.712 66.392 92.888 66.424 89.992H62.504V87.656H67.656C67.768 89.608 67.992 91.224 68.344 92.52C68.52 93.192 68.712 93.816 68.936 94.392C67.88 95.704 66.584 96.696 65.048 97.384L65.912 98.664C67.32 98.04 68.568 97.128 69.64 95.928C69.848 96.312 70.072 96.664 70.328 96.984C71.096 97.928 71.832 98.408 72.536 98.408C73.304 98.408 73.896 97.288 74.296 95.08L72.92 94.344C72.712 95.912 72.504 96.696 72.296 96.696C72.04 96.696 71.656 96.328 71.176 95.624C71 95.352 70.824 95.032 70.648 94.648C71.64 93.208 72.44 91.448 73.08 89.4L71.688 88.808C71.24 90.328 70.68 91.672 70.008 92.856C69.928 92.6 69.848 92.328 69.784 92.056C69.512 91.016 69.32 89.544 69.208 87.656H73.976V86.2H72.056L72.792 85.464C72.28 84.888 71.656 84.328 70.92 83.768ZM78.12 87V94.296C77.336 94.472 76.552 94.632 75.752 94.76L76.136 96.296C78.216 95.848 80.168 95.288 82.008 94.632V93.112C81.224 93.4 80.44 93.656 79.64 93.896V87H81.816V85.544H75.944V87H78.12ZM84.536 83.928V87.032H82.12V88.504H84.536V88.552C84.504 92.744 83.352 95.784 81.08 97.672L82.328 98.776C84.76 96.6 86.008 93.192 86.072 88.552V88.504H88.6C88.568 92.76 88.52 95.256 88.424 96.008C88.28 96.728 87.752 97.096 86.824 97.096C86.376 97.096 85.832 97.064 85.192 97.016L85.56 98.44C86.28 98.488 86.792 98.52 87.08 98.52C88.712 98.52 89.64 97.912 89.848 96.712C90.008 95.48 90.088 92.248 90.088 87.032H86.072V83.928H84.536ZM93.64 84.04L92.6 85.032C93.768 85.96 94.664 86.824 95.304 87.624L96.376 86.568C95.64 85.736 94.728 84.888 93.64 84.04ZM102.84 98.376H106.488L106.856 96.872C106.424 96.904 105.8 96.936 105 96.952C104.2 96.968 103.4 96.984 102.616 96.984C101.368 96.984 100.296 96.968 99.384 96.952C98.44 96.92 97.736 96.776 97.256 96.552C96.856 96.344 96.472 96.024 96.104 95.592C96.024 95.496 95.944 95.416 95.864 95.352V89.304H92.296V90.712H94.44V95.24C93.8 95.56 93.08 96.376 92.28 97.672L93.4 98.712C94.216 97.272 94.792 96.552 95.128 96.552C95.32 96.552 95.512 96.68 95.736 96.952C96.216 97.496 96.776 97.88 97.416 98.072C98.088 98.232 98.936 98.328 99.976 98.344C101 98.36 101.96 98.376 102.84 98.376ZM100.072 85.624L99.176 86.488C99.832 86.84 100.424 87.208 100.952 87.56H97.272V96.2H98.712V93.544H100.968V96.168H102.36V93.544H104.664V94.36C104.664 94.712 104.472 94.888 104.12 94.888L102.984 94.824L103.304 96.088H104.536C105.576 96.088 106.104 95.608 106.104 94.664V87.56H102.888C102.856 87.528 102.824 87.512 102.792 87.48C103.848 86.904 104.84 86.232 105.768 85.432V84.36H96.984V85.624H100.072ZM101.864 86.76C101.336 86.376 100.76 86.008 100.152 85.624H103.736C103.16 86.04 102.536 86.424 101.864 86.76ZM98.712 91.192H100.968V92.312H98.712V91.192ZM102.36 91.192H104.664V92.312H102.36V91.192ZM104.664 89.944H102.36V88.824H104.664V89.944ZM100.968 89.944H98.712V88.824H100.968V89.944ZM122.568 85.448H116.824V97.944H118.296V97.016H121.096V97.928H122.568V85.448ZM118.296 95.592V86.872H121.096V95.592H118.296ZM111.08 87.352H112.296C112.264 88.344 112.216 89.272 112.12 90.12H108.744V91.576H111.896C111.832 91.896 111.752 92.216 111.688 92.52C111.16 94.312 110.072 95.816 108.408 97.048L109.4 98.264C111.032 97.112 112.168 95.688 112.84 94.008C113.512 94.808 114.344 95.912 115.336 97.32L116.264 95.912C115.24 94.696 114.248 93.592 113.272 92.6C113.336 92.28 113.416 91.928 113.48 91.576H116.184V90.12H113.688C113.784 89.272 113.832 88.344 113.864 87.352H116.04V85.896H111.672C111.864 85.352 112.056 84.792 112.216 84.184L110.712 83.864C110.28 85.592 109.544 87.208 108.52 88.712L109.848 89.56C110.296 88.888 110.712 88.152 111.08 87.352Z" fill="#469E69"/>
<path d="M32.984 117.868C33.584 117.868 33.896 117.532 33.896 116.872V113.62H33.032V116.668C33.032 116.968 32.912 117.124 32.696 117.124C32.432 117.124 32.144 117.1 31.844 117.064L32.024 117.868H32.984ZM28.064 114.424V117.88H28.904V113.296C29.288 112.708 29.636 112.06 29.948 111.364L29.108 111.184C28.412 112.708 27.524 113.944 26.444 114.88L26.984 115.54C27.356 115.204 27.716 114.832 28.064 114.424ZM31.808 111.172C31.244 112.432 30.512 113.452 29.612 114.244L30.14 114.892C30.716 114.364 31.244 113.764 31.7 113.068H36.128C35.996 113.548 35.828 113.98 35.624 114.376L36.404 114.58C36.644 114.004 36.836 113.416 36.992 112.816V112.276H32.18C32.324 111.988 32.48 111.676 32.624 111.352L31.808 111.172ZM27.86 118.492C27.62 119.476 27.26 120.388 26.756 121.204L27.488 121.672C28.004 120.82 28.4 119.812 28.688 118.66L27.86 118.492ZM33.764 122.02C34.196 122.02 34.52 121.924 34.724 121.732C34.964 121.504 35.12 120.868 35.204 119.812L34.388 119.548C34.34 120.34 34.256 120.82 34.112 120.988C34.004 121.132 33.836 121.204 33.596 121.204H30.956C30.62 121.204 30.464 121.024 30.464 120.688V118.336H29.588V120.868C29.588 121.636 29.948 122.02 30.692 122.02H33.764ZM35.804 118.12L35.096 118.552C35.828 119.584 36.416 120.532 36.848 121.396L37.556 120.892C37.148 120.1 36.572 119.176 35.804 118.12ZM31.484 114.772C31.052 115.636 30.536 116.392 29.936 117.04L30.596 117.496C31.196 116.824 31.724 116.02 32.18 115.096L31.484 114.772ZM35.468 114.76L34.736 115.072C35.288 115.792 35.804 116.608 36.26 117.544L36.992 117.172C36.548 116.284 36.044 115.48 35.468 114.76ZM32.084 118.012L31.412 118.432C31.988 119.104 32.444 119.728 32.78 120.28L33.452 119.812C33.14 119.296 32.684 118.696 32.084 118.012ZM42.884 116.02C42.428 116.26 41.972 116.476 41.504 116.68V114.232H42.848V113.404H41.504V111.232H40.652V113.404H38.912V114.232H40.652V117.016C40.028 117.232 39.392 117.424 38.732 117.58L38.948 118.432C39.524 118.252 40.1 118.06 40.652 117.856V120.88C40.652 121.216 40.484 121.396 40.16 121.396C39.836 121.396 39.5 121.372 39.152 121.336L39.344 122.164H40.46C41.156 122.164 41.504 121.804 41.504 121.084V117.508C41.972 117.316 42.428 117.1 42.884 116.872V116.02ZM44.36 116.776H45.056C45.248 117.928 45.752 118.996 46.58 119.98C46.052 120.58 45.404 121.072 44.636 121.456L45.056 122.212C45.872 121.804 46.58 121.264 47.156 120.604C47.708 121.156 48.392 121.672 49.184 122.176L49.76 121.516C48.92 121.048 48.212 120.544 47.636 119.992C48.26 119.092 48.68 118 48.92 116.728V115.984H44.36V112.48H47.984C47.96 113.224 47.912 113.716 47.828 113.944C47.744 114.088 47.636 114.172 47.504 114.22C47.36 114.244 47.132 114.268 46.844 114.268C46.556 114.268 46.328 114.256 46.136 114.256L46.376 115.012H47.24C48.008 115.012 48.464 114.784 48.608 114.352C48.74 113.908 48.812 113.02 48.812 111.688H43.544V122.2H44.36V116.776ZM45.836 116.776H48.092C47.876 117.76 47.528 118.624 47.048 119.356C46.4 118.576 46.004 117.712 45.836 116.776ZM54.74 121.456H60.104V122.164H60.98V117.1H55.976C58.232 116.056 59.78 114.712 60.644 113.068V112.3H55.964C56.204 111.976 56.42 111.64 56.612 111.28L55.664 111.172C54.944 112.444 53.564 113.524 51.512 114.4L52.088 115.144C53.36 114.544 54.392 113.872 55.208 113.116H59.648C59.084 114.1 58.196 114.952 56.972 115.684C56.456 115.24 55.736 114.736 54.824 114.172L54.08 114.64C54.992 115.156 55.712 115.636 56.24 116.08C54.86 116.776 53.132 117.328 51.056 117.76L51.512 118.588C52.352 118.384 53.132 118.168 53.876 117.928V122.164H54.74V121.456ZM60.104 120.616H54.74V117.904H60.104V120.616ZM67.568 113.272H65.636C65.876 112.672 66.056 112.012 66.2 111.304L65.336 111.184C65.228 111.904 65.06 112.6 64.82 113.272H63.704V121.804H64.544V120.772H66.728V121.456H67.568V113.272ZM64.544 119.968V117.34H66.728V119.968H64.544ZM64.544 116.56V114.088H66.728V116.56H64.544ZM69.656 116.056L68.96 116.488C69.788 117.472 70.448 118.36 70.94 119.152L71.624 118.672C71.168 117.928 70.52 117.052 69.656 116.056ZM73.772 113.284H69.944C70.16 112.66 70.328 111.988 70.472 111.28L69.62 111.172C69.308 112.876 68.744 114.316 67.904 115.492L68.42 116.176C68.888 115.564 69.284 114.88 69.62 114.124H72.92C72.896 117.58 72.848 119.656 72.776 120.328C72.68 120.94 72.356 121.252 71.792 121.252C71.42 121.252 70.988 121.24 70.484 121.216L70.688 122.008C71.264 122.032 71.672 122.056 71.912 122.056C72.92 122.056 73.472 121.588 73.592 120.676C73.712 119.74 73.772 117.268 73.772 113.284ZM78.656 114.688V115.516H82.088V117.376H79.46V122.212H80.312V121.552H84.812V122.188H85.664V117.376H82.964V115.516H86.42V114.688H82.964V112.696C84.056 112.54 85.016 112.312 85.856 112.012L85.436 111.268C83.708 111.856 81.524 112.156 78.908 112.156L79.172 112.936C80.204 112.936 81.176 112.888 82.088 112.804V114.688H78.656ZM80.312 120.736V118.192H84.812V120.736H80.312ZM76.484 111.364L75.896 111.928C76.76 112.504 77.444 113.032 77.936 113.536L78.524 112.948C77.972 112.42 77.288 111.892 76.484 111.364ZM76.208 114.232L75.608 114.82C76.484 115.444 77.168 116.044 77.672 116.608L78.272 116.008C77.72 115.408 77.024 114.82 76.208 114.232ZM77.624 117.424C77.12 118.876 76.508 120.292 75.812 121.684L76.676 122.056C77.3 120.712 77.876 119.26 78.404 117.724L77.624 117.424ZM88.28 112.036V112.864H92.624V112.036H88.28ZM87.812 115.276V116.116H89.48C88.88 118.3 88.4 119.632 88.04 120.124C87.992 120.148 87.932 120.172 87.848 120.196L88.052 121.012C89.54 120.748 90.932 120.388 92.204 119.932C92.324 120.208 92.444 120.496 92.564 120.808L93.308 120.424C92.804 119.212 92.264 118.096 91.688 117.064L90.956 117.424C91.268 117.976 91.568 118.564 91.88 119.212C90.944 119.56 89.996 119.836 89.048 120.028C89.408 119.236 89.828 117.94 90.308 116.116H93.08V115.276H87.812ZM94.88 111.232V113.656H93.26V114.496H94.88V114.64C94.856 117.868 94.088 120.208 92.588 121.66L93.236 122.224C94.868 120.628 95.708 118.096 95.744 114.64V114.496H97.52C97.496 117.724 97.448 119.656 97.376 120.292C97.28 120.976 96.932 121.324 96.344 121.324C96.02 121.324 95.636 121.3 95.204 121.276L95.396 122.044C95.9 122.068 96.248 122.08 96.452 122.08C97.484 122.08 98.072 121.588 98.192 120.616C98.3 119.728 98.36 117.412 98.36 113.656H95.744V111.232H94.88ZM109.976 111.676H104.648V118.312H105.5V112.504H109.1V118.312H109.976V111.676ZM109.712 122.008C110.096 122.008 110.384 121.912 110.576 121.732C110.78 121.516 110.924 120.904 110.996 119.92L110.192 119.668C110.144 120.412 110.072 120.868 109.976 121.024C109.892 121.144 109.748 121.216 109.556 121.216H108.716C108.464 121.216 108.344 121.084 108.344 120.832V118.264H107.48V121.012C107.48 121.672 107.804 122.008 108.464 122.008H109.712ZM106.844 113.356V116.284C106.82 117.628 106.556 118.72 106.076 119.56C105.56 120.352 104.648 121 103.352 121.504L103.82 122.236C105.164 121.732 106.124 121.024 106.7 120.136C107.3 119.176 107.624 117.892 107.672 116.284V113.356H106.844ZM100.196 115.636V116.476H101.576V119.464C101.048 119.608 100.52 119.728 99.98 119.824L100.184 120.652C101.54 120.328 102.812 119.932 104 119.452V118.624C103.496 118.828 102.992 119.02 102.464 119.2V116.476H103.808V115.636H102.464V112.828H103.976V112H100.04V112.828H101.576V115.636H100.196ZM121.7 116.632V111.832H112.82V112.672H120.824V115.804H114.164V114.028H113.3V120.328C113.3 121.312 113.78 121.816 114.752 121.816H121.256C121.76 121.792 122.156 121.66 122.42 121.408C122.708 121.096 122.912 120.208 123.032 118.72L122.192 118.456C122.12 119.776 121.964 120.544 121.724 120.76C121.544 120.904 121.304 120.976 121.016 120.976H114.992C114.44 120.976 114.164 120.7 114.164 120.172V116.632H121.7ZM133.172 115.372H130.364V111.184H129.476V115.372H126.668V112.096H125.804V116.212H129.476V120.616H126.092V117.34H125.216V122.116H126.092V121.444H133.748V122.116H134.624V117.34H133.748V120.616H130.364V116.212H134.036V112.096H133.172V115.372ZM136.832 111.664V112.42H140.456V113.38H137.708V116.044H146.624V113.38H143.876V112.42H147.488V111.664H136.832ZM143.06 113.38H141.272V112.42H143.06V113.38ZM145.796 115.336H143.876V114.1H145.796V115.336ZM143.06 115.336H141.272V114.1H143.06V115.336ZM140.456 115.336H138.536V114.1H140.456V115.336ZM138.212 116.932V117.652H146.168V116.932H138.212ZM137.024 118.528V119.284H141.872V120.964C141.872 121.276 141.692 121.432 141.356 121.432C141.044 121.432 140.72 121.408 140.384 121.384L140.552 122.152H141.632C142.352 122.152 142.712 121.816 142.712 121.156V119.284H147.296V118.528H137.024ZM144.62 119.692L144.044 120.232C145.22 120.88 146.132 121.48 146.792 122.056L147.392 121.456C146.648 120.868 145.724 120.28 144.62 119.692ZM139.94 119.716C139.148 120.34 138.176 120.892 137.024 121.372L137.54 122.044C138.716 121.528 139.7 120.928 140.504 120.232L139.94 119.716ZM150.632 119.572C150.392 119.572 150.212 119.632 150.068 119.776C149.924 119.908 149.852 120.088 149.852 120.316C149.852 120.52 149.924 120.7 150.068 120.844C150.212 120.988 150.38 121.06 150.584 121.06C150.704 121.06 150.8 121.036 150.848 121.012C150.848 121.3 150.764 121.564 150.584 121.816C150.392 122.056 150.14 122.236 149.828 122.344V122.932C150.332 122.8 150.752 122.536 151.064 122.152C151.376 121.744 151.532 121.276 151.532 120.748C151.532 120.4 151.448 120.124 151.292 119.908C151.124 119.68 150.896 119.572 150.632 119.572ZM168.152 114.256V115.996H165.704V116.812H168.152V118.624H165.092V119.452H168.152V122.188H169.016V119.452H172.124V118.624H169.016V116.812H171.488V115.996H169.016V114.256H171.848V113.44H170.024C170.408 112.84 170.744 112.168 171.044 111.424L170.216 111.136C169.916 111.952 169.568 112.72 169.172 113.44H165.356V114.256H168.152ZM166.772 111.184L166.04 111.532C166.472 112.084 166.868 112.72 167.24 113.416L167.948 113.056C167.576 112.384 167.18 111.76 166.772 111.184ZM162.608 111.364L162.008 111.928C162.836 112.576 163.484 113.176 163.952 113.752L164.528 113.152C164.012 112.552 163.376 111.964 162.608 111.364ZM161.144 114.868V115.696H162.836V120.46C162.836 120.664 162.74 120.844 162.56 121.012L162.884 121.768C163.568 121.192 164.228 120.556 164.852 119.848L164.624 118.972C164.288 119.356 163.976 119.704 163.676 120.016V114.868H161.144ZM177.164 119.776C176.108 120.232 174.86 120.592 173.444 120.856L173.552 121.684C174.908 121.408 176.108 121.048 177.164 120.592V119.776ZM175.268 111.172C174.836 112.624 174.332 113.908 173.744 115.024C173.648 115.168 173.528 115.276 173.396 115.336L173.612 116.08C174.224 115.984 174.836 115.876 175.448 115.756C174.872 116.908 174.38 117.724 173.984 118.204C173.876 118.3 173.756 118.372 173.612 118.432L173.828 119.188C174.884 119.044 176 118.792 177.152 118.42V117.652C176.372 117.916 175.592 118.12 174.8 118.276C175.448 117.4 176.24 115.936 177.2 113.896L176.444 113.62C176.228 114.112 176.012 114.568 175.82 115C175.34 115.096 174.86 115.18 174.392 115.252C174.956 114.316 175.508 113.056 176.06 111.484L175.268 111.172ZM180.416 112.96V116.308H178.472V112.96H180.416ZM180.416 117.088V120.568H178.472V117.088H180.416ZM181.208 120.568V117.088H183.14V120.568H181.208ZM181.208 116.308V112.96H183.14V116.308H181.208ZM183.14 121.36V122.14H183.956V112.156H177.68V122.14H178.472V121.36H183.14ZM195.908 112.276H191.768V121.672H192.608V120.94H195.068V121.672H195.908V112.276ZM192.608 120.1V113.116H195.068V120.1H192.608ZM187.76 111.16C187.64 111.916 187.496 112.66 187.352 113.38H185.768V114.22H187.172C186.884 115.456 186.56 116.596 186.188 117.652C186.932 118.18 187.616 118.696 188.24 119.176C187.616 120.052 186.824 120.808 185.84 121.444L186.416 122.152C187.412 121.468 188.24 120.652 188.9 119.704C189.548 120.22 190.1 120.7 190.556 121.144L191.144 120.448C190.676 120.016 190.076 119.524 189.356 118.972C190.16 117.544 190.616 115.852 190.736 113.884V113.38H188.24C188.372 112.72 188.504 112 188.636 111.232L187.76 111.16ZM188.684 118.468C188.216 118.132 187.7 117.772 187.148 117.4C187.46 116.56 187.772 115.492 188.06 114.22H189.92C189.788 115.816 189.38 117.232 188.684 118.468ZM198.02 111.832V112.684H202.604V122.224H203.48V115.408C204.56 115.984 205.904 116.8 207.5 117.856L208.016 117.088C206.48 116.104 204.968 115.24 203.48 114.496V112.684H208.688V111.832H198.02ZM212.6 113.692C212.384 113.692 212.216 113.764 212.072 113.92C211.928 114.052 211.868 114.22 211.868 114.436C211.868 114.64 211.928 114.808 212.072 114.952C212.216 115.096 212.384 115.168 212.6 115.168C212.804 115.168 212.984 115.096 213.128 114.952C213.272 114.808 213.344 114.64 213.344 114.436C213.344 114.22 213.272 114.052 213.128 113.92C212.984 113.764 212.804 113.692 212.6 113.692ZM212.6 118.084C212.384 118.084 212.216 118.156 212.072 118.312C211.928 118.444 211.868 118.612 211.868 118.828C211.868 119.032 211.928 119.2 212.072 119.344C212.216 119.488 212.384 119.56 212.6 119.56C212.804 119.56 212.984 119.488 213.128 119.344C213.272 119.2 213.344 119.032 213.344 118.828C213.344 118.612 213.272 118.444 213.128 118.312C212.984 118.156 212.804 118.084 212.6 118.084Z" fill="#469E69"/>
<path d="M29.696 151.688V152.516H33.128V154.376H30.5V159.212H31.352V158.552H35.852V159.188H36.704V154.376H34.004V152.516H37.46V151.688H34.004V149.696C35.096 149.54 36.056 149.312 36.896 149.012L36.476 148.268C34.748 148.856 32.564 149.156 29.948 149.156L30.212 149.936C31.244 149.936 32.216 149.888 33.128 149.804V151.688H29.696ZM31.352 157.736V155.192H35.852V157.736H31.352ZM27.524 148.364L26.936 148.928C27.8 149.504 28.484 150.032 28.976 150.536L29.564 149.948C29.012 149.42 28.328 148.892 27.524 148.364ZM27.248 151.232L26.648 151.82C27.524 152.444 28.208 153.044 28.712 153.608L29.312 153.008C28.76 152.408 28.064 151.82 27.248 151.232ZM28.664 154.424C28.16 155.876 27.548 157.292 26.852 158.684L27.716 159.056C28.34 157.712 28.916 156.26 29.444 154.724L28.664 154.424ZM39.32 149.036V149.864H43.664V149.036H39.32ZM38.852 152.276V153.116H40.52C39.92 155.3 39.44 156.632 39.08 157.124C39.032 157.148 38.972 157.172 38.888 157.196L39.092 158.012C40.58 157.748 41.972 157.388 43.244 156.932C43.364 157.208 43.484 157.496 43.604 157.808L44.348 157.424C43.844 156.212 43.304 155.096 42.728 154.064L41.996 154.424C42.308 154.976 42.608 155.564 42.92 156.212C41.984 156.56 41.036 156.836 40.088 157.028C40.448 156.236 40.868 154.94 41.348 153.116H44.12V152.276H38.852ZM45.92 148.232V150.656H44.3V151.496H45.92V151.64C45.896 154.868 45.128 157.208 43.628 158.66L44.276 159.224C45.908 157.628 46.748 155.096 46.784 151.64V151.496H48.56C48.536 154.724 48.488 156.656 48.416 157.292C48.32 157.976 47.972 158.324 47.384 158.324C47.06 158.324 46.676 158.3 46.244 158.276L46.436 159.044C46.94 159.068 47.288 159.08 47.492 159.08C48.524 159.08 49.112 158.588 49.232 157.616C49.34 156.728 49.4 154.412 49.4 150.656H46.784V148.232H45.92ZM54.74 158.456H60.104V159.164H60.98V154.1H55.976C58.232 153.056 59.78 151.712 60.644 150.068V149.3H55.964C56.204 148.976 56.42 148.64 56.612 148.28L55.664 148.172C54.944 149.444 53.564 150.524 51.512 151.4L52.088 152.144C53.36 151.544 54.392 150.872 55.208 150.116H59.648C59.084 151.1 58.196 151.952 56.972 152.684C56.456 152.24 55.736 151.736 54.824 151.172L54.08 151.64C54.992 152.156 55.712 152.636 56.24 153.08C54.86 153.776 53.132 154.328 51.056 154.76L51.512 155.588C52.352 155.384 53.132 155.168 53.876 154.928V159.164H54.74V158.456ZM60.104 157.616H54.74V154.904H60.104V157.616ZM63.416 151.484V152.312H65.072C64.688 153.68 64.04 154.892 63.128 155.96L63.5 156.92C64.196 155.96 64.76 154.892 65.168 153.716V159.164H65.996V153.74C66.356 154.16 66.8 154.724 67.304 155.444L67.784 154.724C67.184 154.076 66.596 153.5 65.996 152.972V152.312H67.472V151.484H65.996V149.636C66.608 149.516 67.184 149.372 67.712 149.228L67.412 148.412C66.26 148.772 64.952 149.012 63.464 149.144L63.632 149.96C64.16 149.912 64.664 149.84 65.168 149.768V151.484H63.416ZM70.232 159.14C70.916 159.14 71.264 158.78 71.264 158.06V151.712H70.376V157.844C70.376 158.192 70.22 158.372 69.932 158.372C69.608 158.372 69.26 158.348 68.9 158.312L69.08 159.14H70.232ZM68.72 153.44C68.42 154.832 67.952 156.116 67.304 157.268L68.048 157.736C68.684 156.572 69.176 155.192 69.524 153.596L68.72 153.44ZM72.824 153.356L72.044 153.608C72.548 154.844 73.016 156.26 73.436 157.856L74.228 157.508C73.832 156.032 73.364 154.652 72.824 153.356ZM69.536 150.692H72.968C72.824 151.388 72.644 152.012 72.428 152.576L73.268 152.828C73.508 152.036 73.688 151.232 73.832 150.416V149.852H69.86C70.028 149.348 70.172 148.82 70.28 148.268L69.428 148.16C69.14 149.696 68.576 150.992 67.76 152.048L68.288 152.732C68.78 152.132 69.2 151.448 69.536 150.692ZM77.96 150.692C77.744 150.692 77.576 150.764 77.432 150.92C77.288 151.052 77.228 151.22 77.228 151.436C77.228 151.64 77.288 151.808 77.432 151.952C77.576 152.096 77.744 152.168 77.96 152.168C78.164 152.168 78.344 152.096 78.488 151.952C78.632 151.808 78.704 151.64 78.704 151.436C78.704 151.22 78.632 151.052 78.488 150.92C78.344 150.764 78.164 150.692 77.96 150.692ZM77.96 155.084C77.744 155.084 77.576 155.156 77.432 155.312C77.288 155.444 77.228 155.612 77.228 155.828C77.228 156.032 77.288 156.2 77.432 156.344C77.576 156.488 77.744 156.56 77.96 156.56C78.164 156.56 78.344 156.488 78.488 156.344C78.632 156.2 78.704 156.032 78.704 155.828C78.704 155.612 78.632 155.444 78.488 155.312C78.344 155.156 78.164 155.084 77.96 155.084Z" fill="#4FA973"/>
<path d="M29.696 180.688V181.516H33.128V183.376H30.5V188.212H31.352V187.552H35.852V188.188H36.704V183.376H34.004V181.516H37.46V180.688H34.004V178.696C35.096 178.54 36.056 178.312 36.896 178.012L36.476 177.268C34.748 177.856 32.564 178.156 29.948 178.156L30.212 178.936C31.244 178.936 32.216 178.888 33.128 178.804V180.688H29.696ZM31.352 186.736V184.192H35.852V186.736H31.352ZM27.524 177.364L26.936 177.928C27.8 178.504 28.484 179.032 28.976 179.536L29.564 178.948C29.012 178.42 28.328 177.892 27.524 177.364ZM27.248 180.232L26.648 180.82C27.524 181.444 28.208 182.044 28.712 182.608L29.312 182.008C28.76 181.408 28.064 180.82 27.248 180.232ZM28.664 183.424C28.16 184.876 27.548 186.292 26.852 187.684L27.716 188.056C28.34 186.712 28.916 185.26 29.444 183.724L28.664 183.424ZM39.32 178.036V178.864H43.664V178.036H39.32ZM38.852 181.276V182.116H40.52C39.92 184.3 39.44 185.632 39.08 186.124C39.032 186.148 38.972 186.172 38.888 186.196L39.092 187.012C40.58 186.748 41.972 186.388 43.244 185.932C43.364 186.208 43.484 186.496 43.604 186.808L44.348 186.424C43.844 185.212 43.304 184.096 42.728 183.064L41.996 183.424C42.308 183.976 42.608 184.564 42.92 185.212C41.984 185.56 41.036 185.836 40.088 186.028C40.448 185.236 40.868 183.94 41.348 182.116H44.12V181.276H38.852ZM45.92 177.232V179.656H44.3V180.496H45.92V180.64C45.896 183.868 45.128 186.208 43.628 187.66L44.276 188.224C45.908 186.628 46.748 184.096 46.784 180.64V180.496H48.56C48.536 183.724 48.488 185.656 48.416 186.292C48.32 186.976 47.972 187.324 47.384 187.324C47.06 187.324 46.676 187.3 46.244 187.276L46.436 188.044C46.94 188.068 47.288 188.08 47.492 188.08C48.524 188.08 49.112 187.588 49.232 186.616C49.34 185.728 49.4 183.412 49.4 179.656H46.784V177.232H45.92ZM54.92 178.096H51.464V187.228H52.304V186.136H54.08V186.94H54.92V178.096ZM52.304 185.332V182.44H54.08V185.332H52.304ZM52.304 181.636V178.888H54.08V181.636H52.304ZM56.648 181.672L55.94 182.116C56.66 183.22 57.224 184.228 57.644 185.128L58.364 184.624C57.968 183.784 57.392 182.8 56.648 181.672ZM59.384 188.08C60.128 188.08 60.5 187.696 60.5 186.94V180.232H61.976V179.404H60.5V177.292H59.624V179.404H55.472V180.232H59.624V186.724C59.624 187.096 59.444 187.288 59.096 187.288C58.46 187.288 57.8 187.264 57.104 187.24L57.284 188.08H59.384ZM66.392 180.448V186.04H70.952V180.448H66.392ZM70.148 185.272H67.208V183.628H70.148V185.272ZM67.208 182.86V181.216H70.148V182.86H67.208ZM72.296 188.104C73.1 188.104 73.508 187.672 73.508 186.832V177.796H68.012V178.6H72.668V186.592C72.668 187.072 72.476 187.324 72.116 187.324L71.072 187.3L71.288 188.104H72.296ZM63.908 179.188V188.212H64.748V179.188H63.908ZM65.648 177.088L64.856 177.436C65.396 178.084 65.888 178.828 66.344 179.668L67.112 179.26C66.692 178.468 66.2 177.748 65.648 177.088ZM77.96 179.692C77.744 179.692 77.576 179.764 77.432 179.92C77.288 180.052 77.228 180.22 77.228 180.436C77.228 180.64 77.288 180.808 77.432 180.952C77.576 181.096 77.744 181.168 77.96 181.168C78.164 181.168 78.344 181.096 78.488 180.952C78.632 180.808 78.704 180.64 78.704 180.436C78.704 180.22 78.632 180.052 78.488 179.92C78.344 179.764 78.164 179.692 77.96 179.692ZM77.96 184.084C77.744 184.084 77.576 184.156 77.432 184.312C77.288 184.444 77.228 184.612 77.228 184.828C77.228 185.032 77.288 185.2 77.432 185.344C77.576 185.488 77.744 185.56 77.96 185.56C78.164 185.56 78.344 185.488 78.488 185.344C78.632 185.2 78.704 185.032 78.704 184.828C78.704 184.612 78.632 184.444 78.488 184.312C78.344 184.156 78.164 184.084 77.96 184.084Z" fill="#4FA973"/>
<path d="M29.696 209.688V210.516H33.128V212.376H30.5V217.212H31.352V216.552H35.852V217.188H36.704V212.376H34.004V210.516H37.46V209.688H34.004V207.696C35.096 207.54 36.056 207.312 36.896 207.012L36.476 206.268C34.748 206.856 32.564 207.156 29.948 207.156L30.212 207.936C31.244 207.936 32.216 207.888 33.128 207.804V209.688H29.696ZM31.352 215.736V213.192H35.852V215.736H31.352ZM27.524 206.364L26.936 206.928C27.8 207.504 28.484 208.032 28.976 208.536L29.564 207.948C29.012 207.42 28.328 206.892 27.524 206.364ZM27.248 209.232L26.648 209.82C27.524 210.444 28.208 211.044 28.712 211.608L29.312 211.008C28.76 210.408 28.064 209.82 27.248 209.232ZM28.664 212.424C28.16 213.876 27.548 215.292 26.852 216.684L27.716 217.056C28.34 215.712 28.916 214.26 29.444 212.724L28.664 212.424ZM39.32 207.036V207.864H43.664V207.036H39.32ZM38.852 210.276V211.116H40.52C39.92 213.3 39.44 214.632 39.08 215.124C39.032 215.148 38.972 215.172 38.888 215.196L39.092 216.012C40.58 215.748 41.972 215.388 43.244 214.932C43.364 215.208 43.484 215.496 43.604 215.808L44.348 215.424C43.844 214.212 43.304 213.096 42.728 212.064L41.996 212.424C42.308 212.976 42.608 213.564 42.92 214.212C41.984 214.56 41.036 214.836 40.088 215.028C40.448 214.236 40.868 212.94 41.348 211.116H44.12V210.276H38.852ZM45.92 206.232V208.656H44.3V209.496H45.92V209.64C45.896 212.868 45.128 215.208 43.628 216.66L44.276 217.224C45.908 215.628 46.748 213.096 46.784 209.64V209.496H48.56C48.536 212.724 48.488 214.656 48.416 215.292C48.32 215.976 47.972 216.324 47.384 216.324C47.06 216.324 46.676 216.3 46.244 216.276L46.436 217.044C46.94 217.068 47.288 217.08 47.492 217.08C48.524 217.08 49.112 216.588 49.232 215.616C49.34 214.728 49.4 212.412 49.4 208.656H46.784V206.232H45.92ZM61.556 208.512L58.976 209.304V206.196H58.136V209.568L56.384 210.108V207.42H55.544V210.372L54.536 210.684V211.524L55.544 211.212V215.784C55.544 216.576 55.94 216.984 56.744 216.984H60.536C60.98 216.984 61.304 216.864 61.508 216.636C61.748 216.372 61.904 215.64 61.988 214.428L61.184 214.176C61.136 215.148 61.04 215.736 60.908 215.928C60.812 216.084 60.632 216.168 60.38 216.168H57.008C56.588 216.168 56.384 215.976 56.384 215.616V210.96L58.136 210.432V214.716H58.976V210.18L60.728 209.652C60.716 211.284 60.68 212.232 60.62 212.484C60.548 212.748 60.344 212.88 60.02 212.88C59.876 212.88 59.708 212.868 59.528 212.856L59.768 213.708H59.84C60.74 213.708 61.256 213.444 61.376 212.94C61.496 212.412 61.556 210.936 61.556 208.512ZM54.692 213.612C54.236 213.828 53.756 214.032 53.276 214.212V210.228H54.524V209.388H53.276V206.292H52.424V209.388H51.056V210.228H52.424V214.5C51.92 214.644 51.416 214.776 50.912 214.884L51.128 215.748C52.4 215.412 53.588 214.98 54.692 214.464V213.612ZM70.676 206.184V215.88H68.876V208.728H68.012V215.88H66.62V216.72H74.18V215.88H71.552V210.852H73.832V210.024H71.552V206.184H70.676ZM67.22 213.708C66.692 213.9 66.152 214.068 65.6 214.224V210.132H67.076V209.292H65.6V206.244H64.712V209.292H63.212V210.132H64.712V214.464C64.184 214.584 63.644 214.692 63.092 214.788L63.32 215.7C64.712 215.412 66.02 215.04 67.22 214.608V213.708ZM77.96 208.692C77.744 208.692 77.576 208.764 77.432 208.92C77.288 209.052 77.228 209.22 77.228 209.436C77.228 209.64 77.288 209.808 77.432 209.952C77.576 210.096 77.744 210.168 77.96 210.168C78.164 210.168 78.344 210.096 78.488 209.952C78.632 209.808 78.704 209.64 78.704 209.436C78.704 209.22 78.632 209.052 78.488 208.92C78.344 208.764 78.164 208.692 77.96 208.692ZM77.96 213.084C77.744 213.084 77.576 213.156 77.432 213.312C77.288 213.444 77.228 213.612 77.228 213.828C77.228 214.032 77.288 214.2 77.432 214.344C77.576 214.488 77.744 214.56 77.96 214.56C78.164 214.56 78.344 214.488 78.488 214.344C78.632 214.2 78.704 214.032 78.704 213.828C78.704 213.612 78.632 213.444 78.488 213.312C78.344 213.156 78.164 213.084 77.96 213.084Z" fill="#4FA973"/>
<path d="M32.564 242.912C32.204 243.008 31.844 243.092 31.472 243.176V236.48H32.396V237.152H32.876C33.044 239.168 33.572 241.028 34.46 242.732C33.812 243.812 33.008 244.724 32.036 245.492L32.624 246.164C33.524 245.456 34.292 244.592 34.94 243.584C35.492 244.484 36.164 245.348 36.968 246.176L37.544 245.516C36.692 244.688 35.972 243.776 35.396 242.792C36.224 241.22 36.776 239.324 37.04 237.104V236.312H32.396V235.664H26.684V236.48H27.632V243.908C27.272 243.956 26.912 244.016 26.552 244.064L26.756 244.904C28.1 244.712 29.384 244.484 30.632 244.22V246.2H31.472V244.028C31.832 243.944 32.192 243.86 32.564 243.764V242.912ZM33.668 237.152H36.224C36.008 238.94 35.564 240.512 34.916 241.88C34.232 240.452 33.812 238.88 33.668 237.152ZM30.632 243.368C29.924 243.512 29.204 243.656 28.472 243.776V241.736H30.632V243.368ZM28.472 240.956V239.132H30.632V240.956H28.472ZM28.472 238.34V236.48H30.632V238.34H28.472ZM38.912 235.664V236.42H42.536V237.38H39.788V240.044H48.704V237.38H45.956V236.42H49.568V235.664H38.912ZM45.14 237.38H43.352V236.42H45.14V237.38ZM47.876 239.336H45.956V238.1H47.876V239.336ZM45.14 239.336H43.352V238.1H45.14V239.336ZM42.536 239.336H40.616V238.1H42.536V239.336ZM40.292 240.932V241.652H48.248V240.932H40.292ZM39.104 242.528V243.284H43.952V244.964C43.952 245.276 43.772 245.432 43.436 245.432C43.124 245.432 42.8 245.408 42.464 245.384L42.632 246.152H43.712C44.432 246.152 44.792 245.816 44.792 245.156V243.284H49.376V242.528H39.104ZM46.7 243.692L46.124 244.232C47.3 244.88 48.212 245.48 48.872 246.056L49.472 245.456C48.728 244.868 47.804 244.28 46.7 243.692ZM42.02 243.716C41.228 244.34 40.256 244.892 39.104 245.372L39.62 246.044C40.796 245.528 41.78 244.928 42.584 244.232L42.02 243.716ZM55.016 239.408H52.808C53.12 238.568 53.348 237.668 53.516 236.708H55.328V235.868H51.236V236.708H52.7C52.412 238.496 51.812 240.092 50.9 241.484L51.332 242.18C51.62 241.772 51.884 241.352 52.124 240.92V245.804H52.928V244.892H54.224V245.576H55.016V239.408ZM52.928 244.112V240.2H54.224V244.112H52.928ZM56.636 237.356L55.988 241.244H60.836C60.836 243.164 60.74 244.328 60.548 244.736C60.368 245.12 59.816 245.324 58.892 245.324C58.676 245.324 58.304 245.3 57.776 245.252L58.016 246.092C58.4 246.116 58.76 246.128 59.096 246.128C60.152 246.128 60.836 245.9 61.172 245.468C61.484 245.012 61.652 243.344 61.652 240.44H60.38L61.04 235.7H55.88V236.516H60.104L59.504 240.44H56.96L57.488 237.416L56.636 237.356ZM55.616 242.768V243.584H60.008V242.768H55.616ZM65.72 237.692C65.504 237.692 65.336 237.764 65.192 237.92C65.048 238.052 64.988 238.22 64.988 238.436C64.988 238.64 65.048 238.808 65.192 238.952C65.336 239.096 65.504 239.168 65.72 239.168C65.924 239.168 66.104 239.096 66.248 238.952C66.392 238.808 66.464 238.64 66.464 238.436C66.464 238.22 66.392 238.052 66.248 237.92C66.104 237.764 65.924 237.692 65.72 237.692ZM65.72 242.084C65.504 242.084 65.336 242.156 65.192 242.312C65.048 242.444 64.988 242.612 64.988 242.828C64.988 243.032 65.048 243.2 65.192 243.344C65.336 243.488 65.504 243.56 65.72 243.56C65.924 243.56 66.104 243.488 66.248 243.344C66.392 243.2 66.464 243.032 66.464 242.828C66.464 242.612 66.392 242.444 66.248 242.312C66.104 242.156 65.924 242.084 65.72 242.084Z" fill="#4FA973"/>
<path d="M28.03 300.58V304.26H34.01V300.58H28.03ZM33.31 303.62H28.73V302.74H33.31V303.62ZM28.73 302.13V301.22H33.31V302.13H28.73ZM26.91 297.73V298.39H30C29.22 299.09 28.03 299.68 26.43 300.14L26.81 300.78C28.56 300.15 29.83 299.35 30.61 298.39H30.67V300.26H31.37V298.39H31.43C32.17 299.37 33.44 300.16 35.24 300.77L35.55 300.12C33.97 299.7 32.81 299.12 32.06 298.39H35.13V297.73H31.37V296.81H30.67V297.73H26.91ZM26.71 305.04V305.71H35.3V305.04H26.71ZM37.42 298.67V299.29H40.26C40.13 299.51 39.98 299.74 39.82 299.97H36.88V300.61H39.32C38.61 301.45 37.71 302.23 36.62 302.97L37.01 303.59C37.63 303.17 38.19 302.72 38.7 302.26V306.01H39.39V305.58H43.91V306.01H44.6V301.3H39.64C39.83 301.08 40.01 300.85 40.19 300.61H45.6V299.97H40.63C40.76 299.75 40.89 299.53 41.01 299.29H45.02V298.67H41.3C41.4 298.42 41.5 298.16 41.59 297.89C42.85 297.79 43.95 297.64 44.9 297.43L44.57 296.86C42.7 297.24 40.35 297.43 37.51 297.43L37.72 298.03C38.86 298.03 39.92 298 40.9 297.94C40.8 298.18 40.7 298.43 40.59 298.67H37.42ZM39.39 303.12H43.91V303.75H39.39V303.12ZM43.91 302.56H39.39V301.89H43.91V302.56ZM39.39 304.31H43.91V304.99H39.39V304.31ZM52.66 299.38V300.83H50.62V301.51H52.66V303.02H50.11V303.71H52.66V305.99H53.38V303.71H55.97V303.02H53.38V301.51H55.44V300.83H53.38V299.38H55.74V298.7H54.22C54.54 298.2 54.82 297.64 55.07 297.02L54.38 296.78C54.13 297.46 53.84 298.1 53.51 298.7H50.33V299.38H52.66ZM51.51 296.82L50.9 297.11C51.26 297.57 51.59 298.1 51.9 298.68L52.49 298.38C52.18 297.82 51.85 297.3 51.51 296.82ZM48.04 296.97L47.54 297.44C48.23 297.98 48.77 298.48 49.16 298.96L49.64 298.46C49.21 297.96 48.68 297.47 48.04 296.97ZM46.82 299.89V300.58H48.23V304.55C48.23 304.72 48.15 304.87 48 305.01L48.27 305.64C48.84 305.16 49.39 304.63 49.91 304.04L49.72 303.31C49.44 303.63 49.18 303.92 48.93 304.18V299.89H46.82ZM61.6 303.12H64.77V303.82H61.6V303.12ZM64.77 302.56H61.6V301.82H64.77V302.56ZM61.6 304.37H64.77V304.96C64.77 305.2 64.65 305.33 64.42 305.33L63.67 305.29L63.85 305.93H64.63C65.18 305.93 65.46 305.65 65.46 305.11V301.22H60.92V305.98H61.6V304.37ZM62.86 296.83V297.47H60.51V298.06H62.86V298.75H60.85V299.33H62.86V300H60.21V300.07C60.05 299.5 59.86 298.99 59.66 298.54L59.14 298.7C59.39 299.28 59.6 299.89 59.76 300.52L60.21 300.41V300.6H66.19V300H63.58V299.33H65.57V298.75H63.58V298.06H65.9V297.47H63.58V296.83H62.86ZM57.3 298.76C57.28 299.72 57.17 300.64 56.97 301.51L57.52 301.66C57.72 300.76 57.84 299.81 57.86 298.8L57.3 298.76ZM58.32 296.86V305.96H59.02V296.86H58.32Z" fill="#4FA973"/>
<rect x="87" y="143" width="146" height="20" rx="4" fill="#C0ECCC"/>
<rect x="87" y="172" width="65" height="20" rx="4" fill="#C0ECCC"/>
<rect x="87" y="201" width="124" height="20" rx="4" fill="#C0ECCC"/>
<rect x="87" y="230" width="84" height="20" rx="4" fill="#C0ECCC"/>
<rect x="101" y="356" width="177" height="22" rx="8" fill="#A1E4B3"/>
<line x1="12" y1="288.5" x2="278" y2="288.5" stroke="#D1EBD8"/>
<path fill-rule="evenodd" clip-rule="evenodd" d="M59.6667 374.592C55.4325 374.592 52 371.159 52 366.925C52 362.691 55.4325 359.258 59.6667 359.258C63.9009 359.258 67.3333 362.691 67.3333 366.925C67.3333 371.159 63.9009 374.592 59.6667 374.592ZM59.6667 373.672C63.3927 373.672 66.4133 370.651 66.4133 366.925C66.4133 363.199 63.3927 360.178 59.6667 360.178C55.9406 360.178 52.92 363.199 52.92 366.925C52.92 370.651 55.9406 373.672 59.6667 373.672ZM56.9833 363.858H55.45V365.392H56.9833V363.858ZM57.75 363.858H59.2833V365.392H57.75V363.858ZM61.5833 363.858H60.05V365.392H61.5833V363.858ZM62.35 363.858H63.8833V365.392H62.35V363.858ZM56.9833 366.158H55.45V367.692H56.9833V366.158ZM57.75 366.158H59.2833V367.692H57.75V366.158ZM61.9667 369.225H57.3667V370.758H61.9667V369.225ZM60.05 366.158H61.5833V367.692H60.05V366.158ZM63.8833 366.158H62.35V367.692H63.8833V366.158Z" fill="#6EC87C"/>
<path opacity="0.9" fill-rule="evenodd" clip-rule="evenodd" d="M57.9417 357.725L59.6667 356L61.3917 357.725H57.9417Z" fill="#6EC87C"/>
<defs>
<filter id="filter0_d" x="230" y="68" width="234" height="335" filterUnits="userSpaceOnUse" color-interpolation-filters="sRGB">
<feFlood flood-opacity="0" result="BackgroundImageFix"/>
<feColorMatrix in="SourceAlpha" type="matrix" values="0 0 0 0 0 0 0 0 0 0 0 0 0 0 0 0 0 0 127 0"/>
<feOffset dy="2"/>
<feGaussianBlur stdDeviation="6"/>
<feColorMatrix type="matrix" values="0 0 0 0 0.188235 0 0 0 0 0.270588 0 0 0 0 0.2 0 0 0 0.06 0"/>
<feBlend mode="normal" in2="BackgroundImageFix" result="effect1_dropShadow"/>
<feBlend mode="normal" in="SourceGraphic" in2="effect1_dropShadow" result="shape"/>
</filter>
<filter id="filter1_d" x="244" y="126" width="206" height="76" filterUnits="userSpaceOnUse" color-interpolation-filters="sRGB">
<feFlood flood-opacity="0" result="BackgroundImageFix"/>
<feColorMatrix in="SourceAlpha" type="matrix" values="0 0 0 0 0 0 0 0 0 0 0 0 0 0 0 0 0 0 127 0"/>
<feOffset dy="2"/>
<feGaussianBlur stdDeviation="6"/>
<feColorMatrix type="matrix" values="0 0 0 0 0.188235 0 0 0 0 0.270588 0 0 0 0 0.2 0 0 0 0.04 0"/>
<feBlend mode="normal" in2="BackgroundImageFix" result="effect1_dropShadow"/>
<feBlend mode="normal" in="SourceGraphic" in2="effect1_dropShadow" result="shape"/>
</filter>
<filter id="filter2_d" x="244" y="188" width="206" height="76" filterUnits="userSpaceOnUse" color-interpolation-filters="sRGB">
<feFlood flood-opacity="0" result="BackgroundImageFix"/>
<feColorMatrix in="SourceAlpha" type="matrix" values="0 0 0 0 0 0 0 0 0 0 0 0 0 0 0 0 0 0 127 0"/>
<feOffset dy="2"/>
<feGaussianBlur stdDeviation="6"/>
<feColorMatrix type="matrix" values="0 0 0 0 0.188235 0 0 0 0 0.270588 0 0 0 0 0.2 0 0 0 0.04 0"/>
<feBlend mode="normal" in2="BackgroundImageFix" result="effect1_dropShadow"/>
<feBlend mode="normal" in="SourceGraphic" in2="effect1_dropShadow" result="shape"/>
</filter>
<filter id="filter3_d" x="25" y="0" width="283" height="407" filterUnits="userSpaceOnUse" color-interpolation-filters="sRGB">
<feFlood flood-opacity="0" result="BackgroundImageFix"/>
<feColorMatrix in="SourceAlpha" type="matrix" values="0 0 0 0 0 0 0 0 0 0 0 0 0 0 0 0 0 0 127 0"/>
<feOffset dy="6"/>
<feGaussianBlur stdDeviation="6"/>
<feColorMatrix type="matrix" values="0 0 0 0 0.188235 0 0 0 0 0.270588 0 0 0 0 0.2 0 0 0 0.08 0"/>
<feBlend mode="normal" in2="BackgroundImageFix" result="effect1_dropShadow"/>
<feBlend mode="normal" in="SourceGraphic" in2="effect1_dropShadow" result="shape"/>
</filter>
<filter id="filter4_d" x="0" y="61" width="290" height="270" filterUnits="userSpaceOnUse" color-interpolation-filters="sRGB">
<feFlood flood-opacity="0" result="BackgroundImageFix"/>
<feColorMatrix in="SourceAlpha" type="matrix" values="0 0 0 0 0 0 0 0 0 0 0 0 0 0 0 0 0 0 127 0"/>
<feOffset dy="4"/>
<feGaussianBlur stdDeviation="6"/>
<feColorMatrix type="matrix" values="0 0 0 0 0 0 0 0 0 0 0 0 0 0 0 0 0 0 0.08 0"/>
<feBlend mode="normal" in2="BackgroundImageFix" result="effect1_dropShadow"/>
<feBlend mode="normal" in="SourceGraphic" in2="effect1_dropShadow" result="shape"/>
</filter>
</defs>
</svg>
