<svg width="572" height="459" viewBox="0 0 572 459" fill="none" xmlns="http://www.w3.org/2000/svg">
<g filter="url(#filter0_d)">
<rect x="54" y="20" width="285" height="411" rx="16" fill="#FCFCFC"/>
<rect x="54.5" y="20.5" width="284" height="410" rx="15.5" stroke="#F3F3F3"/>
</g>
<path d="M160.224 43.424V44.88H164.656V46.96H161.248V53.648H162.768V52.864H168.224V53.632H169.728V46.96H166.208V44.88H170.672V43.424H166.208V41.088C167.648 40.88 168.912 40.576 170.016 40.192L169.264 38.912C166.896 39.68 163.984 40.064 160.512 40.064L160.992 41.424C162.288 41.424 163.504 41.36 164.656 41.264V43.424H160.224ZM162.768 51.44V48.384H168.224V51.44H162.768ZM157.52 39.04L156.48 40.016C157.648 40.784 158.56 41.504 159.2 42.16L160.24 41.136C159.488 40.432 158.576 39.728 157.52 39.04ZM157.152 42.848L156.08 43.888C157.264 44.736 158.192 45.52 158.848 46.256L159.904 45.2C159.168 44.416 158.24 43.632 157.152 42.848ZM158.704 47.152C158.048 49.072 157.264 50.944 156.352 52.784L157.872 53.456C158.672 51.664 159.424 49.744 160.096 47.696L158.704 47.152ZM173.04 39.872V41.328H178.992V39.872H173.04ZM172.448 44.192V45.664H174.496C173.76 48.352 173.184 50 172.752 50.624C172.688 50.672 172.592 50.72 172.432 50.752L172.8 52.192C174.752 51.84 176.56 51.376 178.24 50.8L178.656 51.824L179.968 51.152C179.296 49.536 178.592 48.048 177.856 46.704L176.576 47.328C176.944 48.016 177.312 48.752 177.68 49.536C176.608 49.936 175.536 50.256 174.48 50.48C174.896 49.456 175.392 47.856 175.968 45.664H179.568V44.192H172.448ZM181.744 38.928V42.032H179.712V43.504H181.744V43.648C181.712 47.824 180.72 50.848 178.784 52.736L179.92 53.744C182.096 51.616 183.2 48.256 183.248 43.648V43.504H185.232C185.2 47.76 185.152 50.272 185.056 51.024C184.928 51.792 184.528 52.176 183.824 52.176C183.408 52.176 182.912 52.144 182.336 52.096L182.688 53.44C183.328 53.472 183.776 53.504 184.032 53.504C185.488 53.504 186.304 52.896 186.48 51.68C186.624 50.464 186.704 47.248 186.704 42.032H183.248V38.928H181.744ZM191.072 44.56H193.312V46.896H191.072V44.56ZM193.312 43.2H191.072V40.832H193.312V43.2ZM191.04 48.272H193.312V51.488C193.312 52.048 193.136 52.336 192.8 52.336C192.416 52.336 192.016 52.304 191.568 52.256L191.936 53.6H193.216C194.192 53.6 194.688 53.056 194.688 51.968V39.456H189.712V47.312C189.696 49.472 189.376 51.248 188.736 52.64L189.888 53.68C190.544 52.256 190.928 50.448 191.04 48.272ZM197.2 46.688H197.408C197.76 48.176 198.4 49.52 199.328 50.704C198.736 51.376 198.032 51.952 197.2 52.4V46.688ZM197.2 52.448L197.984 53.632C198.88 53.152 199.664 52.544 200.32 51.808C200.992 52.464 201.792 53.072 202.704 53.616L203.456 52.336C202.592 51.824 201.824 51.264 201.168 50.64C201.84 49.536 202.32 48.192 202.608 46.624V45.344H197.2V40.832H201.04C201.008 41.904 200.944 42.576 200.848 42.848C200.752 43.072 200.624 43.216 200.464 43.264C200.304 43.312 200.048 43.344 199.712 43.344C199.264 43.344 198.912 43.328 198.656 43.328L199.056 44.608H200.4C201.424 44.608 202.032 44.272 202.224 43.6C202.416 42.912 202.512 41.536 202.512 39.456H195.776V53.664H197.2V52.448ZM198.704 46.688H201.264C201.008 47.744 200.64 48.688 200.16 49.52C199.504 48.672 199.024 47.728 198.704 46.688ZM209.616 38.816C208.96 40.368 207.696 41.68 205.824 42.752L206.752 43.968C207.408 43.568 208 43.136 208.544 42.672C209.2 43.216 209.904 43.728 210.672 44.176C209.008 44.8 207.088 45.248 204.944 45.52L205.648 46.944C208.176 46.56 210.416 45.936 212.336 45.072C214.32 46.016 216.56 46.624 219.04 46.912L219.728 45.488C217.616 45.296 215.712 44.864 214 44.224C215.36 43.424 216.528 42.464 217.488 41.36V40.128H210.64C210.832 39.792 211.008 39.424 211.168 39.04L209.616 38.816ZM212.32 43.472C211.312 42.96 210.384 42.352 209.552 41.664C209.568 41.632 209.6 41.6 209.648 41.552H215.264C214.4 42.288 213.424 42.928 212.32 43.472ZM211.168 46.048C211.168 46.624 211.104 47.168 211.008 47.68H206.048V49.04H210.544C210.448 49.248 210.32 49.456 210.192 49.664C209.392 50.768 207.68 51.696 205.072 52.464L206.08 53.696C209.04 52.752 210.912 51.568 211.712 50.128C211.904 49.792 212.064 49.424 212.208 49.04H216.544C216.496 50.448 216.368 51.328 216.16 51.664C215.952 51.984 215.44 52.16 214.624 52.176C214.112 52.144 213.44 52.112 212.608 52.08L212.992 53.456C213.76 53.504 214.432 53.536 214.976 53.536C216.096 53.536 216.896 53.248 217.344 52.704C217.792 52.16 218.032 50.48 218.064 47.68H212.544C212.624 47.168 212.672 46.624 212.672 46.048H211.168ZM223.776 39.36V43.968H233.504V39.36H223.776ZM231.968 42.608H225.312V40.72H231.968V42.608ZM224.896 46.48L224.144 49.392H232.176C232.08 50.608 231.952 51.392 231.776 51.712C231.584 52.032 231.072 52.192 230.272 52.192C229.6 52.192 228.848 52.144 227.984 52.064L228.496 53.44C229.12 53.52 229.824 53.568 230.608 53.568C231.76 53.568 232.544 53.312 232.944 52.816C233.344 52.32 233.6 50.72 233.728 48.016H225.952L226.416 46.48H235.904V45.024H221.36V46.48H224.896Z" fill="#444444"/>
<path fill-rule="evenodd" clip-rule="evenodd" d="M302 54V53.3155C302 52.6304 302.498 51.8319 303.114 51.5313L308.774 48.7691C309.595 48.3685 309.786 47.4813 309.193 46.7786L308.832 46.3501C308.096 45.4783 307.5 43.8495 307.5 42.7093V40.9996C307.5 38.7907 309.295 37 311.5 37C313.709 37 315.5 38.793 315.5 41.0002V42.7102C315.5 43.8493 314.901 45.4829 314.168 46.3516L313.807 46.7801C313.217 47.479 313.401 48.3684 314.226 48.7705L319.886 51.5316C320.501 51.8317 321 52.6252 321 53.3155V54C321 54.5523 320.552 55 320 55H303C302.448 55 302 54.5523 302 54Z" fill="#D6D6D6"/>
<g filter="url(#filter1_d)">
<rect x="8" y="87" width="266" height="246" rx="8" fill="white"/>
</g>
<path d="M257 315L261.563 319.563L257 324.125" stroke="#CDCDCD" stroke-width="1.11238" stroke-miterlimit="10" stroke-linecap="round" stroke-linejoin="round"/>
<path d="M26.864 106.424V107.88H31.296V109.96H27.888V116.648H29.408V115.864H34.864V116.632H36.368V109.96H32.848V107.88H37.312V106.424H32.848V104.088C34.288 103.88 35.552 103.576 36.656 103.192L35.904 101.912C33.536 102.68 30.624 103.064 27.152 103.064L27.632 104.424C28.928 104.424 30.144 104.36 31.296 104.264V106.424H26.864ZM29.408 114.44V111.384H34.864V114.44H29.408ZM24.16 102.04L23.12 103.016C24.288 103.784 25.2 104.504 25.84 105.16L26.88 104.136C26.128 103.432 25.216 102.728 24.16 102.04ZM23.792 105.848L22.72 106.888C23.904 107.736 24.832 108.52 25.488 109.256L26.544 108.2C25.808 107.416 24.88 106.632 23.792 105.848ZM25.344 110.152C24.688 112.072 23.904 113.944 22.992 115.784L24.512 116.456C25.312 114.664 26.064 112.744 26.736 110.696L25.344 110.152ZM39.68 102.872V104.328H45.632V102.872H39.68ZM39.088 107.192V108.664H41.136C40.4 111.352 39.824 113 39.392 113.624C39.328 113.672 39.232 113.72 39.072 113.752L39.44 115.192C41.392 114.84 43.2 114.376 44.88 113.8L45.296 114.824L46.608 114.152C45.936 112.536 45.232 111.048 44.496 109.704L43.216 110.328C43.584 111.016 43.952 111.752 44.32 112.536C43.248 112.936 42.176 113.256 41.12 113.48C41.536 112.456 42.032 110.856 42.608 108.664H46.208V107.192H39.088ZM48.384 101.928V105.032H46.352V106.504H48.384V106.648C48.352 110.824 47.36 113.848 45.424 115.736L46.56 116.744C48.736 114.616 49.84 111.256 49.888 106.648V106.504H51.872C51.84 110.76 51.792 113.272 51.696 114.024C51.568 114.792 51.168 115.176 50.464 115.176C50.048 115.176 49.552 115.144 48.976 115.096L49.328 116.44C49.968 116.472 50.416 116.504 50.672 116.504C52.128 116.504 52.944 115.896 53.12 114.68C53.264 113.464 53.344 110.248 53.344 105.032H49.888V101.928H48.384ZM60.816 102.52V103.944H64.448V109.64H60.368V111.08H64.448V116.648H65.92V111.08H70.064V109.64H65.92V103.944H69.584V102.52H60.816ZM67.92 104.568C67.568 106.152 67.168 107.464 66.72 108.504L68 108.952C68.512 107.8 68.928 106.456 69.248 104.92L67.92 104.568ZM62.288 104.632L60.992 105.048C61.472 106.296 61.872 107.608 62.176 108.984L63.472 108.664C63.12 107.144 62.736 105.8 62.288 104.632ZM57.408 102.008L56.352 103.048C57.488 103.88 58.368 104.68 59.008 105.432L60.048 104.376C59.328 103.576 58.448 102.792 57.408 102.008ZM55.248 106.648V108.104H57.488V113.992C57.488 114.312 57.344 114.584 57.088 114.808L57.664 116.184C58.752 115.448 59.792 114.6 60.752 113.656L60.336 112.056C59.84 112.536 59.376 112.984 58.944 113.384V106.648H55.248ZM73.456 108.008V116.568H74.992V105.48C75.472 104.52 75.872 103.528 76.192 102.488L74.768 101.816C74.064 104.248 72.96 106.376 71.472 108.2L71.984 109.832C72.496 109.256 72.992 108.648 73.456 108.008ZM82.048 107.528V116.504H83.52V107.528H82.048ZM78.016 107.576V109.944C77.984 112.6 77.312 114.52 76 115.72L77.136 116.712C78.672 115.288 79.456 113.032 79.488 109.944V107.576H78.016ZM80.032 101.96C78.912 104.264 77.312 106.136 75.232 107.576L76.08 108.872C77.952 107.592 79.504 105.768 80.72 103.416C81.792 105.512 83.424 107.272 85.6 108.712L86.448 107.416C84.08 105.848 82.4 104.04 81.424 101.96H80.032ZM89.904 116.504C90.944 116.504 91.472 115.976 91.472 114.952V110.472C91.872 110.28 92.272 110.072 92.688 109.864V108.312C92.288 108.536 91.888 108.744 91.472 108.936V106.28H92.96V104.824H91.472V101.928H89.936V104.824H88.128V106.28H89.936V109.576C89.264 109.816 88.592 110.024 87.904 110.184L88.272 111.72C88.832 111.528 89.392 111.336 89.936 111.128V114.552C89.936 114.92 89.744 115.112 89.376 115.112C88.992 115.112 88.576 115.08 88.16 115.032L88.496 116.504H89.904ZM94.048 102.376V108.152H101.248V102.376H94.048ZM99.76 106.92H95.52V105.832H99.76V106.92ZM95.52 104.68V103.608H99.76V104.68H95.52ZM93.008 108.984V110.344H96.912V114.52L96.768 114.472C96.144 114.216 95.6 113.608 95.12 112.68C95.232 112.152 95.312 111.608 95.344 111.032L94 110.872C93.872 112.632 93.232 114.216 92.08 115.656L93.216 116.632C93.808 115.88 94.288 115.064 94.656 114.184C95.104 114.92 95.616 115.432 96.176 115.72C96.96 116.104 98.416 116.296 100.544 116.312C101.056 116.328 101.616 116.344 102.24 116.344L102.656 114.872C102.048 114.936 101.312 114.968 100.448 114.968C99.648 114.968 98.96 114.92 98.368 114.856V113.16H101.52V111.816H98.368V110.344H102.208V108.984H93.008ZM105.936 113.08H109.472V114.488H105.936V113.08ZM109.472 115.768V116.536H110.656V111.576L111.504 112.68C111.952 112.136 112.32 111.528 112.64 110.856H114.432V112.2H112.112V113.512H114.432V114.92H111.264V116.344H118.912V114.92H115.888V113.512H118.16V112.2H115.888V110.856H118.512V109.528H115.888V108.408H114.432V109.528H113.136C113.232 109.208 113.312 108.856 113.392 108.488L112.08 108.344C111.824 109.592 111.344 110.664 110.656 111.544V105.384H109.2V103.752H110.944V102.44H104.304V103.752H106.192V105.384H104.736V116.552H105.936V115.768H109.472ZM108.048 105.384H107.344V103.752H108.048V105.384ZM109.472 111.88H105.936V110.872L106.4 111.288C107.072 110.504 107.408 109.256 107.424 107.56V106.632H108.016V109.688C108.016 110.28 108.272 110.584 108.816 110.584H109.472V111.88ZM108.848 106.632H109.472V109.656H109.056C108.912 109.656 108.848 109.576 108.848 109.448V106.632ZM105.936 110.504V106.632H106.608V107.56C106.592 108.84 106.368 109.832 105.936 110.504ZM111.616 102.408V108.024H118.32V102.408H111.616ZM116.896 106.824H113.024V105.816H116.896V106.824ZM113.024 104.632V103.608H116.896V104.632H113.024Z" fill="#23AD49"/>
<path d="M28.984 135.868C29.584 135.868 29.896 135.532 29.896 134.872V131.62H29.032V134.668C29.032 134.968 28.912 135.124 28.696 135.124C28.432 135.124 28.144 135.1 27.844 135.064L28.024 135.868H28.984ZM24.064 132.424V135.88H24.904V131.296C25.288 130.708 25.636 130.06 25.948 129.364L25.108 129.184C24.412 130.708 23.524 131.944 22.444 132.88L22.984 133.54C23.356 133.204 23.716 132.832 24.064 132.424ZM27.808 129.172C27.244 130.432 26.512 131.452 25.612 132.244L26.14 132.892C26.716 132.364 27.244 131.764 27.7 131.068H32.128C31.996 131.548 31.828 131.98 31.624 132.376L32.404 132.58C32.644 132.004 32.836 131.416 32.992 130.816V130.276H28.18C28.324 129.988 28.48 129.676 28.624 129.352L27.808 129.172ZM23.86 136.492C23.62 137.476 23.26 138.388 22.756 139.204L23.488 139.672C24.004 138.82 24.4 137.812 24.688 136.66L23.86 136.492ZM29.764 140.02C30.196 140.02 30.52 139.924 30.724 139.732C30.964 139.504 31.12 138.868 31.204 137.812L30.388 137.548C30.34 138.34 30.256 138.82 30.112 138.988C30.004 139.132 29.836 139.204 29.596 139.204H26.956C26.62 139.204 26.464 139.024 26.464 138.688V136.336H25.588V138.868C25.588 139.636 25.948 140.02 26.692 140.02H29.764ZM31.804 136.12L31.096 136.552C31.828 137.584 32.416 138.532 32.848 139.396L33.556 138.892C33.148 138.1 32.572 137.176 31.804 136.12ZM27.484 132.772C27.052 133.636 26.536 134.392 25.936 135.04L26.596 135.496C27.196 134.824 27.724 134.02 28.18 133.096L27.484 132.772ZM31.468 132.76L30.736 133.072C31.288 133.792 31.804 134.608 32.26 135.544L32.992 135.172C32.548 134.284 32.044 133.48 31.468 132.76ZM28.084 136.012L27.412 136.432C27.988 137.104 28.444 137.728 28.78 138.28L29.452 137.812C29.14 137.296 28.684 136.696 28.084 136.012ZM44.26 134.632V129.832H35.38V130.672H43.384V133.804H36.724V132.028H35.86V138.328C35.86 139.312 36.34 139.816 37.312 139.816H43.816C44.32 139.792 44.716 139.66 44.98 139.408C45.268 139.096 45.472 138.208 45.592 136.72L44.752 136.456C44.68 137.776 44.524 138.544 44.284 138.76C44.104 138.904 43.864 138.976 43.576 138.976H37.552C37 138.976 36.724 138.7 36.724 138.172V134.632H44.26ZM55.408 129.16L54.856 129.688C55.468 130.156 55.948 130.6 56.308 131.032H54.064C54.04 130.456 54.028 129.844 54.028 129.172H53.14C53.14 129.82 53.152 130.432 53.176 131.032H48.22V135.028C48.184 136.984 47.788 138.508 47.02 139.612L47.68 140.2C48.568 138.904 49.048 137.176 49.096 135.028V134.668H51.172C51.148 135.988 51.112 136.852 51.04 137.26C50.968 137.596 50.8 137.776 50.536 137.788C50.212 137.788 49.816 137.776 49.348 137.752L49.612 138.532C49.996 138.556 50.344 138.58 50.632 138.58C51.232 138.556 51.604 138.292 51.76 137.776C51.916 137.188 52.012 135.88 52.036 133.852H49.096V131.86H53.212C53.308 133.36 53.476 134.62 53.74 135.628C53.872 136.144 54.028 136.624 54.196 137.068C53.368 138.112 52.348 138.904 51.148 139.444L51.628 140.164C52.756 139.66 53.74 138.928 54.58 137.944C54.76 138.316 54.964 138.652 55.18 138.94C55.756 139.66 56.296 140.02 56.8 140.02C57.34 140.02 57.748 139.216 58.036 137.62L57.256 137.188C57.076 138.424 56.872 139.048 56.656 139.06C56.416 139.06 56.092 138.772 55.696 138.196C55.504 137.92 55.324 137.584 55.156 137.2C55.924 136.12 56.548 134.776 57.028 133.192L56.248 132.856C55.876 134.14 55.396 135.268 54.796 136.228C54.712 135.964 54.628 135.688 54.556 135.388C54.34 134.524 54.184 133.348 54.1 131.86H57.796V131.032H56.332L56.884 130.48C56.476 130.036 55.984 129.592 55.408 129.16ZM61.072 131.368V137.116C60.46 137.26 59.836 137.392 59.212 137.5L59.428 138.364C60.988 138.028 62.452 137.62 63.82 137.116V136.252C63.208 136.492 62.584 136.696 61.948 136.876V131.368H63.676V130.54H59.344V131.368H61.072ZM65.884 129.232V131.656H63.976V132.496H65.884C65.836 135.76 64.948 138.148 63.196 139.636L63.904 140.248C65.752 138.604 66.712 136.024 66.772 132.496H68.968C68.944 135.7 68.896 137.62 68.824 138.244C68.704 138.928 68.248 139.276 67.468 139.276C67.132 139.276 66.748 139.264 66.304 139.24L66.508 140.044C67.024 140.068 67.384 140.092 67.6 140.092C68.812 140.092 69.496 139.588 69.64 138.604C69.76 137.716 69.82 135.4 69.82 131.656H66.772V129.232H65.884ZM71.704 132.796V133.588H75.016C74.164 134.344 72.976 134.944 71.464 135.388L71.86 136.156C73.732 135.484 75.136 134.632 76.072 133.588H78.244C79.012 134.62 80.296 135.448 82.096 136.096L82.468 135.304C80.98 134.884 79.876 134.308 79.156 133.588H82.144V132.796H76.672C76.864 132.472 77.032 132.136 77.164 131.788C78.088 131.74 78.988 131.68 79.852 131.632C80.152 131.92 80.428 132.196 80.668 132.484L81.388 131.98C80.764 131.296 79.852 130.492 78.664 129.568L78.004 129.988C78.4 130.312 78.772 130.624 79.12 130.936C77.68 131.032 76.168 131.116 74.56 131.164C75.244 130.72 75.94 130.144 76.636 129.424L75.796 129.136C74.608 130.312 73.624 130.996 72.844 131.188L72.976 131.944C74.116 131.908 75.22 131.872 76.288 131.824C76.156 132.16 75.976 132.484 75.748 132.796H71.704ZM76.996 134.008C76.264 134.896 75.112 135.604 73.552 136.132L73.924 136.804C75.616 136.216 76.864 135.424 77.668 134.416L76.996 134.008ZM80.092 135.868C79.108 137.62 76.804 138.892 73.18 139.66L73.672 140.332C77.356 139.552 79.756 138.172 80.86 136.204L80.092 135.868ZM78.52 135.004C77.296 136.48 75.58 137.404 73.36 137.764L73.852 138.424C76.012 138.04 77.788 137.056 79.192 135.46L78.52 135.004ZM85.912 129.148L85.348 134.416H92.176C92.176 136.696 92.032 138.088 91.756 138.58C91.492 139.036 90.676 139.264 89.32 139.264C89.08 139.264 88.672 139.228 88.084 139.18L88.312 139.972C88.72 139.996 89.116 140.02 89.5 140.02C90.964 140.02 91.924 139.768 92.368 139.276C92.824 138.76 93.052 136.876 93.052 133.612H86.308L86.512 131.656H93.868V130.828H86.596L86.764 129.22L85.912 129.148ZM83.8 136.348V137.176H90.58V136.348H83.8ZM99.136 132.688V133.516H102.568V135.376H99.94V140.212H100.792V139.552H105.292V140.188H106.144V135.376H103.444V133.516H106.9V132.688H103.444V130.696C104.536 130.54 105.496 130.312 106.336 130.012L105.916 129.268C104.188 129.856 102.004 130.156 99.388 130.156L99.652 130.936C100.684 130.936 101.656 130.888 102.568 130.804V132.688H99.136ZM100.792 138.736V136.192H105.292V138.736H100.792ZM96.964 129.364L96.376 129.928C97.24 130.504 97.924 131.032 98.416 131.536L99.004 130.948C98.452 130.42 97.768 129.892 96.964 129.364ZM96.688 132.232L96.088 132.82C96.964 133.444 97.648 134.044 98.152 134.608L98.752 134.008C98.2 133.408 97.504 132.82 96.688 132.232ZM98.104 135.424C97.6 136.876 96.988 138.292 96.292 139.684L97.156 140.056C97.78 138.712 98.356 137.26 98.884 135.724L98.104 135.424ZM108.76 130.036V130.864H113.104V130.036H108.76ZM108.292 133.276V134.116H109.96C109.36 136.3 108.88 137.632 108.52 138.124C108.472 138.148 108.412 138.172 108.328 138.196L108.532 139.012C110.02 138.748 111.412 138.388 112.684 137.932C112.804 138.208 112.924 138.496 113.044 138.808L113.788 138.424C113.284 137.212 112.744 136.096 112.168 135.064L111.436 135.424C111.748 135.976 112.048 136.564 112.36 137.212C111.424 137.56 110.476 137.836 109.528 138.028C109.888 137.236 110.308 135.94 110.788 134.116H113.56V133.276H108.292ZM115.36 129.232V131.656H113.74V132.496H115.36V132.64C115.336 135.868 114.568 138.208 113.068 139.66L113.716 140.224C115.348 138.628 116.188 136.096 116.224 132.64V132.496H118C117.976 135.724 117.928 137.656 117.856 138.292C117.76 138.976 117.412 139.324 116.824 139.324C116.5 139.324 116.116 139.3 115.684 139.276L115.876 140.044C116.38 140.068 116.728 140.08 116.932 140.08C117.964 140.08 118.552 139.588 118.672 138.616C118.78 137.728 118.84 135.412 118.84 131.656H116.224V129.232H115.36ZM122.152 137.572C121.912 137.572 121.732 137.632 121.588 137.776C121.444 137.908 121.372 138.088 121.372 138.316C121.372 138.52 121.444 138.7 121.588 138.844C121.732 138.988 121.9 139.06 122.104 139.06C122.224 139.06 122.32 139.036 122.368 139.012C122.368 139.3 122.284 139.564 122.104 139.816C121.912 140.056 121.66 140.236 121.348 140.344V140.932C121.852 140.8 122.272 140.536 122.584 140.152C122.896 139.744 123.052 139.276 123.052 138.748C123.052 138.4 122.968 138.124 122.812 137.908C122.644 137.68 122.416 137.572 122.152 137.572ZM139.984 129.196V130.48H137.872V131.26H139.984V132.664H137.212V133.48H143.596V132.664H140.848V131.26H143.068V130.48H140.848V129.196H139.984ZM137.5 134.896V135.712H141.34V138.88C141.34 139.192 141.196 139.36 140.932 139.36C140.476 139.36 140.008 139.336 139.528 139.3L139.708 140.116H141.232C141.856 140.116 142.18 139.768 142.18 139.096V135.712H143.5V134.896H142.18V134.116H141.34V134.896H137.5ZM138.388 136.264L137.716 136.684C138.316 137.368 138.796 137.992 139.144 138.568L139.828 138.088C139.492 137.56 139.012 136.96 138.388 136.264ZM133.852 132.544H134.98V135.724C134.236 135.964 133.48 136.168 132.712 136.324L132.916 137.164C133.612 136.972 134.308 136.768 134.98 136.54V140.2H135.808V136.228C136.18 136.084 136.552 135.928 136.936 135.76V134.944C136.564 135.112 136.192 135.268 135.808 135.424V132.544H136.9V131.704H135.808V129.208H134.98V131.704H133.972C134.032 131.224 134.068 130.732 134.092 130.216L133.3 130.156C133.252 131.536 133.036 132.844 132.664 134.092L133.42 134.308C133.588 133.744 133.732 133.156 133.852 132.544ZM145.768 129.376L145.192 129.928C145.96 130.624 146.572 131.272 147.028 131.872L147.616 131.284C147.124 130.648 146.512 130.012 145.768 129.376ZM152.908 139.984H155.656L155.86 139.12C155.548 139.144 155.092 139.156 154.516 139.168C153.928 139.18 153.352 139.192 152.788 139.192C151.804 139.192 150.988 139.18 150.316 139.168C149.584 139.144 149.02 139.048 148.624 138.88C148.288 138.724 147.952 138.472 147.64 138.124C147.532 138.004 147.424 137.92 147.328 137.848V133.336H145.048V134.14H146.512V137.824C146.08 138.04 145.588 138.652 145.036 139.648L145.648 140.212C146.236 139.108 146.656 138.568 146.896 138.568C147.052 138.568 147.22 138.664 147.388 138.868C147.772 139.3 148.204 139.6 148.696 139.744C149.2 139.876 149.86 139.948 150.676 139.96C151.48 139.972 152.224 139.984 152.908 139.984ZM148.552 130.024V133.348H149.608L149.908 134.08H148.156V134.812H149.236C149.152 135.472 149.032 136.012 148.864 136.432C148.672 136.876 148.384 137.284 148.012 137.644L148.504 138.28C148.96 137.836 149.308 137.332 149.548 136.78C149.608 136.612 149.668 136.432 149.728 136.228H151.204C151.192 136.876 151.156 137.296 151.096 137.476C151.024 137.656 150.856 137.752 150.616 137.764H149.92L150.136 138.472H150.82C151.252 138.46 151.552 138.304 151.732 138.016C151.9 137.728 151.984 136.9 151.984 135.544H149.884C149.92 135.328 149.956 135.076 150.004 134.812H152.356V134.08H150.724L150.424 133.348H151.936V133.288L152.284 133.72C152.68 133.18 153.016 132.532 153.292 131.776H154.456C154.432 132.76 154.312 133.66 154.12 134.464C153.808 133.984 153.484 133.576 153.148 133.216L152.704 133.72C153.112 134.212 153.496 134.752 153.856 135.34C153.472 136.384 152.908 137.224 152.152 137.848L152.596 138.544C153.316 137.92 153.904 137.14 154.336 136.18C154.672 136.804 154.996 137.5 155.308 138.244L155.872 137.68C155.488 136.804 155.08 136.024 154.672 135.328C154.996 134.308 155.176 133.12 155.224 131.776H155.824V130.972H153.532C153.676 130.444 153.796 129.88 153.892 129.268L153.1 129.124C152.884 130.732 152.5 132.028 151.936 133.036V130.024H150.508C150.604 129.772 150.688 129.496 150.76 129.208L149.896 129.088C149.848 129.412 149.788 129.724 149.704 130.024H148.552ZM151.204 132.748H149.284V131.98H151.204V132.748ZM149.284 131.38V130.624H151.204V131.38H149.284ZM163.624 135.868C164.224 135.868 164.536 135.532 164.536 134.872V131.62H163.672V134.668C163.672 134.968 163.552 135.124 163.336 135.124C163.072 135.124 162.784 135.1 162.484 135.064L162.664 135.868H163.624ZM158.704 132.424V135.88H159.544V131.296C159.928 130.708 160.276 130.06 160.588 129.364L159.748 129.184C159.052 130.708 158.164 131.944 157.084 132.88L157.624 133.54C157.996 133.204 158.356 132.832 158.704 132.424ZM162.448 129.172C161.884 130.432 161.152 131.452 160.252 132.244L160.78 132.892C161.356 132.364 161.884 131.764 162.34 131.068H166.768C166.636 131.548 166.468 131.98 166.264 132.376L167.044 132.58C167.284 132.004 167.476 131.416 167.632 130.816V130.276H162.82C162.964 129.988 163.12 129.676 163.264 129.352L162.448 129.172ZM158.5 136.492C158.26 137.476 157.9 138.388 157.396 139.204L158.128 139.672C158.644 138.82 159.04 137.812 159.328 136.66L158.5 136.492ZM164.404 140.02C164.836 140.02 165.16 139.924 165.364 139.732C165.604 139.504 165.76 138.868 165.844 137.812L165.028 137.548C164.98 138.34 164.896 138.82 164.752 138.988C164.644 139.132 164.476 139.204 164.236 139.204H161.596C161.26 139.204 161.104 139.024 161.104 138.688V136.336H160.228V138.868C160.228 139.636 160.588 140.02 161.332 140.02H164.404ZM166.444 136.12L165.736 136.552C166.468 137.584 167.056 138.532 167.488 139.396L168.196 138.892C167.788 138.1 167.212 137.176 166.444 136.12ZM162.124 132.772C161.692 133.636 161.176 134.392 160.576 135.04L161.236 135.496C161.836 134.824 162.364 134.02 162.82 133.096L162.124 132.772ZM166.108 132.76L165.376 133.072C165.928 133.792 166.444 134.608 166.9 135.544L167.632 135.172C167.188 134.284 166.684 133.48 166.108 132.76ZM162.724 136.012L162.052 136.432C162.628 137.104 163.084 137.728 163.42 138.28L164.092 137.812C163.78 137.296 163.324 136.696 162.724 136.012ZM170.416 129.388L169.828 129.952C170.68 130.636 171.352 131.272 171.832 131.86L172.456 131.248C171.904 130.624 171.22 130.012 170.416 129.388ZM177.388 139.984H180.136L180.34 139.12C180.028 139.144 179.572 139.156 178.996 139.168C178.408 139.18 177.832 139.192 177.268 139.192C176.344 139.192 175.564 139.18 174.94 139.168C174.244 139.144 173.704 139.048 173.344 138.88C173.008 138.724 172.708 138.472 172.42 138.124C172.324 138.016 172.228 137.92 172.132 137.848V133.36H169.612V134.152H171.328V137.8C170.836 138.016 170.272 138.628 169.636 139.636L170.284 140.224C170.944 139.12 171.412 138.568 171.7 138.568C171.844 138.568 172 138.664 172.156 138.868C172.528 139.3 172.948 139.6 173.416 139.744C173.896 139.876 174.508 139.948 175.276 139.96C176.032 139.972 176.74 139.984 177.388 139.984ZM173.284 131.092V131.896H174.7V132.844C174.7 133.348 174.664 133.828 174.604 134.284H172.864V135.1H174.448C174.184 136.228 173.668 137.068 172.912 137.608L173.428 138.304C174.352 137.608 174.976 136.54 175.288 135.1H177.424V138.544H178.264V135.1H180.172V134.284H178.264V131.896H179.788V131.092H178.264V129.196H177.424V131.092H175.528V129.184H174.7V131.092H173.284ZM175.528 131.896H177.424V134.284H175.432C175.492 133.78 175.528 133.228 175.528 132.652V131.896ZM186.22 129.964V130.816H191.968V129.964H186.22ZM185.896 133.012V133.864H189.676V138.892C189.676 139.204 189.472 139.36 189.088 139.36C188.56 139.36 188.02 139.336 187.444 139.3L187.624 140.152H189.388C190.156 140.152 190.552 139.804 190.552 139.108V133.864H192.496V133.012H185.896ZM184.324 129.304C183.76 130.432 182.86 131.44 181.612 132.328L181.864 133.192C183.352 132.172 184.432 130.996 185.104 129.664L184.324 129.304ZM184.888 132.04C184.216 133.372 183.148 134.548 181.684 135.58L181.936 136.444C182.512 136.048 183.028 135.628 183.508 135.196V140.2H184.36V134.32C184.888 133.72 185.32 133.072 185.668 132.4L184.888 132.04ZM198.736 129.22V132.724H195.472V136.576H203.416V132.724H199.588V131.2H204.244V130.384H199.588V129.22H198.736ZM202.552 135.772H196.336V133.54H202.552V135.772ZM195.448 137.104C195.016 138.088 194.5 138.94 193.9 139.648L194.608 140.164C195.208 139.396 195.724 138.496 196.18 137.452L195.448 137.104ZM198.064 137.452L197.26 137.62C197.488 138.376 197.68 139.24 197.848 140.224L198.712 140.032C198.52 139.108 198.304 138.244 198.064 137.452ZM200.572 137.332L199.756 137.5C200.116 138.28 200.416 139.18 200.656 140.2L201.508 140.008C201.244 139.048 200.932 138.148 200.572 137.332ZM203.032 137.092L202.336 137.536C203.068 138.52 203.644 139.408 204.064 140.224L204.784 139.72C204.376 138.976 203.8 138.1 203.032 137.092ZM210.268 129.748V130.564H213.088V135.088H209.932V135.916H213.088V140.2H213.928V135.916H217.132V135.088H213.928V130.564H216.772V129.748H210.268ZM215.68 131.164C215.416 132.376 215.104 133.384 214.744 134.176L215.476 134.428C215.86 133.552 216.184 132.532 216.436 131.368L215.68 131.164ZM211.192 131.236L210.448 131.476C210.844 132.424 211.168 133.42 211.408 134.452L212.152 134.26C211.864 133.12 211.552 132.112 211.192 131.236ZM207.544 129.316L206.944 129.904C207.808 130.552 208.504 131.176 209.008 131.764L209.596 131.164C209.044 130.54 208.36 129.928 207.544 129.316ZM206.104 132.868V133.696H207.868V138.484C207.868 138.676 207.772 138.844 207.592 139.012L207.928 139.78C208.72 139.24 209.464 138.628 210.172 137.932L209.932 137.02C209.488 137.464 209.08 137.848 208.696 138.184V132.868H206.104Z" fill="#469E69"/>
<path d="M25.696 169.688V170.516H29.128V172.376H26.5V177.212H27.352V176.552H31.852V177.188H32.704V172.376H30.004V170.516H33.46V169.688H30.004V167.696C31.096 167.54 32.056 167.312 32.896 167.012L32.476 166.268C30.748 166.856 28.564 167.156 25.948 167.156L26.212 167.936C27.244 167.936 28.216 167.888 29.128 167.804V169.688H25.696ZM27.352 175.736V173.192H31.852V175.736H27.352ZM23.524 166.364L22.936 166.928C23.8 167.504 24.484 168.032 24.976 168.536L25.564 167.948C25.012 167.42 24.328 166.892 23.524 166.364ZM23.248 169.232L22.648 169.82C23.524 170.444 24.208 171.044 24.712 171.608L25.312 171.008C24.76 170.408 24.064 169.82 23.248 169.232ZM24.664 172.424C24.16 173.876 23.548 175.292 22.852 176.684L23.716 177.056C24.34 175.712 24.916 174.26 25.444 172.724L24.664 172.424ZM35.32 167.036V167.864H39.664V167.036H35.32ZM34.852 170.276V171.116H36.52C35.92 173.3 35.44 174.632 35.08 175.124C35.032 175.148 34.972 175.172 34.888 175.196L35.092 176.012C36.58 175.748 37.972 175.388 39.244 174.932C39.364 175.208 39.484 175.496 39.604 175.808L40.348 175.424C39.844 174.212 39.304 173.096 38.728 172.064L37.996 172.424C38.308 172.976 38.608 173.564 38.92 174.212C37.984 174.56 37.036 174.836 36.088 175.028C36.448 174.236 36.868 172.94 37.348 171.116H40.12V170.276H34.852ZM41.92 166.232V168.656H40.3V169.496H41.92V169.64C41.896 172.868 41.128 175.208 39.628 176.66L40.276 177.224C41.908 175.628 42.748 173.096 42.784 169.64V169.496H44.56C44.536 172.724 44.488 174.656 44.416 175.292C44.32 175.976 43.972 176.324 43.384 176.324C43.06 176.324 42.676 176.3 42.244 176.276L42.436 177.044C42.94 177.068 43.288 177.08 43.492 177.08C44.524 177.08 45.112 176.588 45.232 175.616C45.34 174.728 45.4 172.412 45.4 168.656H42.784V166.232H41.92ZM50.74 176.456H56.104V177.164H56.98V172.1H51.976C54.232 171.056 55.78 169.712 56.644 168.068V167.3H51.964C52.204 166.976 52.42 166.64 52.612 166.28L51.664 166.172C50.944 167.444 49.564 168.524 47.512 169.4L48.088 170.144C49.36 169.544 50.392 168.872 51.208 168.116H55.648C55.084 169.1 54.196 169.952 52.972 170.684C52.456 170.24 51.736 169.736 50.824 169.172L50.08 169.64C50.992 170.156 51.712 170.636 52.24 171.08C50.86 171.776 49.132 172.328 47.056 172.76L47.512 173.588C48.352 173.384 49.132 173.168 49.876 172.928V177.164H50.74V176.456ZM56.104 175.616H50.74V172.904H56.104V175.616ZM59.416 169.484V170.312H61.072C60.688 171.68 60.04 172.892 59.128 173.96L59.5 174.92C60.196 173.96 60.76 172.892 61.168 171.716V177.164H61.996V171.74C62.356 172.16 62.8 172.724 63.304 173.444L63.784 172.724C63.184 172.076 62.596 171.5 61.996 170.972V170.312H63.472V169.484H61.996V167.636C62.608 167.516 63.184 167.372 63.712 167.228L63.412 166.412C62.26 166.772 60.952 167.012 59.464 167.144L59.632 167.96C60.16 167.912 60.664 167.84 61.168 167.768V169.484H59.416ZM66.232 177.14C66.916 177.14 67.264 176.78 67.264 176.06V169.712H66.376V175.844C66.376 176.192 66.22 176.372 65.932 176.372C65.608 176.372 65.26 176.348 64.9 176.312L65.08 177.14H66.232ZM64.72 171.44C64.42 172.832 63.952 174.116 63.304 175.268L64.048 175.736C64.684 174.572 65.176 173.192 65.524 171.596L64.72 171.44ZM68.824 171.356L68.044 171.608C68.548 172.844 69.016 174.26 69.436 175.856L70.228 175.508C69.832 174.032 69.364 172.652 68.824 171.356ZM65.536 168.692H68.968C68.824 169.388 68.644 170.012 68.428 170.576L69.268 170.828C69.508 170.036 69.688 169.232 69.832 168.416V167.852H65.86C66.028 167.348 66.172 166.82 66.28 166.268L65.428 166.16C65.14 167.696 64.576 168.992 63.76 170.048L64.288 170.732C64.78 170.132 65.2 169.448 65.536 168.692ZM73.96 168.692C73.744 168.692 73.576 168.764 73.432 168.92C73.288 169.052 73.228 169.22 73.228 169.436C73.228 169.64 73.288 169.808 73.432 169.952C73.576 170.096 73.744 170.168 73.96 170.168C74.164 170.168 74.344 170.096 74.488 169.952C74.632 169.808 74.704 169.64 74.704 169.436C74.704 169.22 74.632 169.052 74.488 168.92C74.344 168.764 74.164 168.692 73.96 168.692ZM73.96 173.084C73.744 173.084 73.576 173.156 73.432 173.312C73.288 173.444 73.228 173.612 73.228 173.828C73.228 174.032 73.288 174.2 73.432 174.344C73.576 174.488 73.744 174.56 73.96 174.56C74.164 174.56 74.344 174.488 74.488 174.344C74.632 174.2 74.704 174.032 74.704 173.828C74.704 173.612 74.632 173.444 74.488 173.312C74.344 173.156 74.164 173.084 73.96 173.084Z" fill="#7F7F7F"/>
<path d="M25.696 198.688V199.516H29.128V201.376H26.5V206.212H27.352V205.552H31.852V206.188H32.704V201.376H30.004V199.516H33.46V198.688H30.004V196.696C31.096 196.54 32.056 196.312 32.896 196.012L32.476 195.268C30.748 195.856 28.564 196.156 25.948 196.156L26.212 196.936C27.244 196.936 28.216 196.888 29.128 196.804V198.688H25.696ZM27.352 204.736V202.192H31.852V204.736H27.352ZM23.524 195.364L22.936 195.928C23.8 196.504 24.484 197.032 24.976 197.536L25.564 196.948C25.012 196.42 24.328 195.892 23.524 195.364ZM23.248 198.232L22.648 198.82C23.524 199.444 24.208 200.044 24.712 200.608L25.312 200.008C24.76 199.408 24.064 198.82 23.248 198.232ZM24.664 201.424C24.16 202.876 23.548 204.292 22.852 205.684L23.716 206.056C24.34 204.712 24.916 203.26 25.444 201.724L24.664 201.424ZM35.32 196.036V196.864H39.664V196.036H35.32ZM34.852 199.276V200.116H36.52C35.92 202.3 35.44 203.632 35.08 204.124C35.032 204.148 34.972 204.172 34.888 204.196L35.092 205.012C36.58 204.748 37.972 204.388 39.244 203.932C39.364 204.208 39.484 204.496 39.604 204.808L40.348 204.424C39.844 203.212 39.304 202.096 38.728 201.064L37.996 201.424C38.308 201.976 38.608 202.564 38.92 203.212C37.984 203.56 37.036 203.836 36.088 204.028C36.448 203.236 36.868 201.94 37.348 200.116H40.12V199.276H34.852ZM41.92 195.232V197.656H40.3V198.496H41.92V198.64C41.896 201.868 41.128 204.208 39.628 205.66L40.276 206.224C41.908 204.628 42.748 202.096 42.784 198.64V198.496H44.56C44.536 201.724 44.488 203.656 44.416 204.292C44.32 204.976 43.972 205.324 43.384 205.324C43.06 205.324 42.676 205.3 42.244 205.276L42.436 206.044C42.94 206.068 43.288 206.08 43.492 206.08C44.524 206.08 45.112 205.588 45.232 204.616C45.34 203.728 45.4 201.412 45.4 197.656H42.784V195.232H41.92ZM50.92 196.096H47.464V205.228H48.304V204.136H50.08V204.94H50.92V196.096ZM48.304 203.332V200.44H50.08V203.332H48.304ZM48.304 199.636V196.888H50.08V199.636H48.304ZM52.648 199.672L51.94 200.116C52.66 201.22 53.224 202.228 53.644 203.128L54.364 202.624C53.968 201.784 53.392 200.8 52.648 199.672ZM55.384 206.08C56.128 206.08 56.5 205.696 56.5 204.94V198.232H57.976V197.404H56.5V195.292H55.624V197.404H51.472V198.232H55.624V204.724C55.624 205.096 55.444 205.288 55.096 205.288C54.46 205.288 53.8 205.264 53.104 205.24L53.284 206.08H55.384ZM62.392 198.448V204.04H66.952V198.448H62.392ZM66.148 203.272H63.208V201.628H66.148V203.272ZM63.208 200.86V199.216H66.148V200.86H63.208ZM68.296 206.104C69.1 206.104 69.508 205.672 69.508 204.832V195.796H64.012V196.6H68.668V204.592C68.668 205.072 68.476 205.324 68.116 205.324L67.072 205.3L67.288 206.104H68.296ZM59.908 197.188V206.212H60.748V197.188H59.908ZM61.648 195.088L60.856 195.436C61.396 196.084 61.888 196.828 62.344 197.668L63.112 197.26C62.692 196.468 62.2 195.748 61.648 195.088ZM73.96 197.692C73.744 197.692 73.576 197.764 73.432 197.92C73.288 198.052 73.228 198.22 73.228 198.436C73.228 198.64 73.288 198.808 73.432 198.952C73.576 199.096 73.744 199.168 73.96 199.168C74.164 199.168 74.344 199.096 74.488 198.952C74.632 198.808 74.704 198.64 74.704 198.436C74.704 198.22 74.632 198.052 74.488 197.92C74.344 197.764 74.164 197.692 73.96 197.692ZM73.96 202.084C73.744 202.084 73.576 202.156 73.432 202.312C73.288 202.444 73.228 202.612 73.228 202.828C73.228 203.032 73.288 203.2 73.432 203.344C73.576 203.488 73.744 203.56 73.96 203.56C74.164 203.56 74.344 203.488 74.488 203.344C74.632 203.2 74.704 203.032 74.704 202.828C74.704 202.612 74.632 202.444 74.488 202.312C74.344 202.156 74.164 202.084 73.96 202.084Z" fill="#7F7F7F"/>
<path d="M25.696 227.688V228.516H29.128V230.376H26.5V235.212H27.352V234.552H31.852V235.188H32.704V230.376H30.004V228.516H33.46V227.688H30.004V225.696C31.096 225.54 32.056 225.312 32.896 225.012L32.476 224.268C30.748 224.856 28.564 225.156 25.948 225.156L26.212 225.936C27.244 225.936 28.216 225.888 29.128 225.804V227.688H25.696ZM27.352 233.736V231.192H31.852V233.736H27.352ZM23.524 224.364L22.936 224.928C23.8 225.504 24.484 226.032 24.976 226.536L25.564 225.948C25.012 225.42 24.328 224.892 23.524 224.364ZM23.248 227.232L22.648 227.82C23.524 228.444 24.208 229.044 24.712 229.608L25.312 229.008C24.76 228.408 24.064 227.82 23.248 227.232ZM24.664 230.424C24.16 231.876 23.548 233.292 22.852 234.684L23.716 235.056C24.34 233.712 24.916 232.26 25.444 230.724L24.664 230.424ZM35.32 225.036V225.864H39.664V225.036H35.32ZM34.852 228.276V229.116H36.52C35.92 231.3 35.44 232.632 35.08 233.124C35.032 233.148 34.972 233.172 34.888 233.196L35.092 234.012C36.58 233.748 37.972 233.388 39.244 232.932C39.364 233.208 39.484 233.496 39.604 233.808L40.348 233.424C39.844 232.212 39.304 231.096 38.728 230.064L37.996 230.424C38.308 230.976 38.608 231.564 38.92 232.212C37.984 232.56 37.036 232.836 36.088 233.028C36.448 232.236 36.868 230.94 37.348 229.116H40.12V228.276H34.852ZM41.92 224.232V226.656H40.3V227.496H41.92V227.64C41.896 230.868 41.128 233.208 39.628 234.66L40.276 235.224C41.908 233.628 42.748 231.096 42.784 227.64V227.496H44.56C44.536 230.724 44.488 232.656 44.416 233.292C44.32 233.976 43.972 234.324 43.384 234.324C43.06 234.324 42.676 234.3 42.244 234.276L42.436 235.044C42.94 235.068 43.288 235.08 43.492 235.08C44.524 235.08 45.112 234.588 45.232 233.616C45.34 232.728 45.4 230.412 45.4 226.656H42.784V224.232H41.92ZM57.556 226.512L54.976 227.304V224.196H54.136V227.568L52.384 228.108V225.42H51.544V228.372L50.536 228.684V229.524L51.544 229.212V233.784C51.544 234.576 51.94 234.984 52.744 234.984H56.536C56.98 234.984 57.304 234.864 57.508 234.636C57.748 234.372 57.904 233.64 57.988 232.428L57.184 232.176C57.136 233.148 57.04 233.736 56.908 233.928C56.812 234.084 56.632 234.168 56.38 234.168H53.008C52.588 234.168 52.384 233.976 52.384 233.616V228.96L54.136 228.432V232.716H54.976V228.18L56.728 227.652C56.716 229.284 56.68 230.232 56.62 230.484C56.548 230.748 56.344 230.88 56.02 230.88C55.876 230.88 55.708 230.868 55.528 230.856L55.768 231.708H55.84C56.74 231.708 57.256 231.444 57.376 230.94C57.496 230.412 57.556 228.936 57.556 226.512ZM50.692 231.612C50.236 231.828 49.756 232.032 49.276 232.212V228.228H50.524V227.388H49.276V224.292H48.424V227.388H47.056V228.228H48.424V232.5C47.92 232.644 47.416 232.776 46.912 232.884L47.128 233.748C48.4 233.412 49.588 232.98 50.692 232.464V231.612ZM66.676 224.184V233.88H64.876V226.728H64.012V233.88H62.62V234.72H70.18V233.88H67.552V228.852H69.832V228.024H67.552V224.184H66.676ZM63.22 231.708C62.692 231.9 62.152 232.068 61.6 232.224V228.132H63.076V227.292H61.6V224.244H60.712V227.292H59.212V228.132H60.712V232.464C60.184 232.584 59.644 232.692 59.092 232.788L59.32 233.7C60.712 233.412 62.02 233.04 63.22 232.608V231.708ZM73.96 226.692C73.744 226.692 73.576 226.764 73.432 226.92C73.288 227.052 73.228 227.22 73.228 227.436C73.228 227.64 73.288 227.808 73.432 227.952C73.576 228.096 73.744 228.168 73.96 228.168C74.164 228.168 74.344 228.096 74.488 227.952C74.632 227.808 74.704 227.64 74.704 227.436C74.704 227.22 74.632 227.052 74.488 226.92C74.344 226.764 74.164 226.692 73.96 226.692ZM73.96 231.084C73.744 231.084 73.576 231.156 73.432 231.312C73.288 231.444 73.228 231.612 73.228 231.828C73.228 232.032 73.288 232.2 73.432 232.344C73.576 232.488 73.744 232.56 73.96 232.56C74.164 232.56 74.344 232.488 74.488 232.344C74.632 232.2 74.704 232.032 74.704 231.828C74.704 231.612 74.632 231.444 74.488 231.312C74.344 231.156 74.164 231.084 73.96 231.084Z" fill="#7F7F7F"/>
<path d="M32.992 257.276H27.004V264.176H27.844V263.672H32.152V264.176H32.992V257.276ZM27.844 262.868V260.888H29.608V262.868H27.844ZM30.4 262.868V260.888H32.152V262.868H30.4ZM27.844 260.108V258.08H29.608V260.108H27.844ZM30.4 258.08H32.152V260.108H30.4V258.08ZM23.992 264.044C24.664 264.044 25.012 263.696 25.012 263.012V259.472C25.456 259.268 25.9 259.052 26.344 258.812V257.948C25.912 258.188 25.468 258.416 25.012 258.62V256.22H26.176V255.38H25.012V253.184H24.148V255.38H22.636V256.22H24.148V258.968C23.572 259.184 22.996 259.364 22.408 259.52L22.624 260.384C23.128 260.216 23.644 260.036 24.148 259.844V262.796C24.148 263.108 23.992 263.276 23.692 263.276C23.38 263.276 23.044 263.252 22.708 263.216L22.888 264.044H23.992ZM28.12 253.22V254.588H26.536V255.392H28.12V256.724H28.936V255.392H31.024V256.736H31.84V255.392H33.424V254.588H31.84V253.22H31.024V254.588H28.936V253.22H28.12ZM43.012 257.012L42.376 257.42C43.42 258.872 44.248 260.192 44.86 261.392L45.568 260.888C44.98 259.784 44.128 258.5 43.012 257.012ZM35.704 253.388L35.104 253.952C35.98 254.636 36.664 255.272 37.168 255.86L37.78 255.248C37.216 254.624 36.52 254.012 35.704 253.388ZM42.772 263.984H45.496L45.7 263.12C45.388 263.144 44.944 263.156 44.368 263.168C43.78 263.18 43.204 263.192 42.652 263.192C41.716 263.192 40.936 263.18 40.312 263.168C39.616 263.144 39.076 263.048 38.704 262.88C38.368 262.724 38.068 262.472 37.78 262.124C37.684 262.016 37.588 261.92 37.492 261.848V257.36H34.972V258.152H36.688V261.8C36.196 262.016 35.632 262.628 34.996 263.636L35.644 264.224C36.304 263.12 36.772 262.568 37.06 262.568C37.204 262.568 37.36 262.664 37.528 262.868C37.888 263.3 38.308 263.6 38.788 263.744C39.268 263.876 39.892 263.948 40.66 263.96C41.416 263.972 42.124 263.984 42.772 263.984ZM40.9 256.28C40.144 258.116 39.184 259.616 38.02 260.792L38.596 261.464C39.724 260.24 40.66 258.74 41.428 256.952V262.592H42.268V256.28H45.496V255.476H42.268V253.268H41.428V255.476H38.188V256.28H40.9ZM43.96 253.208L43.252 253.436C43.624 253.94 43.972 254.516 44.284 255.176L44.968 254.864C44.68 254.276 44.344 253.724 43.96 253.208ZM49.48 255.692C49.264 255.692 49.096 255.764 48.952 255.92C48.808 256.052 48.748 256.22 48.748 256.436C48.748 256.64 48.808 256.808 48.952 256.952C49.096 257.096 49.264 257.168 49.48 257.168C49.684 257.168 49.864 257.096 50.008 256.952C50.152 256.808 50.224 256.64 50.224 256.436C50.224 256.22 50.152 256.052 50.008 255.92C49.864 255.764 49.684 255.692 49.48 255.692ZM49.48 260.084C49.264 260.084 49.096 260.156 48.952 260.312C48.808 260.444 48.748 260.612 48.748 260.828C48.748 261.032 48.808 261.2 48.952 261.344C49.096 261.488 49.264 261.56 49.48 261.56C49.684 261.56 49.864 261.488 50.008 261.344C50.152 261.2 50.224 261.032 50.224 260.828C50.224 260.612 50.152 260.444 50.008 260.312C49.864 260.156 49.684 260.084 49.48 260.084Z" fill="#7F7F7F"/>
<path d="M26.48 314.85V317.77H23.76V320.98H30.38V317.77H27.19V316.5H31.07V315.82H27.19V314.85H26.48ZM29.66 320.31H24.48V318.45H29.66V320.31ZM23.74 321.42C23.38 322.24 22.95 322.95 22.45 323.54L23.04 323.97C23.54 323.33 23.97 322.58 24.35 321.71L23.74 321.42ZM25.92 321.71L25.25 321.85C25.44 322.48 25.6 323.2 25.74 324.02L26.46 323.86C26.3 323.09 26.12 322.37 25.92 321.71ZM28.01 321.61L27.33 321.75C27.63 322.4 27.88 323.15 28.08 324L28.79 323.84C28.57 323.04 28.31 322.29 28.01 321.61ZM30.06 321.41L29.48 321.78C30.09 322.6 30.57 323.34 30.92 324.02L31.52 323.6C31.18 322.98 30.7 322.25 30.06 321.41ZM33.56 316.31V317H36.83V318.66H32.79V319.36H36.83V322.89H34.48V320.23H33.79V324.02H34.48V323.56H39.93V324.02H40.62V320.23H39.93V322.89H37.57V319.36H41.62V318.66H37.57V317H40.8V316.31H37.57V314.9H36.83V316.31H33.56ZM46.29 315.29V315.97H48.64V319.74H46.01V320.43H48.64V324H49.34V320.43H52.01V319.74H49.34V315.97H51.71V315.29H46.29ZM50.8 316.47C50.58 317.48 50.32 318.32 50.02 318.98L50.63 319.19C50.95 318.46 51.22 317.61 51.43 316.64L50.8 316.47ZM47.06 316.53L46.44 316.73C46.77 317.52 47.04 318.35 47.24 319.21L47.86 319.05C47.62 318.1 47.36 317.26 47.06 316.53ZM44.02 314.93L43.52 315.42C44.24 315.96 44.82 316.48 45.24 316.97L45.73 316.47C45.27 315.95 44.7 315.44 44.02 314.93ZM42.82 317.89V318.58H44.29V322.57C44.29 322.73 44.21 322.87 44.06 323.01L44.34 323.65C45 323.2 45.62 322.69 46.21 322.11L46.01 321.35C45.64 321.72 45.3 322.04 44.98 322.32V317.89H42.82ZM54.27 318.3V323.97H55.01V317.06C55.32 316.45 55.58 315.81 55.79 315.14L55.11 314.83C54.67 316.35 53.95 317.7 52.97 318.88L53.21 319.64C53.59 319.22 53.95 318.77 54.27 318.3ZM59.68 318.33V323.91H60.38V318.33H59.68ZM57.11 318.36V319.87C57.09 321.56 56.65 322.79 55.79 323.55L56.33 324.02C57.29 323.14 57.78 321.76 57.8 319.87V318.36H57.11ZM58.38 314.88C57.66 316.37 56.63 317.58 55.29 318.51L55.69 319.12C56.9 318.28 57.9 317.1 58.7 315.57C59.39 316.93 60.44 318.08 61.84 319.01L62.25 318.4C60.73 317.39 59.65 316.22 59.03 314.88H58.38Z" fill="#A9A9A9"/>
<rect x="83" y="161" width="108" height="20" rx="4" fill="#EEEEEE"/>
<rect x="83" y="190" width="65" height="20" rx="4" fill="#EEEEEE"/>
<rect x="83" y="219" width="151" height="20" rx="4" fill="#EEEEEE"/>
<rect x="83" y="248" width="84" height="20" rx="4" fill="#EEEEEE"/>
<line x1="8" y1="306.75" x2="274" y2="306.75" stroke="#E8E8E8" stroke-width="0.5"/>
<line x1="54" y1="389.75" x2="339" y2="389.75" stroke="#E8E8E8" stroke-width="0.5"/>
<rect x="120" y="399" width="201" height="22" rx="6" fill="#EEEEEE"/>
<path fill-rule="evenodd" clip-rule="evenodd" d="M79.6667 417.592C75.4325 417.592 72 414.159 72 409.925C72 405.691 75.4325 402.258 79.6667 402.258C83.9009 402.258 87.3333 405.691 87.3333 409.925C87.3333 414.159 83.9009 417.592 79.6667 417.592ZM79.6667 416.672C83.3927 416.672 86.4133 413.651 86.4133 409.925C86.4133 406.199 83.3927 403.178 79.6667 403.178C75.9406 403.178 72.92 406.199 72.92 409.925C72.92 413.651 75.9406 416.672 79.6667 416.672ZM76.9833 406.858H75.45V408.392H76.9833V406.858ZM77.75 406.858H79.2833V408.392H77.75V406.858ZM81.5833 406.858H80.05V408.392H81.5833V406.858ZM82.35 406.858H83.8833V408.392H82.35V406.858ZM76.9833 409.158H75.45V410.692H76.9833V409.158ZM77.75 409.158H79.2833V410.692H77.75V409.158ZM81.9667 412.225H77.3667V413.758H81.9667V412.225ZM80.05 409.158H81.5833V410.692H80.05V409.158ZM83.8833 409.158H82.35V410.692H83.8833V409.158Z" fill="#AEAEAE"/>
<path opacity="0.9" fill-rule="evenodd" clip-rule="evenodd" d="M77.9417 400.725L79.6667 399L81.3917 400.725H77.9417Z" fill="#AEAEAE"/>
<path fill-rule="evenodd" clip-rule="evenodd" d="M105 418C100.582 418 97 414.418 97 410C97 405.582 100.582 402 105 402C109.418 402 113 405.582 113 410C113 414.418 109.418 418 105 418ZM105 417.04C108.888 417.04 112.04 413.888 112.04 410C112.04 406.112 108.888 402.96 105 402.96C101.112 402.96 97.96 406.112 97.96 410C97.96 413.888 101.112 417.04 105 417.04ZM106.84 410C106.84 411.463 106.261 412.832 105.247 413.847L105.925 414.526C107.084 413.367 107.8 411.767 107.8 410C107.8 408.233 107.084 406.633 105.925 405.475L105.247 406.153C106.261 407.168 106.84 408.537 106.84 410ZM103.663 412.263C104.26 411.666 104.6 410.861 104.6 410C104.6 409.139 104.26 408.334 103.663 407.737L104.342 407.058C105.094 407.811 105.56 408.851 105.56 410C105.56 411.149 105.094 412.189 104.342 412.942L103.663 412.263ZM103.32 410C103.32 410.53 103.105 411.01 102.758 411.358L101.4 410L102.758 408.642C103.105 408.99 103.32 409.47 103.32 410Z" fill="#AEAEAE"/>
<g filter="url(#filter2_d)">
<rect x="298" y="87" width="266" height="246" rx="8" fill="white"/>
</g>
<path d="M318.832 102.424H313.152V112.616H314.512V103.816H317.488V112.616H318.832V107.16L319.568 108.104C320.176 107.336 320.704 106.472 321.152 105.528H325.392C325.36 110.328 325.312 113.128 325.216 113.96C325.12 114.76 324.784 115.16 324.224 115.16C323.52 115.16 322.704 115.128 321.776 115.08L322.128 116.44C323.232 116.472 324 116.504 324.448 116.504C325.76 116.504 326.48 115.832 326.64 114.52C326.8 113.208 326.88 109.72 326.88 104.056H321.728C321.936 103.416 322.112 102.728 322.24 102.024L320.768 101.832C320.416 103.688 319.776 105.288 318.832 106.632V102.424ZM323.616 108.952L322.464 109.512C322.688 110.088 322.896 110.712 323.104 111.384C322.432 111.544 321.712 111.672 320.96 111.752C321.568 110.504 322.192 108.984 322.8 107.176L321.424 106.712C320.512 109.896 319.792 111.624 319.28 111.88L319.52 113.192C320.944 113.048 322.256 112.84 323.472 112.584C323.568 112.936 323.68 113.304 323.776 113.688L325.008 113.064C324.56 111.576 324.096 110.2 323.616 108.952ZM315.36 104.824V110.072C315.312 111.448 315.104 112.568 314.752 113.432C314.384 114.232 313.68 114.888 312.656 115.416L313.456 116.68C314.544 116.136 315.328 115.352 315.808 114.36C316.304 113.304 316.576 111.864 316.608 110.072V104.824H315.36ZM317.296 113.016L316.336 113.96C317.232 114.888 317.936 115.752 318.416 116.552L319.52 115.48C318.912 114.664 318.16 113.848 317.296 113.016ZM329.168 102.392V103.704H333.872V104.728H330.288V108.504H342.352V104.728H338.768V103.704H343.472V102.392H329.168ZM337.328 104.728H335.312V103.704H337.328V104.728ZM340.896 107.272H338.768V105.976H340.896V107.272ZM337.328 107.272H335.312V105.976H337.328V107.272ZM333.872 107.272H331.744V105.976H333.872V107.272ZM331.024 109.432V110.68H341.712V109.432H331.024ZM329.424 111.56V112.856H335.76V114.712C335.76 115.112 335.552 115.32 335.136 115.32C334.736 115.32 334.32 115.288 333.872 115.24L334.16 116.584H335.632C336.688 116.584 337.232 116.056 337.232 115.032V112.856H343.216V111.56H329.424ZM339.744 113.176L338.736 114.136C340.272 114.968 341.472 115.736 342.32 116.456L343.376 115.4C342.384 114.664 341.184 113.912 339.744 113.176ZM333.216 113.208C332.176 113.992 330.896 114.68 329.392 115.272L330.304 116.456C331.84 115.784 333.152 115 334.208 114.104L333.216 113.208ZM356.72 101.768L355.76 102.696C356.432 103.208 356.976 103.72 357.408 104.2H354.944C354.912 103.464 354.88 102.68 354.88 101.848H353.344C353.344 102.664 353.344 103.448 353.376 104.2H346.784V109.528C346.736 112.136 346.208 114.168 345.216 115.624L346.368 116.648C347.584 114.856 348.24 112.488 348.304 109.528V109.432H350.72C350.688 111.096 350.64 112.152 350.544 112.568C350.448 112.92 350.272 113.096 349.984 113.112C349.536 113.112 349.008 113.08 348.368 113.048L348.832 114.424C349.328 114.472 349.776 114.504 350.16 114.504C350.992 114.488 351.536 114.152 351.792 113.48C352.048 112.712 352.192 110.888 352.224 107.992H348.304V105.656H353.456C353.568 107.608 353.792 109.224 354.144 110.52C354.32 111.192 354.512 111.816 354.736 112.392C353.68 113.704 352.384 114.696 350.848 115.384L351.712 116.664C353.12 116.04 354.368 115.128 355.44 113.928C355.648 114.312 355.872 114.664 356.128 114.984C356.896 115.928 357.632 116.408 358.336 116.408C359.104 116.408 359.696 115.288 360.096 113.08L358.72 112.344C358.512 113.912 358.304 114.696 358.096 114.696C357.84 114.696 357.456 114.328 356.976 113.624C356.8 113.352 356.624 113.032 356.448 112.648C357.44 111.208 358.24 109.448 358.88 107.4L357.488 106.808C357.04 108.328 356.48 109.672 355.808 110.856C355.728 110.6 355.648 110.328 355.584 110.056C355.312 109.016 355.12 107.544 355.008 105.656H359.776V104.2H357.856L358.592 103.464C358.08 102.888 357.456 102.328 356.72 101.768ZM363.92 105V112.296C363.136 112.472 362.352 112.632 361.552 112.76L361.936 114.296C364.016 113.848 365.968 113.288 367.808 112.632V111.112C367.024 111.4 366.24 111.656 365.44 111.896V105H367.616V103.544H361.744V105H363.92ZM370.336 101.928V105.032H367.92V106.504H370.336V106.552C370.304 110.744 369.152 113.784 366.88 115.672L368.128 116.776C370.56 114.6 371.808 111.192 371.872 106.552V106.504H374.4C374.368 110.76 374.32 113.256 374.224 114.008C374.08 114.728 373.552 115.096 372.624 115.096C372.176 115.096 371.632 115.064 370.992 115.016L371.36 116.44C372.08 116.488 372.592 116.52 372.88 116.52C374.512 116.52 375.44 115.912 375.648 114.712C375.808 113.48 375.888 110.248 375.888 105.032H371.872V101.928H370.336ZM379.44 102.04L378.4 103.032C379.568 103.96 380.464 104.824 381.104 105.624L382.176 104.568C381.44 103.736 380.528 102.888 379.44 102.04ZM388.64 116.376H392.288L392.656 114.872C392.224 114.904 391.6 114.936 390.8 114.952C390 114.968 389.2 114.984 388.416 114.984C387.168 114.984 386.096 114.968 385.184 114.952C384.24 114.92 383.536 114.776 383.056 114.552C382.656 114.344 382.272 114.024 381.904 113.592C381.824 113.496 381.744 113.416 381.664 113.352V107.304H378.096V108.712H380.24V113.24C379.6 113.56 378.88 114.376 378.08 115.672L379.2 116.712C380.016 115.272 380.592 114.552 380.928 114.552C381.12 114.552 381.312 114.68 381.536 114.952C382.016 115.496 382.576 115.88 383.216 116.072C383.888 116.232 384.736 116.328 385.776 116.344C386.8 116.36 387.76 116.376 388.64 116.376ZM385.872 103.624L384.976 104.488C385.632 104.84 386.224 105.208 386.752 105.56H383.072V114.2H384.512V111.544H386.768V114.168H388.16V111.544H390.464V112.36C390.464 112.712 390.272 112.888 389.92 112.888L388.784 112.824L389.104 114.088H390.336C391.376 114.088 391.904 113.608 391.904 112.664V105.56H388.688C388.656 105.528 388.624 105.512 388.592 105.48C389.648 104.904 390.64 104.232 391.568 103.432V102.36H382.784V103.624H385.872ZM387.664 104.76C387.136 104.376 386.56 104.008 385.952 103.624H389.536C388.96 104.04 388.336 104.424 387.664 104.76ZM384.512 109.192H386.768V110.312H384.512V109.192ZM388.16 109.192H390.464V110.312H388.16V109.192ZM390.464 107.944H388.16V106.824H390.464V107.944ZM386.768 107.944H384.512V106.824H386.768V107.944ZM408.368 103.448H402.624V115.944H404.096V115.016H406.896V115.928H408.368V103.448ZM404.096 113.592V104.872H406.896V113.592H404.096ZM396.88 105.352H398.096C398.064 106.344 398.016 107.272 397.92 108.12H394.544V109.576H397.696C397.632 109.896 397.552 110.216 397.488 110.52C396.96 112.312 395.872 113.816 394.208 115.048L395.2 116.264C396.832 115.112 397.968 113.688 398.64 112.008C399.312 112.808 400.144 113.912 401.136 115.32L402.064 113.912C401.04 112.696 400.048 111.592 399.072 110.6C399.136 110.28 399.216 109.928 399.28 109.576H401.984V108.12H399.488C399.584 107.272 399.632 106.344 399.664 105.352H401.84V103.896H397.472C397.664 103.352 397.856 102.792 398.016 102.184L396.512 101.864C396.08 103.592 395.344 105.208 394.32 106.712L395.648 107.56C396.096 106.888 396.512 106.152 396.88 105.352Z" fill="#23AD49"/>
<path d="M318.984 135.868C319.584 135.868 319.896 135.532 319.896 134.872V131.62H319.032V134.668C319.032 134.968 318.912 135.124 318.696 135.124C318.432 135.124 318.144 135.1 317.844 135.064L318.024 135.868H318.984ZM314.064 132.424V135.88H314.904V131.296C315.288 130.708 315.636 130.06 315.948 129.364L315.108 129.184C314.412 130.708 313.524 131.944 312.444 132.88L312.984 133.54C313.356 133.204 313.716 132.832 314.064 132.424ZM317.808 129.172C317.244 130.432 316.512 131.452 315.612 132.244L316.14 132.892C316.716 132.364 317.244 131.764 317.7 131.068H322.128C321.996 131.548 321.828 131.98 321.624 132.376L322.404 132.58C322.644 132.004 322.836 131.416 322.992 130.816V130.276H318.18C318.324 129.988 318.48 129.676 318.624 129.352L317.808 129.172ZM313.86 136.492C313.62 137.476 313.26 138.388 312.756 139.204L313.488 139.672C314.004 138.82 314.4 137.812 314.688 136.66L313.86 136.492ZM319.764 140.02C320.196 140.02 320.52 139.924 320.724 139.732C320.964 139.504 321.12 138.868 321.204 137.812L320.388 137.548C320.34 138.34 320.256 138.82 320.112 138.988C320.004 139.132 319.836 139.204 319.596 139.204H316.956C316.62 139.204 316.464 139.024 316.464 138.688V136.336H315.588V138.868C315.588 139.636 315.948 140.02 316.692 140.02H319.764ZM321.804 136.12L321.096 136.552C321.828 137.584 322.416 138.532 322.848 139.396L323.556 138.892C323.148 138.1 322.572 137.176 321.804 136.12ZM317.484 132.772C317.052 133.636 316.536 134.392 315.936 135.04L316.596 135.496C317.196 134.824 317.724 134.02 318.18 133.096L317.484 132.772ZM321.468 132.76L320.736 133.072C321.288 133.792 321.804 134.608 322.26 135.544L322.992 135.172C322.548 134.284 322.044 133.48 321.468 132.76ZM318.084 136.012L317.412 136.432C317.988 137.104 318.444 137.728 318.78 138.28L319.452 137.812C319.14 137.296 318.684 136.696 318.084 136.012ZM328.884 134.02C328.428 134.26 327.972 134.476 327.504 134.68V132.232H328.848V131.404H327.504V129.232H326.652V131.404H324.912V132.232H326.652V135.016C326.028 135.232 325.392 135.424 324.732 135.58L324.948 136.432C325.524 136.252 326.1 136.06 326.652 135.856V138.88C326.652 139.216 326.484 139.396 326.16 139.396C325.836 139.396 325.5 139.372 325.152 139.336L325.344 140.164H326.46C327.156 140.164 327.504 139.804 327.504 139.084V135.508C327.972 135.316 328.428 135.1 328.884 134.872V134.02ZM330.36 134.776H331.056C331.248 135.928 331.752 136.996 332.58 137.98C332.052 138.58 331.404 139.072 330.636 139.456L331.056 140.212C331.872 139.804 332.58 139.264 333.156 138.604C333.708 139.156 334.392 139.672 335.184 140.176L335.76 139.516C334.92 139.048 334.212 138.544 333.636 137.992C334.26 137.092 334.68 136 334.92 134.728V133.984H330.36V130.48H333.984C333.96 131.224 333.912 131.716 333.828 131.944C333.744 132.088 333.636 132.172 333.504 132.22C333.36 132.244 333.132 132.268 332.844 132.268C332.556 132.268 332.328 132.256 332.136 132.256L332.376 133.012H333.24C334.008 133.012 334.464 132.784 334.608 132.352C334.74 131.908 334.812 131.02 334.812 129.688H329.544V140.2H330.36V134.776ZM331.836 134.776H334.092C333.876 135.76 333.528 136.624 333.048 137.356C332.4 136.576 332.004 135.712 331.836 134.776ZM340.74 139.456H346.104V140.164H346.98V135.1H341.976C344.232 134.056 345.78 132.712 346.644 131.068V130.3H341.964C342.204 129.976 342.42 129.64 342.612 129.28L341.664 129.172C340.944 130.444 339.564 131.524 337.512 132.4L338.088 133.144C339.36 132.544 340.392 131.872 341.208 131.116H345.648C345.084 132.1 344.196 132.952 342.972 133.684C342.456 133.24 341.736 132.736 340.824 132.172L340.08 132.64C340.992 133.156 341.712 133.636 342.24 134.08C340.86 134.776 339.132 135.328 337.056 135.76L337.512 136.588C338.352 136.384 339.132 136.168 339.876 135.928V140.164H340.74V139.456ZM346.104 138.616H340.74V135.904H346.104V138.616ZM353.568 131.272H351.636C351.876 130.672 352.056 130.012 352.2 129.304L351.336 129.184C351.228 129.904 351.06 130.6 350.82 131.272H349.704V139.804H350.544V138.772H352.728V139.456H353.568V131.272ZM350.544 137.968V135.34H352.728V137.968H350.544ZM350.544 134.56V132.088H352.728V134.56H350.544ZM355.656 134.056L354.96 134.488C355.788 135.472 356.448 136.36 356.94 137.152L357.624 136.672C357.168 135.928 356.52 135.052 355.656 134.056ZM359.772 131.284H355.944C356.16 130.66 356.328 129.988 356.472 129.28L355.62 129.172C355.308 130.876 354.744 132.316 353.904 133.492L354.42 134.176C354.888 133.564 355.284 132.88 355.62 132.124H358.92C358.896 135.58 358.848 137.656 358.776 138.328C358.68 138.94 358.356 139.252 357.792 139.252C357.42 139.252 356.988 139.24 356.484 139.216L356.688 140.008C357.264 140.032 357.672 140.056 357.912 140.056C358.92 140.056 359.472 139.588 359.592 138.676C359.712 137.74 359.772 135.268 359.772 131.284ZM364.656 132.688V133.516H368.088V135.376H365.46V140.212H366.312V139.552H370.812V140.188H371.664V135.376H368.964V133.516H372.42V132.688H368.964V130.696C370.056 130.54 371.016 130.312 371.856 130.012L371.436 129.268C369.708 129.856 367.524 130.156 364.908 130.156L365.172 130.936C366.204 130.936 367.176 130.888 368.088 130.804V132.688H364.656ZM366.312 138.736V136.192H370.812V138.736H366.312ZM362.484 129.364L361.896 129.928C362.76 130.504 363.444 131.032 363.936 131.536L364.524 130.948C363.972 130.42 363.288 129.892 362.484 129.364ZM362.208 132.232L361.608 132.82C362.484 133.444 363.168 134.044 363.672 134.608L364.272 134.008C363.72 133.408 363.024 132.82 362.208 132.232ZM363.624 135.424C363.12 136.876 362.508 138.292 361.812 139.684L362.676 140.056C363.3 138.712 363.876 137.26 364.404 135.724L363.624 135.424ZM374.28 130.036V130.864H378.624V130.036H374.28ZM373.812 133.276V134.116H375.48C374.88 136.3 374.4 137.632 374.04 138.124C373.992 138.148 373.932 138.172 373.848 138.196L374.052 139.012C375.54 138.748 376.932 138.388 378.204 137.932C378.324 138.208 378.444 138.496 378.564 138.808L379.308 138.424C378.804 137.212 378.264 136.096 377.688 135.064L376.956 135.424C377.268 135.976 377.568 136.564 377.88 137.212C376.944 137.56 375.996 137.836 375.048 138.028C375.408 137.236 375.828 135.94 376.308 134.116H379.08V133.276H373.812ZM380.88 129.232V131.656H379.26V132.496H380.88V132.64C380.856 135.868 380.088 138.208 378.588 139.66L379.236 140.224C380.868 138.628 381.708 136.096 381.744 132.64V132.496H383.52C383.496 135.724 383.448 137.656 383.376 138.292C383.28 138.976 382.932 139.324 382.344 139.324C382.02 139.324 381.636 139.3 381.204 139.276L381.396 140.044C381.9 140.068 382.248 140.08 382.452 140.08C383.484 140.08 384.072 139.588 384.192 138.616C384.3 137.728 384.36 135.412 384.36 131.656H381.744V129.232H380.88ZM395.976 129.676H390.648V136.312H391.5V130.504H395.1V136.312H395.976V129.676ZM395.712 140.008C396.096 140.008 396.384 139.912 396.576 139.732C396.78 139.516 396.924 138.904 396.996 137.92L396.192 137.668C396.144 138.412 396.072 138.868 395.976 139.024C395.892 139.144 395.748 139.216 395.556 139.216H394.716C394.464 139.216 394.344 139.084 394.344 138.832V136.264H393.48V139.012C393.48 139.672 393.804 140.008 394.464 140.008H395.712ZM392.844 131.356V134.284C392.82 135.628 392.556 136.72 392.076 137.56C391.56 138.352 390.648 139 389.352 139.504L389.82 140.236C391.164 139.732 392.124 139.024 392.7 138.136C393.3 137.176 393.624 135.892 393.672 134.284V131.356H392.844ZM386.196 133.636V134.476H387.576V137.464C387.048 137.608 386.52 137.728 385.98 137.824L386.184 138.652C387.54 138.328 388.812 137.932 390 137.452V136.624C389.496 136.828 388.992 137.02 388.464 137.2V134.476H389.808V133.636H388.464V130.828H389.976V130H386.04V130.828H387.576V133.636H386.196ZM407.7 134.632V129.832H398.82V130.672H406.824V133.804H400.164V132.028H399.3V138.328C399.3 139.312 399.78 139.816 400.752 139.816H407.256C407.76 139.792 408.156 139.66 408.42 139.408C408.708 139.096 408.912 138.208 409.032 136.72L408.192 136.456C408.12 137.776 407.964 138.544 407.724 138.76C407.544 138.904 407.304 138.976 407.016 138.976H400.992C400.44 138.976 400.164 138.7 400.164 138.172V134.632H407.7ZM419.172 133.372H416.364V129.184H415.476V133.372H412.668V130.096H411.804V134.212H415.476V138.616H412.092V135.34H411.216V140.116H412.092V139.444H419.748V140.116H420.624V135.34H419.748V138.616H416.364V134.212H420.036V130.096H419.172V133.372ZM422.832 129.664V130.42H426.456V131.38H423.708V134.044H432.624V131.38H429.876V130.42H433.488V129.664H422.832ZM429.06 131.38H427.272V130.42H429.06V131.38ZM431.796 133.336H429.876V132.1H431.796V133.336ZM429.06 133.336H427.272V132.1H429.06V133.336ZM426.456 133.336H424.536V132.1H426.456V133.336ZM424.212 134.932V135.652H432.168V134.932H424.212ZM423.024 136.528V137.284H427.872V138.964C427.872 139.276 427.692 139.432 427.356 139.432C427.044 139.432 426.72 139.408 426.384 139.384L426.552 140.152H427.632C428.352 140.152 428.712 139.816 428.712 139.156V137.284H433.296V136.528H423.024ZM430.62 137.692L430.044 138.232C431.22 138.88 432.132 139.48 432.792 140.056L433.392 139.456C432.648 138.868 431.724 138.28 430.62 137.692ZM425.94 137.716C425.148 138.34 424.176 138.892 423.024 139.372L423.54 140.044C424.716 139.528 425.7 138.928 426.504 138.232L425.94 137.716ZM436.632 137.572C436.392 137.572 436.212 137.632 436.068 137.776C435.924 137.908 435.852 138.088 435.852 138.316C435.852 138.52 435.924 138.7 436.068 138.844C436.212 138.988 436.38 139.06 436.584 139.06C436.704 139.06 436.8 139.036 436.848 139.012C436.848 139.3 436.764 139.564 436.584 139.816C436.392 140.056 436.14 140.236 435.828 140.344V140.932C436.332 140.8 436.752 140.536 437.064 140.152C437.376 139.744 437.532 139.276 437.532 138.748C437.532 138.4 437.448 138.124 437.292 137.908C437.124 137.68 436.896 137.572 436.632 137.572ZM454.152 132.256V133.996H451.704V134.812H454.152V136.624H451.092V137.452H454.152V140.188H455.016V137.452H458.124V136.624H455.016V134.812H457.488V133.996H455.016V132.256H457.848V131.44H456.024C456.408 130.84 456.744 130.168 457.044 129.424L456.216 129.136C455.916 129.952 455.568 130.72 455.172 131.44H451.356V132.256H454.152ZM452.772 129.184L452.04 129.532C452.472 130.084 452.868 130.72 453.24 131.416L453.948 131.056C453.576 130.384 453.18 129.76 452.772 129.184ZM448.608 129.364L448.008 129.928C448.836 130.576 449.484 131.176 449.952 131.752L450.528 131.152C450.012 130.552 449.376 129.964 448.608 129.364ZM447.144 132.868V133.696H448.836V138.46C448.836 138.664 448.74 138.844 448.56 139.012L448.884 139.768C449.568 139.192 450.228 138.556 450.852 137.848L450.624 136.972C450.288 137.356 449.976 137.704 449.676 138.016V132.868H447.144ZM463.164 137.776C462.108 138.232 460.86 138.592 459.444 138.856L459.552 139.684C460.908 139.408 462.108 139.048 463.164 138.592V137.776ZM461.268 129.172C460.836 130.624 460.332 131.908 459.744 133.024C459.648 133.168 459.528 133.276 459.396 133.336L459.612 134.08C460.224 133.984 460.836 133.876 461.448 133.756C460.872 134.908 460.38 135.724 459.984 136.204C459.876 136.3 459.756 136.372 459.612 136.432L459.828 137.188C460.884 137.044 462 136.792 463.152 136.42V135.652C462.372 135.916 461.592 136.12 460.8 136.276C461.448 135.4 462.24 133.936 463.2 131.896L462.444 131.62C462.228 132.112 462.012 132.568 461.82 133C461.34 133.096 460.86 133.18 460.392 133.252C460.956 132.316 461.508 131.056 462.06 129.484L461.268 129.172ZM466.416 130.96V134.308H464.472V130.96H466.416ZM466.416 135.088V138.568H464.472V135.088H466.416ZM467.208 138.568V135.088H469.14V138.568H467.208ZM467.208 134.308V130.96H469.14V134.308H467.208ZM469.14 139.36V140.14H469.956V130.156H463.68V140.14H464.472V139.36H469.14ZM481.908 130.276H477.768V139.672H478.608V138.94H481.068V139.672H481.908V130.276ZM478.608 138.1V131.116H481.068V138.1H478.608ZM473.76 129.16C473.64 129.916 473.496 130.66 473.352 131.38H471.768V132.22H473.172C472.884 133.456 472.56 134.596 472.188 135.652C472.932 136.18 473.616 136.696 474.24 137.176C473.616 138.052 472.824 138.808 471.84 139.444L472.416 140.152C473.412 139.468 474.24 138.652 474.9 137.704C475.548 138.22 476.1 138.7 476.556 139.144L477.144 138.448C476.676 138.016 476.076 137.524 475.356 136.972C476.16 135.544 476.616 133.852 476.736 131.884V131.38H474.24C474.372 130.72 474.504 130 474.636 129.232L473.76 129.16ZM474.684 136.468C474.216 136.132 473.7 135.772 473.148 135.4C473.46 134.56 473.772 133.492 474.06 132.22H475.92C475.788 133.816 475.38 135.232 474.684 136.468ZM484.02 129.832V130.684H488.604V140.224H489.48V133.408C490.56 133.984 491.904 134.8 493.5 135.856L494.016 135.088C492.48 134.104 490.968 133.24 489.48 132.496V130.684H494.688V129.832H484.02ZM498.6 131.692C498.384 131.692 498.216 131.764 498.072 131.92C497.928 132.052 497.868 132.22 497.868 132.436C497.868 132.64 497.928 132.808 498.072 132.952C498.216 133.096 498.384 133.168 498.6 133.168C498.804 133.168 498.984 133.096 499.128 132.952C499.272 132.808 499.344 132.64 499.344 132.436C499.344 132.22 499.272 132.052 499.128 131.92C498.984 131.764 498.804 131.692 498.6 131.692ZM498.6 136.084C498.384 136.084 498.216 136.156 498.072 136.312C497.928 136.444 497.868 136.612 497.868 136.828C497.868 137.032 497.928 137.2 498.072 137.344C498.216 137.488 498.384 137.56 498.6 137.56C498.804 137.56 498.984 137.488 499.128 137.344C499.272 137.2 499.344 137.032 499.344 136.828C499.344 136.612 499.272 136.444 499.128 136.312C498.984 136.156 498.804 136.084 498.6 136.084Z" fill="#469E69"/>
<path d="M315.696 169.688V170.516H319.128V172.376H316.5V177.212H317.352V176.552H321.852V177.188H322.704V172.376H320.004V170.516H323.46V169.688H320.004V167.696C321.096 167.54 322.056 167.312 322.896 167.012L322.476 166.268C320.748 166.856 318.564 167.156 315.948 167.156L316.212 167.936C317.244 167.936 318.216 167.888 319.128 167.804V169.688H315.696ZM317.352 175.736V173.192H321.852V175.736H317.352ZM313.524 166.364L312.936 166.928C313.8 167.504 314.484 168.032 314.976 168.536L315.564 167.948C315.012 167.42 314.328 166.892 313.524 166.364ZM313.248 169.232L312.648 169.82C313.524 170.444 314.208 171.044 314.712 171.608L315.312 171.008C314.76 170.408 314.064 169.82 313.248 169.232ZM314.664 172.424C314.16 173.876 313.548 175.292 312.852 176.684L313.716 177.056C314.34 175.712 314.916 174.26 315.444 172.724L314.664 172.424ZM325.32 167.036V167.864H329.664V167.036H325.32ZM324.852 170.276V171.116H326.52C325.92 173.3 325.44 174.632 325.08 175.124C325.032 175.148 324.972 175.172 324.888 175.196L325.092 176.012C326.58 175.748 327.972 175.388 329.244 174.932C329.364 175.208 329.484 175.496 329.604 175.808L330.348 175.424C329.844 174.212 329.304 173.096 328.728 172.064L327.996 172.424C328.308 172.976 328.608 173.564 328.92 174.212C327.984 174.56 327.036 174.836 326.088 175.028C326.448 174.236 326.868 172.94 327.348 171.116H330.12V170.276H324.852ZM331.92 166.232V168.656H330.3V169.496H331.92V169.64C331.896 172.868 331.128 175.208 329.628 176.66L330.276 177.224C331.908 175.628 332.748 173.096 332.784 169.64V169.496H334.56C334.536 172.724 334.488 174.656 334.416 175.292C334.32 175.976 333.972 176.324 333.384 176.324C333.06 176.324 332.676 176.3 332.244 176.276L332.436 177.044C332.94 177.068 333.288 177.08 333.492 177.08C334.524 177.08 335.112 176.588 335.232 175.616C335.34 174.728 335.4 172.412 335.4 168.656H332.784V166.232H331.92ZM340.74 176.456H346.104V177.164H346.98V172.1H341.976C344.232 171.056 345.78 169.712 346.644 168.068V167.3H341.964C342.204 166.976 342.42 166.64 342.612 166.28L341.664 166.172C340.944 167.444 339.564 168.524 337.512 169.4L338.088 170.144C339.36 169.544 340.392 168.872 341.208 168.116H345.648C345.084 169.1 344.196 169.952 342.972 170.684C342.456 170.24 341.736 169.736 340.824 169.172L340.08 169.64C340.992 170.156 341.712 170.636 342.24 171.08C340.86 171.776 339.132 172.328 337.056 172.76L337.512 173.588C338.352 173.384 339.132 173.168 339.876 172.928V177.164H340.74V176.456ZM346.104 175.616H340.74V172.904H346.104V175.616ZM349.416 169.484V170.312H351.072C350.688 171.68 350.04 172.892 349.128 173.96L349.5 174.92C350.196 173.96 350.76 172.892 351.168 171.716V177.164H351.996V171.74C352.356 172.16 352.8 172.724 353.304 173.444L353.784 172.724C353.184 172.076 352.596 171.5 351.996 170.972V170.312H353.472V169.484H351.996V167.636C352.608 167.516 353.184 167.372 353.712 167.228L353.412 166.412C352.26 166.772 350.952 167.012 349.464 167.144L349.632 167.96C350.16 167.912 350.664 167.84 351.168 167.768V169.484H349.416ZM356.232 177.14C356.916 177.14 357.264 176.78 357.264 176.06V169.712H356.376V175.844C356.376 176.192 356.22 176.372 355.932 176.372C355.608 176.372 355.26 176.348 354.9 176.312L355.08 177.14H356.232ZM354.72 171.44C354.42 172.832 353.952 174.116 353.304 175.268L354.048 175.736C354.684 174.572 355.176 173.192 355.524 171.596L354.72 171.44ZM358.824 171.356L358.044 171.608C358.548 172.844 359.016 174.26 359.436 175.856L360.228 175.508C359.832 174.032 359.364 172.652 358.824 171.356ZM355.536 168.692H358.968C358.824 169.388 358.644 170.012 358.428 170.576L359.268 170.828C359.508 170.036 359.688 169.232 359.832 168.416V167.852H355.86C356.028 167.348 356.172 166.82 356.28 166.268L355.428 166.16C355.14 167.696 354.576 168.992 353.76 170.048L354.288 170.732C354.78 170.132 355.2 169.448 355.536 168.692ZM363.96 168.692C363.744 168.692 363.576 168.764 363.432 168.92C363.288 169.052 363.228 169.22 363.228 169.436C363.228 169.64 363.288 169.808 363.432 169.952C363.576 170.096 363.744 170.168 363.96 170.168C364.164 170.168 364.344 170.096 364.488 169.952C364.632 169.808 364.704 169.64 364.704 169.436C364.704 169.22 364.632 169.052 364.488 168.92C364.344 168.764 364.164 168.692 363.96 168.692ZM363.96 173.084C363.744 173.084 363.576 173.156 363.432 173.312C363.288 173.444 363.228 173.612 363.228 173.828C363.228 174.032 363.288 174.2 363.432 174.344C363.576 174.488 363.744 174.56 363.96 174.56C364.164 174.56 364.344 174.488 364.488 174.344C364.632 174.2 364.704 174.032 364.704 173.828C364.704 173.612 364.632 173.444 364.488 173.312C364.344 173.156 364.164 173.084 363.96 173.084Z" fill="#7F7F7F"/>
<path d="M315.696 198.688V199.516H319.128V201.376H316.5V206.212H317.352V205.552H321.852V206.188H322.704V201.376H320.004V199.516H323.46V198.688H320.004V196.696C321.096 196.54 322.056 196.312 322.896 196.012L322.476 195.268C320.748 195.856 318.564 196.156 315.948 196.156L316.212 196.936C317.244 196.936 318.216 196.888 319.128 196.804V198.688H315.696ZM317.352 204.736V202.192H321.852V204.736H317.352ZM313.524 195.364L312.936 195.928C313.8 196.504 314.484 197.032 314.976 197.536L315.564 196.948C315.012 196.42 314.328 195.892 313.524 195.364ZM313.248 198.232L312.648 198.82C313.524 199.444 314.208 200.044 314.712 200.608L315.312 200.008C314.76 199.408 314.064 198.82 313.248 198.232ZM314.664 201.424C314.16 202.876 313.548 204.292 312.852 205.684L313.716 206.056C314.34 204.712 314.916 203.26 315.444 201.724L314.664 201.424ZM325.32 196.036V196.864H329.664V196.036H325.32ZM324.852 199.276V200.116H326.52C325.92 202.3 325.44 203.632 325.08 204.124C325.032 204.148 324.972 204.172 324.888 204.196L325.092 205.012C326.58 204.748 327.972 204.388 329.244 203.932C329.364 204.208 329.484 204.496 329.604 204.808L330.348 204.424C329.844 203.212 329.304 202.096 328.728 201.064L327.996 201.424C328.308 201.976 328.608 202.564 328.92 203.212C327.984 203.56 327.036 203.836 326.088 204.028C326.448 203.236 326.868 201.94 327.348 200.116H330.12V199.276H324.852ZM331.92 195.232V197.656H330.3V198.496H331.92V198.64C331.896 201.868 331.128 204.208 329.628 205.66L330.276 206.224C331.908 204.628 332.748 202.096 332.784 198.64V198.496H334.56C334.536 201.724 334.488 203.656 334.416 204.292C334.32 204.976 333.972 205.324 333.384 205.324C333.06 205.324 332.676 205.3 332.244 205.276L332.436 206.044C332.94 206.068 333.288 206.08 333.492 206.08C334.524 206.08 335.112 205.588 335.232 204.616C335.34 203.728 335.4 201.412 335.4 197.656H332.784V195.232H331.92ZM340.92 196.096H337.464V205.228H338.304V204.136H340.08V204.94H340.92V196.096ZM338.304 203.332V200.44H340.08V203.332H338.304ZM338.304 199.636V196.888H340.08V199.636H338.304ZM342.648 199.672L341.94 200.116C342.66 201.22 343.224 202.228 343.644 203.128L344.364 202.624C343.968 201.784 343.392 200.8 342.648 199.672ZM345.384 206.08C346.128 206.08 346.5 205.696 346.5 204.94V198.232H347.976V197.404H346.5V195.292H345.624V197.404H341.472V198.232H345.624V204.724C345.624 205.096 345.444 205.288 345.096 205.288C344.46 205.288 343.8 205.264 343.104 205.24L343.284 206.08H345.384ZM352.392 198.448V204.04H356.952V198.448H352.392ZM356.148 203.272H353.208V201.628H356.148V203.272ZM353.208 200.86V199.216H356.148V200.86H353.208ZM358.296 206.104C359.1 206.104 359.508 205.672 359.508 204.832V195.796H354.012V196.6H358.668V204.592C358.668 205.072 358.476 205.324 358.116 205.324L357.072 205.3L357.288 206.104H358.296ZM349.908 197.188V206.212H350.748V197.188H349.908ZM351.648 195.088L350.856 195.436C351.396 196.084 351.888 196.828 352.344 197.668L353.112 197.26C352.692 196.468 352.2 195.748 351.648 195.088ZM363.96 197.692C363.744 197.692 363.576 197.764 363.432 197.92C363.288 198.052 363.228 198.22 363.228 198.436C363.228 198.64 363.288 198.808 363.432 198.952C363.576 199.096 363.744 199.168 363.96 199.168C364.164 199.168 364.344 199.096 364.488 198.952C364.632 198.808 364.704 198.64 364.704 198.436C364.704 198.22 364.632 198.052 364.488 197.92C364.344 197.764 364.164 197.692 363.96 197.692ZM363.96 202.084C363.744 202.084 363.576 202.156 363.432 202.312C363.288 202.444 363.228 202.612 363.228 202.828C363.228 203.032 363.288 203.2 363.432 203.344C363.576 203.488 363.744 203.56 363.96 203.56C364.164 203.56 364.344 203.488 364.488 203.344C364.632 203.2 364.704 203.032 364.704 202.828C364.704 202.612 364.632 202.444 364.488 202.312C364.344 202.156 364.164 202.084 363.96 202.084Z" fill="#7F7F7F"/>
<path d="M315.696 227.688V228.516H319.128V230.376H316.5V235.212H317.352V234.552H321.852V235.188H322.704V230.376H320.004V228.516H323.46V227.688H320.004V225.696C321.096 225.54 322.056 225.312 322.896 225.012L322.476 224.268C320.748 224.856 318.564 225.156 315.948 225.156L316.212 225.936C317.244 225.936 318.216 225.888 319.128 225.804V227.688H315.696ZM317.352 233.736V231.192H321.852V233.736H317.352ZM313.524 224.364L312.936 224.928C313.8 225.504 314.484 226.032 314.976 226.536L315.564 225.948C315.012 225.42 314.328 224.892 313.524 224.364ZM313.248 227.232L312.648 227.82C313.524 228.444 314.208 229.044 314.712 229.608L315.312 229.008C314.76 228.408 314.064 227.82 313.248 227.232ZM314.664 230.424C314.16 231.876 313.548 233.292 312.852 234.684L313.716 235.056C314.34 233.712 314.916 232.26 315.444 230.724L314.664 230.424ZM325.32 225.036V225.864H329.664V225.036H325.32ZM324.852 228.276V229.116H326.52C325.92 231.3 325.44 232.632 325.08 233.124C325.032 233.148 324.972 233.172 324.888 233.196L325.092 234.012C326.58 233.748 327.972 233.388 329.244 232.932C329.364 233.208 329.484 233.496 329.604 233.808L330.348 233.424C329.844 232.212 329.304 231.096 328.728 230.064L327.996 230.424C328.308 230.976 328.608 231.564 328.92 232.212C327.984 232.56 327.036 232.836 326.088 233.028C326.448 232.236 326.868 230.94 327.348 229.116H330.12V228.276H324.852ZM331.92 224.232V226.656H330.3V227.496H331.92V227.64C331.896 230.868 331.128 233.208 329.628 234.66L330.276 235.224C331.908 233.628 332.748 231.096 332.784 227.64V227.496H334.56C334.536 230.724 334.488 232.656 334.416 233.292C334.32 233.976 333.972 234.324 333.384 234.324C333.06 234.324 332.676 234.3 332.244 234.276L332.436 235.044C332.94 235.068 333.288 235.08 333.492 235.08C334.524 235.08 335.112 234.588 335.232 233.616C335.34 232.728 335.4 230.412 335.4 226.656H332.784V224.232H331.92ZM347.556 226.512L344.976 227.304V224.196H344.136V227.568L342.384 228.108V225.42H341.544V228.372L340.536 228.684V229.524L341.544 229.212V233.784C341.544 234.576 341.94 234.984 342.744 234.984H346.536C346.98 234.984 347.304 234.864 347.508 234.636C347.748 234.372 347.904 233.64 347.988 232.428L347.184 232.176C347.136 233.148 347.04 233.736 346.908 233.928C346.812 234.084 346.632 234.168 346.38 234.168H343.008C342.588 234.168 342.384 233.976 342.384 233.616V228.96L344.136 228.432V232.716H344.976V228.18L346.728 227.652C346.716 229.284 346.68 230.232 346.62 230.484C346.548 230.748 346.344 230.88 346.02 230.88C345.876 230.88 345.708 230.868 345.528 230.856L345.768 231.708H345.84C346.74 231.708 347.256 231.444 347.376 230.94C347.496 230.412 347.556 228.936 347.556 226.512ZM340.692 231.612C340.236 231.828 339.756 232.032 339.276 232.212V228.228H340.524V227.388H339.276V224.292H338.424V227.388H337.056V228.228H338.424V232.5C337.92 232.644 337.416 232.776 336.912 232.884L337.128 233.748C338.4 233.412 339.588 232.98 340.692 232.464V231.612ZM356.676 224.184V233.88H354.876V226.728H354.012V233.88H352.62V234.72H360.18V233.88H357.552V228.852H359.832V228.024H357.552V224.184H356.676ZM353.22 231.708C352.692 231.9 352.152 232.068 351.6 232.224V228.132H353.076V227.292H351.6V224.244H350.712V227.292H349.212V228.132H350.712V232.464C350.184 232.584 349.644 232.692 349.092 232.788L349.32 233.7C350.712 233.412 352.02 233.04 353.22 232.608V231.708ZM363.96 226.692C363.744 226.692 363.576 226.764 363.432 226.92C363.288 227.052 363.228 227.22 363.228 227.436C363.228 227.64 363.288 227.808 363.432 227.952C363.576 228.096 363.744 228.168 363.96 228.168C364.164 228.168 364.344 228.096 364.488 227.952C364.632 227.808 364.704 227.64 364.704 227.436C364.704 227.22 364.632 227.052 364.488 226.92C364.344 226.764 364.164 226.692 363.96 226.692ZM363.96 231.084C363.744 231.084 363.576 231.156 363.432 231.312C363.288 231.444 363.228 231.612 363.228 231.828C363.228 232.032 363.288 232.2 363.432 232.344C363.576 232.488 363.744 232.56 363.96 232.56C364.164 232.56 364.344 232.488 364.488 232.344C364.632 232.2 364.704 232.032 364.704 231.828C364.704 231.612 364.632 231.444 364.488 231.312C364.344 231.156 364.164 231.084 363.96 231.084Z" fill="#7F7F7F"/>
<path d="M318.564 260.912C318.204 261.008 317.844 261.092 317.472 261.176V254.48H318.396V255.152H318.876C319.044 257.168 319.572 259.028 320.46 260.732C319.812 261.812 319.008 262.724 318.036 263.492L318.624 264.164C319.524 263.456 320.292 262.592 320.94 261.584C321.492 262.484 322.164 263.348 322.968 264.176L323.544 263.516C322.692 262.688 321.972 261.776 321.396 260.792C322.224 259.22 322.776 257.324 323.04 255.104V254.312H318.396V253.664H312.684V254.48H313.632V261.908C313.272 261.956 312.912 262.016 312.552 262.064L312.756 262.904C314.1 262.712 315.384 262.484 316.632 262.22V264.2H317.472V262.028C317.832 261.944 318.192 261.86 318.564 261.764V260.912ZM319.668 255.152H322.224C322.008 256.94 321.564 258.512 320.916 259.88C320.232 258.452 319.812 256.88 319.668 255.152ZM316.632 261.368C315.924 261.512 315.204 261.656 314.472 261.776V259.736H316.632V261.368ZM314.472 258.956V257.132H316.632V258.956H314.472ZM314.472 256.34V254.48H316.632V256.34H314.472ZM324.912 253.664V254.42H328.536V255.38H325.788V258.044H334.704V255.38H331.956V254.42H335.568V253.664H324.912ZM331.14 255.38H329.352V254.42H331.14V255.38ZM333.876 257.336H331.956V256.1H333.876V257.336ZM331.14 257.336H329.352V256.1H331.14V257.336ZM328.536 257.336H326.616V256.1H328.536V257.336ZM326.292 258.932V259.652H334.248V258.932H326.292ZM325.104 260.528V261.284H329.952V262.964C329.952 263.276 329.772 263.432 329.436 263.432C329.124 263.432 328.8 263.408 328.464 263.384L328.632 264.152H329.712C330.432 264.152 330.792 263.816 330.792 263.156V261.284H335.376V260.528H325.104ZM332.7 261.692L332.124 262.232C333.3 262.88 334.212 263.48 334.872 264.056L335.472 263.456C334.728 262.868 333.804 262.28 332.7 261.692ZM328.02 261.716C327.228 262.34 326.256 262.892 325.104 263.372L325.62 264.044C326.796 263.528 327.78 262.928 328.584 262.232L328.02 261.716ZM341.016 257.408H338.808C339.12 256.568 339.348 255.668 339.516 254.708H341.328V253.868H337.236V254.708H338.7C338.412 256.496 337.812 258.092 336.9 259.484L337.332 260.18C337.62 259.772 337.884 259.352 338.124 258.92V263.804H338.928V262.892H340.224V263.576H341.016V257.408ZM338.928 262.112V258.2H340.224V262.112H338.928ZM342.636 255.356L341.988 259.244H346.836C346.836 261.164 346.74 262.328 346.548 262.736C346.368 263.12 345.816 263.324 344.892 263.324C344.676 263.324 344.304 263.3 343.776 263.252L344.016 264.092C344.4 264.116 344.76 264.128 345.096 264.128C346.152 264.128 346.836 263.9 347.172 263.468C347.484 263.012 347.652 261.344 347.652 258.44H346.38L347.04 253.7H341.88V254.516H346.104L345.504 258.44H342.96L343.488 255.416L342.636 255.356ZM341.616 260.768V261.584H346.008V260.768H341.616ZM351.72 255.692C351.504 255.692 351.336 255.764 351.192 255.92C351.048 256.052 350.988 256.22 350.988 256.436C350.988 256.64 351.048 256.808 351.192 256.952C351.336 257.096 351.504 257.168 351.72 257.168C351.924 257.168 352.104 257.096 352.248 256.952C352.392 256.808 352.464 256.64 352.464 256.436C352.464 256.22 352.392 256.052 352.248 255.92C352.104 255.764 351.924 255.692 351.72 255.692ZM351.72 260.084C351.504 260.084 351.336 260.156 351.192 260.312C351.048 260.444 350.988 260.612 350.988 260.828C350.988 261.032 351.048 261.2 351.192 261.344C351.336 261.488 351.504 261.56 351.72 261.56C351.924 261.56 352.104 261.488 352.248 261.344C352.392 261.2 352.464 261.032 352.464 260.828C352.464 260.612 352.392 260.444 352.248 260.312C352.104 260.156 351.924 260.084 351.72 260.084Z" fill="#7F7F7F"/>
<path d="M314.03 318.58V322.26H320.01V318.58H314.03ZM319.31 321.62H314.73V320.74H319.31V321.62ZM314.73 320.13V319.22H319.31V320.13H314.73ZM312.91 315.73V316.39H316C315.22 317.09 314.03 317.68 312.43 318.14L312.81 318.78C314.56 318.15 315.83 317.35 316.61 316.39H316.67V318.26H317.37V316.39H317.43C318.17 317.37 319.44 318.16 321.24 318.77L321.55 318.12C319.97 317.7 318.81 317.12 318.06 316.39H321.13V315.73H317.37V314.81H316.67V315.73H312.91ZM312.71 323.04V323.71H321.3V323.04H312.71ZM323.42 316.67V317.29H326.26C326.13 317.51 325.98 317.74 325.82 317.97H322.88V318.61H325.32C324.61 319.45 323.71 320.23 322.62 320.97L323.01 321.59C323.63 321.17 324.19 320.72 324.7 320.26V324.01H325.39V323.58H329.91V324.01H330.6V319.3H325.64C325.83 319.08 326.01 318.85 326.19 318.61H331.6V317.97H326.63C326.76 317.75 326.89 317.53 327.01 317.29H331.02V316.67H327.3C327.4 316.42 327.5 316.16 327.59 315.89C328.85 315.79 329.95 315.64 330.9 315.43L330.57 314.86C328.7 315.24 326.35 315.43 323.51 315.43L323.72 316.03C324.86 316.03 325.92 316 326.9 315.94C326.8 316.18 326.7 316.43 326.59 316.67H323.42ZM325.39 321.12H329.91V321.75H325.39V321.12ZM329.91 320.56H325.39V319.89H329.91V320.56ZM325.39 322.31H329.91V322.99H325.39V322.31ZM338.66 317.38V318.83H336.62V319.51H338.66V321.02H336.11V321.71H338.66V323.99H339.38V321.71H341.97V321.02H339.38V319.51H341.44V318.83H339.38V317.38H341.74V316.7H340.22C340.54 316.2 340.82 315.64 341.07 315.02L340.38 314.78C340.13 315.46 339.84 316.1 339.51 316.7H336.33V317.38H338.66ZM337.51 314.82L336.9 315.11C337.26 315.57 337.59 316.1 337.9 316.68L338.49 316.38C338.18 315.82 337.85 315.3 337.51 314.82ZM334.04 314.97L333.54 315.44C334.23 315.98 334.77 316.48 335.16 316.96L335.64 316.46C335.21 315.96 334.68 315.47 334.04 314.97ZM332.82 317.89V318.58H334.23V322.55C334.23 322.72 334.15 322.87 334 323.01L334.27 323.64C334.84 323.16 335.39 322.63 335.91 322.04L335.72 321.31C335.44 321.63 335.18 321.92 334.93 322.18V317.89H332.82ZM347.6 321.12H350.77V321.82H347.6V321.12ZM350.77 320.56H347.6V319.82H350.77V320.56ZM347.6 322.37H350.77V322.96C350.77 323.2 350.65 323.33 350.42 323.33L349.67 323.29L349.85 323.93H350.63C351.18 323.93 351.46 323.65 351.46 323.11V319.22H346.92V323.98H347.6V322.37ZM348.86 314.83V315.47H346.51V316.06H348.86V316.75H346.85V317.33H348.86V318H346.21V318.07C346.05 317.5 345.86 316.99 345.66 316.54L345.14 316.7C345.39 317.28 345.6 317.89 345.76 318.52L346.21 318.41V318.6H352.19V318H349.58V317.33H351.57V316.75H349.58V316.06H351.9V315.47H349.58V314.83H348.86ZM343.3 316.76C343.28 317.72 343.17 318.64 342.97 319.51L343.52 319.66C343.72 318.76 343.84 317.81 343.86 316.8L343.3 316.76ZM344.32 314.86V323.96H345.02V314.86H344.32Z" fill="#A9A9A9"/>
<rect x="373" y="161" width="146" height="20" rx="4" fill="#EEEEEE"/>
<rect x="373" y="190" width="65" height="20" rx="4" fill="#EEEEEE"/>
<rect x="373" y="219" width="124" height="20" rx="4" fill="#EEEEEE"/>
<rect x="373" y="248" width="104" height="20" rx="4" fill="#EEEEEE"/>
<line x1="298" y1="306.75" x2="564" y2="306.75" stroke="#E8E8E8" stroke-width="0.5"/>
<line x1="54" y1="71.75" x2="339" y2="71.75" stroke="#EEEEEE" stroke-width="0.5"/>
<path d="M547 315L551.563 319.563L547 324.125" stroke="#CDCDCD" stroke-width="1.11238" stroke-miterlimit="10" stroke-linecap="round" stroke-linejoin="round"/>
<defs>
<filter id="filter0_d" x="30" y="0" width="333" height="459" filterUnits="userSpaceOnUse" color-interpolation-filters="sRGB">
<feFlood flood-opacity="0" result="BackgroundImageFix"/>
<feColorMatrix in="SourceAlpha" type="matrix" values="0 0 0 0 0 0 0 0 0 0 0 0 0 0 0 0 0 0 127 0"/>
<feOffset dy="4"/>
<feGaussianBlur stdDeviation="12"/>
<feColorMatrix type="matrix" values="0 0 0 0 0.135086 0 0 0 0 0.204976 0 0 0 0 0.340522 0 0 0 0.08 0"/>
<feBlend mode="normal" in2="BackgroundImageFix" result="effect1_dropShadow"/>
<feBlend mode="normal" in="SourceGraphic" in2="effect1_dropShadow" result="shape"/>
</filter>
<filter id="filter1_d" x="0" y="81" width="282" height="262" filterUnits="userSpaceOnUse" color-interpolation-filters="sRGB">
<feFlood flood-opacity="0" result="BackgroundImageFix"/>
<feColorMatrix in="SourceAlpha" type="matrix" values="0 0 0 0 0 0 0 0 0 0 0 0 0 0 0 0 0 0 127 0"/>
<feOffset dy="2"/>
<feGaussianBlur stdDeviation="4"/>
<feColorMatrix type="matrix" values="0 0 0 0 0 0 0 0 0 0 0 0 0 0 0 0 0 0 0.08 0"/>
<feBlend mode="normal" in2="BackgroundImageFix" result="effect1_dropShadow"/>
<feBlend mode="normal" in="SourceGraphic" in2="effect1_dropShadow" result="shape"/>
</filter>
<filter id="filter2_d" x="290" y="81" width="282" height="262" filterUnits="userSpaceOnUse" color-interpolation-filters="sRGB">
<feFlood flood-opacity="0" result="BackgroundImageFix"/>
<feColorMatrix in="SourceAlpha" type="matrix" values="0 0 0 0 0 0 0 0 0 0 0 0 0 0 0 0 0 0 127 0"/>
<feOffset dy="2"/>
<feGaussianBlur stdDeviation="4"/>
<feColorMatrix type="matrix" values="0 0 0 0 0 0 0 0 0 0 0 0 0 0 0 0 0 0 0.08 0"/>
<feBlend mode="normal" in2="BackgroundImageFix" result="effect1_dropShadow"/>
<feBlend mode="normal" in="SourceGraphic" in2="effect1_dropShadow" result="shape"/>
</filter>
</defs>
</svg>
