<svg width="491" height="386" viewBox="0 0 491 386" fill="none" xmlns="http://www.w3.org/2000/svg">
<g filter="url(#filter0_d)">
<rect x="274" y="8" width="205" height="203" rx="8" fill="white"/>
</g>
<g filter="url(#filter1_d)">
<rect x="12" y="44" width="175" height="175" rx="8" fill="white"/>
</g>
<rect x="32" y="60" width="86" height="27" rx="8" fill="#EEEEEE"/>
<rect x="291" y="24" width="58" height="27" rx="6" fill="#90DD9D"/>
<rect x="357" y="30" width="47" height="21" rx="6" fill="#BFEECC"/>
<rect x="291" y="66" width="168" height="123" rx="8" fill="#D6F8E0"/>
<rect x="412" y="30" width="47" height="21" rx="6" fill="#BFEECC"/>
<rect x="32" y="104" width="133" height="92" rx="8" fill="#EEEEEE"/>
<g filter="url(#filter2_d)">
<rect x="85" y="137" width="333" height="233" rx="8" fill="white"/>
</g>
<path d="M122 252C122 249.791 123.791 248 126 248H380C382.209 248 384 249.791 384 252V370H122V252Z" fill="#F0F4FA"/>
<path d="M124.666 167.833H181.333C182.084 167.833 182.805 168.132 183.336 168.663C183.868 169.194 184.166 169.915 184.166 170.666V227.333C184.166 228.084 183.868 228.805 183.336 229.336C182.805 229.868 182.084 230.166 181.333 230.166H124.666C123.915 230.166 123.194 229.868 122.663 229.336C122.132 228.805 121.833 228.084 121.833 227.333V170.666C121.833 169.915 122.132 169.194 122.663 168.663C123.194 168.132 123.915 167.833 124.666 167.833Z" fill="#7AA1DC"/>
<path d="M132.98 193.004V203H140.008V201.6H134.604V193.004H132.98ZM145.983 192.808C144.443 192.808 143.239 193.298 142.371 194.306C141.531 195.258 141.125 196.49 141.125 198.016C141.125 199.528 141.531 200.76 142.371 201.712C143.239 202.692 144.443 203.196 145.983 203.196C147.509 203.196 148.713 202.706 149.595 201.726C150.435 200.788 150.855 199.556 150.855 198.016C150.855 196.476 150.435 195.23 149.595 194.292C148.713 193.298 147.509 192.808 145.983 192.808ZM145.983 194.25C147.019 194.25 147.817 194.572 148.377 195.244C148.923 195.916 149.203 196.84 149.203 198.016C149.203 199.192 148.923 200.102 148.377 200.76C147.817 201.418 147.019 201.754 145.983 201.754C144.947 201.754 144.135 201.404 143.575 200.718C143.029 200.046 142.763 199.15 142.763 198.016C142.763 196.868 143.029 195.972 143.575 195.3C144.149 194.6 144.947 194.25 145.983 194.25ZM157.021 192.808C155.537 192.808 154.361 193.312 153.493 194.348C152.667 195.314 152.261 196.546 152.261 198.044C152.261 199.528 152.667 200.746 153.493 201.684C154.375 202.692 155.607 203.196 157.203 203.196C158.099 203.196 158.897 203.084 159.625 202.86C160.311 202.636 160.913 202.328 161.445 201.908V197.68H157.161V199.08H159.807V201.138C159.471 201.334 159.121 201.488 158.729 201.6C158.309 201.712 157.861 201.768 157.385 201.768C156.167 201.768 155.271 201.432 154.697 200.76C154.165 200.13 153.899 199.22 153.899 198.044C153.899 196.812 154.193 195.874 154.795 195.202C155.341 194.558 156.083 194.25 157.021 194.25C157.777 194.25 158.393 194.404 158.855 194.726C159.303 195.048 159.611 195.524 159.751 196.168H161.403C161.221 195.048 160.773 194.222 160.059 193.662C159.317 193.088 158.309 192.808 157.021 192.808ZM167.981 192.808C166.441 192.808 165.237 193.298 164.369 194.306C163.529 195.258 163.123 196.49 163.123 198.016C163.123 199.528 163.529 200.76 164.369 201.712C165.237 202.692 166.441 203.196 167.981 203.196C169.507 203.196 170.711 202.706 171.593 201.726C172.433 200.788 172.853 199.556 172.853 198.016C172.853 196.476 172.433 195.23 171.593 194.292C170.711 193.298 169.507 192.808 167.981 192.808ZM167.981 194.25C169.017 194.25 169.815 194.572 170.375 195.244C170.921 195.916 171.201 196.84 171.201 198.016C171.201 199.192 170.921 200.102 170.375 200.76C169.815 201.418 169.017 201.754 167.981 201.754C166.945 201.754 166.133 201.404 165.573 200.718C165.027 200.046 164.761 199.15 164.761 198.016C164.761 196.868 165.027 195.972 165.573 195.3C166.147 194.6 166.945 194.25 167.981 194.25Z" fill="white"/>
<circle cx="412" cy="146" r="23" fill="#4B8DEF"/>
<rect x="198" y="177" width="186" height="44" rx="4" fill="#F0F4FA"/>
<path d="M423.592 134.408C423.375 134.192 423.05 134.083 422.617 134.083C422.183 134.192 410.592 136.142 405.825 140.908C402.467 144.267 402.25 147.95 402.792 150.55L406.8 148.167C407.342 147.842 407.883 148.6 407.45 149.033L403.442 153.042L400.408 156.075C399.975 156.508 399.975 157.158 400.408 157.592C400.625 157.808 400.842 157.917 401.167 157.917C401.492 157.917 401.708 157.808 401.925 157.592L404.958 154.558C405.825 154.992 407.45 155.533 409.508 155.533C411.892 155.533 414.058 154.775 416.008 153.258C416.333 153.042 416.55 152.5 416.333 152.067L414.817 146.65L418.717 148.167C419.258 148.383 419.908 148.167 420.125 147.625C422.4 142.533 423.808 135.708 423.917 135.492C423.917 135.058 423.808 134.625 423.592 134.408Z" fill="white"/>
<circle cx="184" cy="45" r="15" fill="#FC9292"/>
<path d="M178.671 50.3287C178.671 50.7998 178.858 51.2516 179.191 51.5848C179.524 51.9179 179.976 52.105 180.447 52.105H187.552C188.024 52.105 188.475 51.9179 188.809 51.5848C189.142 51.2516 189.329 50.7998 189.329 50.3287V42.6313H178.671V50.3287Z" fill="white"/>
<path d="M186.738 39.6708L186.216 38.2788C186.174 38.166 186.098 38.0687 185.999 38.0001C185.9 37.9314 185.782 37.8946 185.662 37.8945H182.338C182.217 37.8946 182.1 37.9314 182.001 38.0001C181.902 38.0687 181.826 38.166 181.784 38.2788L181.261 39.6708H176.895V41.4472H191.105V39.6708H186.738Z" fill="white"/>
<defs>
<filter id="filter0_d" x="262" y="0" width="229" height="227" filterUnits="userSpaceOnUse" color-interpolation-filters="sRGB">
<feFlood flood-opacity="0" result="BackgroundImageFix"/>
<feColorMatrix in="SourceAlpha" type="matrix" values="0 0 0 0 0 0 0 0 0 0 0 0 0 0 0 0 0 0 127 0"/>
<feOffset dy="4"/>
<feGaussianBlur stdDeviation="6"/>
<feColorMatrix type="matrix" values="0 0 0 0 0 0 0 0 0 0 0 0 0 0 0 0 0 0 0.08 0"/>
<feBlend mode="normal" in2="BackgroundImageFix" result="effect1_dropShadow"/>
<feBlend mode="normal" in="SourceGraphic" in2="effect1_dropShadow" result="shape"/>
</filter>
<filter id="filter1_d" x="0" y="36" width="199" height="199" filterUnits="userSpaceOnUse" color-interpolation-filters="sRGB">
<feFlood flood-opacity="0" result="BackgroundImageFix"/>
<feColorMatrix in="SourceAlpha" type="matrix" values="0 0 0 0 0 0 0 0 0 0 0 0 0 0 0 0 0 0 127 0"/>
<feOffset dy="4"/>
<feGaussianBlur stdDeviation="6"/>
<feColorMatrix type="matrix" values="0 0 0 0 0 0 0 0 0 0 0 0 0 0 0 0 0 0 0.08 0"/>
<feBlend mode="normal" in2="BackgroundImageFix" result="effect1_dropShadow"/>
<feBlend mode="normal" in="SourceGraphic" in2="effect1_dropShadow" result="shape"/>
</filter>
<filter id="filter2_d" x="73" y="129" width="357" height="257" filterUnits="userSpaceOnUse" color-interpolation-filters="sRGB">
<feFlood flood-opacity="0" result="BackgroundImageFix"/>
<feColorMatrix in="SourceAlpha" type="matrix" values="0 0 0 0 0 0 0 0 0 0 0 0 0 0 0 0 0 0 127 0"/>
<feOffset dy="4"/>
<feGaussianBlur stdDeviation="6"/>
<feColorMatrix type="matrix" values="0 0 0 0 0 0 0 0 0 0 0 0 0 0 0 0 0 0 0.08 0"/>
<feBlend mode="normal" in2="BackgroundImageFix" result="effect1_dropShadow"/>
<feBlend mode="normal" in="SourceGraphic" in2="effect1_dropShadow" result="shape"/>
</filter>
</defs>
</svg>
