<svg width="525" height="417" viewBox="0 0 525 417" fill="none" xmlns="http://www.w3.org/2000/svg">
<g filter="url(#filter0_d)">
<rect x="126" y="233" width="387" height="170" rx="8" fill="white"/>
</g>
<g filter="url(#filter1_d)">
<path fill-rule="evenodd" clip-rule="evenodd" d="M340.927 23.4192C341.52 28.283 337.393 32.7878 331.709 33.481C326.025 34.1741 320.936 30.7931 320.343 25.9293L136.667 48.3269C129.671 49.18 124.692 55.5429 125.545 62.5389L138.481 168.627C139.334 175.623 145.697 180.603 152.693 179.75L336.369 157.352C335.776 152.488 339.903 147.984 345.587 147.29C351.271 146.597 356.36 149.978 356.953 154.842L454.333 142.968C461.329 142.115 466.308 135.752 465.455 128.756L452.519 22.6672C451.666 15.6713 445.303 10.6915 438.307 11.5446L340.927 23.4192Z" fill="#F3F5F7"/>
</g>
<path d="M167.062 284.202C166.895 284.287 166.725 284.328 166.518 284.328C166.055 284.328 165.677 284.076 165.466 283.698L165.381 283.532L162.064 276.305C162.023 276.22 162.023 276.139 162.023 276.053C162.023 275.716 162.275 275.465 162.612 275.465C162.738 275.465 162.864 275.505 162.99 275.59L166.895 278.363C167.188 278.53 167.525 278.656 167.902 278.656C168.113 278.656 168.321 278.615 168.532 278.53L186.846 270.382C183.57 266.516 178.154 263.995 172.019 263.995C162.023 263.995 153.875 270.759 153.875 279.115C153.875 283.65 156.311 287.766 160.131 290.539C160.424 290.751 160.635 291.128 160.635 291.506C160.635 291.632 160.594 291.757 160.55 291.883C160.257 293.016 159.75 294.867 159.75 294.949C159.709 295.074 159.665 295.241 159.665 295.411C159.665 295.748 159.916 296 160.253 296C160.379 296 160.505 295.96 160.59 295.874L164.537 293.564C164.829 293.398 165.166 293.272 165.503 293.272C165.669 293.272 165.88 293.312 166.047 293.357C167.894 293.901 169.912 294.198 171.97 294.198C181.966 294.198 190.115 287.434 190.115 279.078C190.115 276.557 189.359 274.165 188.056 272.062L167.188 284.117L167.062 284.202Z" fill="#09BB07"/>
<path d="M219.18 274.38H220.78C220.72 276.68 220.44 278.72 219.96 280.5C219.5 279.1 219.12 277.52 218.84 275.76C218.96 275.32 219.06 274.86 219.18 274.38ZM219.22 282.6C218.52 284.18 217.6 285.46 216.44 286.44L217.44 288.04C218.48 287.1 219.36 285.98 220.08 284.66C220.72 286 221.46 287.1 222.3 287.94L223.38 286.32C222.42 285.48 221.6 284.34 220.9 282.86C221.8 280.52 222.3 277.7 222.38 274.38H223.08V272.6H219.54C219.7 271.72 219.82 270.8 219.94 269.84L218.28 269.56C217.92 273.18 217.24 276.12 216.26 278.38V277.02H209.9V278.7H216.12C216.08 278.78 216.06 278.84 216.02 278.92L217.06 280.24C217.4 279.64 217.72 278.96 218.02 278.22C218.34 279.82 218.74 281.28 219.22 282.6ZM214.3 286.92C215.38 286.22 216.44 285.32 217.48 284.2L217.1 282.62C216.6 283.14 216.1 283.6 215.62 284.04V279.88H210.48V282.5C210.46 284.34 209.96 285.76 208.98 286.74L210.38 287.96C211.58 286.76 212.2 284.94 212.24 282.5V281.6H213.96V284.74C213.9 285.02 213.76 285.22 213.52 285.36L214.3 286.92ZM212.42 269.6V274.02H211.42V270.68H209.86V275.62H216.52V270.68H214.98V274.02H214V269.6H212.42ZM207.78 269.62C207.1 271.42 206.04 272.98 204.62 274.34L205.2 276.18C207.16 274.46 208.56 272.52 209.4 270.38L207.78 269.62ZM207.88 274.98C207.2 276.88 206.14 278.54 204.7 279.98L205.26 281.8C205.8 281.3 206.3 280.8 206.76 280.28V288.1H208.54V277.78C208.9 277.12 209.22 276.44 209.48 275.74L207.88 274.98ZM227.26 277.52V288.1H229.12V274.54C229.84 273.16 230.42 271.72 230.88 270.24L229.1 269.4C228.2 272.48 226.82 275.2 224.98 277.52L225.6 279.56C226.2 278.88 226.74 278.2 227.26 277.52ZM230.52 272.02V273.8H243.66V272.02H238.26C238.04 271.26 237.72 270.44 237.3 269.54L235.48 270.04C235.82 270.68 236.12 271.34 236.38 272.02H230.52ZM232.34 275.02V276.72H241.96V275.02H232.34ZM232.34 277.84V279.56H241.96V277.84H232.34ZM242.38 280.82H231.9V288.06H233.74V287.02H240.54V288.06H242.38V280.82ZM233.74 285.24V282.58H240.54V285.24H233.74ZM246.5 284.22C247.98 283.84 249.42 283.4 250.78 282.92V287.92H252.64V286.4L253.64 288.02C255.64 286.94 257.28 285.62 258.58 284.06C259.78 285.56 261.2 286.94 262.84 288.18L264.14 286.64C262.46 285.4 260.98 284 259.74 282.44C261.1 280.16 261.88 277.46 262.04 274.34H263.62V272.48H257.3C257.5 271.66 257.7 270.78 257.86 269.86L255.96 269.54C255.4 273.06 254.32 275.86 252.74 277.94L253.9 279.38C254.26 278.94 254.62 278.48 254.96 277.96C255.62 279.56 256.44 281.08 257.42 282.5C256.22 284.02 254.62 285.28 252.64 286.24V269.7H250.78V281.1C249.96 281.42 249.14 281.7 248.3 281.96V271.36H246.44V282.04C246.44 282.3 246.26 282.5 245.94 282.62L246.5 284.22ZM256.72 274.34H260.24C260.1 276.8 259.54 278.96 258.54 280.8C257.54 279.32 256.7 277.7 256.06 275.94C256.3 275.42 256.52 274.9 256.72 274.34ZM266.12 271.3V272.94H270.2V274.3H266.82V275.9H275.06V274.3H272V272.94H275.52V271.3H272V269.6H270.2V271.3H266.12ZM267.48 277.12V278.76H274.44V277.12H267.48ZM266.26 279.9V281.56H270.18V285.78C270.18 286.2 269.92 286.42 269.44 286.42C268.98 286.42 268.5 286.38 268.02 286.3L268.4 288.02H270.04C271.32 288.02 271.98 287.42 271.98 286.22V281.56H275.74V279.9H266.26ZM267.6 282.28C267.26 283.48 266.68 284.62 265.86 285.66L267.28 286.56C268.08 285.44 268.68 284.12 269.12 282.58L267.6 282.28ZM274.26 282.1L272.76 282.58C273.22 283.46 273.64 284.5 274.02 285.66L275.5 285C275.14 283.96 274.72 283 274.26 282.1ZM277.24 269.68C276.9 272.9 276.14 275.42 274.98 277.22L276.42 278.26C277.14 277.26 277.72 275.94 278.18 274.3H281.92C281.68 275.82 281.36 277.14 281 278.28L282.76 278.78C283.16 277.1 283.5 275.42 283.76 273.74V272.6H278.58C278.74 271.8 278.86 270.92 278.98 269.96L277.24 269.68ZM278.62 275.7C278.62 278.26 278.38 280.34 277.94 281.94C277.36 283.86 276.14 285.46 274.28 286.78L275.44 288.16C277.6 286.64 278.98 284.74 279.6 282.44C280.46 284.62 281.68 286.5 283.24 288.06L284.5 286.62C282.46 284.82 281 282.4 280.16 279.36C280.28 278.24 280.34 277.02 280.34 275.7H278.62Z" fill="#787878"/>
<path d="M386 269.6V272.06H378.38V273.9H386V276.52H379.9V278.3H381.3C381.6 279.3 382.1 280.24 382.8 281.12C383.54 282.08 384.42 282.96 385.42 283.74C383.36 284.9 380.86 285.82 377.94 286.48L379.04 288.18C382.16 287.34 384.84 286.24 387.06 284.86C388 285.42 389.02 285.94 390.12 286.42C391.68 287.08 393.32 287.64 395.06 288.1L396.16 286.42C394.56 286.06 393.06 285.6 391.62 285.08C390.56 284.68 389.58 284.22 388.68 283.74C390.68 282.2 392.22 280.36 393.28 278.2V276.52H387.96V273.9H395.62V272.06H387.96V269.6H386ZM387.02 282.74C386.18 282.16 385.42 281.5 384.74 280.78C384.06 280.06 383.54 279.24 383.18 278.3H391.12C390.16 280 388.78 281.48 387.02 282.74ZM402.52 269.42C401.56 272.54 400.04 275.28 398 277.62L398.6 279.6C399.36 278.8 400.06 277.98 400.7 277.14V288.1H402.6V274.2C403.28 272.94 403.86 271.62 404.3 270.26L402.52 269.42ZM404.52 273.78V275.62H411.84V285.3C411.84 285.9 411.54 286.22 410.98 286.22C410.1 286.22 409.18 286.18 408.24 286.1L408.66 287.96H411.64C413.04 287.96 413.74 287.22 413.74 285.78V275.62H416.5V273.78H413.74V269.68H411.84V273.78H404.52ZM406.58 277.5L405.02 278.46C406.42 280.2 407.54 281.78 408.38 283.2L410 282.08C409.2 280.76 408.06 279.24 406.58 277.5ZM426.82 277.32V280.3H421.72V282.1H426.82V285.86H419.42V287.62H436.18V285.86H433.24L434.32 285.12C433.82 284.34 433.12 283.44 432.2 282.4L430.76 283.28C431.52 284.2 432.16 285.06 432.66 285.86H428.76V282.1H433.74V280.3H428.76V277.32H434.4V275.66H436.06V271.5H428.92C428.7 270.82 428.48 270.2 428.24 269.64L426.2 269.96C426.44 270.44 426.66 270.94 426.86 271.5H419.48V275.74H421.26V277.32H426.82ZM421.4 275.54V273.32H434.16V275.54H421.4ZM439.9 284.22C441.38 283.84 442.82 283.4 444.18 282.92V287.92H446.04V286.4L447.04 288.02C449.04 286.94 450.68 285.62 451.98 284.06C453.18 285.56 454.6 286.94 456.24 288.18L457.54 286.64C455.86 285.4 454.38 284 453.14 282.44C454.5 280.16 455.28 277.46 455.44 274.34H457.02V272.48H450.7C450.9 271.66 451.1 270.78 451.26 269.86L449.36 269.54C448.8 273.06 447.72 275.86 446.14 277.94L447.3 279.38C447.66 278.94 448.02 278.48 448.36 277.96C449.02 279.56 449.84 281.08 450.82 282.5C449.62 284.02 448.02 285.28 446.04 286.24V269.7H444.18V281.1C443.36 281.42 442.54 281.7 441.7 281.96V271.36H439.84V282.04C439.84 282.3 439.66 282.5 439.34 282.62L439.9 284.22ZM450.12 274.34H453.64C453.5 276.8 452.94 278.96 451.94 280.8C450.94 279.32 450.1 277.7 449.46 275.94C449.7 275.42 449.92 274.9 450.12 274.34ZM459.52 271.3V272.94H463.6V274.3H460.22V275.9H468.46V274.3H465.4V272.94H468.92V271.3H465.4V269.6H463.6V271.3H459.52ZM460.88 277.12V278.76H467.84V277.12H460.88ZM459.66 279.9V281.56H463.58V285.78C463.58 286.2 463.32 286.42 462.84 286.42C462.38 286.42 461.9 286.38 461.42 286.3L461.8 288.02H463.44C464.72 288.02 465.38 287.42 465.38 286.22V281.56H469.14V279.9H459.66ZM461 282.28C460.66 283.48 460.08 284.62 459.26 285.66L460.68 286.56C461.48 285.44 462.08 284.12 462.52 282.58L461 282.28ZM467.66 282.1L466.16 282.58C466.62 283.46 467.04 284.5 467.42 285.66L468.9 285C468.54 283.96 468.12 283 467.66 282.1ZM470.64 269.68C470.3 272.9 469.54 275.42 468.38 277.22L469.82 278.26C470.54 277.26 471.12 275.94 471.58 274.3H475.32C475.08 275.82 474.76 277.14 474.4 278.28L476.16 278.78C476.56 277.1 476.9 275.42 477.16 273.74V272.6H471.98C472.14 271.8 472.26 270.92 472.38 269.96L470.64 269.68ZM472.02 275.7C472.02 278.26 471.78 280.34 471.34 281.94C470.76 283.86 469.54 285.46 467.68 286.78L468.84 288.16C471 286.64 472.38 284.74 473 282.44C473.86 284.62 475.08 286.5 476.64 288.06L477.9 286.62C475.86 284.82 474.4 282.4 473.56 279.36C473.68 278.24 473.74 277.02 473.74 275.7H472.02Z" fill="#787878"/>
<path d="M360.994 290.67V290.859C360.994 293.68 358.69 295.99 355.876 295.99H334.128C331.314 295.99 329.01 293.68 329.01 290.859V269.131C329.01 266.31 331.314 264 334.128 264H355.882C358.697 264 361 266.31 361 269.131V285.672L360.994 290.67ZM337.644 288.619C332.652 288.619 331.181 284.706 333.674 282.529C334.507 281.822 335.977 281.437 336.811 281.374C339.751 281.052 342.503 282.207 345.766 283.81C343.405 286.763 340.521 288.619 337.644 288.619ZM355.364 284.069C354.083 283.621 352.361 282.977 350.436 282.276C351.584 280.288 352.48 277.979 353.124 275.543H346.794V273.296H354.531V272.015H346.788V268.235H343.651C343.077 268.235 343.077 268.809 343.077 268.809V272.078H335.277V273.359H343.084V275.536H336.621V276.817H349.161C348.713 278.42 348.075 279.897 347.369 281.241C343.336 279.897 338.988 278.805 336.236 279.512C334.507 279.96 333.358 280.73 332.715 281.5C329.711 285.154 331.882 290.733 338.218 290.733C341.992 290.733 345.639 288.619 348.454 285.154C352.676 287.205 360.994 290.67 360.994 290.67V285.735C360.994 285.735 359.971 285.608 355.364 284.069Z" fill="#07A0F8"/>
<g filter="url(#filter2_d)">
<mask id="path-7-inside-1" fill="white">
<path fill-rule="evenodd" clip-rule="evenodd" d="M271.737 49.0811C271.737 53.9809 267.095 57.953 261.368 57.953C255.642 57.953 251 53.9809 251 49.0811L139.154 49.0811C132.106 49.0811 126.393 54.7944 126.393 61.8422V168.716C126.393 175.764 132.106 181.478 139.154 181.478L251 181.478C251 176.578 255.642 172.606 261.368 172.606C267.095 172.606 271.737 176.578 271.737 181.478L443.028 181.478C450.075 181.478 455.789 175.764 455.789 168.716V61.8422C455.789 54.7944 450.075 49.0811 443.028 49.0811L271.737 49.0811Z"/>
</mask>
<path fill-rule="evenodd" clip-rule="evenodd" d="M271.737 49.0811C271.737 53.9809 267.095 57.953 261.368 57.953C255.642 57.953 251 53.9809 251 49.0811L139.154 49.0811C132.106 49.0811 126.393 54.7944 126.393 61.8422V168.716C126.393 175.764 132.106 181.478 139.154 181.478L251 181.478C251 176.578 255.642 172.606 261.368 172.606C267.095 172.606 271.737 176.578 271.737 181.478L443.028 181.478C450.075 181.478 455.789 175.764 455.789 168.716V61.8422C455.789 54.7944 450.075 49.0811 443.028 49.0811L271.737 49.0811Z" fill="white"/>
<path d="M271.737 49.0811V48.2835L270.939 48.2835V49.0811H271.737ZM251 49.0811H251.798V48.2835L251 48.2835V49.0811ZM139.154 49.0811V49.8786V49.0811ZM139.154 181.478V182.275V181.478ZM251 181.478V182.275H251.798V181.478H251ZM271.737 181.478H270.939V182.275H271.737V181.478ZM443.028 181.478V182.275V181.478ZM443.028 49.0811V49.8786V49.0811ZM261.368 58.7506C267.414 58.7506 272.534 54.5335 272.534 49.0811H270.939C270.939 53.4283 266.775 57.1554 261.368 57.1554V58.7506ZM250.202 49.0811C250.202 54.5335 255.323 58.7506 261.368 58.7506V57.1554C255.961 57.1554 251.798 53.4283 251.798 49.0811H250.202ZM139.154 49.8786L251 49.8786V48.2835L139.154 48.2835V49.8786ZM127.19 61.8422C127.19 55.2349 132.546 49.8786 139.154 49.8786V48.2835C131.665 48.2835 125.595 54.3539 125.595 61.8422H127.19ZM127.19 168.716V61.8422H125.595V168.716H127.19ZM139.154 180.68C132.546 180.68 127.19 175.324 127.19 168.716H125.595C125.595 176.205 131.665 182.275 139.154 182.275V180.68ZM251 180.68L139.154 180.68V182.275L251 182.275V180.68ZM251.798 181.478C251.798 177.13 255.961 173.403 261.368 173.403V171.808C255.323 171.808 250.202 176.025 250.202 181.478H251.798ZM261.368 173.403C266.775 173.403 270.939 177.13 270.939 181.478H272.534C272.534 176.025 267.414 171.808 261.368 171.808V173.403ZM443.028 180.68L271.737 180.68V182.275L443.028 182.275V180.68ZM454.991 168.716C454.991 175.324 449.635 180.68 443.028 180.68V182.275C450.516 182.275 456.586 176.205 456.586 168.716H454.991ZM454.991 61.8422V168.716H456.586V61.8422H454.991ZM443.028 49.8786C449.635 49.8786 454.991 55.2349 454.991 61.8422H456.586C456.586 54.3539 450.516 48.2835 443.028 48.2835V49.8786ZM271.737 49.8786L443.028 49.8786V48.2835L271.737 48.2835V49.8786Z" fill="white" mask="url(#path-7-inside-1)"/>
</g>
<line x1="261.13" y1="60.2471" x2="261.13" y2="170.312" stroke="#EBEBEB" stroke-width="1.1166" stroke-dasharray="3.19 3.19"/>
<rect x="288.264" y="78" width="140" height="13" rx="2" fill="#F6F6F6"/>
<rect x="288" y="98.5303" width="89.3278" height="13.5587" rx="2" fill="#F6F6F6"/>
<rect x="288" y="140.004" width="120.433" height="13.5587" rx="2" fill="#F6F6F6"/>
<rect x="176.51" y="140.004" width="59.0201" height="13.5587" rx="2" fill="#4F7BEC"/>
<path d="M159.769 139.794L164.968 129.636H168.92L162.457 141.244H166.134V143.551H161.582V145.904H166.134V148.241H161.582V151.968H157.938V148.241H153.38V145.904H157.938V143.551H153.38V141.244H156.983L150.602 129.636H154.586L159.769 139.794Z" fill="#4F7BEC"/>
<circle cx="91" cy="116" r="5" fill="#8BA5E9"/>
<circle cx="91" cy="116" r="8.5" stroke="#8BA5E9"/>
<circle cx="91" cy="327" r="5" fill="#4F7BEC"/>
<circle cx="91" cy="327" r="8.5" stroke="#4F7BEC"/>
<path d="M91 130L91 313" stroke="#8BA5E9" stroke-width="1.1166" stroke-dasharray="5 5"/>
<rect x="151" y="323" width="337" height="67" rx="6" fill="#F6F7F9"/>
<g clip-path="url(#clip0)">
<path d="M251 347C249.022 347 247.089 347.586 245.444 348.685C243.8 349.784 242.518 351.346 241.761 353.173C241.004 355 240.806 357.011 241.192 358.951C241.578 360.891 242.53 362.673 243.929 364.071C245.327 365.47 247.109 366.422 249.049 366.808C250.989 367.194 253 366.996 254.827 366.239C256.654 365.482 258.216 364.2 259.315 362.556C260.414 360.911 261 358.978 261 357C260.992 354.35 259.936 351.811 258.063 349.937C256.189 348.064 253.65 347.008 251 347V347ZM249.333 361.512L244.822 357L246 355.822L249.333 359.155L256 352.488L257.178 353.667L249.333 361.512Z" fill="#176BE8"/>
</g>
<path d="M285.074 348.384C283.31 349.068 281.33 349.446 279.116 349.482V357.258C279.044 359.94 278.486 362.028 277.46 363.54L278.666 364.836C279.98 362.946 280.682 360.426 280.772 357.258V355.44H282.932V364.872H284.606V355.44H286.334V353.802H280.772V350.886C282.644 350.76 284.354 350.436 285.902 349.896L285.074 348.384ZM270.044 349.662V351.246H278.27V349.662H274.94C274.724 349.068 274.49 348.528 274.274 348.042L272.51 348.33C272.78 348.744 273.032 349.194 273.248 349.662H270.044ZM269.864 353.748V355.314H273.356V356.934H270.152V358.482H273.356V362.91C273.356 363.27 273.14 363.45 272.708 363.45C272.474 363.45 272.222 363.414 271.952 363.342L272.33 364.926H273.266C274.454 364.926 275.048 364.386 275.048 363.306V358.482H278.072V356.934H275.048V355.314H278.378V353.748H276.542C276.812 353.208 277.064 352.614 277.28 351.948L275.75 351.408C275.534 352.218 275.282 352.992 274.994 353.748H273.284C273.032 352.848 272.744 352.074 272.456 351.426L270.962 351.984C271.268 352.524 271.538 353.118 271.772 353.748H269.864ZM271.232 359.274C270.908 360.75 270.35 362.154 269.558 363.45L270.962 364.35C271.754 363 272.348 361.416 272.78 359.598L271.232 359.274ZM276.866 359.148L275.462 359.526C275.894 360.606 276.254 361.704 276.542 362.82L277.982 362.28C277.712 361.344 277.334 360.3 276.866 359.148ZM288.314 348.816V350.292H293.606V351.444H289.574V355.692H303.146V351.444H299.114V350.292H304.406V348.816H288.314ZM297.494 351.444H295.226V350.292H297.494V351.444ZM301.508 354.306H299.114V352.848H301.508V354.306ZM297.494 354.306H295.226V352.848H297.494V354.306ZM293.606 354.306H291.212V352.848H293.606V354.306ZM290.402 356.736V358.14H302.426V356.736H290.402ZM288.602 359.13V360.588H295.73V362.676C295.73 363.126 295.496 363.36 295.028 363.36C294.578 363.36 294.11 363.324 293.606 363.27L293.93 364.782H295.586C296.774 364.782 297.386 364.188 297.386 363.036V360.588H304.118V359.13H288.602ZM300.212 360.948L299.078 362.028C300.806 362.964 302.156 363.828 303.11 364.638L304.298 363.45C303.182 362.622 301.832 361.776 300.212 360.948ZM292.868 360.984C291.698 361.866 290.258 362.64 288.566 363.306L289.592 364.638C291.32 363.882 292.796 363 293.984 361.992L292.868 360.984ZM306.548 349.77V351.246H310.22V352.47H307.178V353.91H314.594V352.47H311.84V351.246H315.008V349.77H311.84V348.24H310.22V349.77H306.548ZM307.772 355.008V356.484H314.036V355.008H307.772ZM306.674 357.51V359.004H310.202V362.802C310.202 363.18 309.968 363.378 309.536 363.378C309.122 363.378 308.69 363.342 308.258 363.27L308.6 364.818H310.076C311.228 364.818 311.822 364.278 311.822 363.198V359.004H315.206V357.51H306.674ZM307.88 359.652C307.574 360.732 307.052 361.758 306.314 362.694L307.592 363.504C308.312 362.496 308.852 361.308 309.248 359.922L307.88 359.652ZM313.874 359.49L312.524 359.922C312.938 360.714 313.316 361.65 313.658 362.694L314.99 362.1C314.666 361.164 314.288 360.3 313.874 359.49ZM316.556 348.312C316.25 351.21 315.566 353.478 314.522 355.098L315.818 356.034C316.466 355.134 316.988 353.946 317.402 352.47H320.768C320.552 353.838 320.264 355.026 319.94 356.052L321.524 356.502C321.884 354.99 322.19 353.478 322.424 351.966V350.94H317.762C317.906 350.22 318.014 349.428 318.122 348.564L316.556 348.312ZM317.798 353.73C317.798 356.034 317.582 357.906 317.186 359.346C316.664 361.074 315.566 362.514 313.892 363.702L314.936 364.944C316.88 363.576 318.122 361.866 318.68 359.796C319.454 361.758 320.552 363.45 321.956 364.854L323.09 363.558C321.254 361.938 319.94 359.76 319.184 357.024C319.292 356.016 319.346 354.918 319.346 353.73H317.798ZM334.304 361.452C333.134 361.704 331.946 361.956 330.74 362.172V359.49H333.782V357.852H330.74V355.944H329.012V357.852H325.682V359.49H329.012V362.46C327.662 362.658 326.294 362.838 324.908 362.982L325.304 364.62C328.508 364.224 331.496 363.72 334.304 363.144V361.452ZM325.178 348.888V350.508H327.878C326.906 352.416 326.132 353.622 325.556 354.108C325.412 354.18 325.178 354.234 324.89 354.27L325.268 355.8C327.914 355.53 330.362 355.188 332.63 354.774C332.882 355.242 333.134 355.692 333.368 356.124L334.79 355.134C334.16 353.964 333.242 352.596 332.054 351.012L330.74 351.858C331.136 352.416 331.496 352.974 331.856 353.514C330.47 353.748 329.066 353.946 327.626 354.09C328.256 353.244 328.958 352.056 329.714 350.508H334.232V348.888H325.178ZM338.912 364.692C340.118 364.692 340.73 364.08 340.73 362.856V348.294H339.002V362.424C339.002 362.892 338.768 363.126 338.318 363.126C337.544 363.126 336.734 363.09 335.87 363.036L336.248 364.692H338.912ZM335.492 349.914V360.948H337.148V349.914H335.492ZM350.252 348.852H343.736V360.318H345.284V350.418H348.758V360.318H350.252V348.852ZM346.274 351.552V357.438C346.22 358.986 345.986 360.246 345.59 361.218C345.158 362.118 344.348 362.874 343.178 363.468L344.096 364.908C345.338 364.296 346.238 363.414 346.796 362.28C347.372 361.074 347.678 359.454 347.714 357.438V351.552H346.274ZM348.362 360.768L347.282 361.83C348.236 362.874 348.974 363.846 349.496 364.764L350.72 363.54C350.072 362.622 349.298 361.704 348.362 360.768ZM354.968 357.204C355.814 360.48 357.056 362.982 358.676 364.692L359.828 363.36C358.37 361.92 357.236 359.868 356.426 357.204H359.468V355.548H353.654V348.258H351.98V355.548H350.828V357.204H351.98V362.64C351.98 362.928 351.818 363.162 351.53 363.324L352.232 364.836C353.708 364.368 355.004 363.792 356.138 363.09L355.832 361.56C355.112 362.028 354.374 362.406 353.654 362.694V357.204H354.968ZM357.92 349.014C356.804 350.904 355.49 352.326 353.942 353.262L354.86 354.576C356.534 353.604 357.992 352.092 359.234 350.076L357.92 349.014ZM374.39 348.114L373.31 349.158C374.066 349.734 374.678 350.31 375.164 350.85H372.392C372.356 350.022 372.32 349.14 372.32 348.204H370.592C370.592 349.122 370.592 350.004 370.628 350.85H363.212V356.844C363.158 359.778 362.564 362.064 361.448 363.702L362.744 364.854C364.112 362.838 364.85 360.174 364.922 356.844V356.736H367.64C367.604 358.608 367.55 359.796 367.442 360.264C367.334 360.66 367.136 360.858 366.812 360.876C366.308 360.876 365.714 360.84 364.994 360.804L365.516 362.352C366.074 362.406 366.578 362.442 367.01 362.442C367.946 362.424 368.558 362.046 368.846 361.29C369.134 360.426 369.296 358.374 369.332 355.116H364.922V352.488H370.718C370.844 354.684 371.096 356.502 371.492 357.96C371.69 358.716 371.906 359.418 372.158 360.066C370.97 361.542 369.512 362.658 367.784 363.432L368.756 364.872C370.34 364.17 371.744 363.144 372.95 361.794C373.184 362.226 373.436 362.622 373.724 362.982C374.588 364.044 375.416 364.584 376.208 364.584C377.072 364.584 377.738 363.324 378.188 360.84L376.64 360.012C376.406 361.776 376.172 362.658 375.938 362.658C375.65 362.658 375.218 362.244 374.678 361.452C374.48 361.146 374.282 360.786 374.084 360.354C375.2 358.734 376.1 356.754 376.82 354.45L375.254 353.784C374.75 355.494 374.12 357.006 373.364 358.338C373.274 358.05 373.184 357.744 373.112 357.438C372.806 356.268 372.59 354.612 372.464 352.488H377.828V350.85H375.668L376.496 350.022C375.92 349.374 375.218 348.744 374.39 348.114ZM382.49 351.75V359.958C381.608 360.156 380.726 360.336 379.826 360.48L380.258 362.208C382.598 361.704 384.794 361.074 386.864 360.336V358.626C385.982 358.95 385.1 359.238 384.2 359.508V351.75H386.648V350.112H380.042V351.75H382.49ZM389.708 348.294V351.786H386.99V353.442H389.708V353.496C389.672 358.212 388.376 361.632 385.82 363.756L387.224 364.998C389.96 362.55 391.364 358.716 391.436 353.496V353.442H394.28C394.244 358.23 394.19 361.038 394.082 361.884C393.92 362.694 393.326 363.108 392.282 363.108C391.778 363.108 391.166 363.072 390.446 363.018L390.86 364.62C391.67 364.674 392.246 364.71 392.57 364.71C394.406 364.71 395.45 364.026 395.684 362.676C395.864 361.29 395.954 357.654 395.954 351.786H391.436V348.294H389.708Z" fill="#176BE8"/>
<path d="M4.176 109.148C3.744 109.616 3.204 110.03 2.556 110.426C1.908 110.786 1.314 111.038 0.738 111.182V113.126C1.926 112.784 2.916 112.244 3.69 111.506V122H5.652V109.148H4.176ZM12.9637 108.896C11.6857 108.896 10.6237 109.31 9.75966 110.156C8.89566 110.984 8.48166 112.028 8.48166 113.324C8.48166 114.584 8.84166 115.61 9.57966 116.402C10.3357 117.212 11.3617 117.626 12.6217 117.626C13.2877 117.626 13.8817 117.482 14.4037 117.23C14.9437 116.942 15.4117 116.528 15.7717 115.97H15.8437C15.8437 116.06 15.8617 116.132 15.8617 116.204C15.8617 117.446 15.5917 118.49 15.0877 119.318C14.5477 120.182 13.8457 120.632 12.9637 120.632C11.6677 120.632 10.8757 120.002 10.6237 118.76H8.71566C9.03966 121.082 10.4437 122.252 12.9457 122.252C14.4217 122.252 15.5917 121.586 16.4737 120.29C17.3197 118.994 17.7517 117.302 17.7517 115.214C17.7517 113.234 17.3377 111.704 16.5457 110.606C15.7177 109.454 14.5297 108.896 12.9637 108.896ZM13.0357 110.516C13.7917 110.516 14.4217 110.768 14.9077 111.272C15.3757 111.758 15.6277 112.424 15.6277 113.27C15.6277 114.098 15.3937 114.782 14.9257 115.286C14.4577 115.79 13.8097 116.042 13.0177 116.042C12.2077 116.042 11.5777 115.79 11.1277 115.286C10.6417 114.8 10.4077 114.152 10.4077 113.324C10.4077 112.496 10.6417 111.83 11.1277 111.308C11.5957 110.768 12.2437 110.516 13.0357 110.516ZM21.3086 112.766C20.9126 112.766 20.6066 112.892 20.3726 113.162C20.1026 113.414 19.9766 113.738 19.9766 114.116C19.9766 114.476 20.1026 114.8 20.3726 115.07C20.6066 115.322 20.9126 115.448 21.3086 115.448C21.6686 115.448 21.9926 115.322 22.2626 115.07C22.5146 114.8 22.6586 114.476 22.6586 114.116C22.6586 113.738 22.5146 113.414 22.2626 113.162C21.9926 112.892 21.6686 112.766 21.3086 112.766ZM21.3086 119.354C20.9126 119.354 20.6066 119.48 20.3726 119.75C20.1026 120.002 19.9766 120.326 19.9766 120.704C19.9766 121.064 20.1026 121.388 20.3726 121.658C20.6066 121.91 20.9126 122.036 21.3086 122.036C21.6686 122.036 21.9926 121.91 22.2626 121.658C22.5146 121.388 22.6586 121.064 22.6586 120.704C22.6586 120.326 22.5146 120.002 22.2626 119.75C21.9926 119.48 21.6686 119.354 21.3086 119.354ZM25.8349 109.148L25.1329 116.348H26.9689C27.2209 115.88 27.5629 115.538 28.0309 115.322C28.4629 115.106 28.9489 115.016 29.5249 115.016C30.3889 115.016 31.0369 115.268 31.5049 115.772C31.9729 116.276 32.2069 116.978 32.2069 117.878C32.2069 118.706 31.9369 119.354 31.3969 119.858C30.8569 120.344 30.1909 120.596 29.3989 120.596C28.6789 120.596 28.1029 120.434 27.6709 120.11C27.1849 119.75 26.8969 119.192 26.8249 118.472H24.8989C24.9889 119.66 25.4929 120.614 26.4109 121.298C27.2389 121.928 28.2289 122.252 29.3809 122.252C30.6589 122.252 31.7569 121.874 32.6749 121.118C33.6469 120.272 34.1509 119.192 34.1509 117.86C34.1509 116.474 33.7549 115.394 32.9989 114.602C32.2429 113.81 31.2529 113.414 30.0469 113.414C29.4709 113.414 28.9309 113.504 28.4629 113.702C27.9409 113.882 27.4909 114.17 27.0949 114.584H27.0409L27.4189 110.876H33.5749V109.148H25.8349ZM39.4539 109.148C39.0219 109.616 38.4819 110.03 37.8339 110.426C37.1859 110.786 36.5919 111.038 36.0159 111.182V113.126C37.2039 112.784 38.1939 112.244 38.9679 111.506V122H40.9299V109.148H39.4539ZM45.4335 112.766C45.0375 112.766 44.7315 112.892 44.4975 113.162C44.2275 113.414 44.1015 113.738 44.1015 114.116C44.1015 114.476 44.2275 114.8 44.4975 115.07C44.7315 115.322 45.0375 115.448 45.4335 115.448C45.7935 115.448 46.1175 115.322 46.3875 115.07C46.6395 114.8 46.7835 114.476 46.7835 114.116C46.7835 113.738 46.6395 113.414 46.3875 113.162C46.1175 112.892 45.7935 112.766 45.4335 112.766ZM45.4335 119.354C45.0375 119.354 44.7315 119.48 44.4975 119.75C44.2275 120.002 44.1015 120.326 44.1015 120.704C44.1015 121.064 44.2275 121.388 44.4975 121.658C44.7315 121.91 45.0375 122.036 45.4335 122.036C45.7935 122.036 46.1175 121.91 46.3875 121.658C46.6395 121.388 46.7835 121.064 46.7835 120.704C46.7835 120.326 46.6395 120.002 46.3875 119.75C46.1175 119.48 45.7935 119.354 45.4335 119.354ZM53.8478 108.896C52.4798 108.896 51.3638 109.346 50.5358 110.282C49.7258 111.146 49.3118 112.298 49.2938 113.738H51.2558C51.2918 112.694 51.5078 111.92 51.9398 111.38C52.3538 110.822 52.9658 110.552 53.7758 110.552C54.5318 110.552 55.1258 110.732 55.5218 111.092C55.9178 111.452 56.1158 111.992 56.1158 112.712C56.1158 113.468 55.8098 114.17 55.2338 114.818C54.8738 115.196 54.2618 115.682 53.3978 116.294C51.9398 117.302 50.9678 118.076 50.4998 118.634C49.6358 119.606 49.2218 120.722 49.2218 122H58.0778V120.272H51.6518C51.9218 119.57 52.7498 118.76 54.1358 117.842C55.4138 116.978 56.2958 116.294 56.7998 115.772C57.6278 114.854 58.0598 113.846 58.0598 112.73C58.0598 111.596 57.6638 110.678 56.8898 109.958C56.0978 109.238 55.0718 108.896 53.8478 108.896ZM64.8028 108.896C63.2908 108.896 62.1208 109.526 61.2928 110.804C60.5368 111.974 60.1588 113.558 60.1588 115.574C60.1588 117.572 60.5368 119.156 61.2928 120.344C62.1208 121.604 63.2908 122.252 64.8028 122.252C66.3148 122.252 67.4848 121.604 68.3128 120.344C69.0688 119.156 69.4468 117.554 69.4468 115.574C69.4468 113.576 69.0688 111.992 68.3128 110.804C67.4848 109.526 66.3148 108.896 64.8028 108.896ZM64.8028 110.552C65.8468 110.552 66.6028 111.128 67.0348 112.298C67.3408 113.09 67.5028 114.188 67.5028 115.574C67.5028 116.942 67.3408 118.04 67.0348 118.85C66.6028 120.002 65.8468 120.596 64.8028 120.596C63.7408 120.596 63.0028 120.002 62.5708 118.85C62.2468 118.04 62.1028 116.942 62.1028 115.574C62.1028 114.188 62.2468 113.09 62.5708 112.298C63.0028 111.128 63.7408 110.552 64.8028 110.552Z" fill="#4588ED"/>
<path d="M4.176 320.148C3.744 320.616 3.204 321.03 2.556 321.426C1.908 321.786 1.314 322.038 0.738 322.182V324.126C1.926 323.784 2.916 323.244 3.69 322.506V333H5.652V320.148H4.176ZM12.9637 319.896C11.6857 319.896 10.6237 320.31 9.75966 321.156C8.89566 321.984 8.48166 323.028 8.48166 324.324C8.48166 325.584 8.84166 326.61 9.57966 327.402C10.3357 328.212 11.3617 328.626 12.6217 328.626C13.2877 328.626 13.8817 328.482 14.4037 328.23C14.9437 327.942 15.4117 327.528 15.7717 326.97H15.8437C15.8437 327.06 15.8617 327.132 15.8617 327.204C15.8617 328.446 15.5917 329.49 15.0877 330.318C14.5477 331.182 13.8457 331.632 12.9637 331.632C11.6677 331.632 10.8757 331.002 10.6237 329.76H8.71566C9.03966 332.082 10.4437 333.252 12.9457 333.252C14.4217 333.252 15.5917 332.586 16.4737 331.29C17.3197 329.994 17.7517 328.302 17.7517 326.214C17.7517 324.234 17.3377 322.704 16.5457 321.606C15.7177 320.454 14.5297 319.896 12.9637 319.896ZM13.0357 321.516C13.7917 321.516 14.4217 321.768 14.9077 322.272C15.3757 322.758 15.6277 323.424 15.6277 324.27C15.6277 325.098 15.3937 325.782 14.9257 326.286C14.4577 326.79 13.8097 327.042 13.0177 327.042C12.2077 327.042 11.5777 326.79 11.1277 326.286C10.6417 325.8 10.4077 325.152 10.4077 324.324C10.4077 323.496 10.6417 322.83 11.1277 322.308C11.5957 321.768 12.2437 321.516 13.0357 321.516ZM21.3086 323.766C20.9126 323.766 20.6066 323.892 20.3726 324.162C20.1026 324.414 19.9766 324.738 19.9766 325.116C19.9766 325.476 20.1026 325.8 20.3726 326.07C20.6066 326.322 20.9126 326.448 21.3086 326.448C21.6686 326.448 21.9926 326.322 22.2626 326.07C22.5146 325.8 22.6586 325.476 22.6586 325.116C22.6586 324.738 22.5146 324.414 22.2626 324.162C21.9926 323.892 21.6686 323.766 21.3086 323.766ZM21.3086 330.354C20.9126 330.354 20.6066 330.48 20.3726 330.75C20.1026 331.002 19.9766 331.326 19.9766 331.704C19.9766 332.064 20.1026 332.388 20.3726 332.658C20.6066 332.91 20.9126 333.036 21.3086 333.036C21.6686 333.036 21.9926 332.91 22.2626 332.658C22.5146 332.388 22.6586 332.064 22.6586 331.704C22.6586 331.326 22.5146 331.002 22.2626 330.75C21.9926 330.48 21.6686 330.354 21.3086 330.354ZM25.8349 320.148L25.1329 327.348H26.9689C27.2209 326.88 27.5629 326.538 28.0309 326.322C28.4629 326.106 28.9489 326.016 29.5249 326.016C30.3889 326.016 31.0369 326.268 31.5049 326.772C31.9729 327.276 32.2069 327.978 32.2069 328.878C32.2069 329.706 31.9369 330.354 31.3969 330.858C30.8569 331.344 30.1909 331.596 29.3989 331.596C28.6789 331.596 28.1029 331.434 27.6709 331.11C27.1849 330.75 26.8969 330.192 26.8249 329.472H24.8989C24.9889 330.66 25.4929 331.614 26.4109 332.298C27.2389 332.928 28.2289 333.252 29.3809 333.252C30.6589 333.252 31.7569 332.874 32.6749 332.118C33.6469 331.272 34.1509 330.192 34.1509 328.86C34.1509 327.474 33.7549 326.394 32.9989 325.602C32.2429 324.81 31.2529 324.414 30.0469 324.414C29.4709 324.414 28.9309 324.504 28.4629 324.702C27.9409 324.882 27.4909 325.17 27.0949 325.584H27.0409L27.4189 321.876H33.5749V320.148H25.8349ZM39.4539 320.148C39.0219 320.616 38.4819 321.03 37.8339 321.426C37.1859 321.786 36.5919 322.038 36.0159 322.182V324.126C37.2039 323.784 38.1939 323.244 38.9679 322.506V333H40.9299V320.148H39.4539ZM45.4335 323.766C45.0375 323.766 44.7315 323.892 44.4975 324.162C44.2275 324.414 44.1015 324.738 44.1015 325.116C44.1015 325.476 44.2275 325.8 44.4975 326.07C44.7315 326.322 45.0375 326.448 45.4335 326.448C45.7935 326.448 46.1175 326.322 46.3875 326.07C46.6395 325.8 46.7835 325.476 46.7835 325.116C46.7835 324.738 46.6395 324.414 46.3875 324.162C46.1175 323.892 45.7935 323.766 45.4335 323.766ZM45.4335 330.354C45.0375 330.354 44.7315 330.48 44.4975 330.75C44.2275 331.002 44.1015 331.326 44.1015 331.704C44.1015 332.064 44.2275 332.388 44.4975 332.658C44.7315 332.91 45.0375 333.036 45.4335 333.036C45.7935 333.036 46.1175 332.91 46.3875 332.658C46.6395 332.388 46.7835 332.064 46.7835 331.704C46.7835 331.326 46.6395 331.002 46.3875 330.75C46.1175 330.48 45.7935 330.354 45.4335 330.354ZM53.8478 319.896C52.4798 319.896 51.3638 320.346 50.5358 321.282C49.7258 322.146 49.3118 323.298 49.2938 324.738H51.2558C51.2918 323.694 51.5078 322.92 51.9398 322.38C52.3538 321.822 52.9658 321.552 53.7758 321.552C54.5318 321.552 55.1258 321.732 55.5218 322.092C55.9178 322.452 56.1158 322.992 56.1158 323.712C56.1158 324.468 55.8098 325.17 55.2338 325.818C54.8738 326.196 54.2618 326.682 53.3978 327.294C51.9398 328.302 50.9678 329.076 50.4998 329.634C49.6358 330.606 49.2218 331.722 49.2218 333H58.0778V331.272H51.6518C51.9218 330.57 52.7498 329.76 54.1358 328.842C55.4138 327.978 56.2958 327.294 56.7998 326.772C57.6278 325.854 58.0598 324.846 58.0598 323.73C58.0598 322.596 57.6638 321.678 56.8898 320.958C56.0978 320.238 55.0718 319.896 53.8478 319.896ZM64.6588 319.896C63.3808 319.896 62.3188 320.31 61.4548 321.156C60.5908 321.984 60.1768 323.028 60.1768 324.324C60.1768 325.584 60.5368 326.61 61.2748 327.402C62.0308 328.212 63.0568 328.626 64.3168 328.626C64.9828 328.626 65.5768 328.482 66.0988 328.23C66.6388 327.942 67.1068 327.528 67.4668 326.97H67.5388C67.5388 327.06 67.5568 327.132 67.5568 327.204C67.5568 328.446 67.2868 329.49 66.7828 330.318C66.2428 331.182 65.5408 331.632 64.6588 331.632C63.3628 331.632 62.5708 331.002 62.3188 329.76H60.4108C60.7348 332.082 62.1388 333.252 64.6408 333.252C66.1168 333.252 67.2868 332.586 68.1688 331.29C69.0148 329.994 69.4468 328.302 69.4468 326.214C69.4468 324.234 69.0328 322.704 68.2408 321.606C67.4128 320.454 66.2248 319.896 64.6588 319.896ZM64.7308 321.516C65.4868 321.516 66.1168 321.768 66.6028 322.272C67.0708 322.758 67.3228 323.424 67.3228 324.27C67.3228 325.098 67.0888 325.782 66.6208 326.286C66.1528 326.79 65.5048 327.042 64.7128 327.042C63.9028 327.042 63.2728 326.79 62.8228 326.286C62.3368 325.8 62.1028 325.152 62.1028 324.324C62.1028 323.496 62.3368 322.83 62.8228 322.308C63.2908 321.768 63.9388 321.516 64.7308 321.516Z" fill="#4588ED"/>
<path d="M157.513 78.424H151.833V88.616H153.193V79.816H156.169V88.616H157.513V83.16L158.249 84.104C158.857 83.336 159.385 82.472 159.833 81.528H164.073C164.041 86.328 163.993 89.128 163.897 89.96C163.801 90.76 163.465 91.16 162.905 91.16C162.201 91.16 161.385 91.128 160.457 91.08L160.809 92.44C161.913 92.472 162.681 92.504 163.129 92.504C164.441 92.504 165.161 91.832 165.321 90.52C165.481 89.208 165.561 85.72 165.561 80.056H160.409C160.617 79.416 160.793 78.728 160.921 78.024L159.449 77.832C159.097 79.688 158.457 81.288 157.513 82.632V78.424ZM162.297 84.952L161.145 85.512C161.369 86.088 161.577 86.712 161.785 87.384C161.113 87.544 160.393 87.672 159.641 87.752C160.249 86.504 160.873 84.984 161.481 83.176L160.105 82.712C159.193 85.896 158.473 87.624 157.961 87.88L158.201 89.192C159.625 89.048 160.937 88.84 162.153 88.584C162.249 88.936 162.361 89.304 162.457 89.688L163.689 89.064C163.241 87.576 162.777 86.2 162.297 84.952ZM154.041 80.824V86.072C153.993 87.448 153.785 88.568 153.433 89.432C153.065 90.232 152.361 90.888 151.337 91.416L152.137 92.68C153.225 92.136 154.009 91.352 154.489 90.36C154.985 89.304 155.257 87.864 155.289 86.072V80.824H154.041ZM155.977 89.016L155.017 89.96C155.913 90.888 156.617 91.752 157.097 92.552L158.201 91.48C157.593 90.664 156.841 89.848 155.977 89.016ZM167.849 78.392V79.704H172.553V80.728H168.969V84.504H181.033V80.728H177.449V79.704H182.153V78.392H167.849ZM176.009 80.728H173.993V79.704H176.009V80.728ZM179.577 83.272H177.449V81.976H179.577V83.272ZM176.009 83.272H173.993V81.976H176.009V83.272ZM172.553 83.272H170.425V81.976H172.553V83.272ZM169.705 85.432V86.68H180.393V85.432H169.705ZM168.105 87.56V88.856H174.441V90.712C174.441 91.112 174.233 91.32 173.817 91.32C173.417 91.32 173.001 91.288 172.553 91.24L172.841 92.584H174.313C175.369 92.584 175.913 92.056 175.913 91.032V88.856H181.897V87.56H168.105ZM178.425 89.176L177.417 90.136C178.953 90.968 180.153 91.736 181.001 92.456L182.057 91.4C181.065 90.664 179.865 89.912 178.425 89.176ZM171.897 89.208C170.857 89.992 169.577 90.68 168.073 91.272L168.985 92.456C170.521 91.784 171.833 91 172.889 90.104L171.897 89.208ZM195.401 77.768L194.441 78.696C195.113 79.208 195.657 79.72 196.089 80.2H193.625C193.593 79.464 193.561 78.68 193.561 77.848H192.025C192.025 78.664 192.025 79.448 192.057 80.2H185.465V85.528C185.417 88.136 184.889 90.168 183.897 91.624L185.049 92.648C186.265 90.856 186.921 88.488 186.985 85.528V85.432H189.401C189.369 87.096 189.321 88.152 189.225 88.568C189.129 88.92 188.953 89.096 188.665 89.112C188.217 89.112 187.689 89.08 187.049 89.048L187.513 90.424C188.009 90.472 188.457 90.504 188.841 90.504C189.673 90.488 190.217 90.152 190.473 89.48C190.729 88.712 190.873 86.888 190.905 83.992H186.985V81.656H192.137C192.249 83.608 192.473 85.224 192.825 86.52C193.001 87.192 193.193 87.816 193.417 88.392C192.361 89.704 191.065 90.696 189.529 91.384L190.393 92.664C191.801 92.04 193.049 91.128 194.121 89.928C194.329 90.312 194.553 90.664 194.809 90.984C195.577 91.928 196.313 92.408 197.017 92.408C197.785 92.408 198.377 91.288 198.777 89.08L197.401 88.344C197.193 89.912 196.985 90.696 196.777 90.696C196.521 90.696 196.137 90.328 195.657 89.624C195.481 89.352 195.305 89.032 195.129 88.648C196.121 87.208 196.921 85.448 197.561 83.4L196.169 82.808C195.721 84.328 195.161 85.672 194.489 86.856C194.409 86.6 194.329 86.328 194.265 86.056C193.993 85.016 193.801 83.544 193.689 81.656H198.457V80.2H196.537L197.273 79.464C196.761 78.888 196.137 78.328 195.401 77.768ZM202.601 81V88.296C201.817 88.472 201.033 88.632 200.233 88.76L200.617 90.296C202.697 89.848 204.649 89.288 206.489 88.632V87.112C205.705 87.4 204.921 87.656 204.121 87.896V81H206.297V79.544H200.425V81H202.601ZM209.017 77.928V81.032H206.601V82.504H209.017V82.552C208.985 86.744 207.833 89.784 205.561 91.672L206.809 92.776C209.241 90.6 210.489 87.192 210.553 82.552V82.504H213.081C213.049 86.76 213.001 89.256 212.905 90.008C212.761 90.728 212.233 91.096 211.305 91.096C210.857 91.096 210.313 91.064 209.673 91.016L210.041 92.44C210.761 92.488 211.273 92.52 211.561 92.52C213.193 92.52 214.121 91.912 214.329 90.712C214.489 89.48 214.569 86.248 214.569 81.032H210.553V77.928H209.017Z" fill="#4F7BEC"/>
<defs>
<filter id="filter0_d" x="114" y="223" width="411" height="194" filterUnits="userSpaceOnUse" color-interpolation-filters="sRGB">
<feFlood flood-opacity="0" result="BackgroundImageFix"/>
<feColorMatrix in="SourceAlpha" type="matrix" values="0 0 0 0 0 0 0 0 0 0 0 0 0 0 0 0 0 0 127 0"/>
<feOffset dy="2"/>
<feGaussianBlur stdDeviation="6"/>
<feColorMatrix type="matrix" values="0 0 0 0 0 0 0 0 0 0 0 0 0 0 0 0 0 0 0.1 0"/>
<feBlend mode="normal" in2="BackgroundImageFix" result="effect1_dropShadow"/>
<feBlend mode="normal" in="SourceGraphic" in2="effect1_dropShadow" result="shape"/>
</filter>
<filter id="filter1_d" x="111.239" y="0.429168" width="368.522" height="196.817" filterUnits="userSpaceOnUse" color-interpolation-filters="sRGB">
<feFlood flood-opacity="0" result="BackgroundImageFix"/>
<feColorMatrix in="SourceAlpha" type="matrix" values="0 0 0 0 0 0 0 0 0 0 0 0 0 0 0 0 0 0 127 0"/>
<feOffset dy="3.19028"/>
<feGaussianBlur stdDeviation="6.38055"/>
<feColorMatrix type="matrix" values="0 0 0 0 0 0 0 0 0 0 0 0 0 0 0 0 0 0 0.08 0"/>
<feBlend mode="normal" in2="BackgroundImageFix" result="effect1_dropShadow"/>
<feBlend mode="normal" in="SourceGraphic" in2="effect1_dropShadow" result="shape"/>
</filter>
<filter id="filter2_d" x="113.631" y="39.5102" width="354.918" height="157.919" filterUnits="userSpaceOnUse" color-interpolation-filters="sRGB">
<feFlood flood-opacity="0" result="BackgroundImageFix"/>
<feColorMatrix in="SourceAlpha" type="matrix" values="0 0 0 0 0 0 0 0 0 0 0 0 0 0 0 0 0 0 127 0"/>
<feOffset dy="3.19028"/>
<feGaussianBlur stdDeviation="6.38055"/>
<feColorMatrix type="matrix" values="0 0 0 0 0 0 0 0 0 0 0 0 0 0 0 0 0 0 0.08 0"/>
<feBlend mode="normal" in2="BackgroundImageFix" result="effect1_dropShadow"/>
<feBlend mode="normal" in="SourceGraphic" in2="effect1_dropShadow" result="shape"/>
</filter>
<clipPath id="clip0">
<rect width="20" height="20" fill="white" transform="translate(241 347)"/>
</clipPath>
</defs>
</svg>
