<svg width="494" height="443" viewBox="0 0 494 443" fill="none" xmlns="http://www.w3.org/2000/svg">
<g filter="url(#filter0_d)">
<rect x="54" y="12" width="285" height="411" rx="16" fill="#FCFCFC"/>
<rect x="54.5" y="12.5" width="284" height="410" rx="15.5" stroke="#F3F3F3"/>
</g>
<path d="M160.224 35.424V36.88H164.656V38.96H161.248V45.648H162.768V44.864H168.224V45.632H169.728V38.96H166.208V36.88H170.672V35.424H166.208V33.088C167.648 32.88 168.912 32.576 170.016 32.192L169.264 30.912C166.896 31.68 163.984 32.064 160.512 32.064L160.992 33.424C162.288 33.424 163.504 33.36 164.656 33.264V35.424H160.224ZM162.768 43.44V40.384H168.224V43.44H162.768ZM157.52 31.04L156.48 32.016C157.648 32.784 158.56 33.504 159.2 34.16L160.24 33.136C159.488 32.432 158.576 31.728 157.52 31.04ZM157.152 34.848L156.08 35.888C157.264 36.736 158.192 37.52 158.848 38.256L159.904 37.2C159.168 36.416 158.24 35.632 157.152 34.848ZM158.704 39.152C158.048 41.072 157.264 42.944 156.352 44.784L157.872 45.456C158.672 43.664 159.424 41.744 160.096 39.696L158.704 39.152ZM173.04 31.872V33.328H178.992V31.872H173.04ZM172.448 36.192V37.664H174.496C173.76 40.352 173.184 42 172.752 42.624C172.688 42.672 172.592 42.72 172.432 42.752L172.8 44.192C174.752 43.84 176.56 43.376 178.24 42.8L178.656 43.824L179.968 43.152C179.296 41.536 178.592 40.048 177.856 38.704L176.576 39.328C176.944 40.016 177.312 40.752 177.68 41.536C176.608 41.936 175.536 42.256 174.48 42.48C174.896 41.456 175.392 39.856 175.968 37.664H179.568V36.192H172.448ZM181.744 30.928V34.032H179.712V35.504H181.744V35.648C181.712 39.824 180.72 42.848 178.784 44.736L179.92 45.744C182.096 43.616 183.2 40.256 183.248 35.648V35.504H185.232C185.2 39.76 185.152 42.272 185.056 43.024C184.928 43.792 184.528 44.176 183.824 44.176C183.408 44.176 182.912 44.144 182.336 44.096L182.688 45.44C183.328 45.472 183.776 45.504 184.032 45.504C185.488 45.504 186.304 44.896 186.48 43.68C186.624 42.464 186.704 39.248 186.704 34.032H183.248V30.928H181.744ZM191.072 36.56H193.312V38.896H191.072V36.56ZM193.312 35.2H191.072V32.832H193.312V35.2ZM191.04 40.272H193.312V43.488C193.312 44.048 193.136 44.336 192.8 44.336C192.416 44.336 192.016 44.304 191.568 44.256L191.936 45.6H193.216C194.192 45.6 194.688 45.056 194.688 43.968V31.456H189.712V39.312C189.696 41.472 189.376 43.248 188.736 44.64L189.888 45.68C190.544 44.256 190.928 42.448 191.04 40.272ZM197.2 38.688H197.408C197.76 40.176 198.4 41.52 199.328 42.704C198.736 43.376 198.032 43.952 197.2 44.4V38.688ZM197.2 44.448L197.984 45.632C198.88 45.152 199.664 44.544 200.32 43.808C200.992 44.464 201.792 45.072 202.704 45.616L203.456 44.336C202.592 43.824 201.824 43.264 201.168 42.64C201.84 41.536 202.32 40.192 202.608 38.624V37.344H197.2V32.832H201.04C201.008 33.904 200.944 34.576 200.848 34.848C200.752 35.072 200.624 35.216 200.464 35.264C200.304 35.312 200.048 35.344 199.712 35.344C199.264 35.344 198.912 35.328 198.656 35.328L199.056 36.608H200.4C201.424 36.608 202.032 36.272 202.224 35.6C202.416 34.912 202.512 33.536 202.512 31.456H195.776V45.664H197.2V44.448ZM198.704 38.688H201.264C201.008 39.744 200.64 40.688 200.16 41.52C199.504 40.672 199.024 39.728 198.704 38.688ZM209.616 30.816C208.96 32.368 207.696 33.68 205.824 34.752L206.752 35.968C207.408 35.568 208 35.136 208.544 34.672C209.2 35.216 209.904 35.728 210.672 36.176C209.008 36.8 207.088 37.248 204.944 37.52L205.648 38.944C208.176 38.56 210.416 37.936 212.336 37.072C214.32 38.016 216.56 38.624 219.04 38.912L219.728 37.488C217.616 37.296 215.712 36.864 214 36.224C215.36 35.424 216.528 34.464 217.488 33.36V32.128H210.64C210.832 31.792 211.008 31.424 211.168 31.04L209.616 30.816ZM212.32 35.472C211.312 34.96 210.384 34.352 209.552 33.664C209.568 33.632 209.6 33.6 209.648 33.552H215.264C214.4 34.288 213.424 34.928 212.32 35.472ZM211.168 38.048C211.168 38.624 211.104 39.168 211.008 39.68H206.048V41.04H210.544C210.448 41.248 210.32 41.456 210.192 41.664C209.392 42.768 207.68 43.696 205.072 44.464L206.08 45.696C209.04 44.752 210.912 43.568 211.712 42.128C211.904 41.792 212.064 41.424 212.208 41.04H216.544C216.496 42.448 216.368 43.328 216.16 43.664C215.952 43.984 215.44 44.16 214.624 44.176C214.112 44.144 213.44 44.112 212.608 44.08L212.992 45.456C213.76 45.504 214.432 45.536 214.976 45.536C216.096 45.536 216.896 45.248 217.344 44.704C217.792 44.16 218.032 42.48 218.064 39.68H212.544C212.624 39.168 212.672 38.624 212.672 38.048H211.168ZM223.776 31.36V35.968H233.504V31.36H223.776ZM231.968 34.608H225.312V32.72H231.968V34.608ZM224.896 38.48L224.144 41.392H232.176C232.08 42.608 231.952 43.392 231.776 43.712C231.584 44.032 231.072 44.192 230.272 44.192C229.6 44.192 228.848 44.144 227.984 44.064L228.496 45.44C229.12 45.52 229.824 45.568 230.608 45.568C231.76 45.568 232.544 45.312 232.944 44.816C233.344 44.32 233.6 42.72 233.728 40.016H225.952L226.416 38.48H235.904V37.024H221.36V38.48H224.896Z" fill="#444444"/>
<path fill-rule="evenodd" clip-rule="evenodd" d="M302 46V45.3155C302 44.6304 302.498 43.8319 303.114 43.5313L308.774 40.7691C309.595 40.3685 309.786 39.4813 309.193 38.7786L308.832 38.3501C308.096 37.4783 307.5 35.8495 307.5 34.7093V32.9996C307.5 30.7907 309.295 29 311.5 29C313.709 29 315.5 30.793 315.5 33.0002V34.7102C315.5 35.8493 314.901 37.4829 314.168 38.3516L313.807 38.7801C313.217 39.479 313.401 40.3684 314.226 40.7705L319.886 43.5316C320.501 43.8317 321 44.6252 321 45.3155V46C321 46.5523 320.552 47 320 47H303C302.448 47 302 46.5523 302 46Z" fill="#D6D6D6"/>
<g filter="url(#filter1_d)">
<rect x="8" y="79" width="230" height="246" rx="8" fill="white"/>
</g>
<path d="M26.864 98.424V99.88H31.296V101.96H27.888V108.648H29.408V107.864H34.864V108.632H36.368V101.96H32.848V99.88H37.312V98.424H32.848V96.088C34.288 95.88 35.552 95.576 36.656 95.192L35.904 93.912C33.536 94.68 30.624 95.064 27.152 95.064L27.632 96.424C28.928 96.424 30.144 96.36 31.296 96.264V98.424H26.864ZM29.408 106.44V103.384H34.864V106.44H29.408ZM24.16 94.04L23.12 95.016C24.288 95.784 25.2 96.504 25.84 97.16L26.88 96.136C26.128 95.432 25.216 94.728 24.16 94.04ZM23.792 97.848L22.72 98.888C23.904 99.736 24.832 100.52 25.488 101.256L26.544 100.2C25.808 99.416 24.88 98.632 23.792 97.848ZM25.344 102.152C24.688 104.072 23.904 105.944 22.992 107.784L24.512 108.456C25.312 106.664 26.064 104.744 26.736 102.696L25.344 102.152ZM39.68 94.872V96.328H45.632V94.872H39.68ZM39.088 99.192V100.664H41.136C40.4 103.352 39.824 105 39.392 105.624C39.328 105.672 39.232 105.72 39.072 105.752L39.44 107.192C41.392 106.84 43.2 106.376 44.88 105.8L45.296 106.824L46.608 106.152C45.936 104.536 45.232 103.048 44.496 101.704L43.216 102.328C43.584 103.016 43.952 103.752 44.32 104.536C43.248 104.936 42.176 105.256 41.12 105.48C41.536 104.456 42.032 102.856 42.608 100.664H46.208V99.192H39.088ZM48.384 93.928V97.032H46.352V98.504H48.384V98.648C48.352 102.824 47.36 105.848 45.424 107.736L46.56 108.744C48.736 106.616 49.84 103.256 49.888 98.648V98.504H51.872C51.84 102.76 51.792 105.272 51.696 106.024C51.568 106.792 51.168 107.176 50.464 107.176C50.048 107.176 49.552 107.144 48.976 107.096L49.328 108.44C49.968 108.472 50.416 108.504 50.672 108.504C52.128 108.504 52.944 107.896 53.12 106.68C53.264 105.464 53.344 102.248 53.344 97.032H49.888V93.928H48.384ZM60.816 94.52V95.944H64.448V101.64H60.368V103.08H64.448V108.648H65.92V103.08H70.064V101.64H65.92V95.944H69.584V94.52H60.816ZM67.92 96.568C67.568 98.152 67.168 99.464 66.72 100.504L68 100.952C68.512 99.8 68.928 98.456 69.248 96.92L67.92 96.568ZM62.288 96.632L60.992 97.048C61.472 98.296 61.872 99.608 62.176 100.984L63.472 100.664C63.12 99.144 62.736 97.8 62.288 96.632ZM57.408 94.008L56.352 95.048C57.488 95.88 58.368 96.68 59.008 97.432L60.048 96.376C59.328 95.576 58.448 94.792 57.408 94.008ZM55.248 98.648V100.104H57.488V105.992C57.488 106.312 57.344 106.584 57.088 106.808L57.664 108.184C58.752 107.448 59.792 106.6 60.752 105.656L60.336 104.056C59.84 104.536 59.376 104.984 58.944 105.384V98.648H55.248ZM73.456 100.008V108.568H74.992V97.48C75.472 96.52 75.872 95.528 76.192 94.488L74.768 93.816C74.064 96.248 72.96 98.376 71.472 100.2L71.984 101.832C72.496 101.256 72.992 100.648 73.456 100.008ZM82.048 99.528V108.504H83.52V99.528H82.048ZM78.016 99.576V101.944C77.984 104.6 77.312 106.52 76 107.72L77.136 108.712C78.672 107.288 79.456 105.032 79.488 101.944V99.576H78.016ZM80.032 93.96C78.912 96.264 77.312 98.136 75.232 99.576L76.08 100.872C77.952 99.592 79.504 97.768 80.72 95.416C81.792 97.512 83.424 99.272 85.6 100.712L86.448 99.416C84.08 97.848 82.4 96.04 81.424 93.96H80.032ZM89.904 108.504C90.944 108.504 91.472 107.976 91.472 106.952V102.472C91.872 102.28 92.272 102.072 92.688 101.864V100.312C92.288 100.536 91.888 100.744 91.472 100.936V98.28H92.96V96.824H91.472V93.928H89.936V96.824H88.128V98.28H89.936V101.576C89.264 101.816 88.592 102.024 87.904 102.184L88.272 103.72C88.832 103.528 89.392 103.336 89.936 103.128V106.552C89.936 106.92 89.744 107.112 89.376 107.112C88.992 107.112 88.576 107.08 88.16 107.032L88.496 108.504H89.904ZM94.048 94.376V100.152H101.248V94.376H94.048ZM99.76 98.92H95.52V97.832H99.76V98.92ZM95.52 96.68V95.608H99.76V96.68H95.52ZM93.008 100.984V102.344H96.912V106.52L96.768 106.472C96.144 106.216 95.6 105.608 95.12 104.68C95.232 104.152 95.312 103.608 95.344 103.032L94 102.872C93.872 104.632 93.232 106.216 92.08 107.656L93.216 108.632C93.808 107.88 94.288 107.064 94.656 106.184C95.104 106.92 95.616 107.432 96.176 107.72C96.96 108.104 98.416 108.296 100.544 108.312C101.056 108.328 101.616 108.344 102.24 108.344L102.656 106.872C102.048 106.936 101.312 106.968 100.448 106.968C99.648 106.968 98.96 106.92 98.368 106.856V105.16H101.52V103.816H98.368V102.344H102.208V100.984H93.008ZM105.936 105.08H109.472V106.488H105.936V105.08ZM109.472 107.768V108.536H110.656V103.576L111.504 104.68C111.952 104.136 112.32 103.528 112.64 102.856H114.432V104.2H112.112V105.512H114.432V106.92H111.264V108.344H118.912V106.92H115.888V105.512H118.16V104.2H115.888V102.856H118.512V101.528H115.888V100.408H114.432V101.528H113.136C113.232 101.208 113.312 100.856 113.392 100.488L112.08 100.344C111.824 101.592 111.344 102.664 110.656 103.544V97.384H109.2V95.752H110.944V94.44H104.304V95.752H106.192V97.384H104.736V108.552H105.936V107.768H109.472ZM108.048 97.384H107.344V95.752H108.048V97.384ZM109.472 103.88H105.936V102.872L106.4 103.288C107.072 102.504 107.408 101.256 107.424 99.56V98.632H108.016V101.688C108.016 102.28 108.272 102.584 108.816 102.584H109.472V103.88ZM108.848 98.632H109.472V101.656H109.056C108.912 101.656 108.848 101.576 108.848 101.448V98.632ZM105.936 102.504V98.632H106.608V99.56C106.592 100.84 106.368 101.832 105.936 102.504ZM111.616 94.408V100.024H118.32V94.408H111.616ZM116.896 98.824H113.024V97.816H116.896V98.824ZM113.024 96.632V95.608H116.896V96.632H113.024Z" fill="#176BE8"/>
<path d="M28.984 127.868C29.584 127.868 29.896 127.532 29.896 126.872V123.62H29.032V126.668C29.032 126.968 28.912 127.124 28.696 127.124C28.432 127.124 28.144 127.1 27.844 127.064L28.024 127.868H28.984ZM24.064 124.424V127.88H24.904V123.296C25.288 122.708 25.636 122.06 25.948 121.364L25.108 121.184C24.412 122.708 23.524 123.944 22.444 124.88L22.984 125.54C23.356 125.204 23.716 124.832 24.064 124.424ZM27.808 121.172C27.244 122.432 26.512 123.452 25.612 124.244L26.14 124.892C26.716 124.364 27.244 123.764 27.7 123.068H32.128C31.996 123.548 31.828 123.98 31.624 124.376L32.404 124.58C32.644 124.004 32.836 123.416 32.992 122.816V122.276H28.18C28.324 121.988 28.48 121.676 28.624 121.352L27.808 121.172ZM23.86 128.492C23.62 129.476 23.26 130.388 22.756 131.204L23.488 131.672C24.004 130.82 24.4 129.812 24.688 128.66L23.86 128.492ZM29.764 132.02C30.196 132.02 30.52 131.924 30.724 131.732C30.964 131.504 31.12 130.868 31.204 129.812L30.388 129.548C30.34 130.34 30.256 130.82 30.112 130.988C30.004 131.132 29.836 131.204 29.596 131.204H26.956C26.62 131.204 26.464 131.024 26.464 130.688V128.336H25.588V130.868C25.588 131.636 25.948 132.02 26.692 132.02H29.764ZM31.804 128.12L31.096 128.552C31.828 129.584 32.416 130.532 32.848 131.396L33.556 130.892C33.148 130.1 32.572 129.176 31.804 128.12ZM27.484 124.772C27.052 125.636 26.536 126.392 25.936 127.04L26.596 127.496C27.196 126.824 27.724 126.02 28.18 125.096L27.484 124.772ZM31.468 124.76L30.736 125.072C31.288 125.792 31.804 126.608 32.26 127.544L32.992 127.172C32.548 126.284 32.044 125.48 31.468 124.76ZM28.084 128.012L27.412 128.432C27.988 129.104 28.444 129.728 28.78 130.28L29.452 129.812C29.14 129.296 28.684 128.696 28.084 128.012ZM44.26 126.632V121.832H35.38V122.672H43.384V125.804H36.724V124.028H35.86V130.328C35.86 131.312 36.34 131.816 37.312 131.816H43.816C44.32 131.792 44.716 131.66 44.98 131.408C45.268 131.096 45.472 130.208 45.592 128.72L44.752 128.456C44.68 129.776 44.524 130.544 44.284 130.76C44.104 130.904 43.864 130.976 43.576 130.976H37.552C37 130.976 36.724 130.7 36.724 130.172V126.632H44.26ZM55.408 121.16L54.856 121.688C55.468 122.156 55.948 122.6 56.308 123.032H54.064C54.04 122.456 54.028 121.844 54.028 121.172H53.14C53.14 121.82 53.152 122.432 53.176 123.032H48.22V127.028C48.184 128.984 47.788 130.508 47.02 131.612L47.68 132.2C48.568 130.904 49.048 129.176 49.096 127.028V126.668H51.172C51.148 127.988 51.112 128.852 51.04 129.26C50.968 129.596 50.8 129.776 50.536 129.788C50.212 129.788 49.816 129.776 49.348 129.752L49.612 130.532C49.996 130.556 50.344 130.58 50.632 130.58C51.232 130.556 51.604 130.292 51.76 129.776C51.916 129.188 52.012 127.88 52.036 125.852H49.096V123.86H53.212C53.308 125.36 53.476 126.62 53.74 127.628C53.872 128.144 54.028 128.624 54.196 129.068C53.368 130.112 52.348 130.904 51.148 131.444L51.628 132.164C52.756 131.66 53.74 130.928 54.58 129.944C54.76 130.316 54.964 130.652 55.18 130.94C55.756 131.66 56.296 132.02 56.8 132.02C57.34 132.02 57.748 131.216 58.036 129.62L57.256 129.188C57.076 130.424 56.872 131.048 56.656 131.06C56.416 131.06 56.092 130.772 55.696 130.196C55.504 129.92 55.324 129.584 55.156 129.2C55.924 128.12 56.548 126.776 57.028 125.192L56.248 124.856C55.876 126.14 55.396 127.268 54.796 128.228C54.712 127.964 54.628 127.688 54.556 127.388C54.34 126.524 54.184 125.348 54.1 123.86H57.796V123.032H56.332L56.884 122.48C56.476 122.036 55.984 121.592 55.408 121.16ZM61.072 123.368V129.116C60.46 129.26 59.836 129.392 59.212 129.5L59.428 130.364C60.988 130.028 62.452 129.62 63.82 129.116V128.252C63.208 128.492 62.584 128.696 61.948 128.876V123.368H63.676V122.54H59.344V123.368H61.072ZM65.884 121.232V123.656H63.976V124.496H65.884C65.836 127.76 64.948 130.148 63.196 131.636L63.904 132.248C65.752 130.604 66.712 128.024 66.772 124.496H68.968C68.944 127.7 68.896 129.62 68.824 130.244C68.704 130.928 68.248 131.276 67.468 131.276C67.132 131.276 66.748 131.264 66.304 131.24L66.508 132.044C67.024 132.068 67.384 132.092 67.6 132.092C68.812 132.092 69.496 131.588 69.64 130.604C69.76 129.716 69.82 127.4 69.82 123.656H66.772V121.232H65.884ZM71.704 124.796V125.588H75.016C74.164 126.344 72.976 126.944 71.464 127.388L71.86 128.156C73.732 127.484 75.136 126.632 76.072 125.588H78.244C79.012 126.62 80.296 127.448 82.096 128.096L82.468 127.304C80.98 126.884 79.876 126.308 79.156 125.588H82.144V124.796H76.672C76.864 124.472 77.032 124.136 77.164 123.788C78.088 123.74 78.988 123.68 79.852 123.632C80.152 123.92 80.428 124.196 80.668 124.484L81.388 123.98C80.764 123.296 79.852 122.492 78.664 121.568L78.004 121.988C78.4 122.312 78.772 122.624 79.12 122.936C77.68 123.032 76.168 123.116 74.56 123.164C75.244 122.72 75.94 122.144 76.636 121.424L75.796 121.136C74.608 122.312 73.624 122.996 72.844 123.188L72.976 123.944C74.116 123.908 75.22 123.872 76.288 123.824C76.156 124.16 75.976 124.484 75.748 124.796H71.704ZM76.996 126.008C76.264 126.896 75.112 127.604 73.552 128.132L73.924 128.804C75.616 128.216 76.864 127.424 77.668 126.416L76.996 126.008ZM80.092 127.868C79.108 129.62 76.804 130.892 73.18 131.66L73.672 132.332C77.356 131.552 79.756 130.172 80.86 128.204L80.092 127.868ZM78.52 127.004C77.296 128.48 75.58 129.404 73.36 129.764L73.852 130.424C76.012 130.04 77.788 129.056 79.192 127.46L78.52 127.004ZM85.912 121.148L85.348 126.416H92.176C92.176 128.696 92.032 130.088 91.756 130.58C91.492 131.036 90.676 131.264 89.32 131.264C89.08 131.264 88.672 131.228 88.084 131.18L88.312 131.972C88.72 131.996 89.116 132.02 89.5 132.02C90.964 132.02 91.924 131.768 92.368 131.276C92.824 130.76 93.052 128.876 93.052 125.612H86.308L86.512 123.656H93.868V122.828H86.596L86.764 121.22L85.912 121.148ZM83.8 128.348V129.176H90.58V128.348H83.8ZM99.136 124.688V125.516H102.568V127.376H99.94V132.212H100.792V131.552H105.292V132.188H106.144V127.376H103.444V125.516H106.9V124.688H103.444V122.696C104.536 122.54 105.496 122.312 106.336 122.012L105.916 121.268C104.188 121.856 102.004 122.156 99.388 122.156L99.652 122.936C100.684 122.936 101.656 122.888 102.568 122.804V124.688H99.136ZM100.792 130.736V128.192H105.292V130.736H100.792ZM96.964 121.364L96.376 121.928C97.24 122.504 97.924 123.032 98.416 123.536L99.004 122.948C98.452 122.42 97.768 121.892 96.964 121.364ZM96.688 124.232L96.088 124.82C96.964 125.444 97.648 126.044 98.152 126.608L98.752 126.008C98.2 125.408 97.504 124.82 96.688 124.232ZM98.104 127.424C97.6 128.876 96.988 130.292 96.292 131.684L97.156 132.056C97.78 130.712 98.356 129.26 98.884 127.724L98.104 127.424ZM108.76 122.036V122.864H113.104V122.036H108.76ZM108.292 125.276V126.116H109.96C109.36 128.3 108.88 129.632 108.52 130.124C108.472 130.148 108.412 130.172 108.328 130.196L108.532 131.012C110.02 130.748 111.412 130.388 112.684 129.932C112.804 130.208 112.924 130.496 113.044 130.808L113.788 130.424C113.284 129.212 112.744 128.096 112.168 127.064L111.436 127.424C111.748 127.976 112.048 128.564 112.36 129.212C111.424 129.56 110.476 129.836 109.528 130.028C109.888 129.236 110.308 127.94 110.788 126.116H113.56V125.276H108.292ZM115.36 121.232V123.656H113.74V124.496H115.36V124.64C115.336 127.868 114.568 130.208 113.068 131.66L113.716 132.224C115.348 130.628 116.188 128.096 116.224 124.64V124.496H118C117.976 127.724 117.928 129.656 117.856 130.292C117.76 130.976 117.412 131.324 116.824 131.324C116.5 131.324 116.116 131.3 115.684 131.276L115.876 132.044C116.38 132.068 116.728 132.08 116.932 132.08C117.964 132.08 118.552 131.588 118.672 130.616C118.78 129.728 118.84 127.412 118.84 123.656H116.224V121.232H115.36ZM122.152 129.572C121.912 129.572 121.732 129.632 121.588 129.776C121.444 129.908 121.372 130.088 121.372 130.316C121.372 130.52 121.444 130.7 121.588 130.844C121.732 130.988 121.9 131.06 122.104 131.06C122.224 131.06 122.32 131.036 122.368 131.012C122.368 131.3 122.284 131.564 122.104 131.816C121.912 132.056 121.66 132.236 121.348 132.344V132.932C121.852 132.8 122.272 132.536 122.584 132.152C122.896 131.744 123.052 131.276 123.052 130.748C123.052 130.4 122.968 130.124 122.812 129.908C122.644 129.68 122.416 129.572 122.152 129.572ZM139.984 121.196V122.48H137.872V123.26H139.984V124.664H137.212V125.48H143.596V124.664H140.848V123.26H143.068V122.48H140.848V121.196H139.984ZM137.5 126.896V127.712H141.34V130.88C141.34 131.192 141.196 131.36 140.932 131.36C140.476 131.36 140.008 131.336 139.528 131.3L139.708 132.116H141.232C141.856 132.116 142.18 131.768 142.18 131.096V127.712H143.5V126.896H142.18V126.116H141.34V126.896H137.5ZM138.388 128.264L137.716 128.684C138.316 129.368 138.796 129.992 139.144 130.568L139.828 130.088C139.492 129.56 139.012 128.96 138.388 128.264ZM133.852 124.544H134.98V127.724C134.236 127.964 133.48 128.168 132.712 128.324L132.916 129.164C133.612 128.972 134.308 128.768 134.98 128.54V132.2H135.808V128.228C136.18 128.084 136.552 127.928 136.936 127.76V126.944C136.564 127.112 136.192 127.268 135.808 127.424V124.544H136.9V123.704H135.808V121.208H134.98V123.704H133.972C134.032 123.224 134.068 122.732 134.092 122.216L133.3 122.156C133.252 123.536 133.036 124.844 132.664 126.092L133.42 126.308C133.588 125.744 133.732 125.156 133.852 124.544ZM145.768 121.376L145.192 121.928C145.96 122.624 146.572 123.272 147.028 123.872L147.616 123.284C147.124 122.648 146.512 122.012 145.768 121.376ZM152.908 131.984H155.656L155.86 131.12C155.548 131.144 155.092 131.156 154.516 131.168C153.928 131.18 153.352 131.192 152.788 131.192C151.804 131.192 150.988 131.18 150.316 131.168C149.584 131.144 149.02 131.048 148.624 130.88C148.288 130.724 147.952 130.472 147.64 130.124C147.532 130.004 147.424 129.92 147.328 129.848V125.336H145.048V126.14H146.512V129.824C146.08 130.04 145.588 130.652 145.036 131.648L145.648 132.212C146.236 131.108 146.656 130.568 146.896 130.568C147.052 130.568 147.22 130.664 147.388 130.868C147.772 131.3 148.204 131.6 148.696 131.744C149.2 131.876 149.86 131.948 150.676 131.96C151.48 131.972 152.224 131.984 152.908 131.984ZM148.552 122.024V125.348H149.608L149.908 126.08H148.156V126.812H149.236C149.152 127.472 149.032 128.012 148.864 128.432C148.672 128.876 148.384 129.284 148.012 129.644L148.504 130.28C148.96 129.836 149.308 129.332 149.548 128.78C149.608 128.612 149.668 128.432 149.728 128.228H151.204C151.192 128.876 151.156 129.296 151.096 129.476C151.024 129.656 150.856 129.752 150.616 129.764H149.92L150.136 130.472H150.82C151.252 130.46 151.552 130.304 151.732 130.016C151.9 129.728 151.984 128.9 151.984 127.544H149.884C149.92 127.328 149.956 127.076 150.004 126.812H152.356V126.08H150.724L150.424 125.348H151.936V125.288L152.284 125.72C152.68 125.18 153.016 124.532 153.292 123.776H154.456C154.432 124.76 154.312 125.66 154.12 126.464C153.808 125.984 153.484 125.576 153.148 125.216L152.704 125.72C153.112 126.212 153.496 126.752 153.856 127.34C153.472 128.384 152.908 129.224 152.152 129.848L152.596 130.544C153.316 129.92 153.904 129.14 154.336 128.18C154.672 128.804 154.996 129.5 155.308 130.244L155.872 129.68C155.488 128.804 155.08 128.024 154.672 127.328C154.996 126.308 155.176 125.12 155.224 123.776H155.824V122.972H153.532C153.676 122.444 153.796 121.88 153.892 121.268L153.1 121.124C152.884 122.732 152.5 124.028 151.936 125.036V122.024H150.508C150.604 121.772 150.688 121.496 150.76 121.208L149.896 121.088C149.848 121.412 149.788 121.724 149.704 122.024H148.552ZM151.204 124.748H149.284V123.98H151.204V124.748ZM149.284 123.38V122.624H151.204V123.38H149.284ZM163.624 127.868C164.224 127.868 164.536 127.532 164.536 126.872V123.62H163.672V126.668C163.672 126.968 163.552 127.124 163.336 127.124C163.072 127.124 162.784 127.1 162.484 127.064L162.664 127.868H163.624ZM158.704 124.424V127.88H159.544V123.296C159.928 122.708 160.276 122.06 160.588 121.364L159.748 121.184C159.052 122.708 158.164 123.944 157.084 124.88L157.624 125.54C157.996 125.204 158.356 124.832 158.704 124.424ZM162.448 121.172C161.884 122.432 161.152 123.452 160.252 124.244L160.78 124.892C161.356 124.364 161.884 123.764 162.34 123.068H166.768C166.636 123.548 166.468 123.98 166.264 124.376L167.044 124.58C167.284 124.004 167.476 123.416 167.632 122.816V122.276H162.82C162.964 121.988 163.12 121.676 163.264 121.352L162.448 121.172ZM158.5 128.492C158.26 129.476 157.9 130.388 157.396 131.204L158.128 131.672C158.644 130.82 159.04 129.812 159.328 128.66L158.5 128.492ZM164.404 132.02C164.836 132.02 165.16 131.924 165.364 131.732C165.604 131.504 165.76 130.868 165.844 129.812L165.028 129.548C164.98 130.34 164.896 130.82 164.752 130.988C164.644 131.132 164.476 131.204 164.236 131.204H161.596C161.26 131.204 161.104 131.024 161.104 130.688V128.336H160.228V130.868C160.228 131.636 160.588 132.02 161.332 132.02H164.404ZM166.444 128.12L165.736 128.552C166.468 129.584 167.056 130.532 167.488 131.396L168.196 130.892C167.788 130.1 167.212 129.176 166.444 128.12ZM162.124 124.772C161.692 125.636 161.176 126.392 160.576 127.04L161.236 127.496C161.836 126.824 162.364 126.02 162.82 125.096L162.124 124.772ZM166.108 124.76L165.376 125.072C165.928 125.792 166.444 126.608 166.9 127.544L167.632 127.172C167.188 126.284 166.684 125.48 166.108 124.76ZM162.724 128.012L162.052 128.432C162.628 129.104 163.084 129.728 163.42 130.28L164.092 129.812C163.78 129.296 163.324 128.696 162.724 128.012ZM170.416 121.388L169.828 121.952C170.68 122.636 171.352 123.272 171.832 123.86L172.456 123.248C171.904 122.624 171.22 122.012 170.416 121.388ZM177.388 131.984H180.136L180.34 131.12C180.028 131.144 179.572 131.156 178.996 131.168C178.408 131.18 177.832 131.192 177.268 131.192C176.344 131.192 175.564 131.18 174.94 131.168C174.244 131.144 173.704 131.048 173.344 130.88C173.008 130.724 172.708 130.472 172.42 130.124C172.324 130.016 172.228 129.92 172.132 129.848V125.36H169.612V126.152H171.328V129.8C170.836 130.016 170.272 130.628 169.636 131.636L170.284 132.224C170.944 131.12 171.412 130.568 171.7 130.568C171.844 130.568 172 130.664 172.156 130.868C172.528 131.3 172.948 131.6 173.416 131.744C173.896 131.876 174.508 131.948 175.276 131.96C176.032 131.972 176.74 131.984 177.388 131.984ZM173.284 123.092V123.896H174.7V124.844C174.7 125.348 174.664 125.828 174.604 126.284H172.864V127.1H174.448C174.184 128.228 173.668 129.068 172.912 129.608L173.428 130.304C174.352 129.608 174.976 128.54 175.288 127.1H177.424V130.544H178.264V127.1H180.172V126.284H178.264V123.896H179.788V123.092H178.264V121.196H177.424V123.092H175.528V121.184H174.7V123.092H173.284ZM175.528 123.896H177.424V126.284H175.432C175.492 125.78 175.528 125.228 175.528 124.652V123.896ZM186.22 121.964V122.816H191.968V121.964H186.22ZM185.896 125.012V125.864H189.676V130.892C189.676 131.204 189.472 131.36 189.088 131.36C188.56 131.36 188.02 131.336 187.444 131.3L187.624 132.152H189.388C190.156 132.152 190.552 131.804 190.552 131.108V125.864H192.496V125.012H185.896ZM184.324 121.304C183.76 122.432 182.86 123.44 181.612 124.328L181.864 125.192C183.352 124.172 184.432 122.996 185.104 121.664L184.324 121.304ZM184.888 124.04C184.216 125.372 183.148 126.548 181.684 127.58L181.936 128.444C182.512 128.048 183.028 127.628 183.508 127.196V132.2H184.36V126.32C184.888 125.72 185.32 125.072 185.668 124.4L184.888 124.04ZM198.736 121.22V124.724H195.472V128.576H203.416V124.724H199.588V123.2H204.244V122.384H199.588V121.22H198.736ZM202.552 127.772H196.336V125.54H202.552V127.772ZM195.448 129.104C195.016 130.088 194.5 130.94 193.9 131.648L194.608 132.164C195.208 131.396 195.724 130.496 196.18 129.452L195.448 129.104ZM198.064 129.452L197.26 129.62C197.488 130.376 197.68 131.24 197.848 132.224L198.712 132.032C198.52 131.108 198.304 130.244 198.064 129.452ZM200.572 129.332L199.756 129.5C200.116 130.28 200.416 131.18 200.656 132.2L201.508 132.008C201.244 131.048 200.932 130.148 200.572 129.332ZM203.032 129.092L202.336 129.536C203.068 130.52 203.644 131.408 204.064 132.224L204.784 131.72C204.376 130.976 203.8 130.1 203.032 129.092ZM210.268 121.748V122.564H213.088V127.088H209.932V127.916H213.088V132.2H213.928V127.916H217.132V127.088H213.928V122.564H216.772V121.748H210.268ZM215.68 123.164C215.416 124.376 215.104 125.384 214.744 126.176L215.476 126.428C215.86 125.552 216.184 124.532 216.436 123.368L215.68 123.164ZM211.192 123.236L210.448 123.476C210.844 124.424 211.168 125.42 211.408 126.452L212.152 126.26C211.864 125.12 211.552 124.112 211.192 123.236ZM207.544 121.316L206.944 121.904C207.808 122.552 208.504 123.176 209.008 123.764L209.596 123.164C209.044 122.54 208.36 121.928 207.544 121.316ZM206.104 124.868V125.696H207.868V130.484C207.868 130.676 207.772 130.844 207.592 131.012L207.928 131.78C208.72 131.24 209.464 130.628 210.172 129.932L209.932 129.02C209.488 129.464 209.08 129.848 208.696 130.184V124.868H206.104Z" fill="#578CDB"/>
<path d="M25.696 161.688V162.516H29.128V164.376H26.5V169.212H27.352V168.552H31.852V169.188H32.704V164.376H30.004V162.516H33.46V161.688H30.004V159.696C31.096 159.54 32.056 159.312 32.896 159.012L32.476 158.268C30.748 158.856 28.564 159.156 25.948 159.156L26.212 159.936C27.244 159.936 28.216 159.888 29.128 159.804V161.688H25.696ZM27.352 167.736V165.192H31.852V167.736H27.352ZM23.524 158.364L22.936 158.928C23.8 159.504 24.484 160.032 24.976 160.536L25.564 159.948C25.012 159.42 24.328 158.892 23.524 158.364ZM23.248 161.232L22.648 161.82C23.524 162.444 24.208 163.044 24.712 163.608L25.312 163.008C24.76 162.408 24.064 161.82 23.248 161.232ZM24.664 164.424C24.16 165.876 23.548 167.292 22.852 168.684L23.716 169.056C24.34 167.712 24.916 166.26 25.444 164.724L24.664 164.424ZM35.32 159.036V159.864H39.664V159.036H35.32ZM34.852 162.276V163.116H36.52C35.92 165.3 35.44 166.632 35.08 167.124C35.032 167.148 34.972 167.172 34.888 167.196L35.092 168.012C36.58 167.748 37.972 167.388 39.244 166.932C39.364 167.208 39.484 167.496 39.604 167.808L40.348 167.424C39.844 166.212 39.304 165.096 38.728 164.064L37.996 164.424C38.308 164.976 38.608 165.564 38.92 166.212C37.984 166.56 37.036 166.836 36.088 167.028C36.448 166.236 36.868 164.94 37.348 163.116H40.12V162.276H34.852ZM41.92 158.232V160.656H40.3V161.496H41.92V161.64C41.896 164.868 41.128 167.208 39.628 168.66L40.276 169.224C41.908 167.628 42.748 165.096 42.784 161.64V161.496H44.56C44.536 164.724 44.488 166.656 44.416 167.292C44.32 167.976 43.972 168.324 43.384 168.324C43.06 168.324 42.676 168.3 42.244 168.276L42.436 169.044C42.94 169.068 43.288 169.08 43.492 169.08C44.524 169.08 45.112 168.588 45.232 167.616C45.34 166.728 45.4 164.412 45.4 160.656H42.784V158.232H41.92ZM50.74 168.456H56.104V169.164H56.98V164.1H51.976C54.232 163.056 55.78 161.712 56.644 160.068V159.3H51.964C52.204 158.976 52.42 158.64 52.612 158.28L51.664 158.172C50.944 159.444 49.564 160.524 47.512 161.4L48.088 162.144C49.36 161.544 50.392 160.872 51.208 160.116H55.648C55.084 161.1 54.196 161.952 52.972 162.684C52.456 162.24 51.736 161.736 50.824 161.172L50.08 161.64C50.992 162.156 51.712 162.636 52.24 163.08C50.86 163.776 49.132 164.328 47.056 164.76L47.512 165.588C48.352 165.384 49.132 165.168 49.876 164.928V169.164H50.74V168.456ZM56.104 167.616H50.74V164.904H56.104V167.616ZM59.416 161.484V162.312H61.072C60.688 163.68 60.04 164.892 59.128 165.96L59.5 166.92C60.196 165.96 60.76 164.892 61.168 163.716V169.164H61.996V163.74C62.356 164.16 62.8 164.724 63.304 165.444L63.784 164.724C63.184 164.076 62.596 163.5 61.996 162.972V162.312H63.472V161.484H61.996V159.636C62.608 159.516 63.184 159.372 63.712 159.228L63.412 158.412C62.26 158.772 60.952 159.012 59.464 159.144L59.632 159.96C60.16 159.912 60.664 159.84 61.168 159.768V161.484H59.416ZM66.232 169.14C66.916 169.14 67.264 168.78 67.264 168.06V161.712H66.376V167.844C66.376 168.192 66.22 168.372 65.932 168.372C65.608 168.372 65.26 168.348 64.9 168.312L65.08 169.14H66.232ZM64.72 163.44C64.42 164.832 63.952 166.116 63.304 167.268L64.048 167.736C64.684 166.572 65.176 165.192 65.524 163.596L64.72 163.44ZM68.824 163.356L68.044 163.608C68.548 164.844 69.016 166.26 69.436 167.856L70.228 167.508C69.832 166.032 69.364 164.652 68.824 163.356ZM65.536 160.692H68.968C68.824 161.388 68.644 162.012 68.428 162.576L69.268 162.828C69.508 162.036 69.688 161.232 69.832 160.416V159.852H65.86C66.028 159.348 66.172 158.82 66.28 158.268L65.428 158.16C65.14 159.696 64.576 160.992 63.76 162.048L64.288 162.732C64.78 162.132 65.2 161.448 65.536 160.692ZM73.96 160.692C73.744 160.692 73.576 160.764 73.432 160.92C73.288 161.052 73.228 161.22 73.228 161.436C73.228 161.64 73.288 161.808 73.432 161.952C73.576 162.096 73.744 162.168 73.96 162.168C74.164 162.168 74.344 162.096 74.488 161.952C74.632 161.808 74.704 161.64 74.704 161.436C74.704 161.22 74.632 161.052 74.488 160.92C74.344 160.764 74.164 160.692 73.96 160.692ZM73.96 165.084C73.744 165.084 73.576 165.156 73.432 165.312C73.288 165.444 73.228 165.612 73.228 165.828C73.228 166.032 73.288 166.2 73.432 166.344C73.576 166.488 73.744 166.56 73.96 166.56C74.164 166.56 74.344 166.488 74.488 166.344C74.632 166.2 74.704 166.032 74.704 165.828C74.704 165.612 74.632 165.444 74.488 165.312C74.344 165.156 74.164 165.084 73.96 165.084Z" fill="#5B5B5B"/>
<path d="M25.696 190.688V191.516H29.128V193.376H26.5V198.212H27.352V197.552H31.852V198.188H32.704V193.376H30.004V191.516H33.46V190.688H30.004V188.696C31.096 188.54 32.056 188.312 32.896 188.012L32.476 187.268C30.748 187.856 28.564 188.156 25.948 188.156L26.212 188.936C27.244 188.936 28.216 188.888 29.128 188.804V190.688H25.696ZM27.352 196.736V194.192H31.852V196.736H27.352ZM23.524 187.364L22.936 187.928C23.8 188.504 24.484 189.032 24.976 189.536L25.564 188.948C25.012 188.42 24.328 187.892 23.524 187.364ZM23.248 190.232L22.648 190.82C23.524 191.444 24.208 192.044 24.712 192.608L25.312 192.008C24.76 191.408 24.064 190.82 23.248 190.232ZM24.664 193.424C24.16 194.876 23.548 196.292 22.852 197.684L23.716 198.056C24.34 196.712 24.916 195.26 25.444 193.724L24.664 193.424ZM35.32 188.036V188.864H39.664V188.036H35.32ZM34.852 191.276V192.116H36.52C35.92 194.3 35.44 195.632 35.08 196.124C35.032 196.148 34.972 196.172 34.888 196.196L35.092 197.012C36.58 196.748 37.972 196.388 39.244 195.932C39.364 196.208 39.484 196.496 39.604 196.808L40.348 196.424C39.844 195.212 39.304 194.096 38.728 193.064L37.996 193.424C38.308 193.976 38.608 194.564 38.92 195.212C37.984 195.56 37.036 195.836 36.088 196.028C36.448 195.236 36.868 193.94 37.348 192.116H40.12V191.276H34.852ZM41.92 187.232V189.656H40.3V190.496H41.92V190.64C41.896 193.868 41.128 196.208 39.628 197.66L40.276 198.224C41.908 196.628 42.748 194.096 42.784 190.64V190.496H44.56C44.536 193.724 44.488 195.656 44.416 196.292C44.32 196.976 43.972 197.324 43.384 197.324C43.06 197.324 42.676 197.3 42.244 197.276L42.436 198.044C42.94 198.068 43.288 198.08 43.492 198.08C44.524 198.08 45.112 197.588 45.232 196.616C45.34 195.728 45.4 193.412 45.4 189.656H42.784V187.232H41.92ZM50.92 188.096H47.464V197.228H48.304V196.136H50.08V196.94H50.92V188.096ZM48.304 195.332V192.44H50.08V195.332H48.304ZM48.304 191.636V188.888H50.08V191.636H48.304ZM52.648 191.672L51.94 192.116C52.66 193.22 53.224 194.228 53.644 195.128L54.364 194.624C53.968 193.784 53.392 192.8 52.648 191.672ZM55.384 198.08C56.128 198.08 56.5 197.696 56.5 196.94V190.232H57.976V189.404H56.5V187.292H55.624V189.404H51.472V190.232H55.624V196.724C55.624 197.096 55.444 197.288 55.096 197.288C54.46 197.288 53.8 197.264 53.104 197.24L53.284 198.08H55.384ZM62.392 190.448V196.04H66.952V190.448H62.392ZM66.148 195.272H63.208V193.628H66.148V195.272ZM63.208 192.86V191.216H66.148V192.86H63.208ZM68.296 198.104C69.1 198.104 69.508 197.672 69.508 196.832V187.796H64.012V188.6H68.668V196.592C68.668 197.072 68.476 197.324 68.116 197.324L67.072 197.3L67.288 198.104H68.296ZM59.908 189.188V198.212H60.748V189.188H59.908ZM61.648 187.088L60.856 187.436C61.396 188.084 61.888 188.828 62.344 189.668L63.112 189.26C62.692 188.468 62.2 187.748 61.648 187.088ZM73.96 189.692C73.744 189.692 73.576 189.764 73.432 189.92C73.288 190.052 73.228 190.22 73.228 190.436C73.228 190.64 73.288 190.808 73.432 190.952C73.576 191.096 73.744 191.168 73.96 191.168C74.164 191.168 74.344 191.096 74.488 190.952C74.632 190.808 74.704 190.64 74.704 190.436C74.704 190.22 74.632 190.052 74.488 189.92C74.344 189.764 74.164 189.692 73.96 189.692ZM73.96 194.084C73.744 194.084 73.576 194.156 73.432 194.312C73.288 194.444 73.228 194.612 73.228 194.828C73.228 195.032 73.288 195.2 73.432 195.344C73.576 195.488 73.744 195.56 73.96 195.56C74.164 195.56 74.344 195.488 74.488 195.344C74.632 195.2 74.704 195.032 74.704 194.828C74.704 194.612 74.632 194.444 74.488 194.312C74.344 194.156 74.164 194.084 73.96 194.084Z" fill="#5B5B5B"/>
<path d="M25.696 219.688V220.516H29.128V222.376H26.5V227.212H27.352V226.552H31.852V227.188H32.704V222.376H30.004V220.516H33.46V219.688H30.004V217.696C31.096 217.54 32.056 217.312 32.896 217.012L32.476 216.268C30.748 216.856 28.564 217.156 25.948 217.156L26.212 217.936C27.244 217.936 28.216 217.888 29.128 217.804V219.688H25.696ZM27.352 225.736V223.192H31.852V225.736H27.352ZM23.524 216.364L22.936 216.928C23.8 217.504 24.484 218.032 24.976 218.536L25.564 217.948C25.012 217.42 24.328 216.892 23.524 216.364ZM23.248 219.232L22.648 219.82C23.524 220.444 24.208 221.044 24.712 221.608L25.312 221.008C24.76 220.408 24.064 219.82 23.248 219.232ZM24.664 222.424C24.16 223.876 23.548 225.292 22.852 226.684L23.716 227.056C24.34 225.712 24.916 224.26 25.444 222.724L24.664 222.424ZM35.32 217.036V217.864H39.664V217.036H35.32ZM34.852 220.276V221.116H36.52C35.92 223.3 35.44 224.632 35.08 225.124C35.032 225.148 34.972 225.172 34.888 225.196L35.092 226.012C36.58 225.748 37.972 225.388 39.244 224.932C39.364 225.208 39.484 225.496 39.604 225.808L40.348 225.424C39.844 224.212 39.304 223.096 38.728 222.064L37.996 222.424C38.308 222.976 38.608 223.564 38.92 224.212C37.984 224.56 37.036 224.836 36.088 225.028C36.448 224.236 36.868 222.94 37.348 221.116H40.12V220.276H34.852ZM41.92 216.232V218.656H40.3V219.496H41.92V219.64C41.896 222.868 41.128 225.208 39.628 226.66L40.276 227.224C41.908 225.628 42.748 223.096 42.784 219.64V219.496H44.56C44.536 222.724 44.488 224.656 44.416 225.292C44.32 225.976 43.972 226.324 43.384 226.324C43.06 226.324 42.676 226.3 42.244 226.276L42.436 227.044C42.94 227.068 43.288 227.08 43.492 227.08C44.524 227.08 45.112 226.588 45.232 225.616C45.34 224.728 45.4 222.412 45.4 218.656H42.784V216.232H41.92ZM57.556 218.512L54.976 219.304V216.196H54.136V219.568L52.384 220.108V217.42H51.544V220.372L50.536 220.684V221.524L51.544 221.212V225.784C51.544 226.576 51.94 226.984 52.744 226.984H56.536C56.98 226.984 57.304 226.864 57.508 226.636C57.748 226.372 57.904 225.64 57.988 224.428L57.184 224.176C57.136 225.148 57.04 225.736 56.908 225.928C56.812 226.084 56.632 226.168 56.38 226.168H53.008C52.588 226.168 52.384 225.976 52.384 225.616V220.96L54.136 220.432V224.716H54.976V220.18L56.728 219.652C56.716 221.284 56.68 222.232 56.62 222.484C56.548 222.748 56.344 222.88 56.02 222.88C55.876 222.88 55.708 222.868 55.528 222.856L55.768 223.708H55.84C56.74 223.708 57.256 223.444 57.376 222.94C57.496 222.412 57.556 220.936 57.556 218.512ZM50.692 223.612C50.236 223.828 49.756 224.032 49.276 224.212V220.228H50.524V219.388H49.276V216.292H48.424V219.388H47.056V220.228H48.424V224.5C47.92 224.644 47.416 224.776 46.912 224.884L47.128 225.748C48.4 225.412 49.588 224.98 50.692 224.464V223.612ZM66.676 216.184V225.88H64.876V218.728H64.012V225.88H62.62V226.72H70.18V225.88H67.552V220.852H69.832V220.024H67.552V216.184H66.676ZM63.22 223.708C62.692 223.9 62.152 224.068 61.6 224.224V220.132H63.076V219.292H61.6V216.244H60.712V219.292H59.212V220.132H60.712V224.464C60.184 224.584 59.644 224.692 59.092 224.788L59.32 225.7C60.712 225.412 62.02 225.04 63.22 224.608V223.708ZM73.96 218.692C73.744 218.692 73.576 218.764 73.432 218.92C73.288 219.052 73.228 219.22 73.228 219.436C73.228 219.64 73.288 219.808 73.432 219.952C73.576 220.096 73.744 220.168 73.96 220.168C74.164 220.168 74.344 220.096 74.488 219.952C74.632 219.808 74.704 219.64 74.704 219.436C74.704 219.22 74.632 219.052 74.488 218.92C74.344 218.764 74.164 218.692 73.96 218.692ZM73.96 223.084C73.744 223.084 73.576 223.156 73.432 223.312C73.288 223.444 73.228 223.612 73.228 223.828C73.228 224.032 73.288 224.2 73.432 224.344C73.576 224.488 73.744 224.56 73.96 224.56C74.164 224.56 74.344 224.488 74.488 224.344C74.632 224.2 74.704 224.032 74.704 223.828C74.704 223.612 74.632 223.444 74.488 223.312C74.344 223.156 74.164 223.084 73.96 223.084Z" fill="#5B5B5B"/>
<path d="M32.992 249.276H27.004V256.176H27.844V255.672H32.152V256.176H32.992V249.276ZM27.844 254.868V252.888H29.608V254.868H27.844ZM30.4 254.868V252.888H32.152V254.868H30.4ZM27.844 252.108V250.08H29.608V252.108H27.844ZM30.4 250.08H32.152V252.108H30.4V250.08ZM23.992 256.044C24.664 256.044 25.012 255.696 25.012 255.012V251.472C25.456 251.268 25.9 251.052 26.344 250.812V249.948C25.912 250.188 25.468 250.416 25.012 250.62V248.22H26.176V247.38H25.012V245.184H24.148V247.38H22.636V248.22H24.148V250.968C23.572 251.184 22.996 251.364 22.408 251.52L22.624 252.384C23.128 252.216 23.644 252.036 24.148 251.844V254.796C24.148 255.108 23.992 255.276 23.692 255.276C23.38 255.276 23.044 255.252 22.708 255.216L22.888 256.044H23.992ZM28.12 245.22V246.588H26.536V247.392H28.12V248.724H28.936V247.392H31.024V248.736H31.84V247.392H33.424V246.588H31.84V245.22H31.024V246.588H28.936V245.22H28.12ZM43.012 249.012L42.376 249.42C43.42 250.872 44.248 252.192 44.86 253.392L45.568 252.888C44.98 251.784 44.128 250.5 43.012 249.012ZM35.704 245.388L35.104 245.952C35.98 246.636 36.664 247.272 37.168 247.86L37.78 247.248C37.216 246.624 36.52 246.012 35.704 245.388ZM42.772 255.984H45.496L45.7 255.12C45.388 255.144 44.944 255.156 44.368 255.168C43.78 255.18 43.204 255.192 42.652 255.192C41.716 255.192 40.936 255.18 40.312 255.168C39.616 255.144 39.076 255.048 38.704 254.88C38.368 254.724 38.068 254.472 37.78 254.124C37.684 254.016 37.588 253.92 37.492 253.848V249.36H34.972V250.152H36.688V253.8C36.196 254.016 35.632 254.628 34.996 255.636L35.644 256.224C36.304 255.12 36.772 254.568 37.06 254.568C37.204 254.568 37.36 254.664 37.528 254.868C37.888 255.3 38.308 255.6 38.788 255.744C39.268 255.876 39.892 255.948 40.66 255.96C41.416 255.972 42.124 255.984 42.772 255.984ZM40.9 248.28C40.144 250.116 39.184 251.616 38.02 252.792L38.596 253.464C39.724 252.24 40.66 250.74 41.428 248.952V254.592H42.268V248.28H45.496V247.476H42.268V245.268H41.428V247.476H38.188V248.28H40.9ZM43.96 245.208L43.252 245.436C43.624 245.94 43.972 246.516 44.284 247.176L44.968 246.864C44.68 246.276 44.344 245.724 43.96 245.208ZM49.48 247.692C49.264 247.692 49.096 247.764 48.952 247.92C48.808 248.052 48.748 248.22 48.748 248.436C48.748 248.64 48.808 248.808 48.952 248.952C49.096 249.096 49.264 249.168 49.48 249.168C49.684 249.168 49.864 249.096 50.008 248.952C50.152 248.808 50.224 248.64 50.224 248.436C50.224 248.22 50.152 248.052 50.008 247.92C49.864 247.764 49.684 247.692 49.48 247.692ZM49.48 252.084C49.264 252.084 49.096 252.156 48.952 252.312C48.808 252.444 48.748 252.612 48.748 252.828C48.748 253.032 48.808 253.2 48.952 253.344C49.096 253.488 49.264 253.56 49.48 253.56C49.684 253.56 49.864 253.488 50.008 253.344C50.152 253.2 50.224 253.032 50.224 252.828C50.224 252.612 50.152 252.444 50.008 252.312C49.864 252.156 49.684 252.084 49.48 252.084Z" fill="#5B5B5B"/>
<path d="M26.48 306.85V309.77H23.76V312.98H30.38V309.77H27.19V308.5H31.07V307.82H27.19V306.85H26.48ZM29.66 312.31H24.48V310.45H29.66V312.31ZM23.74 313.42C23.38 314.24 22.95 314.95 22.45 315.54L23.04 315.97C23.54 315.33 23.97 314.58 24.35 313.71L23.74 313.42ZM25.92 313.71L25.25 313.85C25.44 314.48 25.6 315.2 25.74 316.02L26.46 315.86C26.3 315.09 26.12 314.37 25.92 313.71ZM28.01 313.61L27.33 313.75C27.63 314.4 27.88 315.15 28.08 316L28.79 315.84C28.57 315.04 28.31 314.29 28.01 313.61ZM30.06 313.41L29.48 313.78C30.09 314.6 30.57 315.34 30.92 316.02L31.52 315.6C31.18 314.98 30.7 314.25 30.06 313.41ZM33.56 308.31V309H36.83V310.66H32.79V311.36H36.83V314.89H34.48V312.23H33.79V316.02H34.48V315.56H39.93V316.02H40.62V312.23H39.93V314.89H37.57V311.36H41.62V310.66H37.57V309H40.8V308.31H37.57V306.9H36.83V308.31H33.56ZM46.29 307.29V307.97H48.64V311.74H46.01V312.43H48.64V316H49.34V312.43H52.01V311.74H49.34V307.97H51.71V307.29H46.29ZM50.8 308.47C50.58 309.48 50.32 310.32 50.02 310.98L50.63 311.19C50.95 310.46 51.22 309.61 51.43 308.64L50.8 308.47ZM47.06 308.53L46.44 308.73C46.77 309.52 47.04 310.35 47.24 311.21L47.86 311.05C47.62 310.1 47.36 309.26 47.06 308.53ZM44.02 306.93L43.52 307.42C44.24 307.96 44.82 308.48 45.24 308.97L45.73 308.47C45.27 307.95 44.7 307.44 44.02 306.93ZM42.82 309.89V310.58H44.29V314.57C44.29 314.73 44.21 314.87 44.06 315.01L44.34 315.65C45 315.2 45.62 314.69 46.21 314.11L46.01 313.35C45.64 313.72 45.3 314.04 44.98 314.32V309.89H42.82ZM54.27 310.3V315.97H55.01V309.06C55.32 308.45 55.58 307.81 55.79 307.14L55.11 306.83C54.67 308.35 53.95 309.7 52.97 310.88L53.21 311.64C53.59 311.22 53.95 310.77 54.27 310.3ZM59.68 310.33V315.91H60.38V310.33H59.68ZM57.11 310.36V311.87C57.09 313.56 56.65 314.79 55.79 315.55L56.33 316.02C57.29 315.14 57.78 313.76 57.8 311.87V310.36H57.11ZM58.38 306.88C57.66 308.37 56.63 309.58 55.29 310.51L55.69 311.12C56.9 310.28 57.9 309.1 58.7 307.57C59.39 308.93 60.44 310.08 61.84 311.01L62.25 310.4C60.73 309.39 59.65 308.22 59.03 306.88H58.38Z" fill="#A9A9A9"/>
<rect x="83" y="153" width="97" height="20" rx="4" fill="#EEEEEE"/>
<rect x="83" y="182" width="65" height="20" rx="4" fill="#EEEEEE"/>
<rect x="83" y="211" width="135" height="20" rx="4" fill="#EEEEEE"/>
<rect x="83" y="240" width="84" height="20" rx="4" fill="#EEEEEE"/>
<line x1="8" y1="298.75" x2="238" y2="298.75" stroke="#E8E8E8" stroke-width="0.5"/>
<line x1="54" y1="381.75" x2="339" y2="381.75" stroke="#E8E8E8" stroke-width="0.5"/>
<rect x="120" y="391" width="201" height="22" rx="6" fill="#EEEEEE"/>
<path fill-rule="evenodd" clip-rule="evenodd" d="M79.6666 408.672C83.3927 408.672 86.4133 405.651 86.4133 401.925C86.4133 398.199 83.3927 395.178 79.6666 395.178C75.9405 395.178 72.9199 398.199 72.9199 401.925C72.9199 405.651 75.9405 408.672 79.6666 408.672Z" fill="black" fill-opacity="0.9"/>
<rect x="75.4502" y="398.858" width="1.53333" height="1.53333" fill="black" fill-opacity="0.9"/>
<rect x="77.75" y="398.858" width="1.53333" height="1.53333" fill="black" fill-opacity="0.9"/>
<rect x="80.0498" y="398.858" width="1.53333" height="1.53333" fill="black" fill-opacity="0.9"/>
<rect x="82.3501" y="398.858" width="1.53333" height="1.53333" fill="black" fill-opacity="0.9"/>
<rect x="75.4502" y="401.158" width="1.53333" height="1.53333" fill="black" fill-opacity="0.9"/>
<rect x="77.75" y="401.158" width="1.53333" height="1.53333" fill="black" fill-opacity="0.9"/>
<rect x="77.3667" y="404.225" width="4.6" height="1.53333" fill="black" fill-opacity="0.9"/>
<rect x="80.0498" y="401.158" width="1.53333" height="1.53333" fill="black" fill-opacity="0.9"/>
<rect x="82.3501" y="401.158" width="1.53333" height="1.53333" fill="black" fill-opacity="0.9"/>
<path opacity="0.9" fill-rule="evenodd" clip-rule="evenodd" d="M77.9414 392.725L79.6664 391L81.3914 392.725H77.9414Z" fill="#AEAEAE"/>
<path fill-rule="evenodd" clip-rule="evenodd" d="M105 409.04C108.888 409.04 112.04 405.888 112.04 402C112.04 398.112 108.888 394.96 105 394.96C101.112 394.96 97.96 398.112 97.96 402C97.96 405.888 101.112 409.04 105 409.04Z" fill="black" fill-opacity="0.9"/>
<path fill-rule="evenodd" clip-rule="evenodd" d="M105.247 405.847C106.261 404.833 106.84 403.463 106.84 402C106.84 400.537 106.261 399.168 105.247 398.153L105.925 397.475C107.084 398.633 107.8 400.233 107.8 402C107.8 403.767 107.084 405.367 105.925 406.526L105.247 405.847Z" fill="black" fill-opacity="0.9"/>
<path fill-rule="evenodd" clip-rule="evenodd" d="M103.663 404.263C104.259 403.666 104.6 402.861 104.6 402C104.6 401.139 104.259 400.334 103.663 399.737L104.341 399.059C105.094 399.811 105.56 400.851 105.56 402C105.56 403.149 105.094 404.189 104.341 404.942L103.663 404.263Z" fill="black" fill-opacity="0.9"/>
<path fill-rule="evenodd" clip-rule="evenodd" d="M102.758 403.358C103.105 403.01 103.32 402.53 103.32 402C103.32 401.47 103.105 400.99 102.758 400.643L101.4 402L102.758 403.358Z" fill="black" fill-opacity="0.9"/>
<g filter="url(#filter2_d)">
<rect x="256" y="79" width="230" height="246" rx="8" fill="white"/>
</g>
<path d="M276.832 94.424H271.152V104.616H272.512V95.816H275.488V104.616H276.832V99.16L277.568 100.104C278.176 99.336 278.704 98.472 279.152 97.528H283.392C283.36 102.328 283.312 105.128 283.216 105.96C283.12 106.76 282.784 107.16 282.224 107.16C281.52 107.16 280.704 107.128 279.776 107.08L280.128 108.44C281.232 108.472 282 108.504 282.448 108.504C283.76 108.504 284.48 107.832 284.64 106.52C284.8 105.208 284.88 101.72 284.88 96.056H279.728C279.936 95.416 280.112 94.728 280.24 94.024L278.768 93.832C278.416 95.688 277.776 97.288 276.832 98.632V94.424ZM281.616 100.952L280.464 101.512C280.688 102.088 280.896 102.712 281.104 103.384C280.432 103.544 279.712 103.672 278.96 103.752C279.568 102.504 280.192 100.984 280.8 99.176L279.424 98.712C278.512 101.896 277.792 103.624 277.28 103.88L277.52 105.192C278.944 105.048 280.256 104.84 281.472 104.584C281.568 104.936 281.68 105.304 281.776 105.688L283.008 105.064C282.56 103.576 282.096 102.2 281.616 100.952ZM273.36 96.824V102.072C273.312 103.448 273.104 104.568 272.752 105.432C272.384 106.232 271.68 106.888 270.656 107.416L271.456 108.68C272.544 108.136 273.328 107.352 273.808 106.36C274.304 105.304 274.576 103.864 274.608 102.072V96.824H273.36ZM275.296 105.016L274.336 105.96C275.232 106.888 275.936 107.752 276.416 108.552L277.52 107.48C276.912 106.664 276.16 105.848 275.296 105.016ZM287.168 94.392V95.704H291.872V96.728H288.288V100.504H300.352V96.728H296.768V95.704H301.472V94.392H287.168ZM295.328 96.728H293.312V95.704H295.328V96.728ZM298.896 99.272H296.768V97.976H298.896V99.272ZM295.328 99.272H293.312V97.976H295.328V99.272ZM291.872 99.272H289.744V97.976H291.872V99.272ZM289.024 101.432V102.68H299.712V101.432H289.024ZM287.424 103.56V104.856H293.76V106.712C293.76 107.112 293.552 107.32 293.136 107.32C292.736 107.32 292.32 107.288 291.872 107.24L292.16 108.584H293.632C294.688 108.584 295.232 108.056 295.232 107.032V104.856H301.216V103.56H287.424ZM297.744 105.176L296.736 106.136C298.272 106.968 299.472 107.736 300.32 108.456L301.376 107.4C300.384 106.664 299.184 105.912 297.744 105.176ZM291.216 105.208C290.176 105.992 288.896 106.68 287.392 107.272L288.304 108.456C289.84 107.784 291.152 107 292.208 106.104L291.216 105.208ZM314.72 93.768L313.76 94.696C314.432 95.208 314.976 95.72 315.408 96.2H312.944C312.912 95.464 312.88 94.68 312.88 93.848H311.344C311.344 94.664 311.344 95.448 311.376 96.2H304.784V101.528C304.736 104.136 304.208 106.168 303.216 107.624L304.368 108.648C305.584 106.856 306.24 104.488 306.304 101.528V101.432H308.72C308.688 103.096 308.64 104.152 308.544 104.568C308.448 104.92 308.272 105.096 307.984 105.112C307.536 105.112 307.008 105.08 306.368 105.048L306.832 106.424C307.328 106.472 307.776 106.504 308.16 106.504C308.992 106.488 309.536 106.152 309.792 105.48C310.048 104.712 310.192 102.888 310.224 99.992H306.304V97.656H311.456C311.568 99.608 311.792 101.224 312.144 102.52C312.32 103.192 312.512 103.816 312.736 104.392C311.68 105.704 310.384 106.696 308.848 107.384L309.712 108.664C311.12 108.04 312.368 107.128 313.44 105.928C313.648 106.312 313.872 106.664 314.128 106.984C314.896 107.928 315.632 108.408 316.336 108.408C317.104 108.408 317.696 107.288 318.096 105.08L316.72 104.344C316.512 105.912 316.304 106.696 316.096 106.696C315.84 106.696 315.456 106.328 314.976 105.624C314.8 105.352 314.624 105.032 314.448 104.648C315.44 103.208 316.24 101.448 316.88 99.4L315.488 98.808C315.04 100.328 314.48 101.672 313.808 102.856C313.728 102.6 313.648 102.328 313.584 102.056C313.312 101.016 313.12 99.544 313.008 97.656H317.776V96.2H315.856L316.592 95.464C316.08 94.888 315.456 94.328 314.72 93.768ZM321.92 97V104.296C321.136 104.472 320.352 104.632 319.552 104.76L319.936 106.296C322.016 105.848 323.968 105.288 325.808 104.632V103.112C325.024 103.4 324.24 103.656 323.44 103.896V97H325.616V95.544H319.744V97H321.92ZM328.336 93.928V97.032H325.92V98.504H328.336V98.552C328.304 102.744 327.152 105.784 324.88 107.672L326.128 108.776C328.56 106.6 329.808 103.192 329.872 98.552V98.504H332.4C332.368 102.76 332.32 105.256 332.224 106.008C332.08 106.728 331.552 107.096 330.624 107.096C330.176 107.096 329.632 107.064 328.992 107.016L329.36 108.44C330.08 108.488 330.592 108.52 330.88 108.52C332.512 108.52 333.44 107.912 333.648 106.712C333.808 105.48 333.888 102.248 333.888 97.032H329.872V93.928H328.336ZM337.44 94.04L336.4 95.032C337.568 95.96 338.464 96.824 339.104 97.624L340.176 96.568C339.44 95.736 338.528 94.888 337.44 94.04ZM346.64 108.376H350.288L350.656 106.872C350.224 106.904 349.6 106.936 348.8 106.952C348 106.968 347.2 106.984 346.416 106.984C345.168 106.984 344.096 106.968 343.184 106.952C342.24 106.92 341.536 106.776 341.056 106.552C340.656 106.344 340.272 106.024 339.904 105.592C339.824 105.496 339.744 105.416 339.664 105.352V99.304H336.096V100.712H338.24V105.24C337.6 105.56 336.88 106.376 336.08 107.672L337.2 108.712C338.016 107.272 338.592 106.552 338.928 106.552C339.12 106.552 339.312 106.68 339.536 106.952C340.016 107.496 340.576 107.88 341.216 108.072C341.888 108.232 342.736 108.328 343.776 108.344C344.8 108.36 345.76 108.376 346.64 108.376ZM343.872 95.624L342.976 96.488C343.632 96.84 344.224 97.208 344.752 97.56H341.072V106.2H342.512V103.544H344.768V106.168H346.16V103.544H348.464V104.36C348.464 104.712 348.272 104.888 347.92 104.888L346.784 104.824L347.104 106.088H348.336C349.376 106.088 349.904 105.608 349.904 104.664V97.56H346.688C346.656 97.528 346.624 97.512 346.592 97.48C347.648 96.904 348.64 96.232 349.568 95.432V94.36H340.784V95.624H343.872ZM345.664 96.76C345.136 96.376 344.56 96.008 343.952 95.624H347.536C346.96 96.04 346.336 96.424 345.664 96.76ZM342.512 101.192H344.768V102.312H342.512V101.192ZM346.16 101.192H348.464V102.312H346.16V101.192ZM348.464 99.944H346.16V98.824H348.464V99.944ZM344.768 99.944H342.512V98.824H344.768V99.944ZM366.368 95.448H360.624V107.944H362.096V107.016H364.896V107.928H366.368V95.448ZM362.096 105.592V96.872H364.896V105.592H362.096ZM354.88 97.352H356.096C356.064 98.344 356.016 99.272 355.92 100.12H352.544V101.576H355.696C355.632 101.896 355.552 102.216 355.488 102.52C354.96 104.312 353.872 105.816 352.208 107.048L353.2 108.264C354.832 107.112 355.968 105.688 356.64 104.008C357.312 104.808 358.144 105.912 359.136 107.32L360.064 105.912C359.04 104.696 358.048 103.592 357.072 102.6C357.136 102.28 357.216 101.928 357.28 101.576H359.984V100.12H357.488C357.584 99.272 357.632 98.344 357.664 97.352H359.84V95.896H355.472C355.664 95.352 355.856 94.792 356.016 94.184L354.512 93.864C354.08 95.592 353.344 97.208 352.32 98.712L353.648 99.56C354.096 98.888 354.512 98.152 354.88 97.352Z" fill="#176BE8"/>
<path d="M276.984 127.868C277.584 127.868 277.896 127.532 277.896 126.872V123.62H277.032V126.668C277.032 126.968 276.912 127.124 276.696 127.124C276.432 127.124 276.144 127.1 275.844 127.064L276.024 127.868H276.984ZM272.064 124.424V127.88H272.904V123.296C273.288 122.708 273.636 122.06 273.948 121.364L273.108 121.184C272.412 122.708 271.524 123.944 270.444 124.88L270.984 125.54C271.356 125.204 271.716 124.832 272.064 124.424ZM275.808 121.172C275.244 122.432 274.512 123.452 273.612 124.244L274.14 124.892C274.716 124.364 275.244 123.764 275.7 123.068H280.128C279.996 123.548 279.828 123.98 279.624 124.376L280.404 124.58C280.644 124.004 280.836 123.416 280.992 122.816V122.276H276.18C276.324 121.988 276.48 121.676 276.624 121.352L275.808 121.172ZM271.86 128.492C271.62 129.476 271.26 130.388 270.756 131.204L271.488 131.672C272.004 130.82 272.4 129.812 272.688 128.66L271.86 128.492ZM277.764 132.02C278.196 132.02 278.52 131.924 278.724 131.732C278.964 131.504 279.12 130.868 279.204 129.812L278.388 129.548C278.34 130.34 278.256 130.82 278.112 130.988C278.004 131.132 277.836 131.204 277.596 131.204H274.956C274.62 131.204 274.464 131.024 274.464 130.688V128.336H273.588V130.868C273.588 131.636 273.948 132.02 274.692 132.02H277.764ZM279.804 128.12L279.096 128.552C279.828 129.584 280.416 130.532 280.848 131.396L281.556 130.892C281.148 130.1 280.572 129.176 279.804 128.12ZM275.484 124.772C275.052 125.636 274.536 126.392 273.936 127.04L274.596 127.496C275.196 126.824 275.724 126.02 276.18 125.096L275.484 124.772ZM279.468 124.76L278.736 125.072C279.288 125.792 279.804 126.608 280.26 127.544L280.992 127.172C280.548 126.284 280.044 125.48 279.468 124.76ZM276.084 128.012L275.412 128.432C275.988 129.104 276.444 129.728 276.78 130.28L277.452 129.812C277.14 129.296 276.684 128.696 276.084 128.012ZM286.884 126.02C286.428 126.26 285.972 126.476 285.504 126.68V124.232H286.848V123.404H285.504V121.232H284.652V123.404H282.912V124.232H284.652V127.016C284.028 127.232 283.392 127.424 282.732 127.58L282.948 128.432C283.524 128.252 284.1 128.06 284.652 127.856V130.88C284.652 131.216 284.484 131.396 284.16 131.396C283.836 131.396 283.5 131.372 283.152 131.336L283.344 132.164H284.46C285.156 132.164 285.504 131.804 285.504 131.084V127.508C285.972 127.316 286.428 127.1 286.884 126.872V126.02ZM288.36 126.776H289.056C289.248 127.928 289.752 128.996 290.58 129.98C290.052 130.58 289.404 131.072 288.636 131.456L289.056 132.212C289.872 131.804 290.58 131.264 291.156 130.604C291.708 131.156 292.392 131.672 293.184 132.176L293.76 131.516C292.92 131.048 292.212 130.544 291.636 129.992C292.26 129.092 292.68 128 292.92 126.728V125.984H288.36V122.48H291.984C291.96 123.224 291.912 123.716 291.828 123.944C291.744 124.088 291.636 124.172 291.504 124.22C291.36 124.244 291.132 124.268 290.844 124.268C290.556 124.268 290.328 124.256 290.136 124.256L290.376 125.012H291.24C292.008 125.012 292.464 124.784 292.608 124.352C292.74 123.908 292.812 123.02 292.812 121.688H287.544V132.2H288.36V126.776ZM289.836 126.776H292.092C291.876 127.76 291.528 128.624 291.048 129.356C290.4 128.576 290.004 127.712 289.836 126.776ZM298.74 131.456H304.104V132.164H304.98V127.1H299.976C302.232 126.056 303.78 124.712 304.644 123.068V122.3H299.964C300.204 121.976 300.42 121.64 300.612 121.28L299.664 121.172C298.944 122.444 297.564 123.524 295.512 124.4L296.088 125.144C297.36 124.544 298.392 123.872 299.208 123.116H303.648C303.084 124.1 302.196 124.952 300.972 125.684C300.456 125.24 299.736 124.736 298.824 124.172L298.08 124.64C298.992 125.156 299.712 125.636 300.24 126.08C298.86 126.776 297.132 127.328 295.056 127.76L295.512 128.588C296.352 128.384 297.132 128.168 297.876 127.928V132.164H298.74V131.456ZM304.104 130.616H298.74V127.904H304.104V130.616ZM311.568 123.272H309.636C309.876 122.672 310.056 122.012 310.2 121.304L309.336 121.184C309.228 121.904 309.06 122.6 308.82 123.272H307.704V131.804H308.544V130.772H310.728V131.456H311.568V123.272ZM308.544 129.968V127.34H310.728V129.968H308.544ZM308.544 126.56V124.088H310.728V126.56H308.544ZM313.656 126.056L312.96 126.488C313.788 127.472 314.448 128.36 314.94 129.152L315.624 128.672C315.168 127.928 314.52 127.052 313.656 126.056ZM317.772 123.284H313.944C314.16 122.66 314.328 121.988 314.472 121.28L313.62 121.172C313.308 122.876 312.744 124.316 311.904 125.492L312.42 126.176C312.888 125.564 313.284 124.88 313.62 124.124H316.92C316.896 127.58 316.848 129.656 316.776 130.328C316.68 130.94 316.356 131.252 315.792 131.252C315.42 131.252 314.988 131.24 314.484 131.216L314.688 132.008C315.264 132.032 315.672 132.056 315.912 132.056C316.92 132.056 317.472 131.588 317.592 130.676C317.712 129.74 317.772 127.268 317.772 123.284ZM322.656 124.688V125.516H326.088V127.376H323.46V132.212H324.312V131.552H328.812V132.188H329.664V127.376H326.964V125.516H330.42V124.688H326.964V122.696C328.056 122.54 329.016 122.312 329.856 122.012L329.436 121.268C327.708 121.856 325.524 122.156 322.908 122.156L323.172 122.936C324.204 122.936 325.176 122.888 326.088 122.804V124.688H322.656ZM324.312 130.736V128.192H328.812V130.736H324.312ZM320.484 121.364L319.896 121.928C320.76 122.504 321.444 123.032 321.936 123.536L322.524 122.948C321.972 122.42 321.288 121.892 320.484 121.364ZM320.208 124.232L319.608 124.82C320.484 125.444 321.168 126.044 321.672 126.608L322.272 126.008C321.72 125.408 321.024 124.82 320.208 124.232ZM321.624 127.424C321.12 128.876 320.508 130.292 319.812 131.684L320.676 132.056C321.3 130.712 321.876 129.26 322.404 127.724L321.624 127.424ZM332.28 122.036V122.864H336.624V122.036H332.28ZM331.812 125.276V126.116H333.48C332.88 128.3 332.4 129.632 332.04 130.124C331.992 130.148 331.932 130.172 331.848 130.196L332.052 131.012C333.54 130.748 334.932 130.388 336.204 129.932C336.324 130.208 336.444 130.496 336.564 130.808L337.308 130.424C336.804 129.212 336.264 128.096 335.688 127.064L334.956 127.424C335.268 127.976 335.568 128.564 335.88 129.212C334.944 129.56 333.996 129.836 333.048 130.028C333.408 129.236 333.828 127.94 334.308 126.116H337.08V125.276H331.812ZM338.88 121.232V123.656H337.26V124.496H338.88V124.64C338.856 127.868 338.088 130.208 336.588 131.66L337.236 132.224C338.868 130.628 339.708 128.096 339.744 124.64V124.496H341.52C341.496 127.724 341.448 129.656 341.376 130.292C341.28 130.976 340.932 131.324 340.344 131.324C340.02 131.324 339.636 131.3 339.204 131.276L339.396 132.044C339.9 132.068 340.248 132.08 340.452 132.08C341.484 132.08 342.072 131.588 342.192 130.616C342.3 129.728 342.36 127.412 342.36 123.656H339.744V121.232H338.88ZM353.976 121.676H348.648V128.312H349.5V122.504H353.1V128.312H353.976V121.676ZM353.712 132.008C354.096 132.008 354.384 131.912 354.576 131.732C354.78 131.516 354.924 130.904 354.996 129.92L354.192 129.668C354.144 130.412 354.072 130.868 353.976 131.024C353.892 131.144 353.748 131.216 353.556 131.216H352.716C352.464 131.216 352.344 131.084 352.344 130.832V128.264H351.48V131.012C351.48 131.672 351.804 132.008 352.464 132.008H353.712ZM350.844 123.356V126.284C350.82 127.628 350.556 128.72 350.076 129.56C349.56 130.352 348.648 131 347.352 131.504L347.82 132.236C349.164 131.732 350.124 131.024 350.7 130.136C351.3 129.176 351.624 127.892 351.672 126.284V123.356H350.844ZM344.196 125.636V126.476H345.576V129.464C345.048 129.608 344.52 129.728 343.98 129.824L344.184 130.652C345.54 130.328 346.812 129.932 348 129.452V128.624C347.496 128.828 346.992 129.02 346.464 129.2V126.476H347.808V125.636H346.464V122.828H347.976V122H344.04V122.828H345.576V125.636H344.196ZM365.7 126.632V121.832H356.82V122.672H364.824V125.804H358.164V124.028H357.3V130.328C357.3 131.312 357.78 131.816 358.752 131.816H365.256C365.76 131.792 366.156 131.66 366.42 131.408C366.708 131.096 366.912 130.208 367.032 128.72L366.192 128.456C366.12 129.776 365.964 130.544 365.724 130.76C365.544 130.904 365.304 130.976 365.016 130.976H358.992C358.44 130.976 358.164 130.7 358.164 130.172V126.632H365.7ZM377.172 125.372H374.364V121.184H373.476V125.372H370.668V122.096H369.804V126.212H373.476V130.616H370.092V127.34H369.216V132.116H370.092V131.444H377.748V132.116H378.624V127.34H377.748V130.616H374.364V126.212H378.036V122.096H377.172V125.372ZM380.832 121.664V122.42H384.456V123.38H381.708V126.044H390.624V123.38H387.876V122.42H391.488V121.664H380.832ZM387.06 123.38H385.272V122.42H387.06V123.38ZM389.796 125.336H387.876V124.1H389.796V125.336ZM387.06 125.336H385.272V124.1H387.06V125.336ZM384.456 125.336H382.536V124.1H384.456V125.336ZM382.212 126.932V127.652H390.168V126.932H382.212ZM381.024 128.528V129.284H385.872V130.964C385.872 131.276 385.692 131.432 385.356 131.432C385.044 131.432 384.72 131.408 384.384 131.384L384.552 132.152H385.632C386.352 132.152 386.712 131.816 386.712 131.156V129.284H391.296V128.528H381.024ZM388.62 129.692L388.044 130.232C389.22 130.88 390.132 131.48 390.792 132.056L391.392 131.456C390.648 130.868 389.724 130.28 388.62 129.692ZM383.94 129.716C383.148 130.34 382.176 130.892 381.024 131.372L381.54 132.044C382.716 131.528 383.7 130.928 384.504 130.232L383.94 129.716ZM394.632 129.572C394.392 129.572 394.212 129.632 394.068 129.776C393.924 129.908 393.852 130.088 393.852 130.316C393.852 130.52 393.924 130.7 394.068 130.844C394.212 130.988 394.38 131.06 394.584 131.06C394.704 131.06 394.8 131.036 394.848 131.012C394.848 131.3 394.764 131.564 394.584 131.816C394.392 132.056 394.14 132.236 393.828 132.344V132.932C394.332 132.8 394.752 132.536 395.064 132.152C395.376 131.744 395.532 131.276 395.532 130.748C395.532 130.4 395.448 130.124 395.292 129.908C395.124 129.68 394.896 129.572 394.632 129.572ZM412.152 124.256V125.996H409.704V126.812H412.152V128.624H409.092V129.452H412.152V132.188H413.016V129.452H416.124V128.624H413.016V126.812H415.488V125.996H413.016V124.256H415.848V123.44H414.024C414.408 122.84 414.744 122.168 415.044 121.424L414.216 121.136C413.916 121.952 413.568 122.72 413.172 123.44H409.356V124.256H412.152ZM410.772 121.184L410.04 121.532C410.472 122.084 410.868 122.72 411.24 123.416L411.948 123.056C411.576 122.384 411.18 121.76 410.772 121.184ZM406.608 121.364L406.008 121.928C406.836 122.576 407.484 123.176 407.952 123.752L408.528 123.152C408.012 122.552 407.376 121.964 406.608 121.364ZM405.144 124.868V125.696H406.836V130.46C406.836 130.664 406.74 130.844 406.56 131.012L406.884 131.768C407.568 131.192 408.228 130.556 408.852 129.848L408.624 128.972C408.288 129.356 407.976 129.704 407.676 130.016V124.868H405.144ZM421.164 129.776C420.108 130.232 418.86 130.592 417.444 130.856L417.552 131.684C418.908 131.408 420.108 131.048 421.164 130.592V129.776ZM419.268 121.172C418.836 122.624 418.332 123.908 417.744 125.024C417.648 125.168 417.528 125.276 417.396 125.336L417.612 126.08C418.224 125.984 418.836 125.876 419.448 125.756C418.872 126.908 418.38 127.724 417.984 128.204C417.876 128.3 417.756 128.372 417.612 128.432L417.828 129.188C418.884 129.044 420 128.792 421.152 128.42V127.652C420.372 127.916 419.592 128.12 418.8 128.276C419.448 127.4 420.24 125.936 421.2 123.896L420.444 123.62C420.228 124.112 420.012 124.568 419.82 125C419.34 125.096 418.86 125.18 418.392 125.252C418.956 124.316 419.508 123.056 420.06 121.484L419.268 121.172ZM424.416 122.96V126.308H422.472V122.96H424.416ZM424.416 127.088V130.568H422.472V127.088H424.416ZM425.208 130.568V127.088H427.14V130.568H425.208ZM425.208 126.308V122.96H427.14V126.308H425.208ZM427.14 131.36V132.14H427.956V122.156H421.68V132.14H422.472V131.36H427.14ZM439.908 122.276H435.768V131.672H436.608V130.94H439.068V131.672H439.908V122.276ZM436.608 130.1V123.116H439.068V130.1H436.608ZM431.76 121.16C431.64 121.916 431.496 122.66 431.352 123.38H429.768V124.22H431.172C430.884 125.456 430.56 126.596 430.188 127.652C430.932 128.18 431.616 128.696 432.24 129.176C431.616 130.052 430.824 130.808 429.84 131.444L430.416 132.152C431.412 131.468 432.24 130.652 432.9 129.704C433.548 130.22 434.1 130.7 434.556 131.144L435.144 130.448C434.676 130.016 434.076 129.524 433.356 128.972C434.16 127.544 434.616 125.852 434.736 123.884V123.38H432.24C432.372 122.72 432.504 122 432.636 121.232L431.76 121.16ZM432.684 128.468C432.216 128.132 431.7 127.772 431.148 127.4C431.46 126.56 431.772 125.492 432.06 124.22H433.92C433.788 125.816 433.38 127.232 432.684 128.468ZM442.02 121.832V122.684H446.604V132.224H447.48V125.408C448.56 125.984 449.904 126.8 451.5 127.856L452.016 127.088C450.48 126.104 448.968 125.24 447.48 124.496V122.684H452.688V121.832H442.02ZM456.6 123.692C456.384 123.692 456.216 123.764 456.072 123.92C455.928 124.052 455.868 124.22 455.868 124.436C455.868 124.64 455.928 124.808 456.072 124.952C456.216 125.096 456.384 125.168 456.6 125.168C456.804 125.168 456.984 125.096 457.128 124.952C457.272 124.808 457.344 124.64 457.344 124.436C457.344 124.22 457.272 124.052 457.128 123.92C456.984 123.764 456.804 123.692 456.6 123.692ZM456.6 128.084C456.384 128.084 456.216 128.156 456.072 128.312C455.928 128.444 455.868 128.612 455.868 128.828C455.868 129.032 455.928 129.2 456.072 129.344C456.216 129.488 456.384 129.56 456.6 129.56C456.804 129.56 456.984 129.488 457.128 129.344C457.272 129.2 457.344 129.032 457.344 128.828C457.344 128.612 457.272 128.444 457.128 128.312C456.984 128.156 456.804 128.084 456.6 128.084Z" fill="#578CDB"/>
<path d="M272.03 310.58V314.26H278.01V310.58H272.03ZM277.31 313.62H272.73V312.74H277.31V313.62ZM272.73 312.13V311.22H277.31V312.13H272.73ZM270.91 307.73V308.39H274C273.22 309.09 272.03 309.68 270.43 310.14L270.81 310.78C272.56 310.15 273.83 309.35 274.61 308.39H274.67V310.26H275.37V308.39H275.43C276.17 309.37 277.44 310.16 279.24 310.77L279.55 310.12C277.97 309.7 276.81 309.12 276.06 308.39H279.13V307.73H275.37V306.81H274.67V307.73H270.91ZM270.71 315.04V315.71H279.3V315.04H270.71ZM281.42 308.67V309.29H284.26C284.13 309.51 283.98 309.74 283.82 309.97H280.88V310.61H283.32C282.61 311.45 281.71 312.23 280.62 312.97L281.01 313.59C281.63 313.17 282.19 312.72 282.7 312.26V316.01H283.39V315.58H287.91V316.01H288.6V311.3H283.64C283.83 311.08 284.01 310.85 284.19 310.61H289.6V309.97H284.63C284.76 309.75 284.89 309.53 285.01 309.29H289.02V308.67H285.3C285.4 308.42 285.5 308.16 285.59 307.89C286.85 307.79 287.95 307.64 288.9 307.43L288.57 306.86C286.7 307.24 284.35 307.43 281.51 307.43L281.72 308.03C282.86 308.03 283.92 308 284.9 307.94C284.8 308.18 284.7 308.43 284.59 308.67H281.42ZM283.39 313.12H287.91V313.75H283.39V313.12ZM287.91 312.56H283.39V311.89H287.91V312.56ZM283.39 314.31H287.91V314.99H283.39V314.31ZM296.66 309.38V310.83H294.62V311.51H296.66V313.02H294.11V313.71H296.66V315.99H297.38V313.71H299.97V313.02H297.38V311.51H299.44V310.83H297.38V309.38H299.74V308.7H298.22C298.54 308.2 298.82 307.64 299.07 307.02L298.38 306.78C298.13 307.46 297.84 308.1 297.51 308.7H294.33V309.38H296.66ZM295.51 306.82L294.9 307.11C295.26 307.57 295.59 308.1 295.9 308.68L296.49 308.38C296.18 307.82 295.85 307.3 295.51 306.82ZM292.04 306.97L291.54 307.44C292.23 307.98 292.77 308.48 293.16 308.96L293.64 308.46C293.21 307.96 292.68 307.47 292.04 306.97ZM290.82 309.89V310.58H292.23V314.55C292.23 314.72 292.15 314.87 292 315.01L292.27 315.64C292.84 315.16 293.39 314.63 293.91 314.04L293.72 313.31C293.44 313.63 293.18 313.92 292.93 314.18V309.89H290.82ZM305.6 313.12H308.77V313.82H305.6V313.12ZM308.77 312.56H305.6V311.82H308.77V312.56ZM305.6 314.37H308.77V314.96C308.77 315.2 308.65 315.33 308.42 315.33L307.67 315.29L307.85 315.93H308.63C309.18 315.93 309.46 315.65 309.46 315.11V311.22H304.92V315.98H305.6V314.37ZM306.86 306.83V307.47H304.51V308.06H306.86V308.75H304.85V309.33H306.86V310H304.21V310.07C304.05 309.5 303.86 308.99 303.66 308.54L303.14 308.7C303.39 309.28 303.6 309.89 303.76 310.52L304.21 310.41V310.6H310.19V310H307.58V309.33H309.57V308.75H307.58V308.06H309.9V307.47H307.58V306.83H306.86ZM301.3 308.76C301.28 309.72 301.17 310.64 300.97 311.51L301.52 311.66C301.72 310.76 301.84 309.81 301.86 308.8L301.3 308.76ZM302.32 306.86V315.96H303.02V306.86H302.32Z" fill="#A9A9A9"/>
<rect x="331" y="153" width="131" height="20" rx="4" fill="#EEEEEE"/>
<rect x="331" y="182" width="65" height="20" rx="4" fill="#EEEEEE"/>
<rect x="331" y="211" width="111" height="20" rx="4" fill="#EEEEEE"/>
<rect x="331" y="240" width="104" height="20" rx="4" fill="#EEEEEE"/>
<line x1="256" y1="298.75" x2="486" y2="298.75" stroke="#E8E8E8" stroke-width="0.5"/>
<line x1="54" y1="63.75" x2="339" y2="63.75" stroke="#EEEEEE" stroke-width="0.5"/>
<defs>
<filter id="filter0_d" x="38" y="0" width="317" height="443" filterUnits="userSpaceOnUse" color-interpolation-filters="sRGB">
<feFlood flood-opacity="0" result="BackgroundImageFix"/>
<feColorMatrix in="SourceAlpha" type="matrix" values="0 0 0 0 0 0 0 0 0 0 0 0 0 0 0 0 0 0 127 0"/>
<feOffset dy="4"/>
<feGaussianBlur stdDeviation="8"/>
<feColorMatrix type="matrix" values="0 0 0 0 0 0 0 0 0 0 0 0 0 0 0 0 0 0 0.08 0"/>
<feBlend mode="normal" in2="BackgroundImageFix" result="effect1_dropShadow"/>
<feBlend mode="normal" in="SourceGraphic" in2="effect1_dropShadow" result="shape"/>
</filter>
<filter id="filter1_d" x="0" y="73" width="246" height="262" filterUnits="userSpaceOnUse" color-interpolation-filters="sRGB">
<feFlood flood-opacity="0" result="BackgroundImageFix"/>
<feColorMatrix in="SourceAlpha" type="matrix" values="0 0 0 0 0 0 0 0 0 0 0 0 0 0 0 0 0 0 127 0"/>
<feOffset dy="2"/>
<feGaussianBlur stdDeviation="4"/>
<feColorMatrix type="matrix" values="0 0 0 0 0 0 0 0 0 0 0 0 0 0 0 0 0 0 0.08 0"/>
<feBlend mode="normal" in2="BackgroundImageFix" result="effect1_dropShadow"/>
<feBlend mode="normal" in="SourceGraphic" in2="effect1_dropShadow" result="shape"/>
</filter>
<filter id="filter2_d" x="248" y="73" width="246" height="262" filterUnits="userSpaceOnUse" color-interpolation-filters="sRGB">
<feFlood flood-opacity="0" result="BackgroundImageFix"/>
<feColorMatrix in="SourceAlpha" type="matrix" values="0 0 0 0 0 0 0 0 0 0 0 0 0 0 0 0 0 0 127 0"/>
<feOffset dy="2"/>
<feGaussianBlur stdDeviation="4"/>
<feColorMatrix type="matrix" values="0 0 0 0 0 0 0 0 0 0 0 0 0 0 0 0 0 0 0.08 0"/>
<feBlend mode="normal" in2="BackgroundImageFix" result="effect1_dropShadow"/>
<feBlend mode="normal" in="SourceGraphic" in2="effect1_dropShadow" result="shape"/>
</filter>
</defs>
</svg>
