<svg width="85" height="85" fill="none" xmlns="http://www.w3.org/2000/svg"><path fill="#fff" d="M0 0h85v85H0z"/><path d="M59.693 18.083a5.231 5.231 0 00-7.398 0L18.082 52.296a5.231 5.231 0 000 7.398l8.322 8.322a2.622 2.622 0 003.699 0l2.774-2.774a2.615 2.615 0 000-3.699l-6.01-6.01a1.962 1.962 0 012.774-2.774l6.01 6.01a2.615 2.615 0 003.699-3.699l-6.01-6.01a1.962 1.962 0 012.774-2.774l6.01 6.01a2.615 2.615 0 103.699-3.698l-6.01-6.01a1.962 1.962 0 012.773-2.775l6.01 6.01a2.615 2.615 0 003.7-3.698l-6.011-6.01a1.962 1.962 0 012.774-2.775l6.01 6.01a2.615 2.615 0 103.7-3.698l-6.011-6.01a1.958 1.958 0 010-2.774 1.962 1.962 0 012.774 0l6.01 6.01a2.615 2.615 0 003.699 0l2.774-2.774a2.615 2.615 0 000-3.699l-8.322-8.322z" fill="#B4CFF6"/><path d="M49.82 58.13l.837.692 1.031-.344 2.774-.924 1.972-.658.272.226.118-.356.202-.067-.124-.168.71-2.127.924-2.774.33-.991-.638-.828-9.598-12.433-.043-.056-.046-.051c-7.736-8.674-14.562-14.064-19.706-17.123-2.564-1.525-4.757-2.499-6.47-2.996-.848-.247-1.653-.398-2.366-.409-.597-.009-1.633.069-2.396.832-.78.78-.835 1.832-.81 2.43.028.71.204 1.505.474 2.334.544 1.676 1.575 3.818 3.152 6.329 3.165 5.038 8.654 11.76 17.315 19.485l.028.025.03.024 12.027 9.928z" fill="#176BE8" stroke="#fff" stroke-width="3.923"/><circle cx="62.037" cy="50.942" r="5.825" transform="rotate(-45 62.037 50.942)" stroke="#176BE8" stroke-width="2.734"/><circle cx="50.941" cy="62.038" r="5.825" transform="rotate(-45 50.941 62.038)" stroke="#176BE8" stroke-width="2.734"/><circle cx="43.807" cy="43.808" r="1.962" fill="#fff"/></svg>