<svg width="85" height="85" fill="none" xmlns="http://www.w3.org/2000/svg"><path fill="#fff" d="M0 0h85v85H0z"/><path fill="#B4CFF6" d="M28.77 39.231h27.462v7.846H28.77z"/><rect x="69.923" y="39.231" width="3.923" height="7.846" rx="1.962" fill="#B4CFF6"/><rect x="11.154" y="39.231" width="3.923" height="7.846" rx="1.962" fill="#B4CFF6"/><path d="M13.77 34a3.923 3.923 0 017.846 0v18.308a3.923 3.923 0 01-7.846 0V34zm57.46 18.308a3.923 3.923 0 01-7.846 0V34a3.923 3.923 0 017.847 0v18.308z" fill="#B4CFF6"/><rect x="24" y="24" width="9" height="39" rx="3.923" fill="#176BE8"/><rect x="61" y="63" width="9" height="39" rx="3.923" transform="rotate(-180 61 63)" fill="#176BE8"/></svg>