<svg width="85" height="85" fill="none" xmlns="http://www.w3.org/2000/svg"><path fill="#fff" d="M0 0h85v85H0z"/><path d="M17 25.629a2.5 2.5 0 011.148-2.103l14.995-9.64a2.5 2.5 0 012.702 0l14.995 9.64a2.5 2.5 0 011.148 2.103V65.5a2.5 2.5 0 01-2.5 2.5H19.5a2.5 2.5 0 01-2.5-2.5V25.63z" fill="#B4CFF6"/><rect x="21.998" y="31.762" width="14.995" height="4.998" rx="2.499" fill="#fff"/><rect x="21.998" y="43.008" width="14.995" height="4.998" rx="2.499" fill="#fff"/><rect x="21.998" y="54.255" width="14.995" height="4.998" rx="2.499" fill="#fff"/><path d="M44.491 35.511l-1.599-.978-.275.45v31.769a3.124 3.124 0 003.124 3.123h1.25a3.124 3.124 0 003.123-3.124V54.063a8.786 8.786 0 011.562-.145c2.571 0 4.811.656 6.253 1.483 2.07 1.185 4.965 1.978 8.117 1.978 3.022 0 5.67-1.236 7.454-2.212a3.1 3.1 0 001.606-2.723V36.293c0-2.47-2.592-3.782-4.58-2.847-1.386.653-2.914 1.152-4.48 1.152-2.57 0-4.81-.656-6.253-1.482-2.069-1.186-4.964-1.978-8.117-1.978-2.994 0-5.626 1.144-7.44 2.12-.464.25-.792.575-.985.795a3.914 3.914 0 00-.34.45l-.01.017-.005.007-.002.003-.001.002h0c0 .001-.001.002 1.598.98z" fill="#176BE8" stroke="#fff" stroke-width="3.749"/></svg>