<svg width="85" height="85" fill="none" xmlns="http://www.w3.org/2000/svg"><path fill="#fff" d="M0 0h85v85H0z"/><path d="M66.7 37.095A28.98 28.98 0 0052.925 31.1a28.51 28.51 0 00-1.842-.21L52 37.084a16.47 16.47 0 01-16.292 18.875c-.078 0-.157-.01-.242-.011a14.889 14.889 0 0029.096-1.725l2.43-16.396a.784.784 0 00-.293-.732zM53.992 61.37a.784.784 0 01-.89.661l-9.305-1.378a.784.784 0 01-.66-.89 5.486 5.486 0 019.842-2.478 5.488 5.488 0 011.013 4.085zm5.398-15.05a1.57 1.57 0 01-1.17 1.291c-.2.05-.407.06-.61.03l-2.327-.344a1.568 1.568 0 11.46-3.102l2.325.345a1.567 1.567 0 011.321 1.78z" fill="#B4CFF6"/><path d="M46.294 19.063a28.837 28.837 0 00-28.69 4.247.784.784 0 00-.288.728l2.43 16.397a14.894 14.894 0 1029.465-4.363l-2.43-16.395a.783.783 0 00-.487-.614zM24.91 32.537a1.568 1.568 0 011.322-1.78l2.327-.341a1.566 1.566 0 011.815 1.316 1.565 1.565 0 01-1.356 1.785l-2.326.345a1.566 1.566 0 01-1.782-1.325zM35.852 47.56a5.494 5.494 0 01-6.232-4.625.784.784 0 01.66-.89l9.306-1.377a.784.784 0 01.89.66 5.493 5.493 0 01-4.624 6.232zm4.798-15.767l-2.327.345a1.568 1.568 0 01-.46-3.102l2.328-.344a1.568 1.568 0 01.459 3.101z" fill="#176BE8"/></svg>