<svg width="85" height="85" fill="none" xmlns="http://www.w3.org/2000/svg"><path fill="#fff" d="M0 0h85v85H0z"/><path d="M36.786 51.895a2.615 2.615 0 013.083-.48l8.06 4.244 6.36-7.077a2.615 2.615 0 013.886-.005l14.39 15.931c.759.841.162 2.184-.971 2.184H22.23l14.556-14.797z" fill="#B4CFF6"/><path d="M37.669 31.161c1.635 7.491 6.646 13.05 15.675 14.019 4.902-12.09-6.873-22.452-15.835-23.575-9.886-2.544-24.444 8.747-21.808 21.486C20.273 45 32.779 39.283 37.67 31.16z" fill="#176BE8"/><path d="M25.266 42.977l-.456.152-.181.445c-1.475 3.61-2.984 7.892-4.127 12.004-1.138 4.091-1.935 8.095-1.935 11.114v1.047h11.736v-1.047c0-1.98.371-6.651 1.238-12.07.867-5.417 2.217-11.494 4.144-16.31l-1.659-1.177c-3.193 2.786-5.583 4.782-8.76 5.842z" fill="#176BE8" stroke="#fff" stroke-width="2.092"/><path d="M40.797 22.467c-7.682-8.829-23.17-7.977-27.361-2.63 2.254 2.394 4.87 3.701 7.485 4.355 5.032-4.145 13.858-3.814 18.962-1.962.302.068.607.147.914.237z" fill="#176BE8"/><path d="M39.325 22.682c5.615.77 11.89 3.083 15.597 8.703 3.923.653 6.302.712 8.866-1.877-6.258-9.588-18.245-10.097-24.463-6.826z" fill="#176BE8"/></svg>