<svg width="85" height="85" fill="none" xmlns="http://www.w3.org/2000/svg"><path fill="#fff" d="M0 0h85v85H0z"/><rect x="14.385" y="23.863" width="55.17" height="36.073" rx="3.183" fill="#B4CFF6"/><path d="M59.476 32.409c-6.103 0-12.731 4.645-12.731 12.731 0 1.923.668 3.927 1.566 5.78.907 1.873 2.11 3.718 3.316 5.353a60.214 60.214 0 005.424 6.331l1.125-1.125-1.125 1.125c.69.69 1.66 1.023 2.425 1.023.765 0 1.736-.333 2.425-1.023.49-.489 3.012-3.06 5.424-6.33 1.206-1.636 2.409-3.48 3.316-5.355.898-1.852 1.566-3.856 1.566-5.779 0-8.086-6.628-12.731-12.731-12.731zm0 14.853a2.133 2.133 0 01-2.122-2.122c0-1.163.959-2.122 2.122-2.122 1.163 0 2.122.959 2.122 2.122a2.133 2.133 0 01-2.122 2.122z" stroke="#fff" stroke-width="3.183"/><circle cx="60.131" cy="44.486" r="5.242" fill="#fff"/><path d="M59.476 34c-5.384 0-11.14 4.085-11.14 11.14 0 6.313 8.912 15.41 9.84 16.339.372.371.929.557 1.3.557s.928-.186 1.3-.557c.928-.928 9.84-10.026 9.84-16.339 0-7.055-5.756-11.14-11.14-11.14zm0 14.854a3.724 3.724 0 01-3.713-3.714 3.724 3.724 0 013.713-3.713 3.724 3.724 0 013.713 3.713 3.724 3.724 0 01-3.713 3.714z" fill="#176BE8"/><circle cx="31.361" cy="23.863" r="4.244" fill="#fff"/><circle cx="31.361" cy="59.936" r="4.244" fill="#fff"/><rect x="30.299" y="30.229" width="2.122" height="4.244" rx="1.061" fill="#fff"/><rect x="30.299" y="36.595" width="2.122" height="4.244" rx="1.061" fill="#fff"/><rect x="30.299" y="42.961" width="2.122" height="4.244" rx="1.061" fill="#fff"/><rect x="30.299" y="49.326" width="2.122" height="4.244" rx="1.061" fill="#fff"/><path d="M66.692 56.885l3.27-1.308.653 5.885h-5.23l1.307-4.577z" fill="#fff"/></svg>