<svg width="516" height="428" fill="none" xmlns="http://www.w3.org/2000/svg"><path fill="#F6F9FD" d="M0 0h516v428H0z"/><path d="M516 0H0v428h83V48c0-11.046 8.954-20 20-20h309c11.046 0 20 8.954 20 20v380h84V0z" fill="#F6F9FD"/><g filter="url(#filter0_d)"><path d="M83.5 48c0-11.046 8.954-20 20-20h309c11.046 0 20 8.954 20 20v240h-349V48z" fill="#fff"/></g><path fill="url(#paint0_linear)" d="M83.5 288h349v140h-349z"/><path fill-rule="evenodd" clip-rule="evenodd" d="M102.5 82a4 4 0 00-4 4v32a4 4 0 004 4h311a4 4 0 004-4V86a4 4 0 00-4-4h-311z" fill="#F2F4F7"/><rect x="106.5" y="139" width="48" height="48" rx="4" fill="#F2F4F7"/><rect x="106.5" y="207" width="48" height="48" rx="4" fill="#F2F4F7"/><rect opacity=".6" x="106.5" y="275" width="48" height="48" rx="4" fill="#F2F4F7"/><rect x="165.5" y="139" width="119" height="20" rx="4" fill="#F2F4F7"/><rect x="165.5" y="207" width="92" height="20" rx="4" fill="#F2F4F7"/><rect opacity=".6" x="165.5" y="275" width="106" height="20" rx="4" fill="#F2F4F7"/><rect x="165.5" y="167" width="214" height="20" rx="4" fill="#F2F4F7"/><rect x="165.5" y="235" width="242" height="20" rx="4" fill="#F2F4F7"/><rect opacity=".6" x="165.5" y="303" width="201" height="20" rx="4" fill="#F2F4F7"/><defs><linearGradient id="paint0_linear" x1="258" y1="298" x2="258" y2="428" gradientUnits="userSpaceOnUse"><stop stop-color="#fff"/><stop offset="1" stop-color="#fff" stop-opacity="0"/></linearGradient><filter id="filter0_d" x="65.5" y="10" width="385" height="296" filterUnits="userSpaceOnUse" color-interpolation-filters="sRGB"><feFlood flood-opacity="0" result="BackgroundImageFix"/><feColorMatrix in="SourceAlpha" values="0 0 0 0 0 0 0 0 0 0 0 0 0 0 0 0 0 0 127 0"/><feOffset/><feGaussianBlur stdDeviation="9"/><feColorMatrix values="0 0 0 0 0.0611131 0 0 0 0 0.372468 0 0 0 0 0.839501 0 0 0 0.08 0"/><feBlend in2="BackgroundImageFix" result="effect1_dropShadow"/><feBlend in="SourceGraphic" in2="effect1_dropShadow" result="shape"/></filter></defs></svg>