<svg width="396" height="487" viewBox="0 0 396 487" fill="none" xmlns="http://www.w3.org/2000/svg">
<g filter="url(#filter0_d)">
<rect x="24" y="20" width="348" height="395" rx="6" fill="white"/>
</g>
<path opacity="0.7" d="M63.61 60.0354C63.0426 61.8389 62.4144 63.3992 61.6849 64.7163H50.54V66.4995H67.764V64.7163H63.7518C64.4408 63.4802 65.0284 62.0821 65.5147 60.542L63.61 60.0354ZM54.4103 60.2178L52.6474 60.7852C53.2959 61.92 53.8024 63.1155 54.2077 64.3718L55.9504 63.926C55.4843 62.5279 54.9777 61.2918 54.4103 60.2178ZM59.0912 59.8126L57.308 60.3799C57.8349 61.5957 58.2604 62.8521 58.6049 64.1692L60.3273 63.7437C59.9625 62.2644 59.5573 60.9473 59.0912 59.8126ZM53.8227 58.0294V59.4681H64.461V58.0496C65.3932 58.4752 66.4063 58.8804 67.4803 59.2452L68.4124 57.5836C65.1297 56.5501 62.2523 55.1317 59.7396 53.3485H58.5238C56.2138 55.0101 53.3364 56.4083 49.8511 57.543L50.7832 59.2249C51.8369 58.8399 52.8501 58.4346 53.8227 58.0294ZM63.8937 57.7862H54.3496C56.1935 56.9149 57.7943 55.9625 59.1317 54.9088C60.5097 55.9828 62.1105 56.9351 63.8937 57.7862ZM53.2959 51.6869H54.6332C54.9575 52.4366 55.2412 53.2067 55.4843 54.0172L57.227 53.389C57.0446 52.8622 56.8217 52.2948 56.538 51.6869H59.0709V49.9848H54.0253C54.1672 49.5795 54.309 49.1742 54.4509 48.7284L52.5866 48.3232C52.0598 50.1063 51.1885 51.768 49.9321 53.3282L51.5937 54.3819C52.2219 53.5714 52.7893 52.6595 53.2959 51.6869ZM61.7863 51.6869H63.3871C63.8126 52.4974 64.1976 53.3282 64.5218 54.2198L66.2847 53.5511C66.0416 52.9838 65.7376 52.3556 65.3526 51.6869H68.2098V49.9848H62.5157C62.6576 49.5795 62.7994 49.1742 62.921 48.7284L61.0973 48.3232C60.692 49.8227 60.0031 51.2006 59.0709 52.4974L60.692 53.5309C61.0973 52.9635 61.462 52.3353 61.7863 51.6869ZM80.7731 63.2573C79.456 63.541 78.1186 63.8247 76.761 64.0679V61.0486H80.1855V59.2046H76.761V57.0567H74.8157V59.2046H71.0669V61.0486H74.8157V64.3921C73.2959 64.615 71.7559 64.8176 70.1956 64.9797L70.6414 66.8237C74.2483 66.3779 77.612 65.8105 80.7731 65.1621V63.2573ZM70.4995 49.1134V50.9371H73.5391C72.4448 53.0851 71.5735 54.4427 70.9251 54.9898C70.763 55.0709 70.4995 55.1317 70.1753 55.1722L70.6009 56.8946C73.5796 56.5907 76.3354 56.2057 78.8886 55.7396C79.1723 56.2664 79.456 56.773 79.7194 57.2594L81.3202 56.1449C80.611 54.8277 79.5776 53.2877 78.2402 51.5045L76.761 52.4569C77.2068 53.0851 77.612 53.7132 78.0173 54.3211C76.457 54.5846 74.8765 54.8075 73.2554 54.9696C73.9646 54.0172 74.7549 52.6798 75.6059 50.9371H80.6921V49.1134H70.4995ZM85.9606 66.9048C87.3182 66.9048 88.0072 66.2158 88.0072 64.8379V48.4447H86.0619V64.3516C86.0619 64.8784 85.7985 65.1418 85.2919 65.1418C84.4206 65.1418 83.5087 65.1013 82.536 65.0405L82.9616 66.9048H85.9606ZM82.1105 50.2685V62.69H83.9748V50.2685H82.1105ZM92.9515 48.6879L91.6343 49.9442C93.0325 50.9979 94.1268 52.0111 94.8968 52.9635L96.2139 51.6261C95.3223 50.6535 94.2483 49.6605 92.9515 48.6879ZM90.3577 54.463V56.307H93.0325V63.6829C93.0325 64.1084 92.8502 64.4731 92.5259 64.7568L93.2554 66.4995C94.7347 65.5471 96.1328 64.4529 97.45 63.2371L96.9231 61.2107C96.1936 61.8997 95.5249 62.5076 94.8968 63.0344V54.463H90.3577ZM97.5918 56.8743V58.7386H98.7468C99.2332 60.3597 100.186 61.8389 101.563 63.1763C100.104 64.1489 98.301 64.9392 96.1531 65.5674L97.2271 67.1885C99.5371 66.4995 101.503 65.5876 103.083 64.4529C104.461 65.4661 106.143 66.3982 108.169 67.2087L109.203 65.5471C107.379 64.8987 105.799 64.1287 104.502 63.2776C105.859 61.9807 106.832 60.4407 107.42 58.6373V56.8743H97.5918ZM100.55 58.7386H105.474C104.887 59.9949 104.036 61.1094 102.941 62.1023C101.807 61.0891 101.016 59.9747 100.55 58.7386ZM99.0103 49.0526V51.6666C99.0103 53.0445 98.1389 54.1185 96.4368 54.8885L97.7134 56.3678C99.8411 55.2127 100.915 53.5714 100.915 51.464V50.8561H104.279V53.7335C104.279 55.0709 104.988 55.7599 106.427 55.7599H108.716V53.9969H106.933C106.427 53.9969 106.184 53.7538 106.184 53.308V49.0526H99.0103ZM111.168 54.0375V55.4762H118.686C118.625 55.7599 118.565 56.0638 118.504 56.388H113.661V65.2229H110.804V66.7224H129.041V65.2229H126.184V56.388H120.388L120.591 55.4762H128.676V54.0375H120.834C120.875 53.7132 120.895 53.4093 120.935 53.0851H127.399V49.0526H112.445V53.0851H119.01C118.97 53.389 118.95 53.7132 118.909 54.0375H111.168ZM115.566 65.2229V64.1489H124.279V65.2229H115.566ZM115.566 63.0142V62.001H124.279V63.0142H115.566ZM115.566 60.846V59.8328H124.279V60.846H115.566ZM115.566 58.6778V57.6849H124.279V58.6778H115.566ZM125.576 51.768H123.022V50.4508H125.576V51.768ZM121.3 51.768H118.544V50.4508H121.3V51.768ZM116.822 51.768H114.269V50.4508H116.822V51.768Z" fill="#2C2C2C"/>
<line x1="49" y1="86.7335" x2="348" y2="86.7335" stroke="#E6EAEF" stroke-width="2.53293" stroke-dasharray="5.07 5.07"/>
<g filter="url(#filter1_d)">
<rect x="48" y="186" width="300" height="273" rx="6" fill="white"/>
</g>
<path opacity="0.8" d="M113.64 214.016V215.504H120.168V219.376H114.072V220.832H120.168V224.944H113.336V226.432H120.168V227.264H121.704V214.016H113.64ZM113.128 219.232C112.552 219.504 111.976 219.76 111.4 220V217.152H113.016V215.696H111.4V212.896H109.88V215.696H107.832V217.152H109.88V220.528C109.144 220.752 108.392 220.928 107.64 221.088L107.992 222.544C108.632 222.368 109.256 222.176 109.88 221.984V225.488C109.88 225.872 109.688 226.08 109.32 226.08C108.952 226.08 108.568 226.048 108.184 226L108.536 227.472H109.848C110.872 227.472 111.4 226.928 111.4 225.872V221.456C111.976 221.232 112.552 221.008 113.128 220.752V219.232ZM129.224 218.384H126.296C126.664 217.376 126.952 216.288 127.16 215.12H129.512V213.648H123.96V215.12H125.72C125.336 217.328 124.6 219.312 123.496 221.072L124.248 222.288C124.52 221.904 124.776 221.504 125.032 221.088V227.12H126.44V226.032H127.816V226.816H129.224V218.384ZM126.44 224.64V219.76H127.816V224.64H126.44ZM131.032 215.808L130.168 221.168H136.632C136.632 223.52 136.504 224.944 136.248 225.44C136.024 225.92 135.304 226.16 134.104 226.16C133.832 226.16 133.352 226.112 132.648 226.032L133.064 227.504C133.544 227.536 134.024 227.568 134.472 227.568C135.944 227.568 136.92 227.264 137.384 226.656C137.832 226.048 138.072 223.744 138.072 219.744H136.44L137.288 213.424H130.152V214.864H135.624L134.904 219.744H131.848L132.52 215.904L131.032 215.808ZM129.8 222.848V224.288H135.752V222.848H129.8ZM150.536 222.08C150.088 223.504 149.592 224.736 149.016 225.776H140.216V227.184H153.816V225.776H150.648C151.192 224.8 151.656 223.696 152.04 222.48L150.536 222.08ZM143.272 222.224L141.88 222.672C142.392 223.568 142.792 224.512 143.112 225.504L144.488 225.152C144.12 224.048 143.72 223.072 143.272 222.224ZM146.968 221.904L145.56 222.352C145.976 223.312 146.312 224.304 146.584 225.344L147.944 225.008C147.656 223.84 147.336 222.8 146.968 221.904ZM142.808 220.496V221.632H151.208V220.512C151.944 220.848 152.744 221.168 153.592 221.456L154.328 220.144C151.736 219.328 149.464 218.208 147.48 216.8H146.52C144.696 218.112 142.424 219.216 139.672 220.112L140.408 221.44C141.24 221.136 142.04 220.816 142.808 220.496ZM150.76 220.304H143.224C144.68 219.616 145.944 218.864 147 218.032C148.088 218.88 149.352 219.632 150.76 220.304ZM142.392 215.488H143.448C143.704 216.08 143.928 216.688 144.12 217.328L145.496 216.832C145.352 216.416 145.176 215.968 144.952 215.488H146.952V214.144H142.968C143.08 213.824 143.192 213.504 143.304 213.152L141.832 212.832C141.416 214.24 140.728 215.552 139.736 216.784L141.048 217.616C141.544 216.976 141.992 216.256 142.392 215.488ZM149.096 215.488H150.36C150.696 216.128 151 216.784 151.256 217.488L152.648 216.96C152.456 216.512 152.216 216.016 151.912 215.488H154.168V214.144H149.672C149.784 213.824 149.896 213.504 149.992 213.152L148.552 212.832C148.232 214.016 147.688 215.104 146.952 216.128L148.232 216.944C148.552 216.496 148.84 216 149.096 215.488ZM164.088 224.624C163.048 224.848 161.992 225.072 160.92 225.264V222.88H163.624V221.424H160.92V219.728H159.384V221.424H156.424V222.88H159.384V225.52C158.184 225.696 156.968 225.856 155.736 225.984L156.088 227.44C158.936 227.088 161.592 226.64 164.088 226.128V224.624ZM155.976 213.456V214.896H158.376C157.512 216.592 156.824 217.664 156.312 218.096C156.184 218.16 155.976 218.208 155.72 218.24L156.056 219.6C158.408 219.36 160.584 219.056 162.6 218.688C162.824 219.104 163.048 219.504 163.256 219.888L164.52 219.008C163.96 217.968 163.144 216.752 162.088 215.344L160.92 216.096C161.272 216.592 161.592 217.088 161.912 217.568C160.68 217.776 159.432 217.952 158.152 218.08C158.712 217.328 159.336 216.272 160.008 214.896H164.024V213.456H155.976ZM168.184 227.504C169.256 227.504 169.8 226.96 169.8 225.872V212.928H168.264V225.488C168.264 225.904 168.056 226.112 167.656 226.112C166.968 226.112 166.248 226.08 165.48 226.032L165.816 227.504H168.184ZM165.144 214.368V224.176H166.616V214.368H165.144Z" fill="#2C2C2C"/>
<path d="M74 219.875H92" stroke="#96A8CD" stroke-width="2.4" stroke-linecap="square" stroke-linejoin="round"/>
<path d="M75.2 215.075V212.675C75.2 212.357 75.3264 212.051 75.5515 211.826C75.7765 211.601 76.0817 211.475 76.4 211.475H78.8" stroke="#96A8CD" stroke-width="2.4" stroke-linecap="square" stroke-linejoin="round"/>
<path d="M90.8 215.075V212.675C90.8 212.357 90.6736 212.051 90.4485 211.826C90.2235 211.601 89.9183 211.475 89.6 211.475H87.2" stroke="#96A8CD" stroke-width="2.4" stroke-linecap="square" stroke-linejoin="round"/>
<path d="M75.2 224.675V227.075C75.2 227.393 75.3264 227.699 75.5515 227.924C75.7765 228.149 76.0817 228.275 76.4 228.275H78.8" stroke="#96A8CD" stroke-width="2.4" stroke-linecap="square" stroke-linejoin="round"/>
<path d="M90.8 224.675V227.075C90.8 227.393 90.6736 227.699 90.4485 227.924C90.2235 228.149 89.9183 228.275 89.6 228.275H87.2" stroke="#96A8CD" stroke-width="2.4" stroke-linecap="square" stroke-linejoin="round"/>
<line x1="69" y1="253" x2="305" y2="253" stroke="#F7F9FA" stroke-width="2"/>
<line x1="69" y1="321" x2="305" y2="321" stroke="#F7F9FA" stroke-width="2"/>
<line x1="69" y1="389" x2="305" y2="389" stroke="#F7F9FA" stroke-width="2"/>
<rect x="48" y="112" width="300" height="65" rx="5.06587" fill="#EDF1F8"/>
<path opacity="0.8" d="M71.16 137.04L70.12 138.032C71.256 138.96 72.136 139.824 72.744 140.624L73.816 139.568C73.096 138.736 72.216 137.888 71.16 137.04ZM80.328 151.376H84.008L84.392 149.872C83.944 149.904 83.32 149.936 82.52 149.952C81.704 149.968 80.904 149.984 80.12 149.984C78.872 149.984 77.8 149.968 76.904 149.952C75.944 149.92 75.24 149.776 74.76 149.552C74.376 149.344 73.992 149.024 73.608 148.592C73.528 148.496 73.448 148.432 73.384 148.368V142.304H69.816V143.712H71.96V148.24C71.32 148.56 70.584 149.376 69.784 150.688L70.904 151.728C71.72 150.272 72.296 149.552 72.648 149.552C72.824 149.552 73.032 149.68 73.256 149.952C73.736 150.496 74.296 150.88 74.936 151.072C75.592 151.232 76.44 151.328 77.48 151.344C78.504 151.36 79.464 151.376 80.328 151.376ZM78.792 136.832V138.752H77.096C77.256 138.32 77.4 137.856 77.544 137.376L76.088 137.088C75.72 138.448 75.112 139.728 74.248 140.928L75.56 141.744C75.88 141.264 76.168 140.752 76.456 140.208H78.792V142.192H74.664V143.648H77.112C77.048 144.528 76.904 145.28 76.664 145.888C76.28 146.8 75.448 147.568 74.184 148.192L75.176 149.376C76.68 148.576 77.64 147.584 78.056 146.368C78.328 145.6 78.488 144.688 78.552 143.648H79.88V147.904C79.88 148.288 79.992 148.624 80.248 148.896C80.488 149.136 80.84 149.264 81.32 149.264H82.456C83.016 149.248 83.4 149.12 83.624 148.896C83.848 148.656 84.024 147.84 84.152 146.464L82.824 146.016C82.776 147.104 82.68 147.696 82.552 147.808C82.44 147.904 82.296 147.968 82.136 147.968H81.784C81.464 147.968 81.304 147.824 81.304 147.568V143.648H83.896V142.192H80.264V140.208H83.336V138.752H80.264V136.832H78.792ZM91.512 137.424V138.784H92.408C92.808 139.888 93.432 140.832 94.296 141.6C93.352 142.016 92.232 142.368 90.936 142.656L91.672 143.952C93.208 143.584 94.536 143.12 95.64 142.56C96.776 143.2 98.2 143.616 99.928 143.84L100.472 142.48C99.16 142.336 98.008 142.064 97.048 141.664C98.12 140.832 98.856 139.856 99.24 138.704V137.424H91.512ZM93.896 138.784H97.672C97.24 139.584 96.552 140.272 95.624 140.88C94.856 140.336 94.28 139.632 93.896 138.784ZM87.608 151.504C88.664 151.504 89.192 150.976 89.192 149.936V145.584C89.768 145.36 90.328 145.104 90.888 144.848V143.312C90.328 143.6 89.768 143.856 89.192 144.08V141.28H90.856V139.824H89.192V136.928H87.656V139.824H85.832V141.28H87.656V144.64C86.952 144.864 86.232 145.04 85.512 145.2L85.896 146.72C86.488 146.544 87.08 146.352 87.656 146.16V149.552C87.656 149.92 87.464 150.112 87.08 150.112C86.696 150.112 86.296 150.08 85.88 150.032L86.216 151.504H87.608ZM91.832 144.848V146.224H94.904V147.712H91V149.12H94.904V151.456H96.376V149.12H100.2V147.712H96.376V146.224H99.384V144.848H96.376V143.616H94.904V144.848H91.832ZM112.536 146.08C112.088 147.504 111.592 148.736 111.016 149.776H102.216V151.184H115.816V149.776H112.648C113.192 148.8 113.656 147.696 114.04 146.48L112.536 146.08ZM105.272 146.224L103.88 146.672C104.392 147.568 104.792 148.512 105.112 149.504L106.488 149.152C106.12 148.048 105.72 147.072 105.272 146.224ZM108.968 145.904L107.56 146.352C107.976 147.312 108.312 148.304 108.584 149.344L109.944 149.008C109.656 147.84 109.336 146.8 108.968 145.904ZM104.808 144.496V145.632H113.208V144.512C113.944 144.848 114.744 145.168 115.592 145.456L116.328 144.144C113.736 143.328 111.464 142.208 109.48 140.8H108.52C106.696 142.112 104.424 143.216 101.672 144.112L102.408 145.44C103.24 145.136 104.04 144.816 104.808 144.496ZM112.76 144.304H105.224C106.68 143.616 107.944 142.864 109 142.032C110.088 142.88 111.352 143.632 112.76 144.304ZM104.392 139.488H105.448C105.704 140.08 105.928 140.688 106.12 141.328L107.496 140.832C107.352 140.416 107.176 139.968 106.952 139.488H108.952V138.144H104.968C105.08 137.824 105.192 137.504 105.304 137.152L103.832 136.832C103.416 138.24 102.728 139.552 101.736 140.784L103.048 141.616C103.544 140.976 103.992 140.256 104.392 139.488ZM111.096 139.488H112.36C112.696 140.128 113 140.784 113.256 141.488L114.648 140.96C114.456 140.512 114.216 140.016 113.912 139.488H116.168V138.144H111.672C111.784 137.824 111.896 137.504 111.992 137.152L110.552 136.832C110.232 138.016 109.688 139.104 108.952 140.128L110.232 140.944C110.552 140.496 110.84 140 111.096 139.488ZM126.088 148.624C125.048 148.848 123.992 149.072 122.92 149.264V146.88H125.624V145.424H122.92V143.728H121.384V145.424H118.424V146.88H121.384V149.52C120.184 149.696 118.968 149.856 117.736 149.984L118.088 151.44C120.936 151.088 123.592 150.64 126.088 150.128V148.624ZM117.976 137.456V138.896H120.376C119.512 140.592 118.824 141.664 118.312 142.096C118.184 142.16 117.976 142.208 117.72 142.24L118.056 143.6C120.408 143.36 122.584 143.056 124.6 142.688C124.824 143.104 125.048 143.504 125.256 143.888L126.52 143.008C125.96 141.968 125.144 140.752 124.088 139.344L122.92 140.096C123.272 140.592 123.592 141.088 123.912 141.568C122.68 141.776 121.432 141.952 120.152 142.08C120.712 141.328 121.336 140.272 122.008 138.896H126.024V137.456H117.976ZM130.184 151.504C131.256 151.504 131.8 150.96 131.8 149.872V136.928H130.264V149.488C130.264 149.904 130.056 150.112 129.656 150.112C128.968 150.112 128.248 150.08 127.48 150.032L127.816 151.504H130.184ZM127.144 138.368V148.176H128.616V138.368H127.144ZM138.584 138.112V139.456H140.744V140.48H142.168V139.456H144.392V140.48H145.832V139.456H148.184V138.112H145.832V136.928H144.392V138.112H142.168V136.928H140.744V138.112H138.584ZM143.144 148.544C144.04 149.824 145.464 150.88 147.384 151.712L148.408 150.496C146.712 149.904 145.416 149.152 144.52 148.256H148.216V146.88H143.768L143.96 145.936H147.208V140.864H139.336V145.936H142.616C142.552 146.256 142.472 146.576 142.376 146.88H138.232V148.256H141.704C141.64 148.352 141.56 148.448 141.464 148.576C140.792 149.36 139.672 149.968 138.136 150.4L138.664 151.648C140.52 151.104 141.816 150.368 142.552 149.44C142.76 149.168 142.952 148.864 143.144 148.544ZM137.208 143.872C137.56 144.448 137.96 145.152 138.424 146.016L139.224 144.816C138.536 143.856 137.864 142.976 137.208 142.208V141.312H138.76V139.92H137.208V136.976H135.768V139.92H134.04V141.312H135.768V141.456C135.288 143.216 134.536 144.8 133.528 146.192L134.184 147.872C134.808 146.8 135.336 145.632 135.768 144.352V151.6H137.208V143.872ZM145.832 144.784H140.696V143.968H145.832V144.784ZM140.696 142.848V142.048H145.832V142.848H140.696ZM150.008 139.616V141.088H157.752C157.88 143.024 158.12 144.72 158.456 146.192C159.416 149.728 160.664 151.536 162.2 151.632C163.112 151.616 163.8 150.416 164.28 148.048L162.904 147.344C162.616 149.04 162.344 149.904 162.104 149.92C161.656 149.92 161.096 149.024 160.424 147.248C159.88 145.584 159.512 143.52 159.32 141.088H164.04V139.616H161.896L163.032 139.056C162.584 138.288 162.104 137.6 161.608 136.96L160.36 137.552C160.856 138.16 161.32 138.848 161.736 139.616H159.24C159.192 138.752 159.176 137.856 159.176 136.912H157.608C157.608 137.84 157.624 138.752 157.672 139.616H150.008ZM150.232 143.424V144.848H152.92V148.816C151.912 148.976 150.888 149.12 149.864 149.248L150.216 150.688C152.888 150.304 155.4 149.824 157.736 149.264V147.776C156.648 148.064 155.544 148.32 154.424 148.544V144.848H157.112V143.424H150.232Z" fill="#2C2C2C"/>
<path d="M317.963 141.462L325.734 141.462C326.579 141.462 327.043 142.444 326.507 143.096L318.736 152.56C318.336 153.047 317.59 153.047 317.19 152.56L309.419 143.096C308.883 142.444 309.347 141.462 310.192 141.462L317.963 141.462Z" fill="#8D9DB4"/>
<path d="M74.8182 279.947H77.5455V278.129H73.9091C73.4073 278.129 73 278.535 73 279.038V282.674H74.8182V279.947Z" fill="#96A8CD"/>
<path d="M77.5455 291.765V289.947H74.8182V287.22H73V290.856C73 291.359 73.4073 291.765 73.9091 291.765H77.5455Z" fill="#96A8CD"/>
<path d="M91.1818 289.947H88.4545V291.765H92.0909C92.5927 291.765 93 291.359 93 290.856V287.22H91.1818V289.947Z" fill="#96A8CD"/>
<path d="M92.0909 278.129H88.4545V279.947H91.1818V282.674H93V279.038C93 278.535 92.5927 278.129 92.0909 278.129Z" fill="#96A8CD"/>
<path d="M83 289.947C85.51 289.947 87.5454 287.912 87.5454 285.402V284.492C87.5454 281.982 85.51 279.947 83 279.947C80.49 279.947 78.4545 281.982 78.4545 284.492V285.402C78.4545 287.912 80.49 289.947 83 289.947Z" fill="#96A8CD"/>
<path d="M89.4136 293.533C87.8336 293.096 85.6273 292.674 83 292.674C80.3727 292.674 78.1673 293.096 76.5864 293.533C75.0045 293.972 73.9091 295.402 73.9091 297.042V299.038H92.0909V297.042C92.0909 295.402 90.9954 293.972 89.4136 293.533Z" fill="#96A8CD"/>
<path opacity="0.8" d="M115.72 280.912H114.184C114.184 281.52 114.168 282.352 114.168 283.424C114.04 288.016 111.816 291.616 107.496 294.24L108.424 295.6C111.784 293.424 113.992 290.672 115.048 287.344C116.264 290.768 118.408 293.52 121.48 295.568L122.488 294.24C118.84 292 116.536 288.752 115.608 284.496C115.672 283.504 115.72 282.32 115.72 280.912ZM125.784 286.608H127.336V288.992H125.784V286.608ZM127.336 285.248H125.784V282.832H127.336V285.248ZM125.752 290.368H127.336V293.552C127.336 294 127.112 294.24 126.696 294.24C126.408 294.24 126.104 294.208 125.784 294.176L126.136 295.568H127.144C128.2 295.568 128.728 295.056 128.728 294.048V286.272L129.432 287.36C130.008 286.944 130.568 286.48 131.096 285.936V286.784H136.056V285.952C136.552 286.448 137.112 286.912 137.72 287.36L138.536 286.112C136.488 284.624 135.048 282.88 134.216 280.896H132.872C131.896 283.024 130.52 284.752 128.728 286.08V281.424H124.376V289.296C124.36 291.472 124.088 293.248 123.576 294.656L124.664 295.632C125.272 294.256 125.64 292.496 125.752 290.368ZM135.544 285.408H131.576C132.312 284.544 132.968 283.552 133.544 282.4C134.056 283.488 134.712 284.496 135.544 285.408ZM129.112 293.728V295.184H138.184V293.728H135.848C136.504 292.048 137.064 290.128 137.528 287.968L136.04 287.584C135.56 290 135 292.048 134.36 293.728H129.112ZM130.904 288.032L129.592 288.48C130.12 289.92 130.552 291.44 130.904 293.024L132.216 292.704C131.832 290.944 131.384 289.392 130.904 288.032ZM133.368 287.456L132.072 287.888C132.52 289.28 132.904 290.736 133.208 292.272L134.52 291.936C134.184 290.256 133.8 288.768 133.368 287.456ZM145.816 281.712V289.536H153.512V281.712H145.816ZM151.976 288.064H147.336V283.168H151.976V288.064ZM141.784 281.008L140.712 282.048C141.848 282.88 142.728 283.68 143.352 284.416L144.392 283.36C143.672 282.576 142.808 281.792 141.784 281.008ZM139.64 285.648V287.104H141.848V292.992C141.848 293.312 141.704 293.568 141.448 293.792L142.024 295.168C143.112 294.432 144.152 293.584 145.112 292.64L144.696 291.04C144.2 291.536 143.736 291.984 143.304 292.384V285.648H139.64ZM147.496 290.272C146.728 292.032 145.816 293.52 144.744 294.768L146.088 295.744C147.144 294.384 148.072 292.784 148.84 290.928L147.496 290.272ZM151.704 290.208L150.472 290.992C151.64 292.704 152.568 294.256 153.24 295.664L154.552 294.752C153.896 293.456 152.952 291.936 151.704 290.208ZM158.92 286.8C158.888 287.376 158.84 287.92 158.776 288.432H155.896V289.856H158.568C158.44 290.48 158.28 291.008 158.088 291.44C157.592 292.592 156.744 293.584 155.544 294.416L156.52 295.616C157.896 294.624 158.872 293.44 159.464 292.064C159.72 291.488 159.912 290.752 160.072 289.856H162.168C162.136 291.664 162.088 292.736 162.008 293.056C161.88 293.76 161.48 294.112 160.776 294.112C160.424 294.112 160.024 294.08 159.544 294.032L159.896 295.376C160.408 295.408 160.792 295.44 161.016 295.44C162.456 295.44 163.256 294.864 163.416 293.712C163.576 293.04 163.656 291.28 163.656 288.432H160.264C160.312 287.92 160.36 287.376 160.392 286.8H163.464V281.424H156.44V286.8H158.92ZM165 282.288V292.16H166.488V282.288H165ZM168.152 295.504C169.256 295.504 169.816 294.912 169.816 293.728V280.928H168.312V293.344C168.312 293.872 168.072 294.144 167.624 294.144C166.952 294.144 166.248 294.112 165.512 294.048L165.848 295.504H168.152ZM162.008 285.424H157.896V282.784H162.008V285.424ZM182.536 290.08C182.088 291.504 181.592 292.736 181.016 293.776H172.216V295.184H185.816V293.776H182.648C183.192 292.8 183.656 291.696 184.04 290.48L182.536 290.08ZM175.272 290.224L173.88 290.672C174.392 291.568 174.792 292.512 175.112 293.504L176.488 293.152C176.12 292.048 175.72 291.072 175.272 290.224ZM178.968 289.904L177.56 290.352C177.976 291.312 178.312 292.304 178.584 293.344L179.944 293.008C179.656 291.84 179.336 290.8 178.968 289.904ZM174.808 288.496V289.632H183.208V288.512C183.944 288.848 184.744 289.168 185.592 289.456L186.328 288.144C183.736 287.328 181.464 286.208 179.48 284.8H178.52C176.696 286.112 174.424 287.216 171.672 288.112L172.408 289.44C173.24 289.136 174.04 288.816 174.808 288.496ZM182.76 288.304H175.224C176.68 287.616 177.944 286.864 179 286.032C180.088 286.88 181.352 287.632 182.76 288.304ZM174.392 283.488H175.448C175.704 284.08 175.928 284.688 176.12 285.328L177.496 284.832C177.352 284.416 177.176 283.968 176.952 283.488H178.952V282.144H174.968C175.08 281.824 175.192 281.504 175.304 281.152L173.832 280.832C173.416 282.24 172.728 283.552 171.736 284.784L173.048 285.616C173.544 284.976 173.992 284.256 174.392 283.488ZM181.096 283.488H182.36C182.696 284.128 183 284.784 183.256 285.488L184.648 284.96C184.456 284.512 184.216 284.016 183.912 283.488H186.168V282.144H181.672C181.784 281.824 181.896 281.504 181.992 281.152L180.552 280.832C180.232 282.016 179.688 283.104 178.952 284.128L180.232 284.944C180.552 284.496 180.84 284 181.096 283.488ZM196.088 292.624C195.048 292.848 193.992 293.072 192.92 293.264V290.88H195.624V289.424H192.92V287.728H191.384V289.424H188.424V290.88H191.384V293.52C190.184 293.696 188.968 293.856 187.736 293.984L188.088 295.44C190.936 295.088 193.592 294.64 196.088 294.128V292.624ZM187.976 281.456V282.896H190.376C189.512 284.592 188.824 285.664 188.312 286.096C188.184 286.16 187.976 286.208 187.72 286.24L188.056 287.6C190.408 287.36 192.584 287.056 194.6 286.688C194.824 287.104 195.048 287.504 195.256 287.888L196.52 287.008C195.96 285.968 195.144 284.752 194.088 283.344L192.92 284.096C193.272 284.592 193.592 285.088 193.912 285.568C192.68 285.776 191.432 285.952 190.152 286.08C190.712 285.328 191.336 284.272 192.008 282.896H196.024V281.456H187.976ZM200.184 295.504C201.256 295.504 201.8 294.96 201.8 293.872V280.928H200.264V293.488C200.264 293.904 200.056 294.112 199.656 294.112C198.968 294.112 198.248 294.08 197.48 294.032L197.816 295.504H200.184ZM197.144 282.368V292.176H198.616V282.368H197.144Z" fill="#2C2C2C"/>
<path opacity="0.8" d="M108.12 350.576V362H109.864V357.28H112.952C113.608 357.28 114.104 357.408 114.456 357.696C114.792 357.984 115 358.432 115.064 359.072L115.208 360.496C115.272 361.136 115.432 361.648 115.704 362H117.592C117.208 361.584 116.984 361.024 116.92 360.32L116.728 358.496C116.6 357.376 116.04 356.704 115.016 356.48V356.448C115.64 356.288 116.136 355.952 116.504 355.44C116.824 354.976 116.984 354.448 116.984 353.84C116.984 352.752 116.632 351.936 115.928 351.36C115.256 350.832 114.328 350.576 113.176 350.576H108.12ZM109.864 352.064H112.936C113.736 352.064 114.312 352.208 114.696 352.512C115.048 352.8 115.24 353.264 115.24 353.904C115.24 354.512 115.048 354.976 114.68 355.296C114.296 355.616 113.72 355.792 112.952 355.792H109.864V352.064ZM119.198 350.576V362H120.942V356.88H126.622V355.392H120.942V352.064H126.958V350.576H119.198ZM128.527 350.576V362H130.255V350.576H128.527ZM132.526 350.576V362H136.654C138.494 362 139.886 361.488 140.846 360.464C141.758 359.472 142.222 358.08 142.222 356.288C142.222 354.48 141.774 353.088 140.878 352.128C139.918 351.088 138.526 350.576 136.686 350.576H132.526ZM134.27 352.064H136.366C137.806 352.064 138.862 352.4 139.534 353.088C140.174 353.76 140.51 354.816 140.51 356.288C140.51 357.728 140.174 358.784 139.518 359.472C138.846 360.16 137.774 360.512 136.334 360.512H134.27V352.064ZM154.411 358.08C153.963 359.504 153.467 360.736 152.891 361.776H144.091V363.184H157.691V361.776H154.523C155.067 360.8 155.531 359.696 155.915 358.48L154.411 358.08ZM147.147 358.224L145.755 358.672C146.267 359.568 146.667 360.512 146.987 361.504L148.363 361.152C147.995 360.048 147.595 359.072 147.147 358.224ZM150.843 357.904L149.435 358.352C149.851 359.312 150.187 360.304 150.459 361.344L151.819 361.008C151.531 359.84 151.211 358.8 150.843 357.904ZM146.683 356.496V357.632H155.083V356.512C155.819 356.848 156.619 357.168 157.467 357.456L158.203 356.144C155.611 355.328 153.339 354.208 151.355 352.8H150.395C148.571 354.112 146.299 355.216 143.547 356.112L144.283 357.44C145.115 357.136 145.915 356.816 146.683 356.496ZM154.635 356.304H147.099C148.555 355.616 149.819 354.864 150.875 354.032C151.963 354.88 153.227 355.632 154.635 356.304ZM146.267 351.488H147.323C147.579 352.08 147.803 352.688 147.995 353.328L149.371 352.832C149.227 352.416 149.051 351.968 148.827 351.488H150.827V350.144H146.843C146.955 349.824 147.067 349.504 147.179 349.152L145.707 348.832C145.291 350.24 144.603 351.552 143.611 352.784L144.923 353.616C145.419 352.976 145.867 352.256 146.267 351.488ZM152.971 351.488H154.235C154.571 352.128 154.875 352.784 155.131 353.488L156.523 352.96C156.331 352.512 156.091 352.016 155.787 351.488H158.043V350.144H153.547C153.659 349.824 153.771 349.504 153.867 349.152L152.427 348.832C152.107 350.016 151.563 351.104 150.827 352.128L152.107 352.944C152.427 352.496 152.715 352 152.971 351.488ZM167.963 360.624C166.923 360.848 165.867 361.072 164.795 361.264V358.88H167.499V357.424H164.795V355.728H163.259V357.424H160.299V358.88H163.259V361.52C162.059 361.696 160.843 361.856 159.611 361.984L159.963 363.44C162.811 363.088 165.467 362.64 167.963 362.128V360.624ZM159.851 349.456V350.896H162.251C161.387 352.592 160.699 353.664 160.187 354.096C160.059 354.16 159.851 354.208 159.595 354.24L159.931 355.6C162.283 355.36 164.459 355.056 166.475 354.688C166.699 355.104 166.923 355.504 167.131 355.888L168.395 355.008C167.835 353.968 167.019 352.752 165.963 351.344L164.795 352.096C165.147 352.592 165.467 353.088 165.787 353.568C164.555 353.776 163.307 353.952 162.027 354.08C162.587 353.328 163.211 352.272 163.883 350.896H167.899V349.456H159.851ZM172.059 363.504C173.131 363.504 173.675 362.96 173.675 361.872V348.928H172.139V361.488C172.139 361.904 171.931 362.112 171.531 362.112C170.843 362.112 170.123 362.08 169.355 362.032L169.691 363.504H172.059ZM169.019 350.368V360.176H170.491V350.368H169.019Z" fill="#2C2C2C"/>
<path d="M79 366H77V365C77 362.794 75.206 361 73 361H72V359H73C76.309 359 79 361.691 79 365V366Z" fill="#96A8CD"/>
<path d="M83 366H81V365C81 360.589 77.411 357 73 357H72V355H73C78.514 355 83 359.486 83 365V366Z" fill="#96A8CD"/>
<path d="M73 366C73.5523 366 74 365.552 74 365C74 364.448 73.5523 364 73 364C72.4477 364 72 364.448 72 365C72 365.552 72.4477 366 73 366Z" fill="#96A8CD"/>
<path d="M93 346H74C73.448 346 73 346.447 73 347V353C78.944 353 83.866 357.327 84.82 363H93C93.552 363 94 362.553 94 362V347C94 346.447 93.552 346 93 346Z" fill="#96A8CD"/>
<circle cx="73.5" cy="423.5" r="2.5" fill="#96A8CD" fill-opacity="0.5"/>
<circle cx="82.5385" cy="423.5" r="2.5" fill="#96A8CD" fill-opacity="0.5"/>
<circle cx="91.5769" cy="423.5" r="2.5" fill="#96A8CD" fill-opacity="0.5"/>
<path opacity="0.6" d="M108.072 417.424V418.848H114.248V419.952H109.4V426.528H113.992C113.832 427.168 113.592 427.728 113.304 428.176C112.504 427.76 111.752 427.296 111.064 426.752L109.896 427.552C110.6 428.144 111.384 428.688 112.248 429.168C111.224 429.792 109.688 430.16 107.64 430.288L108.296 431.68C110.776 431.392 112.584 430.8 113.736 429.904C116.104 430.96 118.888 431.552 122.088 431.696L122.472 430.224C119.496 430.128 116.92 429.664 114.712 428.8C115.08 428.208 115.352 427.456 115.528 426.528H120.648V419.952H115.752V418.848H121.944V417.424H108.072ZM119.144 425.2H115.704C115.736 424.896 115.752 424.576 115.752 424.224V423.84H119.144V425.2ZM114.2 425.2H110.904V423.84H114.248V424.224C114.248 424.544 114.232 424.88 114.2 425.2ZM110.904 422.592V421.248H114.248V422.592H110.904ZM115.752 421.248H119.144V422.592H115.752V421.248ZM130.776 416.8C129.384 418.272 127.272 419.264 124.44 419.776L125.336 421.168C127.016 420.8 128.472 420.256 129.72 419.52H134.024C133.176 420.656 132.008 421.536 130.536 422.16C130.056 421.584 129.544 421.04 129.016 420.528L127.704 421.152C128.184 421.6 128.664 422.096 129.112 422.64C128.056 422.928 126.856 423.104 125.512 423.184L126.152 424.56C130.84 424.176 134.04 422.432 135.768 419.36V418.176H131.496C131.704 417.968 131.912 417.744 132.136 417.504L130.776 416.8ZM130.52 426.8L129.176 427.44C129.704 427.952 130.216 428.544 130.712 429.184C128.968 429.728 126.888 430 124.472 430L125.08 431.456C131.32 431.296 135.576 429.344 137.864 425.6V424.416H133.784C134.104 424.16 134.424 423.872 134.712 423.568L133.416 422.864C131.784 424.592 129.208 425.616 125.72 425.952L126.632 427.312C128.504 426.944 130.136 426.432 131.528 425.792H135.912C134.984 426.992 133.72 427.936 132.152 428.64C131.64 427.984 131.096 427.376 130.52 426.8Z" fill="#2C2C2C"/>
<defs>
<filter id="filter0_d" x="0" y="0" width="396" height="443" filterUnits="userSpaceOnUse" color-interpolation-filters="sRGB">
<feFlood flood-opacity="0" result="BackgroundImageFix"/>
<feColorMatrix in="SourceAlpha" type="matrix" values="0 0 0 0 0 0 0 0 0 0 0 0 0 0 0 0 0 0 127 0"/>
<feOffset dy="4"/>
<feGaussianBlur stdDeviation="12"/>
<feColorMatrix type="matrix" values="0 0 0 0 0.135086 0 0 0 0 0.204976 0 0 0 0 0.340522 0 0 0 0.08 0"/>
<feBlend mode="normal" in2="BackgroundImageFix" result="effect1_dropShadow"/>
<feBlend mode="normal" in="SourceGraphic" in2="effect1_dropShadow" result="shape"/>
</filter>
<filter id="filter1_d" x="24" y="166" width="348" height="321" filterUnits="userSpaceOnUse" color-interpolation-filters="sRGB">
<feFlood flood-opacity="0" result="BackgroundImageFix"/>
<feColorMatrix in="SourceAlpha" type="matrix" values="0 0 0 0 0 0 0 0 0 0 0 0 0 0 0 0 0 0 127 0"/>
<feOffset dy="4"/>
<feGaussianBlur stdDeviation="12"/>
<feColorMatrix type="matrix" values="0 0 0 0 0.135086 0 0 0 0 0.204976 0 0 0 0 0.340522 0 0 0 0.08 0"/>
<feBlend mode="normal" in2="BackgroundImageFix" result="effect1_dropShadow"/>
<feBlend mode="normal" in="SourceGraphic" in2="effect1_dropShadow" result="shape"/>
</filter>
</defs>
</svg>
