<svg width="396" height="386" viewBox="0 0 396 386" fill="none" xmlns="http://www.w3.org/2000/svg">
<g filter="url(#filter0_d)">
<rect x="24" y="20" width="348" height="338" rx="6" fill="white"/>
</g>
<path opacity="0.86" d="M55.1064 56.9422V58.6444H57.9028V60.3465H54.3161C54.4377 59.2523 54.5188 58.077 54.5188 56.8612V55.3211H57.9028V56.9422H55.1064ZM54.073 62.0891H56.5248V65.1287C56.5248 65.7771 56.2209 66.2026 55.613 66.4458L56.1398 68.1277C58.3891 67.7224 60.3344 67.2361 61.9757 66.6687L61.611 64.9058C60.6991 65.2908 59.6252 65.6353 58.4093 65.9392V62.0891H60.922C62.4823 65.23 65.076 67.2766 68.7235 68.229L69.6353 66.4053C68.2979 66.1418 67.1226 65.7163 66.0892 65.1287C66.8187 64.6423 67.5076 64.0142 68.1358 63.2442L66.9605 62.0891H68.9869V60.3465H65.2584V58.6444H68.2979V56.9422H65.2584V55.3211H68.075V50.0526H52.5735V56.8612C52.5532 60.8733 51.9048 64.1358 50.6282 66.689L52.1885 68.0871C53.0598 66.304 53.688 64.2979 54.073 62.0891ZM62.8673 62.0891H66.6971C66.0487 62.9402 65.3395 63.5886 64.5694 64.0547C63.921 63.4873 63.3536 62.8389 62.8673 62.0891ZM63.3942 55.3211V56.9422H59.7467V55.3211H63.3942ZM59.7467 60.3465V58.6444H63.3942V60.3465H59.7467ZM66.1297 51.8156V53.5988H54.5188V51.8156H66.1297ZM76.4236 60.5289V65.7366H84.3466V60.387H76.6059C77.6799 59.5967 78.6323 58.7051 79.4631 57.7325L78.1054 56.537C77.0112 57.7325 75.6738 58.7862 74.0527 59.6778V56.4964H86.6972V65.2503C86.6972 65.9392 86.4337 66.304 85.9474 66.304L84.0021 66.2432L84.4884 67.9858H86.5553C87.8724 67.9858 88.5411 67.1955 88.5411 65.6555V54.7943H84.1845C84.529 54.1661 84.8532 53.4772 85.1774 52.7072H89.4327V50.8632H81.4489C81.2463 50.2553 81.0639 49.6879 80.8613 49.1813L78.7336 49.5055C78.9362 49.9108 79.1389 50.3769 79.3212 50.8632H71.3577V52.7072H75.4712C75.8359 53.3556 76.1399 54.0648 76.4236 54.7943H72.2088V67.9453H74.0527V59.7588L75.2483 61.2989C75.6536 61.0557 76.0386 60.7923 76.4236 60.5289ZM82.4823 64.0344H78.2878V62.1094H82.4823V64.0344ZM82.5431 56.5167L81.2463 57.7528C82.9484 59.0091 84.2858 60.1641 85.2179 61.2583L86.6566 59.8399C85.5421 58.7457 84.1642 57.6312 82.5431 56.5167ZM78.3891 54.7943C78.146 54.0243 77.8623 53.3353 77.5786 52.7072H83.07C82.766 53.4164 82.4418 54.1053 82.0771 54.7943H78.3891ZM97.8421 52.3424V54.1864H101.489C101.469 54.8348 101.449 55.6859 101.408 56.7801C101.327 58.6849 101.044 60.387 100.557 61.8865C100.051 63.4063 99.0173 65.0679 97.4571 66.8511L98.8755 68.1885C100.213 66.7497 101.267 65.1489 102.016 63.4063C102.563 62.1094 102.948 60.6707 103.151 59.0902H106.94C106.9 62.3526 106.839 64.3789 106.717 65.1895C106.555 65.8379 106.15 66.1824 105.522 66.2026C104.813 66.2026 103.941 66.1621 102.888 66.1013L103.455 67.8237C104.306 67.8845 105.076 67.925 105.745 67.925C107.082 67.9048 107.933 67.3779 108.298 66.3242C108.602 65.0881 108.784 62.0689 108.865 57.2664H103.313C103.354 56.0101 103.394 54.9969 103.435 54.1864H110.081V52.3424H105.036C104.671 51.4103 104.144 50.3566 103.475 49.1813L101.611 49.7082C102.138 50.5592 102.624 51.4306 103.05 52.3424H97.8421ZM93.9109 49.6474L92.5938 50.9037C94.0325 51.9979 95.147 53.0111 95.9576 53.9838L97.2747 52.6464C96.3831 51.6535 95.2483 50.6605 93.9109 49.6474ZM91.3577 55.463V57.307H94.0325V64.6423C94.0325 65.0881 93.8502 65.4529 93.5259 65.7568L94.2554 67.4792C95.6739 66.5269 97.0315 65.4529 98.2879 64.2371L97.761 62.2107C97.1126 62.8592 96.4844 63.4468 95.8968 63.9737V55.463H91.3577ZM127.062 61.5623H115.147V68.1479H117.011V67.3779H125.177V68.1479H127.062V61.5623ZM117.011 65.6353V63.2847H125.177V65.6353H117.011ZM118.106 52.6869C116.768 54.5511 115.167 55.9898 113.303 57.0435L114.539 58.5228C115.37 57.9959 116.16 57.388 116.91 56.7396C117.639 57.3678 118.409 57.9554 119.261 58.4823C117.194 59.1915 114.62 59.7791 111.54 60.2249L112.27 61.927C115.877 61.3191 118.876 60.5289 121.226 59.536C123.698 60.691 126.535 61.3597 129.737 61.542L130.162 59.7994C127.65 59.6575 125.36 59.232 123.293 58.5025C124.711 57.692 125.765 56.7599 126.495 55.7062V54.1661H119.24C119.483 53.8217 119.747 53.4569 119.99 53.0922L118.106 52.6869ZM121.287 57.6717C120.213 57.1449 119.22 56.537 118.288 55.8075H124.164C123.435 56.4964 122.462 57.1043 121.287 57.6717ZM129.331 50.7416H121.834C121.631 50.1742 121.429 49.6879 121.226 49.2421L119.098 49.5663C119.342 49.9311 119.544 50.3363 119.747 50.7416H112.513V54.8348H114.458V52.464H127.386V54.8348H129.331V50.7416ZM147.508 67.9048C149.048 67.9048 149.838 67.0942 149.838 65.4731V49.5258H147.933V65.0071C147.933 65.7771 147.548 66.1824 146.819 66.1824C146.049 66.1824 145.238 66.1418 144.367 66.0608L144.813 67.9048H147.508ZM143.617 51.0658V63.7913H145.481V51.0658H143.617ZM132.452 50.0932V51.9574H135.39C134.944 55.0375 133.81 57.4893 131.945 59.2725L132.878 61.076C133.364 60.6099 133.83 60.1033 134.276 59.5562C135.492 60.2046 136.586 60.9139 137.518 61.6434C136.262 63.5886 134.519 65.1084 132.31 66.1824L133.242 67.9048C137.862 65.6758 140.598 61.7041 141.49 55.9898V54.2877H136.809C136.991 53.538 137.153 52.768 137.275 51.9574H142.401V50.0932H132.452ZM135.289 58.077C135.633 57.4691 135.937 56.8206 136.221 56.1114H139.686C139.402 57.5501 138.977 58.8673 138.41 60.0628C137.498 59.3738 136.464 58.7051 135.289 58.077ZM153.344 50.9848V52.768H160.476V54.2472H154.519V56.0304H160.476V57.5096H152.634V59.2725H158.774C157.315 60.8328 155.086 62.1297 152.067 63.1631L153.08 64.845C154.296 64.3384 155.39 63.7913 156.403 63.2036V65.4934C156.403 65.9189 156.12 66.2432 155.593 66.4661L156.241 68.1074C158.47 67.5603 160.679 66.8713 162.847 66.0203L162.483 64.2573C161.084 64.8045 159.686 65.2908 158.288 65.7366V61.927C159.301 61.1165 160.152 60.2249 160.841 59.2725H161.348C163.07 63.5684 165.785 66.4863 169.473 68.0061L170.527 66.304C168.784 65.6555 167.265 64.7234 166.008 63.4873C167.184 62.92 168.278 62.1702 169.251 61.1976L167.913 59.9007C166.941 60.9544 165.948 61.7244 164.894 62.2513C164.205 61.3799 163.597 60.387 163.111 59.2725H170.264V57.5096H162.422V56.0304H168.379V54.2472H162.422V52.768H169.554V50.9848H162.422V49.4245H160.476V50.9848H153.344Z" fill="#2C2C2C"/>
<rect x="50" y="97" width="296" height="110" rx="5.06587" fill="#EDF1F8"/>
<rect x="50" y="221" width="296" height="110" rx="5.06587" fill="#EDF1F8"/>
<path d="M138.776 117.216V118.672H141.656C141.64 119.184 141.624 119.856 141.592 120.72C141.528 122.224 141.304 123.568 140.92 124.752C140.52 125.952 139.704 127.264 138.472 128.672L139.592 129.728C140.648 128.592 141.48 127.328 142.072 125.952C142.504 124.928 142.808 123.792 142.968 122.544H145.96C145.928 125.12 145.88 126.72 145.784 127.36C145.656 127.872 145.336 128.144 144.84 128.16C144.28 128.16 143.592 128.128 142.76 128.08L143.208 129.44C143.88 129.488 144.488 129.52 145.016 129.52C146.072 129.504 146.744 129.088 147.032 128.256C147.272 127.28 147.416 124.896 147.48 121.104H143.096C143.128 120.112 143.16 119.312 143.192 118.672H148.44V117.216H144.456C144.168 116.48 143.752 115.648 143.224 114.72L141.752 115.136C142.168 115.808 142.552 116.496 142.888 117.216H138.776ZM135.672 115.088L134.632 116.08C135.768 116.944 136.648 117.744 137.288 118.512L138.328 117.456C137.624 116.672 136.728 115.888 135.672 115.088ZM133.656 119.68V121.136H135.768V126.928C135.768 127.28 135.624 127.568 135.368 127.808L135.944 129.168C137.064 128.416 138.136 127.568 139.128 126.608L138.712 125.008C138.2 125.52 137.704 125.984 137.24 126.4V119.68H133.656ZM162.168 124.496H152.76V129.696H154.232V129.088H160.68V129.696H162.168V124.496ZM154.232 127.712V125.856H160.68V127.712H154.232ZM155.096 117.488C154.04 118.96 152.776 120.096 151.304 120.928L152.28 122.096C152.936 121.68 153.56 121.2 154.152 120.688C154.728 121.184 155.336 121.648 156.008 122.064C154.376 122.624 152.344 123.088 149.912 123.44L150.488 124.784C153.336 124.304 155.704 123.68 157.56 122.896C159.512 123.808 161.752 124.336 164.28 124.48L164.616 123.104C162.632 122.992 160.824 122.656 159.192 122.08C160.312 121.44 161.144 120.704 161.72 119.872V118.656H155.992C156.184 118.384 156.392 118.096 156.584 117.808L155.096 117.488ZM157.608 121.424C156.76 121.008 155.976 120.528 155.24 119.952H159.88C159.304 120.496 158.536 120.976 157.608 121.424ZM163.96 115.952H158.04C157.88 115.504 157.72 115.12 157.56 114.768L155.88 115.024C156.072 115.312 156.232 115.632 156.392 115.952H150.68V119.184H152.216V117.312H162.424V119.184H163.96V115.952ZM168.216 114.784C168.088 115.824 167.944 116.832 167.784 117.808H166.392V119.264H167.544C167.256 120.848 166.92 122.32 166.552 123.664C167.32 124.352 168.008 125.008 168.648 125.616C168.04 126.72 167.256 127.664 166.312 128.464L167.352 129.744C168.296 128.88 169.096 127.872 169.736 126.72C170.248 127.248 170.712 127.744 171.096 128.224L172.104 127.04C171.656 126.512 171.096 125.92 170.424 125.264C171.192 123.392 171.624 121.184 171.72 118.656V117.808H169.304C169.432 116.912 169.576 115.936 169.704 114.912L168.216 114.784ZM169.304 124.208C168.968 123.888 168.6 123.568 168.184 123.216C168.488 122.16 168.776 120.832 169.064 119.264H170.312C170.2 121.12 169.864 122.768 169.304 124.208ZM173.88 119.376H175.848V122.864H172.728V124.352H175.848V127.76H172.184V129.232H180.984V127.76H177.368V124.352H180.344V122.864H177.368V119.376H180.456V117.92H177.368V114.944H175.848V117.92H174.088C174.12 117.376 174.152 116.784 174.168 116.144H172.808C172.76 118.608 172.344 120.416 171.576 121.6L172.68 122.592C173.224 121.76 173.624 120.688 173.88 119.376ZM187.832 128.752H194.6V129.6H196.136V122.64H190.008C192.712 121.296 194.584 119.6 195.624 117.568V116.224H189.624C189.896 115.84 190.136 115.44 190.36 115.024L188.696 114.832C187.736 116.48 185.912 117.872 183.208 119.024L184.232 120.336C185.896 119.536 187.256 118.64 188.344 117.648H193.88C193.176 118.8 192.104 119.824 190.648 120.704C189.992 120.144 189.112 119.52 187.992 118.832L186.68 119.648C187.768 120.272 188.664 120.864 189.336 121.408C187.544 122.24 185.32 122.896 182.648 123.408L183.448 124.88C184.456 124.64 185.416 124.384 186.312 124.112V129.6H187.832V128.752ZM194.6 127.28H187.832V124.048H194.6V127.28Z" fill="#414C69"/>
<path d="M138.776 241.216V242.672H141.656C141.64 243.184 141.624 243.856 141.592 244.72C141.528 246.224 141.304 247.568 140.92 248.752C140.52 249.952 139.704 251.264 138.472 252.672L139.592 253.728C140.648 252.592 141.48 251.328 142.072 249.952C142.504 248.928 142.808 247.792 142.968 246.544H145.96C145.928 249.12 145.88 250.72 145.784 251.36C145.656 251.872 145.336 252.144 144.84 252.16C144.28 252.16 143.592 252.128 142.76 252.08L143.208 253.44C143.88 253.488 144.488 253.52 145.016 253.52C146.072 253.504 146.744 253.088 147.032 252.256C147.272 251.28 147.416 248.896 147.48 245.104H143.096C143.128 244.112 143.16 243.312 143.192 242.672H148.44V241.216H144.456C144.168 240.48 143.752 239.648 143.224 238.72L141.752 239.136C142.168 239.808 142.552 240.496 142.888 241.216H138.776ZM135.672 239.088L134.632 240.08C135.768 240.944 136.648 241.744 137.288 242.512L138.328 241.456C137.624 240.672 136.728 239.888 135.672 239.088ZM133.656 243.68V245.136H135.768V250.928C135.768 251.28 135.624 251.568 135.368 251.808L135.944 253.168C137.064 252.416 138.136 251.568 139.128 250.608L138.712 249.008C138.2 249.52 137.704 249.984 137.24 250.4V243.68H133.656ZM162.168 248.496H152.76V253.696H154.232V253.088H160.68V253.696H162.168V248.496ZM154.232 251.712V249.856H160.68V251.712H154.232ZM155.096 241.488C154.04 242.96 152.776 244.096 151.304 244.928L152.28 246.096C152.936 245.68 153.56 245.2 154.152 244.688C154.728 245.184 155.336 245.648 156.008 246.064C154.376 246.624 152.344 247.088 149.912 247.44L150.488 248.784C153.336 248.304 155.704 247.68 157.56 246.896C159.512 247.808 161.752 248.336 164.28 248.48L164.616 247.104C162.632 246.992 160.824 246.656 159.192 246.08C160.312 245.44 161.144 244.704 161.72 243.872V242.656H155.992C156.184 242.384 156.392 242.096 156.584 241.808L155.096 241.488ZM157.608 245.424C156.76 245.008 155.976 244.528 155.24 243.952H159.88C159.304 244.496 158.536 244.976 157.608 245.424ZM163.96 239.952H158.04C157.88 239.504 157.72 239.12 157.56 238.768L155.88 239.024C156.072 239.312 156.232 239.632 156.392 239.952H150.68V243.184H152.216V241.312H162.424V243.184H163.96V239.952ZM168.216 238.784C168.088 239.824 167.944 240.832 167.784 241.808H166.392V243.264H167.544C167.256 244.848 166.92 246.32 166.552 247.664C167.32 248.352 168.008 249.008 168.648 249.616C168.04 250.72 167.256 251.664 166.312 252.464L167.352 253.744C168.296 252.88 169.096 251.872 169.736 250.72C170.248 251.248 170.712 251.744 171.096 252.224L172.104 251.04C171.656 250.512 171.096 249.92 170.424 249.264C171.192 247.392 171.624 245.184 171.72 242.656V241.808H169.304C169.432 240.912 169.576 239.936 169.704 238.912L168.216 238.784ZM169.304 248.208C168.968 247.888 168.6 247.568 168.184 247.216C168.488 246.16 168.776 244.832 169.064 243.264H170.312C170.2 245.12 169.864 246.768 169.304 248.208ZM173.88 243.376H175.848V246.864H172.728V248.352H175.848V251.76H172.184V253.232H180.984V251.76H177.368V248.352H180.344V246.864H177.368V243.376H180.456V241.92H177.368V238.944H175.848V241.92H174.088C174.12 241.376 174.152 240.784 174.168 240.144H172.808C172.76 242.608 172.344 244.416 171.576 245.6L172.68 246.592C173.224 245.76 173.624 244.688 173.88 243.376ZM187.832 252.752H194.6V253.6H196.136V246.64H190.008C192.712 245.296 194.584 243.6 195.624 241.568V240.224H189.624C189.896 239.84 190.136 239.44 190.36 239.024L188.696 238.832C187.736 240.48 185.912 241.872 183.208 243.024L184.232 244.336C185.896 243.536 187.256 242.64 188.344 241.648H193.88C193.176 242.8 192.104 243.824 190.648 244.704C189.992 244.144 189.112 243.52 187.992 242.832L186.68 243.648C187.768 244.272 188.664 244.864 189.336 245.408C187.544 246.24 185.32 246.896 182.648 247.408L183.448 248.88C184.456 248.64 185.416 248.384 186.312 248.112V253.6H187.832V252.752ZM194.6 251.28H187.832V248.048H194.6V251.28Z" fill="#414C69"/>
<path d="M137.043 152.457C136.276 154.875 135.106 156.825 133.546 158.294L134.521 159.139C136.042 157.709 137.264 155.629 138.187 152.912L137.043 152.457ZM141.931 159.347L140.826 159.724C141.294 160.426 141.736 161.206 142.165 162.064C140.449 162.324 138.655 162.519 136.809 162.649C137.875 161.18 138.941 159.347 139.981 157.15L138.772 156.734C137.108 160.413 135.821 162.402 134.898 162.701L135.119 163.897C137.901 163.715 140.41 163.455 142.672 163.117C142.854 163.507 143.023 163.923 143.205 164.339L144.362 163.819C143.686 162.233 142.867 160.751 141.931 159.347ZM141.71 152.353L140.657 152.951C141.398 155.486 142.711 157.553 144.596 159.165L145.48 158.151C143.686 156.656 142.438 154.719 141.71 152.353ZM147.82 157.813V162.051H153.774V157.813H147.82ZM152.591 160.959H149.003V158.918H152.591V160.959ZM155.932 164.248C156.894 164.248 157.375 163.741 157.375 162.727V152.782H147.43V153.978H156.14V162.389C156.14 162.857 155.984 163.091 155.672 163.091L153.826 163.065L154.138 164.248H155.932ZM146.767 155.343V156.474H154.983V155.343H146.767ZM160.859 157.488V164.365H162.068V155.551C162.536 154.654 162.913 153.718 163.212 152.756L162.055 152.21C161.47 154.212 160.573 155.98 159.377 157.488L159.78 158.814C160.17 158.372 160.521 157.93 160.859 157.488ZM162.978 153.913V155.07H171.519V153.913H168.009C167.866 153.419 167.658 152.886 167.385 152.301L166.202 152.626C166.423 153.042 166.618 153.471 166.787 153.913H162.978ZM164.161 155.863V156.968H170.414V155.863H164.161ZM164.161 157.696V158.814H170.414V157.696H164.161ZM170.687 159.633H163.875V164.339H165.071V163.663H169.491V164.339H170.687V159.633ZM165.071 162.506V160.777H169.491V162.506H165.071ZM174.392 153.224V159.789H182.712V153.224H178.591C178.721 152.964 178.838 152.691 178.916 152.405L177.629 152.236C177.538 152.574 177.421 152.899 177.265 153.224H174.392ZM181.516 158.736H175.588V157.891H181.516V158.736ZM175.588 156.903V156.084H181.516V156.903H175.588ZM175.588 155.109V154.277H181.516V155.109H175.588ZM173.69 160.543C173.469 161.505 173.092 162.415 172.546 163.247L173.586 163.91C174.132 163.026 174.548 161.986 174.86 160.777L173.69 160.543ZM180.164 164.144C180.684 164.144 181.061 164.04 181.321 163.845C181.594 163.611 181.789 162.948 181.893 161.843L180.71 161.466C180.671 162.233 180.58 162.688 180.437 162.844C180.346 162.974 180.177 163.039 179.93 163.039H177.213C176.953 163.039 176.823 162.896 176.823 162.636V160.517H175.575V162.896C175.575 163.728 176.004 164.144 176.862 164.144H180.164ZM178.565 160.01L177.655 160.569C178.266 161.219 178.747 161.817 179.111 162.363L180.034 161.713C179.696 161.219 179.202 160.66 178.565 160.01ZM182.725 160.283L181.763 160.881C182.504 161.895 183.089 162.805 183.531 163.637L184.506 162.948C184.09 162.194 183.505 161.297 182.725 160.283Z" fill="#5F6E96"/>
<path d="M137.043 276.457C136.276 278.875 135.106 280.825 133.546 282.294L134.521 283.139C136.042 281.709 137.264 279.629 138.187 276.912L137.043 276.457ZM141.931 283.347L140.826 283.724C141.294 284.426 141.736 285.206 142.165 286.064C140.449 286.324 138.655 286.519 136.809 286.649C137.875 285.18 138.941 283.347 139.981 281.15L138.772 280.734C137.108 284.413 135.821 286.402 134.898 286.701L135.119 287.897C137.901 287.715 140.41 287.455 142.672 287.117C142.854 287.507 143.023 287.923 143.205 288.339L144.362 287.819C143.686 286.233 142.867 284.751 141.931 283.347ZM141.71 276.353L140.657 276.951C141.398 279.486 142.711 281.553 144.596 283.165L145.48 282.151C143.686 280.656 142.438 278.719 141.71 276.353ZM147.82 281.813V286.051H153.774V281.813H147.82ZM152.591 284.959H149.003V282.918H152.591V284.959ZM155.932 288.248C156.894 288.248 157.375 287.741 157.375 286.727V276.782H147.43V277.978H156.14V286.389C156.14 286.857 155.984 287.091 155.672 287.091L153.826 287.065L154.138 288.248H155.932ZM146.767 279.343V280.474H154.983V279.343H146.767ZM160.859 281.488V288.365H162.068V279.551C162.536 278.654 162.913 277.718 163.212 276.756L162.055 276.21C161.47 278.212 160.573 279.98 159.377 281.488L159.78 282.814C160.17 282.372 160.521 281.93 160.859 281.488ZM162.978 277.913V279.07H171.519V277.913H168.009C167.866 277.419 167.658 276.886 167.385 276.301L166.202 276.626C166.423 277.042 166.618 277.471 166.787 277.913H162.978ZM164.161 279.863V280.968H170.414V279.863H164.161ZM164.161 281.696V282.814H170.414V281.696H164.161ZM170.687 283.633H163.875V288.339H165.071V287.663H169.491V288.339H170.687V283.633ZM165.071 286.506V284.777H169.491V286.506H165.071ZM174.392 277.224V283.789H182.712V277.224H178.591C178.721 276.964 178.838 276.691 178.916 276.405L177.629 276.236C177.538 276.574 177.421 276.899 177.265 277.224H174.392ZM181.516 282.736H175.588V281.891H181.516V282.736ZM175.588 280.903V280.084H181.516V280.903H175.588ZM175.588 279.109V278.277H181.516V279.109H175.588ZM173.69 284.543C173.469 285.505 173.092 286.415 172.546 287.247L173.586 287.91C174.132 287.026 174.548 285.986 174.86 284.777L173.69 284.543ZM180.164 288.144C180.684 288.144 181.061 288.04 181.321 287.845C181.594 287.611 181.789 286.948 181.893 285.843L180.71 285.466C180.671 286.233 180.58 286.688 180.437 286.844C180.346 286.974 180.177 287.039 179.93 287.039H177.213C176.953 287.039 176.823 286.896 176.823 286.636V284.517H175.575V286.896C175.575 287.728 176.004 288.144 176.862 288.144H180.164ZM178.565 284.01L177.655 284.569C178.266 285.219 178.747 285.817 179.111 286.363L180.034 285.713C179.696 285.219 179.202 284.66 178.565 284.01ZM182.725 284.283L181.763 284.881C182.504 285.895 183.089 286.805 183.531 287.637L184.506 286.948C184.09 286.194 183.505 285.297 182.725 284.283Z" fill="#5F6E96"/>
<path d="M138.941 181.07V182.24H141.385V182.747C141.372 183.241 141.346 183.722 141.307 184.19H138.746V185.373H141.125C140.709 187.245 139.838 188.584 138.486 189.416L139.227 190.404C140.605 189.494 141.567 188.129 142.1 186.283C142.516 187.622 143.387 188.974 144.713 190.352L145.558 189.429C144.076 188.051 143.166 186.699 142.828 185.373H145.35V184.19H142.49C142.542 183.644 142.568 183.072 142.568 182.474V182.24H145.129V181.07H143.4C143.777 180.433 144.154 179.666 144.518 178.782L143.374 178.353C143.036 179.315 142.633 180.225 142.165 181.07H138.941ZM140.397 178.405L139.448 179.003C139.942 179.757 140.345 180.433 140.631 181.044L141.541 180.407C141.281 179.835 140.891 179.159 140.397 178.405ZM133.559 178.782V179.926H134.248V187.622L133.507 187.739L133.806 188.909C134.872 188.701 135.899 188.48 136.887 188.22V190.365H138.07V187.908L138.837 187.674V186.478C138.577 186.556 138.33 186.647 138.07 186.725V179.926H138.811V178.782H133.559ZM135.431 187.401V185.386H136.887V187.063C136.419 187.18 135.925 187.297 135.431 187.401ZM135.431 184.268V182.682H136.887V184.268H135.431ZM135.431 181.564V179.926H136.887V181.564H135.431ZM152.045 190.3C152.851 190.3 153.267 189.871 153.267 189.039V185.776C154.294 185.698 155.23 185.607 156.088 185.503C156.387 185.945 156.66 186.374 156.894 186.79L157.882 186.101C157.31 185.165 156.478 184.06 155.399 182.812L154.489 183.384C154.801 183.761 155.087 184.138 155.373 184.515C154.034 184.671 152.461 184.814 150.654 184.931C152.175 184.073 153.969 182.76 156.036 180.966L154.892 180.407C154.307 180.94 153.735 181.434 153.189 181.889C152.279 181.954 151.369 182.006 150.459 182.058C151.187 181.538 151.889 180.888 152.565 180.108C154.437 179.978 156.075 179.77 157.453 179.471L156.842 178.444C154.281 178.938 151.135 179.198 147.417 179.198L147.781 180.264C148.925 180.264 150.004 180.238 151.031 180.199C150.303 181.005 149.679 181.538 149.159 181.798C148.899 181.915 148.626 181.993 148.327 182.019L148.587 183.111C149.757 183.046 150.875 182.968 151.915 182.89C150.771 183.735 149.718 184.359 148.756 184.775C148.444 184.879 148.08 184.957 147.69 184.996L148.028 186.075C149.458 186.01 150.784 185.945 152.032 185.867V188.74C152.032 189.026 151.889 189.169 151.616 189.169C151.2 189.169 150.758 189.143 150.29 189.091L150.576 190.3H152.045ZM155.022 186.374L154.203 187.18C155.568 188.207 156.634 189.169 157.388 190.066L158.272 189.182C157.401 188.246 156.322 187.31 155.022 186.374ZM149.835 186.465C148.977 187.427 147.911 188.272 146.663 189L147.443 190.014C148.743 189.221 149.822 188.298 150.706 187.245L149.835 186.465ZM159.754 180.16V181.356H163.329C163.303 181.746 163.277 182.305 163.251 183.02C163.186 184.242 162.939 185.347 162.497 186.335C162.055 187.323 161.145 188.389 159.767 189.546L160.664 190.404C161.808 189.468 162.705 188.441 163.342 187.323C163.81 186.491 164.122 185.568 164.304 184.567H168.555C168.529 186.361 168.49 187.492 168.412 187.934C168.256 188.714 167.905 189.104 167.359 189.13C166.891 189.13 166.306 189.104 165.617 189.078L165.981 190.196C166.553 190.235 167.06 190.261 167.476 190.261C168.503 190.235 169.153 189.702 169.439 188.662C169.647 187.947 169.764 186.192 169.803 183.397H164.447L164.551 181.356H171.311V180.16H166.488C166.202 179.432 165.877 178.808 165.526 178.275L164.356 178.704C164.694 179.172 164.98 179.653 165.227 180.16H159.754ZM172.819 180.563V181.759H179.111C179.215 183.332 179.41 184.71 179.683 185.906C180.463 188.779 181.477 190.248 182.725 190.326C183.466 190.313 184.025 189.338 184.415 187.414L183.297 186.842C183.063 188.22 182.842 188.922 182.647 188.935C182.283 188.935 181.828 188.207 181.282 186.764C180.84 185.412 180.541 183.735 180.385 181.759H184.22V180.563H182.478L183.401 180.108C183.037 179.484 182.647 178.925 182.244 178.405L181.23 178.886C181.633 179.38 182.01 179.939 182.348 180.563H180.32C180.281 179.861 180.268 179.133 180.268 178.366H178.994C178.994 179.12 179.007 179.861 179.046 180.563H172.819ZM173.001 183.657V184.814H175.185V188.038C174.366 188.168 173.534 188.285 172.702 188.389L172.988 189.559C175.159 189.247 177.2 188.857 179.098 188.402V187.193C178.214 187.427 177.317 187.635 176.407 187.817V184.814H178.591V183.657H173.001Z" fill="#5F6E96"/>
<path d="M138.941 305.07V306.24H141.385V306.747C141.372 307.241 141.346 307.722 141.307 308.19H138.746V309.373H141.125C140.709 311.245 139.838 312.584 138.486 313.416L139.227 314.404C140.605 313.494 141.567 312.129 142.1 310.283C142.516 311.622 143.387 312.974 144.713 314.352L145.558 313.429C144.076 312.051 143.166 310.699 142.828 309.373H145.35V308.19H142.49C142.542 307.644 142.568 307.072 142.568 306.474V306.24H145.129V305.07H143.4C143.777 304.433 144.154 303.666 144.518 302.782L143.374 302.353C143.036 303.315 142.633 304.225 142.165 305.07H138.941ZM140.397 302.405L139.448 303.003C139.942 303.757 140.345 304.433 140.631 305.044L141.541 304.407C141.281 303.835 140.891 303.159 140.397 302.405ZM133.559 302.782V303.926H134.248V311.622L133.507 311.739L133.806 312.909C134.872 312.701 135.899 312.48 136.887 312.22V314.365H138.07V311.908L138.837 311.674V310.478C138.577 310.556 138.33 310.647 138.07 310.725V303.926H138.811V302.782H133.559ZM135.431 311.401V309.386H136.887V311.063C136.419 311.18 135.925 311.297 135.431 311.401ZM135.431 308.268V306.682H136.887V308.268H135.431ZM135.431 305.564V303.926H136.887V305.564H135.431ZM152.045 314.3C152.851 314.3 153.267 313.871 153.267 313.039V309.776C154.294 309.698 155.23 309.607 156.088 309.503C156.387 309.945 156.66 310.374 156.894 310.79L157.882 310.101C157.31 309.165 156.478 308.06 155.399 306.812L154.489 307.384C154.801 307.761 155.087 308.138 155.373 308.515C154.034 308.671 152.461 308.814 150.654 308.931C152.175 308.073 153.969 306.76 156.036 304.966L154.892 304.407C154.307 304.94 153.735 305.434 153.189 305.889C152.279 305.954 151.369 306.006 150.459 306.058C151.187 305.538 151.889 304.888 152.565 304.108C154.437 303.978 156.075 303.77 157.453 303.471L156.842 302.444C154.281 302.938 151.135 303.198 147.417 303.198L147.781 304.264C148.925 304.264 150.004 304.238 151.031 304.199C150.303 305.005 149.679 305.538 149.159 305.798C148.899 305.915 148.626 305.993 148.327 306.019L148.587 307.111C149.757 307.046 150.875 306.968 151.915 306.89C150.771 307.735 149.718 308.359 148.756 308.775C148.444 308.879 148.08 308.957 147.69 308.996L148.028 310.075C149.458 310.01 150.784 309.945 152.032 309.867V312.74C152.032 313.026 151.889 313.169 151.616 313.169C151.2 313.169 150.758 313.143 150.29 313.091L150.576 314.3H152.045ZM155.022 310.374L154.203 311.18C155.568 312.207 156.634 313.169 157.388 314.066L158.272 313.182C157.401 312.246 156.322 311.31 155.022 310.374ZM149.835 310.465C148.977 311.427 147.911 312.272 146.663 313L147.443 314.014C148.743 313.221 149.822 312.298 150.706 311.245L149.835 310.465ZM159.754 304.16V305.356H163.329C163.303 305.746 163.277 306.305 163.251 307.02C163.186 308.242 162.939 309.347 162.497 310.335C162.055 311.323 161.145 312.389 159.767 313.546L160.664 314.404C161.808 313.468 162.705 312.441 163.342 311.323C163.81 310.491 164.122 309.568 164.304 308.567H168.555C168.529 310.361 168.49 311.492 168.412 311.934C168.256 312.714 167.905 313.104 167.359 313.13C166.891 313.13 166.306 313.104 165.617 313.078L165.981 314.196C166.553 314.235 167.06 314.261 167.476 314.261C168.503 314.235 169.153 313.702 169.439 312.662C169.647 311.947 169.764 310.192 169.803 307.397H164.447L164.551 305.356H171.311V304.16H166.488C166.202 303.432 165.877 302.808 165.526 302.275L164.356 302.704C164.694 303.172 164.98 303.653 165.227 304.16H159.754ZM172.819 304.563V305.759H179.111C179.215 307.332 179.41 308.71 179.683 309.906C180.463 312.779 181.477 314.248 182.725 314.326C183.466 314.313 184.025 313.338 184.415 311.414L183.297 310.842C183.063 312.22 182.842 312.922 182.647 312.935C182.283 312.935 181.828 312.207 181.282 310.764C180.84 309.412 180.541 307.735 180.385 305.759H184.22V304.563H182.478L183.401 304.108C183.037 303.484 182.647 302.925 182.244 302.405L181.23 302.886C181.633 303.38 182.01 303.939 182.348 304.563H180.32C180.281 303.861 180.268 303.133 180.268 302.366H178.994C178.994 303.12 179.007 303.861 179.046 304.563H172.819ZM173.001 307.657V308.814H175.185V312.038C174.366 312.168 173.534 312.285 172.702 312.389L172.988 313.559C175.159 313.247 177.2 312.857 179.098 312.402V311.193C178.214 311.427 177.317 311.635 176.407 311.817V308.814H178.591V307.657H173.001Z" fill="#5F6E96"/>
<rect x="192" y="151" width="76" height="14" rx="4" fill="#D5DEF6"/>
<rect x="192" y="275" width="90" height="14" rx="4" fill="#D5DEF6"/>
<rect x="192" y="177" width="132" height="14" rx="4" fill="#D5DEF6"/>
<rect x="192" y="301" width="113" height="14" rx="4" fill="#D5DEF6"/>
<path fill-rule="evenodd" clip-rule="evenodd" d="M108.001 163.792L97.5 161.167V157.381C100.785 154.935 103 150.57 103 146.5V140.069C103 137.044 100.536 134.569 97.4981 134.569H96.8125L95.3696 131.681C95.0213 130.983 94.1835 130.671 93.4813 130.952L84.8298 134.411C82.7141 135.258 81 137.792 81 140.071V146.5C81 150.57 83.2146 154.935 86.5 157.381V161.167L75.9986 163.792C73.5511 164.404 71.8333 166.604 71.8333 169.127V174H112.167V169.127C112.167 166.604 110.449 164.404 108.001 163.792Z" fill="#BECCF1"/>
<path fill-rule="evenodd" clip-rule="evenodd" d="M108.001 287.792L97.5 285.167V281.381C100.785 278.935 103 274.57 103 270.5V264.069C103 261.044 100.536 258.569 97.4981 258.569H96.8125L95.3696 255.681C95.0213 254.983 94.1835 254.671 93.4813 254.952L84.8298 258.411C82.7141 259.258 81 261.792 81 264.071V270.5C81 274.57 83.2146 278.935 86.5 281.381V285.167L75.9986 287.792C73.5511 288.404 71.8333 290.604 71.8333 293.127V298H112.167V293.127C112.167 290.604 110.449 288.404 108.001 287.792Z" fill="#BECCF1"/>
<defs>
<filter id="filter0_d" x="0" y="0" width="396" height="386" filterUnits="userSpaceOnUse" color-interpolation-filters="sRGB">
<feFlood flood-opacity="0" result="BackgroundImageFix"/>
<feColorMatrix in="SourceAlpha" type="matrix" values="0 0 0 0 0 0 0 0 0 0 0 0 0 0 0 0 0 0 127 0"/>
<feOffset dy="4"/>
<feGaussianBlur stdDeviation="12"/>
<feColorMatrix type="matrix" values="0 0 0 0 0.135086 0 0 0 0 0.204976 0 0 0 0 0.340522 0 0 0 0.08 0"/>
<feBlend mode="normal" in2="BackgroundImageFix" result="effect1_dropShadow"/>
<feBlend mode="normal" in="SourceGraphic" in2="effect1_dropShadow" result="shape"/>
</filter>
</defs>
</svg>
