<svg width="312" height="383" viewBox="0 0 312 383" fill="none" xmlns="http://www.w3.org/2000/svg">
<g filter="url(#filter0_d)">
<rect x="24" y="20" width="264" height="335" rx="6" fill="white"/>
</g>
<rect x="44" y="38" width="224" height="229" rx="5.06587" fill="#EDF1F8"/>
<path fill-rule="evenodd" clip-rule="evenodd" d="M201.019 187.717L170.379 174.312V151.188H142.629V174.312L142.34 174.457L111.997 187.717C108.48 189.254 105.629 193.621 105.629 197.459V204.368C105.629 205.649 106.669 206.688 107.946 206.688H205.063C206.342 206.688 207.379 205.675 207.379 204.368V197.459C207.379 193.616 204.537 189.257 201.019 187.717Z" fill="#BECCF1"/>
<path d="M156.504 165.062C142.478 165.062 131.067 153.651 131.067 139.625V130.375C131.067 116.349 142.478 104.938 156.504 104.938C170.53 104.938 181.942 116.349 181.942 130.375V139.625C181.942 153.651 170.53 165.062 156.504 165.062Z" fill="#BECCF1"/>
<path d="M110.25 118.812C108.973 118.812 107.938 117.778 107.938 116.5V102.625C107.938 101.347 108.973 100.312 110.25 100.312H124.125C125.402 100.312 126.438 101.347 126.438 102.625C126.438 103.903 125.402 104.938 124.125 104.938H112.563V116.5C112.563 117.778 111.527 118.812 110.25 118.812Z" fill="#72C472"/>
<path d="M124.125 169.688H110.25C108.973 169.688 107.938 168.653 107.938 167.375V153.5C107.938 152.222 108.973 151.188 110.25 151.188C111.527 151.188 112.563 152.222 112.563 153.5V165.062H124.125C125.402 165.062 126.438 166.097 126.438 167.375C126.438 168.653 125.402 169.688 124.125 169.688Z" fill="#72C472"/>
<path d="M202.75 169.688H188.875C187.598 169.688 186.563 168.653 186.563 167.375C186.563 166.097 187.598 165.062 188.875 165.062H200.438V153.5C200.438 152.222 201.473 151.188 202.75 151.188C204.027 151.188 205.063 152.222 205.063 153.5V167.375C205.063 168.653 204.027 169.688 202.75 169.688Z" fill="#72C472"/>
<path d="M202.75 118.812C201.473 118.812 200.438 117.778 200.438 116.5V104.938H188.875C187.598 104.938 186.563 103.903 186.563 102.625C186.563 101.347 187.598 100.312 188.875 100.312H202.75C204.027 100.312 205.063 101.347 205.063 102.625V116.5C205.063 117.778 204.027 118.812 202.75 118.812Z" fill="#72C472"/>
<path d="M111 281C108.627 281 106.307 281.704 104.333 283.022C102.36 284.341 100.822 286.215 99.9135 288.408C99.0052 290.601 98.7676 293.013 99.2306 295.341C99.6936 297.669 100.836 299.807 102.515 301.485C104.193 303.164 106.331 304.306 108.659 304.769C110.987 305.232 113.399 304.995 115.592 304.087C117.785 303.178 119.659 301.64 120.978 299.667C122.296 297.693 123 295.373 123 293C122.991 289.82 121.724 286.773 119.475 284.525C117.227 282.276 114.18 281.009 111 281V281ZM109 298.414L103.586 293L105 291.586L109 295.586L117 287.586L118.414 289L109 298.414Z" fill="#72C472"/>
<path d="M144.42 295.1C143.86 296.88 143.24 298.42 142.52 299.72H131.52V301.48H148.52V299.72H144.56C145.24 298.5 145.82 297.12 146.3 295.6L144.42 295.1ZM135.34 295.28L133.6 295.84C134.24 296.96 134.74 298.14 135.14 299.38L136.86 298.94C136.4 297.56 135.9 296.34 135.34 295.28ZM139.96 294.88L138.2 295.44C138.72 296.64 139.14 297.88 139.48 299.18L141.18 298.76C140.82 297.3 140.42 296 139.96 294.88ZM134.76 293.12V294.54H145.26V293.14C146.18 293.56 147.18 293.96 148.24 294.32L149.16 292.68C145.92 291.66 143.08 290.26 140.6 288.5H139.4C137.12 290.14 134.28 291.52 130.84 292.64L131.76 294.3C132.8 293.92 133.8 293.52 134.76 293.12ZM144.7 292.88H135.28C137.1 292.02 138.68 291.08 140 290.04C141.36 291.1 142.94 292.04 144.7 292.88ZM134.24 286.86H135.56C135.88 287.6 136.16 288.36 136.4 289.16L138.12 288.54C137.94 288.02 137.72 287.46 137.44 286.86H139.94V285.18H134.96C135.1 284.78 135.24 284.38 135.38 283.94L133.54 283.54C133.02 285.3 132.16 286.94 130.92 288.48L132.56 289.52C133.18 288.72 133.74 287.82 134.24 286.86ZM142.62 286.86H144.2C144.62 287.66 145 288.48 145.32 289.36L147.06 288.7C146.82 288.14 146.52 287.52 146.14 286.86H148.96V285.18H143.34C143.48 284.78 143.62 284.38 143.74 283.94L141.94 283.54C141.54 285.02 140.86 286.38 139.94 287.66L141.54 288.68C141.94 288.12 142.3 287.5 142.62 286.86ZM161.76 298.28C160.46 298.56 159.14 298.84 157.8 299.08V296.1H161.18V294.28H157.8V292.16H155.88V294.28H152.18V296.1H155.88V299.4C154.38 299.62 152.86 299.82 151.32 299.98L151.76 301.8C155.32 301.36 158.64 300.8 161.76 300.16V298.28ZM151.62 284.32V286.12H154.62C153.54 288.24 152.68 289.58 152.04 290.12C151.88 290.2 151.62 290.26 151.3 290.3L151.72 292C154.66 291.7 157.38 291.32 159.9 290.86C160.18 291.38 160.46 291.88 160.72 292.36L162.3 291.26C161.6 289.96 160.58 288.44 159.26 286.68L157.8 287.62C158.24 288.24 158.64 288.86 159.04 289.46C157.5 289.72 155.94 289.94 154.34 290.1C155.04 289.16 155.82 287.84 156.66 286.12H161.68V284.32H151.62ZM166.88 301.88C168.22 301.88 168.9 301.2 168.9 299.84V283.66H166.98V299.36C166.98 299.88 166.72 300.14 166.22 300.14C165.36 300.14 164.46 300.1 163.5 300.04L163.92 301.88H166.88ZM163.08 285.46V297.72H164.92V285.46H163.08ZM185.9 283.46L184.7 284.62C185.54 285.26 186.22 285.9 186.76 286.5H183.68C183.64 285.58 183.6 284.6 183.6 283.56H181.68C181.68 284.58 181.68 285.56 181.72 286.5H173.48V293.16C173.42 296.42 172.76 298.96 171.52 300.78L172.96 302.06C174.48 299.82 175.3 296.86 175.38 293.16V293.04H178.4C178.36 295.12 178.3 296.44 178.18 296.96C178.06 297.4 177.84 297.62 177.48 297.64C176.92 297.64 176.26 297.6 175.46 297.56L176.04 299.28C176.66 299.34 177.22 299.38 177.7 299.38C178.74 299.36 179.42 298.94 179.74 298.1C180.06 297.14 180.24 294.86 180.28 291.24H175.38V288.32H181.82C181.96 290.76 182.24 292.78 182.68 294.4C182.9 295.24 183.14 296.02 183.42 296.74C182.1 298.38 180.48 299.62 178.56 300.48L179.64 302.08C181.4 301.3 182.96 300.16 184.3 298.66C184.56 299.14 184.84 299.58 185.16 299.98C186.12 301.16 187.04 301.76 187.92 301.76C188.88 301.76 189.62 300.36 190.12 297.6L188.4 296.68C188.14 298.64 187.88 299.62 187.62 299.62C187.3 299.62 186.82 299.16 186.22 298.28C186 297.94 185.78 297.54 185.56 297.06C186.8 295.26 187.8 293.06 188.6 290.5L186.86 289.76C186.3 291.66 185.6 293.34 184.76 294.82C184.66 294.5 184.56 294.16 184.48 293.82C184.14 292.52 183.9 290.68 183.76 288.32H189.72V286.5H187.32L188.24 285.58C187.6 284.86 186.82 284.16 185.9 283.46ZM194.9 287.5V296.62C193.92 296.84 192.94 297.04 191.94 297.2L192.42 299.12C195.02 298.56 197.46 297.86 199.76 297.04V295.14C198.78 295.5 197.8 295.82 196.8 296.12V287.5H199.52V285.68H192.18V287.5H194.9ZM202.92 283.66V287.54H199.9V289.38H202.92V289.44C202.88 294.68 201.44 298.48 198.6 300.84L200.16 302.22C203.2 299.5 204.76 295.24 204.84 289.44V289.38H208C207.96 294.7 207.9 297.82 207.78 298.76C207.6 299.66 206.94 300.12 205.78 300.12C205.22 300.12 204.54 300.08 203.74 300.02L204.2 301.8C205.1 301.86 205.74 301.9 206.1 301.9C208.14 301.9 209.3 301.14 209.56 299.64C209.76 298.1 209.86 294.06 209.86 287.54H204.84V283.66H202.92Z" fill="#4E5B7C"/>
<path d="M100.116 318.688C99.828 321.28 99.156 323.296 98.132 324.736L99.348 325.616C99.924 324.88 100.42 323.904 100.82 322.688H104.708C104.484 323.904 104.196 324.96 103.844 325.888L105.332 326.304C105.716 324.96 106.036 323.6 106.292 322.224V321.232H101.22C101.38 320.528 101.508 319.76 101.62 318.928L100.116 318.688ZM97.492 331.136L98.596 330.016C97.924 329.024 97.284 328.128 96.676 327.312C97.268 325.76 97.748 323.984 98.1 322V320.592H92.228V322.064H96.612C96.388 323.52 96.084 324.848 95.7 326.032C94.804 324.912 93.988 323.968 93.236 323.216L92.228 324.192C93.22 325.296 94.164 326.448 95.076 327.648C94.276 329.408 93.236 330.768 91.956 331.728L92.708 333.088C93.988 332.064 95.076 330.656 95.972 328.88C96.484 329.616 96.996 330.368 97.492 331.136ZM101.588 323.648C101.572 325.68 101.348 327.344 100.916 328.624C100.372 330.144 99.204 331.424 97.444 332.48L98.404 333.664C100.5 332.432 101.828 330.88 102.388 328.992C102.388 328.976 102.388 328.96 102.404 328.96C103.204 330.8 104.34 332.368 105.812 333.664L106.836 332.464C104.98 331.008 103.652 329.072 102.884 326.656C103.012 325.728 103.076 324.736 103.076 323.648H101.588ZM109.796 319.024L108.788 320C109.94 320.928 110.82 321.792 111.46 322.592L112.516 321.552C111.78 320.72 110.868 319.872 109.796 319.024ZM119.396 333.36H122.804L123.156 331.92C122.74 331.952 122.164 331.968 121.412 332C120.66 332.016 119.924 332.032 119.204 332.032C117.892 332.032 116.772 332.016 115.828 332C114.836 331.968 114.084 331.824 113.588 331.6C113.188 331.376 112.788 331.056 112.372 330.624C112.276 330.528 112.196 330.432 112.1 330.352V324.32H108.5V325.696H110.708V330.256C110.036 330.608 109.3 331.44 108.484 332.784L109.556 333.792C110.42 332.256 111.012 331.504 111.364 331.504C111.556 331.504 111.78 331.632 112.004 331.92C112.484 332.464 113.076 332.848 113.764 333.04C114.436 333.216 115.332 333.312 116.42 333.328C117.492 333.344 118.484 333.36 119.396 333.36ZM113.428 330.288C114.932 329.92 116.244 329.568 117.38 329.216L117.108 327.792C116.372 328.048 115.62 328.272 114.852 328.48V321.328C115.988 320.928 116.884 320.496 117.556 320.048L116.724 318.816C115.908 319.392 114.82 319.888 113.444 320.32V328.208C113.444 328.56 113.3 328.816 113.028 328.944L113.428 330.288ZM121.124 329.76C122.052 329.76 122.532 329.232 122.532 328.176V319.76H117.796V331.536H119.252V321.104H121.108V327.872C121.108 328.208 120.948 328.384 120.644 328.384L119.54 328.304L119.94 329.76H121.124ZM124.948 323.568V324.944H128.916C127.844 325.76 126.42 326.416 124.628 326.928L125.316 328.272C127.732 327.408 129.588 326.288 130.868 324.944H133.7C134.74 326.288 136.42 327.376 138.756 328.224L139.412 326.832C137.652 326.368 136.308 325.744 135.364 324.944H139.044V323.568H131.924C132.132 323.216 132.308 322.848 132.468 322.464C133.62 322.4 134.756 322.352 135.844 322.288C136.196 322.624 136.516 322.96 136.804 323.296L138.068 322.416C137.236 321.536 136.036 320.496 134.468 319.312L133.3 320.048C133.716 320.384 134.132 320.72 134.516 321.072C132.836 321.184 131.108 321.264 129.332 321.328C130.164 320.752 130.98 320.048 131.796 319.248L130.292 318.736C128.628 320.336 127.332 321.216 126.404 321.344L126.628 322.656C128.1 322.624 129.54 322.576 130.916 322.528C130.756 322.88 130.548 323.232 130.292 323.568H124.948ZM131.924 325.264C130.964 326.4 129.476 327.312 127.428 328L128.1 329.184C130.372 328.384 132.036 327.312 133.108 325.968L131.924 325.264ZM136.068 327.76C134.756 330.032 131.716 331.68 126.916 332.672L127.78 333.856C132.708 332.816 135.924 330.976 137.396 328.352L136.068 327.76ZM133.956 326.608C132.356 328.528 130.068 329.728 127.108 330.208L127.972 331.36C130.82 330.848 133.204 329.536 135.14 327.392L133.956 326.608ZM155.028 321.136H149.572V333.408H151.028V332.4H153.556V333.408H155.028V321.136ZM151.028 330.944V322.592H153.556V330.944H151.028ZM143.62 318.928V322.032H141.188V323.504H143.62C143.556 327.728 142.628 330.816 140.852 332.736L141.988 333.744C143.988 331.568 145.028 328.16 145.124 323.504H146.852C146.82 327.76 146.772 330.256 146.676 331.008C146.564 331.744 146.164 332.128 145.492 332.128C145.108 332.128 144.644 332.096 144.1 332.048L144.484 333.44C145.06 333.488 145.476 333.52 145.732 333.52C147.14 333.52 147.94 332.912 148.1 331.696C148.26 330.464 148.34 327.248 148.34 322.032H145.124V318.928H143.62ZM157.764 321.696V323.152H162.692C161.54 325.808 159.7 328 157.172 329.696L158.052 331.12C160.772 329.04 162.724 326.384 163.876 323.152H163.892V329.04H160.724V330.496H163.892V333.648H165.428V330.496H168.724V329.04H165.428V323.152H165.444C166.516 326.016 168.388 328.608 171.06 330.912L172.1 329.6C169.508 327.712 167.684 325.552 166.628 323.152H171.54V321.696H165.428V318.928H163.892V321.696H157.764ZM180.836 322.64H186.26C185.94 323.824 185.556 324.88 185.092 325.776L186.58 326.192C187.124 324.864 187.556 323.52 187.892 322.176V321.184H181.236C181.396 320.512 181.524 319.808 181.652 319.04L180.132 318.8C179.764 321.584 178.932 323.76 177.652 325.328L178.916 326.224C179.7 325.328 180.34 324.144 180.836 322.64ZM182.18 323.6C182.148 325.648 181.892 327.312 181.396 328.608C180.724 330.144 179.316 331.44 177.204 332.496L178.196 333.712C180.644 332.464 182.196 330.896 182.852 328.992C182.932 328.752 183.012 328.512 183.076 328.272C184.084 330.416 185.556 332.208 187.476 333.68L188.484 332.512C186.084 330.896 184.436 328.704 183.524 325.936C183.604 325.2 183.652 324.432 183.652 323.6H182.18ZM174.9 319.488L173.668 320.256C174.852 321.488 175.78 322.608 176.484 323.632L177.684 322.8C177.028 321.84 176.1 320.736 174.9 319.488ZM176.42 326.384C175.604 328.48 174.628 330.528 173.508 332.528L174.916 333.168C175.972 331.216 176.916 329.12 177.764 326.896L176.42 326.384ZM194.164 323.424V324.88H198.596V326.96H195.188V333.648H196.708V332.864H202.164V333.632H203.668V326.96H200.148V324.88H204.612V323.424H200.148V321.088C201.588 320.88 202.852 320.576 203.956 320.192L203.204 318.912C200.836 319.68 197.924 320.064 194.452 320.064L194.932 321.424C196.228 321.424 197.444 321.36 198.596 321.264V323.424H194.164ZM196.708 331.44V328.384H202.164V331.44H196.708ZM191.46 319.04L190.42 320.016C191.588 320.784 192.5 321.504 193.14 322.16L194.18 321.136C193.428 320.432 192.516 319.728 191.46 319.04ZM191.092 322.848L190.02 323.888C191.204 324.736 192.132 325.52 192.788 326.256L193.844 325.2C193.108 324.416 192.18 323.632 191.092 322.848ZM192.644 327.152C191.988 329.072 191.204 330.944 190.292 332.784L191.812 333.456C192.612 331.664 193.364 329.744 194.036 327.696L192.644 327.152ZM206.98 319.872V321.328H212.932V319.872H206.98ZM206.388 324.192V325.664H208.436C207.7 328.352 207.124 330 206.692 330.624C206.628 330.672 206.532 330.72 206.372 330.752L206.74 332.192C208.692 331.84 210.5 331.376 212.18 330.8L212.596 331.824L213.908 331.152C213.236 329.536 212.532 328.048 211.796 326.704L210.516 327.328C210.884 328.016 211.252 328.752 211.62 329.536C210.548 329.936 209.476 330.256 208.42 330.48C208.836 329.456 209.332 327.856 209.908 325.664H213.508V324.192H206.388ZM215.684 318.928V322.032H213.652V323.504H215.684V323.648C215.652 327.824 214.66 330.848 212.724 332.736L213.86 333.744C216.036 331.616 217.14 328.256 217.188 323.648V323.504H219.172C219.14 327.76 219.092 330.272 218.996 331.024C218.868 331.792 218.468 332.176 217.764 332.176C217.348 332.176 216.852 332.144 216.276 332.096L216.628 333.44C217.268 333.472 217.716 333.504 217.972 333.504C219.428 333.504 220.244 332.896 220.42 331.68C220.564 330.464 220.644 327.248 220.644 322.032H217.188V318.928H215.684Z" fill="#7987AD"/>
<defs>
<filter id="filter0_d" x="0" y="0" width="312" height="383" filterUnits="userSpaceOnUse" color-interpolation-filters="sRGB">
<feFlood flood-opacity="0" result="BackgroundImageFix"/>
<feColorMatrix in="SourceAlpha" type="matrix" values="0 0 0 0 0 0 0 0 0 0 0 0 0 0 0 0 0 0 127 0"/>
<feOffset dy="4"/>
<feGaussianBlur stdDeviation="12"/>
<feColorMatrix type="matrix" values="0 0 0 0 0.135086 0 0 0 0 0.204976 0 0 0 0 0.340522 0 0 0 0.08 0"/>
<feBlend mode="normal" in2="BackgroundImageFix" result="effect1_dropShadow"/>
<feBlend mode="normal" in="SourceGraphic" in2="effect1_dropShadow" result="shape"/>
</filter>
</defs>
</svg>
